<svg width="16" height="16" viewBox="0 0 16 16" fill="none" xmlns="http://www.w3.org/2000/svg">
<path d="M2.98338 2.25365H8.73005V5.11365H11.5967V7.97365H12.53V4.48698L9.70338 1.32031H2.05005V14.6536H7.29672V13.7203H2.98338V2.25365ZM11.01 4.18031H9.66338V2.67365L11.01 4.18031ZM13.0567 10.487L13.4234 10.1203L12.7634 9.46031L12.3967 9.82698C12.13 9.65365 11.8367 9.53364 11.5367 9.47365V8.96031H10.6034V9.48698C10.3034 9.54698 10.0167 9.66698 9.75005 9.84698L9.38338 9.48031L8.72338 10.1403L9.09005 10.507C8.91672 10.767 8.80338 11.0603 8.74338 11.3536H8.22338V12.287H8.74338C8.80338 12.5803 8.91672 12.867 9.09005 13.127L8.72338 13.4936L9.38338 14.1536L9.75005 13.787C10.01 13.967 10.3034 14.0803 10.6034 14.147V14.6736H11.5367V14.1603C11.8367 14.1003 12.13 13.987 12.3967 13.8136L12.7634 14.1803L13.4234 13.5203L13.0567 13.1536C13.2367 12.887 13.3567 12.5936 13.4167 12.2936H13.9367V11.3603H13.4167C13.3567 11.0536 13.2367 10.7603 13.0567 10.4936V10.487ZM10.0567 10.787C10.33 10.5136 10.6967 10.3603 11.0834 10.3603C11.47 10.3603 11.8367 10.5136 12.11 10.787C12.6767 11.3536 12.6767 12.2736 12.11 12.8403C11.5434 13.407 10.61 13.387 10.0567 12.8403C9.49005 12.2736 9.49005 11.3536 10.0567 10.787Z" fill="#303030"/>
</svg>
