<svg width="16" height="16" viewBox="0 0 16 16" fill="none" xmlns="http://www.w3.org/2000/svg">
<path d="M14.6667 8.19667H14.68L14.4 2.75H11.6733L11.36 7.97667H9.78668V5.90333L6.43335 7.51L6.44668 5.77L2.50002 7.97667H1.28668V14.69L14.66 14.6567V8.20333L14.6667 8.19667ZM12.56 3.68333H13.52L13.74 7.97667H12.3067L12.56 3.68333ZM13.7333 13.7167L2.23335 13.75V8.91H2.75335L5.51335 7.37L5.50002 9.00333L8.86002 7.39V8.91H13.7333V13.7233V13.7167Z" fill="#303030"/>
<path d="M5.17334 11.8203H6.58001V12.7536H5.17334V11.8203Z" fill="#303030"/>
<path d="M8.03333 11.8203H9.43999V12.7536H8.03333V11.8203Z" fill="#303030"/>
<path d="M10.88 11.8203H12.2867V12.7536H10.88V11.8203Z" fill="#303030"/>
</svg>
