<svg width="16" height="16" viewBox="0 0 16 16" fill="none" xmlns="http://www.w3.org/2000/svg">
<path d="M4.26001 8.01438H5.19334C5.19334 7.26771 5.50001 6.55438 6.04001 6.01438C6.58001 5.47438 7.29334 5.17438 8.04668 5.16771V4.23438C7.04001 4.24104 6.09334 4.64104 5.38001 5.35437C4.66668 6.06771 4.26668 7.01438 4.26001 8.01438Z" fill="#303030"/>
<path d="M2.27336 8.02583C2.28669 6.4925 2.89336 5.0525 3.98669 3.95917C5.08003 2.86583 6.52669 2.25917 8.05336 2.24583V1.3125C6.26669 1.32583 4.59336 2.0325 3.32669 3.29917C2.06003 4.56583 1.35336 6.23917 1.34003 8.01917H2.27336V8.02583Z" fill="#303030"/>
<path d="M9.99334 7.00177L11.06 8.08844C10.5333 9.50177 9.56667 10.4684 8.11334 11.0284L7.02667 9.96177L4.67334 10.7284L4.94001 14.6751L5.40001 14.6551C11.1267 14.3884 14.0733 11.4484 14.68 5.3951L14.7267 4.9151L10.7533 4.64844L9.98667 7.00177H9.99334ZM11.42 5.62844L13.7 5.78177C13.06 10.8751 10.6067 13.3351 5.81334 13.6951L5.66001 11.3951L6.78001 11.0284L7.87334 12.1084L8.14667 12.0151C10.1067 11.3484 11.42 10.0351 12.04 8.1151L12.1267 7.84844L11.0533 6.7551L11.42 5.6351V5.62844Z" fill="#303030"/>
</svg>
