<svg width="16" height="16" viewBox="0 0 16 16" fill="none" xmlns="http://www.w3.org/2000/svg">
<path d="M3.14329 5.08583L2.19663 14.6992H12.7566L11.8233 13.7658H3.22329L3.99663 5.93917L3.14329 5.08583ZM12.6233 11.7125L11.8966 4.7325H9.86996V3.69917C9.86996 2.38583 8.79663 1.3125 7.48329 1.3125C6.16996 1.3125 5.09663 2.38583 5.09663 3.69917V4.18583L2.36996 1.45917L1.70996 2.11917L4.32329 4.7325H4.26329L5.19663 5.66583H5.25663L13.6233 14.0325L14.2833 13.3725L12.6166 11.7058H12.6233V11.7125ZM7.48329 2.24583C8.28329 2.24583 8.93663 2.89917 8.93663 3.69917V4.7325H6.02996V3.69917C6.02996 2.89917 6.68329 2.24583 7.48329 2.24583ZM11.0566 5.66583L11.5833 10.6658L6.57663 5.66583H11.0566Z" fill="#303030"/>
</svg>
