<svg width="16" height="16" viewBox="0 0 16 16" fill="none" xmlns="http://www.w3.org/2000/svg">
<path d="M5.94659 11.3355H10.1066C10.3133 12.1555 11.0533 12.7689 11.9333 12.7689C12.8133 12.7689 13.5599 12.1555 13.7599 11.3355H14.6599V6.06219L11.7933 3.24219H9.42659V7.55552H7.97325V3.26219H1.34659V7.55552H1.33325V11.3355H2.27992C2.48659 12.1489 3.22659 12.7555 4.10659 12.7555C4.98659 12.7555 5.73325 12.1489 5.93992 11.3355H5.94659ZM2.27992 4.19552H7.03992V7.54219H2.27992V4.19552ZM11.9266 11.8355C11.3999 11.8355 10.9733 11.4089 10.9733 10.8822C10.9733 10.3555 11.3999 9.92885 11.9266 9.92885C12.4533 9.92885 12.8799 10.3555 12.8799 10.8822C12.8799 11.4089 12.4533 11.8355 11.9266 11.8355ZM10.3599 4.17552H11.4133L13.7266 6.45552V10.3155C13.4799 9.55552 12.7733 8.99552 11.9333 8.99552C11.2799 8.99552 10.7066 9.32885 10.3666 9.83552V7.56219V4.18219L10.3599 4.17552ZM2.28659 10.4022H2.27325V8.48885H9.43325V10.4022H5.94659C5.73992 9.58219 4.99992 8.97552 4.11325 8.97552C3.22659 8.97552 2.49325 9.58219 2.28659 10.4022ZM4.94659 11.3355C4.78659 11.6289 4.46659 11.8222 4.11325 11.8222C3.75992 11.8222 3.44659 11.6289 3.28659 11.3355C3.20659 11.1955 3.15992 11.0422 3.15992 10.8689C3.15992 10.6955 3.20659 10.5355 3.28659 10.4022C3.44659 10.1089 3.75992 9.90885 4.11325 9.90885C4.46659 9.90885 4.78659 10.1089 4.94659 10.4022C5.02659 10.5355 5.07325 10.6955 5.07325 10.8689C5.07325 11.0422 5.02659 11.1955 4.94659 11.3355Z" fill="#303030"/>
</svg>
