<svg width="16" height="16" viewBox="0 0 16 16" fill="none" xmlns="http://www.w3.org/2000/svg">
<path d="M8.00675 1.32812C4.32009 1.32812 1.34009 4.30812 1.34009 7.99479C1.34009 11.6815 4.32675 14.6615 8.00675 14.6615C11.6868 14.6615 14.6734 11.6748 14.6734 7.99479C14.6734 4.31479 11.6868 1.32812 8.00675 1.32812ZM8.00675 13.7281C4.84675 13.7281 2.27342 11.1548 2.27342 7.99479C2.27342 4.83479 4.84009 2.26146 8.00675 2.26146C11.1734 2.26146 13.7401 4.83479 13.7401 7.99479C13.7401 11.1548 11.1668 13.7281 8.00675 13.7281ZM6.24675 5.47479L8.76675 7.99479L6.25342 10.5081L6.92009 11.1681L10.0868 7.99479L6.90675 4.81479L6.24675 5.47479Z" fill="#303030"/>
</svg>
