<svg width="16" height="16" viewBox="0 0 16 16" fill="none" xmlns="http://www.w3.org/2000/svg">
<path d="M1.33325 4.09635V14.583H14.6666V4.09635L7.99325 1.42969L1.33325 4.09635ZM13.7333 4.72969V13.6497H2.26659V4.72302L7.99325 2.42969L13.7333 4.72302V4.72969ZM4.68659 6.48302H5.61992V8.38969H4.68659V6.48302ZM4.67325 12.183H5.60659V10.2764H6.09325V9.34302H4.18659V10.2764H4.67325V12.183ZM7.53325 9.33635H8.46659V12.1964H7.53325V9.33635ZM8.95325 7.44969H8.46659V6.48969H7.53325V7.44969H7.04659V8.38302H8.95325V7.44969ZM10.3866 12.1897H11.3199V11.2297H11.8066V10.2964H9.90659V11.2297H10.3866V12.1897ZM10.3866 6.48302H11.3199V9.34302H10.3866V6.48302Z" fill="#303030"/>
</svg>
