<svg width="16" height="16" viewBox="0 0 16 16" fill="none" xmlns="http://www.w3.org/2000/svg">
<path d="M5.12668 11.7709H6.57335V10.8376H5.12668C3.56001 10.8376 2.28001 9.56427 2.28001 7.99094C2.28001 6.4176 3.56001 5.14427 5.12668 5.14427H6.57335V4.21094H5.12668C3.04001 4.21094 1.34668 5.90427 1.34668 7.99094C1.34668 10.0776 3.04001 11.7709 5.12668 11.7709Z" fill="#303030"/>
<path d="M10.8867 4.21094H9.44V5.14427H10.8867C12.4533 5.14427 13.7333 6.42427 13.7333 7.99094C13.7333 9.5576 12.4533 10.8376 10.8867 10.8376H9.44V11.7709H10.8867C12.9733 11.7709 14.6667 10.0776 14.6667 7.99094C14.6667 5.90427 12.9733 4.21094 10.8867 4.21094Z" fill="#303030"/>
<path d="M5.14001 7.53125H10.86V8.46458H5.14001V7.53125Z" fill="#303030"/>
</svg>
