<svg width="16" height="16" viewBox="0 0 16 16" fill="none" xmlns="http://www.w3.org/2000/svg">
<path d="M1.34668 4.19938H14.66V1.35938H1.34668V4.19938ZM2.28001 2.29271H13.7267V3.26604H2.28001V2.29271ZM1.34668 7.97271H14.66V5.13271H1.34668V7.97271ZM2.28001 6.06604H13.7267V7.03938H2.28001V6.06604ZM1.34668 11.7727H7.99335V8.93271H1.34668V11.7727ZM2.28001 9.86604H7.06001V10.8394H2.28001V9.86604ZM12.42 8.88604C11.2 8.88604 10.2133 9.87271 10.2133 11.0927C10.2133 11.5327 10.3467 11.9394 10.5667 12.286L8.86668 13.9794L9.52668 14.6394L11.2267 12.946C11.5733 13.1727 11.98 13.2994 12.42 13.2994C13.64 13.2994 14.6267 12.3127 14.6267 11.0927C14.6267 9.87271 13.64 8.88604 12.42 8.88604ZM12.42 12.3727C11.7133 12.3727 11.1467 11.7994 11.1467 11.0994C11.1467 10.3994 11.72 9.82604 12.42 9.82604C13.12 9.82604 13.6933 10.3994 13.6933 11.0994C13.6933 11.7994 13.12 12.3727 12.42 12.3727Z" fill="#303030"/>
</svg>
