<svg width="16" height="16" viewBox="0 0 16 16" fill="none" xmlns="http://www.w3.org/2000/svg">
<path d="M13.7301 3.70677V12.3134H2.26341V3.70677H13.7234M14.6634 2.77344H1.33008V13.2468H14.6567V2.77344H14.6634ZM9.41674 5.63344H12.7167V6.56677H9.41674V5.63344ZM9.41674 7.5401H12.7167V8.47344H9.41674V7.5401ZM9.41674 9.43344H11.7834V10.3668H9.41674V9.43344ZM7.33008 8.77344C7.78341 8.39344 8.08341 7.83344 8.08341 7.2001C8.08341 6.06677 7.16341 5.14677 6.03008 5.14677C4.89674 5.14677 3.97674 6.06677 3.97674 7.2001C3.97674 7.8601 4.29008 8.4401 4.77674 8.81344C3.85008 9.28677 3.21008 10.2334 3.21008 11.3334H4.14341C4.14341 10.2801 5.01674 9.41344 6.08341 9.41344C7.15008 9.41344 8.02341 10.2734 8.02341 11.3334H8.95674C8.95674 10.2068 8.28341 9.23344 7.32341 8.77344H7.33008ZM6.03008 6.08677C6.65008 6.08677 7.15008 6.58677 7.15008 7.20677C7.15008 7.82677 6.65008 8.32677 6.03008 8.32677C5.41008 8.32677 4.91008 7.82677 4.91008 7.20677C4.91008 6.58677 5.41008 6.08677 6.03008 6.08677Z" fill="#303030"/>
</svg>
