<svg width="16" height="16" viewBox="0 0 16 16" fill="none" xmlns="http://www.w3.org/2000/svg">
<path d="M14.0067 10.6849L11.7401 12.9116V1.35156H10.8067V12.8649L8.64006 10.6649L7.97339 11.3182L11.2801 14.6782L14.6601 11.3516L14.0067 10.6849Z" fill="#303030"/>
<path d="M4.20002 8.19531C4.20002 8.31531 4.19335 8.40198 4.17335 8.46198C4.15335 8.51531 4.12668 8.55531 4.08668 8.58198C4.04668 8.60198 3.98002 8.61531 3.90002 8.61531H3.43335V9.45531H4.20668V12.0086H5.22002V8.19531H4.20668H4.20002Z" fill="#303030"/>
<path d="M4.42666 5.40125L4.73333 5.06125C4.95333 4.81458 5.12 4.60792 5.25333 4.44125C5.38 4.27458 5.48666 4.09458 5.57333 3.90792C5.66 3.72125 5.7 3.52125 5.7 3.32125C5.7 2.98792 5.58666 2.73458 5.35333 2.55458C5.12 2.37458 4.8 2.28125 4.39333 2.28125C3.94 2.28125 3.58 2.39458 3.31333 2.62792C3.04666 2.86125 2.91333 3.19458 2.91333 3.64125H3.8C3.8 3.42125 3.85333 3.25458 3.94666 3.14792C4.04 3.04125 4.17333 2.98792 4.34666 2.98792C4.49333 2.98792 4.60666 3.02125 4.68 3.09458C4.75333 3.16792 4.78666 3.27458 4.78666 3.41458C4.78666 3.56125 4.74 3.72125 4.64 3.89458C4.54 4.06792 4.42666 4.22792 4.29333 4.38792C4.16 4.54792 4 4.72125 3.80666 4.92125L3.03333 5.72125V6.18125H5.79333V5.41458H4.42666V5.40125Z" fill="#303030"/>
</svg>
