<svg width="16" height="16" viewBox="0 0 16 16" fill="none" xmlns="http://www.w3.org/2000/svg">
<path d="M3.14003 13.4545H10.4734C11.4667 13.4545 12.2734 12.6478 12.2734 11.6545V9.17448H12.8534C13.8467 9.17448 14.6534 8.36781 14.6534 7.37448V7.18115C14.6534 6.18781 13.8467 5.38115 12.8534 5.38115H1.34003V11.6545C1.34003 12.6478 2.14669 13.4545 3.14003 13.4545ZM12.2734 6.30781H12.8534C13.3334 6.30781 13.72 6.69448 13.72 7.17448V7.36781C13.72 7.84781 13.3334 8.23448 12.8534 8.23448H12.2734V6.30781ZM2.27336 6.30781H11.34V11.6478C11.34 12.1278 10.9534 12.5145 10.4734 12.5145H3.14003C2.66003 12.5145 2.27336 12.1278 2.27336 11.6478V6.30781ZM4.67336 2.50781H5.60669V4.88781H4.67336V2.50781ZM6.58003 2.98115H7.51336V4.88781H6.58003V2.98115Z" fill="#303030"/>
</svg>
