<svg width="16" height="16" viewBox="0 0 16 16" fill="none" xmlns="http://www.w3.org/2000/svg">
<path d="M14.0366 12.2904H11.65V14.6771H10.7166V12.2904H8.30997V11.3637H10.7166V8.97708H11.65V11.3637H14.0366V12.2904ZM3.8033 5.63708L2.99664 13.7371H7.32997V14.6637H1.96997L2.95664 4.70375H5.00997V3.71708C5.00997 2.41042 6.0833 1.34375 7.39664 1.34375C8.70997 1.34375 9.7833 2.41042 9.7833 3.71708V4.70375H11.73L12.1033 7.91042L11.1766 8.01708L10.8966 5.63042H3.8033V5.63708ZM5.9433 4.71042H8.84997V3.72375C8.84997 2.92375 8.19664 2.27708 7.39664 2.27708C6.59664 2.27708 5.9433 2.92375 5.9433 3.72375V4.71042Z" fill="#303030"/>
</svg>
