<svg width="16" height="16" viewBox="0 0 16 16" fill="none" xmlns="http://www.w3.org/2000/svg">
<path d="M13.2366 1.34375H2.76996V14.6571H13.23V1.34375H13.2366ZM12.3033 2.27708V5.47042H3.70329V2.27708H12.3033ZM12.3033 6.39708V9.59042H3.70329V6.39708H12.3033ZM3.70329 13.7237V10.5304H12.2966V13.7237H3.70329ZM5.12329 3.40375H6.07662V4.33708H5.12329V3.40375ZM7.80996 3.40375H10.8633V4.33708H7.80996V3.40375ZM5.12329 7.53042H6.07662V8.46375H5.12329V7.53042ZM7.80996 7.53042H10.8633V8.46375H7.80996V7.53042ZM5.12329 11.6504H6.07662V12.5837H5.12329V11.6504ZM7.80996 11.6504H10.8633V12.5837H7.80996V11.6504Z" fill="#303030"/>
</svg>
