<svg width="16" height="16" viewBox="0 0 16 16" fill="none" xmlns="http://www.w3.org/2000/svg">
<path d="M14.1799 4.20375H12.2733V1.34375H6.09995V4.20375H5.12661V2.29708H1.81995V12.3837H2.87328V13.0504C2.87328 13.9371 3.59328 14.6571 4.47995 14.6571C5.36661 14.6571 6.08661 13.9371 6.08661 13.0504V12.3837H14.1799V4.20375ZM7.03995 2.27708H11.3466V5.63042H7.03995V2.27708ZM2.75328 3.23042H4.19995V11.4504H2.75328V3.23042ZM5.15328 13.0437C5.15328 13.4171 4.85328 13.7171 4.47995 13.7171C4.10661 13.7171 3.80661 13.4171 3.80661 13.0437V12.3771H5.15328V13.0437ZM13.2466 11.4504H5.13328V5.13708H6.10661V6.56375H12.2799V5.13708H13.2533V11.4571H13.2466V11.4504ZM6.49995 7.20375H7.43328V8.27042H6.49995V7.20375ZM8.56661 7.20375H9.49995V8.27042H8.56661V7.20375ZM10.6266 7.20375H11.5599V8.27042H10.6266V7.20375ZM10.6266 9.33708H11.5599V10.4037H10.6266V9.33708ZM8.56661 9.33708H9.49995V10.4037H8.56661V9.33708ZM6.49995 9.33708H7.43328V10.4037H6.49995V9.33708Z" fill="#303030"/>
</svg>
