<svg width="16" height="16" viewBox="0 0 16 16" fill="none" xmlns="http://www.w3.org/2000/svg">
<path d="M11.7266 5.14375C11.7266 3.05042 10.0199 1.34375 7.92659 1.34375C5.83326 1.34375 4.12659 3.05042 4.12659 5.14375C4.12659 6.48375 4.82659 7.66375 5.87993 8.34375C3.22659 9.21042 1.29993 11.7104 1.29993 14.6504H2.23326C2.23326 11.5037 4.79326 8.94375 7.93993 8.94375C10.0266 8.93708 11.7266 7.23042 11.7266 5.14375ZM7.92659 8.01042C6.34659 8.01042 5.05993 6.72375 5.05993 5.14375C5.05993 3.56375 6.34659 2.27708 7.92659 2.27708C9.50659 2.27708 10.7933 3.56375 10.7933 5.14375C10.7933 6.72375 9.50659 8.01042 7.92659 8.01042ZM12.2333 11.3438H14.6266V12.2771H12.2333V14.6704H11.2999V12.2771H8.89326V11.3438H11.2999V8.95042H12.2333V11.3438Z" fill="#303030"/>
</svg>
