<svg width="16" height="16" viewBox="0 0 16 16" fill="none" xmlns="http://www.w3.org/2000/svg">
<path d="M8.64161 12.7058L9.66827 11.6792L9.00828 11.0192L7.98161 12.0458C6.87494 13.1525 5.06827 13.1592 3.95494 12.0458C2.84161 10.9325 2.84827 9.1325 3.95494 8.01917L4.98161 6.9925L4.32161 6.3325L3.29494 7.35917C1.82161 8.8325 1.82161 11.2325 3.29494 12.7058C4.00827 13.4192 4.95494 13.8125 5.96827 13.8125C6.98161 13.8125 7.92827 13.4192 8.64161 12.7058ZM7.36827 3.2925L6.34161 4.31917L7.00161 4.97917L8.02827 3.9525C9.13494 2.83917 10.9416 2.83917 12.0549 3.9525C13.1683 5.06583 13.1616 6.86583 12.0549 7.97917L11.0283 9.00583L11.6883 9.66583L12.7149 8.63917C14.1883 7.16583 14.1883 4.76583 12.7149 3.2925C11.2416 1.81917 8.84161 1.81917 7.36827 3.2925ZM10.7949 13.2258L13.3016 10.7192H10.7949V13.2258ZM5.08161 4.98583V2.4725L2.56827 4.98583H5.08161Z" fill="#303030"/>
</svg>
