<svg width="16" height="16" viewBox="0 0 16 16" fill="none" xmlns="http://www.w3.org/2000/svg">
<path d="M13.1201 5.21271L10.7667 2.85938L1.35339 12.2727L3.70673 14.626L13.1201 5.21271ZM11.8001 5.21271L10.7734 6.23937L9.74006 5.20604L10.7667 4.17937L11.8001 5.21271ZM9.07339 5.87271L10.1067 6.90604L3.70006 13.3127L2.66673 12.2794L9.07339 5.87271Z" fill="#303030"/>
<path d="M13.3067 7.05917L13.9801 6.38583L14.6401 7.04583L13.9667 7.71917L13.3067 7.05917ZM7.98007 3.14583L8.6534 2.4725L7.9934 1.8125L7.32007 2.48583L7.98007 3.14583ZM12.7801 2.5925L13.4401 3.2525L14.1134 2.57917L13.4534 1.91917L12.7801 2.5925Z" fill="#303030"/>
</svg>
