<svg width="16" height="16" viewBox="0 0 16 16" fill="none" xmlns="http://www.w3.org/2000/svg">
<path d="M5.03997 3.70104H10.9733C11.22 4.46104 11.9266 5.02104 12.7666 5.02104C13.8133 5.02104 14.66 4.16771 14.66 3.12771C14.66 2.08771 13.8066 1.23438 12.7666 1.23438C11.84 1.23438 11.0733 1.90104 10.9066 2.77437H5.09997C4.9333 1.90104 4.16663 1.23438 3.23997 1.23438C2.1933 1.23438 1.34663 2.08771 1.34663 3.12771C1.34663 4.00771 1.9533 4.74771 2.7733 4.96104V8.47437H12.2933V10.9344C11.6266 11.1077 11.1066 11.6277 10.9333 12.2944H5.06663C4.85997 11.4744 4.11997 10.8677 3.2333 10.8677C2.18663 10.8677 1.33997 11.721 1.33997 12.761C1.33997 13.801 2.1933 14.6544 3.2333 14.6544C4.1133 14.6544 4.8533 14.0477 5.06663 13.2277H10.9333C11.14 14.0477 11.88 14.6544 12.7666 14.6544C13.8133 14.6544 14.66 13.801 14.66 12.761C14.66 11.8744 14.0466 11.1344 13.2266 10.9277V7.53437H3.7133V4.96104C4.34663 4.80104 4.83997 4.32104 5.03997 3.70771V3.70104ZM12.7666 2.16104C13.3 2.16104 13.7266 2.59437 13.7266 3.12104C13.7266 3.64771 13.2933 4.08104 12.7666 4.08104C12.24 4.08104 11.8066 3.64771 11.8066 3.12104C11.8066 2.59437 12.24 2.16104 12.7666 2.16104ZM3.23997 13.721C2.70663 13.721 2.27997 13.2877 2.27997 12.761C2.27997 12.2344 2.7133 11.801 3.23997 11.801C3.76663 11.801 4.19997 12.2344 4.19997 12.761C4.19997 13.2877 3.76663 13.721 3.23997 13.721ZM13.7266 12.7544C13.7266 13.2877 13.2933 13.7144 12.7666 13.7144C12.24 13.7144 11.8066 13.281 11.8066 12.7544C11.8066 12.2277 12.24 11.7944 12.7666 11.7944C13.2933 11.7944 13.7266 12.2277 13.7266 12.7544ZM2.27997 3.12104C2.27997 2.58771 2.7133 2.16104 3.23997 2.16104C3.76663 2.16104 4.19997 2.59437 4.19997 3.12104C4.19997 3.64771 3.76663 4.08104 3.23997 4.08104C2.7133 4.08104 2.27997 3.64771 2.27997 3.12104Z" fill="#303030"/>
</svg>
