<svg width="16" height="16" viewBox="0 0 16 16" fill="none" xmlns="http://www.w3.org/2000/svg">
<path d="M11.4133 7.97667H9.83996V5.90333L6.48663 7.51L6.49997 5.77L2.5533 7.97667H1.33997V14.69L14.7133 14.65V8.19667H14.7266L14.4466 2.75H11.72L11.4066 7.97667H11.4133ZM13.78 13.7167L2.27997 13.75V8.91H2.79997L5.55997 7.37L5.54663 9.00333L8.90663 7.39V8.91H13.78V13.7233V13.7167ZM13.5666 3.68333L13.7866 7.97667H12.3533L12.6066 3.68333H13.5666Z" fill="#303030"/>
<path d="M5.21997 11.8203H6.62664V12.7536H5.21997V11.8203Z" fill="#303030"/>
<path d="M8.07996 11.8203H9.48662V12.7536H8.07996V11.8203Z" fill="#303030"/>
<path d="M10.9333 11.8203H12.34V12.7536H10.9333V11.8203Z" fill="#303030"/>
</svg>
