<svg width="16" height="16" viewBox="0 0 16 16" fill="none" xmlns="http://www.w3.org/2000/svg">
<path d="M10.7667 12.7603L9.83333 11.827L2.28666 11.8136L2.25999 4.25365L1.32666 3.32031L1.35333 12.747L10.7667 12.7603Z" fill="#303030"/>
<path d="M12.28 2.75677L3.43335 2.77677L2.18002 1.52344L1.52002 2.18344L2.11335 2.77677H2.10002L3.02669 3.70344H3.04002L11.1667 11.8301H11.1534L12.0867 12.7634H12.1L13.4334 14.0968L14.0934 13.4368L12.2734 11.6168V10.4301L14.68 12.2768L14.6934 2.76344L12.2734 4.62344V2.7501L12.28 2.75677ZM12.8534 5.3701L13.7667 4.6701L13.7534 10.3901L12.8534 9.69677L11.3467 8.54344V10.6901L4.36669 3.69677H11.3534V6.52344L12.86 5.36344L12.8534 5.3701Z" fill="#303030"/>
</svg>
