<svg width="16" height="16" viewBox="0 0 16 16" fill="none" xmlns="http://www.w3.org/2000/svg">
<path d="M12.53 10.9125V3.07917H8.90996L10.0166 1.9725L9.35662 1.3125L7.12996 3.53917L9.36329 5.7725L10.0233 5.1125L8.91663 4.00583H11.5966V10.9125C10.79 11.1325 10.19 11.8592 10.19 12.7325C10.19 13.7792 11.0433 14.6258 12.0833 14.6258C13.1233 14.6258 13.9766 13.7725 13.9766 12.7325C13.9766 11.8392 13.3566 11.0925 12.5233 10.8925V10.9058L12.53 10.9125ZM12.09 13.7058C11.5566 13.7058 11.13 13.2725 11.13 12.7458C11.13 12.2192 11.5633 11.7858 12.09 11.7858C12.6166 11.7858 13.05 12.2192 13.05 12.7458C13.05 13.2725 12.6166 13.7058 12.09 13.7058ZM6.08329 10.8725L7.18996 11.9792H4.50329V5.06583C5.30996 4.84583 5.90996 4.11917 5.90996 3.24583C5.90996 2.19917 5.05662 1.3525 4.01662 1.3525C2.97662 1.3525 2.12329 2.20583 2.12329 3.24583C2.12329 4.13917 2.74329 4.88583 3.57662 5.08583V12.9125H7.19662L6.08996 14.0192L6.74996 14.6792L8.97662 12.4525L6.74329 10.2192L6.08329 10.8792V10.8725ZM3.04996 3.24583C3.04996 2.7125 3.48329 2.28583 4.00996 2.28583C4.53662 2.28583 4.96996 2.71917 4.96996 3.24583C4.96996 3.7725 4.53662 4.20583 4.00996 4.20583C3.48329 4.20583 3.04996 3.7725 3.04996 3.24583Z" fill="#303030"/>
</svg>
