<svg width="16" height="16" viewBox="0 0 16 16" fill="none" xmlns="http://www.w3.org/2000/svg">
<path d="M8.46675 5.1426H7.53342V1.33594H8.46675V5.1426ZM8.46675 10.8493H7.53342V14.6559H8.46675V10.8493ZM6.31342 5.64927L3.62675 2.9626L2.96675 3.6226L5.65342 6.30927L6.31342 5.64927ZM13.0334 12.3759L10.3468 9.68927L9.68675 10.3493L12.3734 13.0359L13.0334 12.3759ZM5.14675 7.52927H1.34009V8.4626H5.14675V7.52927ZM14.6534 7.52927H10.8468V8.4626H14.6534V7.52927ZM6.31342 10.3426L5.65342 9.6826L2.96675 12.3693L3.62675 13.0293L6.31342 10.3426ZM13.0334 3.61594L12.3734 2.95594L9.68675 5.6426L10.3468 6.3026L13.0334 3.61594Z" fill="#303030"/>
</svg>
