<svg width="16" height="16" viewBox="0 0 16 16" fill="none" xmlns="http://www.w3.org/2000/svg">
<path d="M12.8034 1.34375V1.35708H3.20335V1.34375H2.27002V14.6571H7.49669V11.8037H8.47669V14.6571H10.4367C13.59 14.6571 13.6034 14.6237 13.71 14.3704L13.7434 14.2837V1.34375H12.81H12.8034ZM9.41669 13.7237V10.8704H6.57002V13.7237H3.21002V2.29042H12.8167V13.7304H9.41669V13.7237ZM5.35002 4.19042H3.91669V3.25708L4.38335 3.23708H5.81669V4.17042L5.35002 4.19042ZM8.47002 4.19042H7.03002V3.25708L7.49669 3.23708H8.93669V4.17042L8.47002 4.19042ZM11.55 4.19042H10.1167V3.25708L10.5834 3.23708H12.0167V4.17042L11.55 4.19042ZM5.35002 6.09708H3.91669V5.16375L4.38335 5.13708H5.81669V6.07042L5.35002 6.09708ZM8.47002 6.09708H7.03002V5.16375L7.49669 5.13708H8.93669V6.07042L8.47002 6.09708ZM11.55 6.09708H10.1167V5.16375L10.5834 5.13708H12.0167V6.07042L11.55 6.09708ZM5.35002 8.00375H3.91669V7.07042L4.38335 7.04375H5.81669V7.97708L5.35002 8.00375ZM8.47002 8.00375H7.03002V7.07042L7.49669 7.04375H8.93669V7.97708L8.47002 8.00375ZM11.55 8.00375H10.1167V7.07042L10.5834 7.04375H12.0167V7.97708L11.55 8.00375ZM5.35002 9.93042H3.91669V8.99708L4.38335 8.97042H5.81669V9.90375L5.35002 9.93042ZM8.47002 9.93042H7.03002V8.99708L7.49669 8.97042H8.93669V9.90375L8.47002 9.93042ZM11.55 9.93042H10.1167V8.99708L10.5834 8.97042H12.0167V9.90375L11.55 9.93042ZM5.35002 11.8171H3.91669V10.8837L4.38335 10.8571H5.81669V11.7904L5.35002 11.8171ZM11.55 11.8171H10.1167V10.8837L10.5834 10.8571H12.0167V11.7904L11.55 11.8171Z" fill="#303030"/>
</svg>
