<svg width="16" height="16" viewBox="0 0 16 16" fill="none" xmlns="http://www.w3.org/2000/svg">
<path d="M3.19334 10.4037H5.58001V12.7904H3.19334V10.4037ZM7.48001 8.51042H1.32001V14.6771H7.48667V8.51042H7.48001ZM6.55334 13.7437H2.25334V9.44375H6.55334V13.7437ZM3.19334 3.23708H5.58001V5.62375H3.19334V3.23708ZM7.48001 1.34375H1.32001V7.51042H7.48667V1.34375H7.48001ZM6.55334 6.57708H2.25334V2.27708H6.55334V6.57708ZM10.34 3.23708H12.7267V5.62375H10.34V3.23708ZM10.8067 8.48375H13.1933V10.8704H10.8067V8.48375ZM8.44001 10.8704H10.8267V13.2571H8.44001V10.8704ZM12.3 12.2704H14.6867V14.6571H12.3V12.2704ZM14.62 1.34375H8.45334V7.51042H14.62V1.34375ZM13.6933 6.57708H9.39334V2.27708H13.6933V6.57708Z" fill="#303030"/>
</svg>
