<svg width="16" height="16" viewBox="0 0 16 16" fill="none" xmlns="http://www.w3.org/2000/svg">
<path d="M7.99999 14.6693C11.6867 14.6693 14.6733 11.6826 14.6733 8.0026C14.6733 4.3226 11.6867 1.33594 7.99999 1.33594C4.31333 1.33594 1.32666 4.3226 1.32666 8.0026C1.32666 11.6826 4.31333 14.6693 7.99999 14.6693ZM7.99999 2.26927C11.1667 2.26927 13.74 4.8426 13.74 8.0026C13.74 11.1626 11.1667 13.7359 7.99999 13.7359C4.83333 13.7359 2.25999 11.1626 2.25999 8.0026C2.25999 4.8426 4.83333 2.26927 7.99999 2.26927ZM7.54666 6.25594V10.8893H8.47999V6.2626L10.5267 8.30927L11.1867 7.64927L8.00666 4.46927L4.83999 7.6426L5.49999 8.3026L7.54666 6.25594Z" fill="#303030"/>
</svg>
