<svg width="16" height="16" viewBox="0 0 16 16" fill="none" xmlns="http://www.w3.org/2000/svg">
<path d="M13.7233 5.12375V13.7304H2.26335V5.12375H13.7233ZM14.6633 4.19042H1.33002V14.6637H14.6567V4.19042H14.6633ZM7.99002 1.34375C6.42335 1.34375 5.15002 2.62375 5.15002 4.19042H6.08335C6.08335 3.13708 6.93668 2.27708 7.99002 2.27708C9.04335 2.27708 9.89668 3.13708 9.89668 4.19042H10.83C10.83 2.61708 9.55668 1.34375 7.99002 1.34375ZM13.9367 9.46375L2.17668 9.44375V10.3771L13.93 10.3971V9.46375H13.9367ZM7.98335 7.09042C7.59668 7.09042 7.27668 7.40375 7.27668 7.79708C7.27668 8.19042 7.59002 8.50375 7.98335 8.50375C8.37668 8.50375 8.69002 8.19042 8.69002 7.79708C8.69002 7.40375 8.37668 7.09042 7.98335 7.09042Z" fill="#303030"/>
</svg>
