<svg width="16" height="16" viewBox="0 0 16 16" fill="none" xmlns="http://www.w3.org/2000/svg">
<path d="M2.28001 11.366V13.6927H1.34668V9.91271H5.17335V10.846H3.06001C4.07335 12.5994 5.94001 13.706 8.00668 13.706C11.16 13.706 13.72 11.1394 13.72 7.99271H14.6533C14.6533 11.6594 11.6733 14.6394 8.00668 14.6394C5.62668 14.6394 3.46668 13.3727 2.28001 11.3594V11.366ZM8.00668 2.28604C10.0533 2.28604 11.9267 3.39937 12.94 5.14604H10.8267V6.07938H14.6533V2.29938H13.72V4.63271C12.5333 2.62604 10.3667 1.35938 8.00668 1.35938C4.34001 1.35938 1.36001 4.33938 1.36001 8.00604H2.29335C2.29335 4.85271 4.86001 2.29271 8.00668 2.29271V2.28604Z" fill="#303030"/>
</svg>
