<svg width="16" height="16" viewBox="0 0 16 16" fill="none" xmlns="http://www.w3.org/2000/svg">
<path d="M5.13342 14.6571H3.14009C2.14675 14.6571 1.34009 13.8504 1.34009 12.8571V7.99708C1.34009 4.33042 4.32675 1.34375 8.00009 1.34375V2.27708C4.84009 2.27708 2.27342 4.84375 2.27342 8.00375V9.44375H5.13342V14.6637V14.6571ZM2.27342 10.3704V12.8571C2.27342 13.3371 2.66009 13.7238 3.14009 13.7238H4.20009V10.3704H2.27342Z" fill="#303030"/>
<path d="M12.8533 14.6559H10.86V9.43594H13.72V7.99594C13.72 4.8426 11.1533 2.26927 8 2.26927V1.33594C11.6733 1.33594 14.66 4.3226 14.66 7.99594V12.8559C14.66 13.8493 13.8533 14.6559 12.86 14.6559H12.8533ZM11.8 13.7226H12.8533C13.3333 13.7226 13.72 13.3359 13.72 12.8559V10.3693H11.8V13.7226Z" fill="#303030"/>
</svg>
