<svg width="16" height="16" viewBox="0 0 16 16" fill="none" xmlns="http://www.w3.org/2000/svg">
<path d="M3.80666 6.70146V5.63479C4.81333 6.33479 6.45333 6.70813 8.03333 6.70813C9.61333 6.70813 11.2467 6.34146 12.2533 5.64146V8.01479H13.24V4.01479C13.24 2.27479 10.5533 1.32812 8.03333 1.32812C5.51333 1.32812 2.82666 2.26812 2.82666 4.01479V11.9948C2.82666 13.7348 5.51333 14.6815 8.03999 14.6815V13.5881C5.45999 13.5881 3.81333 12.6415 3.81333 11.9948V10.9815C4.81999 11.6881 6.46666 12.0548 8.03999 12.0548V10.9615C5.45999 10.9615 3.81333 10.0148 3.81333 9.36813V8.32146C4.81999 9.02812 6.46666 9.39479 8.03999 9.39479V8.30146C5.45999 8.30146 3.81333 7.35479 3.81333 6.70813L3.80666 6.70146ZM8.03333 2.42146C10.6067 2.42146 12.2533 3.36146 12.26 4.01479V4.03479C12.2333 4.68813 10.5933 5.61479 8.03999 5.61479C5.48666 5.61479 3.81333 4.66812 3.81333 4.01479C3.81333 3.36146 5.45999 2.41479 8.03999 2.41479L8.03333 2.42146ZM13.6067 11.7348L14.5933 11.1681L14.1267 10.3615L13.1467 10.9281L12.56 10.5881V9.45479H11.6267V10.5881L11.04 10.9281L10.06 10.3615L9.59333 11.1681L10.5733 11.7348V12.4081L9.59333 12.9748L10.06 13.7815L11.04 13.2148L11.6267 13.5548V14.6881H12.56V13.5548L13.1467 13.2148L14.1267 13.7815L14.5933 12.9748L13.6067 12.4081V11.7348ZM12.6733 11.8681V12.4081L12.56 12.4748L12.2133 12.6815L12.0933 12.7481L11.9733 12.6815L11.6267 12.4748L11.5067 12.4081V11.7348L11.6267 11.6681L11.98 11.4681L12.0933 11.4015L12.2067 11.4681L12.56 11.6681L12.6733 11.7348V11.8681Z" fill="#303030"/>
</svg>
