<svg width="16" height="16" viewBox="0 0 16 16" fill="none" xmlns="http://www.w3.org/2000/svg">
<path d="M11.7733 7.50573H10.3133V8.43906H11.7733V9.41906H12.7399V11.7991H11.7733V12.7457H9.43994V11.7991H8.5066V10.3324H7.57327V11.7991H6.55994V14.6857H9.43994V13.6791H11.7733V14.6857H14.6599V11.7991H13.6733V9.41906H14.6599V6.53906H11.7733V7.50573Z" fill="#303030"/>
<path d="M9.43997 4.20698V1.32031H6.5533V2.28698H4.21997V1.32031H1.33997V4.20698H2.3533V6.54031H1.33997V9.42698H4.22663V8.46698H6.5133V9.42698H9.39997V6.54031H8.45997V4.20698H9.44663H9.43997ZM7.51997 6.54031H6.50663V7.52698H4.21997V6.54031H3.27997V4.20698H4.21997V3.22031H6.5533V4.20698H7.5133V6.54031H7.51997Z" fill="#303030"/>
</svg>
