<svg width="16" height="16" viewBox="0 0 16 16" fill="none" xmlns="http://www.w3.org/2000/svg">
<path d="M8.00004 1.33594C4.32004 1.33594 1.33337 4.3226 1.33337 8.0026C1.33337 11.6826 4.32004 14.6693 8.00004 14.6693C11.68 14.6693 14.6667 11.6826 14.6667 8.0026C14.6667 4.3226 11.68 1.33594 8.00004 1.33594ZM8.46004 8.77594H7.64671V10.8626H6.64004V5.18927H8.42671C9.68671 5.18927 10.62 5.62927 10.62 6.93594C10.62 8.2426 9.68004 8.77594 8.46004 8.77594ZM9.62671 6.93594C9.62671 7.63594 9.22671 7.96927 8.38004 7.96927H7.64671V5.98927H8.34671C9.18671 5.98927 9.62671 6.22927 9.62671 6.93594Z" fill="#303030"/>
</svg>
