<svg width="16" height="16" viewBox="0 0 16 16" fill="none" xmlns="http://www.w3.org/2000/svg">
<path d="M7.99992 6.55708C7.21992 6.55708 6.58659 7.19042 6.58659 7.97042C6.58659 8.75042 7.21992 9.38375 7.99992 9.38375C8.77992 9.38375 9.41325 8.75042 9.41325 7.97042C9.41325 7.19042 8.77992 6.55708 7.99992 6.55708ZM12.7066 5.72375L13.7199 4.30375L11.6999 2.28375L10.2799 3.29708C10.0933 3.21042 9.90659 3.13042 9.71325 3.06375L9.42659 1.34375H6.56659L6.27992 3.06375C6.08659 3.13042 5.89325 3.21042 5.71325 3.29708L4.29325 2.28375L2.27325 4.30375L3.28659 5.72375C3.19992 5.91042 3.11992 6.09708 3.05325 6.29042L1.33325 6.57708V9.43708L3.05325 9.72375C3.11992 9.91708 3.19992 10.1104 3.28659 10.2904L2.27325 11.7104L4.29325 13.7304L5.71325 12.7171C5.89992 12.8038 6.08659 12.8837 6.27992 12.9504L6.56659 14.6704H9.42659L9.71325 12.9504C9.90659 12.8837 10.0999 12.8038 10.2799 12.7171L11.6999 13.7304L13.7199 11.7104L12.7066 10.2904C12.7933 10.1038 12.8733 9.91708 12.9399 9.72375L14.6599 9.43708V6.57708L12.9399 6.29042C12.8733 6.09708 12.7933 5.90375 12.7066 5.72375ZM13.7333 8.64375L12.7933 8.80375L12.2466 8.89708L12.0666 9.42375C12.0133 9.57708 11.9466 9.73708 11.8733 9.89042L11.6333 10.3904L11.9533 10.8438L12.5066 11.6238L11.6066 12.5238L10.8266 11.9704L10.3733 11.6504L9.87325 11.8904C9.71992 11.9637 9.56659 12.0304 9.40659 12.0838L8.87992 12.2638L8.78658 12.8104L8.62659 13.7504H7.35325L7.19325 12.8104L7.09992 12.2638L6.57325 12.0838C6.41992 12.0304 6.25992 11.9637 6.10659 11.8904L5.60659 11.6504L5.15325 11.9704L4.37325 12.5238L3.47325 11.6238L4.02659 10.8438L4.34659 10.3904L4.10659 9.89042C4.03325 9.73708 3.96659 9.57708 3.91325 9.42375L3.73325 8.89708L3.18659 8.80375L2.24659 8.64375V7.37042L3.18659 7.21042L3.73325 7.11708L3.91325 6.59042C3.96659 6.43708 4.03325 6.27708 4.10659 6.12375L4.34659 5.62375L4.02659 5.17042L3.47325 4.39042L4.37325 3.49042L5.15325 4.04375L5.60659 4.36375L6.10659 4.12375C6.25992 4.05042 6.41325 3.98375 6.57325 3.93042L7.09992 3.75042L7.19325 3.20375L7.35325 2.26375H8.62659L8.78658 3.20375L8.87992 3.75042L9.40659 3.93042C9.55992 3.98375 9.71992 4.05042 9.87325 4.12375L10.3733 4.36375L10.8266 4.04375L11.6066 3.49042L12.5066 4.39042L11.9533 5.17042L11.6333 5.62375L11.8733 6.12375C11.9466 6.27708 12.0133 6.43708 12.0666 6.59042L12.2466 7.11708L12.7933 7.21042L13.7333 7.37042V8.64375Z" fill="#303030"/>
</svg>
