<svg width="16" height="16" viewBox="0 0 16 16" fill="none" xmlns="http://www.w3.org/2000/svg">
<path d="M10.7467 7.53042C11.7933 7.53042 12.64 6.67708 12.64 5.63708C12.64 4.59708 11.7867 3.74375 10.7467 3.74375C9.70666 3.74375 8.85333 4.59708 8.85333 5.63708C8.85333 5.77708 8.87333 5.91708 8.9 6.05042L7.84 6.55042C7.5 6.11708 7.02 5.79708 6.45333 5.68375V5.07042C7.27333 4.86375 7.87999 4.12375 7.87999 3.23708C7.87999 2.19042 7.02666 1.34375 5.98666 1.34375C4.94666 1.34375 4.09333 2.19708 4.09333 3.23708C4.09333 4.11708 4.69999 4.85708 5.51999 5.07042V5.68375C4.43999 5.90375 3.62 6.85708 3.62 7.99708C3.62 9.13708 4.43333 10.0971 5.51999 10.3104V10.9304C4.69999 11.1371 4.09333 11.8771 4.09333 12.7637C4.09333 13.8104 4.94666 14.6571 5.98666 14.6571C7.02666 14.6571 7.87999 13.8037 7.87999 12.7637C7.87999 11.8837 7.27333 11.1437 6.45333 10.9304V10.3104C6.92 10.2171 7.33333 9.99042 7.66 9.66375L8.9 10.2904C8.87333 10.4237 8.85333 10.5637 8.85333 10.7037C8.85333 11.7504 9.70666 12.5971 10.7467 12.5971C11.7867 12.5971 12.64 11.7437 12.64 10.7037C12.64 9.66375 11.7867 8.81042 10.7467 8.81042C10.18 8.81042 9.67333 9.06375 9.32666 9.46375L8.17333 8.88375C8.28666 8.61042 8.34666 8.31042 8.34666 7.99708C8.34666 7.78375 8.30666 7.57708 8.25333 7.37708L9.31999 6.87708C9.66666 7.27042 10.1733 7.53042 10.74 7.53042H10.7467ZM11.7133 10.7104C11.7133 11.2437 11.28 11.6704 10.7533 11.6704C10.2267 11.6704 9.79333 11.2371 9.79333 10.7104C9.79333 10.5904 9.82 10.4704 9.86 10.3637L9.94666 10.1904C10.12 9.92375 10.4133 9.75042 10.7533 9.75042C11.2867 9.75042 11.7133 10.1837 11.7133 10.7104ZM5.02666 3.23708C5.02666 2.70375 5.45999 2.27708 5.98666 2.27708C6.51333 2.27708 6.94666 2.71042 6.94666 3.23708C6.94666 3.76375 6.51333 4.19708 5.98666 4.19708C5.45999 4.19708 5.02666 3.76375 5.02666 3.23708ZM6.95333 12.7704C6.95333 13.3037 6.51999 13.7304 5.99333 13.7304C5.46666 13.7304 5.03333 13.2971 5.03333 12.7704C5.03333 12.2437 5.46666 11.8104 5.99333 11.8104C6.51999 11.8104 6.95333 12.2437 6.95333 12.7704ZM5.98666 9.43042C5.19999 9.43042 4.55333 8.79042 4.55333 7.99708C4.55333 7.20375 5.19333 6.56375 5.98666 6.56375C6.77999 6.56375 7.42 7.20375 7.42 7.99708C7.42 8.79042 6.77999 9.43042 5.98666 9.43042ZM10.7467 4.67042C11.28 4.67042 11.7067 5.10375 11.7067 5.63042C11.7067 6.15708 11.2733 6.59042 10.7467 6.59042C10.22 6.59042 9.78666 6.15708 9.78666 5.63042C9.78666 5.10375 10.22 4.67042 10.7467 4.67042Z" fill="#303030"/>
</svg>
