<svg width="16" height="16" viewBox="0 0 16 16" fill="none" xmlns="http://www.w3.org/2000/svg">
<path d="M7.99999 5.10927C5.37332 5.10927 3.23999 7.2426 3.23999 9.86927C3.23999 12.4959 5.37332 14.6293 7.99999 14.6293C10.6267 14.6293 12.76 12.4959 12.76 9.86927C12.76 8.52927 12.2067 7.3226 11.32 6.4626V4.6626C11.32 2.82927 9.82666 1.33594 7.99332 1.33594C6.15999 1.33594 4.66666 2.82927 4.66666 4.6626H5.59999C5.59999 3.3426 6.67332 2.26927 7.99332 2.26927C9.31332 2.26927 10.3867 3.3426 10.3867 4.6626V5.75594C9.68666 5.34927 8.87332 5.10927 7.99999 5.10927ZM11.8267 9.86927C11.8267 11.9826 10.1067 13.6959 7.99999 13.6959C5.89332 13.6959 4.17332 11.9759 4.17332 9.86927C4.17332 7.7626 5.89332 6.0426 7.99999 6.0426C10.1067 6.0426 11.8267 7.7626 11.8267 9.86927Z" fill="#303030"/>
<path d="M7.99995 8C7.33329 8 6.78662 8.53333 6.78662 9.19333C6.78662 9.69333 7.09329 10.1133 7.53329 10.2933V11.7333H8.46662V10.2933C8.90662 10.1133 9.21329 9.68667 9.21329 9.19333C9.21329 8.53333 8.67329 8 7.99995 8Z" fill="#303030"/>
</svg>
