<svg width="16" height="16" viewBox="0 0 16 16" fill="none" xmlns="http://www.w3.org/2000/svg">
<path d="M8.0333 12.5257H2.2733V6.27906H13.7333V8.23906H14.6666V3.01906H11.8V1.53906H10.8666V3.01906H5.1533V1.53906H4.21997V3.01906H1.33997V13.4591H8.02663V12.5257H8.0333ZM4.21997 3.9524V4.38573H5.1533V3.9524H10.8666V4.38573H11.8V3.9524H13.7333V5.34573H2.2733V3.9524H4.21997ZM5.13997 7.77906H7.54663V8.71906H5.13997V7.77906ZM5.13997 9.6724H7.54663V10.6124H5.13997V9.6724ZM8.4933 7.77906H10.8733V8.71906H8.4933V7.77906ZM12.2666 14.4591L14.68 12.0524L12.26 9.63906L11.6 10.2991L12.8933 11.5857H8.9533V12.5191H12.8933L11.6066 13.7991L12.2666 14.4591Z" fill="#303030"/>
</svg>
