<svg width="16" height="16" viewBox="0 0 16 16" fill="none" xmlns="http://www.w3.org/2000/svg">
<path d="M11.1399 13.6051L7.49995 10.9584L3.85995 13.6051L5.25328 9.3251L1.61328 6.67844H6.11328L7.50661 2.39844L8.89995 6.67844H13.3999L9.75995 9.3251L11.1533 13.6051H11.1399ZM7.49328 9.8051L9.35995 11.1651L8.64662 8.97177L10.5133 7.61844H8.20661L7.49328 5.4251L6.77995 7.61844H4.47328L6.33995 8.97177L5.62661 11.1651L7.49328 9.8051ZM10.5266 5.67844L9.53328 2.61844L9.03995 4.13177L9.54661 5.67844H10.5266ZM12.8666 12.9651L11.9199 10.0518L14.3999 8.25177H12.8133L10.8266 9.69844L11.5866 12.0318L12.8733 12.9651H12.8666Z" fill="#303030"/>
</svg>
