<svg width="16" height="16" viewBox="0 0 16 16" fill="none" xmlns="http://www.w3.org/2000/svg">
<path d="M3.73315 1.33594V7.93594C3.73315 9.26927 4.26649 10.5359 5.19982 11.3359C6.19982 12.2026 7.33315 12.2693 7.79982 12.2693C8.26649 12.2693 7.99982 12.2693 7.99982 12.2693C8.86649 12.2693 9.66649 12.0693 10.3332 11.6026C11.5332 10.8026 12.1998 9.4026 12.1998 7.86927V1.33594H11.2665V7.86927C11.2665 9.06927 10.7332 10.2026 9.79982 10.8026C9.26649 11.1359 8.66649 11.3359 7.93315 11.3359C7.93315 11.3359 6.79982 11.4693 5.79982 10.6026C5.06649 10.0026 4.66649 9.0026 4.66649 7.93594V1.33594H3.73315Z" fill="#303030"/>
<path d="M1.33325 13.7344H14.7333V14.6677H1.33325V13.7344Z" fill="#303030"/>
</svg>
