<svg width="16" height="16" viewBox="0 0 16 16" fill="none" xmlns="http://www.w3.org/2000/svg">
<path d="M10.3801 13.2348H14.6467V2.74813H10.3801V1.32812H1.35339V14.6548H10.3801V13.2348ZM13.7067 3.68146V12.3015H10.3734V11.3015H10.8534V10.3681H10.3734V8.44146H10.8534V7.50813H10.3734V5.58813H10.8401V4.65479H10.3734V3.68813H13.7067V3.68146ZM9.44673 13.7281H2.28673V2.26146H9.44673V13.7215V13.7281ZM3.70006 10.3481L5.19339 7.88813L3.80673 5.58146H4.89339L5.90673 7.34812L6.90006 5.58146H7.90006L6.52006 7.91479L8.01339 10.3481H6.98673L5.82006 8.52146L4.75339 10.3481H3.70006ZM12.7601 5.58146H11.7867V4.64813H12.7601V5.58146ZM11.8001 7.50146H12.7734V8.43479H11.8001V7.50146ZM11.8001 10.3615H12.7734V11.2948H11.8001V10.3615Z" fill="#303030"/>
</svg>
