<svg width="16" height="16" viewBox="0 0 16 16" fill="none" xmlns="http://www.w3.org/2000/svg">
<path d="M2.27325 4.8826L3.27325 3.9426L6.01992 6.67594L8.52659 3.8826L10.8066 5.8426L14.2933 2.4026L13.6333 1.73594L10.7666 4.57594L8.44659 2.57594L5.98659 5.3226L3.29325 2.6426L2.27325 3.6026V1.33594H1.33325V14.6559H14.6733V13.7226H2.27325V4.8826ZM5.65325 8.9426H6.58659V12.7626H5.65325V8.9426ZM3.26659 10.8559H4.19992V12.7626H3.26659V10.8559ZM8.02659 9.18927H8.95992V12.7626H8.02659V9.18927ZM10.4133 7.6626H11.3466V12.7626H10.4133V7.6626ZM12.7999 5.61594H13.7333V12.7559H12.7999V5.61594Z" fill="#303030"/>
</svg>
