<svg width="16" height="16" viewBox="0 0 16 16" fill="none" xmlns="http://www.w3.org/2000/svg">
<path d="M7.97979 9.41906C8.77508 9.41906 9.41979 8.77435 9.41979 7.97906C9.41979 7.18377 8.77508 6.53906 7.97979 6.53906C7.1845 6.53906 6.53979 7.18377 6.53979 7.97906C6.53979 8.77435 7.1845 9.41906 7.97979 9.41906Z" fill="#303030"/>
<path d="M1.31323 14.6403V10.8603L4.16657 8.04031L4.17323 5.00031L7.96657 1.32031L11.7532 5.00031L11.7599 8.04031L14.6132 10.8603V14.627H11.2932L9.9999 13.0203L10.7332 12.4336L11.7399 13.6936H13.6799V11.2536L10.8266 8.42698L10.8199 5.39365L7.96657 2.62031L5.10657 5.39365L5.0999 8.42698L2.24657 11.2536V13.707L4.18657 13.7003L5.19323 12.4403L5.92657 13.027L4.63323 14.6336L1.31323 14.6403Z" fill="#303030"/>
<path d="M6.06665 13.6875H9.81332V14.6208H6.06665V13.6875Z" fill="#303030"/>
</svg>
