<svg width="16" height="16" viewBox="0 0 16 16" fill="none" xmlns="http://www.w3.org/2000/svg">
<path d="M13.2399 1.35823H2.75992L1.33325 6.01823V14.6516H7.50659V10.8249H8.47992V14.6516H14.6733V6.01823L13.2466 1.35156L13.2399 1.35823ZM8.47325 5.0849V2.29156H10.6866V5.09156H8.47325V5.0849ZM7.53992 5.0849H5.32659V2.29156H7.53992V5.09156V5.0849ZM7.43992 6.01823C7.37992 6.51156 6.95992 6.89823 6.45325 6.89823C5.94659 6.89823 5.52659 6.51156 5.46659 6.01823H7.44659H7.43992ZM10.5666 6.01823C10.5066 6.51156 10.0866 6.89823 9.57992 6.89823C9.07325 6.89823 8.65325 6.51156 8.59325 6.01823H10.5733H10.5666ZM13.4066 5.0849H11.6266V2.29156H12.5533L13.4066 5.09156V5.0849ZM13.6999 6.01823C13.6399 6.51823 13.2133 6.89823 12.7066 6.89823C12.1999 6.89823 11.7799 6.51156 11.7199 6.01823H13.6999ZM3.45325 2.29156H4.39325V5.09156H2.59992L3.45992 2.29156H3.45325ZM4.31325 6.01823C4.25325 6.51156 3.83325 6.89823 3.32659 6.89823C2.81992 6.89823 2.39992 6.51156 2.33992 6.01823H4.31992H4.31325ZM9.41325 13.7182V9.89156H6.57325V13.7182H2.27325V7.51823C2.57325 7.71823 2.93325 7.83823 3.32659 7.83823C3.97325 7.83823 4.53992 7.51823 4.89325 7.03156C5.24659 7.51823 5.81325 7.83823 6.45992 7.83823C7.10659 7.83823 7.67325 7.51823 8.01992 7.03156C8.37325 7.51823 8.93992 7.83823 9.58659 7.83823C10.2333 7.83823 10.7999 7.51823 11.1533 7.03156C11.5066 7.51823 12.0733 7.83823 12.7199 7.83823C13.0933 7.83823 13.4466 7.73156 13.7466 7.53823V13.7182H9.42659H9.41325Z" fill="#303030"/>
</svg>
