<svg width="16" height="16" viewBox="0 0 16 16" fill="none" xmlns="http://www.w3.org/2000/svg">
<path d="M9.42 9.4325H6.56V6.5725H9.42V9.4325ZM9.42 11.3325H6.56V14.1925H9.42V11.3325ZM4.65334 1.8125H1.79333V4.6725H4.65334V1.8125ZM2.72667 2.74583H3.71334V3.7325H2.72667V2.74583ZM9.42667 1.8125H6.56667V4.6725H9.42667V1.8125ZM7.5 2.74583H8.48667V3.7325H7.5V2.74583ZM14.1867 1.8125H11.3267V4.6725H14.1867V1.8125ZM12.2667 2.74583H13.2533V3.7325H12.2667V2.74583ZM14.1867 6.57917H11.3267V9.43917H14.1867V6.57917ZM12.2667 7.5125H13.2533V8.49917H12.2667V7.5125ZM14.1867 11.3392H11.3267V14.1992H14.1867V11.3392ZM12.2667 12.2725H13.2533V13.2592H12.2667V12.2725ZM4.66667 6.5725H1.80667V9.4325H4.66667V6.5725ZM4.66667 11.3325H1.80667V14.1925H4.66667V11.3325Z" fill="#303030"/>
</svg>
