<svg width="16" height="16" viewBox="0 0 16 16" fill="none" xmlns="http://www.w3.org/2000/svg">
<path d="M9.43342 1.33594H2.75342V14.6693H8.47342V13.7359H3.68675V2.27594H9.43342V5.13594H12.3001V7.99594H13.2334V4.50927L10.4001 1.3426H10.3601H9.42675L9.43342 1.33594ZM11.7134 4.2026H10.3668V2.69594L11.7134 4.2026Z" fill="#303030"/>
<path d="M9.18013 11.0347H9.05347V11.588H9.18013C9.4268 11.588 9.56013 11.6814 9.5468 11.9414L9.50013 12.768C9.47347 13.2547 9.8068 13.5614 10.2935 13.5614H10.7401V13.0147H10.5135C10.3201 13.0147 10.2268 12.9214 10.2268 12.7347V12.028C10.2268 11.568 10.0135 11.3814 9.74013 11.3147C10.0135 11.248 10.2268 11.0614 10.2268 10.608V9.88135C10.2268 9.69469 10.3201 9.60135 10.5135 9.60135H10.7401V9.05469H10.2935C9.8068 9.05469 9.47347 9.36135 9.50013 9.84802L9.5468 10.688C9.55347 10.948 9.4268 11.0414 9.18013 11.0414V11.0347Z" fill="#303030"/>
<path d="M11.3334 12.0391H12.1134V12.8591H11.3334V12.0391Z" fill="#303030"/>
<path d="M11.3334 10.5156H12.1134V11.3356H11.3334V10.5156Z" fill="#303030"/>
<path d="M13.1467 9.04573H12.7001V9.5924H12.9267C13.1201 9.5924 13.2134 9.68573 13.2134 9.8724V10.5991C13.2134 11.0591 13.4267 11.2391 13.7001 11.3057C13.4334 11.3724 13.2134 11.5657 13.2134 12.0191V12.7257C13.2134 12.9124 13.1201 13.0057 12.9267 13.0057H12.7001V13.5524H13.1467C13.6334 13.5524 13.9667 13.2457 13.9401 12.7591L13.9001 11.9324C13.8934 11.6791 14.0201 11.5791 14.2667 11.5791H14.3934V11.0257H14.2667C14.0201 11.0257 13.8867 10.9324 13.9001 10.6724L13.9401 9.8324C13.9667 9.34573 13.6334 9.03906 13.1467 9.03906V9.04573Z" fill="#303030"/>
</svg>
