<svg width="16" height="16" viewBox="0 0 16 16" fill="none" xmlns="http://www.w3.org/2000/svg">
<path d="M6.06665 5.10156H6.99998V10.8549H6.06665V5.10156Z" fill="#303030"/>
<path d="M8.95996 5.10156H9.89329V10.8549H8.95996V5.10156Z" fill="#303030"/>
<path d="M7.99992 1.33594C4.31992 1.33594 1.33325 4.3226 1.33325 8.0026C1.33325 11.6826 4.31992 14.6693 7.99992 14.6693C11.6799 14.6693 14.6666 11.6826 14.6666 8.0026C14.6666 4.3226 11.6799 1.33594 7.99992 1.33594ZM7.99992 13.7359C4.83992 13.7359 2.26659 11.1626 2.26659 8.0026C2.26659 4.8426 4.83992 2.26927 7.99992 2.26927C11.1599 2.26927 13.7333 4.8426 13.7333 8.0026C13.7333 11.1626 11.1599 13.7359 7.99992 13.7359Z" fill="#303030"/>
</svg>
