<svg width="16" height="16" viewBox="0 0 16 16" fill="none" xmlns="http://www.w3.org/2000/svg">
<path d="M14.66 4.63573L11.7467 1.72906L9.17336 4.3024L7.52003 3.8024L5.00669 1.28906L1.34003 4.9624V9.9824V9.99573L5.62003 14.4024C5.81336 14.6024 6.06669 14.7091 6.30669 14.7091C6.50669 14.7091 6.70003 14.6357 6.85336 14.4957L7.38003 14.0024C7.74669 14.3091 8.24669 14.3224 8.56669 14.0157L9.14003 13.4557C9.50003 13.7624 9.99336 13.7824 10.3134 13.4757L10.9 12.9091C11.06 13.0291 11.2534 13.0891 11.44 13.0957C11.66 13.0957 11.8534 13.0157 11.9934 12.8757L12.68 12.2091C12.82 12.0757 12.9067 11.8891 12.9067 11.6891C12.9067 11.4891 12.8267 11.2757 12.68 11.1024L14.6467 9.24906L14.66 9.2624V4.6424V4.63573ZM11.7467 3.04906L13.7267 5.0224V7.26906L11.6067 5.5224L10.4334 4.3624L11.7467 3.04906ZM2.27336 5.34906L5.00669 2.61573L6.56669 4.17573L2.27336 7.9424V5.34906ZM11.4267 12.1424L11.0667 11.8091L8.96669 9.6424L8.29336 10.2891L10.22 12.2757L9.73336 12.7424L9.56003 12.5691C9.56003 12.5691 9.52669 12.5424 9.51336 12.5224L7.73336 10.6757L7.06003 11.3224L8.48003 12.7891L7.97336 13.2757L7.92003 13.2224L6.47336 11.7291L5.80003 12.3757L6.72003 13.3224L6.28003 13.7357L2.04003 9.36906L4.31336 7.37573C4.35336 7.46906 4.40003 7.54906 4.46669 7.62906L5.00669 8.24239C5.31336 8.58906 5.82003 8.65573 6.21336 8.4024L7.74669 7.3824L11.1 10.7757L11.9267 11.6291L11.42 12.1224V12.1424H11.4267ZM12.0534 10.4157L7.88003 6.18906L5.71336 7.63573L5.21336 7.0024L7.52669 4.7824L9.30669 5.31573L9.66669 5.12906L10.9734 6.2024L13.6734 8.88906L12.0534 10.4157Z" fill="#303030"/>
</svg>
