<svg width="16" height="16" viewBox="0 0 16 16" fill="none" xmlns="http://www.w3.org/2000/svg">
<path d="M4.55347 12.2861C5.01003 12.2861 5.38014 11.916 5.38014 11.4595C5.38014 11.0029 5.01003 10.6328 4.55347 10.6328C4.09692 10.6328 3.72681 11.0029 3.72681 11.4595C3.72681 11.916 4.09692 12.2861 4.55347 12.2861Z" fill="#303030"/>
<path d="M7.81338 12.2677H8.74671C8.74671 9.49437 6.48671 7.23438 3.71338 7.23438V8.16771C5.97338 8.16771 7.81338 10.0077 7.81338 12.2677Z" fill="#303030"/>
<path d="M11.3534 12.2843H12.2867C12.2867 7.5576 8.44005 3.71094 3.71338 3.71094V4.64427C7.92671 4.64427 11.3534 8.07094 11.3534 12.2843Z" fill="#303030"/>
</svg>
