<svg width="16" height="16" viewBox="0 0 16 16" fill="none" xmlns="http://www.w3.org/2000/svg">
<path d="M11.4733 2.21385C10.4933 1.64719 9.34663 1.36719 8.02663 1.36719C6.70663 1.36719 5.59996 1.64719 4.60663 2.20719C3.61329 2.76719 2.83329 3.54719 2.28663 4.55385C1.73329 5.56052 1.45996 6.70719 1.45996 7.99385C1.45996 9.28052 1.73329 10.3939 2.26663 11.4072C2.80663 12.4205 3.57329 13.2139 4.55996 13.7805C5.55329 14.3472 6.70663 14.6339 8.02663 14.6339C9.34663 14.6339 10.4933 14.3472 11.4733 13.7805C12.4533 13.2139 13.2066 12.4205 13.74 11.4072C14.2733 10.3939 14.54 9.24719 14.54 7.96052C14.54 6.67385 14.2733 5.56719 13.74 4.56719C13.2066 3.56719 12.4466 2.78052 11.4733 2.22052V2.21385ZM12.9866 11.0672C12.5333 11.9539 11.8866 12.6472 11.04 13.1472C10.1933 13.6472 9.18663 13.8939 8.02663 13.8939C6.86663 13.8939 5.86663 13.6472 5.01329 13.1472C4.15329 12.6472 3.49329 11.9539 3.03329 11.0605C2.57329 10.1672 2.33996 9.13385 2.33996 7.95385C2.33996 6.77385 2.57329 5.80052 3.03329 4.92052C3.49329 4.04052 4.15329 3.34719 5.01329 2.85385C5.87329 2.35385 6.87329 2.10719 8.02663 2.10719C9.17996 2.10719 10.16 2.34719 11.0066 2.83385C11.8533 3.32052 12.5066 4.00052 12.9666 4.88719C13.4266 5.76719 13.66 6.80719 13.66 7.99385C13.66 9.18052 13.4333 10.1872 12.9866 11.0739V11.0672ZM9.43996 10.2205C9.11996 10.5472 8.69329 10.7072 8.15329 10.7072C7.46663 10.7072 6.93329 10.4605 6.53996 9.96052C6.14663 9.46052 5.95329 8.80719 5.95329 7.98719C5.95329 7.46052 6.03996 6.99385 6.20663 6.58052C6.37329 6.17385 6.61996 5.85385 6.94663 5.62719C7.27329 5.40052 7.66663 5.28719 8.13329 5.28719C8.65996 5.28719 9.06663 5.43385 9.35996 5.72052C9.64663 6.00719 9.83329 6.40719 9.91996 6.90719H11.0733C11.0266 6.44052 10.8866 6.01385 10.66 5.62719C10.4333 5.24052 10.1133 4.93385 9.69996 4.70052C9.28663 4.46719 8.76663 4.34719 8.13996 4.34719C7.44663 4.34719 6.83996 4.50719 6.33329 4.82719C5.81996 5.14719 5.43329 5.58052 5.17329 6.13385C4.90663 6.68719 4.77996 7.30719 4.77996 8.00719C4.77996 8.70719 4.90663 9.32719 5.16663 9.88052C5.42663 10.4339 5.80663 10.8672 6.31996 11.1872C6.82663 11.5072 7.43996 11.6672 8.14663 11.6672C9.07996 11.6672 9.79996 11.4005 10.3066 10.8672C10.8133 10.3339 11.1066 9.68052 11.1866 8.91385H10.0333C9.95996 9.46719 9.76663 9.90052 9.44663 10.2272L9.43996 10.2205Z" fill="#303030"/>
</svg>
