<svg width="16" height="16" viewBox="0 0 16 16" fill="none" xmlns="http://www.w3.org/2000/svg">
<path d="M10.1001 6.95073L11.1268 7.9974C10.6202 9.34406 9.69348 10.2641 8.31348 10.8041L7.27348 9.7774L4.98682 10.5241L5.24015 14.3507L5.70015 14.3307C11.2268 14.0774 14.0668 11.2374 14.6535 5.40406L14.7001 4.92406L10.8468 4.66406L10.1001 6.95073ZM11.5135 5.64406L13.6735 5.79073C13.0602 10.6641 10.7068 13.0241 6.12015 13.3707L5.97348 11.1841L7.03348 10.8374L8.08682 11.8774L8.36015 11.7841C10.2535 11.1374 11.5202 9.87073 12.1202 8.02406L12.2068 7.7574L11.1735 6.70406L11.5202 5.64406H11.5135Z" fill="#303030"/>
<path d="M2.00009 1.48031L1.34009 2.13365L8.32009 9.12698L8.32675 3.10698L9.43342 4.21365L10.0934 3.55365L7.85342 1.32031L5.62675 3.54698L6.28675 4.20698L7.39342 3.10031L7.38675 6.87365L2.00009 1.48031Z" fill="#303030"/>
</svg>
