<svg width="16" height="16" viewBox="0 0 16 16" fill="none" xmlns="http://www.w3.org/2000/svg">
<g clip-path="url(#clip0_3923_5377)">
<path d="M6.41676 0.09375H9.61676L9.60343 5.23375L14.0501 2.68042L15.6434 5.45375L11.2034 8.00042L15.6368 10.5604L14.0368 13.3338L9.5901 10.7671L9.57676 15.9071H6.37676L6.3901 10.7671L1.94343 13.3204L0.350098 10.5404L4.7901 7.99375L0.356764 5.43375L1.95676 2.66708L6.40343 5.23375L6.41676 0.09375ZM7.39676 1.08042L7.38343 6.92708L2.31676 4.00708L1.69676 5.08042L6.75676 8.00042L1.6901 10.9071L2.30343 11.9804L7.37676 9.07375L7.36343 14.9204H8.60343L8.61676 9.07375L13.6834 12.0004L14.3034 10.9271L9.24343 8.00708L14.3101 5.10042L13.6968 4.02708L8.62343 6.93375L8.63676 1.08708H7.39676V1.08042Z" fill="#303030"/>
</g>
<defs>
<clipPath id="clip0_3923_5377">
<rect width="16" height="16" fill="white"/>
</clipPath>
</defs>
</svg>
