<svg width="16" height="16" viewBox="0 0 16 16" fill="none" xmlns="http://www.w3.org/2000/svg">
<path d="M13.48 3.16948L12.82 2.50948L13.8867 1.44281L14.5467 2.10281L13.48 3.16948ZM11.2733 1.38281H10.34V2.83615H11.2733V1.38281ZM14.62 4.74281H13.1533V5.67615H14.62V4.74281ZM10.92 5.70948L12.2 4.46281L11.5467 3.79615L10.2933 5.01615L9.20001 3.80281L7.26667 5.54281C6.86667 5.42948 6.44001 5.36281 6.00667 5.36281C3.44667 5.36281 1.38 7.43615 1.38 9.98948C1.38 12.5428 3.45334 14.6161 6.00667 14.6161C8.56001 14.6161 10.6333 12.5428 10.6333 9.98948C10.6333 9.50948 10.56 9.04948 10.4267 8.61615L12.14 7.07615L10.9133 5.70948H10.92ZM9.12667 5.11615L10.82 7.00281L10.14 7.61615L8.44667 5.72948L9.12667 5.11615ZM6.00001 13.6895C3.96001 13.6895 2.30667 12.0295 2.30667 9.99615C2.30667 7.96281 3.96667 6.30281 6.00001 6.30281C8.03334 6.30281 9.69334 7.96281 9.69334 9.99615C9.69334 12.0295 8.03334 13.6895 6.00001 13.6895Z" fill="#303030"/>
</svg>
