<svg width="16" height="16" viewBox="0 0 16 16" fill="none" xmlns="http://www.w3.org/2000/svg">
<path d="M7.99992 13.7359C4.86659 13.7359 2.26659 11.2026 2.26659 8.0026H1.33325C1.33325 11.6693 4.33325 14.6693 7.99992 14.6693C11.6666 14.6693 14.6666 11.6693 14.6666 8.0026C14.6666 4.33594 11.6666 1.33594 7.99992 1.33594C4.33325 1.33594 3.46659 2.6026 2.26659 4.6026V2.26927H1.33325V6.06927H5.13325V5.13594H2.99992C3.99992 3.4026 5.86658 2.26927 7.93325 2.26927C11.0666 2.26927 13.6666 4.8026 13.6666 8.0026C13.6666 11.2026 11.1333 13.7359 7.93325 13.7359H7.99992Z" fill="#303030"/>
</svg>
