<svg width="16" height="16" viewBox="0 0 16 16" fill="none" xmlns="http://www.w3.org/2000/svg">
<path d="M2.27342 10.8504H14.6534V1.34375H1.34009V14.6637H2.27342V10.8504ZM2.27342 2.27708H13.7201V9.91708H2.27342V2.27708ZM2.30675 2.29708H4.19342V4.18375H2.30675V2.29708ZM6.11342 2.29708H8.00009V4.18375H6.11342V2.29708ZM9.92009 2.29708H11.8068V4.18375H9.92009V2.29708ZM8.01342 4.20375H9.90009V6.09042H8.01342V4.20375ZM11.8268 4.20375H13.7134V6.09042H11.8268V4.20375ZM2.30675 6.10375H4.19342V7.99042H2.30675V6.10375ZM6.11342 6.10375H8.00009V7.99042H6.11342V6.10375ZM4.20675 8.00375H6.09342V9.89042H4.20675V8.00375ZM8.01342 8.00375H9.90009V9.89042H8.01342V8.00375ZM11.8268 8.01042H13.7134V9.89708H11.8268V8.01042ZM4.20675 4.20375H6.09342V6.09042H4.20675V4.20375ZM9.92009 6.10375H11.8068V7.99042H9.92009V6.10375Z" fill="#303030"/>
</svg>
