<svg width="16" height="16" viewBox="0 0 16 16" fill="none" xmlns="http://www.w3.org/2000/svg">
<path d="M7.99333 13.7281C4.83333 13.7281 2.25999 11.1548 2.25999 7.99479C2.25999 4.83479 4.83333 2.26146 7.99333 2.26146C11.1533 2.26146 13.7267 4.83479 13.7267 7.99479C13.7267 11.1548 11.1533 13.7281 7.99333 13.7281ZM7.99333 14.6615C11.6733 14.6615 14.66 11.6748 14.66 7.99479C14.66 4.31479 11.6733 1.32812 7.99333 1.32812C4.31333 1.32812 1.32666 4.31479 1.32666 7.99479C1.32666 11.6748 4.31333 14.6615 7.99333 14.6615ZM7.52666 9.28812H8.45999V4.42146H7.52666V9.28812ZM7.52666 11.5681H8.45999V10.1415H7.52666V11.5681Z" fill="#303030"/>
</svg>
