<svg width="16" height="16" viewBox="0 0 16 16" fill="none" xmlns="http://www.w3.org/2000/svg">
<path d="M4.66663 12.7504H6.57329V14.6637H7.51329L7.49996 11.8171H5.59996V5.61708H10.3733V11.8171H8.47329V14.6637H9.41996V12.7504H11.3133V4.69042H9.55996C9.84663 4.33708 10.0266 3.89042 10.0266 3.39708C10.0266 2.26375 9.10663 1.34375 7.97329 1.34375C6.83996 1.34375 5.91996 2.26375 5.91996 3.39708C5.91996 3.89042 6.09996 4.33708 6.38663 4.69042H4.66663V12.7571V12.7504ZM7.97996 2.27708C8.59996 2.27708 9.09996 2.77708 9.09996 3.39708C9.09996 4.01708 8.59996 4.51708 7.97996 4.51708C7.35996 4.51708 6.85996 4.01708 6.85996 3.39708C6.85996 2.77708 7.35996 2.27708 7.97996 2.27708Z" fill="#303030"/>
</svg>
