<svg width="16" height="16" viewBox="0 0 16 16" fill="none" xmlns="http://www.w3.org/2000/svg">
<path d="M14.6401 8.02677C14.6401 7.25344 14.0401 6.62677 13.2801 6.5801V2.77344H12.2601L12.1201 2.91344C10.4668 4.62677 8.26677 5.57344 5.91344 5.57344H1.36011V10.4801H1.38011L3.28011 13.2334H7.49344L6.50011 10.5268C8.58677 10.6668 10.5334 11.5534 12.0334 13.0668L12.1734 13.2068H13.2801V9.48677C14.0401 9.43344 14.6401 8.80677 14.6401 8.0401V8.02677ZM2.30011 6.50677H5.45344V9.54677H2.30011V6.50677ZM3.77344 12.3001L2.52011 10.4801H5.45344V10.4934H5.50011L6.16011 12.3001H3.77344ZM12.3468 12.0668C10.6934 10.5534 8.60677 9.6801 6.38677 9.57344V6.5001C8.60677 6.39344 10.6934 5.5201 12.3468 4.00677V12.0668Z" fill="#303030"/>
</svg>
