<svg width="16" height="16" viewBox="0 0 16 16" fill="none" xmlns="http://www.w3.org/2000/svg">
<path d="M11.4267 2.27031C10.5334 1.80365 9.50003 1.57031 8.34003 1.57031C7.0267 1.57031 5.87336 1.85698 4.88003 2.43031C3.89336 3.00365 3.1267 3.78365 2.5867 4.76365C2.0467 5.75031 1.78003 6.85031 1.78003 8.06365C1.78003 9.27698 2.07336 10.4436 2.66003 11.4036C3.2467 12.3636 4.0667 13.1036 5.11336 13.6303C6.16003 14.157 7.37336 14.4236 8.75336 14.4236C9.19336 14.4236 9.63336 14.397 10.0734 14.3503C10.5134 14.3036 10.8667 14.2436 11.1534 14.1836V13.5036C10.88 13.5636 10.5334 13.617 10.1134 13.6703C9.69336 13.7236 9.26003 13.7436 8.82003 13.7436C7.57336 13.7436 6.48003 13.5103 5.54003 13.0436C4.60003 12.577 3.87336 11.9103 3.36003 11.0503C2.8467 10.1836 2.59336 9.18365 2.59336 8.03698C2.59336 6.89031 2.84003 5.91031 3.3267 5.03031C3.81336 4.15031 4.49336 3.47031 5.37336 2.98365C6.25336 2.49698 7.25336 2.25031 8.38003 2.25031C9.39336 2.25031 10.28 2.45031 11.04 2.85031C11.8 3.25031 12.38 3.82365 12.7934 4.55698C13.2067 5.29698 13.4134 6.17031 13.4134 7.17031C13.4134 7.81031 13.3267 8.37698 13.16 8.86365C12.9867 9.35031 12.7534 9.72365 12.4467 9.98365C12.14 10.2436 11.7934 10.377 11.4134 10.377C11.0334 10.377 10.7534 10.2503 10.6067 9.99031C10.46 9.73698 10.42 9.39698 10.48 8.97031L11.1134 4.95031H10.0267L9.8667 6.09031C9.78003 5.83698 9.6667 5.60365 9.52003 5.41031C9.16003 4.94365 8.6467 4.71031 7.9867 4.71031C7.41336 4.71031 6.90003 4.87698 6.44003 5.19698C5.98003 5.51698 5.6267 5.95698 5.38003 6.49698C5.1267 7.03698 5.00003 7.63698 5.00003 8.29031C5.00003 8.82365 5.09336 9.29031 5.27336 9.69031C5.45336 10.0903 5.71336 10.4036 6.05336 10.6236C6.39336 10.8436 6.80003 10.957 7.26003 10.957C7.84003 10.957 8.3467 10.7903 8.7667 10.4503C9.03336 10.237 9.25336 9.97698 9.44003 9.67698C9.46003 9.83031 9.49336 9.98365 9.55336 10.117C9.6867 10.4236 9.9067 10.657 10.2067 10.8236C10.5067 10.9903 10.8667 11.0703 11.2934 11.0703C11.8867 11.0703 12.4 10.897 12.8467 10.557C13.2867 10.217 13.6267 9.74365 13.8667 9.15031C14.1 8.55031 14.22 7.87031 14.22 7.11031C14.22 6.02365 13.98 5.06365 13.5 4.21698C13.02 3.37031 12.3267 2.71698 11.4334 2.25031V2.27031H11.4267ZM8.67336 9.71031C8.37336 9.94365 8.02003 10.057 7.62003 10.057C7.16003 10.057 6.79336 9.89698 6.53336 9.57031C6.27336 9.24365 6.14003 8.79698 6.14003 8.22365C6.14003 7.75031 6.22003 7.31698 6.37336 6.93031C6.5267 6.53698 6.7667 6.22365 7.08003 5.99031C7.39336 5.75698 7.77336 5.63698 8.22003 5.63698C8.6667 5.63698 9.03336 5.77698 9.2667 6.05698C9.50003 6.33698 9.62003 6.77698 9.62003 7.38365C9.62003 7.89698 9.54003 8.35698 9.37336 8.76365C9.2067 9.17031 8.97336 9.49031 8.67336 9.72365V9.71031Z" fill="#303030"/>
</svg>
