<svg width="16" height="16" viewBox="0 0 16 16" fill="none" xmlns="http://www.w3.org/2000/svg">
<path d="M1.31 14.6858L1.80333 10.3058C1.51666 9.5525 1.37666 8.75917 1.37666 7.95917C1.37666 4.2925 4.35 1.3125 8.03 1.3125C11.71 1.3125 14.69 4.29917 14.69 7.9725H13.7567C13.7567 4.81917 11.19 2.2525 8.03666 2.2525C4.88333 2.2525 2.31 4.8125 2.31 7.9725C2.31 8.6925 2.45 9.40583 2.71666 10.0792L2.75666 10.1858L2.37 13.6325L5.81666 13.2458L5.92333 13.2858C6.60333 13.5525 7.31 13.6925 8.03 13.6925V14.6258C7.23 14.6258 6.44333 14.4792 5.69 14.1992L1.31 14.6925V14.6858ZM11.83 9.86583C12.8833 9.86583 13.7433 10.7258 13.7433 11.7792C13.7433 12.8325 12.8833 13.6925 11.83 13.6925C11.59 13.6925 11.3567 13.6458 11.1233 13.5592L10.9033 13.4725L10.67 13.4992L10.03 13.5725L10.1033 12.9392L10.13 12.7058L10.0433 12.4858C9.95 12.2592 9.91 12.0192 9.91 11.7792C9.91 10.7258 10.77 9.86583 11.8233 9.86583M11.83 8.92583C10.2567 8.92583 8.98333 10.1992 8.98333 11.7725C8.98333 12.1458 9.05666 12.4992 9.18333 12.8192L8.98333 14.6192L10.7833 14.4192C11.11 14.5458 11.4633 14.6192 11.83 14.6192C13.4033 14.6192 14.6767 13.3458 14.6767 11.7725C14.6767 10.1992 13.4033 8.92583 11.83 8.92583Z" fill="#303030"/>
</svg>
