<svg width="16" height="16" viewBox="0 0 16 16" fill="none" xmlns="http://www.w3.org/2000/svg">
<path d="M14.6799 7.81729H13.1866L14.6666 2.89062H13.7266L12.2666 7.81729H9.86661L8.57328 2.89062H7.43995L6.13995 7.81729H3.73328L2.27328 2.89062H1.35328L2.82661 7.81729H1.31995V8.52396H3.03328L4.38661 13.0373H5.56661L6.77328 8.52396H9.23328L10.4399 13.0373H11.6199L12.9799 8.52396H14.6866V7.81729H14.6799ZM4.99995 12.1106L3.93995 8.53063H5.94661L4.99995 12.1106ZM6.95995 7.81729L7.99995 3.92396L9.03995 7.81729H6.95995ZM10.9933 12.104L10.0533 8.53063H12.0533L10.9933 12.104Z" fill="#303030"/>
</svg>
