<svg width="16" height="16" viewBox="0 0 16 16" fill="none" xmlns="http://www.w3.org/2000/svg">
<path d="M10.24 10.2734H11.1933V11.2068H10.24V10.2734Z" fill="#303030"/>
<path d="M8.38 10.2734H9.33334V11.2068H8.38V10.2734Z" fill="#303030"/>
<path d="M13.3333 13.0431L14.5933 7.04979H11.7L11.3467 8.03646L8.02666 8.02312V7.04979H6.07333V5.13646H7.33999V4.20312H5.55999H1.32666V7.10312H1.33999L2.55999 12.8565C2.22666 12.8365 1.83999 12.8231 1.33333 12.8231V13.7565C2.41333 13.7565 2.93333 13.8165 3.48666 13.8831C4.03999 13.9498 4.61999 14.0165 5.75333 14.0165C6.88666 14.0165 7.46666 13.9498 8.01999 13.8831C8.57333 13.8165 9.09999 13.7565 10.1733 13.7565C11.2467 13.7565 11.7733 13.8165 12.3267 13.8831C12.8867 13.9498 13.46 14.0165 14.5933 14.0165V13.0831C14.06 13.0831 13.66 13.0698 13.3267 13.0431H13.3333ZM2.25999 5.13646H5.13999V7.05646H2.25999V5.13646ZM10.1733 12.8165C9.03999 12.8165 8.45999 12.8831 7.90666 12.9498C7.35333 13.0165 6.82666 13.0765 5.75333 13.0765C4.67999 13.0765 4.15333 13.0165 3.59999 12.9498C3.57999 12.9498 3.55333 12.9498 3.53333 12.9431L2.47999 7.98313H7.09999V8.94979L12.0067 8.97646L12.36 7.98313H13.4467L12.4 12.9498C11.8533 12.8831 11.28 12.8165 10.18 12.8165H10.1733Z" fill="#303030"/>
</svg>
