<svg width="16" height="16" viewBox="0 0 16 16" fill="none" xmlns="http://www.w3.org/2000/svg">
<path d="M12.37 3.68906L7.24996 2.80239C6.80996 2.72906 6.35662 2.84906 6.04329 3.12239C5.78329 3.34239 5.64329 3.63573 5.64329 3.95573V4.20906C5.64329 4.44906 5.72996 4.68239 5.87662 4.86906H2.24996C1.74329 4.86906 1.32996 5.24239 1.32996 5.69573V6.80906C1.32996 7.29573 1.77662 7.68906 2.32329 7.68906H4.18996V8.68239C4.18996 9.15573 4.61662 9.54906 5.14329 9.56906V10.5624C5.14329 11.0424 5.56996 11.4357 6.10329 11.4624L6.11662 12.3491C6.11662 12.5691 6.20329 12.7757 6.36329 12.9357C6.54996 13.1224 6.81662 13.2291 7.10329 13.2291H14.6766V3.68906H12.37ZM7.09662 12.2824C7.09662 12.2824 7.05662 12.2824 7.04329 12.2757L7.02996 11.4491H7.53662V10.5157H6.08329V9.56239H7.53662V8.62906H5.18996C5.18996 8.62906 5.13662 8.62906 5.12329 8.61573V7.68239H7.53662V6.74906H2.31662C2.31662 6.74906 2.27662 6.74906 2.26329 6.74239V5.80239H8.93662V4.86906H7.34329L6.78996 4.42239L6.71662 4.37573C6.62996 4.32906 6.57662 4.26239 6.57662 4.20239V3.94906C6.57662 3.89573 6.61662 3.85573 6.64996 3.82239C6.73662 3.74906 6.90329 3.68239 7.09662 3.71573L11.33 4.44906V12.2757H7.09662V12.2824ZM13.7366 12.2757H12.2633V4.62239H13.7366V12.2757Z" fill="#303030"/>
</svg>
