<svg width="16" height="16" viewBox="0 0 16 16" fill="none" xmlns="http://www.w3.org/2000/svg">
<path d="M13.9533 7.37156V4.19823L11.0866 1.35156H3.49331V7.05156H4.42664V2.2849H10.1466V5.15156H13.02V7.5249V13.7182H4.42664V12.7582H3.49331V14.6516H13.96V7.3649H13.9533V7.37156ZM11.08 4.21823V2.65823L12.6466 4.21823H11.08ZM3.01331 9.85156L2.10664 8.1649H2.97998L3.27998 8.8249C3.35998 8.9849 3.43331 9.1649 3.53331 9.37823H3.55331C3.63331 9.15823 3.70664 8.97823 3.77331 8.8249L4.04664 8.1649H4.88664L3.97998 9.8849L4.93998 11.6382H4.06664L3.72664 10.9316C3.63998 10.7516 3.55998 10.5716 3.46664 10.3582H3.44664C3.36664 10.5716 3.28664 10.7516 3.20664 10.9316L2.87998 11.6382H2.03998L2.99998 9.85156H3.01331ZM5.43331 8.17156H6.21998V10.9849H7.59331V11.6449H5.43331V8.17156ZM7.81998 11.1982L8.27331 10.6582C8.51998 10.8716 8.83998 11.0182 9.12664 11.0182C9.45331 11.0182 9.61331 10.8916 9.61331 10.6849C9.61331 10.4649 9.41331 10.3982 9.11331 10.2716L8.65998 10.0782C8.29998 9.93156 7.95998 9.63823 7.95998 9.13156C7.95998 8.55823 8.47331 8.09823 9.19998 8.09823C9.59998 8.09823 10.02 8.25823 10.32 8.55156L9.92664 9.0449C9.69998 8.87156 9.47998 8.77156 9.20665 8.77156C8.93331 8.77156 8.75998 8.8849 8.75998 9.0849C8.75998 9.29823 8.98664 9.37823 9.29331 9.49823L9.73331 9.67823C10.16 9.85156 10.42 10.1316 10.42 10.6249C10.42 11.2049 9.93998 11.7049 9.11331 11.7049C8.65998 11.7049 8.17998 11.5316 7.82664 11.2049L7.81998 11.1982Z" fill="#303030"/>
</svg>
