<svg width="16" height="16" viewBox="0 0 16 16" fill="none" xmlns="http://www.w3.org/2000/svg">
<path d="M13.7667 10.4716L14.1333 10.1049L13.4733 9.4449L13.1067 9.81156C12.84 9.63823 12.5467 9.51823 12.2467 9.45823V8.9449H11.3133V9.47156C11.0133 9.53156 10.7267 9.65156 10.46 9.83156L10.0933 9.4649L9.43332 10.1249L9.79999 10.4916C9.62665 10.7516 9.51332 11.0449 9.45332 11.3382H8.93332V12.2716H9.45332C9.51332 12.5649 9.62665 12.8516 9.79999 13.1116L9.43332 13.4782L10.0933 14.1382L10.46 13.7716C10.72 13.9516 11.0133 14.0649 11.3133 14.1316V14.6582H12.2467V14.1382C12.5467 14.0782 12.84 13.9649 13.1067 13.7916L13.4733 14.1582L14.1333 13.4982L13.7667 13.1316C13.9467 12.8649 14.0667 12.5716 14.1267 12.2716H14.6467V11.3382H14.1267C14.0667 11.0316 13.9467 10.7382 13.7667 10.4716ZM10.7667 10.7716C11.04 10.4982 11.4067 10.3449 11.7933 10.3449C12.18 10.3449 12.5467 10.4982 12.82 10.7716C13.3867 11.3382 13.3867 12.2582 12.82 12.8249C12.2533 13.3916 11.32 13.3716 10.7667 12.8249C10.2 12.2582 10.2 11.3382 10.7667 10.7716ZM8.04665 11.8049V12.7382L2.11332 12.7516L8.03332 1.35156L11.24 7.7649L10.4067 8.1849L8.01999 3.41156L3.65332 11.8182L8.04665 11.8049ZM1.35999 14.5916L8.03332 14.6182V13.6849L1.35999 13.6582V14.5916Z" fill="#303030"/>
</svg>
