<svg width="16" height="16" viewBox="0 0 16 16" fill="none" xmlns="http://www.w3.org/2000/svg">
<path d="M10.8534 8.9676L8.95337 10.8676L12.64 14.5543L14.6534 14.6809L14.56 12.6676L10.8534 8.96094V8.9676ZM13.0534 13.6476L10.2734 10.8676L10.8534 10.2876L13.6467 13.0809L13.6734 13.6943L13.0534 13.6543V13.6476Z" fill="#303030"/>
<path d="M1.34668 1.34375V14.6504H4.19335H8.00001H8.02001V13.7171H5.12668V8.93042H8.00001V7.99708H4.19335V13.7171H2.28001V2.27708H4.20001V5.15708H11.8067V2.65708L13.7267 4.57042V7.99042H14.66V4.18375L11.8133 1.35042H1.34668V1.34375ZM10.8733 4.22375H5.13335V2.30375H8.33335V3.36375H10.0333V2.30375H10.8733V4.22375Z" fill="#303030"/>
</svg>
