<svg width="16" height="16" viewBox="0 0 16 16" fill="none" xmlns="http://www.w3.org/2000/svg">
<path d="M10.9533 11.92C10.28 13.0133 9.06667 13.72 7.72667 13.72C5.63333 13.72 3.93333 12.02 3.93333 9.92667C3.93333 9.62 3.98667 9.32667 4.05333 9.03333L3.42 8C3.14667 8.59333 3 9.24667 3 9.92667C3 12.5333 5.12 14.6533 7.72667 14.6533C9.18667 14.6533 10.5133 13.9667 11.3933 12.8867L10.9533 11.92Z" fill="#303030"/>
<path d="M13.7866 10.8293L12.7132 11.2493L11.0932 7.70927H7.47991L7.11991 4.0426C7.59325 3.80927 7.92658 3.32927 7.92658 2.7626C7.92658 1.97594 7.28658 1.33594 6.49991 1.33594C5.71325 1.33594 5.07325 1.97594 5.07325 2.7626C5.07325 3.4426 5.55325 4.01594 6.19325 4.15594L6.28658 5.13594L2.65991 5.14927L5.14658 8.5226L5.89991 7.96927L4.49991 6.06927H6.37325L6.62658 8.63594H10.4866L12.2266 12.4359L14.1199 11.7026L13.7799 10.8359L13.7866 10.8293ZM6.49325 2.26927C6.76658 2.26927 6.98658 2.48927 6.98658 2.7626C6.98658 3.03594 6.76658 3.25594 6.49325 3.25594C6.21991 3.25594 5.99991 3.03594 5.99991 2.7626C5.99991 2.48927 6.21991 2.26927 6.49325 2.26927Z" fill="#303030"/>
</svg>
