<svg width="16" height="16" viewBox="0 0 16 16" fill="none" xmlns="http://www.w3.org/2000/svg">
<path d="M1.34668 10.8233H2.28001V4.18333H13.2267V3.25H1.34668V10.8233Z" fill="#303030"/>
<path d="M14.66 5.625H3.76001V12.765H14.66V5.625ZM13.4467 10.3517C12.78 10.3517 12.24 10.8917 12.24 11.5583C12.24 11.6517 12.2533 11.745 12.2733 11.8317H6.18668C6.20668 11.7383 6.22668 11.645 6.22668 11.545C6.22668 10.8783 5.68668 10.3383 5.02001 10.3383C4.90001 10.3383 4.79334 10.3583 4.68001 10.3917V8.005C4.77334 8.025 4.86668 8.045 4.96668 8.045C5.63334 8.045 6.17334 7.505 6.17334 6.83833C6.17334 6.73833 6.16001 6.645 6.13334 6.55833H12.2533C12.2333 6.65167 12.2133 6.745 12.2133 6.83833C12.2133 7.505 12.7533 8.045 13.42 8.045C13.52 8.045 13.6133 8.03167 13.7067 8.005V10.385C13.62 10.365 13.5267 10.3517 13.4333 10.3517H13.4467Z" fill="#303030"/>
<path d="M9.20672 7.28906C8.15338 7.28906 7.30005 8.1424 7.30005 9.19573C7.30005 10.2491 8.15338 11.1024 9.20672 11.1024C10.26 11.1024 11.1134 10.2491 11.1134 9.19573C11.1134 8.1424 10.26 7.28906 9.20672 7.28906ZM9.20672 10.1691C8.67338 10.1691 8.23338 9.73573 8.23338 9.19573C8.23338 8.65573 8.66672 8.2224 9.20672 8.2224C9.74672 8.2224 10.18 8.65573 10.18 9.19573C10.18 9.73573 9.74672 10.1691 9.20672 10.1691Z" fill="#303030"/>
</svg>
