<svg width="16" height="16" viewBox="0 0 16 16" fill="none" xmlns="http://www.w3.org/2000/svg">
<path d="M7.98671 14.6782C5.90671 14.6782 4.21338 12.9849 4.21338 10.9049C4.21338 9.75156 4.74671 8.6649 5.64671 7.95156V1.35156H10.3734V7.99156C11.2467 8.7049 11.76 9.77823 11.76 10.9049C11.76 12.9849 10.0667 14.6782 7.98671 14.6782ZM6.58005 2.2849V8.4249L6.38005 8.5649C5.60671 9.09823 5.14671 9.97156 5.14671 10.9049C5.14671 12.4716 6.42005 13.7449 7.98671 13.7449C9.55338 13.7449 10.8267 12.4716 10.8267 10.9049C10.8267 9.99823 10.38 9.13156 9.63338 8.59823L9.44005 8.45823V2.2849H6.58005Z" fill="#303030"/>
</svg>
