<svg width="16" height="16" viewBox="0 0 16 16" fill="none" xmlns="http://www.w3.org/2000/svg">
<path d="M7.99 12.5236H1.33667V2.07031H14.65V8.73031H13.7167V3.00365H2.27667V11.5903H7.99667V12.5236H7.99ZM10.8633 7.77031V6.83698H10.3433C10.2833 6.53031 10.1633 6.23698 9.98334 5.97031L10.35 5.60365L9.69 4.94365L9.32334 5.31031C9.05667 5.13698 8.76334 5.01698 8.46334 4.95698V4.44365H7.53V4.97031C7.23 5.03031 6.94334 5.15031 6.67667 5.33031L6.31 4.96365L5.65 5.62365L6.01667 5.99031C5.84334 6.25031 5.73 6.54365 5.67 6.83698H5.15V7.77031H5.67C5.73 8.06365 5.84334 8.35031 6.01667 8.61031L5.65 8.97698L6.31 9.63698L6.67667 9.27031C6.93667 9.45031 7.23 9.56365 7.53 9.63031V10.157H8.46334V9.64365C8.76334 9.58365 9.05667 9.47031 9.32334 9.29698L9.69 9.66365L10.35 9.00365L9.98334 8.63698C10.1633 8.37031 10.2833 8.07698 10.3433 7.77698H10.8633V7.77031ZM6.98334 6.27031C7.25667 5.99698 7.62334 5.84365 8.01 5.84365C8.39667 5.84365 8.76334 5.99698 9.03667 6.27031C9.60334 6.83698 9.60334 7.75698 9.03667 8.32365C8.49 8.87031 7.53667 8.87031 6.98334 8.32365C6.41667 7.75698 6.41667 6.83698 6.98334 6.27031ZM12.8033 10.1903L12.1433 10.8503L12.8833 11.5903H9.43V12.5236H12.89L12.1433 13.2703L12.8033 13.9303L14.67 12.0636L12.8033 10.1903Z" fill="#303030"/>
</svg>
