<svg width="16" height="16" viewBox="0 0 16 16" fill="none" xmlns="http://www.w3.org/2000/svg">
<path d="M10.26 4.59365C10.4267 4.42698 10.5667 4.23365 10.6667 4.01365L11.66 5.00698L12.32 4.34698L11.2333 3.26031L12.3067 2.18698L11.6467 1.52698L10.6933 2.48031C10.4 1.80031 9.72666 1.32031 8.93999 1.32031C8.04666 1.32031 7.29999 1.94031 7.09333 2.76698H5.09999V3.70031H7.09999C7.18666 4.03365 7.35333 4.32698 7.58666 4.56698C6.81333 4.97365 6.25333 5.70698 6.09333 6.59365H3.67999V12.7736H4.61333V7.53365H6.04666V14.667H11.7667V7.09365C11.7667 6.01365 11.16 5.08698 10.2733 4.60031H10.26V4.59365ZM8.93333 2.25365C9.47333 2.25365 9.90666 2.69365 9.90666 3.22698C9.90666 3.76031 9.46666 4.20031 8.93333 4.20031C8.39999 4.20031 7.95999 3.76031 7.95999 3.22698C7.95999 2.69365 8.39999 2.25365 8.93333 2.25365ZM6.96666 13.727V7.08698C6.96666 6.02698 7.83333 5.16031 8.89333 5.16031C9.95333 5.16031 10.82 6.02698 10.82 7.08698V7.51365H8.41999V12.2803H10.82V13.727H6.96666ZM10.82 8.45365V11.3536H9.35333V8.45365H10.82Z" fill="#303030"/>
</svg>
