<svg width="16" height="16" viewBox="0 0 16 16" fill="none" xmlns="http://www.w3.org/2000/svg">
<path d="M1.33337 3.24219V12.7555H14.6667V3.24219H1.33337ZM2.26671 11.8289V4.17552H13.7334V5.62219H3.70671V6.55552H13.7334V11.8222H2.26671V11.8289ZM10.6467 7.53552C10.2934 7.53552 9.96671 7.64885 9.70004 7.83552C9.43337 7.64885 9.10671 7.53552 8.75337 7.53552C7.84671 7.53552 7.10671 8.27552 7.10671 9.18219C7.10671 10.0889 7.84671 10.8289 8.75337 10.8289C9.10671 10.8289 9.43337 10.7155 9.70004 10.5289C9.96671 10.7155 10.2934 10.8289 10.6467 10.8289C11.5534 10.8289 12.2934 10.0889 12.2934 9.18219C12.2934 8.27552 11.5534 7.53552 10.6467 7.53552ZM8.04671 9.18219C8.04671 8.78885 8.36671 8.46885 8.76004 8.46885C8.89337 8.46885 9.01337 8.51552 9.12004 8.58219C9.04671 8.76885 9.00004 8.96885 9.00004 9.18219C9.00004 9.39552 9.04671 9.59552 9.12004 9.78219C9.01337 9.84885 8.89337 9.89552 8.76004 9.89552C8.36671 9.89552 8.04671 9.57552 8.04671 9.18219ZM10.6467 9.88885C10.5134 9.88885 10.3934 9.84219 10.2867 9.77552C10.36 9.58885 10.4067 9.38885 10.4067 9.17552C10.4067 8.96219 10.36 8.76219 10.2867 8.57552C10.3934 8.50885 10.5134 8.46219 10.6467 8.46219C11.04 8.46219 11.36 8.78219 11.36 9.17552C11.36 9.56885 11.04 9.88885 10.6467 9.88885Z" fill="#303030"/>
</svg>
