<svg width="16" height="16" viewBox="0 0 16 16" fill="none" xmlns="http://www.w3.org/2000/svg">
<path d="M10.2067 7.40406C10.8267 7.40406 11.3267 6.90406 11.3267 6.28406C11.3267 5.66406 10.8267 5.16406 10.2067 5.16406C9.58667 5.16406 9.08667 5.66406 9.08667 6.28406C9.08667 6.90406 9.58667 7.40406 10.2067 7.40406Z" fill="#303030"/>
<path d="M5.71998 7.40406C6.33998 7.40406 6.83998 6.90406 6.83998 6.28406C6.83998 5.66406 6.33998 5.16406 5.71998 5.16406C5.09998 5.16406 4.59998 5.66406 4.59998 6.28406C4.59998 6.90406 5.09998 7.40406 5.71998 7.40406Z" fill="#303030"/>
<path d="M5.61327 8.53125H4.67993C4.67993 10.3379 6.1466 11.8046 7.95327 11.8046C9.75993 11.8046 11.2266 10.3379 11.2266 8.53125H10.2933C10.2933 9.81792 9.2466 10.8712 7.95327 10.8712C6.65993 10.8712 5.61327 9.82458 5.61327 8.53125Z" fill="#303030"/>
<path d="M7.99328 14.6615C11.6799 14.6615 14.6599 11.6748 14.6599 7.99479C14.6599 4.31479 11.6733 1.32812 7.99328 1.32812C4.31328 1.32812 1.31995 4.31479 1.31995 7.99479C1.31995 11.6748 4.30661 14.6615 7.98661 14.6615H7.99328ZM7.99328 2.26146C11.1533 2.26146 13.7266 4.83479 13.7266 7.99479C13.7266 11.1548 11.1533 13.7281 7.99328 13.7281C4.83328 13.7281 2.25328 11.1548 2.25328 7.99479C2.25328 4.83479 4.82661 2.26146 7.99328 2.26146Z" fill="#303030"/>
</svg>
