<svg width="16" height="16" viewBox="0 0 16 16" fill="none" xmlns="http://www.w3.org/2000/svg">
<path d="M13.7134 6.98688L14.5467 6.15354L13.8867 5.49354L13.18 6.20021L11.42 3.64021H10.1534V3.04688H5.85337V3.64688C4.6867 3.66021 4.65337 3.68021 4.57337 3.74021L2.8267 6.25354L2.11337 5.54021L1.45337 6.20021L2.2867 7.03354V11.5202C2.2867 11.8802 2.2867 11.9602 3.2467 11.9869V12.9335H4.66004V12.0002L11.34 12.0335V12.9402H12.7534V12.0402H13.6934V6.99354H13.7067L13.7134 6.98688ZM5.1067 4.57354H10.9267L12.58 6.98688H3.45337L5.1067 4.57354ZM12.78 11.1002C11.04 11.0935 4.96004 11.0669 3.2267 11.0535V7.91354H12.78V11.0935V11.1002ZM3.71337 9.12021H5.1467V10.0535H3.71337V9.12021ZM10.8534 9.12021H12.28V10.0535H10.8534V9.12021ZM6.10004 9.12687H9.9067V10.0602H6.10004V9.12687Z" fill="#303030"/>
</svg>
