<svg width="16" height="16" viewBox="0 0 16 16" fill="none" xmlns="http://www.w3.org/2000/svg">
<path d="M7.99992 6.58927C8.77992 6.58927 9.41325 7.2226 9.41325 8.0026C9.41325 8.7826 8.77992 9.41594 7.99992 9.41594C7.21992 9.41594 6.58659 8.7826 6.58659 8.0026C6.58659 7.2226 7.21992 6.58927 7.99992 6.58927ZM7.99992 2.26927C11.1599 2.26927 13.7333 4.8426 13.7333 8.0026C13.7333 11.1626 11.1599 13.7359 7.99992 13.7359C4.83992 13.7359 2.26659 11.1626 2.26659 8.0026C2.26659 4.8426 4.83992 2.26927 7.99992 2.26927ZM7.99992 1.33594C4.31992 1.33594 1.33325 4.3226 1.33325 8.0026C1.33325 11.6826 4.31992 14.6693 7.99992 14.6693C11.6799 14.6693 14.6666 11.6826 14.6666 8.0026C14.6666 4.3226 11.6799 1.33594 7.99992 1.33594ZM7.99992 4.86927C9.72658 4.86927 11.1333 6.27594 11.1333 8.0026C11.1333 9.72927 9.72658 11.1359 7.99992 11.1359C6.27325 11.1359 4.86659 9.72927 4.86659 8.0026C4.86659 6.27594 6.27325 4.86927 7.99992 4.86927ZM7.99992 3.93594C5.75325 3.93594 3.93325 5.75594 3.93325 8.0026C3.93325 10.2493 5.75325 12.0693 7.99992 12.0693C10.2466 12.0693 12.0666 10.2493 12.0666 8.0026C12.0666 5.75594 10.2466 3.93594 7.99992 3.93594Z" fill="#303030"/>
</svg>
