<svg width="16" height="16" viewBox="0 0 16 16" fill="none" xmlns="http://www.w3.org/2000/svg">
<path d="M9.86002 12.8143L7.52002 11.0876L7.27336 10.9076H5.04669L5.05336 6.89427L4.12002 5.96094L4.10669 11.8409H6.96669L10.7934 14.6609V12.6343L9.86002 11.7009V12.8143Z" fill="#303030"/>
<path d="M14.1134 13.2847L10.8001 9.97135V1.30469L6.98011 4.12469H4.95345L2.19345 1.37135L1.53345 2.03135L4.12011 4.61802V4.64469L5.05345 5.57802V5.55135L9.86678 10.3647V10.3914L10.8001 11.3247V11.298L13.4534 13.9514L14.1134 13.2914V13.2847ZM5.88678 5.05802H7.28678L7.53345 4.87135L9.87345 3.15135V9.04469L5.88678 5.05802Z" fill="#303030"/>
</svg>
