<svg width="16" height="16" viewBox="0 0 16 16" fill="none" xmlns="http://www.w3.org/2000/svg">
<path d="M14.6667 11.0677C14.6667 10.201 14.3334 9.40104 13.7334 8.80104C13.1334 8.20104 12.3334 7.86771 11.4667 7.86771C11.1334 7.86771 10.7334 7.86771 10.4 8.06771L9.06668 5.66771C9.26668 5.46771 9.33335 5.20104 9.33335 4.93438C9.33335 4.26771 8.80002 3.73438 8.13335 3.73438C7.46668 3.73438 6.93335 4.26771 6.93335 4.93438C6.93335 5.60104 7.46668 6.13438 8.13335 6.13438C8.13335 6.13438 8.13335 6.13438 8.20002 6.13438L10 9.33437L10.4 9.13438C10.7334 9.00104 11.0667 8.86771 11.4 8.86771C12 8.86771 12.5333 9.13438 13 9.53438C13.4 9.93438 13.6667 10.5344 13.6667 11.1344C13.6667 12.3344 12.6667 13.3344 11.4 13.3344V14.2677C13.1334 14.2677 14.5333 12.8677 14.6 11.1344L14.6667 11.0677Z" fill="#303030"/>
<path d="M5.13334 11.9344C5.66667 11.6011 5.86667 10.8678 5.53334 10.3344C5.53334 10.3344 5.53334 10.3344 5.53334 10.2678L7.40001 7.06776L7.00001 6.8011C6.66667 6.6011 6.46667 6.33443 6.26667 6.06776C5.66667 5.0011 6.00001 3.6011 7.06667 3.0011C7.60001 2.73443 8.20001 2.6011 8.73334 2.8011C9.33334 2.93443 9.80001 3.33443 10.0667 3.86776L10.8667 3.4011C10.4667 2.66776 9.73334 2.13443 8.93334 1.93443C8.13334 1.73443 7.26667 1.8011 6.53334 2.26776C5.00001 3.13443 4.53334 5.06776 5.40001 6.6011C5.60001 6.93443 5.80001 7.2011 6.06667 7.4011L4.66667 9.8011C4.40001 9.8011 4.13334 9.8011 3.86667 9.93443C3.33334 10.2678 3.13334 11.0011 3.46667 11.5344C3.80001 12.0678 4.53334 12.2678 5.06667 11.9344H5.13334Z" fill="#303030"/>
<path d="M12.6001 11.6688C12.9334 11.0688 12.7334 10.4021 12.1334 10.0688C11.5334 9.73542 10.8668 9.93542 10.5334 10.5354C10.5334 10.5354 10.5334 10.5354 10.5334 10.6021H6.86675V11.0688C6.86675 11.4021 6.73342 11.8021 6.60008 12.0688C6.33342 12.6021 5.80008 12.9354 5.26675 13.1354C4.66675 13.2688 4.06675 13.2021 3.60008 12.9354C3.06675 12.6688 2.73342 12.1354 2.53342 11.6021C2.33342 11.0687 2.46675 10.4021 2.73342 9.93542L1.93342 9.46875C1.06675 11.0021 1.60008 12.9354 3.13342 13.8021C3.60008 14.0688 4.13342 14.2021 4.66675 14.2021C5.20008 14.2021 5.26675 14.2021 5.53342 14.0688C6.33342 13.8688 7.00008 13.3354 7.46675 12.6021C7.66675 12.2687 7.73342 11.9354 7.80008 11.6021H10.6001C10.6668 11.8687 10.8668 12.0687 11.1334 12.2021C11.7334 12.5354 12.4001 12.3354 12.7334 11.7354L12.6001 11.6688Z" fill="#303030"/>
</svg>
