<svg width="16" height="16" viewBox="0 0 16 16" fill="none" xmlns="http://www.w3.org/2000/svg">
<path d="M7.99342 2.77344C4.32675 2.77344 1.34009 5.7601 1.34009 9.43344C1.34009 10.4601 1.57342 11.4334 1.99342 12.3001C2.14675 12.6268 2.32675 12.9401 2.54009 13.2334H13.4534C13.6668 12.9401 13.8468 12.6268 14.0001 12.3001C14.4201 11.4334 14.6534 10.4601 14.6534 9.43344C14.6534 5.7601 11.6668 2.77344 7.99342 2.77344ZM12.9534 12.3068H3.05342C2.63342 11.5868 2.38009 10.7734 2.31342 9.90677H3.72675V8.97344H2.30675C2.40675 7.75344 2.88675 6.6401 3.63342 5.75344L4.54675 6.66677L5.20675 6.00677L4.29342 5.09344C5.18675 4.33344 6.31342 3.8401 7.55342 3.7401V5.15344H8.48675V3.7401C9.70675 3.8401 10.8201 4.32677 11.7068 5.0801L10.7801 6.00677L11.4401 6.66677L12.3668 5.7401C13.1201 6.62677 13.6068 7.74677 13.7068 8.97344H12.2934V9.90677H13.7001C13.6268 10.7734 13.3734 11.5868 12.9601 12.3068H12.9534ZM10.4401 7.69344L9.24009 8.87344C9.35342 9.0801 9.42675 9.31344 9.42675 9.5601C9.42675 10.3468 8.78675 10.9868 8.00009 10.9868C7.21342 10.9868 6.57342 10.3468 6.57342 9.5601C6.57342 8.77344 7.21342 8.13344 8.00009 8.13344C8.19342 8.13344 8.38009 8.17344 8.55342 8.24677L9.79342 7.03344L10.4468 7.7001L10.4401 7.69344Z" fill="#303030"/>
</svg>
