<svg width="16" height="16" viewBox="0 0 16 16" fill="none" xmlns="http://www.w3.org/2000/svg">
<path d="M8.0266 6.07042C8.53994 6.07042 9.0266 6.27042 9.39327 6.63708C9.75994 7.00375 9.95994 7.48375 9.95994 8.00375C9.95994 8.52375 9.75994 9.00375 9.39327 9.37042C9.0266 9.73708 8.5466 9.93708 8.0266 9.93708C7.5066 9.93708 7.0266 9.73708 6.65994 9.37042C6.29327 9.00375 6.09327 8.52375 6.09327 8.00375C6.09327 7.48375 6.29327 7.00375 6.65994 6.63708C7.0266 6.27042 7.5066 6.07042 8.0266 6.07042ZM8.0266 5.13708C7.29327 5.13708 6.55994 5.41708 5.99994 5.97708C4.87994 7.09708 4.87994 8.91042 5.99994 10.0238C6.55994 10.5838 7.29327 10.8637 8.0266 10.8637C8.75994 10.8637 9.49327 10.5838 10.0533 10.0238C11.1733 8.90375 11.1733 7.09042 10.0533 5.97708C9.49327 5.41708 8.75994 5.13708 8.0266 5.13708ZM14.6466 7.53708H12.5733V8.47042H14.6466V7.53708ZM3.4266 7.52375H1.35327V8.45708H3.4266V7.52375ZM8.4666 1.34375H7.53327V3.41708H8.4666V1.34375ZM5.0866 4.44375L3.61994 2.97708L2.95994 3.63708L4.4266 5.10375L5.0866 4.44375ZM13.0333 3.62375L12.3733 2.96375L10.9066 4.43042L11.5666 5.09042L13.0333 3.62375ZM8.4666 12.5771H7.53327V14.6504H8.4666V12.5771ZM5.09327 11.5638L4.43327 10.9038L2.9666 12.3704L3.6266 13.0304L5.09327 11.5638ZM13.0266 12.3771L11.5599 10.9104L10.8999 11.5704L12.3666 13.0371L13.0266 12.3771Z" fill="#303030"/>
</svg>
