<svg width="16" height="16" viewBox="0 0 16 16" fill="none" xmlns="http://www.w3.org/2000/svg">
<path d="M14.5533 4.68031L11.2533 1.32031L7.87329 4.64698L8.52662 5.31365L10.7666 3.10698L10.8133 14.647H11.7466L11.7 3.11365L13.8866 5.33365L14.5533 4.68031Z" fill="#303030"/>
<path d="M4.20002 4.05469C4.20002 4.17469 4.19335 4.26135 4.17335 4.32135C4.15335 4.37469 4.12668 4.41469 4.08668 4.44135C4.04668 4.46135 3.98002 4.47469 3.90002 4.47469H3.43335V5.31469H4.20668V7.86802H5.22002V4.05469H4.20668H4.20002Z" fill="#303030"/>
<path d="M4.42666 12.9403L4.73333 12.6003C4.95333 12.3536 5.12 12.147 5.25333 11.9803C5.38 11.8136 5.48666 11.6336 5.57333 11.447C5.66 11.2603 5.7 11.0603 5.7 10.8603C5.7 10.527 5.58666 10.2736 5.35333 10.0936C5.12 9.91365 4.8 9.82031 4.39333 9.82031C3.94 9.82031 3.58 9.93365 3.31333 10.167C3.04666 10.4003 2.91333 10.7336 2.91333 11.1803H3.8C3.8 10.9603 3.85333 10.7936 3.94666 10.687C4.04 10.5803 4.17333 10.527 4.34666 10.527C4.49333 10.527 4.60666 10.5603 4.68 10.6336C4.75333 10.707 4.78666 10.8136 4.78666 10.9536C4.78666 11.1003 4.74 11.2603 4.64 11.4336C4.54 11.607 4.42666 11.767 4.29333 11.927C4.16 12.087 4 12.2603 3.80666 12.4603L3.03333 13.2603V13.7203H5.79333V12.9536H4.42666V12.9403Z" fill="#303030"/>
</svg>
