<svg width="16" height="16" viewBox="0 0 16 16" fill="none" xmlns="http://www.w3.org/2000/svg">
<path d="M7.99995 14.6704H6.26661L5.97995 12.9437C5.97995 12.9437 5.93995 12.9304 5.91995 12.9171L4.49328 13.9371L2.05328 11.4971L3.07328 10.0771C3.07328 10.0771 3.05995 10.0371 3.04661 10.0171L1.31995 9.73042V6.28375L3.04661 5.99708C3.04661 5.99708 3.05995 5.95708 3.07328 5.93708L2.05328 4.51708L4.49328 2.07708L5.91995 3.09708C5.91995 3.09708 5.95995 3.08375 5.97995 3.07042L6.26661 1.34375H9.71328L9.99995 3.07042C9.99995 3.07042 10.0399 3.08375 10.0599 3.09708L11.4799 2.07708L13.9199 4.51708L12.8999 5.94375C12.8999 5.94375 12.9133 5.98375 12.9266 6.00375L14.6466 6.29042L14.6599 7.99042H13.7266L13.7199 7.08375L12.2333 6.83708L12.1399 6.57708C12.0866 6.41042 12.0199 6.25708 11.9399 6.10375L11.8199 5.85708L12.6933 4.63042L11.3733 3.31042L10.1466 4.18375L9.89328 4.06375C9.73995 3.99042 9.57995 3.92375 9.41995 3.86375L9.15995 3.77042L8.91328 2.28375H7.04661L6.79995 3.77042L6.53995 3.86375C6.37995 3.91708 6.21995 3.98375 6.06661 4.06375L5.81328 4.18375L4.58661 3.31042L3.26661 4.63042L4.13995 5.85708L4.01995 6.11042C3.94661 6.26375 3.87995 6.42375 3.81995 6.58375L3.72661 6.84375L2.23995 7.09042V8.95708L3.72661 9.20375L3.81995 9.46375C3.87328 9.63042 3.93995 9.78375 4.01995 9.93708L4.13995 10.1904L3.26661 11.4171L4.58661 12.7371L5.81328 11.8637L6.05995 11.9837C6.21328 12.0571 6.37328 12.1237 6.53328 12.1837L6.79328 12.2771L7.03995 13.7637H7.98661V14.6971L7.99995 14.6704Z" fill="#303030"/>
<path d="M8.0066 8.0149V9.42823C7.2266 9.42823 6.59326 8.78823 6.59326 8.0149C6.59326 7.24156 7.23326 6.60156 8.0066 6.60156C8.77993 6.60156 9.41993 7.24156 9.41993 8.0149H8.0066Z" fill="#303030"/>
<path d="M14.6399 14.6899L12.6266 14.5632L8.93994 10.8766L10.8399 8.97656L14.5466 12.6832L14.6399 14.6966V14.6899ZM13.0399 13.6566L13.6599 13.6966L13.6333 13.0832L10.8399 10.2899L10.2599 10.8699L13.0399 13.6499V13.6566Z" fill="#303030"/>
</svg>
