<svg width="16" height="16" viewBox="0 0 16 16" fill="none" xmlns="http://www.w3.org/2000/svg">
<path d="M9.91337 7.52146H10.8467V8.45479H9.91337V7.52146ZM7.53337 7.52146H8.46671V8.45479H7.53337V7.52146ZM5.15337 7.52146H6.08671V8.45479H5.15337V7.52146ZM8.00004 2.26146C11.16 2.26146 13.7334 4.83479 13.7334 7.99479C13.7334 11.1548 11.16 13.7281 8.00004 13.7281C7.28004 13.7281 6.57337 13.5881 5.89337 13.3215L5.67337 13.2348L5.44004 13.2615L2.38671 13.6081L2.72671 10.5615L2.75337 10.3281L2.66671 10.1081C2.39337 9.42813 2.26004 8.71479 2.26004 7.99479C2.26671 4.83479 4.84004 2.26146 8.00004 2.26146ZM8.00004 1.32812C4.32004 1.32812 1.33337 4.30813 1.33337 7.99479C1.33337 8.86146 1.50671 9.68813 1.80671 10.4548L1.33337 14.6681L5.54671 14.1948C6.30671 14.4948 7.13337 14.6681 8.00004 14.6681C11.68 14.6681 14.6667 11.6815 14.6667 8.00146C14.6667 4.32146 11.68 1.32812 8.00004 1.32812Z" fill="#303030"/>
</svg>
