<svg width="16" height="16" viewBox="0 0 16 16" fill="none" xmlns="http://www.w3.org/2000/svg">
<path d="M1.33331 1.33594V14.6559H14.6533V1.33594H1.33331ZM8.97998 13.2293H7.00665L6.01998 11.4893H4.04665L3.05998 9.7426L4.04665 7.99594L3.05998 6.24927L4.04665 4.5026H6.01998L5.03331 6.24927L6.01998 7.99594H4.04665L5.03331 9.7426H7.00665L6.02665 11.4826H7.99331L8.97998 9.73594L9.95998 11.4826L8.97998 13.2293ZM12.92 9.73594L11.94 11.4826H9.96665L10.9533 9.73594L9.96665 7.98927H11.9266L10.9533 6.24927H8.97998L9.95998 4.5026H7.99331L7.00665 6.24927L6.02665 4.5026L7.00665 2.75594H8.97998L9.96665 4.5026H11.9333L12.92 6.24927L11.94 7.98927L12.92 9.73594ZM11.9333 7.99594H11.92L11.9266 7.98927H11.9333V7.99594Z" fill="#303030"/>
</svg>
