<svg width="16" height="16" viewBox="0 0 16 16" fill="none" xmlns="http://www.w3.org/2000/svg">
<path d="M2.26659 8.3375C2.26659 7.1375 2.99992 6.1375 4.06659 5.67083L3.33325 4.9375C2.13325 5.60417 1.33325 6.80417 1.33325 8.27083C1.33325 10.3375 2.99992 12.0708 5.13325 12.0708H6.59992V11.1375H5.13325C3.53325 11.1375 2.26659 9.87083 2.26659 8.27083V8.3375Z" fill="#303030"/>
<path d="M14.6667 8.33437C14.6667 6.26771 13 4.53438 10.8666 4.53438H9.39998V5.46771H10.8666C12.4667 5.46771 13.7333 6.73438 13.7333 8.33437C13.7333 9.93437 13 10.5344 12 10.9344L9.86665 8.80104H10.9333V7.86771H8.93332L6.53332 5.46771H6.59998V4.53438H5.59998L2.73332 1.73438L2.06665 2.40104L4.33332 4.66771L5.19998 5.53438L7.59998 7.93437L8.53332 8.86771L10.9333 11.2677L11.8 12.1344L14.0667 14.401L14.7333 13.7344L12.7333 11.7344C13.9333 11.0677 14.7333 9.86771 14.7333 8.40104L14.6667 8.33437Z" fill="#303030"/>
<path d="M5.1333 7.86719V8.80052H7.1333L6.19997 7.86719H5.1333Z" fill="#303030"/>
</svg>
