<svg width="16" height="16" viewBox="0 0 16 16" fill="none" xmlns="http://www.w3.org/2000/svg">
<path d="M1.31997 5.85937H1.30664V11.086C1.30664 12.006 2.05331 12.7527 2.97331 12.7527H14.66V8.01271H9.01997C9.53997 7.47271 9.85331 6.81271 9.85331 6.09937C9.85331 4.31271 7.93331 2.85938 5.57997 2.85938C3.22664 2.85938 1.47997 4.18604 1.31997 5.85937ZM13.72 11.8127H12.2733V10.3727H11.34V11.8127H9.89331V10.8394H8.95997V11.8127H7.51331V10.3727H6.57997V11.8127H5.13331V10.8394H4.19997V11.8127H2.97331C2.56664 11.8127 2.23997 11.486 2.23997 11.0794V8.10604C3.02664 8.85271 4.22664 9.33271 5.57997 9.33271C6.32664 9.33271 7.02664 9.18604 7.63331 8.93271V8.94604H13.72V11.8194V11.8127ZM5.57997 3.78604C7.41997 3.78604 8.91997 4.81938 8.91997 6.09271C8.91997 7.36604 7.41997 8.39937 5.57997 8.39937C3.73997 8.39937 2.23997 7.36604 2.23997 6.09271C2.23997 4.81938 3.73997 3.78604 5.57997 3.78604Z" fill="#303030"/>
<path d="M5.57996 7.67563C6.69996 7.67563 7.57329 6.98229 7.57329 6.09563C7.57329 5.20896 6.69329 4.51562 5.57996 4.51562C4.46662 4.51562 3.57996 5.20896 3.57996 6.09563C3.57996 6.98229 4.45996 7.67563 5.57996 7.67563ZM5.57996 5.44896C6.20662 5.44896 6.63996 5.78896 6.63996 6.09563C6.63996 6.40229 6.20662 6.74229 5.57996 6.74229C4.95329 6.74229 4.51996 6.40229 4.51996 6.09563C4.51996 5.78896 4.95996 5.44896 5.57996 5.44896Z" fill="#303030"/>
</svg>
