<svg width="16" height="16" viewBox="0 0 16 16" fill="none" xmlns="http://www.w3.org/2000/svg">
<path d="M10.1333 8.82146L14.0733 5.96146H9.19999L7.69999 1.32812L6.19333 5.96146H1.32666L5.25999 8.82146L3.75999 13.4548L7.69999 10.5881L8.91999 11.4748V10.3481L7.69999 9.46146L5.49333 11.0681L6.33333 8.47479L4.12666 6.86813H6.85333L7.69999 4.27479L8.53999 6.86813H11.2667L9.05999 8.47479L9.17333 8.82146H10.1333ZM12.7067 9.87479H14.6733V11.8415H12.7067V9.87479ZM9.86666 9.87479H11.8333V11.8415H9.86666V9.87479ZM12.7067 12.7081H14.6733V14.6748H12.7067V12.7081ZM9.85333 12.7081H11.82V14.6748H9.85333V12.7081Z" fill="#303030"/>
</svg>
