<svg width="16" height="16" viewBox="0 0 16 16" fill="none" xmlns="http://www.w3.org/2000/svg">
<path d="M1.40002 14.579L14.7867 14.6123L8.06002 1.26562L1.40002 14.579ZM13.2667 13.679L2.90669 13.6523L8.06002 3.34562L13.2667 13.679Z" fill="#303030"/>
<path d="M5.48669 12.7444H6.42003C6.42003 11.871 7.12669 11.1644 8.00003 11.1644C8.87336 11.1644 9.58003 11.871 9.58003 12.7444H10.5134C10.5134 11.771 9.95336 10.931 9.14003 10.5177C9.38003 10.251 9.52669 9.89771 9.52669 9.51104C9.52669 8.66438 8.84003 7.98438 8.00003 7.98438C7.16003 7.98438 6.47336 8.67104 6.47336 9.51104C6.47336 9.89771 6.62003 10.251 6.86003 10.5177C6.04669 10.9377 5.48669 11.771 5.48669 12.7444ZM8.00003 8.91104C8.32669 8.91104 8.59336 9.17771 8.59336 9.50438C8.59336 9.83104 8.32669 10.0977 8.00003 10.0977C7.67336 10.0977 7.40669 9.83104 7.40669 9.50438C7.40669 9.17771 7.67336 8.91104 8.00003 8.91104Z" fill="#303030"/>
</svg>
