<svg width="16" height="16" viewBox="0 0 16 16" fill="none" xmlns="http://www.w3.org/2000/svg">
<path d="M8.00004 1.32812C4.32004 1.32812 1.33337 4.31479 1.33337 7.99479C1.33337 11.6748 4.32004 14.6615 8.00004 14.6615C11.68 14.6615 14.6667 11.6748 14.6667 7.99479C14.6667 4.31479 11.6867 1.32812 8.00004 1.32812ZM8.00004 2.26812C9.41337 2.26812 10.7 2.78146 11.7 3.62812L3.62671 11.7015C2.78004 10.7015 2.26671 9.40812 2.26671 8.00146C2.26671 4.83479 4.84004 2.26812 8.00004 2.26812ZM8.00004 13.7348C6.58671 13.7348 5.29337 13.2148 4.28671 12.3615L12.36 4.28812C13.2134 5.28812 13.7334 6.58146 13.7334 8.00146C13.7334 11.1615 11.16 13.7348 8.00004 13.7348Z" fill="#303030"/>
</svg>
