<svg width="16" height="16" viewBox="0 0 16 16" fill="none" xmlns="http://www.w3.org/2000/svg">
<path d="M12.76 5.1226C13.8 5.1226 14.6534 4.27594 14.6534 3.22927C14.6534 2.1826 13.8067 1.33594 12.76 1.33594C11.7134 1.33594 10.8667 2.1826 10.8667 3.22927C10.8667 3.2626 10.8734 3.28927 10.8734 3.3226L9.46004 3.9626C9.11338 3.53594 8.58671 3.25594 8.00005 3.25594C6.96005 3.25594 6.10671 4.1026 6.10671 5.14927C6.10671 5.71594 6.36005 6.2226 6.76005 6.56927L5.70005 8.6226C5.51338 8.5626 5.31338 8.51594 5.10671 8.51594C4.06671 8.51594 3.21338 9.3626 3.21338 10.4093C3.21338 11.4559 4.06005 12.3026 5.10671 12.3026C6.15338 12.3026 7.00005 11.4559 7.00005 10.4093C7.00005 9.91594 6.80671 9.4626 6.49338 9.12927L7.59338 6.99594C7.72671 7.0226 7.86005 7.0426 8.00671 7.0426C9.04671 7.0426 9.90005 6.19594 9.90005 5.14927C9.90005 5.03594 9.88671 4.9226 9.86671 4.80927L11.16 4.2226C11.4934 4.7626 12.0867 5.1226 12.7667 5.1226H12.76ZM5.11338 11.3626C4.58671 11.3626 4.15338 10.9359 4.15338 10.4026C4.15338 9.86927 4.58005 9.4426 5.11338 9.4426C5.64671 9.4426 6.07338 9.86927 6.07338 10.4026C6.07338 10.9359 5.64671 11.3626 5.11338 11.3626ZM8.00671 6.10927C7.48005 6.10927 7.04671 5.6826 7.04671 5.14927C7.04671 4.61594 7.47338 4.18927 8.00671 4.18927C8.54005 4.18927 8.96671 4.61594 8.96671 5.14927C8.96671 5.6826 8.54005 6.10927 8.00671 6.10927ZM12.76 2.26927C13.2867 2.26927 13.72 2.69594 13.72 3.22927C13.72 3.7626 13.2934 4.18927 12.76 4.18927C12.2267 4.18927 11.8 3.7626 11.8 3.22927C11.8 2.69594 12.2267 2.26927 12.76 2.26927Z" fill="#303030"/>
<path d="M2.27336 1.33594H1.34003V14.6559H14.6734V13.7226H2.27336V1.33594Z" fill="#303030"/>
</svg>
