<svg width="16" height="16" viewBox="0 0 16 16" fill="none" xmlns="http://www.w3.org/2000/svg">
<path d="M4.93336 10.9569L4.27336 10.2969L2.80003 11.7635L2.23336 11.1902L1.57336 11.8502L2.80003 13.0835L4.93336 10.9569Z" fill="#303030"/>
<path d="M1.82007 5.59896H4.6534V2.76562H1.82007V5.59896ZM2.7534 3.69896H3.72007V4.66562H2.7534V3.69896Z" fill="#303030"/>
<path d="M1.82007 9.41813H4.66007V6.57812H1.82007V9.41813ZM2.7534 7.51146H3.72674V8.48479H2.7534V7.51146Z" fill="#303030"/>
<path d="M14.6534 2.76562H6.1134V5.61229H14.6534V2.76562ZM13.7201 4.67896H7.04674V3.69896H13.7201V4.67896Z" fill="#303030"/>
<path d="M14.6534 6.57812H6.1134V9.42479H14.6534V6.57812ZM13.7201 8.49146H7.04674V7.51146H13.7201V8.49146Z" fill="#303030"/>
<path d="M6.1134 13.1982H14.6867V10.3516H6.1134V13.1982ZM7.04674 11.2849H13.7534V12.2649H7.04674V11.2849Z" fill="#303030"/>
</svg>
