<svg width="16" height="16" viewBox="0 0 16 16" fill="none" xmlns="http://www.w3.org/2000/svg">
<path d="M4.51326 4.47958L5.17326 5.13958L10.8599 10.8263L11.5199 11.4862L14.0066 13.9729L14.6666 13.3129L12.1199 10.7663C12.6533 9.97958 12.9599 9.01958 12.9599 8.00625C12.9599 5.26625 10.7399 3.04625 7.99993 3.04625C6.97993 3.04625 6.0266 3.35958 5.23993 3.89292L2.75326 1.40625L2.09326 2.06625L4.51993 4.49292L4.51326 4.47958ZM7.99993 3.97292C10.2199 3.97292 12.0266 5.77958 12.0266 7.99958C12.0266 8.76625 11.8066 9.47292 11.4333 10.0796L5.91993 4.56625C6.5266 4.19292 7.23993 3.97292 7.99993 3.97292Z" fill="#303030"/>
<path d="M3.90671 5.19531C3.36004 5.99531 3.04004 6.96198 3.04004 8.00198C3.04004 10.742 5.26004 12.962 8.00004 12.962C9.04671 12.962 10.0134 12.642 10.8067 12.0953L10.1267 11.4153C9.50671 11.802 8.78004 12.0286 8.00004 12.0286C5.78004 12.0286 3.97337 10.222 3.97337 8.00198C3.97337 7.21531 4.20004 6.48865 4.58671 5.87531L3.90671 5.19531Z" fill="#303030"/>
</svg>
