<svg width="16" height="16" viewBox="0 0 16 16" fill="none" xmlns="http://www.w3.org/2000/svg">
<path d="M5.40004 14.6339H8.66671V9.30052L12.7334 3.90052V1.36719H1.33337V3.90052L5.40004 9.30052V14.6339ZM2.26671 3.56719V2.30052H11.8V3.56719L7.73337 8.96719V13.7005H6.33337V8.96719L2.26671 3.56719ZM12 9.90052H9.93337V11.9672H12V9.90052ZM11.3334 11.3005H10.6V10.5672H11.3334V11.3005ZM12.6 9.90052H14.6667V11.9672H12.6V9.90052ZM9.86671 12.5672H11.9334V14.6339H9.86671V12.5672ZM12.6 14.6339H14.6667V12.5672H12.6V14.6339ZM13.2667 13.2339H14V13.9672H13.2667V13.2339Z" fill="#303030"/>
</svg>
