<svg width="16" height="16" viewBox="0 0 16 16" fill="none" xmlns="http://www.w3.org/2000/svg">
<path d="M6.10004 4.74375C6.45337 4.38375 6.67337 3.89042 6.67337 3.34375C6.67337 2.23708 5.77337 1.34375 4.67337 1.34375C3.57337 1.34375 2.67337 2.24375 2.67337 3.34375C2.67337 3.89042 2.89337 4.38375 3.24671 4.74375C2.12004 5.27042 1.33337 6.39708 1.33337 7.71042H2.26671C2.26671 6.41042 3.34671 5.35042 4.67337 5.35042C6.00004 5.35042 7.08004 6.41042 7.08004 7.71042H8.01337C8.01337 6.39708 7.22671 5.27042 6.10004 4.74375ZM4.67337 2.27708C5.26004 2.27708 5.74004 2.75708 5.74004 3.34375C5.74004 3.93042 5.26004 4.41042 4.67337 4.41042C4.08671 4.41042 3.60671 3.93042 3.60671 3.34375C3.60671 2.75708 4.08671 2.27708 4.67337 2.27708Z" fill="#303030"/>
<path d="M6.10004 11.6969C6.45337 11.3369 6.67337 10.8435 6.67337 10.2969C6.67337 9.19021 5.77337 8.29688 4.67337 8.29688C3.57337 8.29688 2.67337 9.19688 2.67337 10.2969C2.67337 10.8435 2.89337 11.3369 3.24671 11.6969C2.12004 12.2235 1.33337 13.3502 1.33337 14.6635H2.26671C2.26671 13.3635 3.34671 12.3035 4.67337 12.3035C6.00004 12.3035 7.08004 13.3635 7.08004 14.6635H8.01337C8.01337 13.3502 7.22671 12.2235 6.10004 11.6969ZM4.67337 9.22354C5.26004 9.22354 5.74004 9.70354 5.74004 10.2902C5.74004 10.8769 5.26004 11.3569 4.67337 11.3569C4.08671 11.3569 3.60671 10.8769 3.60671 10.2902C3.60671 9.70354 4.08671 9.22354 4.67337 9.22354Z" fill="#303030"/>
<path d="M14.6867 12.2786V11.3453H14.1667C14.1067 11.0386 13.9867 10.7453 13.8067 10.4786L14.1734 10.112L13.5134 9.45198L13.1467 9.81865C12.8801 9.64531 12.5867 9.52531 12.2867 9.46531V8.94531H11.3534V9.47198C11.0534 9.53198 10.7667 9.65198 10.5001 9.83198L10.1334 9.46531L9.47339 10.1253L9.84006 10.492C9.66672 10.752 9.55339 11.0453 9.49339 11.3386H8.97339V12.272H9.49339C9.55339 12.5653 9.66672 12.852 9.84006 13.112L9.47339 13.4786L10.1334 14.1386L10.5001 13.772C10.7601 13.952 11.0534 14.0653 11.3534 14.132V14.6586H12.2867V14.1453C12.5867 14.0853 12.8801 13.972 13.1467 13.7986L13.5134 14.1653L14.1734 13.5053L13.8067 13.1386C13.9867 12.872 14.1067 12.5786 14.1667 12.2786H14.6867ZM10.8067 10.7786C11.0801 10.5053 11.4467 10.352 11.8334 10.352C12.2201 10.352 12.5867 10.5053 12.8601 10.7786C13.4267 11.3453 13.4267 12.2653 12.8601 12.832C12.3134 13.3786 11.3601 13.3786 10.8067 12.832C10.2401 12.2653 10.2401 11.3453 10.8067 10.7786Z" fill="#303030"/>
</svg>
