<svg width="16" height="16" viewBox="0 0 16 16" fill="none" xmlns="http://www.w3.org/2000/svg">
<path d="M3.39001 1.32812H7.47668C10.5967 1.32812 12.1633 2.52146 12.1633 4.70812C12.1633 6.08812 11.53 7.30146 9.43668 7.71479C11.7167 8.08813 12.61 9.34146 12.61 10.9815C12.61 13.3548 11.0233 14.6748 7.92335 14.6748H3.39001V1.32812ZM7.39001 7.16813C9.81668 7.16813 10.73 6.36812 10.73 4.85479C10.73 3.34146 9.81668 2.57479 7.39001 2.57479H4.87001V7.16813H7.39001ZM7.83668 13.4215C10.19 13.4215 11.1567 12.5081 11.1567 10.8815C11.1567 9.25479 10.2233 8.41479 7.83668 8.41479H4.87001V13.4148H7.83668V13.4215Z" fill="#303030"/>
</svg>
