<svg width="16" height="16" viewBox="0 0 16 16" fill="none" xmlns="http://www.w3.org/2000/svg">
<path d="M9.92343 14.1058C9.92343 13.8725 9.7501 13.6792 9.52343 13.6325H9.90343V12.6992L7.1901 12.6792L7.1101 12.2125H10.0834L10.7768 8.67917H6.4701L6.3101 7.94583H5.14343V8.87917H5.55676L5.59676 9.04583L6.15676 12.2058H6.1701L6.40343 13.5992H7.03677C6.7701 13.6125 6.55676 13.8258 6.55676 14.0925C6.55676 14.3592 6.78343 14.5858 7.05676 14.5858C7.3301 14.5858 7.55676 14.3658 7.55676 14.0925C7.55676 13.8192 7.34343 13.6192 7.08343 13.6058L9.32343 13.6192C9.09676 13.6658 8.92343 13.8525 8.92343 14.0925C8.92343 14.3658 9.1501 14.5858 9.42343 14.5858C9.69676 14.5858 9.92343 14.3658 9.92343 14.0925V14.1058ZM9.6501 9.61917L9.32343 11.2858H6.94343L6.6501 9.61917H9.6501ZM2.28343 8.35917L7.98343 2.6325L13.7234 8.2925V14.6525H14.6501V7.89917L7.97676 1.3125L1.3501 7.96583V14.6858H2.28343V8.3525V8.35917Z" fill="#303030"/>
</svg>
