<svg width="16" height="16" viewBox="0 0 16 16" fill="none" xmlns="http://www.w3.org/2000/svg">
<path d="M11.5934 5.80365C12.3467 5.80365 12.96 5.19031 12.96 4.43698C12.96 3.68365 12.3467 3.07031 11.5934 3.07031C10.84 3.07031 10.2267 3.68365 10.2267 4.43698C10.2267 5.19031 10.84 5.80365 11.5934 5.80365Z" fill="#303030"/>
<path d="M14.6467 8.0001H13.7134V12.2801H2.28673V3.70677H8.02673V2.77344H1.35339V13.2134H14.6467V8.0001Z" fill="#303030"/>
<path d="M11.5933 7.53042C13.3 7.53042 14.6867 6.14375 14.6867 4.43708C14.6867 2.73042 13.3 1.34375 11.5933 1.34375C9.88667 1.34375 8.5 2.73042 8.5 4.43708C8.5 6.14375 9.88667 7.53042 11.5933 7.53042ZM11.5933 2.27708C12.7867 2.27708 13.7533 3.25042 13.7533 4.43708C13.7533 5.62375 12.78 6.59708 11.5933 6.59708C10.4067 6.59708 9.43333 5.63042 9.43333 4.43708C9.43333 3.24375 10.4067 2.27708 11.5933 2.27708Z" fill="#303030"/>
<path d="M5.62672 5.59375L3.76672 7.82708L4.48006 8.42708L5.54672 7.15375L7.99339 10.8271L9.78672 8.70042L9.07339 8.10042L8.08006 9.27375L5.62672 5.59375Z" fill="#303030"/>
</svg>
