<svg width="16" height="16" viewBox="0 0 16 16" fill="none" xmlns="http://www.w3.org/2000/svg">
<path d="M10.9399 11.7674C10.9399 12.2407 11.3266 12.6207 11.8066 12.6207C12.2866 12.6207 12.6733 12.2407 12.6733 11.7674C12.6733 11.2941 12.2866 10.9141 11.8066 10.9141C11.3266 10.9141 10.9399 11.2941 10.9399 11.7674Z" fill="#303030"/>
<path d="M8.97314 11.7802C9.52648 13.1335 10.5865 14.0402 11.7998 14.0402C13.0131 14.0402 14.0598 13.1535 14.6198 11.8202C14.0665 10.4602 13.0065 9.54688 11.7865 9.54688C10.5665 9.54688 9.53981 10.4335 8.97314 11.7735V11.7802ZM13.5931 11.8135C13.1465 12.6202 12.4865 13.1069 11.8065 13.1069C11.1265 13.1069 10.4531 12.6069 10.0131 11.7869C10.4531 10.9735 11.1131 10.4869 11.7931 10.4869C12.4731 10.4869 13.1531 10.9869 13.5998 11.8202L13.5931 11.8135Z" fill="#303030"/>
<path d="M14.6599 2.76333L1.33325 2.75V13.23H8.01325V12.2967H2.26659V6.08333H13.7266V8.01667H14.6599V2.77V2.76333ZM2.26659 5.15V3.69H13.7266V5.15H2.26659Z" fill="#303030"/>
</svg>
