<svg width="16" height="16" viewBox="0 0 16 16" fill="none" xmlns="http://www.w3.org/2000/svg">
<path d="M13.7199 9.44698H10.6332L8.48655 5.56031C9.05321 5.36031 9.46655 4.82698 9.46655 4.18698C9.46655 3.54698 9.04655 3.00698 8.47321 2.80698V1.32031H7.53321V2.80031C6.95988 2.99365 6.53988 3.53365 6.53988 4.18031C6.53988 4.82698 6.94655 5.34698 7.51321 5.55365L5.37321 9.44698H2.29321V10.3803H4.85988L2.74655 14.2136L3.56655 14.6603L5.92655 10.3736H7.53988V10.8603H8.47321V10.3736H10.0799L12.4399 14.6536L13.2599 14.2003L11.1465 10.3736H13.7199V9.44031V9.44698ZM7.47988 4.18031C7.47988 3.88698 7.71321 3.65365 8.00655 3.65365C8.29988 3.65365 8.53321 3.88698 8.53321 4.18031C8.53321 4.47365 8.29988 4.70031 8.01988 4.70698L7.99988 4.67365L7.98655 4.70031C7.70655 4.68698 7.47988 4.46031 7.47988 4.18031ZM8.47321 9.44698V8.96031H7.53988V9.44698H6.44655L8.00655 6.61365L9.57321 9.44698H8.47321Z" fill="#303030"/>
</svg>
