<svg width="16" height="16" viewBox="0 0 16 16" fill="none" xmlns="http://www.w3.org/2000/svg">
<path d="M14.6267 9.70011C14.5067 8.87344 14.38 8.06011 14.2467 7.24677C14.12 6.44011 13.9867 5.62677 13.8734 4.80677L13.8334 4.52677L13.5667 4.43344C9.98671 3.14011 6.04004 3.13344 2.44004 4.43344L2.17337 4.52677L2.13337 4.80677C2.01337 5.63344 1.88671 6.44011 1.76004 7.24677C1.63337 8.06011 1.50004 8.87344 1.39337 9.64677C1.33337 9.88011 1.33337 10.1534 1.33337 10.3734V10.4668C1.34671 11.3468 1.87337 12.0868 2.71337 12.3934C2.97337 12.4868 3.24004 12.5334 3.50671 12.5334C4.12671 12.5334 4.72004 12.2734 5.14671 11.8001L6.53337 10.2401H9.48671L10.8734 11.8001C11.48 12.4868 12.4334 12.7134 13.3 12.3934C14.14 12.0801 14.6667 11.3401 14.68 10.4668V10.3734C14.68 10.1534 14.68 9.88011 14.6267 9.70011ZM13.7467 10.4601C13.74 10.9534 13.4534 11.3534 12.9734 11.5268C12.5867 11.6668 11.9934 11.6668 11.5667 11.1868L9.90004 9.31344H8.01337V9.78677L7.99337 9.32011H6.10671L4.44004 11.1934C4.01337 11.6668 3.41337 11.6734 3.03337 11.5334C2.55337 11.3534 2.26671 10.9534 2.26004 10.4734V10.3801C2.26004 10.2134 2.26004 10.0068 2.30004 9.84011C2.42004 9.01344 2.54671 8.20677 2.67337 7.40011C2.78671 6.68011 2.90004 5.96011 3.01337 5.22677C6.23337 4.13344 9.74671 4.12011 12.9867 5.22677C13.0934 5.96011 13.2067 6.68011 13.3267 7.40011C13.4534 8.20677 13.5867 9.02011 13.7134 9.89344C13.7467 10.0134 13.7467 10.2134 13.74 10.3801H14.2067L13.74 10.4668L13.7467 10.4601ZM6.31337 6.73344H5.59337V6.01344H4.66004V6.73344H3.93337V7.66677H4.66004V8.39344H5.59337V7.66677H6.31337V6.73344ZM10.4534 5.80011C10.7134 5.80011 10.92 6.00677 10.92 6.26677C10.92 6.52677 10.7134 6.73344 10.4534 6.73344C10.1934 6.73344 9.98671 6.52677 9.98671 6.26677C9.98671 6.00677 10.1934 5.80011 10.4534 5.80011ZM10.4534 7.67344C10.7134 7.67344 10.92 7.88011 10.92 8.14011C10.92 8.40011 10.7134 8.60677 10.4534 8.60677C10.1934 8.60677 9.98671 8.40011 9.98671 8.14011C9.98671 7.88011 10.1934 7.67344 10.4534 7.67344ZM11.4067 6.72011C11.6667 6.72011 11.8734 6.92677 11.8734 7.18677C11.8734 7.44677 11.6667 7.65344 11.4067 7.65344C11.1467 7.65344 10.94 7.44677 10.94 7.18677C10.94 6.92677 11.1467 6.72011 11.4067 6.72011ZM9.50004 6.72011C9.76004 6.72011 9.96671 6.92677 9.96671 7.18677C9.96671 7.44677 9.76004 7.65344 9.50004 7.65344C9.24004 7.65344 9.03337 7.44677 9.03337 7.18677C9.03337 6.92677 9.24004 6.72011 9.50004 6.72011Z" fill="#303030"/>
</svg>
