<svg width="16" height="16" viewBox="0 0 16 16" fill="none" xmlns="http://www.w3.org/2000/svg">
<path d="M9.93336 8.33177C11 7.6651 11.6667 6.4651 11.6667 5.13177C11.6667 3.0651 10 1.39844 7.93336 1.39844C5.86669 1.39844 4.20002 3.0651 4.20002 5.13177C4.20002 7.19844 4.93336 7.6651 6.00002 8.33177C3.33336 9.19844 1.40002 11.7318 1.40002 14.6651H2.33336C2.33336 11.5318 4.93336 8.93177 8.06669 8.93177C11.2 8.93177 13.8 11.5318 13.8 14.6651H14.7334C14.7334 11.6651 12.7334 9.13177 10 8.2651L9.93336 8.33177ZM7.86669 7.93177C6.33336 7.93177 5.06669 6.6651 5.06669 5.13177C5.06669 3.59844 6.33336 2.33177 7.86669 2.33177C9.40002 2.33177 10.6667 3.59844 10.6667 5.13177C10.6667 6.6651 9.40002 7.93177 7.86669 7.93177Z" fill="#303030"/>
</svg>
