<svg width="16" height="16" viewBox="0 0 16 16" fill="none" xmlns="http://www.w3.org/2000/svg">
<path d="M7.82662 4.9165L8.25328 4.48983L7.59328 3.82983L7.16662 4.2565L5.97328 3.06317C5.55995 2.64983 4.99328 2.4365 4.40662 2.46317C3.82662 2.48983 3.27995 2.76983 2.90662 3.22317C2.24662 4.02983 2.33328 5.2765 3.11328 6.04983L4.23995 7.1765L3.80662 7.60983L4.46662 8.26983L4.89995 7.8365L9.09328 12.0298L10.5933 13.5498H13.52V10.6232L7.82662 4.9165ZM3.77995 5.38983C3.33995 4.94983 3.27328 4.2565 3.63328 3.80983C3.83995 3.5565 4.13328 3.40983 4.45328 3.38983C4.77328 3.3765 5.08662 3.4965 5.31328 3.72317L6.50662 4.9165L4.90662 6.5165L3.77995 5.38983ZM12.6 12.6165H10.9933L5.56662 7.1765L7.16662 5.5765L12.6 11.0098V12.6165Z" fill="#303030"/>
</svg>
