<svg width="16" height="16" viewBox="0 0 16 16" fill="none" xmlns="http://www.w3.org/2000/svg">
<path d="M7.99321 12.7196C8.49395 12.7196 8.89988 12.3137 8.89988 11.8129C8.89988 11.3122 8.49395 10.9062 7.99321 10.9062C7.49248 10.9062 7.08655 11.3122 7.08655 11.8129C7.08655 12.3137 7.49248 12.7196 7.99321 12.7196Z" fill="#303030"/>
<path d="M11.1998 9.96776C10.3665 9.08776 9.23982 8.58776 8.02648 8.56109C6.82648 8.53443 5.66648 8.97443 4.78648 9.80776L4.14648 9.13443C5.20648 8.12776 6.59315 7.58109 8.05315 7.62776C9.51315 7.66109 10.8732 8.26776 11.8798 9.32109L11.2065 9.96109L11.1998 9.96776Z" fill="#303030"/>
<path d="M13.9332 7.3084C12.3866 5.68174 10.2932 4.75507 8.04657 4.70174C5.7999 4.64174 3.66657 5.4684 2.0399 7.01507L1.3999 6.34174C3.20657 4.62174 5.5799 3.7084 8.07324 3.7684C10.5666 3.8284 12.8866 4.86174 14.6066 6.6684L13.9332 7.3084Z" fill="#303030"/>
</svg>
