<svg width="16" height="16" viewBox="0 0 16 16" fill="none" xmlns="http://www.w3.org/2000/svg">
<path d="M3.13328 3.18031L4.36661 9.86698L4.81995 12.2403H5.45995C5.13328 12.487 4.91995 12.867 4.91995 13.307C4.91995 14.047 5.52661 14.647 6.27328 14.647C7.01995 14.647 7.62661 14.047 7.62661 13.307C7.62661 12.8736 7.41328 12.487 7.08661 12.2403H8.00661V11.307H5.58661L5.40661 10.3603H7.99328V9.42698H5.23328L4.24661 4.09365H13.4999L12.7133 7.94698L13.6266 8.13365L14.6399 3.16031H4.08661L3.68661 1.32031H1.31995V2.25365H2.93328L3.13328 3.18031ZM6.27328 13.7136C6.03995 13.7136 5.85328 13.5336 5.85328 13.307C5.85328 13.0803 6.03995 12.9003 6.27328 12.9003C6.50661 12.9003 6.69328 13.0803 6.69328 13.307C6.69328 13.5336 6.50661 13.7136 6.27328 13.7136Z" fill="#303030"/>
<path d="M14.6799 12.0598C14.6799 10.6198 13.5132 9.45312 12.0732 9.45312C10.6332 9.45312 9.46655 10.6198 9.46655 12.0598C9.46655 13.4998 10.6332 14.6665 12.0732 14.6665C13.5132 14.6665 14.6799 13.4998 14.6799 12.0598ZM12.0732 13.7331C11.1466 13.7331 10.3999 12.9798 10.3999 12.0598C10.3999 11.1398 11.1532 10.3865 12.0732 10.3865C12.9932 10.3865 13.7466 11.1398 13.7466 12.0598C13.7466 12.9798 12.9932 13.7331 12.0732 13.7331Z" fill="#303030"/>
<path d="M11.72 11.7101L11.0667 11.7168L11.0733 12.6501L12.6466 12.6301L12.6533 11.0234H11.72V11.7101Z" fill="#303030"/>
</svg>
