<svg width="16" height="16" viewBox="0 0 16 16" fill="none" xmlns="http://www.w3.org/2000/svg">
<path d="M4.81664 10.1858L3.07664 8.44583H7.52331V12.8992L5.76331 11.1392L5.10331 11.7992L7.97665 14.6792L10.85 11.8058L10.19 11.1458L8.44998 12.8858V8.4525H12.9033L11.17 10.1858L11.83 10.8458L14.7033 7.97917L11.8233 5.09917L11.1633 5.75917L12.9233 7.51917H8.45665L8.46331 3.1125L10.19 4.83917L10.85 4.17917L7.97665 1.3125L5.10331 4.18583L5.76331 4.84583L7.52998 3.07917V7.5125H3.06998L4.82331 5.75917L4.16331 5.09917L1.28998 7.97917L4.15664 10.8458L4.81664 10.1858Z" fill="#303030"/>
</svg>
