<svg width="16" height="16" viewBox="0 0 16 16" fill="none" xmlns="http://www.w3.org/2000/svg">
<path d="M4.10333 9.83021H4.70333V13.8302L6.96999 14.6969L7.96999 13.2302H9.83666V12.2969H8.56999L10.1033 10.0969C10.77 10.0969 12.7033 9.96354 12.77 9.89687C13.77 9.89687 14.6367 9.03021 14.6367 8.03021C14.6367 7.03021 13.77 6.16354 12.77 6.16354C12.7033 6.16354 10.7033 6.03021 10.0367 5.96354L8.56999 3.76354H9.83666V2.83021H7.96999L6.96999 1.29688L4.70333 2.23021V6.16354H4.10333L2.90333 5.16354H1.37V10.8302H2.90333L4.10333 9.83021ZM2.30333 9.96354V6.16354H2.57L3.76999 7.16354H5.63666V2.89687L6.63666 2.49687L9.63666 6.83021H9.83666C11.7922 7.00799 12.7922 7.09687 12.8367 7.09687C13.37 7.09687 13.77 7.49687 13.77 8.03021C13.77 8.56354 13.37 8.96354 12.8367 8.96354C12.3033 8.96354 12.8367 8.96354 9.90333 9.16354H9.70333L6.70333 13.5635L5.70333 13.1635V8.89687H3.83666L2.63666 9.89687H2.37L2.30333 9.96354Z" fill="#303030"/>
</svg>
