<svg width="16" height="16" viewBox="0 0 16 16" fill="none" xmlns="http://www.w3.org/2000/svg">
<path d="M9.54004 14.5037L9.32671 13.5971C11.92 12.9837 13.7334 10.6904 13.7334 8.01708C13.7334 4.85708 11.16 2.28375 8.00004 2.28375C4.84004 2.28375 2.26671 4.84375 2.26671 8.01042C2.26671 10.6838 4.08004 12.9771 6.67337 13.5904L6.46004 14.4971C3.44004 13.7837 1.33337 11.1171 1.33337 8.01042C1.33337 4.33708 4.32671 1.34375 8.00004 1.34375C11.6734 1.34375 14.6667 4.33708 14.6667 8.01042C14.6667 11.1171 12.56 13.7837 9.54004 14.4971V14.5037ZM9.54671 11.7371L9.18671 10.8771C9.24004 10.8571 9.28671 10.8371 9.33337 10.8104C10.4067 10.2971 11.1 9.19708 11.1 8.01042C11.1 6.29708 9.70671 4.90375 7.99337 4.90375C6.28004 4.90375 4.88671 6.29708 4.88671 8.01042C4.88671 9.27042 5.64004 10.3971 6.80004 10.8771L6.44004 11.7371C4.92671 11.1104 3.95337 9.64375 3.95337 8.01042C3.95337 5.78375 5.76671 3.97042 7.99337 3.97042C10.22 3.97042 12.0334 5.78375 12.0334 8.01042C12.0334 9.55708 11.1334 10.9837 9.74004 11.6571C9.68004 11.6904 9.61337 11.7171 9.54671 11.7438V11.7371ZM9.41337 8.00375C9.41337 7.22375 8.78004 6.59042 8.00004 6.59042C7.22004 6.59042 6.58671 7.22375 6.58671 8.00375C6.58671 8.62375 6.98671 9.14375 7.53337 9.33708V14.6704H8.46671V9.33708C9.02004 9.14375 9.41337 8.62375 9.41337 8.00375Z" fill="#303030"/>
</svg>
