<svg width="16" height="16" viewBox="0 0 16 16" fill="none" xmlns="http://www.w3.org/2000/svg">
<path d="M11.6433 5.14927C10.7567 5.14927 10.0233 5.75594 9.81001 6.57594H6.37001L4.81001 8.13594V5.0626C5.63001 4.85594 6.23668 4.11594 6.23668 3.22927C6.23668 2.1826 5.38335 1.33594 4.34335 1.33594C3.30335 1.33594 2.45001 2.18927 2.45001 3.22927C2.45001 4.10927 3.05668 4.84927 3.87668 5.0626V10.9226C3.05668 11.1293 2.45001 11.8693 2.45001 12.7559C2.45001 13.8026 3.30335 14.6493 4.34335 14.6493C5.38335 14.6493 6.23668 13.7959 6.23668 12.7559C6.23668 11.8759 5.63001 11.1359 4.81001 10.9226V9.44927L6.75668 7.5026H9.81001C10.0167 8.3226 10.7567 8.92927 11.6433 8.92927C12.69 8.92927 13.5367 8.07594 13.5367 7.03594C13.5367 5.99594 12.6833 5.1426 11.6433 5.1426V5.14927ZM3.39001 3.23594C3.39001 2.7026 3.82335 2.27594 4.35001 2.27594C4.87668 2.27594 5.31001 2.70927 5.31001 3.23594C5.31001 3.7626 4.87668 4.19594 4.35001 4.19594C3.82335 4.19594 3.39001 3.7626 3.39001 3.23594ZM5.31668 12.7559C5.31668 13.2893 4.88335 13.7159 4.35668 13.7159C3.83001 13.7159 3.39668 13.2826 3.39668 12.7559C3.39668 12.2293 3.83001 11.7959 4.35668 11.7959C4.88335 11.7959 5.31668 12.2293 5.31668 12.7559ZM11.6433 8.00927C11.11 8.00927 10.6833 7.57594 10.6833 7.04927C10.6833 6.5226 11.1167 6.08927 11.6433 6.08927C12.17 6.08927 12.6033 6.5226 12.6033 7.04927C12.6033 7.57594 12.17 8.00927 11.6433 8.00927Z" fill="#303030"/>
</svg>
