<svg width="16" height="16" viewBox="0 0 16 16" fill="none" xmlns="http://www.w3.org/2000/svg">
<path d="M12.3646 6.10698L11.4712 6.09365C11.4446 5.56031 11.0512 5.13365 10.5712 5.13365H9.5779C9.5579 4.60698 9.16456 4.18031 8.69123 4.18031H7.6979V2.31365C7.6979 1.76698 7.30456 1.32031 6.8179 1.32031H5.70456C5.25123 1.32031 4.8779 1.73365 4.8779 2.24031V5.86698C4.68456 5.71365 4.4579 5.63365 4.21123 5.63365H3.9579C3.6379 5.63365 3.34456 5.77365 3.12456 6.03365C2.8579 6.34698 2.7379 6.80031 2.81123 7.24698L3.6979 12.3603V14.667H13.2179V12.267H13.2246V7.09365C13.2246 6.54698 12.8312 6.10698 12.3512 6.10698H12.3646ZM3.84456 6.64031C3.84456 6.64031 3.9179 6.56698 3.97123 6.56698H4.22456C4.2779 6.56698 4.34456 6.62031 4.39123 6.70698L4.88456 7.32031V8.92698H5.8179V7.24031V2.26031H6.7579C6.7579 2.26031 6.76456 2.29365 6.76456 2.31365V4.58031L6.7779 4.64031H6.76456V7.52031H7.6979V5.10698H8.63123C8.63123 5.10698 8.64456 5.14698 8.64456 5.17365V5.53365C8.64456 5.53365 8.65123 5.56031 8.65123 5.57365H8.64456V7.52031H9.5779V6.06031L10.5046 6.04698C10.5046 6.04698 10.5246 6.08031 10.5312 6.12031V7.52698H11.4646V7.02031L12.2912 7.03365C12.2912 7.03365 12.2979 7.06698 12.2979 7.08698V11.3203H4.47123L3.7379 7.09365C3.70456 6.88698 3.77123 6.72698 3.84456 6.64031ZM12.2912 13.7336H4.64456V12.2603H12.2912V13.7336Z" fill="#303030"/>
</svg>
