<svg width="16" height="16" viewBox="0 0 16 16" fill="none" xmlns="http://www.w3.org/2000/svg">
<path d="M13.9558 1.46375L8.09579 7.34375L6.60245 5.85708C6.92912 5.39042 7.12912 4.82375 7.12912 4.21042C7.12912 2.63042 5.84912 1.34375 4.26245 1.34375C2.67579 1.34375 1.39579 2.63042 1.39579 4.21042C1.39579 5.79042 2.67579 7.07708 4.26245 7.07708C4.89579 7.07708 5.46912 6.87042 5.94245 6.52375L7.42912 8.01042L5.95579 9.49042C5.61579 9.23708 5.21579 9.05042 4.76912 8.97042C4.59579 8.93708 4.42912 8.92375 4.25579 8.92375C2.89579 8.92375 1.68912 9.89708 1.43579 11.2837C1.15579 12.8437 2.18912 14.3304 3.74912 14.6104C3.92245 14.6437 4.08912 14.6571 4.26245 14.6571C5.62245 14.6571 6.82912 13.6837 7.08245 12.2971C7.22246 11.5171 7.03579 10.7571 6.61579 10.1504L8.09579 8.67042L13.9558 14.5237L14.6158 13.8637L8.75579 8.01042L14.6158 2.12375L13.9558 1.46375ZM4.26245 6.14375C3.19579 6.14375 2.32912 5.27708 2.32912 4.21042C2.32912 3.14375 3.19579 2.27708 4.26245 2.27708C5.32912 2.27708 6.19579 3.14375 6.19579 4.21042C6.19579 5.27708 5.32912 6.14375 4.26245 6.14375ZM6.16245 12.1304C5.99579 13.0504 5.19579 13.7171 4.26245 13.7171C4.14912 13.7171 4.02912 13.7037 3.91579 13.6837C2.86912 13.4971 2.16912 12.4904 2.35579 11.4371C2.52245 10.5171 3.32245 9.85042 4.25579 9.85042C4.36912 9.85042 4.48912 9.86375 4.60245 9.88375C5.10912 9.97708 5.54912 10.2571 5.84912 10.6837C6.14246 11.1104 6.25579 11.6237 6.16245 12.1304Z" fill="#303030"/>
</svg>
