<svg width="16" height="16" viewBox="0 0 16 16" fill="none" xmlns="http://www.w3.org/2000/svg">
<path d="M11.8 11.8H14.6667V10.8667H11.8V8H10.8667V10.8667H8V11.8H10.8667V14.6667H11.8V11.8Z" fill="#303030"/>
<path d="M1.33997 12.787C1.33997 13.8336 2.1933 14.6803 3.2333 14.6803C4.2733 14.6803 5.12663 13.827 5.12663 12.787C5.12663 12.427 5.01997 12.0936 4.84663 11.807L10.4066 6.24698C10.6933 6.42031 11.0266 6.52698 11.3866 6.52698C12.4333 6.52698 13.28 5.67365 13.28 4.63365C13.28 3.59365 12.4266 2.74031 11.3866 2.74031C10.3466 2.74031 9.4933 3.59365 9.4933 4.63365C9.4933 4.98031 9.5933 5.30031 9.75996 5.58031L4.18663 11.1536C4.03997 11.067 3.87997 11.0003 3.70663 10.9536V5.04698C4.52663 4.84031 5.1333 4.10031 5.1333 3.21365C5.1333 2.16698 4.27997 1.32031 3.23997 1.32031C2.19997 1.32031 1.34663 2.17365 1.34663 3.21365C1.34663 4.09365 1.9533 4.83365 2.7733 5.04698V10.9603C1.9533 11.167 1.34663 11.907 1.34663 12.7936L1.33997 12.787ZM3.2333 13.7536C2.69997 13.7536 2.2733 13.3203 2.2733 12.7936C2.2733 12.267 2.70663 11.8336 3.2333 11.8336C3.75997 11.8336 4.1933 12.267 4.1933 12.7936C4.1933 13.3203 3.75997 13.7536 3.2333 13.7536ZM11.3866 3.67365C11.92 3.67365 12.3466 4.10698 12.3466 4.63365C12.3466 5.16031 11.9133 5.59365 11.3866 5.59365C10.86 5.59365 10.4266 5.16031 10.4266 4.63365C10.4266 4.10698 10.86 3.67365 11.3866 3.67365ZM2.2733 3.21365C2.2733 2.68031 2.70663 2.25365 3.2333 2.25365C3.75997 2.25365 4.1933 2.68698 4.1933 3.21365C4.1933 3.74031 3.75997 4.17365 3.2333 4.17365C2.70663 4.17365 2.2733 3.74031 2.2733 3.21365Z" fill="#303030"/>
</svg>
