<svg width="16" height="16" viewBox="0 0 16 16" fill="none" xmlns="http://www.w3.org/2000/svg">
<path d="M12.5633 13.7226V12.2493V7.99594H11.63V11.3226H3.7833C3.50997 11.3226 3.24997 11.3959 3.0233 11.5093V2.86927C3.0233 2.5426 3.28997 2.26927 3.6233 2.26927H7.3233V1.33594H3.6233C2.77663 1.33594 2.08997 2.0226 2.08997 2.86927V13.2493C2.08997 14.0359 2.7233 14.6693 3.50997 14.6693H12.57V13.7226H12.5633ZM3.7833 12.2493H11.63V13.7159H3.7233C3.33663 13.7159 3.01663 13.4026 3.01663 13.0093C3.01663 12.5893 3.35663 12.2493 3.77663 12.2493H3.7833ZM9.00997 4.17594L8.3833 5.62927L9.07663 7.03594H8.36997L7.89663 6.08927L7.5033 7.03594H6.74997L7.4633 5.49594L6.79663 4.1826H7.5233L7.9233 5.09594L8.28997 4.1826H9.01663H9.00997V4.17594ZM10.1233 4.17594V6.47594H11.3566V7.02927H9.47663V4.16927H10.1233V4.17594ZM12.4633 4.91594C12.4633 5.08927 12.5833 5.18927 13.0166 5.31594C13.6366 5.49594 13.9033 5.72927 13.9033 6.18927C13.9033 6.75594 13.5166 7.09594 12.85 7.09594C12.1833 7.09594 11.77 6.70927 11.77 6.13594H12.3966C12.4233 6.4026 12.5966 6.56927 12.8833 6.56927C13.1033 6.56927 13.2566 6.4426 13.2566 6.24927C13.2566 6.0426 13.13 5.95594 12.6366 5.8026C12.07 5.63594 11.83 5.3826 11.83 4.97594C11.83 4.4626 12.2366 4.1226 12.8366 4.1226C13.4366 4.1226 13.8366 4.47594 13.8366 5.01594H13.2233C13.19 4.75594 13.05 4.6226 12.81 4.6226C12.5966 4.6226 12.4633 4.72927 12.4633 4.91594Z" fill="#303030"/>
</svg>
