<svg width="16" height="16" viewBox="0 0 16 16" fill="none" xmlns="http://www.w3.org/2000/svg">
<path d="M6.70703 1.27344H5.50703C5.04036 1.27344 4.64036 1.67344 4.64036 2.20677V5.87344C4.44036 5.67344 4.17369 5.60677 3.84036 5.60677H3.57369C3.24036 5.60677 2.90703 5.7401 2.64036 6.07344C2.37369 6.40677 2.24036 6.80677 2.30703 7.27344L3.24036 12.2068V14.7401H13.707V12.3401V7.1401C13.707 6.60677 13.307 6.1401 12.7737 6.1401H11.6404C11.6404 5.60677 11.1737 5.1401 10.707 5.1401H9.57369C9.57369 4.60677 9.17369 4.20677 8.64036 4.20677H7.50703V2.3401C7.50703 1.80677 7.10703 1.3401 6.57369 1.3401L6.70703 1.27344ZM12.8404 13.6734H4.24036V12.6734H12.8404V13.6734ZM8.70703 5.07344V5.47344V7.40677H9.64036V5.9401H10.7737V7.3401H11.707V6.80677H12.7737V11.6068H4.17369L3.30703 6.87344C3.30703 6.7401 3.30703 6.5401 3.44036 6.47344C3.44036 6.47344 3.57369 6.3401 3.64036 6.3401H3.90703C3.97369 6.3401 4.10703 6.3401 4.17369 6.5401L4.70703 7.3401V8.7401H5.64036V7.3401V2.20677H6.77369V7.40677H7.70703V5.00677H8.77369L8.70703 5.07344Z" fill="#303030"/>
</svg>
