<svg width="16" height="16" viewBox="0 0 16 16" fill="none" xmlns="http://www.w3.org/2000/svg">
<path d="M8.03331 14.6559C11.7133 14.6559 14.6933 11.6759 14.6933 7.99594C14.6933 4.31594 11.7066 1.33594 8.03331 1.33594C4.35997 1.33594 1.36664 4.31594 1.36664 7.99594C1.36664 11.6759 4.34664 14.6559 8.02664 14.6559H8.03331ZM8.03331 2.26927C11.1933 2.26927 13.76 4.83594 13.76 7.99594C13.76 11.1559 11.1933 13.7226 8.03331 13.7226C4.87331 13.7226 2.29997 11.1559 2.29997 7.99594C2.29997 4.83594 4.87331 2.26927 8.03331 2.26927ZM7.56664 8.4626H5.17997V7.52927H7.56664V5.1426H8.49997V7.52927H10.8866V8.4626H8.49997V10.8493H7.56664V8.4626Z" fill="#303030"/>
</svg>
