<svg width="16" height="16" viewBox="0 0 16 16" fill="none" xmlns="http://www.w3.org/2000/svg">
<path d="M6.45999 12.7215H7.55332V13.8015H8.48665V12.7215H9.57332V11.7881H8.48665V10.7081H7.54665V11.7881H6.45999V12.7215ZM10.04 8.43479C11.0933 7.74812 11.7933 6.57479 11.8067 5.22812H11.82L11 1.32812H4.72665L4.04665 5.22812H4.07332C4.08665 6.58812 4.80665 7.78146 5.88665 8.46146C3.25999 9.33479 1.35999 11.7815 1.35999 14.6548H2.29332C2.29332 11.5948 4.79999 9.10812 7.89999 9.05479H8.03332C11.16 9.07479 13.7067 11.5815 13.7067 14.6615H14.64C14.64 11.7548 12.7 9.28812 10.0333 8.43479H10.04ZM5.51332 2.25479H10.2467L10.6733 4.28812H5.15999L5.51332 2.25479ZM5.01332 5.22812H10.8733C10.8533 6.80812 9.58665 8.08146 8.01332 8.11479H7.92665C6.33332 8.10146 5.03999 6.81479 5.01999 5.22146L5.01332 5.22812Z" fill="#303030"/>
</svg>
