<svg width="16" height="16" viewBox="0 0 16 16" fill="none" xmlns="http://www.w3.org/2000/svg">
<path d="M1.33997 2.27344V12.2668H2.28663C2.4933 13.0801 3.2333 13.6868 4.1133 13.6868C4.9933 13.6868 5.72663 13.0801 5.93997 12.2668H10.1066C10.3133 13.0868 11.0533 13.7001 11.9333 13.7001C12.8133 13.7001 13.56 13.0868 13.76 12.2668H14.6533V6.99344L11.7866 4.17344H10.3466V2.27344H1.33997ZM4.1133 12.7534C3.58663 12.7534 3.15997 12.3268 3.15997 11.8001C3.15997 11.2734 3.58663 10.8468 4.1133 10.8468C4.63997 10.8468 5.06663 11.2734 5.06663 11.8001C5.06663 12.3268 4.63997 12.7534 4.1133 12.7534ZM4.1133 9.90677C3.2333 9.90677 2.49997 10.5134 2.28663 11.3334H2.26663V3.20677H9.4133V3.87344V11.3334H5.93997C5.7333 10.5201 4.9933 9.90677 4.1133 9.90677ZM11.9333 12.7668C11.4066 12.7668 10.98 12.3401 10.98 11.8134C10.98 11.2868 11.4066 10.8601 11.9333 10.8601C12.46 10.8601 12.8866 11.2868 12.8866 11.8134C12.8866 12.3401 12.46 12.7668 11.9333 12.7668ZM11.4066 5.10677L13.72 7.38677V11.2401C13.4733 10.4801 12.7666 9.92677 11.9333 9.92677C11.2666 9.92677 10.6866 10.2734 10.3466 10.7934V5.10677H11.4066Z" fill="#303030"/>
</svg>
