<svg width="16" height="16" viewBox="0 0 16 16" fill="none" xmlns="http://www.w3.org/2000/svg">
<path d="M11.1634 5.76698L13.3834 7.98031L11.17 10.1936L11.83 10.8536L14.7034 7.98031L11.8234 5.10698L11.1634 5.76698ZM1.29004 7.98698L4.16337 10.8603L4.82337 10.2003L2.61004 7.98698L4.83004 5.77365L4.17004 5.11365L1.29004 7.98698ZM5.10337 11.8136L7.98337 14.687L10.85 11.8203L10.19 11.1603L7.98337 13.3736L5.76337 11.1536L5.10337 11.8136ZM7.98337 1.32031L5.10337 4.20031L5.76337 4.86031L7.98337 2.64031L10.19 4.85365L10.85 4.19365L7.98337 1.32031ZM7.99004 6.57365C8.78337 6.57365 9.43004 7.22031 9.43004 8.01365C9.43004 8.80698 8.78337 9.45365 7.99004 9.45365C7.19671 9.45365 6.55004 8.80698 6.55004 8.01365C6.55004 7.22031 7.19671 6.57365 7.99004 6.57365Z" fill="#303030"/>
</svg>
