<svg width="16" height="16" viewBox="0 0 16 16" fill="none" xmlns="http://www.w3.org/2000/svg">
<path d="M13.8833 12.1426L13.2233 11.4826L11.8033 12.8959V8.94927H10.8633V12.8893L9.46332 11.4826L8.80332 12.1426L11.3433 14.6759L13.8833 12.1426ZM8.79665 1.33594H2.10999V14.6693H7.82999V13.7359H3.04332V2.27594H8.78999V5.13594H11.6567V7.99594H12.59V4.50927L9.75665 1.3426H8.78332H8.79665V1.33594ZM11.0767 4.20927H9.72999V2.7026L11.0767 4.20927ZM9.51665 8.71594C10.1633 8.06927 10.1633 7.0226 9.51665 6.3826C8.93665 5.8026 8.02332 5.7426 7.36999 6.2226C6.72332 5.74927 5.80999 5.79594 5.22332 6.3826C4.57665 7.02927 4.57665 8.07594 5.22332 8.71594L7.37665 10.8559L7.70332 10.5226C7.70332 10.5226 9.42332 8.79594 9.50999 8.71594H9.51665ZM8.85665 8.05594C8.75665 8.15594 7.86999 9.0426 7.37665 9.5426L5.88332 8.05594C5.60332 7.77594 5.60332 7.3226 5.88332 7.0426C6.01665 6.90927 6.19665 6.83594 6.38999 6.83594C6.58332 6.83594 6.76332 6.90927 6.89665 7.0426C6.92999 7.0826 6.99665 7.16927 6.99665 7.16927L7.36332 7.65594L7.73665 7.17594C7.73665 7.17594 7.80999 7.0826 7.83665 7.04927C8.11665 6.76927 8.56999 6.76927 8.84999 7.04927C9.12999 7.32927 9.12999 7.7826 8.84999 8.0626H8.85665V8.05594Z" fill="#303030"/>
</svg>
