<svg width="16" height="16" viewBox="0 0 16 16" fill="none" xmlns="http://www.w3.org/2000/svg">
<path d="M14.6233 3.72375C14.6233 3.23708 14.1966 2.84375 13.67 2.84375H1.34998V12.2704H3.46331V12.2837L9.94331 13.1571C10.0233 13.1704 10.1033 13.1771 10.1833 13.1771C10.5033 13.1771 10.8166 13.0704 11.0566 12.8704C11.3166 12.6504 11.47 12.3371 11.47 12.0171V11.7637C11.47 11.4171 11.47 11.2237 7.57664 9.71042L7.59664 7.45708L12.7033 7.50375C13.19 7.50375 13.5833 7.13708 13.5833 6.68375V5.70375H13.77C14.2633 5.71708 14.4833 5.72375 14.61 5.41042L14.6433 5.32375V3.72375H14.6233ZM3.46998 11.3437H2.28331V3.78375H3.46998V11.3437ZM13.39 4.77042H12.8566L9.20998 4.75708V5.69042H12.65V6.57042L6.66998 6.51708L6.64331 10.3504L6.94331 10.4637C8.40998 11.0304 10.0433 11.7104 10.5433 11.9904V12.0171C10.5433 12.0771 10.5033 12.1304 10.4633 12.1571C10.3966 12.2171 10.2633 12.2704 10.09 12.2371L4.40331 11.4704V3.78375L13.69 3.73042V4.77042H13.39Z" fill="#303030"/>
</svg>
