<svg width="16" height="16" viewBox="0 0 16 16" fill="none" xmlns="http://www.w3.org/2000/svg">
<path d="M10.6 8.48438C9.42665 8.48438 8.47998 9.43104 8.47998 10.6044C8.47998 11.7777 9.42665 12.7244 10.6 12.7244C11.0066 12.7244 11.38 12.6044 11.7066 12.4044L13.04 13.7377L13.7 13.0777L12.38 11.7577C12.5933 11.4244 12.7266 11.031 12.7266 10.6044C12.7266 9.43104 11.78 8.48438 10.6066 8.48438H10.6ZM9.41331 10.6044C9.41331 9.95104 9.94665 9.41771 10.6 9.41771C11.2533 9.41771 11.7866 9.95104 11.7866 10.6044C11.7866 11.2577 11.2533 11.791 10.6 11.791C9.94665 11.791 9.41331 11.2577 9.41331 10.6044Z" fill="#303030"/>
<path d="M1.37329 14.6745H7.53996V8.50781H1.37329V14.6745ZM2.30662 9.44115H6.60662V13.7411H2.30662V9.44115Z" fill="#303030"/>
<path d="M7.54662 1.34375H1.37329V7.51042H7.53996V1.34375H7.54662ZM6.61329 6.57708H2.30662V2.27708H6.60662V6.57708H6.61329Z" fill="#303030"/>
<path d="M8.51318 7.51042H14.6799V1.34375H8.51318V7.51042ZM9.44652 2.27708H13.7465V6.57708H9.44652V2.27708Z" fill="#303030"/>
</svg>
