<svg width="16" height="16" viewBox="0 0 16 16" fill="none" xmlns="http://www.w3.org/2000/svg">
<path d="M14.6667 1.33594H1.33337V14.6693H14.6667V1.33594ZM13.7334 13.7359H2.26671V2.26927H13.7334V13.7359Z" fill="#303030"/>
<path d="M11.6667 12.2714H12.0667L12.2667 8.93802L10.2667 8.27135L9.3334 9.20469C8.1334 8.73802 7.26673 7.93802 6.86673 6.73802L7.80007 5.80469L7.1334 3.80469L3.7334 4.00469V4.40469C4.26673 9.53802 6.80006 12.0714 11.6667 12.2714ZM6.5334 4.60469L6.86673 5.53802L5.9334 6.47135V6.73802C6.5334 8.40469 7.66673 9.47135 9.3334 10.0714H9.60006C9.60006 10.138 10.5334 9.27135 10.5334 9.27135L11.4667 9.60469L11.3334 11.538C7.26673 11.2047 5.20007 9.13802 4.66673 4.87135L6.60006 4.73802L6.5334 4.60469Z" fill="#303030"/>
</svg>
