<svg width="16" height="16" viewBox="0 0 16 16" fill="none" xmlns="http://www.w3.org/2000/svg">
<path d="M13.9734 10.6693L11.7068 12.9026V1.33594H10.7734V12.8493L8.60678 10.6493L7.94678 11.3026L11.2468 14.6626L14.6268 11.3359L13.9734 10.6693Z" fill="#303030"/>
<path d="M4.20002 2.35938C4.20002 2.47938 4.19335 2.56604 4.17335 2.62604C4.15335 2.67938 4.12668 2.71938 4.08668 2.74604C4.04668 2.76604 3.98002 2.77937 3.90002 2.77937H3.43335V3.61938H4.20668V6.17271H5.22002V2.35938H4.20668H4.20002Z" fill="#303030"/>
<path d="M4.42666 11.2528L4.73333 10.9128C4.95333 10.6661 5.12 10.4595 5.25333 10.2928C5.38 10.1261 5.48666 9.94615 5.57333 9.75948C5.66 9.57281 5.7 9.37281 5.7 9.17281C5.7 8.83948 5.58666 8.58615 5.35333 8.40615C5.12 8.22615 4.8 8.13281 4.39333 8.13281C3.94 8.13281 3.58 8.24615 3.31333 8.47948C3.04666 8.71281 2.91333 9.04615 2.91333 9.49281H3.8C3.8 9.27281 3.85333 9.10615 3.94666 8.99948C4.04 8.89281 4.17333 8.83948 4.34666 8.83948C4.49333 8.83948 4.60666 8.87281 4.68 8.94615C4.75333 9.01948 4.78666 9.12615 4.78666 9.26615C4.78666 9.41281 4.74 9.57281 4.64 9.74615C4.54 9.91948 4.42666 10.0795 4.29333 10.2395C4.16 10.3995 4 10.5728 3.80666 10.7728L3.03333 11.5728V12.0328H5.79333V11.2661H4.42666V11.2528Z" fill="#303030"/>
</svg>
