<svg width="16" height="16" viewBox="0 0 16 16" fill="none" xmlns="http://www.w3.org/2000/svg">
<path d="M13.8933 7.4975L13.5533 7.8375L8.15332 2.4375L8.49332 2.0975L7.83332 1.4375L3.45999 5.81083L4.11999 6.47083L4.45999 6.13083L6.83332 8.50417L1.44666 13.8975L2.10666 14.5575L7.49999 9.16417L9.86666 11.5308L9.51999 11.8775L10.18 12.5375L14.5533 8.16417L13.8933 7.50417V7.4975ZM11.5467 7.15083L9.17332 9.52417L6.46666 6.8175L8.83999 4.44417L11.5467 7.15083ZM7.49332 3.0975L8.17999 3.78417L5.80666 6.1575L5.11999 5.47083L7.49332 3.0975ZM9.83999 10.1842L12.2133 7.81083L12.9 8.4975L10.5267 10.8642L9.83999 10.1775V10.1842Z" fill="#303030"/>
</svg>
