<svg width="16" height="16" viewBox="0 0 16 16" fill="none" xmlns="http://www.w3.org/2000/svg">
<path d="M7.98659 12.3015H2.26659V5.14812H13.7266V7.44813H14.6599V1.82812H1.33325V13.2348H7.99325V12.3015H7.98659ZM13.7199 2.76146V4.21479H2.26659V2.76146H13.7266H13.7199ZM5.61325 6.58146H6.55325V7.52146H5.61325V6.58146ZM7.53325 6.58146H8.47325V7.52146H7.53325V6.58146ZM9.42659 6.58146H10.3666V7.52146H9.42659V6.58146ZM5.61325 8.48812H6.55325V9.42813H5.61325V8.48812ZM7.53325 8.48812H8.47325V9.42813H7.53325V8.48812ZM12.6333 14.0415L14.6466 14.1748L14.5533 12.1615L10.8466 8.45479L8.94659 10.3548L12.6333 14.0415ZM13.6399 12.5615L13.6666 13.1748L13.0466 13.1348L10.2666 10.3548L10.8466 9.77479L13.6399 12.5681V12.5615Z" fill="#303030"/>
</svg>
