<svg width="16" height="16" viewBox="0 0 16 16" fill="none" xmlns="http://www.w3.org/2000/svg">
<path d="M14.6134 4.50021H14.6468V4.46688L14.6601 4.45354H14.6468C14.6201 2.84687 13.3134 1.54688 11.7001 1.54688C10.0868 1.54688 8.77342 2.84687 8.75342 4.45354H1.34009L7.52675 10.6402V13.5269H6.08675V14.4602H9.89342V13.5269H8.45342V10.6469L14.6068 4.49354H14.6134V4.50021ZM8.00009 9.80021L5.99342 7.79354H10.0134L8.00675 9.80021H8.00009ZM11.6934 2.48021C12.7934 2.48021 13.6868 3.36021 13.7068 4.45354H9.67342C9.70009 3.36021 10.5934 2.48021 11.6868 2.48021H11.6934ZM12.4068 5.38688L10.9401 6.85354H5.05342L3.58675 5.38688H12.4068Z" fill="#303030"/>
</svg>
