<svg width="16" height="16" viewBox="0 0 16 16" fill="none" xmlns="http://www.w3.org/2000/svg">
<path d="M13.7333 3.4049C13.7333 2.27156 12.8133 1.35156 11.68 1.35156C10.5467 1.35156 9.62668 2.27156 9.62668 3.4049C9.62668 4.19823 10.0867 4.87823 10.7467 5.2249C10.02 5.35156 9.34668 5.7049 8.84668 6.25823L9.53335 6.8849C9.99335 6.3849 10.6467 6.09823 11.3333 6.09823C12.6667 6.09823 13.7467 7.15823 13.7467 8.4649H14.68C14.68 6.99823 13.7 5.7649 12.3533 5.33823C13.1533 5.05823 13.7267 4.3049 13.7267 3.41156L13.7333 3.4049ZM11.68 4.5249C11.06 4.5249 10.56 4.0249 10.56 3.4049C10.56 2.7849 11.06 2.2849 11.68 2.2849C12.3 2.2849 12.8 2.7849 12.8 3.4049C12.8 4.0249 12.3 4.5249 11.68 4.5249Z" fill="#303030"/>
<path d="M4.64009 14.6945H5.57342C5.57342 13.3878 6.65342 12.3278 7.98676 12.3278C9.32009 12.3278 10.4001 13.3878 10.4001 14.6945H11.3334C11.3334 13.3145 10.4734 12.1345 9.25342 11.6411C9.71342 11.2611 10.0068 10.7011 10.0068 10.0611C10.0068 8.92781 9.08676 8.00781 7.95342 8.00781C6.82009 8.00781 5.90009 8.92781 5.90009 10.0611C5.90009 10.7078 6.20676 11.2745 6.67342 11.6545C5.47342 12.1611 4.63342 13.3278 4.63342 14.6945H4.64009ZM7.96009 8.94115C8.58009 8.94115 9.08009 9.44115 9.08009 10.0611C9.08009 10.6811 8.58009 11.1811 7.96009 11.1811C7.34009 11.1811 6.84009 10.6811 6.84009 10.0611C6.84009 9.44115 7.34009 8.94115 7.96009 8.94115Z" fill="#303030"/>
<path d="M1.34004 8.45708H2.27337C2.27337 7.15042 3.35337 6.09042 4.68671 6.09042C5.37337 6.09042 6.02671 6.37708 6.48671 6.87708L7.17337 6.24375C6.68004 5.70375 6.01337 5.35042 5.29337 5.21708C5.95337 4.87708 6.41337 4.19042 6.41337 3.39708C6.41337 2.26375 5.49337 1.34375 4.36004 1.34375C3.22671 1.34375 2.30671 2.26375 2.30671 3.39708C2.30671 4.28375 2.88004 5.03708 3.67337 5.32375C2.32004 5.75042 1.33337 6.98375 1.33337 8.45708H1.34004ZM3.24671 3.40375C3.24671 2.78375 3.74671 2.28375 4.36671 2.28375C4.98671 2.28375 5.48671 2.78375 5.48671 3.40375C5.48671 4.02375 4.98671 4.52375 4.36671 4.52375C3.74671 4.52375 3.24671 4.02375 3.24671 3.40375Z" fill="#303030"/>
</svg>
