<svg width="16" height="16" viewBox="0 0 16 16" fill="none" xmlns="http://www.w3.org/2000/svg">
<path d="M9.42669 13.219H1.34003V2.76562H14.6534V9.42562H13.72V3.69896H2.27336V12.2856H9.42669V13.219Z" fill="#303030"/>
<path d="M10.86 8.46729V7.53396H10.34C10.28 7.22729 10.16 6.93396 9.98 6.66729L10.3467 6.30062L9.68667 5.64062L9.32 6.00729C9.05333 5.83396 8.76 5.71396 8.46 5.65396V5.14062H7.52667V5.66729C7.22667 5.72729 6.94 5.84729 6.67333 6.02729L6.30667 5.66062L5.64667 6.32062L6.01333 6.68729C5.84 6.94729 5.72667 7.24062 5.66667 7.53396H5.14667V8.46729H5.66667C5.72667 8.76062 5.84 9.04729 6.01333 9.30729L5.64667 9.67396L6.30667 10.334L6.67333 9.96729C6.93333 10.1473 7.22667 10.2606 7.52667 10.3273V10.854H8.46V10.3406C8.76 10.2806 9.05333 10.1673 9.32 9.99396L9.68667 10.3606L10.3467 9.70062L9.98 9.33396C10.16 9.06729 10.28 8.77396 10.34 8.47396H10.86V8.46729ZM6.98 6.96729C7.25333 6.69396 7.62 6.54063 8.00667 6.54063C8.39333 6.54063 8.76 6.69396 9.03333 6.96729C9.6 7.53396 9.6 8.45396 9.03333 9.02062C8.48667 9.56729 7.53333 9.56729 6.98 9.02062C6.41333 8.45396 6.41333 7.53396 6.98 6.96729Z" fill="#303030"/>
<path d="M14.6201 11.6589L13.9601 10.9989L12.8601 12.0989L11.7534 10.9922L11.0934 11.6522L12.2001 12.7589L11.1001 13.8589L11.7601 14.5189L12.8601 13.4189L13.9601 14.5189L14.6201 13.8589L13.5201 12.7589L14.6201 11.6589Z" fill="#303030"/>
</svg>
