<svg width="16" height="16" viewBox="0 0 16 16" fill="none" xmlns="http://www.w3.org/2000/svg">
<path d="M14.6734 7.9725L8.00675 1.3125L1.34009 7.9725V14.6458H14.6734V7.97917V7.9725ZM13.7401 13.7125H2.27342V8.35917L8.00675 2.62583L13.7401 8.35917V13.7058V13.7125Z" fill="#303030"/>
<path d="M6.31999 6.57698H5.15332V7.51031H5.56665L5.60665 7.67698L6.16665 10.8436H6.17999L6.41332 12.237H7.04665C6.77999 12.2503 6.56665 12.4636 6.56665 12.7303C6.56665 12.997 6.79332 13.2236 7.06665 13.2236C7.33999 13.2236 7.56665 13.0036 7.56665 12.7303C7.56665 12.457 7.35332 12.2503 7.08665 12.2436L9.32665 12.257C9.09999 12.3036 8.91999 12.4903 8.91999 12.7303C8.91999 13.0036 9.14665 13.2236 9.41999 13.2236C9.69332 13.2236 9.91999 13.0036 9.91999 12.7303C9.91999 12.497 9.74665 12.3036 9.51999 12.257H9.89999V11.3236L7.18665 11.3036L7.10665 10.837H10.08L10.7733 7.30365H6.45999L6.29999 6.57031L6.31999 6.57698ZM9.65999 8.23698L9.33332 9.90365H6.95332L6.65999 8.23698H9.65999Z" fill="#303030"/>
</svg>
