<svg width="16" height="16" viewBox="0 0 16 16" fill="none" xmlns="http://www.w3.org/2000/svg">
<path d="M14.6401 6.59667L12.5534 5.37667V3.14333L10.0534 1.75L7.97339 2.89L5.93339 1.75L3.38673 3.14333V5.39L1.35339 6.61V9.37667L3.40673 10.5833V12.79L5.95339 14.2833L7.99339 13.0633L10.0734 14.2833L12.5734 12.79V10.6167L14.6334 9.38333V6.61667L14.6401 6.59667ZM7.99339 6.22333L8.77339 6.65667L9.56673 7.12333V8.79667L7.99339 9.73667L6.40006 8.80333V7.13667L7.15339 6.68333L7.99339 6.22333ZM8.44673 3.69667L10.0534 2.81667L11.6267 3.69667V5.39L10.0734 6.31667L9.24673 5.85667L8.44673 5.39V3.70333V3.69667ZM4.32673 3.69667L5.93339 2.81667L7.50673 3.69667V5.39L6.68673 5.87667L5.90006 6.31L5.12673 5.85667L4.32006 5.38333V3.69667H4.32673ZM2.29339 7.13L3.86673 6.19L4.67339 6.66333L5.46006 7.12333V8.84333L4.69339 9.29667L3.86673 9.75L2.29339 8.83V7.13ZM7.52673 12.2433L5.95339 13.1833L4.34673 12.2433V10.5967L5.15339 10.11L5.95339 9.67L7.52673 10.55V12.2433ZM10.0734 13.1833L8.46673 12.2433V10.5567L10.0734 9.67667L10.9934 10.19L11.6467 10.57V12.2433L10.0734 13.1833ZM13.7067 8.83667L12.1534 9.76333L11.4601 9.37667L10.5334 8.83V7.13L12.1067 6.19L13.7134 7.13V8.83L13.7067 8.83667Z" fill="#303030"/>
</svg>
