<svg width="16" height="16" viewBox="0 0 16 16" fill="none" xmlns="http://www.w3.org/2000/svg">
<path d="M4.75999 4.20375L2.83332 2.27708H4.08666V1.34375H1.23999V4.18375H2.17332V2.93042L4.11332 4.87042C3.61332 5.52375 3.32666 6.31708 3.32666 7.15708C3.32666 7.85708 3.51332 8.53042 3.87332 9.11708L4.55999 8.43042C4.35999 8.03708 4.25999 7.60375 4.25999 7.15708C4.25999 6.39042 4.55999 5.67042 5.09999 5.13042C5.99332 4.23708 7.33332 4.05708 8.39999 4.59042L9.08666 3.90375C7.74666 3.09708 6.01332 3.19708 4.75999 4.19708V4.20375Z" fill="#303030"/>
<path d="M14.5333 13.9833L13.08 12.53L14.14 11.47L13.48 10.81L12.42 11.87L11.7133 11.1633C12.9066 9.67 12.8333 7.49667 11.4533 6.11C9.9733 4.63 7.55997 4.63 6.07997 6.11C4.59997 7.59 4.59997 10.0033 6.07997 11.4833C6.81997 12.2233 7.7933 12.5967 8.76664 12.5967C9.5733 12.5967 10.3733 12.3233 11.0466 11.8167L11.76 12.53L10.78 13.51L11.44 14.17L12.42 13.19L13.8733 14.6433L14.5333 13.9833ZM6.73997 10.83C6.19997 10.29 5.89997 9.57 5.89997 8.80333C5.89997 8.03667 6.19997 7.31667 6.73997 6.77667C7.27997 6.23667 7.99997 5.93667 8.76664 5.93667C9.5333 5.93667 10.2533 6.23667 10.7933 6.77667C11.3333 7.31667 11.6333 8.03667 11.6333 8.80333C11.6333 9.57 11.3333 10.29 10.7933 10.83C10.2533 11.37 9.5333 11.67 8.76664 11.67C7.99997 11.67 7.27997 11.37 6.73997 10.83Z" fill="#303030"/>
</svg>
