<svg width="16" height="16" viewBox="0 0 16 16" fill="none" xmlns="http://www.w3.org/2000/svg">
<path d="M7.03335 12.7716H5.60668V8.91823C6.01335 8.87156 6.40001 8.75823 6.77335 8.5849L6.37335 7.7449C5.98668 7.9249 5.57335 8.01823 5.14668 8.01823C3.56668 8.01823 2.28001 6.73156 2.28001 5.15156C2.28001 3.57156 3.56668 2.2849 5.14668 2.2849C5.57335 2.2849 5.98668 2.37823 6.36668 2.55823L6.76668 1.71156C6.26001 1.47156 5.71335 1.35156 5.14668 1.35156C3.05335 1.35156 1.34668 3.05823 1.34668 5.15156C1.34668 7.09156 2.80668 8.69156 4.68001 8.91823V12.7716H3.21335V13.7049H4.68001V14.6582H5.61335V13.7049H7.04001V12.7716H7.03335Z" fill="#303030"/>
<path d="M14.6533 5.14375C14.6533 3.05042 12.9467 1.34375 10.8533 1.34375C8.76001 1.34375 7.05334 3.05042 7.05334 5.14375C7.05334 7.08375 8.51334 8.68375 10.3867 8.91042V12.7638H8.96668V13.6971H10.3867V14.6504H11.32V13.6971H12.7933V12.7638H11.32V8.90375C13.2 8.67042 14.6533 7.07042 14.6533 5.13708V5.14375ZM7.98668 5.14375C7.98668 3.56375 9.27335 2.27708 10.8533 2.27708C12.4333 2.27708 13.72 3.56375 13.72 5.14375C13.72 6.72375 12.4333 8.01042 10.8533 8.01042C9.27335 8.01042 7.98668 6.72375 7.98668 5.14375Z" fill="#303030"/>
</svg>
