<svg width="16" height="16" viewBox="0 0 16 16" fill="none" xmlns="http://www.w3.org/2000/svg">
<path d="M8.38334 2.27708C10.61 2.29708 11.8833 3.45708 11.8833 5.44375H12.8167C12.8167 2.94375 11.1233 1.37042 8.38334 1.34375C6.45667 1.35708 5.54334 2.19708 5.12334 2.90375C4.19667 4.44375 4.66334 6.72375 5.42334 8.41708H3.19V9.35042H5.67C5.77 11.3971 5.19 12.5771 3.52334 13.8104L3.80334 14.6504H12.3567V13.7171H5.06334C6.23667 12.5437 6.68334 11.2304 6.60334 9.35042H11.11V8.41708H6.45667C5.63667 6.79708 5.16334 4.64375 5.92334 3.38375C6.36334 2.65708 7.19 2.28375 8.38334 2.27708Z" fill="#303030"/>
</svg>
