<svg width="16" height="16" viewBox="0 0 16 16" fill="none" xmlns="http://www.w3.org/2000/svg">
<path d="M2.33324 10.3359H4.9999L2.53324 12.7359C2.46657 12.7359 2.3999 12.7359 2.33324 12.7359C1.7999 12.7359 1.3999 13.1359 1.3999 13.6693C1.3999 14.2026 1.7999 14.6026 2.33324 14.6026C2.86657 14.6026 3.26657 14.2026 3.26657 13.6693C3.26657 13.1359 3.26657 13.4693 3.26657 13.3359L5.66657 10.9359V13.6026H6.5999V9.33594H2.33324V10.2693V10.3359Z" fill="#303030"/>
<path d="M5.66657 5.00625L3.26657 2.60625C3.26657 2.53958 3.26657 2.40625 3.26657 2.33958C3.26657 1.80625 2.86657 1.40625 2.33324 1.40625C1.7999 1.40625 1.3999 1.80625 1.3999 2.33958C1.3999 2.87292 1.7999 3.27292 2.33324 3.27292C2.86657 3.27292 2.46657 3.27292 2.5999 3.27292L4.9999 5.67292H2.33324V6.60625H6.5999V2.27292H5.66657V5.00625Z" fill="#303030"/>
<path d="M13.6666 12.7359C13.5999 12.7359 13.5332 12.7359 13.3999 12.7359L10.9999 10.2693H13.6666V9.33594H9.3999V13.6026H10.3332V10.9359L12.7332 13.3359C12.7332 13.4026 12.7332 13.5359 12.7332 13.6026C12.7332 14.1359 13.1332 14.5359 13.6666 14.5359C14.1999 14.5359 14.5999 14.1359 14.5999 13.6026C14.5999 13.0693 14.1999 12.6693 13.6666 12.6693V12.7359Z" fill="#303030"/>
<path d="M13.6666 1.33594C13.1332 1.33594 12.7332 1.73594 12.7332 2.26927C12.7332 2.8026 12.7332 2.46927 12.7332 2.6026L10.3332 5.0026V2.26927H9.3999V6.53594H13.6666V5.6026H10.9999L13.3999 3.2026C13.4666 3.2026 13.5332 3.2026 13.5999 3.2026C14.1332 3.2026 14.5332 2.8026 14.5332 2.26927C14.5332 1.73594 14.1332 1.33594 13.5999 1.33594H13.6666Z" fill="#303030"/>
</svg>
