<svg width="16" height="16" viewBox="0 0 16 16" fill="none" xmlns="http://www.w3.org/2000/svg">
<path d="M4.19996 4.67042C4.19996 6.10375 4.99996 7.35708 6.1733 8.00375C4.99996 8.65042 4.19996 9.90375 4.19996 11.3371V13.7304H2.7733V14.6637H6.08663H9.90663H13.2466V13.7304H11.8V11.3371C11.8 9.90375 11 8.65042 9.82663 8.00375C11 7.35708 11.8 6.10375 11.8 4.67042V2.27708H13.2266V1.34375H2.7533V2.27708H4.1933V4.67042H4.19996ZM10.8666 11.3371V13.7304H9.9133V12.7638C9.9133 11.7104 9.05996 10.8571 8.00663 10.8571C6.9533 10.8571 6.09996 11.7104 6.09996 12.7638V13.7304H5.13996V11.3371C5.13996 9.76375 6.4133 8.49042 7.97996 8.47042C7.98663 8.47042 7.99996 8.47042 8.00663 8.47042C8.0133 8.47042 8.02663 8.47042 8.0333 8.47042C9.59996 8.48375 10.8733 9.76375 10.8733 11.3371H10.8666ZM10.8666 4.67042C10.8666 6.24375 9.5933 7.51708 8.02663 7.53708C8.01996 7.53708 8.00663 7.53708 7.99996 7.53708C7.9933 7.53708 7.97996 7.53708 7.9733 7.53708C6.40663 7.52375 5.1333 6.24375 5.1333 4.67042V2.27708H10.8666V4.67042Z" fill="#303030"/>
</svg>
