<svg width="16" height="16" viewBox="0 0 16 16" fill="none" xmlns="http://www.w3.org/2000/svg">
<path d="M2.78996 1.33594V3.71594H1.32996V4.64927H2.78329V11.3426H1.32996V12.2759H2.78329V14.6493H14.6633V1.33594H2.78996ZM13.7366 13.7159H3.72329V12.2759H5.16329V11.3426H3.72329V4.64927H5.16329V3.71594H3.72329V2.26927H13.7366V13.7159ZM10.25 8.3026C10.7033 7.92261 11.0033 7.3626 11.0033 6.72927C11.0033 5.59594 10.0833 4.67594 8.94996 4.67594C7.81662 4.67594 6.89662 5.59594 6.89662 6.72927C6.89662 7.38927 7.20996 7.96927 7.69662 8.3426C6.76996 8.81594 6.12996 9.7626 6.12996 10.8626H7.06329C7.06329 9.8026 7.93662 8.9426 9.00996 8.9426C10.0833 8.9426 10.95 9.8026 10.95 10.8626H11.8833C11.8833 9.73594 11.21 8.7626 10.25 8.3026ZM8.94329 5.60927C9.56329 5.60927 10.0633 6.10927 10.0633 6.72927C10.0633 7.34927 9.56329 7.84927 8.94329 7.84927C8.32329 7.84927 7.82329 7.34927 7.82329 6.72927C7.82329 6.10927 8.32329 5.60927 8.94329 5.60927Z" fill="#303030"/>
</svg>
