<svg width="16" height="16" viewBox="0 0 16 16" fill="none" xmlns="http://www.w3.org/2000/svg">
<path d="M13.5535 11.9815L14.0535 11.1481L13.1068 10.5815L14.6335 10.1148L14.3535 9.18146L11.9735 9.90812L10.7935 9.20146V6.93479L11.9668 6.23479L14.3402 6.95479L14.6268 6.02812L13.0935 5.56146L14.0402 4.98812L13.5402 4.15479L12.5935 4.72146L12.9068 3.16146L11.9535 2.96812L11.4602 5.40146L10.2268 6.14146L8.48684 5.13479V3.74812L10.3202 2.07479L9.66017 1.35479L8.48684 2.42813V1.32812H7.51351V2.43479L6.32017 1.35479L5.66684 2.07479L7.51351 3.74812V5.12146L6.86017 5.50812L2.75351 1.39479L2.09351 2.05479L14.0068 13.9681L14.6668 13.3081L13.0135 11.6548L13.5535 11.9748V11.9815ZM7.98684 5.97479L9.82017 7.02812V8.46812L7.56684 6.21479L7.98684 5.97479Z" fill="#303030"/>
<path d="M1.95344 4.9974L2.90677 5.56406L1.36677 6.03073L1.65344 6.96406L4.02677 6.24406L5.18677 6.9374V9.2174L4.02011 9.9174L1.64011 9.19073L1.36011 10.1241L2.88677 10.5907L1.94011 11.1574L2.44011 11.9907L3.39344 11.4241L3.07344 12.9907L4.02677 13.1841L4.52011 10.7507L5.73344 10.0241L7.51344 11.0574V12.2507L5.66677 13.9241L6.32011 14.6441L7.51344 13.5641V14.6774H8.48677V13.5707L9.66011 14.6441L10.3201 13.9241L8.48677 12.2507V11.0441L9.28677 10.5774L8.57344 9.86406L7.98677 10.2041L6.16011 9.14406V7.45073L3.38677 4.6774L3.40011 4.73073L2.45344 4.16406L1.95344 4.9974Z" fill="#303030"/>
</svg>
