<svg width="16" height="16" viewBox="0 0 16 16" fill="none" xmlns="http://www.w3.org/2000/svg">
<path d="M14.6534 14.6693V8.0026C14.6534 6.2226 13.96 4.54927 12.7067 3.2826C11.4467 2.02927 9.77337 1.33594 7.99337 1.33594C4.32004 1.33594 1.33337 4.3226 1.33337 8.0026V14.6693H6.06671V7.9826C6.06671 6.9226 6.92671 6.05594 7.99337 6.05594C8.50004 6.05594 8.99337 6.2626 9.34671 6.6226C9.70671 6.9826 9.90671 7.4626 9.90671 7.9826V14.6693H14.6467H14.6534ZM10.8467 13.7293V12.2759H13.72V13.7293H10.8467ZM2.26671 13.7293V12.2759H5.13337V13.7293H2.26671ZM7.99337 5.1226C6.42004 5.1226 5.13337 6.40927 5.13337 7.9826V11.3426H2.26671V8.0026C2.26671 4.8426 4.83337 2.26927 7.99337 2.26927C9.52004 2.26927 10.96 2.8626 12.0467 3.9426C13.1267 5.02927 13.72 6.46927 13.72 8.0026V11.3426H10.8467V7.9826C10.8467 7.20927 10.5467 6.49594 10.0134 5.9626C9.48671 5.42927 8.75337 5.1226 8.00004 5.1226H7.99337Z" fill="#303030"/>
</svg>
