<svg width="16" height="16" viewBox="0 0 16 16" fill="none" xmlns="http://www.w3.org/2000/svg">
<path d="M7.99333 2.27708C11.1533 2.27708 13.7267 4.85042 13.7267 8.01042C13.7267 11.1704 11.1533 13.7437 7.99333 13.7437C4.83333 13.7437 2.25999 11.1704 2.25999 8.01042C2.25999 4.85042 4.83333 2.27708 7.99333 2.27708ZM7.99333 1.34375C4.31333 1.34375 1.32666 4.33042 1.32666 8.01042C1.32666 11.6904 4.31333 14.6771 7.99333 14.6771C11.6733 14.6771 14.66 11.6904 14.66 8.01042C14.66 4.33042 11.6733 1.34375 7.99333 1.34375ZM8.45999 6.71708H7.52666V11.5837H8.45999V6.71708ZM8.45999 4.43708H7.52666V5.86375H8.45999V4.43708Z" fill="#303030"/>
</svg>
