<svg width="16" height="16" viewBox="0 0 16 16" fill="none" xmlns="http://www.w3.org/2000/svg">
<path d="M1.33337 13.2378H14.66V2.75781H1.33337V13.2311V13.2378ZM2.26671 3.69115H13.7267V12.2978H2.26671V3.69115ZM9.40004 6.56448L12.7534 6.58448V7.51781L9.39337 7.49781V6.56448H9.40004ZM9.42671 9.39781L11.3534 9.41781V8.48448L9.44004 8.46448V9.39781H9.42671ZM7.36004 8.76448C7.81337 8.38448 8.11337 7.82448 8.11337 7.19115C8.11337 6.05781 7.19337 5.13781 6.06004 5.13781C4.92671 5.13781 4.00671 6.05781 4.00671 7.19115C4.00671 7.85115 4.32004 8.43115 4.80671 8.80448C3.88004 9.27781 3.24004 10.2245 3.24004 11.3245H4.17337C4.17337 10.2645 5.04671 9.40448 6.11337 9.40448C7.18004 9.40448 8.06004 10.2645 8.06004 11.3245H8.99337C8.99337 10.1978 8.32004 9.22448 7.36004 8.76448ZM6.06004 6.07115C6.68004 6.07115 7.18004 6.57115 7.18004 7.19115C7.18004 7.81115 6.68004 8.31115 6.06004 8.31115C5.44004 8.31115 4.94004 7.81115 4.94004 7.19115C4.94004 6.57115 5.44004 6.07115 6.06004 6.07115Z" fill="#303030"/>
</svg>
