<svg width="16" height="16" viewBox="0 0 16 16" fill="none" xmlns="http://www.w3.org/2000/svg">
<path d="M11.3299 12.7571V4.69042H9.57659C9.86326 4.33708 10.0433 3.89042 10.0433 3.39708C10.0433 2.26375 9.12326 1.34375 7.98992 1.34375C6.85659 1.34375 5.93659 2.26375 5.93659 3.39708C5.93659 3.89042 6.11659 4.33042 6.40325 4.69042H4.68326L4.66992 12.7571H6.57659V14.6704H7.51659L7.50326 11.8237H5.60325V5.62375H10.3766V11.8237H8.47659V14.6704H9.42326V12.7571H11.3299ZM7.98992 2.28375C8.60992 2.28375 9.10992 2.78375 9.10992 3.40375C9.10992 4.02375 8.60992 4.52375 7.98992 4.52375C7.36992 4.52375 6.86992 4.02375 6.86992 3.40375C6.86992 2.78375 7.36992 2.28375 7.98992 2.28375Z" fill="#303030"/>
</svg>
