<svg width="16" height="16" viewBox="0 0 16 16" fill="none" xmlns="http://www.w3.org/2000/svg">
<path d="M8.01332 14.6449C10.64 14.6449 12.7733 12.5116 12.7733 9.8849C12.7733 8.55156 12.22 7.3449 11.3333 6.47823V4.67823C11.3333 2.8449 9.83999 1.35156 8.00666 1.35156C6.17332 1.35156 4.67999 2.8449 4.67999 4.67823V6.47823C3.79332 7.3449 3.23999 8.55156 3.23999 9.8849C3.23999 12.5116 5.37332 14.6449 7.99999 14.6449H8.01332ZM5.62666 4.67823C5.62666 3.35823 6.69999 2.2849 8.01999 2.2849C9.33999 2.2849 10.4067 3.35823 10.4067 4.67823V5.77156C9.70666 5.3649 8.88666 5.1249 8.01332 5.1249C7.13999 5.1249 6.32666 5.3649 5.61999 5.77156V4.67823H5.62666ZM8.01332 6.05823C10.1267 6.05823 11.84 7.77823 11.84 9.8849C11.84 11.9916 10.12 13.7116 8.01332 13.7116C5.90666 13.7116 4.18666 11.9916 4.18666 9.8849C4.18666 7.77823 5.90666 6.05823 8.01332 6.05823Z" fill="#303030"/>
<path d="M7.54672 10.309V11.749H8.48005V10.309C8.92005 10.129 9.22672 9.70229 9.22672 9.20896C9.22672 8.54896 8.68672 8.01562 8.01338 8.01562C7.34005 8.01562 6.80005 8.54896 6.80005 9.20896C6.80005 9.70896 7.10672 10.129 7.54672 10.309Z" fill="#303030"/>
</svg>
