<svg width="16" height="16" viewBox="0 0 16 16" fill="none" xmlns="http://www.w3.org/2000/svg">
<g clip-path="url(#clip0_3923_4436)">
<path d="M3.50674 7.52579L3.72074 8.60512C3.06582 8.73889 2.48376 9.11072 2.08708 9.64873C1.69041 10.1867 1.50728 10.8527 1.57312 11.5179C1.63896 12.1831 1.94908 12.8002 2.44353 13.25C2.93798 13.6998 3.58164 13.9503 4.25007 13.9531C4.61323 13.9537 4.97275 13.8808 5.30697 13.7387C5.64119 13.5967 5.94318 13.3884 6.19474 13.1265C6.62961 12.6763 6.8937 12.0885 6.9414 11.4645L6.95007 11.2531V10.7031L10.3541 10.7038C10.4821 10.3789 10.7196 10.1088 11.0254 9.94018C11.3313 9.77157 11.6864 9.71496 12.0295 9.78014C12.3726 9.84532 12.6823 10.0282 12.905 10.2972C13.1277 10.5662 13.2496 10.9045 13.2496 11.2538C13.2496 11.603 13.1277 11.9414 12.905 12.2104C12.6823 12.4794 12.3726 12.6623 12.0295 12.7274C11.6864 12.7926 11.3313 12.736 11.0254 12.5674C10.7196 12.3988 10.4821 12.1287 10.3541 11.8038L8.00807 11.8031L7.9894 11.9311C7.87002 12.5935 7.57615 13.2121 7.13807 13.7231L6.98674 13.8898C6.57859 14.3133 6.07772 14.6362 5.52356 14.8332C4.9694 15.0302 4.37708 15.0959 3.79322 15.0251C3.20936 14.9543 2.6499 14.7489 2.1589 14.4252C1.66789 14.1014 1.25873 13.6681 0.963632 13.1594C0.668535 12.6506 0.495556 12.0803 0.458311 11.4934C0.421067 10.9064 0.520574 10.3188 0.748999 9.77687C0.977424 9.2349 1.32853 8.75336 1.77468 8.37014C2.22083 7.98692 2.74984 7.71249 3.32007 7.56846L3.50674 7.52579ZM8.00007 3.25312C8.28243 3.25313 8.55906 3.33282 8.79814 3.48306C9.03722 3.63329 9.22905 3.84795 9.35155 4.10236C9.47405 4.35676 9.52226 4.64058 9.49063 4.92117C9.45899 5.20175 9.3488 5.46771 9.17274 5.68846L10.3474 7.72112L10.5261 7.65446C10.8402 7.54772 11.167 7.48272 11.4981 7.46113L11.7501 7.45313C12.3691 7.45316 12.9788 7.60443 13.526 7.89378C14.0733 8.18312 14.5415 8.60178 14.8901 9.11334C15.2387 9.62491 15.457 10.2139 15.5261 10.829C15.5952 11.4442 15.5129 12.0669 15.2865 12.6431C15.0601 13.2192 14.6963 13.7313 14.2269 14.1348C13.7574 14.5384 13.1965 14.8211 12.5929 14.9584C11.9893 15.0958 11.3613 15.0836 10.7635 14.9229C10.1657 14.7622 9.61615 14.4579 9.16274 14.0365L9.00607 13.8818L9.80007 13.1211C10.1444 13.4805 10.5815 13.7377 11.0628 13.8643C11.5442 13.9909 12.0512 13.9819 12.5279 13.8384C13.0045 13.695 13.4321 13.4225 13.7636 13.0512C14.0951 12.6799 14.3175 12.2242 14.4063 11.7344C14.495 11.2447 14.4466 10.7399 14.2665 10.2759C14.0863 9.81187 13.7814 9.4067 13.3855 9.10511C12.9895 8.80353 12.5178 8.61727 12.0226 8.56692C11.5275 8.51656 11.028 8.60408 10.5794 8.81979L10.4021 8.91313L9.92607 9.18779L8.2194 6.23712C8.01542 6.26716 7.80744 6.25482 7.60845 6.20088C7.40945 6.14693 7.22371 6.05254 7.06283 5.9236C6.90195 5.79467 6.76937 5.63394 6.67338 5.45147C6.57739 5.269 6.52005 5.06871 6.50494 4.86308C6.48982 4.65746 6.51726 4.45093 6.58554 4.25639C6.65382 4.06184 6.76147 3.88346 6.90177 3.73238C7.04207 3.58131 7.21201 3.46078 7.40098 3.37832C7.58995 3.29586 7.79389 3.25324 8.00007 3.25312ZM8.00007 0.953125C8.605 0.952925 9.20124 1.09715 9.7392 1.3738C10.2772 1.65046 10.7413 2.05155 11.093 2.54372C11.4447 3.03589 11.6739 3.60493 11.7614 4.20349C11.8489 4.80206 11.7922 5.41287 11.5961 5.98512L11.5074 6.21779L10.4927 5.79379C10.6895 5.32207 10.7484 4.80418 10.6624 4.30033C10.5765 3.79648 10.3493 3.32738 10.0073 2.94755C9.66526 2.56773 9.22245 2.29278 8.73034 2.15469C8.23822 2.0166 7.71701 2.02103 7.22732 2.16746C6.73762 2.3139 6.29955 2.59633 5.96403 2.98191C5.62851 3.3675 5.40933 3.84039 5.33197 4.34563C5.25461 4.85087 5.32225 5.36768 5.52702 5.83599C5.73179 6.3043 6.06529 6.70487 6.48874 6.99113L6.65007 7.09179L7.1254 7.36713L5.42274 10.3178C5.64049 10.5909 5.75612 10.9314 5.7497 11.2806C5.74328 11.6298 5.61521 11.9658 5.38757 12.2307C5.15993 12.4955 4.84699 12.6727 4.50272 12.7315C4.15846 12.7904 3.80444 12.7273 3.50174 12.5531C3.19903 12.3788 2.9666 12.1044 2.84454 11.7772C2.72248 11.45 2.71844 11.0904 2.83311 10.7605C2.94778 10.4306 3.17397 10.1511 3.47268 9.97008C3.7714 9.7891 4.1239 9.71803 4.4694 9.76912L5.64274 7.73179L5.5534 7.66113C5.15864 7.32933 4.83564 6.92057 4.6041 6.4598C4.37257 5.99902 4.23736 5.49589 4.20674 4.98112L4.20007 4.75312C4.20007 3.7453 4.60042 2.77876 5.31306 2.06612C6.0257 1.35348 6.99225 0.953125 8.00007 0.953125Z" fill="#303030"/>
</g>
<defs>
<clipPath id="clip0_3923_4436">
<rect width="16" height="16" fill="white"/>
</clipPath>
</defs>
</svg>
