<svg width="16" height="16" viewBox="0 0 16 16" fill="none" xmlns="http://www.w3.org/2000/svg">
<path d="M4.18001 12.2745H11.82V13.7011H14.66V8.18781C14.66 7.80781 14.4733 7.47448 14.1867 7.26781V4.80781C14.1867 3.81448 13.38 3.00781 12.3867 3.00781H3.62001C2.62668 3.00781 1.82001 3.81448 1.82001 4.80781V7.26781C1.53335 7.47448 1.34668 7.80781 1.34668 8.18781V13.7011H4.18001V12.2745ZM3.62001 3.94115H12.38C12.86 3.94115 13.2467 4.32781 13.2467 4.80781V7.05448H12.2733V6.28781C12.2733 5.66115 11.8067 5.15448 11.2333 5.15448H9.52001C8.94668 5.15448 8.48001 5.66115 8.48001 6.28781V7.05448H7.50668V6.28781C7.50668 5.66115 7.04001 5.15448 6.46668 5.15448H4.75335C4.18001 5.15448 3.71335 5.66115 3.71335 6.28781V7.05448H2.74001V4.80781C2.74001 4.32781 3.12668 3.94115 3.60668 3.94115H3.62001ZM11.34 7.05448H9.41335V6.28781C9.41335 6.16781 9.48001 6.08781 9.52001 6.08781H11.2333C11.2667 6.08781 11.34 6.16781 11.34 6.28781V7.05448ZM6.58001 7.05448H4.66001V6.28781C4.66001 6.16781 4.72668 6.08781 4.76668 6.08781H6.48001C6.51335 6.08781 6.58668 6.16781 6.58668 6.28781V7.05448H6.58001ZM3.24668 12.7678H2.27335V8.18781C2.27335 8.07448 2.36668 7.98781 2.47335 7.98781H13.52C13.6333 7.98781 13.72 8.07448 13.72 8.18781V12.7678H12.7467V11.3411H3.24668V12.7678Z" fill="#303030"/>
</svg>
