<svg width="16" height="16" viewBox="0 0 16 16" fill="none" xmlns="http://www.w3.org/2000/svg">
<path d="M14.6601 7.55219L13.1668 6.05885C13.0868 5.86552 12.8601 5.83885 11.6534 5.83885L8.70009 2.99219H5.33342L2.53342 5.84552H1.34009V11.5655H3.50009C3.70675 12.3855 4.44675 12.9922 5.32675 12.9922C6.20675 12.9922 6.94675 12.3789 7.15342 11.5655H9.02009C9.22009 12.3922 9.96009 13.0122 10.8534 13.0122C11.7468 13.0122 12.4801 12.3989 12.6801 11.5722H14.6668V7.55219H14.6601ZM8.32009 3.91885L10.3068 5.83219H7.61342V3.91885H8.32009ZM5.72009 3.91885H6.68009V5.83885H3.84009L5.72675 3.91885H5.72009ZM5.32009 12.0522C4.79342 12.0522 4.36675 11.6255 4.36675 11.0989C4.36675 10.5722 4.79342 10.1455 5.32009 10.1455C5.84676 10.1455 6.27342 10.5722 6.27342 11.0989C6.27342 11.6255 5.84676 12.0522 5.32009 12.0522ZM10.8401 12.0589C10.3134 12.0589 9.88675 11.6322 9.88675 11.1055C9.88675 10.5789 10.3134 10.1522 10.8401 10.1522C11.3668 10.1522 11.7934 10.5789 11.7934 11.1055C11.7934 11.6322 11.3668 12.0589 10.8401 12.0589ZM13.7268 10.6189H12.6601C12.4468 9.81219 11.7134 9.21219 10.8401 9.21219C9.96675 9.21219 9.24009 9.81219 9.02009 10.6122H7.14009C6.92675 9.79885 6.19342 9.19885 5.32009 9.19885C4.44675 9.19885 3.70675 9.80552 3.50009 10.6189H2.27342V6.76552H12.5601L13.7268 7.93219V10.6189Z" fill="#303030"/>
</svg>
