<svg width="16" height="16" viewBox="0 0 16 16" fill="none" xmlns="http://www.w3.org/2000/svg">
<path d="M2.26335 1.33594H1.33002V14.6559H14.67V13.7226H2.26335V1.33594ZM8.51002 3.48927H8.43668C7.24335 3.49594 6.11668 4.29594 5.64335 5.4826L3.24335 11.4493L4.11002 11.7959L6.51002 5.82927C6.84335 4.99594 7.62335 4.42927 8.48335 4.4226C9.30335 4.4226 10.0767 4.99594 10.41 5.82927L12.8034 11.8026L13.67 11.4559L11.2767 5.4826C10.8034 4.3026 9.68335 3.5026 8.50335 3.49594H8.51002V3.48927ZM9.43002 7.52927H10.3634V8.4626H9.43002V7.52927ZM12.7634 7.52927H13.6967V8.4626H12.7634V7.52927ZM6.57002 7.52927H7.50335V8.4626H6.57002V7.52927ZM3.23668 7.52927H4.17002V8.4626H3.23668V7.52927Z" fill="#303030"/>
</svg>
