<svg width="16" height="16" viewBox="0 0 16 16" fill="none" xmlns="http://www.w3.org/2000/svg">
<path d="M1.33333 14.6557H12.04C13.48 14.6557 14.6533 13.4824 14.6533 12.0424C14.6533 10.6024 13.48 9.42906 12.04 9.42906H8.94666V6.54906L12.4467 6.52906L11.4867 7.48906L12.1467 8.14906L14.2133 6.0824L12.1467 4.01573L11.4867 4.67573L12.4133 5.6024L8.93999 5.6224V2.28906H1.32666V9.82906H1.33333V10.3624H12.04C12.9667 10.3624 13.72 11.1157 13.72 12.0424C13.72 12.9691 12.9667 13.7224 12.04 13.7224H1.33333V14.6557ZM8.01333 3.2224V9.42906H2.25999V3.2224H8.01333Z" fill="#303030"/>
<path d="M3.23328 12.0426C3.23328 11.6493 2.91328 11.3359 2.52661 11.3359C2.13995 11.3359 1.81995 11.6559 1.81995 12.0426C1.81995 12.4293 2.13995 12.7493 2.52661 12.7493C2.91328 12.7493 3.23328 12.4293 3.23328 12.0426Z" fill="#303030"/>
<path d="M5.61328 12.0426C5.61328 11.6493 5.29328 11.3359 4.90662 11.3359C4.51995 11.3359 4.19995 11.6559 4.19995 12.0426C4.19995 12.4293 4.51995 12.7493 4.90662 12.7493C5.29328 12.7493 5.61328 12.4293 5.61328 12.0426Z" fill="#303030"/>
<path d="M7.99329 12.0426C7.99329 11.6493 7.67329 11.3359 7.28662 11.3359C6.89996 11.3359 6.57996 11.6559 6.57996 12.0426C6.57996 12.4293 6.89996 12.7493 7.28662 12.7493C7.67329 12.7493 7.99329 12.4293 7.99329 12.0426Z" fill="#303030"/>
<path d="M10.3733 12.0426C10.3733 11.6493 10.0533 11.3359 9.66663 11.3359C9.27996 11.3359 8.95996 11.6559 8.95996 12.0426C8.95996 12.4293 9.27996 12.7493 9.66663 12.7493C10.0533 12.7493 10.3733 12.4293 10.3733 12.0426Z" fill="#303030"/>
<path d="M12.7533 12.0426C12.7533 11.6493 12.4333 11.3359 12.0466 11.3359C11.66 11.3359 11.34 11.6559 11.34 12.0426C11.34 12.4293 11.66 12.7493 12.0466 12.7493C12.4333 12.7493 12.7533 12.4293 12.7533 12.0426Z" fill="#303030"/>
</svg>
