<svg width="16" height="16" viewBox="0 0 16 16" fill="none" xmlns="http://www.w3.org/2000/svg">
<path d="M1.33997 1.34375H2.2733V14.6838H1.33997V1.34375Z" fill="#303030"/>
<path d="M5.14001 3.74219H6.09335V4.67552H5.14001V3.74219Z" fill="#303030"/>
<path d="M3.21997 3.74219H4.1733V4.67552H3.21997V3.74219Z" fill="#303030"/>
<path d="M5.1333 7.54688H6.08663V8.48021H5.1333V7.54688Z" fill="#303030"/>
<path d="M7.03992 7.54688H7.99325V8.48021H7.03992V7.54688Z" fill="#303030"/>
<path d="M3.21326 7.54688H4.16659V8.48021H3.21326V7.54688Z" fill="#303030"/>
<path d="M12.7466 7.54594V6.58594H9.89325V7.54594H8.95325V8.47927H9.89325V9.43927H12.7466V8.47927H14.6599V7.54594H12.7466ZM11.8132 8.50594H10.8266V7.51927H11.8132V8.50594Z" fill="#303030"/>
<path d="M8.00001 5.63458H10.8533V4.67458H14.66V3.74125H10.8533V2.78125H8.00001V3.74125H7.05334V4.67458H8.00001V5.63458ZM8.93334 3.71458H9.92001V4.70125H8.93334V3.71458Z" fill="#303030"/>
<path d="M5.14001 11.3438H6.09335V12.2771H5.14001V11.3438Z" fill="#303030"/>
<path d="M3.21997 11.3438H4.1733V12.2771H3.21997V11.3438Z" fill="#303030"/>
<path d="M10.8533 10.3828H8.00001V11.3428H7.05334V12.2761H8.00001V13.2361H10.8533V12.2761H14.66V11.3428H10.8533V10.3828ZM9.92001 12.3028H8.93334V11.3161H9.92001V12.3028Z" fill="#303030"/>
</svg>
