<svg width="16" height="16" viewBox="0 0 16 16" fill="none" xmlns="http://www.w3.org/2000/svg">
<path d="M11.8 12.663C12.2787 12.663 12.6667 12.275 12.6667 11.7964C12.6667 11.3177 12.2787 10.9297 11.8 10.9297C11.3214 10.9297 10.9333 11.3177 10.9333 11.7964C10.9333 12.275 11.3214 12.663 11.8 12.663Z" fill="#303030"/>
<path d="M11.8 9.53125C10.6 9.53125 9.53333 10.3979 9 11.7313C9.53333 13.0646 10.6 13.9979 11.8 13.9979C13 13.9979 14.0667 13.1313 14.6 11.7979C14.0667 10.4646 13 9.53125 11.7333 9.53125H11.8ZM11.8 13.1313C11.1333 13.1313 10.4667 12.6646 10 11.7979C10.4667 10.9979 11.1333 10.5312 11.8 10.5312C12.4667 10.5312 13.1333 11.0646 13.6 11.8646C13.1333 12.6646 12.4667 13.1313 11.8 13.1313Z" fill="#303030"/>
<path d="M1.33337 13.2635H8.00004V12.3302H2.26671V6.13021H13.7334V8.06354H14.6667V2.79688H1.33337V13.2635ZM2.26671 3.66354H13.7334V5.13021H2.26671V3.66354Z" fill="#303030"/>
</svg>
