<svg width="16" height="16" viewBox="0 0 16 16" fill="none" xmlns="http://www.w3.org/2000/svg">
<path d="M13.0733 6.39365C13.0733 3.59365 10.8 1.32031 7.99997 1.32031C5.19997 1.32031 2.92664 3.59365 2.92664 6.39365C2.92664 9.04031 4.9533 11.207 7.5333 11.447V12.2803H6.1133V13.2136H7.5333V14.667H8.46664V13.2136H9.89997V12.2803H8.46664V11.447C11.0533 11.2136 13.0733 9.04031 13.0733 6.39365ZM3.8533 6.39365C3.8533 4.10698 5.7133 2.25365 7.9933 2.25365C10.2733 2.25365 12.1333 4.11365 12.1333 6.39365C12.1333 8.67365 10.2733 10.5336 7.9933 10.5336C5.7133 10.5336 3.8533 8.67365 3.8533 6.39365Z" fill="#303030"/>
</svg>
