<svg width="16" height="16" viewBox="0 0 16 16" fill="none" xmlns="http://www.w3.org/2000/svg">
<path d="M2.9033 6.4026H11.5033V8.0026H12.4366V1.33594H1.96997V14.6693H7.23664V13.7359H2.9033V10.5359H7.23664V9.6026H2.9033V6.4026ZM2.9033 2.26927H11.5033V5.46927H2.9033V2.26927ZM12.7033 10.2026C12.4366 9.46927 11.77 9.0026 11.0366 9.0026C10.3033 9.0026 9.56997 9.53594 9.36997 10.2026C8.63664 10.4693 8.16997 11.1359 8.16997 11.8693C8.16997 12.6026 8.96997 13.6693 9.96997 13.6693H12.2366C13.2366 13.6693 14.0366 12.8693 14.0366 11.8693C14.0366 10.8693 13.57 10.4026 12.8366 10.2026H12.7033ZM12.1033 12.7359H9.83664C9.36997 12.7359 8.96997 12.3359 8.96997 11.8693C8.96997 11.4026 9.16997 11.2026 9.5033 11.1359L9.83664 11.4693L10.5033 10.8026L10.17 10.4693C10.3033 10.1359 10.57 9.93594 10.97 9.93594C11.37 9.93594 11.6366 10.1359 11.77 10.4693L11.4366 10.8026L12.1033 11.4693L12.4366 11.1359C12.77 11.2693 12.97 11.5359 12.97 11.8693C12.97 12.2026 12.57 12.7359 12.1033 12.7359Z" fill="#303030"/>
</svg>
