<svg width="16" height="16" viewBox="0 0 16 16" fill="none" xmlns="http://www.w3.org/2000/svg">
<path d="M2.74666 14.6571H7.99999V13.7237H3.67999L3.71332 2.27708H9.44666V5.13708H12.3067V8.01708H13.24V4.47708L10.1067 1.34375H2.77999L2.73999 14.6571H2.74666ZM10.38 2.93708L11.6467 4.20375H10.38V2.93708Z" fill="#303030"/>
<path d="M13.42 10.4062L12.2067 10.6996L10.9934 10.4062L10.64 11.5996L9.78003 12.4996L10.64 13.3996L10.9934 14.5929L12.2067 14.2996L13.42 14.5929L13.7734 13.3996L14.6334 12.4996L13.7734 11.5996L13.42 10.4062ZM13.0934 12.7662L12.94 12.9329L12.8734 13.1462L12.7734 13.4929L12.4267 13.4062L12.2067 13.3529L11.9867 13.4062L11.64 13.4929L11.54 13.1462L11.4734 12.9329L11.32 12.7662L11.0734 12.5062L11.32 12.2463L11.4734 12.0796L11.54 11.8663L11.64 11.5196L11.9867 11.6062L12.2067 11.6596L12.4267 11.6062L12.7734 11.5196L12.8734 11.8663L12.94 12.0796L13.0934 12.2463L13.34 12.5062L13.0934 12.7662Z" fill="#303030"/>
<path d="M5.14001 6.57812H10.84V7.51813H5.14001V6.57812ZM5.14001 9.42479H9.44001V8.49813H5.14001V9.42479Z" fill="#303030"/>
</svg>
