<svg width="16" height="16" viewBox="0 0 16 16" fill="none" xmlns="http://www.w3.org/2000/svg">
<path d="M2.34676 7.12604L1.42676 6.97938C1.53342 6.28604 1.75342 5.61938 2.07342 4.99938L2.90676 5.42604C2.63342 5.95938 2.44676 6.53271 2.35342 7.12604H2.34676ZM2.90676 10.606C2.62676 10.0727 2.43342 9.47271 2.34676 8.91271L1.42676 9.05271C1.52676 9.71938 1.75342 10.3994 2.08009 11.0327L2.90676 10.606ZM10.6201 14.1394C13.1068 13.086 14.6534 10.746 14.6534 8.01937C14.6534 4.03938 11.2134 1.35938 7.99342 1.35938C7.60009 1.35938 7.24676 1.39271 6.93342 1.45271L7.11342 2.36604C7.36009 2.31938 7.66676 2.29271 7.99342 2.29271C10.3934 2.29271 13.7201 4.27937 13.7201 8.01937C13.7201 10.3594 12.3934 12.3727 10.2534 13.2794C8.08009 14.1994 5.66009 13.7327 3.94676 12.066L3.29342 12.7327C4.60676 14.006 6.27342 14.6794 7.98676 14.6794C8.86676 14.6794 9.76009 14.4994 10.6201 14.1394ZM5.42676 2.91938L5.00009 2.08604C4.38009 2.40604 3.80676 2.81937 3.31342 3.31271L3.97342 3.97271C4.40009 3.54604 4.88676 3.19271 5.42676 2.91938ZM7.50676 10.486L11.6468 6.34604L10.9868 5.68604L7.50676 9.16604L5.93342 7.59271L5.27342 8.25271L7.50676 10.486Z" fill="#303030"/>
</svg>
