<svg width="16" height="16" viewBox="0 0 16 16" fill="none" xmlns="http://www.w3.org/2000/svg">
<path d="M7.10668 3.15917V12.8192L4.75335 11.0925L4.50668 10.9125H2.28001V5.06583H4.52001L4.76668 4.88583L7.10668 3.16583M8.04668 1.3125L4.22001 4.1325H1.36001L1.34668 11.8525H4.20668L8.03335 14.6725L8.04668 1.31917V1.3125Z" fill="#303030"/>
<path d="M11.3867 11.3298L10.72 10.6765C11.42 9.96979 11.8 9.02313 11.8 8.01646C11.8 7.00979 11.4134 6.06979 10.72 5.35646L11.3867 4.70312C12.26 5.58979 12.74 6.76312 12.74 8.01646C12.74 9.26979 12.26 10.4431 11.3867 11.3298Z" fill="#303030"/>
<path d="M9.67332 9.61177L9.00665 8.95844C9.25999 8.7051 9.39332 8.3651 9.39332 8.0051C9.39332 7.6451 9.25332 7.3051 9.00665 7.05177L9.67332 6.39844C10.1 6.83177 10.3333 7.39844 10.3333 8.0051C10.3333 8.61177 10.1 9.1851 9.67999 9.61177H9.67332Z" fill="#303030"/>
</svg>
