<svg width="16" height="16" viewBox="0 0 16 16" fill="none" xmlns="http://www.w3.org/2000/svg">
<path d="M2.45337 12.7626C2.45337 13.8093 3.3067 14.6559 4.3467 14.6559C5.3867 14.6559 6.24004 13.8026 6.24004 12.7626C6.24004 11.8826 5.63337 11.1426 4.81337 10.9293V7.85594L6.37337 9.41594H9.81337C10.02 10.2359 10.76 10.8426 11.6467 10.8426C12.6934 10.8426 13.54 9.98927 13.54 8.94927C13.54 7.90927 12.6867 7.05594 11.6467 7.05594C10.7667 7.05594 10.0267 7.6626 9.81337 8.4826H6.76004L4.81337 6.53594V5.0626C5.63337 4.85594 6.24004 4.11594 6.24004 3.22927C6.24004 2.1826 5.3867 1.33594 4.3467 1.33594C3.3067 1.33594 2.45337 2.18927 2.45337 3.22927C2.45337 4.10927 3.06004 4.84927 3.88004 5.0626V10.9293C3.06004 11.1359 2.45337 11.8759 2.45337 12.7626ZM11.6467 7.98927C12.18 7.98927 12.6067 8.4226 12.6067 8.94927C12.6067 9.47594 12.1734 9.90927 11.6467 9.90927C11.12 9.90927 10.6867 9.47594 10.6867 8.94927C10.6867 8.4226 11.12 7.98927 11.6467 7.98927ZM5.31337 12.7626C5.31337 13.2959 4.88004 13.7226 4.35337 13.7226C3.8267 13.7226 3.39337 13.2893 3.39337 12.7626C3.39337 12.2359 3.8267 11.8026 4.35337 11.8026C4.88004 11.8026 5.31337 12.2359 5.31337 12.7626ZM3.3867 3.23594C3.3867 2.7026 3.82004 2.27594 4.3467 2.27594C4.87337 2.27594 5.3067 2.70927 5.3067 3.23594C5.3067 3.7626 4.87337 4.19594 4.3467 4.19594C3.82004 4.19594 3.3867 3.7626 3.3867 3.23594Z" fill="#303030"/>
</svg>
