<svg width="16" height="16" viewBox="0 0 16 16" fill="none" xmlns="http://www.w3.org/2000/svg">
<path d="M11.17 5.76937L13.3834 7.98271L11.17 10.196L11.8367 10.856L14.7034 7.98271L11.83 5.10938L11.17 5.76937Z" fill="#303030"/>
<path d="M4.17004 5.10938L1.29004 7.98271L4.16337 10.856L4.82337 10.196L2.61004 7.98271L4.83004 5.76937L4.17004 5.10938Z" fill="#303030"/>
<path d="M7.98327 14.6818L10.8566 11.8151L10.1966 11.1551L7.98327 13.3684L5.76327 11.1484L5.10327 11.8084L7.98327 14.6818Z" fill="#303030"/>
<path d="M10.8566 4.18583L7.98327 1.3125L5.10327 4.1925L5.76327 4.8525L7.98327 2.6325L10.1966 4.84583L10.8566 4.18583Z" fill="#303030"/>
<path d="M6.5166 8.02594C6.5166 8.81927 7.16327 9.46594 7.9566 9.46594C8.74993 9.46594 9.3966 8.81927 9.3966 8.02594C9.3966 7.2326 8.74993 6.58594 7.9566 6.58594C7.16327 6.58594 6.5166 7.2326 6.5166 8.02594ZM8.4566 8.02594C8.4566 8.30594 8.22993 8.5326 7.94993 8.5326C7.66993 8.5326 7.44327 8.30594 7.44327 8.02594C7.44327 7.74594 7.66993 7.51927 7.94993 7.51927C8.22993 7.51927 8.4566 7.74594 8.4566 8.02594Z" fill="#303030"/>
</svg>
