<svg width="16" height="16" viewBox="0 0 16 16" fill="none" xmlns="http://www.w3.org/2000/svg">
<path d="M8.00675 1.32812C4.32675 1.32812 1.34009 4.30812 1.34009 7.99479C1.34009 11.6815 4.32675 14.6615 8.00675 14.6615C11.6868 14.6615 14.6734 11.6748 14.6734 7.99479C14.6734 4.31479 11.6868 1.32812 8.00675 1.32812ZM12.7401 4.76146C12.3001 4.94812 11.8268 5.11479 11.3201 5.24146C11.1734 4.74146 11.0001 4.26813 10.7801 3.84812C10.5068 3.32146 10.1734 2.88146 9.81342 2.54812C11.0134 2.94812 12.0401 3.73479 12.7401 4.75479V4.76146ZM10.8068 8.14812C10.8068 8.66812 10.7668 9.17479 10.6934 9.65479C9.98009 9.52146 9.24009 9.44146 8.47342 9.42146V6.57479C9.22009 6.55479 9.94009 6.47479 10.6334 6.34812C10.7401 6.92146 10.8068 7.52146 10.8068 8.14812ZM5.20675 8.14812C5.20675 7.52146 5.27342 6.92146 5.38009 6.34812C6.07342 6.47479 6.80009 6.54812 7.54009 6.56812V9.41479C6.77342 9.43479 6.02675 9.51479 5.32009 9.64812C5.24675 9.16812 5.20675 8.66146 5.20675 8.14146V8.14812ZM7.54009 2.79479V5.64146C6.87342 5.62146 6.22009 5.55479 5.60009 5.44812C5.72675 5.03479 5.87342 4.64812 6.05342 4.30146C6.46675 3.51479 6.98675 2.99479 7.54009 2.80146V2.79479ZM7.54009 10.3548V13.5081C6.66009 13.2081 5.90675 12.0815 5.51342 10.5681C6.16009 10.4481 6.84009 10.3748 7.54009 10.3548ZM8.47342 13.5081V10.3548C9.17342 10.3748 9.85342 10.4481 10.5001 10.5681C10.1001 12.0815 9.34675 13.2081 8.47342 13.5081ZM8.47342 5.64146V2.79479C9.02009 2.98812 9.54675 3.50812 9.95342 4.29479C10.1401 4.64146 10.2801 5.03479 10.4068 5.44812C9.78675 5.55479 9.14009 5.62812 8.46675 5.64812L8.47342 5.64146ZM6.18675 2.56146C5.83342 2.89479 5.50675 3.32812 5.23342 3.86146C5.01342 4.28146 4.84009 4.75479 4.69342 5.24812C4.18675 5.11479 3.71342 4.96146 3.27342 4.77479C3.97342 3.74812 4.99342 2.96812 6.19342 2.56146H6.18675ZM2.80675 5.58812C3.32009 5.81479 3.87342 6.00146 4.46675 6.15479C4.34675 6.79479 4.26675 7.46146 4.26675 8.15479C4.26675 8.74812 4.31342 9.32146 4.40009 9.86812C3.83342 10.0148 3.30009 10.1948 2.80675 10.4148C2.46675 9.68146 2.26675 8.86146 2.26675 8.00146C2.26675 7.14146 2.46009 6.32812 2.80009 5.59479H2.80675V5.58812ZM3.27342 11.2215C3.68009 11.0481 4.12675 10.8948 4.59342 10.7681C4.85342 11.7681 5.25342 12.6148 5.75342 13.2615C4.74675 12.8281 3.88675 12.1148 3.27342 11.2215ZM10.2601 13.2615C10.7668 12.6215 11.1668 11.7681 11.4201 10.7681C11.8868 10.8948 12.3268 11.0481 12.7334 11.2215C12.1201 12.1148 11.2601 12.8281 10.2601 13.2548V13.2615ZM13.1934 10.4148C12.7001 10.1948 12.1734 10.0081 11.6068 9.86146C11.6934 9.32146 11.7401 8.74812 11.7401 8.14812C11.7401 7.45479 11.6668 6.78812 11.5401 6.14812C12.1334 5.99479 12.6868 5.80146 13.1934 5.57479C13.5334 6.30812 13.7334 7.12146 13.7334 7.98812C13.7334 8.85479 13.5334 9.67479 13.1868 10.4081H13.1934V10.4148Z" fill="#303030"/>
</svg>
