<svg width="16" height="16" viewBox="0 0 16 16" fill="none" xmlns="http://www.w3.org/2000/svg">
<path d="M11.6467 8.28823L8.46003 5.10156L5.28003 8.28156L5.94003 8.94156L7.99336 6.88823L8.0067 12.2749L8.94003 12.2682L8.9267 6.8949L10.9867 8.94823L11.6467 8.28823Z" fill="#303030"/>
<path d="M1.33325 14.6782L1.36659 1.35156H2.29992L2.26659 13.7382L14.6333 13.7116V14.6449L1.33325 14.6782Z" fill="#303030"/>
<path d="M3.25317 2.77344H4.19984V3.70677H3.25317V2.77344Z" fill="#303030"/>
<path d="M5.15991 2.77344H6.10658V3.70677H5.15991V2.77344Z" fill="#303030"/>
<path d="M7.05981 2.77344H8.00648V3.70677H7.05981V2.77344Z" fill="#303030"/>
<path d="M8.98657 2.77344H9.93324V3.70677H8.98657V2.77344Z" fill="#303030"/>
<path d="M10.8667 2.77344H11.8134V3.70677H10.8667V2.77344Z" fill="#303030"/>
<path d="M12.7666 2.77344H13.7133V3.70677H12.7666V2.77344Z" fill="#303030"/>
</svg>
