<svg width="16" height="16" viewBox="0 0 16 16" fill="none" xmlns="http://www.w3.org/2000/svg">
<path d="M14.6533 7.99708C14.6533 11.6704 11.6667 14.6571 7.99335 14.6571C4.32001 14.6571 1.34668 11.6704 1.34668 7.99708C1.34668 6.21708 2.04001 4.55042 3.29335 3.29042L3.95335 3.95042C2.87335 5.03042 2.28001 6.47042 2.28001 7.99708C2.28001 11.1504 4.84668 13.7171 8.00001 13.7171C11.1533 13.7171 13.72 11.1504 13.72 7.99708C13.72 4.84375 11.4 2.53708 8.46668 2.29708V9.07042L10.52 7.01708L11.18 7.67708L7.99335 10.8637L4.81335 7.68375L5.47335 7.02375L7.52668 9.07708V2.28375V1.35708C7.66668 1.35708 7.85335 1.34375 7.99335 1.34375C11.6667 1.34375 14.6533 4.33042 14.6533 7.99708Z" fill="#303030"/>
</svg>
