<svg width="16" height="16" viewBox="0 0 16 16" fill="none" xmlns="http://www.w3.org/2000/svg">
<path d="M11.8367 10.8603L14.71 7.98698L11.83 5.11365L11.17 5.77365L13.39 7.98698L11.1767 10.2003L11.8367 10.8603ZM4.16337 5.11365L1.29004 7.98698L4.16337 10.8603L4.82337 10.2003L2.61004 7.98698L4.83004 5.77365L4.17004 5.11365H4.16337ZM7.97671 14.6803L10.85 11.8136L10.19 11.1536L7.97671 13.367L5.76337 11.147L5.10337 11.807L7.97671 14.6803ZM5.77004 4.86031L7.98337 2.64031L10.1967 4.85365L10.8567 4.19365L7.97671 1.32031L5.10337 4.20031L5.76337 4.86031H5.77004Z" fill="#303030"/>
</svg>
