<svg width="16" height="16" viewBox="0 0 16 16" fill="none" xmlns="http://www.w3.org/2000/svg">
<path d="M7.99998 1.33594C4.31998 1.33594 1.33331 4.3226 1.33331 8.0026C1.33331 11.6826 4.31998 14.6693 7.99998 14.6693C11.68 14.6693 14.6666 11.6826 14.6666 8.0026C14.6666 4.3226 11.68 1.33594 7.99998 1.33594ZM7.99998 13.7359C4.83998 13.7359 2.26665 11.1626 2.26665 8.0026C2.26665 4.8426 4.83998 2.26927 7.99998 2.26927C11.16 2.26927 13.7333 4.8426 13.7333 8.0026C13.7333 11.1626 11.16 13.7359 7.99998 13.7359Z" fill="#303030"/>
<path d="M10.0533 5.28906L7.99995 7.3424L5.94662 5.28906L5.28662 5.94906L7.33995 8.0024L5.28662 10.0557L5.94662 10.7157L7.99995 8.6624L10.0533 10.7157L10.7133 10.0557L8.65995 8.0024L10.7133 5.94906L10.0533 5.28906Z" fill="#303030"/>
</svg>
