<svg width="16" height="16" viewBox="0 0 16 16" fill="none" xmlns="http://www.w3.org/2000/svg">
<path d="M4.18001 14.6548H13.24V13.7081V12.2348V1.32812H4.29334C3.44668 1.32812 2.76001 2.01479 2.76001 2.86146V13.2415C2.76001 14.0281 3.39334 14.6615 4.18001 14.6615V14.6548ZM12.3067 13.7081H4.40001C4.01334 13.7081 3.69334 13.3948 3.69334 13.0015C3.69334 12.5815 4.03334 12.2415 4.45334 12.2415H12.3V13.7081H12.3067ZM4.29334 2.26146H12.3067V11.3081H4.46001C4.18668 11.3081 3.92668 11.3815 3.70001 11.4948V2.86146C3.70001 2.53479 3.96668 2.26146 4.30001 2.26146H4.29334ZM10.54 6.81479L9.88001 6.15479L8.55334 7.48146V4.31479H7.62001V7.48146L6.29334 6.16146L5.63334 6.82146L8.08001 9.26812L10.54 6.81479Z" fill="#303030"/>
</svg>
