<svg width="16" height="16" viewBox="0 0 16 16" fill="none" xmlns="http://www.w3.org/2000/svg">
<path d="M12.5033 7.94375V1.34375H2.04999V14.6571H7.28332V13.7238H2.98332V10.5304H7.28332V9.59708H2.98332V6.40375H11.57V7.95042H12.5033V7.94375ZM2.98332 5.47042V2.27708H11.57V5.47042H2.98332ZM4.39665 3.24375H5.34999V4.17708H4.39665V3.24375ZM4.39665 7.53042H5.34999V8.46375H4.39665V7.53042ZM4.39665 11.5771H5.34999V12.5104H4.39665V11.5771ZM12.37 11.9571C12.67 11.6371 12.8633 11.2104 12.8633 10.7371C12.8633 9.75708 12.0633 8.95708 11.0833 8.95708C10.1033 8.95708 9.30332 9.75708 9.30332 10.7371C9.30332 11.2104 9.48999 11.6371 9.79665 11.9571C8.87665 12.4304 8.23665 13.3771 8.23665 14.4837C8.23665 14.5437 8.24999 14.6038 8.25665 14.6637H9.18999C9.18999 14.6038 9.16999 14.5437 9.16999 14.4837C9.16999 13.4304 10.03 12.5704 11.0833 12.5704C12.1367 12.5704 12.9967 13.4304 12.9967 14.4837C12.9967 14.5437 12.9833 14.6038 12.9767 14.6637H13.91C13.91 14.6038 13.93 14.5437 13.93 14.4837C13.93 13.3771 13.29 12.4304 12.37 11.9571ZM11.0833 9.89042C11.55 9.89042 11.93 10.2704 11.93 10.7371C11.93 11.2038 11.55 11.5838 11.0833 11.5838C10.6167 11.5838 10.2367 11.2038 10.2367 10.7371C10.2367 10.2704 10.6167 9.89042 11.0833 9.89042Z" fill="#303030"/>
</svg>
