<svg width="16" height="16" viewBox="0 0 16 16" fill="none" xmlns="http://www.w3.org/2000/svg">
<path d="M3.68661 14.6508C3.07995 14.6508 2.47328 14.4174 2.01328 13.9574C1.55328 13.4974 1.31995 12.9174 1.31995 12.2841C1.31995 11.6508 1.56661 11.0574 2.01328 10.6108L7.19328 5.43078C7.07995 4.30411 7.47328 3.18411 8.27328 2.38411C9.29328 1.36411 10.8399 1.01745 12.2133 1.51078L12.9066 1.75745L10.3266 4.33745L11.6333 5.64411L14.2199 3.05745L14.4733 3.73745C14.9866 5.11745 14.6466 6.68411 13.6133 7.71745C12.7999 8.53078 11.6466 8.93078 10.5066 8.79745L5.35328 13.9508C4.89328 14.4108 4.28661 14.6441 3.67995 14.6441L3.68661 14.6508ZM10.9266 2.22411C10.1933 2.22411 9.47995 2.51078 8.93995 3.05078C8.29995 3.69078 7.99995 4.61745 8.15328 5.52411L8.19328 5.75745L2.67995 11.2708C2.11995 11.8308 2.11995 12.7374 2.67995 13.2908C3.23995 13.8441 4.14661 13.8441 4.69995 13.2908L10.1933 7.79745L10.4333 7.84411C11.3533 8.01078 12.2999 7.71745 12.9599 7.06411C13.5533 6.47078 13.8399 5.65078 13.7733 4.83745L11.6399 6.97078L9.01328 4.34411L11.1266 2.23078C11.0599 2.23078 10.9933 2.22411 10.9266 2.22411Z" fill="#303030"/>
</svg>
