<svg width="16" height="16" viewBox="0 0 16 16" fill="none" xmlns="http://www.w3.org/2000/svg">
<path d="M13.7566 4.87692H10.13C10.2833 4.68359 10.3633 4.45692 10.3633 4.21025V3.95692C10.3633 3.63692 10.2233 3.34359 9.96329 3.12359C9.64996 2.85692 9.19662 2.73692 8.74996 2.81025L3.63662 3.69692H1.32996V13.2169H8.90329C9.18329 13.2236 9.45662 13.1169 9.64329 12.9303C9.80329 12.7703 9.88996 12.5636 9.88996 12.3503L9.90329 11.4569C10.4366 11.4303 10.8633 11.0369 10.8633 10.5569V9.56359C11.39 9.54359 11.8166 9.15025 11.8166 8.67692V7.68359H13.6833C14.23 7.68359 14.6766 7.29025 14.6766 6.80359V5.69025C14.6766 5.23692 14.2633 4.86359 13.7566 4.86359V4.87692ZM2.26996 4.63025H3.74329V12.2836H2.26996V4.63025ZM13.7433 6.75025C13.7433 6.75025 13.71 6.75692 13.69 6.75692H11.4233L11.3633 6.77025V6.75692H8.48329V7.69025H10.8966V8.62359C10.8966 8.62359 10.8566 8.63692 10.83 8.63692H10.47C10.47 8.63692 10.4433 8.64359 10.43 8.64359H8.48329V9.57692H9.94329L9.95662 10.5036C9.95662 10.5036 9.92329 10.5236 9.88329 10.5303H8.47662V11.4636H8.98329L8.96996 12.2903C8.96996 12.2903 8.93662 12.2969 8.91662 12.2969H4.68329V4.46359L8.90996 3.73025C9.11662 3.69692 9.27662 3.76359 9.36329 3.83692C9.39662 3.86359 9.43662 3.91025 9.43662 3.96359V4.21692C9.43662 4.27025 9.38329 4.34359 9.29662 4.39025L8.68329 4.88359H7.07662V5.81692H13.75V6.75025H13.7433Z" fill="#303030"/>
</svg>
