<svg width="16" height="16" viewBox="0 0 16 16" fill="none" xmlns="http://www.w3.org/2000/svg">
<path d="M1.92 8.12406C1.92 8.25013 1.89517 8.37497 1.84692 8.49144C1.79868 8.60791 1.72797 8.71374 1.63882 8.80289C1.54968 8.89203 1.44385 8.96274 1.32738 9.01099C1.2109 9.05923 1.08607 9.08406 0.96 9.08406C0.833931 9.08406 0.709096 9.05923 0.592624 9.01099C0.476151 8.96274 0.370322 8.89203 0.281177 8.80289C0.192033 8.71374 0.12132 8.60791 0.0730757 8.49144C0.0248311 8.37497 -1.87857e-09 8.25013 0 8.12406C3.79395e-09 7.86945 0.101143 7.62527 0.281178 7.44524C0.461212 7.26521 0.705392 7.16406 0.96 7.16406C1.21461 7.16406 1.45879 7.26521 1.63882 7.44524C1.81886 7.62527 1.92 7.86945 1.92 8.12406Z" fill="#303030"/>
<path d="M5.44002 8.12406C5.44002 8.37867 5.33888 8.62285 5.15884 8.80289C4.97881 8.98292 4.73463 9.08406 4.48002 9.08406C4.22541 9.08406 3.98123 8.98292 3.8012 8.80289C3.62116 8.62285 3.52002 8.37867 3.52002 8.12406C3.52002 7.86945 3.62116 7.62527 3.8012 7.44524C3.98123 7.26521 4.22541 7.16406 4.48002 7.16406C4.73463 7.16406 4.97881 7.26521 5.15884 7.44524C5.33888 7.62527 5.44002 7.86945 5.44002 8.12406Z" fill="#303030"/>
<path d="M8.96004 8.12406C8.96004 8.25013 8.93521 8.37497 8.88696 8.49144C8.83872 8.60791 8.76801 8.71374 8.67886 8.80289C8.58972 8.89203 8.48389 8.96274 8.36742 9.01099C8.25094 9.05923 8.12611 9.08406 8.00004 9.08406C7.87397 9.08406 7.74914 9.05923 7.63266 9.01099C7.51619 8.96274 7.41036 8.89203 7.32122 8.80289C7.23207 8.71374 7.16136 8.60791 7.11311 8.49144C7.06487 8.37497 7.04004 8.25013 7.04004 8.12406C7.04004 7.86945 7.14118 7.62527 7.32122 7.44524C7.50125 7.26521 7.74543 7.16406 8.00004 7.16406C8.25465 7.16406 8.49883 7.26521 8.67886 7.44524C8.8589 7.62527 8.96004 7.86945 8.96004 8.12406Z" fill="#303030"/>
<path d="M12.4801 8.12406C12.4801 8.25013 12.4552 8.37497 12.407 8.49144C12.3587 8.60791 12.288 8.71374 12.1989 8.80289C12.1097 8.89203 12.0039 8.96274 11.8874 9.01099C11.771 9.05923 11.6461 9.08406 11.5201 9.08406C11.394 9.08406 11.2692 9.05923 11.1527 9.01099C11.0362 8.96274 10.9304 8.89203 10.8412 8.80289C10.7521 8.71374 10.6814 8.60791 10.6331 8.49144C10.5849 8.37497 10.5601 8.25013 10.5601 8.12406C10.5601 7.86945 10.6612 7.62527 10.8412 7.44524C11.0213 7.26521 11.2655 7.16406 11.5201 7.16406C11.7747 7.16406 12.0188 7.26521 12.1989 7.44524C12.3789 7.62527 12.4801 7.86945 12.4801 8.12406Z" fill="#303030"/>
<path d="M16.0001 8.12406C16.0001 8.25013 15.9752 8.37497 15.927 8.49144C15.8788 8.60791 15.808 8.71374 15.7189 8.80289C15.6298 8.89203 15.5239 8.96274 15.4075 9.01099C15.291 9.05923 15.1661 9.08406 15.0401 9.08406C14.914 9.08406 14.7892 9.05923 14.6727 9.01099C14.5562 8.96274 14.4504 8.89203 14.3613 8.80289C14.2721 8.71374 14.2014 8.60791 14.1532 8.49144C14.1049 8.37497 14.0801 8.25013 14.0801 8.12406C14.0801 7.86945 14.1812 7.62527 14.3613 7.44524C14.5413 7.26521 14.7855 7.16406 15.0401 7.16406C15.2947 7.16406 15.5389 7.26521 15.7189 7.44524C15.8989 7.62527 16.0001 7.86945 16.0001 8.12406Z" fill="#303030"/>
</svg>
