<svg width="16" height="16" viewBox="0 0 16 16" fill="none" xmlns="http://www.w3.org/2000/svg">
<path d="M13.7333 4.40208C13.7333 4.67542 13.5133 4.90208 13.2333 4.90208C12.9533 4.90208 12.7333 4.68208 12.7333 4.40208C12.7333 4.12208 13.2333 3.46875 13.2333 3.46875C13.2333 3.46875 13.7333 4.12208 13.7333 4.40208Z" fill="#303030"/>
<path d="M11.3533 2.9724C11.3533 3.24573 11.1333 3.4724 10.8533 3.4724C10.5733 3.4724 10.3533 3.2524 10.3533 2.9724C10.3533 2.6924 10.8533 2.03906 10.8533 2.03906C10.8533 2.03906 11.3533 2.6924 11.3533 2.9724Z" fill="#303030"/>
<path d="M4.14667 3.36302C4.14667 3.63635 3.92667 3.86302 3.64667 3.86302C3.36667 3.86302 3.14667 3.64302 3.14667 3.36302C3.14667 3.08302 3.64667 2.42969 3.64667 2.42969C3.64667 2.42969 4.14667 3.08302 4.14667 3.36302Z" fill="#303030"/>
<path d="M7.1 14.644C6.57333 14.644 5.79333 14.2906 5.79333 13.324H6.72667C6.72667 13.6706 6.98667 13.7106 7.1 13.7106C7.30667 13.7106 7.36667 13.6506 7.38667 13.624C7.44667 13.564 7.54667 13.3906 7.54 12.9106V8.39062H8.47334V12.904C8.48 13.5306 8.34667 13.984 8.05333 14.2773C7.81333 14.5173 7.49333 14.6373 7.1 14.6373V14.644Z" fill="#303030"/>
<path d="M8.46667 3.8V3H7.53333V3.8C4.52 4.04 2.14667 6.56 2.14667 9.63333V10.1H5.51333V9.16667H3.1C3.33333 6.66667 5.44667 4.71333 8 4.71333C10.5533 4.71333 12.6667 6.67333 12.9 9.16667H10.4867V10.1H13.86V9.63333C13.86 6.56 11.48 4.04 8.46667 3.8Z" fill="#303030"/>
</svg>
