<svg width="16" height="16" viewBox="0 0 16 16" fill="none" xmlns="http://www.w3.org/2000/svg">
<path d="M7.96006 14.6969C11.6601 14.6969 14.6534 11.6969 14.6534 8.00354C14.6534 4.31021 11.6601 1.29688 7.96006 1.29688C4.26006 1.29688 1.26672 4.29687 1.26672 7.99021C1.26672 11.6835 4.26672 14.6835 7.96006 14.6835V14.6969ZM7.96006 2.23021C11.1401 2.23021 13.7201 4.81687 13.7201 7.99021C13.7201 11.1635 11.1334 13.7502 7.96006 13.7502C4.78672 13.7502 2.20006 11.1702 2.20006 7.99021C2.20006 4.81021 4.78672 2.23021 7.96006 2.23021ZM8.34006 10.5102L6.29339 8.46354H10.8601V7.52354L6.29339 7.53021L8.34672 5.48354L7.68672 4.82354L4.50672 7.99687L7.68006 11.1702L8.34006 10.5102Z" fill="#303030"/>
</svg>
