<svg width="16" height="16" viewBox="0 0 16 16" fill="none" xmlns="http://www.w3.org/2000/svg">
<path d="M8.00004 1.33594C4.32004 1.33594 1.33337 4.3226 1.33337 8.0026C1.33337 11.6826 4.32004 14.6693 8.00004 14.6693C11.68 14.6693 14.6667 11.6826 14.6667 8.0026C14.6667 4.3226 11.68 1.33594 8.00004 1.33594ZM8.00004 13.7359C4.84004 13.7359 2.26671 11.1626 2.26671 8.0026C2.26671 4.8426 4.84004 2.26927 8.00004 2.26927C11.16 2.26927 13.7334 4.8426 13.7334 8.0026C13.7334 11.1626 11.16 13.7359 8.00004 13.7359ZM8.46004 9.75594V5.1226H7.53337V9.75594L5.48004 7.70927L4.82004 8.36927L7.99337 11.5426L11.1734 8.3626L10.5067 7.7026L8.46004 9.75594Z" fill="#303030"/>
</svg>
