<svg width="16" height="16" viewBox="0 0 16 16" fill="none" xmlns="http://www.w3.org/2000/svg">
<path d="M14.6667 2.75781H1.33337V13.2311H14.66V2.75781H14.6667ZM13.7334 12.3045H2.26671V3.69115H13.7267V12.2978H13.7334V12.3045ZM4.78004 9.94448C5.10004 10.1378 5.48004 10.2311 5.92004 10.2311C6.52004 10.2311 6.98004 10.0711 7.30004 9.75115C7.62004 9.43115 7.79337 9.01781 7.82671 8.51781H6.89337C6.85337 8.81781 6.76004 9.05115 6.60004 9.22448C6.44004 9.39781 6.21337 9.48448 5.91337 9.48448C5.67337 9.48448 5.47337 9.41781 5.30671 9.29115C5.14004 9.16448 5.02004 8.99115 4.94004 8.77781C4.86004 8.56448 4.82004 8.31781 4.82004 8.04448C4.82004 7.77115 4.86004 7.51781 4.93337 7.30448C5.01337 7.09115 5.13337 6.91781 5.30004 6.79115C5.46671 6.66448 5.67337 6.60448 5.91337 6.60448C6.19337 6.60448 6.41337 6.68448 6.56671 6.83781C6.72004 6.99115 6.82004 7.20448 6.86004 7.47781H7.78671C7.77337 7.17115 7.68671 6.89115 7.54004 6.65115C7.39337 6.41115 7.18671 6.21781 6.91337 6.07781C6.64004 5.93781 6.31337 5.86448 5.92004 5.86448C5.48004 5.86448 5.10004 5.95781 4.78004 6.15115C4.46004 6.34448 4.22004 6.60448 4.06004 6.93115C3.90004 7.25781 3.81337 7.63115 3.81337 8.04448C3.81337 8.45781 3.89337 8.83115 4.06004 9.15781C4.22004 9.48448 4.46004 9.74448 4.78004 9.93781V9.94448ZM9.25337 9.94448C9.57337 10.1378 9.95337 10.2311 10.3934 10.2311C10.9934 10.2311 11.4534 10.0711 11.7734 9.75115C12.0934 9.43115 12.2667 9.01781 12.3 8.51781H11.3667C11.3267 8.81781 11.2334 9.05115 11.0734 9.22448C10.9134 9.39781 10.6867 9.48448 10.3867 9.48448C10.1467 9.48448 9.94671 9.41781 9.78004 9.29115C9.61337 9.16448 9.49337 8.99115 9.41337 8.77781C9.33337 8.56448 9.29337 8.31781 9.29337 8.04448C9.29337 7.77115 9.33337 7.51781 9.40671 7.30448C9.48671 7.09115 9.60671 6.91781 9.77337 6.79115C9.94004 6.66448 10.1467 6.60448 10.3867 6.60448C10.6667 6.60448 10.8867 6.68448 11.04 6.83781C11.1934 6.99115 11.2934 7.20448 11.3334 7.47781H12.26C12.2467 7.17115 12.16 6.89115 12.0134 6.65115C11.8667 6.41115 11.66 6.21781 11.3867 6.07781C11.1134 5.93781 10.7867 5.86448 10.3934 5.86448C9.95337 5.86448 9.57337 5.95781 9.25337 6.15115C8.93337 6.34448 8.69337 6.60448 8.53337 6.93115C8.37337 7.25781 8.28671 7.63115 8.28671 8.04448C8.28671 8.45781 8.36671 8.83115 8.53337 9.15781C8.69337 9.48448 8.93337 9.74448 9.25337 9.93781V9.94448Z" fill="#303030"/>
</svg>
