<svg width="16" height="16" viewBox="0 0 16 16" fill="none" xmlns="http://www.w3.org/2000/svg">
<path d="M7.99323 1.3125C5.36656 1.3125 3.22656 3.4525 3.22656 6.07917C3.22656 6.93917 3.4599 7.77917 3.8999 8.51917L8.00656 14.6592L11.9732 8.70583L12.0599 8.56583C12.5199 7.81917 12.7599 6.95917 12.7599 6.07917C12.7599 3.4525 10.6199 1.3125 7.99323 1.3125ZM11.2599 8.07917L7.9999 12.9725L4.71323 8.05917L4.32656 8.31917L4.6999 8.0325C4.34656 7.44583 4.16656 6.76583 4.16656 6.0725C4.16656 3.95917 5.88656 2.23917 7.9999 2.23917C10.1132 2.23917 11.8332 3.95917 11.8332 6.0725C11.8332 6.77917 11.6399 7.4725 11.2732 8.0725L11.2599 8.07917Z" fill="#303030"/>
<path d="M7.9932 3.71875C6.81986 3.71875 5.85986 4.67875 5.85986 5.85208C5.85986 7.02542 6.81986 7.98542 7.9932 7.98542C9.16653 7.98542 10.1265 7.02542 10.1265 5.85208C10.1265 4.67875 9.16653 3.71875 7.9932 3.71875ZM7.9932 7.05208C7.3332 7.05208 6.7932 6.51208 6.7932 5.85208C6.7932 5.19208 7.3332 4.65208 7.9932 4.65208C8.6532 4.65208 9.1932 5.19208 9.1932 5.85208C9.1932 6.51208 8.6532 7.05208 7.9932 7.05208Z" fill="#303030"/>
</svg>
