<svg width="16" height="16" viewBox="0 0 16 16" fill="none" xmlns="http://www.w3.org/2000/svg">
<path d="M8.00669 2.26927C11.1667 2.26927 13.74 4.8426 13.74 8.0026C13.74 11.1626 11.1667 13.7359 8.00669 13.7359C4.84669 13.7359 2.27336 11.1626 2.27336 8.0026C2.27336 4.8426 4.84669 2.26927 8.00669 2.26927ZM8.00669 1.33594C4.32003 1.33594 1.34003 4.3226 1.34003 8.0026C1.34003 11.6826 4.32669 14.6693 8.00669 14.6693C11.6867 14.6693 14.6734 11.6826 14.6734 8.0026C14.6734 4.3226 11.6867 1.33594 8.00669 1.33594ZM11.1734 5.4826L10.5134 4.8226L8.60669 6.72927C8.42003 6.6426 8.22003 6.58927 8.00003 6.58927C7.22003 6.58927 6.58669 7.2226 6.58669 8.0026C6.58669 8.2226 6.64003 8.4226 6.72669 8.60927L4.81336 10.5226L5.47336 11.1826L7.38669 9.26927C7.57336 9.3626 7.78003 9.41594 8.00003 9.41594C8.78003 9.41594 9.41336 8.7826 9.41336 8.0026C9.41336 7.7826 9.36003 7.57594 9.26669 7.38927L11.1667 5.48927H11.1734V5.4826ZM7.53336 3.23594H8.46669V4.18927H7.53336V3.23594ZM7.53336 11.8093H8.46669V12.7626H7.53336V11.8093ZM3.24003 7.52927H4.19336V8.4626H3.24003V7.52927ZM11.8067 7.53594H12.76V8.46927H11.8067V7.53594Z" fill="#303030"/>
</svg>
