<svg width="16" height="16" viewBox="0 0 16 16" fill="none" xmlns="http://www.w3.org/2000/svg">
<path d="M9.6533 7.10365H8.4533V5.90365H7.51997V7.10365H6.31997V8.03698H7.51997V9.23698H8.4533V8.03698H9.6533V7.10365ZM14.6466 7.13698L11.0333 3.52365H9.8933C9.8933 2.99698 9.46663 2.57031 8.93997 2.57031C8.4133 2.57031 7.98663 2.99698 7.98663 3.52365H1.33997V12.077H2.68663C2.88663 12.8503 3.58663 13.4303 4.42663 13.4303C5.26663 13.4303 5.9533 12.857 6.16663 12.0903H9.8333C10.04 12.857 10.74 13.4303 11.5733 13.4303C12.4066 13.4303 13.1133 12.857 13.3133 12.077H14.66V7.13031H14.6466V7.13698ZM4.4133 12.5036C3.9333 12.5036 3.53997 12.1103 3.53997 11.6303C3.53997 11.1503 3.9333 10.757 4.4133 10.757C4.8933 10.757 5.28663 11.1503 5.28663 11.6303C5.28663 12.1103 4.8933 12.5036 4.4133 12.5036ZM11.56 12.5036C11.08 12.5036 10.6866 12.1103 10.6866 11.6303C10.6866 11.1503 11.08 10.757 11.56 10.757C12.04 10.757 12.4333 11.1503 12.4333 11.6303C12.4333 12.1103 12.04 12.5036 11.56 12.5036ZM13.7066 11.157H13.2866C13.0733 10.397 12.38 9.83031 11.5533 9.83031C10.7266 9.83031 10.0266 10.4036 9.8133 11.1703H6.14663C5.93997 10.4036 5.23997 9.83031 4.40663 9.83031C3.5733 9.83031 2.88663 10.397 2.6733 11.157H2.2533V4.46365H10.6333L13.7 7.52365V11.1503L13.7066 11.157Z" fill="#303030"/>
</svg>
