<svg width="16" height="16" viewBox="0 0 16 16" fill="none" xmlns="http://www.w3.org/2000/svg">
<path d="M8.00004 1.34375C4.32004 1.34375 1.33337 4.33042 1.33337 8.01042C1.33337 11.6904 4.32004 14.6771 8.00004 14.6771C11.68 14.6771 14.6667 11.6904 14.6667 8.01042C14.6667 4.33042 11.68 1.34375 8.00004 1.34375ZM8.00004 13.7437C4.84004 13.7437 2.26671 11.1704 2.26671 8.01042C2.26671 4.85042 4.84004 2.27708 8.00004 2.27708C11.16 2.27708 13.7334 4.85042 13.7334 8.01042C13.7334 11.1704 11.16 13.7437 8.00004 13.7437ZM10.5267 5.77708L11.1867 6.43708L7.04671 10.5771L4.81337 8.34375L5.47337 7.68375L7.04671 9.25708L10.5267 5.77708Z" fill="#303030"/>
</svg>
