<svg width="16" height="16" viewBox="0 0 16 16" fill="none" xmlns="http://www.w3.org/2000/svg">
<path d="M8.97673 7.07479H14.6701V1.32812H8.97673V7.08146V7.07479ZM9.91673 2.25479H13.7434V6.14146H9.91673V2.25479ZM1.37006 14.6615H7.05006L4.21006 8.96146L1.37006 14.6615ZM2.87673 13.7281L4.21006 11.0548L5.54339 13.7281H2.87673ZM4.15673 7.04813C5.73006 7.04813 7.00339 5.77479 7.00339 4.20146C7.00339 2.62813 5.73006 1.35479 4.15673 1.35479C2.58339 1.35479 1.31006 2.62813 1.31006 4.20146C1.31006 5.77479 2.58339 7.04813 4.15673 7.04813ZM4.15673 2.28813C5.21006 2.28813 6.07006 3.14813 6.07006 4.20146C6.07006 5.25479 5.21006 6.11479 4.15673 6.11479C3.10339 6.11479 2.24339 5.25479 2.24339 4.20146C2.24339 3.14813 3.10339 2.28813 4.15673 2.28813ZM13.0101 14.6748L14.6901 12.9948V10.6215L13.0101 8.94146H10.6367L8.95673 10.6215V12.9948L10.6367 14.6748H13.0101ZM9.89673 11.0215L11.0301 9.88813H12.6301L13.7634 11.0215V12.6215L12.6301 13.7548H11.0301L9.89673 12.6215V11.0215Z" fill="#303030"/>
</svg>
