<svg width="16" height="16" viewBox="0 0 16 16" fill="none" xmlns="http://www.w3.org/2000/svg">
<path d="M13.6933 7.10375C13.6 6.51042 13.4133 5.93708 13.14 5.40375L13.9733 4.97708C14.2933 5.59708 14.5067 6.26375 14.62 6.95708L13.7 7.10375H13.6933ZM14.6133 9.03708L13.6933 8.89708C13.6067 9.45708 13.4067 10.0571 13.1333 10.5904L13.96 11.0171C14.2867 10.3904 14.5133 9.70375 14.6133 9.03708ZM12.06 12.0704C11.66 12.4704 11.1467 12.8371 10.6067 13.1038L11.02 13.9371C11.6533 13.6237 12.24 13.2038 12.72 12.7238L12.06 12.0638V12.0704ZM7.99334 14.6504V13.7171C5.20667 13.6971 2.31334 11.5504 2.31334 7.99708C2.31334 4.26375 5.64001 2.27708 8.03334 2.27708C8.36001 2.27708 8.66667 2.30375 8.91334 2.35042L9.09334 1.43708C8.78667 1.37708 8.42667 1.34375 8.03334 1.34375C4.82001 1.34375 1.38 4.01708 1.38 7.99708C1.38 11.9771 4.74667 14.6237 7.99334 14.6504ZM12.72 3.29042C12.22 2.79708 11.6533 2.38375 11.0333 2.06375L10.6067 2.89708C11.14 3.17042 11.6333 3.52375 12.06 3.95042L12.72 3.29042ZM8.40001 5.39042H7.46667V8.44375L10.1067 11.0971L10.7667 10.4371L8.40001 8.05708V5.39042Z" fill="#303030"/>
</svg>
