<svg width="16" height="16" viewBox="0 0 16 16" fill="none" xmlns="http://www.w3.org/2000/svg">
<path d="M7.96673 12.2833H2.28673V4.71L8.02006 10.3967L13.7334 4.69667V8.03667H14.6667V2.75H1.35339V13.2233H7.96673V12.29V12.2833ZM8.02006 9.07667L2.56673 3.67667H13.4267L8.01339 9.07667H8.02006Z" fill="#303030"/>
<path d="M13.0401 9.80469C12.0468 9.80469 11.3734 10.3847 11.3201 11.278C11.0534 11.0847 10.7134 10.9714 10.3134 10.9714C9.3201 10.9714 8.68677 11.6447 8.68677 12.618C8.68677 13.5914 9.3201 14.2647 10.3134 14.2647C11.3068 14.2647 11.9401 13.5914 11.9401 12.618V12.5647C12.1734 12.7114 12.4668 12.7847 12.8134 12.7847C12.9868 12.7847 13.1468 12.7447 13.3001 12.678L12.0134 14.178H13.0868L14.0534 12.938C14.3268 12.598 14.7001 12.0247 14.7001 11.3514C14.7001 10.4247 14.1068 9.80469 13.0334 9.80469H13.0401ZM10.3134 13.558C9.8401 13.558 9.63343 13.2114 9.63343 12.618C9.63343 12.0247 9.8401 11.678 10.3134 11.678C10.7868 11.678 10.9934 12.0514 10.9934 12.618C10.9934 13.1847 10.7868 13.558 10.3134 13.558ZM13.0334 12.2114C12.5468 12.2114 12.2734 11.8514 12.2734 11.378C12.2734 10.878 12.5601 10.5047 13.0401 10.5047C13.5201 10.5047 13.8001 10.878 13.8001 11.3514C13.8001 11.8247 13.5201 12.2114 13.0334 12.2114Z" fill="#303030"/>
</svg>
