<svg width="16" height="16" viewBox="0 0 16 16" fill="none" xmlns="http://www.w3.org/2000/svg">
<path d="M13.24 12.2426V1.33594H4.29334C3.44668 1.33594 2.76001 2.0226 2.76001 2.86927V13.2493C2.76001 14.0359 3.39334 14.6693 4.18001 14.6693H13.24V13.7226V12.2493V12.2426ZM4.40001 13.7159C4.01334 13.7159 3.69334 13.4026 3.69334 13.0093C3.69334 12.5893 4.03334 12.2493 4.45334 12.2493H12.3V13.7159H4.40001ZM4.29334 2.26927H12.3067V11.3159H4.46001C4.18668 11.3159 3.92668 11.3893 3.70001 11.5026V2.86927C3.70001 2.5426 3.96668 2.26927 4.30001 2.26927H4.29334ZM10.46 9.47594L8.82001 6.79594L10.3333 4.23594H9.23334L8.14001 6.17594L7.02668 4.23594H5.83334L7.36001 6.77594L5.71334 9.47594H6.87334L8.04668 7.46927L9.33334 9.47594H10.46Z" fill="#303030"/>
</svg>
