<svg width="16" height="16" viewBox="0 0 16 16" fill="none" xmlns="http://www.w3.org/2000/svg">
<path d="M8.38662 11.8205V12.7539L2.45328 12.7672L8.37328 1.36719L11.58 7.78052L10.7466 8.20052L8.35995 3.42719L3.99328 11.8339L8.38662 11.8205ZM1.69995 14.6072L8.37328 14.6339V13.7005L1.69995 13.6739V14.6072ZM13.3 8.61385C13.8533 8.61385 14.3 9.06052 14.3 9.61385C14.3 10.1672 13.8533 10.6139 13.3 10.6139C13.1266 10.6139 12.9666 10.5672 12.8266 10.4939L11.3 11.5139V11.6139C11.3 11.6539 11.3 11.6939 11.2933 11.7272L12.8066 12.7405C12.9533 12.6605 13.12 12.6139 13.3 12.6139C13.8533 12.6139 14.3 13.0605 14.3 13.6139C14.3 14.1672 13.8533 14.6139 13.3 14.6139C12.7466 14.6139 12.3 14.1672 12.3 13.6139V13.5272L10.76 12.5005C10.62 12.5739 10.4666 12.6139 10.2933 12.6139C9.73995 12.6139 9.29328 12.1672 9.29328 11.6139C9.29328 11.0605 9.73995 10.6139 10.2933 10.6139C10.4666 10.6139 10.6333 10.6605 10.7733 10.7339L12.3 9.71385V9.60719C12.3 9.05385 12.7466 8.60719 13.3 8.60719V8.61385Z" fill="#303030"/>
</svg>
