<svg width="16" height="16" viewBox="0 0 16 16" fill="none" xmlns="http://www.w3.org/2000/svg">
<path d="M10.7133 4.05708L7.99999 1.34375L5.27999 4.06375L5.93999 4.72375L7.52666 3.13042V6.02375L8.45333 6.03042V3.12375L10.0533 4.71708L10.7133 4.05708ZM11.2933 5.92375L12.88 7.51042H9.98666V8.43708H12.8867L11.3 10.0371L11.96 10.6971L14.6733 7.98375L11.9533 5.26375L11.2933 5.92375ZM7.53999 9.96375L7.52666 12.8704L5.93999 11.2771L5.27999 11.9371L7.99333 14.6504L10.7133 11.9304L10.0533 11.2704L8.45999 12.8637L8.47333 9.97042H7.53999V9.96375ZM4.69999 10.0238L3.11333 8.43708L6.01333 8.42375V7.49042L3.11999 7.50375L4.70666 5.91708L4.04666 5.25708L1.32666 7.97708L4.03999 10.6838L4.69999 10.0238Z" fill="#303030"/>
</svg>
