<svg width="16" height="16" viewBox="0 0 16 16" fill="none" xmlns="http://www.w3.org/2000/svg">
<path d="M7.01323 14.6003C7.34657 14.6603 7.67323 14.6936 7.9999 14.6936C10.7732 14.6936 13.0199 12.447 13.0199 9.67365C13.0199 8.84031 12.8466 8.05365 12.5066 7.36698C12.2532 6.84698 11.8532 6.39365 11.3666 6.08698C9.68657 5.02698 8.45323 3.32031 8.00657 1.32031C6.65323 1.71365 5.58657 2.94698 5.58657 4.42031C5.58657 5.19365 5.86657 5.89365 6.31323 6.44698C6.05323 7.00031 5.49323 7.38698 4.8399 7.38698C4.42657 7.38698 4.0599 7.22698 3.76657 6.98031C3.08657 8.04698 2.79323 9.37364 3.0999 10.787C3.5199 12.707 5.08657 14.2336 7.01323 14.6003ZM4.1799 8.24031C4.39323 8.30031 4.6199 8.32698 4.8399 8.32698C5.82657 8.32698 6.73323 7.74698 7.15323 6.85365L7.3999 6.32698L7.03323 5.87365C6.79323 5.58031 6.51323 5.08698 6.51323 4.43365C6.51323 3.73365 6.8599 3.08698 7.4199 2.65365C8.07323 4.38698 9.2799 5.89365 10.8599 6.88698C11.1999 7.10031 11.4799 7.41365 11.6599 7.78698C11.9332 8.34698 12.0732 8.98698 12.0732 9.68031C12.0732 11.1936 11.2466 12.5136 10.0199 13.2203C10.2932 12.8403 10.4599 12.3736 10.4599 11.8736C10.4599 11.487 10.3799 11.127 10.2199 10.807C10.0999 10.567 9.9199 10.3603 9.69323 10.2136C8.91323 9.72031 8.3399 8.93365 8.13323 8.00031C7.50657 8.18031 7.01323 8.75364 7.01323 9.44031C7.01323 9.80031 7.14657 10.1203 7.35323 10.3803C7.23323 10.6403 6.97323 10.8136 6.67323 10.8136C6.4799 10.8136 6.31323 10.7403 6.1799 10.627C5.86657 11.1203 5.72657 11.7403 5.86657 12.3936C5.95323 12.8003 6.1599 13.167 6.4399 13.467C5.23323 12.9736 4.29323 11.9003 4.01323 10.607C3.8399 9.80698 3.8999 8.99365 4.1799 8.25364V8.24031Z" fill="#303030"/>
</svg>
