<svg width="16" height="16" viewBox="0 0 16 16" fill="none" xmlns="http://www.w3.org/2000/svg">
<path d="M11.5733 4.94813C11.3333 3.18813 9.84001 1.82812 8.02001 1.82812C6.20001 1.82812 4.70668 3.18813 4.46668 4.94813C2.71335 5.17479 1.34668 6.66146 1.34668 8.48146C1.34668 10.3015 2.56668 11.6481 4.19335 11.9881V11.0215C3.09335 10.7015 2.28001 9.68813 2.28001 8.48146C2.28001 7.16813 3.27335 6.04146 4.58668 5.87479L5.30001 5.78146L5.39335 5.06812C5.56668 3.75479 6.70001 2.76146 8.02001 2.76146C9.34001 2.76146 10.4667 3.75479 10.6467 5.06812L10.74 5.76813L11.44 5.86813C12.74 6.05479 13.72 7.17479 13.72 8.48146C13.72 9.68813 12.9133 10.7081 11.8067 11.0215V11.9881C13.4333 11.6481 14.6533 10.2015 14.6533 8.48146C14.6533 6.67479 13.3133 5.19479 11.5733 4.94813ZM7.72668 11.7015L8.38668 12.3615L6.57335 14.1748L4.76668 12.3681L5.42668 11.7081L6.11335 12.3948V8.96813H7.04668V12.3881L7.73335 11.7015H7.72668ZM9.90668 7.87479L11.7133 9.68146L11.0533 10.3415L10.3667 9.65479V12.9081H9.43335V9.65479L8.74668 10.3415L8.08668 9.68146L9.90001 7.86813L9.90668 7.87479Z" fill="#303030"/>
</svg>
