<svg width="16" height="16" viewBox="0 0 16 16" fill="none" xmlns="http://www.w3.org/2000/svg">
<path d="M4.18001 14.6704H13.24V13.7237V12.2504V1.34375H4.29334C3.44668 1.34375 2.76001 2.03042 2.76001 2.87708V13.2571C2.76001 14.0437 3.39334 14.6771 4.18001 14.6771V14.6704ZM12.3067 13.7237H4.40001C4.01334 13.7237 3.69334 13.4104 3.69334 13.0171C3.69334 12.5971 4.03334 12.2571 4.45334 12.2571H12.3V13.7237H12.3067ZM4.29334 2.27708H12.3067V11.3237H4.46001C4.18668 11.3237 3.92668 11.3971 3.70001 11.5104V2.87708C3.70001 2.55042 3.96668 2.27708 4.30001 2.27708H4.29334ZM7.36001 4.87042C7.54001 4.69042 7.80001 4.59708 8.14001 4.59708C8.40668 4.59708 8.61334 4.65042 8.76001 4.76375C8.90668 4.87708 8.97334 5.03042 8.97334 5.23708C8.97334 5.39708 8.92668 5.54375 8.82668 5.67042C8.72668 5.79708 8.57334 5.95042 8.36668 6.13042C8.19334 6.29042 8.05334 6.42375 7.94668 6.53708C7.84001 6.65042 7.74668 6.79042 7.67334 6.94375C7.60001 7.10375 7.56001 7.27708 7.56001 7.47042V7.69708H8.52001V7.52375C8.52001 7.39042 8.54668 7.27042 8.60001 7.16375C8.65334 7.05042 8.72001 6.95708 8.80001 6.86375C8.88001 6.77708 8.98668 6.66375 9.13334 6.52375C9.30001 6.37042 9.44001 6.23708 9.54668 6.11042C9.65334 5.98375 9.74668 5.84375 9.82001 5.68375C9.89334 5.52375 9.93334 5.33708 9.93334 5.13042C9.93334 4.73042 9.78668 4.41042 9.49334 4.17042C9.20001 3.93042 8.77334 3.81042 8.22001 3.81042C7.80001 3.81042 7.43334 3.88375 7.12001 4.03708C6.80668 4.18375 6.56001 4.39708 6.38668 4.67708C6.21334 4.95708 6.11334 5.27708 6.10001 5.65708H7.06001C7.08001 5.31042 7.18001 5.05042 7.36001 4.86375V4.87042ZM7.56001 8.31042H8.56001V9.54375H7.56001V8.31042Z" fill="#303030"/>
</svg>
