<svg width="16" height="16" viewBox="0 0 16 16" fill="none" xmlns="http://www.w3.org/2000/svg">
<path d="M6.5733 1.32812H9.4333V2.26146H6.5733V1.32812Z" fill="#303030"/>
<path d="M12.9066 3.37875L11.7066 4.58542C10.7066 3.73875 9.41332 3.21875 7.99998 3.21875C4.83998 3.21875 2.27332 5.78542 2.27332 8.94542C2.27332 12.1054 4.83998 14.6721 7.99998 14.6721C11.16 14.6721 13.7266 12.1054 13.7266 8.94542C13.7266 7.53208 13.2133 6.23875 12.3666 5.23875L13.5733 4.03208L12.9133 3.37208L12.9066 3.37875ZM7.99998 13.7454C5.35998 13.7454 3.20665 11.5921 3.20665 8.95208C3.20665 6.31208 5.35332 4.15875 7.99998 4.15875C10.6466 4.15875 12.7933 6.31208 12.7933 8.95208C12.7933 11.5921 10.6466 13.7454 7.99998 13.7454Z" fill="#303030"/>
<path d="M7.52667 6.09375H8.46001V9.66042H7.52667V6.09375Z" fill="#303030"/>
</svg>
