<svg width="16" height="16" viewBox="0 0 16 16" fill="none" xmlns="http://www.w3.org/2000/svg">
<path d="M11.3267 12.7102V4.64354H9.57339C9.86005 4.29021 10.0401 3.84354 10.0401 3.35021C10.0401 2.21688 9.12005 1.29688 7.98672 1.29688C6.85339 1.29688 5.93339 2.21688 5.93339 3.35021C5.93339 3.84354 6.11339 4.29021 6.40005 4.64354H4.68005V12.7102H6.58005V14.6235H7.52005L7.50672 11.7769H5.60672V5.57688H10.3801V11.7769H8.48005V14.6235H9.42672V12.7102H11.3201H11.3267ZM7.99339 2.23687C8.61339 2.23687 9.11339 2.73687 9.11339 3.35687C9.11339 3.97688 8.61339 4.47687 7.99339 4.47687C7.37339 4.47687 6.87339 3.97688 6.87339 3.35687C6.87339 2.73687 7.37339 2.23687 7.99339 2.23687Z" fill="#303030"/>
</svg>
