<svg width="16" height="16" viewBox="0 0 16 16" fill="none" xmlns="http://www.w3.org/2000/svg">
<path d="M4.81331 11.5439L3.01331 3.01719H1.80664V2.08385H3.77331L5.07997 8.26385H12.38L13.3 4.43719L14.2066 4.65719L13.1133 9.19719H5.26664L5.56664 10.6105H12.7666V11.5439H4.81331ZM6.78664 13.1572C6.78664 13.8372 6.23331 14.3905 5.55331 14.3905C4.87331 14.3905 4.31997 13.8372 4.31997 13.1572C4.31997 12.4772 4.87331 11.9239 5.55331 11.9239C6.23331 11.9239 6.78664 12.4772 6.78664 13.1572ZM5.85331 13.1572C5.85331 12.9905 5.71997 12.8572 5.55331 12.8572C5.38664 12.8572 5.25331 12.9905 5.25331 13.1572C5.25331 13.3239 5.38664 13.4572 5.55331 13.4572C5.71997 13.4572 5.85331 13.3239 5.85331 13.1572ZM13.6466 13.1572C13.6466 13.8372 13.0933 14.3905 12.4133 14.3905C11.7333 14.3905 11.18 13.8372 11.18 13.1572C11.18 12.4772 11.7333 11.9239 12.4133 11.9239C13.0933 11.9239 13.6466 12.4772 13.6466 13.1572ZM12.7133 13.1572C12.7133 12.9905 12.58 12.8572 12.4133 12.8572C12.2466 12.8572 12.1133 12.9905 12.1133 13.1572C12.1133 13.3239 12.2466 13.4572 12.4133 13.4572C12.58 13.4572 12.7133 13.3239 12.7133 13.1572ZM8.34664 6.87052C8.06664 6.51052 6.64664 4.67719 6.64664 3.68385C6.64664 2.54385 7.57331 1.61719 8.71331 1.61719C9.85331 1.61719 10.78 2.54385 10.78 3.68385C10.78 4.67719 9.36664 6.51719 9.07997 6.87052L8.71331 7.33052L8.34664 6.87052ZM7.58664 3.68385C7.58664 4.09052 8.16664 5.04385 8.71997 5.81052C9.27331 5.04385 9.85331 4.09052 9.85331 3.68385C9.85331 3.06385 9.34664 2.55052 8.71997 2.55052C8.09331 2.55052 7.58664 3.05719 7.58664 3.68385ZM9.33997 3.63052C9.33997 3.28385 9.05997 3.00385 8.71331 3.00385C8.36664 3.00385 8.08664 3.28385 8.08664 3.63052C8.08664 3.97719 8.36664 4.25719 8.71331 4.25719C9.05997 4.25719 9.33997 3.97719 9.33997 3.63052Z" fill="#303030"/>
</svg>
