<svg width="16" height="16" viewBox="0 0 16 16" fill="none" xmlns="http://www.w3.org/2000/svg">
<path d="M9.24001 1.33594C11.3933 1.33594 13.1467 3.0826 13.1467 5.23594C13.1467 5.4026 13.1333 5.56927 13.1133 5.73594C13.8067 6.09594 14.3533 6.72927 14.5667 7.5426C14.9133 8.82927 14.3267 10.1426 13.2267 10.7759C13.4333 12.0026 12.7 13.2226 11.48 13.5893C10.8533 13.7759 10.2133 13.7093 9.66668 13.4493C8.92668 14.1893 7.86668 14.6693 6.76668 14.6693C4.61335 14.6693 2.86001 12.9226 2.86001 10.7693C2.86001 10.5493 2.88001 10.3693 2.91335 10.1893C1.72001 9.58927 1.07335 8.21594 1.43335 6.87594C1.64668 6.07594 2.18001 5.44927 2.85335 5.08927C2.70001 3.89594 3.42668 2.73594 4.62001 2.3826C5.24668 2.19594 5.89335 2.2626 6.44001 2.5226C7.14668 1.78927 8.14668 1.33594 9.24668 1.33594H9.24001ZM3.84668 10.2893C3.81335 10.4559 3.80001 10.5893 3.80001 10.7693C3.80001 12.4093 5.13335 13.7359 6.77335 13.7359C7.74668 13.7359 8.70001 13.2359 9.25335 12.5226L9.72668 10.0693L9.23335 9.08927L6.49335 7.8226L3.85335 10.2893H3.84668ZM10.1667 12.6559C10.4867 12.7826 10.8533 12.8093 11.2067 12.7026C11.9267 12.4826 12.3733 11.8026 12.32 11.0826L12.2733 11.0693L10.56 10.5893L10.16 12.6559H10.1667ZM10.1467 8.8426L10.5333 9.60927L12.4 10.1359C13.3733 9.80927 13.9333 8.7826 13.6667 7.78927C13.52 7.23594 13.1467 6.8026 12.6733 6.5626L10.1533 8.84927L10.1467 8.8426ZM3.54001 5.79594C2.96668 6.00927 2.50668 6.4826 2.34001 7.11594C2.08668 8.05594 2.56668 9.01594 3.43335 9.39594L5.82001 7.16927L5.35335 6.29594L3.54001 5.79594ZM9.24001 2.26927C8.24668 2.26927 7.36668 2.75594 6.82668 3.50927L6.16668 5.84927L6.73335 6.90927L9.48668 8.1826L12.1667 5.74927C12.1933 5.5826 12.2133 5.40927 12.2133 5.23594C12.2133 3.59594 10.88 2.26927 9.24001 2.26927ZM5.90668 3.30927C5.59335 3.18927 5.23335 3.16927 4.88001 3.26927C4.16001 3.48927 3.71335 4.16927 3.76668 4.88927L5.34001 5.3226L5.90668 3.3026V3.30927Z" fill="#303030"/>
</svg>
