<svg width="16" height="16" viewBox="0 0 16 16" fill="none" xmlns="http://www.w3.org/2000/svg">
<path d="M12.2266 14.6509C13.5266 14.6509 14.5866 13.5909 14.5866 12.2909C14.5866 10.9909 13.5266 9.93094 12.2266 9.93094C12.1933 9.93094 12.16 9.9376 12.1266 9.94427L11.92 9.12427C12.2066 9.03094 12.5133 8.97094 12.82 8.97094V8.0376C12.4333 8.0376 12.06 8.10427 11.6933 8.2176L11.38 6.9576C11.5533 7.2776 11.8866 7.4976 12.28 7.4976V5.44427C11.72 5.44427 11.2666 5.89094 11.2533 6.45094L10.6933 4.21094H9.37997V5.14427H9.95997L10.1933 6.09094H7.87331C7.01997 6.09094 6.31331 6.73094 6.19997 7.55094H3.28664C2.69997 7.55094 2.21997 8.03094 2.21997 8.6176V9.4576H1.34664V10.3909H2.28664C1.69997 10.8176 1.30664 11.5109 1.30664 12.2976C1.30664 13.5976 2.36664 14.6576 3.66664 14.6576C4.72664 14.6576 5.61997 13.9443 5.91331 12.9776H9.96664C10.26 13.9443 11.1533 14.6576 12.2133 14.6576L12.2266 14.6509ZM13.6533 12.2909C13.6533 13.0776 13.0133 13.7176 12.2266 13.7176C11.44 13.7176 10.8 13.0776 10.8 12.2909C10.8 11.7909 11.06 11.3509 11.4533 11.0976L11.8266 12.5843L12.7333 12.3576L12.3666 10.8776C13.0933 10.9443 13.66 11.5509 13.66 12.2909H13.6533ZM3.16664 8.61094C3.16664 8.5376 3.22664 8.4776 3.29997 8.4776H7.13331V7.77094C7.13331 7.3576 7.47331 7.0176 7.88664 7.0176H10.44L11.0466 9.4576H3.16664V8.6176V8.61094ZM3.67997 13.7176C2.89331 13.7176 2.25331 13.0776 2.25331 12.2909C2.25331 11.5043 2.85331 10.9109 3.60664 10.8709L3.11331 12.2243L3.98664 12.5443L4.49997 11.1309C4.85997 11.3909 5.09997 11.8109 5.09997 12.2909C5.09997 13.0776 4.45997 13.7176 3.67331 13.7176H3.67997ZM5.05997 10.3909H10.84C10.3133 10.7709 9.95997 11.3643 9.88664 12.0443H6.00664C5.93331 11.3643 5.57997 10.7709 5.05331 10.3909H5.05997Z" fill="#303030"/>
</svg>
