<svg width="16" height="16" viewBox="0 0 16 16" fill="none" xmlns="http://www.w3.org/2000/svg">
<path d="M14.6334 4.72719L11.3267 1.36719L7.95337 4.69385L8.6067 5.36052L10.8467 3.15385L10.8934 14.6939H11.8267L11.78 3.15385L13.9667 5.38052L14.6334 4.72719Z" fill="#303030"/>
<path d="M3.95331 9.9375C3.95331 10.0575 3.94665 10.1442 3.92665 10.2042C3.90665 10.2575 3.87998 10.2975 3.83998 10.3242C3.79998 10.3442 3.73331 10.3575 3.65331 10.3575H3.18665V11.1975H3.95998V13.7508H4.97331V9.9375H3.95998H3.95331Z" fill="#303030"/>
<path d="M4.17337 7.26844L4.48003 6.92844C4.70003 6.68177 4.8667 6.4751 5.00003 6.30844C5.1267 6.14177 5.23337 5.96177 5.32003 5.7751C5.4067 5.58844 5.4467 5.38844 5.4467 5.18844C5.4467 4.8551 5.33337 4.60177 5.10003 4.42177C4.8667 4.24177 4.5467 4.14844 4.14003 4.14844C3.6867 4.14844 3.3267 4.26177 3.06003 4.4951C2.79337 4.72844 2.66003 5.06177 2.66003 5.50844H3.5467C3.5467 5.28844 3.60003 5.12177 3.69337 5.0151C3.7867 4.90844 3.92003 4.8551 4.09337 4.8551C4.24003 4.8551 4.35337 4.88844 4.4267 4.96177C4.50003 5.0351 4.53337 5.14177 4.53337 5.28177C4.53337 5.42844 4.4867 5.58844 4.3867 5.76177C4.2867 5.9351 4.17337 6.0951 4.04003 6.2551C3.9067 6.4151 3.7467 6.58844 3.55337 6.78844L2.78003 7.58844V8.04844H5.54003V7.28177H4.17337V7.26844Z" fill="#303030"/>
</svg>
