<svg width="16" height="16" viewBox="0 0 16 16" fill="none" xmlns="http://www.w3.org/2000/svg">
<path d="M6.02004 10.0493L6.58671 9.3826C6.98004 9.75594 7.50671 10.0093 8.02004 10.0093C8.64004 10.0093 8.98004 9.72927 8.98004 9.3026C8.98004 8.84927 8.62671 8.7026 8.12671 8.49594L7.37337 8.16927C6.83337 7.9426 6.26004 7.51594 6.26004 6.70927C6.26004 5.82927 7.03337 5.15594 8.10671 5.15594C8.74671 5.15594 9.37337 5.4226 9.80004 5.85594L9.30004 6.47594C8.94671 6.17594 8.57337 6.0026 8.10671 6.0026C7.58671 6.0026 7.24671 6.24927 7.24671 6.64927C7.24671 7.0826 7.66671 7.2426 8.12004 7.42927L8.86004 7.7426C9.51337 8.01594 9.97337 8.42927 9.97337 9.22927C9.97337 10.1226 9.23337 10.8626 8.00004 10.8626C7.25337 10.8626 6.54004 10.5693 6.02004 10.0559V10.0493ZM8.00004 2.26927C11.16 2.26927 13.7334 4.8426 13.7334 8.0026C13.7334 11.1626 11.16 13.7359 8.00004 13.7359C4.84004 13.7359 2.26671 11.1626 2.26671 8.0026C2.26671 4.8426 4.84004 2.26927 8.00004 2.26927ZM8.00004 1.33594C4.32004 1.33594 1.33337 4.3226 1.33337 8.0026C1.33337 11.6826 4.32004 14.6693 8.00004 14.6693C11.68 14.6693 14.6667 11.6826 14.6667 8.0026C14.6667 4.3226 11.68 1.33594 8.00004 1.33594Z" fill="#303030"/>
</svg>
