<svg width="16" height="16" viewBox="0 0 16 16" fill="none" xmlns="http://www.w3.org/2000/svg">
<path d="M13.207 13.6969V11.2969V6.09687C13.207 5.83021 13.0737 5.56354 12.9404 5.36354C12.807 5.23021 12.5404 5.09687 12.3404 5.09687H11.4737C11.4737 4.56354 11.0737 4.09687 10.607 4.09687H9.60703C9.60703 3.56354 9.20703 3.16354 8.74036 3.16354H7.74036C7.74036 2.43021 7.27369 2.29688 6.8737 2.29688H5.74036C5.27369 2.29688 4.94036 2.69687 4.94036 3.23021V4.83021C4.74036 4.69687 4.54036 4.56354 4.27369 4.56354H4.00703C3.67369 4.56354 3.40703 4.69687 3.14036 4.96354C2.87369 5.29687 2.74036 5.76354 2.80703 6.16354L3.67369 11.2969V13.6302H13.207V13.6969ZM12.2737 12.7635H4.60703V11.2969H12.2737V12.7635ZM3.80703 5.69688C3.80703 5.69688 3.87369 5.63021 3.94036 5.63021H4.20703C4.20703 5.63021 4.34036 5.63021 4.40703 5.76354L4.87369 6.36354V7.96354H5.80703V6.29687V3.29687H6.74036V6.49687H7.6737V4.09687H8.60703V4.49687V6.43021H9.54036V4.96354H10.4737V6.36354H11.407V5.83021H12.207V10.0969H4.40703L3.67369 5.89688C3.67369 5.69688 3.67369 5.49687 3.80703 5.43021V5.69688Z" fill="#303030"/>
</svg>
