<svg width="16" height="16" viewBox="0 0 16 16" fill="none" xmlns="http://www.w3.org/2000/svg">
<path d="M14.6366 14.6637H1.34998V1.34375H2.28331V13.7371H14.6366V14.6704V14.6637ZM6.02998 8.49708C6.81664 8.49708 7.46331 9.13708 7.46331 9.93042C7.46331 10.7238 6.82331 11.3638 6.02998 11.3638C5.23664 11.3638 4.59664 10.7238 4.59664 9.93042C4.59664 9.13708 5.23664 8.49708 6.02998 8.49708ZM6.02998 7.57042C4.72331 7.57042 3.66331 8.63042 3.66331 9.93708C3.66331 11.2437 4.72331 12.3038 6.02998 12.3038C7.33664 12.3038 8.39664 11.2437 8.39664 9.93708C8.39664 8.63042 7.33664 7.57042 6.02998 7.57042ZM7.30331 6.15042C6.25664 6.15042 5.40998 5.29708 5.40998 4.25708C5.40998 3.21708 6.26331 2.36375 7.30331 2.36375C8.34331 2.36375 9.19664 3.21708 9.19664 4.25708C9.19664 5.29708 8.34331 6.15042 7.30331 6.15042ZM7.30331 3.29708C6.76998 3.29708 6.34331 3.73042 6.34331 4.25708C6.34331 4.78375 6.77664 5.21708 7.30331 5.21708C7.82998 5.21708 8.26331 4.78375 8.26331 4.25708C8.26331 3.73042 7.82998 3.29708 7.30331 3.29708ZM12.75 9.86375C11.7033 9.86375 10.8566 9.01042 10.8566 7.97042C10.8566 6.93042 11.71 6.07708 12.75 6.07708C13.79 6.07708 14.6433 6.93042 14.6433 7.97042C14.6433 9.01042 13.79 9.86375 12.75 9.86375ZM12.75 6.99708C12.2166 6.99708 11.79 7.43042 11.79 7.95708C11.79 8.48375 12.2233 8.91708 12.75 8.91708C13.2766 8.91708 13.71 8.48375 13.71 7.95708C13.71 7.43042 13.2766 6.99708 12.75 6.99708Z" fill="#303030"/>
</svg>
