<svg width="16" height="16" viewBox="0 0 16 16" fill="none" xmlns="http://www.w3.org/2000/svg">
<path d="M12.24 9.08594L9.80005 10.3326V13.3459L12.2334 14.5859L14.6734 13.3459V10.3326L12.2334 9.08594H12.24ZM13.1467 10.5926L12.24 11.0859L11.3267 10.5926L12.24 10.1259L13.1467 10.5926ZM10.7334 11.3393L11.7734 11.8993V13.2993L10.7334 12.7726V11.3393ZM12.7067 13.2926V11.8993L13.7467 11.3326V12.7659L12.7067 13.2926Z" fill="#303030"/>
<path d="M7.99342 11.7858H5.14009C3.04675 11.7858 1.34009 10.0792 1.34009 7.97917C1.34009 6.19917 2.59342 4.66583 4.31342 4.28583C4.70675 2.56583 6.24009 1.3125 8.02675 1.3125C9.81342 1.3125 11.3468 2.5725 11.7401 4.28583C13.4334 4.68583 14.6734 6.2125 14.6801 7.9725H13.7468C13.7468 6.55917 12.6801 5.34583 11.2734 5.14583L10.9268 5.0925L10.8801 4.74583C10.6868 3.31917 9.46675 2.24583 8.03342 2.24583C6.60009 2.24583 5.38009 3.31917 5.18675 4.7525L5.14009 5.10583L4.78675 5.1525C3.36009 5.33917 2.28675 6.5525 2.28675 7.98583C2.28675 9.56583 3.57342 10.8592 5.15342 10.8592H8.00675V11.7925L7.99342 11.7858Z" fill="#303030"/>
</svg>
