<svg width="16" height="16" viewBox="0 0 16 16" fill="none" xmlns="http://www.w3.org/2000/svg">
<path d="M11.42 4.66375H9.62C9.9 4.31042 10.0733 3.87708 10.0733 3.39708C10.0733 2.26375 9.15333 1.34375 8.02 1.34375C6.88666 1.34375 5.96666 2.26375 5.96666 3.39708C5.96666 3.87708 6.14 4.31708 6.42 4.66375H4.45333L5.55333 7.91708L2.62 13.2304H6.58666V14.6704H7.52V12.2971H4.2L6.56666 8.01042L5.75333 5.59708H10.1733L9.46 7.99708L11.8 12.2971H8.48666V14.6704H9.42V13.2304H13.3667L10.46 7.89042L11.42 4.66375ZM8.01333 2.28375C8.63333 2.28375 9.13333 2.78375 9.13333 3.40375C9.13333 4.02375 8.63333 4.52375 8.01333 4.52375C7.39333 4.52375 6.89333 4.02375 6.89333 3.40375C6.89333 2.78375 7.39333 2.28375 8.01333 2.28375Z" fill="#303030"/>
</svg>
