<svg width="16" height="16" viewBox="0 0 16 16" fill="none" xmlns="http://www.w3.org/2000/svg">
<path d="M1.33997 9.43115C1.33997 7.65115 2.5933 6.11781 4.3133 5.73115C4.70663 4.01115 6.24663 2.75781 8.02663 2.75781C9.80663 2.75781 11.3466 4.01781 11.74 5.73115C13.4333 6.13115 14.6733 7.65781 14.68 9.41781H13.7466C13.7466 8.00448 12.68 6.79115 11.2733 6.59115L10.9266 6.53781L10.88 6.19115C10.6866 4.76448 9.46663 3.69115 8.0333 3.69115C6.59997 3.69115 5.37997 4.76448 5.18663 6.19781L5.13997 6.55115L4.78663 6.59781C3.35997 6.78448 2.28663 8.00448 2.28663 9.43115C2.28663 11.0111 3.5733 12.2978 5.1533 12.3045H6.57997V13.2378H5.1533C3.05997 13.2378 1.3533 11.5311 1.3533 9.43115H1.33997ZM9.2933 10.8511L10.06 13.7111H9.39997L9.2533 13.0845H8.4733L8.3333 13.7111H7.67997L8.3933 10.8511H9.28663H9.2933ZM9.14663 12.5911L8.85997 11.3445L8.58663 12.5911H9.1533H9.14663ZM11.36 10.8511C12.08 10.8511 12.4133 11.2245 12.4133 11.7978C12.4133 12.3711 12.0866 12.7445 11.36 12.7445H11.0666V13.7111H10.42V10.8511H11.3666H11.36ZM11.3133 11.4045H11.0666V12.2111H11.3133C11.6266 12.2111 11.78 12.0845 11.78 11.7978C11.78 11.5111 11.6266 11.4045 11.3133 11.4045ZM14.6733 11.3778V10.8511H12.9333V11.3778H13.48V13.1778H12.9333V13.7045H14.6733V13.1778H14.1266V11.3778H14.6733Z" fill="#303030"/>
</svg>
