<svg width="16" height="16" viewBox="0 0 16 16" fill="none" xmlns="http://www.w3.org/2000/svg">
<path d="M11.8899 9.81156C10.5633 9.81156 9.47661 10.8916 9.47661 12.2249C9.47661 13.5582 10.5566 14.6382 11.8899 14.6382C13.2233 14.6382 14.3033 13.5582 14.3033 12.2249C14.3033 10.8916 13.2233 9.81156 11.8899 9.81156ZM11.8899 13.6982C11.0766 13.6982 10.4099 13.0382 10.4099 12.2182C10.4099 11.3982 11.0699 10.7382 11.8899 10.7382C12.7099 10.7382 13.3699 11.3982 13.3699 12.2182C13.3699 13.0382 12.7099 13.6982 11.8899 13.6982ZM7.12994 14.5582H8.06327V7.8249L12.5699 5.43156V8.0249H13.5033V4.37156L7.59661 1.35156L1.68994 4.3649V11.6649L7.13661 14.5316V14.5516L7.12994 14.5582ZM12.0299 4.65823L7.59661 7.01156L3.16327 4.65823L7.59661 2.39823L12.0299 4.65823ZM2.62327 11.0982V5.4249L7.13661 7.81823V13.4782L2.62327 11.0982Z" fill="#303030"/>
</svg>
