<svg width="16" height="16" viewBox="0 0 16 16" fill="none" xmlns="http://www.w3.org/2000/svg">
<path d="M13.4666 6.10162H10.0866L11.6 4.41496C11.7333 4.26162 11.8066 4.06829 11.8066 3.86829V2.54162C11.8 2.26829 11.66 2.02162 11.4333 1.86829C11.2066 1.72162 10.92 1.70162 10.6733 1.81496C9.17997 2.48829 5.52663 4.18162 4.48663 4.66829H1.33997V14.6683H4.67997H10.6466C10.96 14.6683 11.24 14.475 11.3666 14.1683L14.2066 7.20162C14.3066 6.95496 14.28 6.67496 14.1333 6.45496C13.9866 6.23496 13.7333 6.10162 13.4666 6.10162ZM3.7533 13.735H2.27997V5.60162H3.7533V13.735ZM12.88 7.98829H9.42663V8.92162H12.5L12.0933 9.91496H9.4333V10.8483H11.7066L11.3 11.835V11.8216H9.43997V12.755H10.9266L10.5266 13.735H4.68663V5.60829C5.3133 5.31496 9.14663 3.53496 10.8733 2.75496V3.82829L8.83997 6.09496H8.00663L7.99997 7.02162L7.9933 7.02829H9.01997H9.0333H13.2666L12.88 7.97496V7.98829Z" fill="#303030"/>
</svg>
