<svg width="16" height="16" viewBox="0 0 16 16" fill="none" xmlns="http://www.w3.org/2000/svg">
<path d="M3.03663 6.32812H4.14996C4.14996 6.14812 4.16329 5.96812 4.18996 5.78812L3.25663 4.85479C3.11663 5.32146 3.03663 5.81479 3.03663 6.32812ZM6.18996 14.3881C6.60996 14.5748 7.04329 14.6615 7.47663 14.6615C8.34996 14.6615 9.22329 14.3015 9.96329 13.6148C10.3366 13.2681 10.6033 12.8215 10.73 12.3215L9.70996 11.3015V11.6015C9.70996 12.0681 9.52329 12.5015 9.20996 12.8015C8.42329 13.5348 7.48329 13.7415 6.62996 13.3681C5.80996 13.0148 5.26329 12.1948 5.26329 11.3281H4.14996C4.14996 12.6281 4.96996 13.8615 6.18996 14.3881ZM13.0433 6.32812C13.0433 3.57479 10.7966 1.32812 8.04329 1.32812C6.48996 1.32812 5.10329 2.04813 4.18329 3.16813L2.36996 1.34812L1.70996 2.00812L13.6233 13.9215L14.2833 13.2615L11.23 10.2081C12.3633 9.26146 13.0366 7.84146 13.0366 6.32146H13.0433V6.32812ZM4.96996 3.95479C5.68329 3.04146 6.78996 2.44146 8.03663 2.44146C10.1833 2.44146 11.9233 4.18146 11.9233 6.32812C11.9233 7.54812 11.37 8.68812 10.4366 9.42812L4.96996 3.95479Z" fill="#303030"/>
</svg>
