<svg width="16" height="16" viewBox="0 0 16 16" fill="none" xmlns="http://www.w3.org/2000/svg">
<path d="M14.66 1.33594H1.32666V14.6693H14.66V1.33594ZM13.7267 13.7359H2.25999V2.26927H13.7267V13.7359Z" fill="#303030"/>
<path d="M5.26668 9.76812C5.64668 9.76812 5.98668 9.63479 6.26002 9.41479L8.88668 10.7215C8.88668 10.7215 8.88668 10.7548 8.88668 10.7681C8.88668 11.6615 9.61335 12.3948 10.5133 12.3948C11.4133 12.3948 12.1333 11.6681 12.1333 10.7681C12.1333 9.86812 11.4067 9.14146 10.5133 9.14146C9.96668 9.14146 9.49335 9.41479 9.19335 9.82146L6.80668 8.63479C6.86001 8.47479 6.89335 8.30812 6.89335 8.13479C6.89335 7.96146 6.86001 7.79479 6.80668 7.63479L9.22001 6.42813C9.52001 6.81479 9.98001 7.07479 10.5067 7.07479C11.4 7.07479 12.1267 6.34812 12.1267 5.44813C12.1267 4.54813 11.4 3.82812 10.5067 3.82812C9.61335 3.82812 8.88001 4.55479 8.88001 5.44813C8.88001 5.48146 8.88668 5.51479 8.88668 5.54812L6.25335 6.86813C5.98001 6.65479 5.63335 6.52146 5.26001 6.52146C4.36668 6.52146 3.64001 7.24812 3.64001 8.14146C3.64001 9.03479 4.36668 9.76812 5.26001 9.76812H5.26668ZM10.5067 10.0815C10.8867 10.0815 11.1933 10.3881 11.1933 10.7681C11.1933 11.1481 10.8867 11.4548 10.5067 11.4548C10.1267 11.4548 9.81335 11.1481 9.81335 10.7681C9.81335 10.3881 10.12 10.0815 10.5067 10.0815ZM10.5067 4.76146C10.8867 4.76146 11.1933 5.06813 11.1933 5.44813C11.1933 5.82812 10.8867 6.13479 10.5067 6.13479C10.1267 6.13479 9.81335 5.82812 9.81335 5.44813C9.81335 5.06813 10.12 4.76146 10.5067 4.76146ZM5.26668 7.45479C5.64668 7.45479 5.96001 7.76146 5.96001 8.14146C5.96001 8.52146 5.65335 8.82812 5.26668 8.82812C4.88001 8.82812 4.58001 8.52146 4.58001 8.14146C4.58001 7.76146 4.88668 7.45479 5.26668 7.45479Z" fill="#303030"/>
</svg>
