<svg width="16" height="16" viewBox="0 0 16 16" fill="none" xmlns="http://www.w3.org/2000/svg">
<path d="M2.80005 2.26927H4.20005V4.46927C4.20005 5.93594 5.06672 7.26927 6.33338 7.93594C5.06672 8.6026 4.20005 9.86927 4.20005 11.4026V13.7359H2.80005V14.6693H13.2667V13.7359H12V11.4026C12 9.93594 11.1334 8.6026 9.86672 7.93594C11.1334 7.26927 12 6.0026 12 4.46927V2.26927H13.2667V1.33594H2.80005V2.26927ZM11 11.4026V13.7359H5.13338V11.4026C5.13338 9.8026 6.46672 8.46927 8.06672 8.46927C9.66672 8.46927 11 9.8026 11 11.4026ZM5.13338 2.26927H6.13338V3.26927C6.13338 4.33594 7.00005 5.2026 8.06672 5.2026C9.13338 5.2026 10 4.33594 10 3.26927V2.26927H11.0667V4.46927C11.0667 6.06927 9.73338 7.4026 8.13338 7.4026C6.53338 7.4026 5.20005 6.06927 5.20005 4.46927V2.26927H5.13338Z" fill="#303030"/>
</svg>
