<svg width="16" height="16" viewBox="0 0 16 16" fill="none" xmlns="http://www.w3.org/2000/svg">
<path d="M1.32666 14.6626L1.35999 1.33594H2.29999L2.26666 13.7293L14.6267 13.6959V14.6293L1.32666 14.6626Z" fill="#303030"/>
<path d="M3.71997 11.3438H4.66664V12.2771H3.71997V11.3438Z" fill="#303030"/>
<path d="M7.05334 9.90625H8.00001V10.8396H7.05334V9.90625Z" fill="#303030"/>
<path d="M9.89331 5.15625H10.84V6.08958H9.89331V5.15625Z" fill="#303030"/>
<path d="M5.15332 3.72656H6.09999V4.6599H5.15332V3.72656Z" fill="#303030"/>
<path d="M11.3533 9.42188H12.2999V10.3552H11.3533V9.42188Z" fill="#303030"/>
<path d="M9.44666 10.8516H10.3933V11.7849H9.44666V10.8516Z" fill="#303030"/>
<path d="M7.54004 7.53906H8.48671V8.4724H7.54004V7.53906Z" fill="#303030"/>
<path d="M11.3467 1.8125H12.2933V2.74583H11.3467V1.8125Z" fill="#303030"/>
</svg>
