<svg width="16" height="16" viewBox="0 0 16 16" fill="none" xmlns="http://www.w3.org/2000/svg">
<path d="M6.09342 4.65021C6.88008 4.65021 7.52008 4.01021 7.52008 3.22354C7.52008 2.43688 6.88008 1.79688 6.09342 1.79688C5.30675 1.79688 4.66675 2.43688 4.66675 3.22354C4.66675 4.01021 5.30675 4.65021 6.09342 4.65021ZM6.09342 2.73688C6.36675 2.73688 6.58675 2.95687 6.58675 3.23021C6.58675 3.50354 6.36675 3.72354 6.09342 3.72354C5.82008 3.72354 5.60008 3.50354 5.60008 3.23021C5.60008 2.95687 5.82008 2.73688 6.09342 2.73688Z" fill="#303030"/>
<path d="M11.3267 3.23135C11.3267 2.44469 10.6867 1.80469 9.90006 1.80469C9.11339 1.80469 8.47339 2.44469 8.47339 3.23135C8.47339 4.01802 9.11339 4.65802 9.90006 4.65802C10.6867 4.65802 11.3267 4.01802 11.3267 3.23135ZM9.41339 3.23135C9.41339 2.95802 9.63339 2.73802 9.90672 2.73802C10.1801 2.73802 10.4001 2.95802 10.4001 3.23135C10.4001 3.50469 10.1801 3.72469 9.90672 3.72469C9.63339 3.72469 9.41339 3.50469 9.41339 3.23135Z" fill="#303030"/>
<path d="M3.13345 7.27521C3.92012 7.27521 4.56012 6.63521 4.56012 5.84854C4.56012 5.06187 3.92012 4.42188 3.13345 4.42188C2.34679 4.42188 1.70679 5.06187 1.70679 5.84854C1.70679 6.63521 2.34679 7.27521 3.13345 7.27521ZM3.13345 5.36188C3.40679 5.36188 3.62679 5.58188 3.62679 5.85521C3.62679 6.12854 3.40679 6.34854 3.13345 6.34854C2.86012 6.34854 2.64012 6.12854 2.64012 5.85521C2.64012 5.58188 2.86012 5.36188 3.13345 5.36188Z" fill="#303030"/>
<path d="M12.7602 4.42969C11.9735 4.42969 11.3335 5.06969 11.3335 5.85635C11.3335 6.64302 11.9735 7.28302 12.7602 7.28302C13.5468 7.28302 14.1868 6.64302 14.1868 5.85635C14.1868 5.06969 13.5468 4.42969 12.7602 4.42969ZM12.7602 6.34302C12.4868 6.34302 12.2668 6.12302 12.2668 5.84969C12.2668 5.57635 12.4868 5.35635 12.7602 5.35635C13.0335 5.35635 13.2535 5.57635 13.2535 5.84969C13.2535 6.12302 13.0335 6.34302 12.7602 6.34302Z" fill="#303030"/>
<path d="M2.77344 10.9079C2.77344 12.6213 4.16677 14.0146 5.8801 14.0146C6.68677 14.0146 7.41344 13.7013 7.9601 13.2012C8.51344 13.7013 9.2401 14.0146 10.0401 14.0146C11.7534 14.0146 13.1468 12.6213 13.1468 10.9079C13.1468 9.56792 12.2934 8.43458 11.1068 8.00125C10.9134 6.46792 9.6201 5.28125 8.0401 5.28125C6.4601 5.28125 5.19344 6.44125 4.9801 7.94792C3.70677 8.33458 2.77344 9.50792 2.77344 10.9079ZM5.24677 8.84125L5.81344 8.66792L5.9001 8.08125C6.05344 7.01458 6.97344 6.21458 8.0401 6.21458C9.10677 6.21458 10.0468 7.03458 10.1801 8.11458L10.2534 8.68125L10.7868 8.87458C11.6401 9.18792 12.2134 10.0013 12.2134 10.9079C12.2134 12.1079 11.2401 13.0812 10.0401 13.0812C9.50677 13.0812 8.99344 12.8813 8.58677 12.5079L7.9601 11.9346L7.33344 12.5079C6.92677 12.8746 6.41344 13.0812 5.8801 13.0812C4.6801 13.0812 3.70677 12.1079 3.70677 10.9079C3.70677 9.95458 4.32677 9.12792 5.24677 8.84125Z" fill="#303030"/>
</svg>
