<svg width="16" height="16" viewBox="0 0 16 16" fill="none" xmlns="http://www.w3.org/2000/svg">
<path d="M9.78003 10.9931L10.44 11.6531L11.34 10.7465L11.36 12.7598L12.2934 12.7465L12.28 10.7265L13.2 11.6531L13.86 10.9931L11.82 8.95312L9.78003 10.9931Z" fill="#303030"/>
<path d="M8.95996 13.7188H14.6733V14.6521H8.95996V13.7188Z" fill="#303030"/>
<path d="M8.00672 1.32812C5.48672 1.32812 2.80005 2.26812 2.80005 4.01479V11.9948C2.80005 13.7348 5.48672 14.6815 8.01338 14.6815V13.5881C5.43338 13.5881 3.78672 12.6415 3.78672 11.9948V10.9815C4.79338 11.6881 6.44005 12.0548 8.01338 12.0548V10.9615C5.43338 10.9615 3.78672 10.0148 3.78672 9.36812V8.32146C4.79338 9.02812 6.44005 9.39479 8.01338 9.39479V8.30146C5.43338 8.30146 3.78672 7.35479 3.78672 6.70813V5.64146C4.79338 6.34146 6.43338 6.71479 8.01338 6.71479C9.59338 6.71479 11.2267 6.34812 12.2334 5.64813V8.02146H13.22V4.02146C13.22 2.28146 10.5334 1.33479 8.01338 1.33479L8.00672 1.32812ZM8.00672 5.61479C5.42672 5.61479 3.78005 4.66812 3.78005 4.01479C3.78005 3.36146 5.42672 2.41479 8.00672 2.41479C10.5867 2.41479 12.2267 3.35479 12.2334 4.00813V4.02813C12.2 4.68146 10.5667 5.60812 8.01338 5.60812L8.00672 5.61479Z" fill="#303030"/>
</svg>
