<svg width="16" height="16" viewBox="0 0 16 16" fill="none" xmlns="http://www.w3.org/2000/svg">
<path d="M13.5534 11.9881C13.5534 11.1281 12.9734 10.4148 12.1934 10.1815V6.22146L14.4068 4.00813L11.7268 1.32812L9.62676 3.42812H6.06676C5.81343 2.67479 5.11343 2.12813 4.2801 2.12813C3.2401 2.12813 2.38676 2.97479 2.38676 4.02146C2.38676 4.90146 2.99343 5.64146 3.81343 5.84813V9.77479L1.6001 11.9881L4.2801 14.6681L6.9601 11.9881L4.74676 9.77479V5.84813C5.45343 5.66813 6.00676 5.08813 6.1401 4.36146H9.4001L11.2601 6.22146V10.1415C10.4068 10.3281 9.77343 11.0815 9.77343 11.9881C9.77343 13.0281 10.6201 13.8815 11.6668 13.8815C12.7134 13.8815 13.5601 13.0348 13.5601 11.9881H13.5534ZM4.2801 13.3548L2.9201 11.9948L4.2801 10.6348L5.6401 11.9948L4.2801 13.3548ZM4.2801 4.97479C3.75343 4.97479 3.3201 4.54813 3.3201 4.01479C3.3201 3.48146 3.74676 3.05479 4.2801 3.05479C4.81343 3.05479 5.2401 3.48146 5.2401 4.01479C5.2401 4.54813 4.81343 4.97479 4.2801 4.97479ZM11.7268 2.64813L13.0868 4.00813L11.7268 5.36813L10.3668 4.00813L11.7268 2.64813ZM11.6601 12.9415C11.1334 12.9415 10.7001 12.5148 10.7001 11.9815C10.7001 11.4481 11.1268 11.0215 11.6601 11.0215C12.1934 11.0215 12.6201 11.4481 12.6201 11.9815C12.6201 12.5148 12.1934 12.9415 11.6601 12.9415Z" fill="#303030"/>
</svg>
