<svg width="16" height="16" viewBox="0 0 16 16" fill="none" xmlns="http://www.w3.org/2000/svg">
<path d="M13.9434 7.37156V4.19823L11.0767 1.35156H3.48338V7.05156H4.41672V2.2849H10.1367V5.15156H13.01V7.5249V13.7182H4.41672V12.7582H3.48338V14.6516H13.95V7.3649H13.9434V7.37156ZM11.0767 4.21823V2.65823L12.6434 4.21823H11.0767ZM4.62338 9.29156C4.62338 8.4449 4.01005 8.17156 3.24338 8.17156H2.05005V11.6449H2.83672V10.4649H3.26338C3.99672 10.4649 4.62338 10.1049 4.62338 9.2849V9.29156ZM3.21672 9.8449H2.83005V8.79823H3.19005C3.61672 8.79823 3.85005 8.93156 3.85005 9.29156C3.85005 9.65156 3.64338 9.8449 3.21672 9.8449ZM7.75005 9.89823C7.75005 8.7049 7.06338 8.17823 6.00338 8.17823H5.02338V11.6516H6.05005C7.07005 11.6516 7.75005 11.0916 7.75005 9.89823ZM5.96338 11.0182H5.81672V8.81156H5.96338C6.55005 8.81156 6.95005 9.07156 6.95005 9.89823C6.95005 10.7249 6.55005 11.0182 5.96338 11.0182ZM8.99672 8.83156V9.63823H10.1967V10.2982H8.99672V11.6516H8.21005V8.17823H10.4034V8.83823H8.99672V8.83156Z" fill="#303030"/>
</svg>
