<svg width="16" height="16" viewBox="0 0 16 16" fill="none" xmlns="http://www.w3.org/2000/svg">
<path d="M1.32666 13.7188H14.6667V14.6521H1.32666V13.7188Z" fill="#303030"/>
<path d="M3.73328 9.89844H4.66661V10.8518H3.73328V9.89844Z" fill="#303030"/>
<path d="M3.73332 8.9426H4.66665V7.99594H5.62665V5.1426H4.66665V1.33594H3.73332V5.1426H2.77332V7.99594H3.73332V8.9426ZM3.70665 6.07594H4.69332V7.0626H3.70665V6.07594Z" fill="#303030"/>
<path d="M3.73328 11.8125H4.66661V12.7658H3.73328V11.8125Z" fill="#303030"/>
<path d="M7.53333 9.90625H8.46666V10.8596H7.53333V9.90625Z" fill="#303030"/>
<path d="M7.53333 7.99219H8.46666V8.94552H7.53333V7.99219Z" fill="#303030"/>
<path d="M7.53336 7.03479H8.4667V6.09479H9.4267V3.24146H8.4667V1.32812H7.53336V3.24146H6.57336V6.09479H7.53336V7.03479ZM7.5067 4.17479H8.49336V5.16146H7.5067V4.17479Z" fill="#303030"/>
<path d="M7.53333 11.8203H8.46666V12.7736H7.53333V11.8203Z" fill="#303030"/>
<path d="M11.3334 9.89844H12.2667V10.8518H11.3334V9.89844Z" fill="#303030"/>
<path d="M11.3333 8.9426H12.2666V7.99594H13.2266V5.1426H12.2666V1.33594H11.3333V5.1426H10.3733V7.99594H11.3333V8.9426ZM11.3066 6.07594H12.2933V7.0626H11.3066V6.07594Z" fill="#303030"/>
<path d="M11.3334 11.8125H12.2667V12.7658H11.3334V11.8125Z" fill="#303030"/>
</svg>
