<svg width="16" height="16" viewBox="0 0 16 16" fill="none" xmlns="http://www.w3.org/2000/svg">
<path d="M8.07337 5.27042L4.84671 2.04375L4.18671 1.38375L3.52671 2.04375L1.99337 3.57708L1.33337 4.23708L1.99337 4.89708L11.02 13.9237L11.2334 14.1371L11.5334 14.1838L13.3667 14.4704L14.6467 14.6704L14.4334 13.3971L14.1334 11.5771L14.0867 11.2838L13.8734 11.0704L10.7534 7.95042L14.68 4.02375L12 1.34375L8.07337 5.27042ZM13.5134 13.5437L11.68 13.2571L2.66004 4.23708L4.19337 2.70375L13.22 11.7304L13.52 13.5504H13.5134V13.5437ZM10.0934 7.29042L8.73337 5.93042L9.01337 5.65042L9.66671 6.30375L10.3267 5.64375L9.67337 4.99042L10.36 4.30375L11.0134 4.95708L11.6734 4.29708L11.02 3.64375L12 2.66375L13.36 4.02375L10.0934 7.29042ZM5.31337 10.6504L5.98004 9.99042L5.31337 9.32375L4.66671 8.67708L1.36004 11.9837L4.04004 14.6637L7.34671 11.3504L6.68004 10.6971L4.04004 13.3438L2.68004 11.9837L3.32004 11.3438L3.97337 11.9971L4.63337 11.3371L3.98004 10.6838L4.66671 9.99708L5.32004 10.6504H5.31337Z" fill="#303030"/>
</svg>
