<svg width="16" height="16" viewBox="0 0 16 16" fill="none" xmlns="http://www.w3.org/2000/svg">
<path d="M14.66 5.10927H10.8533V1.33594H1.33997V14.6693H10.8466L14.6533 14.6626V5.10927H14.66ZM2.2733 2.26927H9.9133V5.1026H9.89997V13.7359H2.2733V2.26927ZM13.7266 13.7293H10.8533V6.0426H13.7266V13.7293Z" fill="#303030"/>
<path d="M4.65997 8V9.42667H3.71997V8H4.65997ZM8.46664 9.42667V8H7.53997V9.42667H8.46664ZM7.54664 10.8533V12.28H8.4733V10.8533H7.54664ZM3.71997 10.8533V12.28H4.64664V10.8533H3.71997Z" fill="#303030"/>
<path d="M8.02 4.70563H6.58V3.26562H5.64667V4.70563H4.20667V5.63896H5.64667V7.07896H6.58V5.63896H8.02V4.70563Z" fill="#303030"/>
</svg>
