<svg width="16" height="16" viewBox="0 0 16 16" fill="none" xmlns="http://www.w3.org/2000/svg">
<path d="M14.1466 11.418L10.7199 7.99135L11.2066 7.50469C12.1999 7.61802 13.0866 7.29135 13.7599 6.61802C14.3333 6.03802 14.6599 5.24469 14.6599 4.43802C14.6599 3.99802 14.5733 3.57802 14.3933 3.17802L14.1199 2.55802L12.2599 4.41135L11.5933 3.73802L13.4333 1.90469L12.8333 1.62469C12.4533 1.44469 12.0266 1.35135 11.5733 1.35135C10.7533 1.35135 9.97992 1.67135 9.38659 2.25802C8.71325 2.93802 8.39325 3.87802 8.49992 4.81135L6.98659 6.32469L5.23992 4.57802V2.54469L2.76659 1.30469L1.33325 2.73802L2.57325 5.23802H4.58659L6.32659 6.97802L1.89325 11.4114C1.15325 12.1514 1.15325 13.3514 1.90659 14.1047C2.27992 14.478 2.76659 14.6647 3.25325 14.6647C3.73992 14.6647 4.21992 14.478 4.58659 14.1114L8.01325 10.6847L11.4399 14.1114C11.8066 14.478 12.2933 14.6647 12.7733 14.6647C13.2533 14.6647 13.7466 14.478 14.1199 14.1047L14.1333 14.0914C14.8666 13.358 14.8733 12.1514 14.1333 11.4114L14.1466 11.418ZM2.46659 2.92469L2.95325 2.43802L4.31325 3.11802V4.30469H3.15325L2.46659 2.92469ZM3.93325 13.458C3.55992 13.8314 2.94659 13.8314 2.55992 13.438C2.18659 13.0647 2.18659 12.4514 2.55992 12.078L9.50659 5.11802L9.45992 4.87135C9.31992 4.15802 9.53992 3.42469 10.0533 2.91135C10.4666 2.50469 11.0066 2.27802 11.5799 2.27802C11.6333 2.27802 11.6799 2.27802 11.7333 2.27802L10.2799 3.72469L12.2666 5.71802L13.7266 4.25802C13.7266 4.31135 13.7266 4.37135 13.7266 4.42469C13.7266 4.98469 13.4933 5.54469 13.0933 5.95135C12.5799 6.46469 11.9199 6.69802 11.1266 6.54469L10.8799 6.49802L3.92659 13.4514L3.93325 13.458ZM13.4799 13.438L13.4666 13.4514C13.0933 13.8247 12.4799 13.8314 12.1066 13.4514L8.68659 10.0314L10.0666 8.65135L13.4866 12.0714C13.8599 12.4447 13.8533 13.058 13.4866 13.4314L13.4799 13.438Z" fill="#303030"/>
</svg>
