<svg width="16" height="16" viewBox="0 0 16 16" fill="none" xmlns="http://www.w3.org/2000/svg">
<path d="M7.99998 1.33594C4.31998 1.33594 1.33331 4.3226 1.33331 8.0026C1.33331 11.6826 4.31998 14.6693 7.99998 14.6693C11.68 14.6693 14.6666 11.6826 14.6666 8.0026C14.6666 4.3226 11.68 1.33594 7.99998 1.33594ZM7.99998 13.7359C4.83998 13.7359 2.26665 11.1626 2.26665 8.0026C2.26665 4.8426 4.83998 2.26927 7.99998 2.26927C11.16 2.26927 13.7333 4.8426 13.7333 8.0026C13.7333 11.1626 11.16 13.7359 7.99998 13.7359Z" fill="#303030"/>
<path d="M8.13331 3.73438C7.53997 3.73438 7.02664 3.84104 6.59331 4.04771C6.15997 4.25438 5.81331 4.56104 5.57331 4.95437C5.32664 5.35437 5.19331 5.82771 5.15997 6.37438H6.06664C6.11331 5.75438 6.30664 5.28104 6.64664 4.95437C6.98664 4.62771 7.46664 4.46771 8.08664 4.46771C8.57997 4.46771 8.96664 4.57438 9.24664 4.79438C9.52664 5.00771 9.66664 5.31437 9.66664 5.69437C9.66664 5.98771 9.58664 6.24104 9.43331 6.45438C9.27331 6.66771 9.03997 6.92104 8.72664 7.20104C8.46664 7.44771 8.25997 7.65437 8.09997 7.83437C7.93997 8.01437 7.81331 8.22104 7.70664 8.47437C7.59997 8.72771 7.54664 9.00104 7.54664 9.30771V9.72104H8.44664V9.33437C8.44664 9.10771 8.49331 8.89437 8.57997 8.69437C8.66664 8.49437 8.77997 8.32104 8.91331 8.16771C9.03997 8.01437 9.21997 7.82771 9.45331 7.60771C9.68664 7.38104 9.88664 7.18104 10.04 7.00771C10.1933 6.83438 10.32 6.63437 10.4266 6.40771C10.5266 6.18104 10.58 5.92104 10.58 5.64104C10.58 5.06104 10.3666 4.59438 9.94664 4.25438C9.52664 3.91438 8.92664 3.74104 8.14664 3.74104L8.13331 3.73438Z" fill="#303030"/>
<path d="M7.54663 10.7344H8.47996V12.301H7.54663V10.7344Z" fill="#303030"/>
</svg>
