<svg width="16" height="16" viewBox="0 0 16 16" fill="none" xmlns="http://www.w3.org/2000/svg">
<path d="M7.51339 5.17708V5.70375C7.21339 5.76375 6.92673 5.88375 6.66006 6.06375L6.29339 5.69708L5.63339 6.35708L6.00006 6.72375C5.82673 6.98375 5.71339 7.27708 5.65339 7.57042H5.13339V8.50375H5.65339C5.71339 8.79708 5.82673 9.08375 6.00006 9.34375L5.63339 9.71042L6.29339 10.3704L6.66006 10.0037C6.92006 10.1838 7.21339 10.2971 7.51339 10.3638V10.8904H8.44673V10.3771C8.74673 10.3171 9.04006 10.2037 9.30673 10.0304L9.67339 10.3971L10.3334 9.73708L9.96673 9.37042C10.1467 9.10375 10.2667 8.81042 10.3267 8.51042H10.8467V7.57708H10.3267C10.2667 7.27042 10.1467 6.97708 9.96673 6.71042L10.3334 6.34375L9.67339 5.68375L9.30673 6.05042C9.04006 5.87708 8.74673 5.75708 8.44006 5.69708V5.18375H7.50673L7.51339 5.17708ZM6.96673 7.00375C7.53339 6.43708 8.45339 6.43708 9.02006 7.00375C9.58673 7.57042 9.58673 8.49042 9.02006 9.05708C8.47339 9.60375 7.51339 9.60375 6.96673 9.05708C6.40006 8.49042 6.40006 7.57042 6.96673 7.00375ZM1.35339 7.99708C1.35339 4.33708 4.33339 1.35042 8.00006 1.35042V2.28375C4.85339 2.28375 2.28673 4.85042 2.28673 7.99708C2.28673 10.0437 3.40006 11.9171 5.14673 12.9304V10.8171H6.08006V14.6437H2.30006V13.7104H4.63339C2.62673 12.5238 1.35339 10.3571 1.35339 7.99708ZM10.8534 5.17042H9.92006V1.34375H13.7001V2.27708H11.3734C13.3867 3.46375 14.6534 5.61708 14.6534 8.00375C14.6534 11.6704 11.6734 14.6504 8.00673 14.6504V13.7171C11.1601 13.7171 13.7201 11.1504 13.7201 8.00375C13.7201 5.93708 12.6134 4.07042 10.8601 3.05708V5.17042H10.8534Z" fill="#303030"/>
</svg>
