<svg width="16" height="16" viewBox="0 0 16 16" fill="none" xmlns="http://www.w3.org/2000/svg">
<path d="M11.8134 4.1875V5.12083H13.0667L10.32 7.8675C9.67336 7.3675 8.87336 7.0675 7.99336 7.0675C5.90003 7.0675 4.19336 8.77417 4.19336 10.8675C4.19336 12.9608 5.90003 14.6675 7.99336 14.6675C10.0867 14.6675 11.7934 12.9608 11.7934 10.8675C11.7934 9.9875 11.4867 9.17417 10.98 8.5275L13.72 5.7875V7.04083H14.6534V4.1875H11.8134ZM8.00003 13.7342C6.42003 13.7342 5.13336 12.4475 5.13336 10.8675C5.13336 9.2875 6.42003 8.00083 8.00003 8.00083C9.58003 8.00083 10.8667 9.2875 10.8667 10.8675C10.8667 12.4475 9.58003 13.7342 8.00003 13.7342Z" fill="#303030"/>
<path d="M8.25325 1.34375V2.27708H9.50659L7.05325 4.73042C5.59992 3.87708 3.69325 4.05708 2.44659 5.31042C1.72659 6.03042 1.33325 6.98375 1.33325 7.99708C1.33325 9.01042 1.72659 9.96375 2.44659 10.6838L3.10659 10.0238C1.98659 8.90375 1.98659 7.09042 3.10659 5.97042C4.22658 4.85042 6.03992 4.85042 7.15992 5.97042L7.81992 5.31042C7.81992 5.31042 7.81325 5.30375 7.80658 5.29708L10.1599 2.94375V4.19708H11.0933V1.34375H8.25325Z" fill="#303030"/>
</svg>
