<svg width="16" height="16" viewBox="0 0 16 16" fill="none" xmlns="http://www.w3.org/2000/svg">
<path d="M6.12 3.75H7.05999V4.69H6.12V3.75Z" fill="#303030"/>
<path d="M4.19995 3.75H5.13995V4.69H4.19995V3.75Z" fill="#303030"/>
<path d="M2.29993 3.75H3.23993V4.69H2.29993V3.75Z" fill="#303030"/>
<path d="M6.12 5.64844H7.05999V6.58844H6.12V5.64844Z" fill="#303030"/>
<path d="M4.19995 5.64844H5.13995V6.58844H4.19995V5.64844Z" fill="#303030"/>
<path d="M2.29993 5.64844H3.23993V6.58844H2.29993V5.64844Z" fill="#303030"/>
<path d="M14.6333 2.24187L14.68 1.76187L9.57999 1.42188L8.60665 4.40187L10.0667 5.88187C9.32665 7.94187 7.93332 9.32854 5.81999 10.1219L4.33999 8.66854L1.35999 9.64187L1.69999 14.7152L2.15999 14.6952C9.85999 14.3419 13.82 10.3819 14.6333 2.24187ZM4.09332 9.72854L5.57999 11.1952L5.85332 11.1019C8.47332 10.2085 10.22 8.46187 11.0467 5.90188L11.1333 5.63521L9.67332 4.14854L10.24 2.40187L13.6467 2.62854C12.7933 9.83521 9.35332 13.2819 2.56665 13.7352L2.33999 10.3019L4.08665 9.73521L4.09332 9.72854Z" fill="#303030"/>
</svg>
