<svg width="16" height="16" viewBox="0 0 16 16" fill="none" xmlns="http://www.w3.org/2000/svg">
<path d="M11.83 3.47354V2.04688H10.8966V3.47354H5.18329V2.04688H4.24996V3.47354H1.32996V13.9535H14.6833V3.47354H11.8233H11.83ZM4.24996 4.40687V4.89354H5.18329V4.40687H10.8966V4.89354H11.83V4.40687H13.7566V5.88021H2.26329V4.40687H4.24996ZM2.26329 13.0202V6.81354H13.75V13.0202H2.26329ZM12.79 9.22021V8.28688H10.15V7.26021H9.22329V8.29354H6.82996V7.29354H5.90329V8.30021H3.24996V9.23354H5.89662V10.6535H3.24996V11.5869H5.88329V12.5335H6.81662V11.5802H9.20996V12.5535H10.1366V11.5735H12.79V10.6402H10.1433V9.22021H12.79ZM9.20329 10.6402H6.81662V9.22021H9.20996V10.6402H9.20329Z" fill="#303030"/>
</svg>
