<svg width="16" height="16" viewBox="0 0 16 16" fill="none" xmlns="http://www.w3.org/2000/svg">
<path d="M14.68 7.4701H14.6934L14.4134 2.02344H11.6867L11.3734 7.2501H9.80005V5.17677L6.44672 6.78344L6.46005 5.04344L2.51338 7.2501H1.30005V13.9634L14.6734 13.9234V7.4701H14.68ZM12.5734 2.95677H13.5334L13.7534 7.2501H12.32L12.5734 2.95677ZM13.7467 12.9901L2.24672 13.0234V8.18344H2.76672L5.52672 6.64344L5.51338 8.27677L8.87338 6.66344V8.18344H13.7467V12.9968V12.9901ZM5.18672 11.0968H6.59338V12.0301H5.18672V11.0968ZM8.04672 11.0968H9.45338V12.0301H8.04672V11.0968ZM10.8934 11.0968H12.3V12.0301H10.8934V11.0968Z" fill="#303030"/>
</svg>
