<svg width="16" height="16" viewBox="0 0 16 16" fill="none" xmlns="http://www.w3.org/2000/svg">
<path d="M8.95339 7.04271V13.7094H2.28673V7.04271H8.95339ZM9.88673 6.10938H1.35339V14.6427H9.88673V6.10938Z" fill="#303030"/>
<path d="M7.97344 1.47656L7.31344 2.13656L7.99344 2.82323L3.14677 2.81656L3.82677 2.13656L3.16677 1.47656L1.36011 3.28323L3.17344 5.09656L3.83344 4.43656L3.14677 3.75656H7.98677L7.30677 4.43656L7.96011 5.09656L9.78011 3.2899L7.97344 1.47656Z" fill="#303030"/>
<path d="M13.2267 12.8039V7.90385L13.9067 8.58385L14.5667 7.92385L12.7601 6.11719L10.9534 7.93052L11.6134 8.59052L12.2934 7.90385V12.8839L11.5667 12.1639L10.9067 12.8239L12.7201 14.6305L14.5267 12.8239L13.8667 12.1639L13.2267 12.8039Z" fill="#303030"/>
</svg>
