<svg width="16" height="16" viewBox="0 0 16 16" fill="none" xmlns="http://www.w3.org/2000/svg">
<path d="M5.64667 13.7188H10.3933V14.6521H5.64667V13.7188Z" fill="#303030"/>
<path d="M10.58 2.00252C10.4267 1.91585 10.2667 1.84252 10.0934 1.76919C8.66002 1.14919 6.93335 1.22252 5.56668 1.96918C5.55335 1.96918 5.54668 1.97585 5.53335 1.98252C5.53335 1.98252 5.53335 1.98252 5.52668 1.98252C5.37335 2.06252 5.23335 2.14918 5.10002 2.24252C3.61335 3.22918 2.72668 4.88252 2.72668 6.66252C2.72668 8.66919 3.85335 10.4959 5.62668 11.3959V12.7425H10.38V11.4359C12.2 10.5492 13.36 8.70252 13.36 6.66252C13.36 4.62252 12.2934 2.92252 10.5867 1.99585L10.58 2.00252ZM9.73335 10.7092L9.44668 10.8292V11.8159H6.56002V10.7959L6.28002 10.6759C4.68668 9.98252 3.66002 8.40252 3.66002 6.66252C3.66002 5.19585 4.39335 3.82919 5.62668 3.01585C5.74002 2.94252 5.84668 2.86918 5.98002 2.80252C6.88668 2.30918 7.98668 2.18252 8.98668 2.39585C9.24002 2.44918 9.49335 2.52252 9.73335 2.62252C9.87335 2.68252 10 2.74252 10.1334 2.81585C11.5467 3.58252 12.4267 5.05585 12.4267 6.66252C12.4267 8.43585 11.3667 10.0225 9.73335 10.7025V10.7092Z" fill="#303030"/>
</svg>
