<svg width="16" height="16" viewBox="0 0 16 16" fill="none" xmlns="http://www.w3.org/2000/svg">
<path d="M13.2268 10.8658L13.2068 7.51917H8.46677V5.11917H9.88677V1.3125H6.08011V5.11917H7.52677V7.51917H2.77344L2.79344 10.8658H1.36011V14.6725H5.16677V10.8658H3.72677L3.71344 8.45917H7.54011V10.8658H6.11344V14.6725H9.92011V10.8658H8.48011V8.45917H12.2801L12.2934 10.8658H10.8601V14.6725H14.6668V10.8658H13.2268ZM7.02011 2.24583H8.96011V4.18583H7.02011V2.24583ZM4.23344 13.7392H2.29344V11.7992H4.23344V13.7392ZM8.98677 13.7392H7.04677V11.7992H8.98677V13.7392ZM13.7334 13.7392H11.7934V11.7992H13.7334V13.7392Z" fill="#303030"/>
</svg>
