<svg width="16" height="16" viewBox="0 0 16 16" fill="none" xmlns="http://www.w3.org/2000/svg">
<path d="M10.2334 2.75781H5.80004L4.66004 4.19115H1.33337V13.2311H14.6267L14.68 4.15115L11.3134 4.19115L10.2467 2.75781H10.2334ZM13.6934 12.2978H2.26671V5.12448H5.10671L6.24671 3.69115H9.76671L10.84 5.12448L13.7334 5.09115L13.6934 12.2911V12.2978ZM7.98004 5.81781C6.40671 5.81781 5.13337 7.09781 5.13337 8.66448C5.13337 10.2311 6.41337 11.5111 7.98004 11.5111C9.54671 11.5111 10.8267 10.2311 10.8267 8.66448C10.8267 7.09781 9.54671 5.81781 7.98004 5.81781ZM7.98004 10.5711C6.92671 10.5711 6.06671 9.71115 6.06671 8.65781C6.06671 7.60448 6.92671 6.74448 7.98004 6.74448C9.03337 6.74448 9.89337 7.60448 9.89337 8.65781C9.89337 9.71115 9.03337 10.5711 7.98004 10.5711Z" fill="#303030"/>
</svg>
