<svg width="16" height="16" viewBox="0 0 16 16" fill="none" xmlns="http://www.w3.org/2000/svg">
<path d="M6.42331 2.30604V1.37271C3.62998 1.37271 1.34998 3.64604 1.34998 6.44604C1.34998 8.10604 2.17664 9.64604 3.50998 10.586H2.17664V11.5194H5.10998V8.55271H4.17664V9.92604C3.00998 9.17271 2.28998 7.86604 2.28998 6.45271C2.28998 4.17271 4.14331 2.31271 6.42998 2.31271H6.42331V2.30604ZM14.6566 13.986L10.33 9.66604C11.0566 8.78604 11.49 7.66604 11.49 6.43937C11.49 4.75938 10.6566 3.23271 9.31664 2.29271H10.6566V1.35938H7.72331V4.32604H8.65664V2.96604C9.82331 3.71937 10.55 5.01271 10.55 6.43937C10.55 8.71938 8.69664 10.5794 6.40998 10.5794V11.5127C7.64998 11.5127 8.78331 11.066 9.66331 10.326L13.99 14.6394L14.65 13.9794H14.6566V13.986Z" fill="#303030"/>
</svg>
