<svg width="16" height="16" viewBox="0 0 16 16" fill="none" xmlns="http://www.w3.org/2000/svg">
<path d="M8.00675 14.6771C11.6868 14.6771 14.6734 11.6904 14.6734 8.01042C14.6734 4.33042 11.6868 1.34375 8.00675 1.34375C4.32675 1.34375 1.34009 4.33042 1.34009 8.01042C1.34009 11.6904 4.32675 14.6771 8.00675 14.6771ZM8.00675 2.27708C11.1668 2.27708 13.7401 4.85042 13.7401 8.01042C13.7401 11.1704 11.1668 13.7437 8.00675 13.7437C4.84675 13.7437 2.27342 11.1704 2.27342 8.01042C2.27342 4.85042 4.84009 2.27708 8.00675 2.27708ZM8.00675 7.25042L10.5201 9.75708L11.1801 9.09708L8.00675 5.93042L4.82675 9.10375L5.48675 9.76375L8.00675 7.25042Z" fill="#303030"/>
</svg>
