<svg width="16" height="16" viewBox="0 0 16 16" fill="none" xmlns="http://www.w3.org/2000/svg">
<path d="M10.4534 1.30469H10.42H9.48672H2.80005V14.638H8.04672V13.7047H3.73338V2.23802H9.48005V5.09802H12.3467V7.95802H13.28V4.46469L10.4534 1.30469ZM10.4134 2.66469L11.76 4.17135H10.4134V2.66469Z" fill="#303030"/>
<path d="M14.6867 12.272V11.3386H14.1667C14.1067 11.032 13.9867 10.7386 13.8067 10.472L14.1734 10.1053L13.5134 9.44531L13.1467 9.81198C12.8801 9.63865 12.5867 9.51865 12.2867 9.45865V8.94531H11.3534V9.47198C11.0534 9.53198 10.7667 9.65198 10.5001 9.83198L10.1334 9.46531L9.47339 10.1253L9.84006 10.492C9.66672 10.752 9.55339 11.0453 9.49339 11.3386H8.97339V12.272H9.49339C9.55339 12.5653 9.66672 12.852 9.84006 13.112L9.47339 13.4786L10.1334 14.1386L10.5001 13.772C10.7601 13.952 11.0534 14.0653 11.3534 14.132V14.6586H12.2867V14.1453C12.5867 14.0853 12.8801 13.972 13.1467 13.7986L13.5134 14.1653L14.1734 13.5053L13.8067 13.1386C13.9867 12.872 14.1067 12.5786 14.1667 12.2786H14.6867V12.272ZM10.8067 10.772C11.0801 10.4986 11.4467 10.3453 11.8334 10.3453C12.2201 10.3453 12.5867 10.4986 12.8601 10.772C13.4267 11.3386 13.4267 12.2586 12.8601 12.8253C12.2934 13.392 11.3601 13.372 10.8067 12.8253C10.2534 12.2786 10.2401 11.3386 10.8067 10.772Z" fill="#303030"/>
<path d="M5.15344 7.05469H10.8334V7.98802H5.15344V7.05469Z" fill="#303030"/>
<path d="M5.15344 8.96094H7.98678V9.89427H5.15344V8.96094Z" fill="#303030"/>
<path d="M5.15344 10.8672H7.99344V11.8005H5.15344V10.8672Z" fill="#303030"/>
</svg>
