<svg width="16" height="16" viewBox="0 0 16 16" fill="none" xmlns="http://www.w3.org/2000/svg">
<path d="M11.8833 6.11479L10.99 6.10146C10.9633 5.56813 10.57 5.14146 10.09 5.14146H9.62333L10.23 2.29479C10.2833 2.05479 10.2233 1.81479 10.07 1.62146C9.91667 1.43479 9.69 1.32812 9.45 1.32812H8.11667C7.72333 1.32812 7.39667 1.60146 7.33 1.98813L6.85667 4.64146L6.26333 1.95479C6.18333 1.58813 5.85667 1.32812 5.48333 1.32812H4.17667C3.93667 1.32812 3.71 1.43479 3.55667 1.62146C3.41 1.80813 3.34333 2.04813 3.39667 2.28146L4.07 5.62146H5.02333L4.34333 2.26146H5.37667L6.11667 5.62146H7.63L8.23 2.26146H9.28333L8.37 6.55479H3.25V11.8348V14.6748H12.7367V12.2748H12.7433V7.10146C12.7433 6.55479 12.35 6.11479 11.87 6.11479H11.8833ZM11.81 7.04813C11.81 7.04813 11.8167 7.08146 11.8167 7.10146V9.01479H10.9833V7.03479L11.81 7.04813ZM10.05 6.13479V9.02146H9.12333V8.80146L9.14333 7.42146L9.43 6.06813H10.0233C10.0233 6.06813 10.0433 6.09479 10.05 6.13479ZM8.17667 7.48146V8.09479L5.06333 8.96146L5.31 9.85479L8.18333 9.06146V9.95479H11.8167V11.3348H4.19V7.46146L8.17667 7.48146ZM11.81 13.7415H4.19V12.2681H11.81V13.7415Z" fill="#303030"/>
</svg>
