<svg width="16" height="16" viewBox="0 0 16 16" fill="none" xmlns="http://www.w3.org/2000/svg">
<path d="M7.97997 1.29688C4.29331 1.29688 1.30664 4.28354 1.30664 7.97021C1.30664 11.6569 4.29331 14.6435 7.97997 14.6435C11.6666 14.6435 14.6533 11.6569 14.6533 7.97021C14.6533 4.28354 11.6666 1.29688 7.97997 1.29688ZM13.7 7.53688H8.44664V2.25021C11.2533 2.47687 13.4866 4.72354 13.7 7.53688ZM2.23997 7.97021C2.23997 4.96354 4.56664 2.49687 7.51331 2.25687V8.03687L10.1933 13.2635C9.51331 13.5502 8.75997 13.7102 7.97997 13.7102C4.81331 13.7102 2.23997 11.1369 2.23997 7.97021ZM11.02 12.8235L8.78664 8.47021H13.6933C13.5333 10.3035 12.5066 11.8902 11.02 12.8235Z" fill="#303030"/>
</svg>
