<svg width="16" height="16" viewBox="0 0 16 16" fill="none" xmlns="http://www.w3.org/2000/svg">
<path d="M8.00004 1.33594C4.32004 1.33594 1.33337 4.3226 1.33337 8.0026C1.33337 11.6826 4.32004 14.6693 8.00004 14.6693C11.68 14.6693 14.6667 11.6826 14.6667 8.0026C14.6667 4.3226 11.68 1.33594 8.00004 1.33594ZM9.30004 2.4226L8.60671 4.36927C8.40671 4.33594 8.20671 4.31594 8.00004 4.31594C7.71337 4.31594 7.43337 4.34927 7.16671 4.41594L6.47337 2.4826C6.96004 2.34927 7.47337 2.26927 8.00004 2.26927C8.44671 2.26927 8.88004 2.32927 9.30004 2.4226ZM8.00004 10.7493C6.48671 10.7493 5.25337 9.51594 5.25337 8.0026C5.25337 6.48927 6.48671 5.25594 8.00004 5.25594C9.51337 5.25594 10.7467 6.48927 10.7467 8.0026C10.7467 9.51594 9.51337 10.7493 8.00004 10.7493ZM5.60004 2.8026L6.29337 4.7426C5.12004 5.35594 4.32004 6.58927 4.32004 8.0026C4.32004 8.08927 4.32671 8.16927 4.33337 8.25594L2.31337 8.66927C2.28671 8.44927 2.27337 8.22927 2.27337 8.00927C2.27337 5.70927 3.64004 3.7226 5.60671 2.80927L5.60004 2.8026ZM2.49337 9.5826L4.51337 9.16927C4.68004 9.67594 4.96004 10.1359 5.32004 10.5159L4.02004 12.1093C3.31337 11.4226 2.78004 10.5493 2.50004 9.57594L2.49337 9.5826ZM4.73337 12.7093L6.03337 11.1159C6.60004 11.4759 7.27337 11.6893 8.00004 11.6893C8.82004 11.6893 9.56671 11.4226 10.18 10.9693L11.42 12.5959C10.4667 13.3093 9.28004 13.7426 8.00004 13.7426C6.78671 13.7426 5.66004 13.3626 4.73337 12.7159V12.7093ZM12.1267 11.9759L10.86 10.3226C11.16 9.95594 11.3867 9.52927 11.5267 9.0626L13.52 9.53594C13.26 10.4626 12.78 11.3026 12.1267 11.9759ZM13.7 8.61594L11.68 8.13594C11.68 8.08927 11.6867 8.04927 11.6867 8.0026C11.6867 6.5026 10.7867 5.21594 9.50671 4.6426L10.2 2.70927C12.2734 3.56927 13.74 5.6226 13.74 8.0026C13.74 8.20927 13.7267 8.41594 13.7067 8.61594H13.7Z" fill="#303030"/>
</svg>
