<svg width="16" height="16" viewBox="0 0 16 16" fill="none" xmlns="http://www.w3.org/2000/svg">
<path d="M9.90015 8.99177H10.8335C10.8335 8.21177 11.4801 7.57844 12.2801 7.57844C13.0801 7.57844 13.7268 8.21177 13.7268 8.99177H14.6601C14.6601 8.09177 14.1401 7.31844 13.3868 6.9251C13.6268 6.65844 13.7801 6.3051 13.7801 5.91844C13.7801 5.07844 13.1001 4.39844 12.2601 4.39844C11.4201 4.39844 10.7401 5.07844 10.7401 5.91844C10.7401 6.31177 10.8935 6.67177 11.1468 6.93844C10.4068 7.33844 9.90681 8.1051 9.90681 8.99177H9.90015ZM12.2601 5.33177C12.5801 5.33177 12.8468 5.59177 12.8468 5.91844C12.8468 6.2451 12.5868 6.5051 12.2601 6.5051C11.9335 6.5051 11.6735 6.2451 11.6735 5.91844C11.6735 5.59177 11.9335 5.33177 12.2601 5.33177Z" fill="#303030"/>
<path d="M14.6802 12.0273L12.2935 9.64062L9.90683 12.0273L10.5668 12.6873L11.8135 11.4473L11.8335 13.7406H4.18016V10.4006H3.24683V14.674H12.7735L12.7468 11.414L14.0202 12.6873L14.6802 12.0273Z" fill="#303030"/>
<path d="M6.08675 4.21094H1.34009V8.9576H6.08675V4.21094ZM5.15342 8.02427H2.27342V5.14427H5.15342V8.02427Z" fill="#303030"/>
<path d="M2.9668 5.64062H4.4468V6.57396H2.9668V5.64062Z" fill="#303030"/>
</svg>
