<svg width="16" height="16" viewBox="0 0 16 16" fill="none" xmlns="http://www.w3.org/2000/svg">
<path d="M11.8332 1.34375V2.27708H13.0866L10.9799 4.38375L9.94657 3.35042L9.28657 4.01042L10.3199 5.04375L7.4599 7.90375C6.79323 7.37042 5.9799 7.07042 5.11323 7.07042C4.0999 7.07042 3.14657 7.46375 2.42657 8.18375C1.70657 8.90375 1.31323 9.85708 1.31323 10.8704C1.31323 11.8837 1.70657 12.8371 2.42657 13.5571C3.14657 14.2771 4.1399 14.6704 5.11323 14.6704C6.08657 14.6704 7.0599 14.2971 7.7999 13.5571C9.1599 12.1971 9.25323 10.0571 8.1199 8.57042L10.9866 5.70375L11.9932 6.71042L12.6532 6.05042L11.6466 5.04375L13.7466 2.94375V4.19708H14.6799V1.34375H11.8399H11.8332ZM7.13323 12.8971C6.01323 14.0104 4.1999 14.0171 3.0799 12.8971C2.5399 12.3571 2.2399 11.6371 2.2399 10.8704C2.2399 10.1037 2.5399 9.38375 3.0799 8.84375C3.6199 8.30375 4.3399 8.00375 5.10657 8.00375C5.87323 8.00375 6.59323 8.30375 7.13323 8.84375C8.25323 9.96375 8.25323 11.7771 7.13323 12.8971Z" fill="#303030"/>
</svg>
