<svg width="16" height="16" viewBox="0 0 16 16" fill="none" xmlns="http://www.w3.org/2000/svg">
<path d="M7.99338 9.18354C8.65244 9.18354 9.18672 8.64927 9.18672 7.99021C9.18672 7.33115 8.65244 6.79688 7.99338 6.79688C7.33432 6.79688 6.80005 7.33115 6.80005 7.99021C6.80005 8.64927 7.33432 9.18354 7.99338 9.18354Z" fill="#303030"/>
<path d="M5.34677 5.35938C3.97344 6.77938 3.97344 9.24604 5.34677 10.6394L6.01344 9.98604C4.98011 8.93937 4.98011 7.07938 6.01344 6.00604L5.34011 5.35938H5.34677Z" fill="#303030"/>
<path d="M9.98677 6.00604C11.0201 7.07271 11.0268 8.93271 9.98677 9.98604L10.6534 10.6394C12.0268 9.24604 12.0334 6.77938 10.6534 5.35938L9.9801 6.00604H9.98677Z" fill="#303030"/>
<path d="M3.96672 3.93135L3.28005 3.30469C0.806715 6.01802 0.806715 9.88469 3.28005 12.7114L3.98005 12.098C1.82672 9.64469 1.82005 6.28469 3.96672 3.93802V3.93135Z" fill="#303030"/>
<path d="M12.0334 3.96146C14.18 6.30812 14.1734 9.66813 12.02 12.1215L12.72 12.7348C15.1934 9.90813 15.1934 6.04146 12.72 3.32812L12.0334 3.95479V3.96146Z" fill="#303030"/>
</svg>
