<svg width="16" height="16" viewBox="0 0 16 16" fill="none" xmlns="http://www.w3.org/2000/svg">
<path d="M2.11335 14.6517C5.68669 14.4917 8.45335 13.545 10.48 11.7717L9.82002 11.1117C8.04669 12.6517 5.63335 13.485 2.52669 13.6917L2.29335 10.2583L4.04669 9.685L5.53335 11.1517L5.80669 11.0583C6.80002 10.7183 7.66002 10.265 8.39335 9.685L7.73335 9.025C7.16669 9.45167 6.51335 9.805 5.77335 10.0783L4.29335 8.625L1.31335 9.59833L1.65335 14.6717L2.11335 14.6517Z" fill="#303030"/>
<path d="M11.7533 10.4017C13.3133 8.40167 14.24 5.68167 14.5933 2.195L14.64 1.715L9.54 1.375L8.56667 4.355L10.0267 5.835C9.78 6.52833 9.44667 7.14167 9.04667 7.695L2.74667 1.395L2.08667 2.055L14 13.9683L14.66 13.3083L11.7467 10.395L11.7533 10.4017ZM11 5.86167L11.0867 5.58833L9.62667 4.10167L10.1933 2.355L13.6067 2.58167C13.2467 5.615 12.4267 7.98833 11.0933 9.74833L9.70667 8.36167C10.26 7.64167 10.6933 6.80833 11 5.86167Z" fill="#303030"/>
</svg>
