<svg width="16" height="16" viewBox="0 0 16 16" fill="none" xmlns="http://www.w3.org/2000/svg">
<path d="M12.7935 7.99635C12.7935 6.85497 11.8682 5.92969 10.7268 5.92969C9.58543 5.92969 8.66016 6.85497 8.66016 7.99635C8.66016 9.13774 9.58543 10.063 10.7268 10.063C11.8682 10.063 12.7935 9.13774 12.7935 7.99635Z" fill="#303030"/>
<path d="M10.88 11.7787H5.08005C2.99338 11.7787 1.30005 10.0854 1.30005 7.99875C1.30005 5.91208 2.99338 4.21875 5.08005 4.21875H10.8734C12.96 4.21875 14.6534 5.91208 14.6534 7.99875C14.6534 10.0854 12.96 11.7787 10.8734 11.7787H10.88ZM5.08005 5.15875C3.51338 5.15875 2.23338 6.43875 2.23338 8.00542C2.23338 9.57208 3.51338 10.8521 5.08005 10.8521H10.8734C12.44 10.8521 13.72 9.57208 13.72 8.00542C13.72 6.43875 12.44 5.15875 10.8734 5.15875H5.08005Z" fill="#303030"/>
</svg>
