<svg width="16" height="16" viewBox="0 0 16 16" fill="none" xmlns="http://www.w3.org/2000/svg">
<path d="M5.13325 13.7318V8.2651V5.39844L7.99992 2.59844L10.8666 5.39844V8.2651V13.7318L11.2666 14.6651H14.6666V10.9318L11.7999 8.13177V5.0651L7.99992 1.39844L4.19992 5.0651V8.13177L1.33325 10.9318V14.7318H4.73325L5.13325 13.7984V13.7318ZM11.7999 9.39844L13.7333 11.3318V13.7984H11.8666L11.7999 13.5984V9.4651V9.39844ZM4.19992 13.5318V13.7318C4.13325 13.7318 2.26659 13.7318 2.26659 13.7318V11.2651L4.19992 9.33177V13.4651V13.5318Z" fill="#303030"/>
<path d="M6.59985 13.7344H9.46652V14.6677H6.59985V13.7344Z" fill="#303030"/>
<path d="M9.33333 6.66198L10 5.99531C9.46667 5.46198 8.73333 5.19531 8 5.19531C7.26667 5.19531 6.53333 5.46198 6 5.99531L6.66667 6.66198C7.4 5.92865 8.66667 5.92865 9.33333 6.66198Z" fill="#303030"/>
</svg>
