<svg width="16" height="16" viewBox="0 0 16 16" fill="none" xmlns="http://www.w3.org/2000/svg">
<path d="M8.3467 1.32812L6.57336 3.10146L8.3467 4.87479V3.74146H13.72V12.2148H10.8534V13.1481H14.6534V2.80813H8.3467V1.32812Z" fill="#303030"/>
<path d="M5.14001 3.73802V2.80469H1.34668V13.1514H7.66001V14.458L9.44001 12.6847L7.66001 10.9114V12.218H2.28001V3.73802H5.14001Z" fill="#303030"/>
<path d="M8.67999 10.1527V5.85938H7.70666C7.70666 5.98604 7.69333 6.07938 7.67999 6.14604C7.65999 6.20604 7.62666 6.25271 7.58666 6.27271C7.54666 6.29271 7.47999 6.30604 7.39333 6.30604H6.82666V7.11271H7.70666V10.146H8.67999V10.1527Z" fill="#303030"/>
</svg>
