<svg width="16" height="16" viewBox="0 0 16 16" fill="none" xmlns="http://www.w3.org/2000/svg">
<path d="M1.33325 13.2348H7.99325V12.3015H2.26659V5.14812H13.7266V7.44813H14.6599V1.82812H1.33325V13.2348ZM13.7199 2.76146V4.21479H2.26659V2.76146H13.7266H13.7199ZM10.8333 8.44813L8.93325 10.3481L12.6199 14.0348L14.6333 14.1681L14.5399 12.1548L10.8333 8.44813ZM13.0266 13.1281L10.2466 10.3481L10.8266 9.76813L13.6199 12.5615L13.6466 13.1748L13.0266 13.1348V13.1281ZM5.13992 6.58146H6.07992V7.52146H5.13992V6.58146ZM7.05325 6.58146H10.8399V7.52146H7.05325V6.58146ZM5.13992 8.48146H6.07992V9.42146H5.13992V8.48146ZM7.05325 8.48146H8.47992V9.42146H7.05325V8.48146Z" fill="#303030"/>
</svg>
