<svg width="16" height="16" viewBox="0 0 16 16" fill="none" xmlns="http://www.w3.org/2000/svg">
<path d="M1.35669 8.05292H2.29002C2.29002 11.2062 4.85669 13.7662 8.00336 13.7662C11.15 13.7662 13.7167 11.1996 13.7167 8.05292C13.7167 4.90625 11.1567 2.33958 8.00336 2.33958C5.95669 2.33958 4.08336 3.45292 3.07002 5.19958H5.18336V6.13292H1.35669V2.35292H2.29002V4.68625C3.47669 2.67958 5.64336 1.40625 8.00336 1.40625C11.67 1.40625 14.65 4.38625 14.65 8.05292C14.65 11.7196 11.67 14.6996 8.00336 14.6996C4.33669 14.6996 1.35669 11.7196 1.35669 8.05292ZM9.29002 8.35958C9.75002 7.97958 10.0567 7.41292 10.0567 6.77292C10.0567 5.63958 9.13669 4.71958 8.00336 4.71958C6.87002 4.71958 5.95002 5.63958 5.95002 6.77292C5.95002 7.41292 6.25002 7.97958 6.71669 8.35958C5.51002 8.85958 4.65669 10.0329 4.65669 11.4062H5.59002C5.59002 10.0996 6.67002 9.03958 8.00336 9.03958C9.33669 9.03958 10.4167 10.0996 10.4167 11.4062H11.35C11.35 10.0329 10.4967 8.85958 9.29002 8.35958ZM8.00336 5.65292C8.62336 5.65292 9.12336 6.15292 9.12336 6.77292C9.12336 7.39292 8.62336 7.89292 8.00336 7.89292C7.38336 7.89292 6.88336 7.39292 6.88336 6.77292C6.88336 6.15292 7.38336 5.65292 8.00336 5.65292Z" fill="#303030"/>
</svg>
