<svg width="16" height="16" viewBox="0 0 16 16" fill="none" xmlns="http://www.w3.org/2000/svg">
<path d="M12.5367 7.98812V4.49479L9.71005 1.32812H2.05005V14.6615H7.29672V13.7281H2.98338V2.26146H8.73005V5.12146H11.5967V7.98146H12.5367V7.98812ZM9.67005 2.68812L11.0167 4.19479H9.67005V2.68812ZM4.20338 12.7281H4.85672L4.99672 12.1015H5.77672L5.92338 12.7281H6.58338L5.81672 9.86812H4.92338L4.21005 12.7281H4.20338ZM5.37005 10.3615L5.65672 11.6081H5.09005L5.36338 10.3615H5.37005ZM8.40338 9.86812H9.05672L8.35005 12.7281H7.45005L6.69005 9.86812H7.35005L7.89005 12.1015L8.40338 9.86812ZM11.3234 10.7815C11.3234 10.1948 10.9767 9.86812 10.2834 9.86812H9.43005V12.7281H10.0767V11.6948H10.2634L10.73 12.7281H11.43L10.8834 11.5615C11.17 11.4081 11.33 11.1281 11.33 10.7815H11.3234ZM10.27 11.1881H10.0767V10.4215H10.2434C10.5167 10.4215 10.6901 10.5148 10.6901 10.7881C10.6901 11.0815 10.5167 11.1881 10.2634 11.1881H10.27ZM11.73 11.2881C11.73 12.1481 12.07 12.7815 12.8367 12.7815C13.6034 12.7815 13.9434 12.1481 13.9434 11.2881C13.9434 10.4281 13.6167 9.81479 12.8367 9.81479C12.0567 9.81479 11.73 10.4481 11.73 11.2881ZM13.2634 11.2881C13.2634 11.9215 13.1434 12.2281 12.8367 12.2281C12.55 12.2281 12.4034 11.9215 12.4034 11.2881C12.4034 10.6548 12.55 10.3681 12.8367 10.3681C13.1434 10.3681 13.2634 10.6748 13.2634 11.2881Z" fill="#303030"/>
</svg>
