<svg width="16" height="16" viewBox="0 0 16 16" fill="none" xmlns="http://www.w3.org/2000/svg">
<path d="M5.28671 8.12417C5.54004 8.12417 5.78671 8.09083 6.03337 8.02417L8.34671 10.3375L9.31337 10.7175L9.70004 11.6775L10.66 12.0642L11.0467 13.0242L12.58 12.8375L13.7267 11.6908L8.04671 6.0175C8.30004 5.06417 8.06671 4.0175 7.32004 3.27083C6.76004 2.71083 6.03337 2.4375 5.30671 2.4375C4.58004 2.4375 3.84671 2.7175 3.29337 3.27083C2.18004 4.38417 2.18004 6.19083 3.29337 7.30417C3.84671 7.8575 4.56671 8.13083 5.29337 8.13083L5.28671 8.12417ZM3.94671 3.93083C4.30671 3.57083 4.79337 3.37083 5.30004 3.37083C5.80671 3.37083 6.29337 3.57083 6.65337 3.93083C7.13337 4.41083 7.32004 5.10417 7.14004 5.7775L7.00004 6.2975L7.38004 6.6775L12.4 11.6908L12.14 11.9508L11.64 12.0108L11.52 11.7175L11.3734 11.3508L11.0067 11.2042L10.4134 10.9642L10.1734 10.3708L10.02 9.9975L9.64671 9.85083L8.86004 9.54417L6.68671 7.37083L6.30671 6.99083L5.78671 7.13083C5.62004 7.1775 5.45337 7.1975 5.28004 7.1975C4.77337 7.1975 4.29337 7.00417 3.94004 6.64417C3.58004 6.28417 3.38004 5.7975 3.38004 5.29083C3.38004 4.78417 3.58004 4.2975 3.94004 3.9375L3.94671 3.93083Z" fill="#303030"/>
</svg>
