<svg width="16" height="16" viewBox="0 0 16 16" fill="none" xmlns="http://www.w3.org/2000/svg">
<path d="M7.99998 14.6693C11.68 14.6693 14.6666 11.6826 14.6666 8.0026C14.6666 4.3226 11.68 1.33594 7.99998 1.33594C4.31998 1.33594 1.33331 4.31594 1.33331 8.0026C1.33331 11.6893 4.31998 14.6693 7.99998 14.6693ZM7.99998 2.26927C11.16 2.26927 13.7333 4.8426 13.7333 8.0026C13.7333 11.1626 11.16 13.7359 7.99998 13.7359C4.83998 13.7359 2.26665 11.1626 2.26665 8.0026C2.26665 4.8426 4.83998 2.26927 7.99998 2.26927ZM11.18 7.21594L10.52 6.55594L8.00665 9.06927L5.49331 6.54927L4.82665 7.20927L8.00665 10.3893L11.18 7.21594Z" fill="#303030"/>
</svg>
