<svg width="16" height="16" viewBox="0 0 16 16" fill="none" xmlns="http://www.w3.org/2000/svg">
<path d="M6.22006 1.33594H2.7334V2.2626H6.22006V12.7759H7.2934V2.2626H10.7201V1.33594H7.2934H6.22006Z" fill="#303030"/>
<path d="M12.5535 12.4569C12.7202 12.2435 12.8535 12.0235 12.9602 11.7902C13.0668 11.5569 13.1202 11.3169 13.1202 11.0769C13.1202 10.6702 12.9802 10.3569 12.7068 10.1302C12.4268 9.90354 12.0402 9.79688 11.5468 9.79688C10.9935 9.79688 10.5602 9.93688 10.2402 10.2102C9.92016 10.4902 9.76016 10.8902 9.74683 11.4169H10.6468C10.6602 11.1169 10.7402 10.8902 10.8802 10.7369C11.0202 10.5835 11.2268 10.5035 11.4935 10.5035C11.7202 10.5035 11.8935 10.5635 12.0068 10.6769C12.1202 10.7902 12.1802 10.9502 12.1802 11.1435C12.1802 11.3369 12.1202 11.5502 11.9935 11.7702C11.8735 11.9902 11.7268 12.1969 11.5602 12.3969C11.3935 12.5902 11.1868 12.8169 10.9402 13.0702L9.88016 14.1635V14.6435H13.2202V13.8569H11.3002L11.8802 13.2302C12.1602 12.9235 12.3802 12.6635 12.5468 12.4502L12.5535 12.4569Z" fill="#303030"/>
</svg>
