<svg width="16" height="16" viewBox="0 0 16 16" fill="none" xmlns="http://www.w3.org/2000/svg">
<path d="M6.96672 14.6512C6.39339 14.6512 5.53339 14.2646 5.53339 13.2046H6.46672C6.46672 13.6912 6.88005 13.7179 6.96672 13.7179C7.22672 13.7179 7.32005 13.6312 7.34672 13.5979C7.44005 13.5046 7.54672 13.2779 7.54005 12.7246V7.53125H8.47339V12.7179C8.48005 13.4179 8.33339 13.9246 8.00672 14.2513C7.74672 14.5113 7.40005 14.6446 6.96672 14.6446V14.6512Z" fill="#303030"/>
<path d="M8.46669 2.31479V1.32812H7.53336V2.31479C4.08003 2.55479 1.34003 5.43479 1.34003 8.94813V9.41479H5.14003V8.48146H2.29336C2.53336 5.54146 5.00003 3.22146 8.00003 3.22146C11 3.22146 13.4667 5.54146 13.7067 8.48146H10.86V9.41479H14.66V8.94813C14.66 5.43479 11.92 2.55479 8.46669 2.31479Z" fill="#303030"/>
</svg>
