<svg width="16" height="16" viewBox="0 0 16 16" fill="none" xmlns="http://www.w3.org/2000/svg">
<path d="M6.33988 11.2032V12.3099H7.27322V11.2032C7.82655 11.0099 8.23322 10.4966 8.23322 9.88323C8.23322 9.1099 7.59322 8.47656 6.80655 8.47656C6.01988 8.47656 5.37988 9.10323 5.37988 9.88323C5.37988 10.4966 5.77988 11.0099 6.33322 11.2032H6.33988Z" fill="#303030"/>
<path d="M11.5733 1.8125C9.95332 1.8125 8.72665 3.12583 8.72665 4.86583V6.06583H1.58665L1.56665 14.6792H12.04V6.06583H9.64665V4.86583C9.64665 3.6325 10.4533 2.74583 11.56 2.74583C12.6667 2.74583 13.4733 3.63917 13.4733 4.86583H14.4067C14.4067 3.12583 13.18 1.8125 11.56 1.8125H11.5733ZM11.1133 13.7525H2.50665L2.51998 7.00583H11.1133V13.7525Z" fill="#303030"/>
</svg>
