<svg width="16" height="16" viewBox="0 0 16 16" fill="none" xmlns="http://www.w3.org/2000/svg">
<path d="M7.99333 1.32812C4.31333 1.32812 1.32666 4.31479 1.32666 7.99479C1.32666 11.6748 4.31333 14.6615 7.99333 14.6615C11.6733 14.6615 14.66 11.6748 14.66 7.99479C14.66 4.31479 11.68 1.32812 7.99333 1.32812ZM7.99333 2.26812C9.40666 2.26812 10.6933 2.78146 11.6933 3.62812L3.61999 11.7015C2.77333 10.7015 2.25999 9.40812 2.25999 8.00146C2.25999 4.83479 4.83333 2.26812 7.99333 2.26812ZM7.99333 13.7348C6.57999 13.7348 5.28666 13.2148 4.27999 12.3615L12.3533 4.28812C13.2067 5.28812 13.7267 6.58146 13.7267 8.00146C13.7267 11.1615 11.1533 13.7348 7.99333 13.7348Z" fill="#303030"/>
</svg>
