<svg width="16" height="16" viewBox="0 0 16 16" fill="none" xmlns="http://www.w3.org/2000/svg">
<path d="M8.88013 7.05344H11.7335C11.4935 8.14677 10.5068 8.97344 9.34679 8.97344H8.88013L8.89346 11.8268H9.36013C12.2535 11.8268 14.6335 9.47344 14.6668 6.5801V1.27344H8.88679V7.05344H8.88013ZM9.81346 2.20677H13.7268V6.5801C13.7001 8.8001 11.9868 10.6401 9.82013 10.8734V9.87344C11.4268 9.64677 12.6935 8.2601 12.7268 6.59344V6.1201H9.82013V2.20677H9.81346Z" fill="#303030"/>
<path d="M1.80675 8.97344H1.34009L1.35342 11.8268H1.82009C4.71342 11.8268 7.09342 9.47344 7.12675 6.5801V1.27344H1.34009V7.05344H4.19342C3.95342 8.14677 2.96675 8.97344 1.80675 8.97344ZM2.27342 6.1201V2.20677H6.18675V6.5801C6.16009 8.8001 4.44675 10.6401 2.28009 10.8734V9.87344C3.88675 9.64677 5.15342 8.2601 5.18675 6.59344V6.1201H2.28009H2.27342Z" fill="#303030"/>
</svg>
