<svg width="16" height="16" viewBox="0 0 16 16" fill="none" xmlns="http://www.w3.org/2000/svg">
<path d="M8.56002 4.32375L10.02 5.80375C9.28002 7.86375 7.88669 9.25042 5.77335 10.0438L4.29335 8.59042L1.31335 9.56375L1.65335 14.6371L2.11335 14.6171C9.81335 14.2638 13.7734 10.3038 14.5867 2.16375L14.6334 1.68375L9.53335 1.34375L8.56002 4.32375ZM10.1934 2.32375L13.6 2.55042C12.7467 9.75708 9.30669 13.2037 2.52002 13.6571L2.29335 10.2238L4.04002 9.65708L5.52669 11.1238L5.80002 11.0304C8.42002 10.1371 10.1667 8.39042 10.9934 5.83042L11.08 5.56375L9.62002 4.07708L10.1867 2.33042L10.1934 2.32375Z" fill="#303030"/>
</svg>
