<svg width="16" height="16" viewBox="0 0 16 16" fill="none" xmlns="http://www.w3.org/2000/svg">
<path d="M14.6 9.46406C14.6 6.53073 12.2 4.1974 9.33332 4.1974H5.86665L7.73332 2.33073L7.06665 1.66406L4.06665 4.66406L7.06665 7.66406L7.73332 6.9974L5.86665 5.13073H9.26665C11.6667 5.13073 13.6 7.06406 13.6 9.46406C13.6 11.8641 11.6667 13.7307 9.26665 13.7307H7.99998V14.6641H9.26665C12.2 14.6641 14.5333 12.3974 14.5333 9.46406H14.6Z" fill="#303030"/>
<path d="M5.00004 6.9974L2.66671 4.66406L5.00004 2.33073L4.33337 1.66406L1.33337 4.66406L4.33337 7.66406L5.00004 6.9974Z" fill="#303030"/>
</svg>
