<svg width="16" height="16" viewBox="0 0 16 16" fill="none" xmlns="http://www.w3.org/2000/svg">
<path d="M7.9933 6.06052C6.42663 6.06052 5.14663 7.34052 5.14663 8.90719C5.14663 10.4739 6.42663 11.7539 7.9933 11.7539C9.55997 11.7539 10.84 10.4739 10.84 8.90719C10.84 7.34052 9.55997 6.06052 7.9933 6.06052ZM7.9933 10.8205C6.93997 10.8205 6.07997 9.96052 6.07997 8.90719C6.07997 7.85385 6.93997 6.99385 7.9933 6.99385C9.04663 6.99385 9.90663 7.85385 9.90663 8.90719C9.90663 9.96052 9.04663 10.8205 7.9933 10.8205ZM1.33997 14.1339H14.6666V3.68052H1.33997V14.1272V14.1339ZM2.2733 4.61385H13.7333V13.1939H2.2733V4.61385ZM1.81997 1.86719H3.72663V2.80052H1.81997V1.86719Z" fill="#303030"/>
</svg>
