<svg width="16" height="16" viewBox="0 0 16 16" fill="none" xmlns="http://www.w3.org/2000/svg">
<path d="M9.55337 1.36719C6.75337 1.36719 4.48003 3.64052 4.48003 6.44052C4.48003 7.67385 4.92003 8.80052 5.6467 9.68052L1.3667 13.9539L2.0267 14.6139L6.3067 10.3405C7.1867 11.0739 8.32003 11.5139 9.55337 11.5139C12.3534 11.5139 14.6267 9.24052 14.6267 6.44052C14.6267 3.64052 12.3534 1.36719 9.55337 1.36719ZM9.55337 10.5872C7.2667 10.5872 5.41337 8.72719 5.41337 6.44719C5.41337 4.16719 7.27337 2.30719 9.55337 2.30719C11.8334 2.30719 13.6934 4.16719 13.6934 6.44719C13.6934 8.72719 11.8334 10.5872 9.55337 10.5872Z" fill="#303030"/>
<path d="M7.18005 5.97656H11.9267V6.9099H7.18005V5.97656Z" fill="#303030"/>
</svg>
