<svg width="16" height="16" viewBox="0 0 16 16" fill="none" xmlns="http://www.w3.org/2000/svg">
<path d="M9.56665 11.8038H8.47999V10.7237H7.54665V11.8038H6.45999V12.7371H7.54665V13.8171H8.48665V12.7371H9.56665V11.8038ZM7.93999 9.07042H8.03999C11.1667 9.09042 13.7133 11.5971 13.7133 14.6771H14.6467C14.6467 12.5237 13.58 10.6171 11.9467 9.42375H14.6333L12.38 5.24375H12.3933L11.5733 1.34375H4.31999L3.63999 5.24375H3.65999L1.36665 9.42375H4.05999C2.42665 10.6171 1.35999 12.5237 1.35999 14.6771H2.29332C2.29332 11.6171 4.79999 9.13042 7.89999 9.07708H7.93999V9.07042ZM8.00665 8.13042H7.91999C6.32665 8.11708 5.03332 6.83042 5.01332 5.23708H10.8733C10.8533 6.81708 9.58665 8.09042 8.01332 8.12375L8.00665 8.13042ZM10.1467 8.48375C10.1133 8.47042 10.0733 8.45708 10.04 8.44375C10.8933 7.89042 11.5133 7.01708 11.7267 5.99042L13.0733 8.48375H10.1467ZM5.10665 2.27042H10.8133L11.24 4.30375H4.75332L5.10665 2.27042ZM5.85999 8.48375H2.94665L4.20665 6.19042C4.45999 7.15042 5.07332 7.95708 5.88665 8.47042C5.87999 8.47042 5.86665 8.47708 5.85999 8.47708V8.48375Z" fill="#303030"/>
</svg>
