<svg width="16" height="16" viewBox="0 0 16 16" fill="none" xmlns="http://www.w3.org/2000/svg">
<path d="M8.01327 2.50667L13.7533 4.8V13.72H2.2866V4.8L8.01327 2.50667ZM8.01327 1.5L1.35327 4.16667V14.6533H14.6866V4.16667L8.01327 1.5Z" fill="#303030"/>
<path d="M9.69321 8.77417C10.2599 8.29417 10.6265 7.5875 10.6265 6.79417C10.6265 5.35417 9.45988 4.1875 8.01988 4.1875C6.57988 4.1875 5.41321 5.35417 5.41321 6.79417C5.41321 7.60083 5.79321 8.32083 6.37321 8.80083C4.80654 9.45417 3.70654 10.9808 3.70654 12.7542H4.63988C4.63988 10.9208 6.15321 9.4275 8.01321 9.40083C8.02654 9.40083 8.03988 9.40083 8.05321 9.40083C9.93988 9.40083 11.4665 10.9075 11.4665 12.7542H12.3999C12.3999 10.9542 11.2732 9.41417 9.67988 8.78083L9.69321 8.77417ZM6.35321 6.79417C6.35321 5.87417 7.09988 5.12083 8.02654 5.12083C8.95321 5.12083 9.69988 5.8675 9.69988 6.79417C9.69988 7.72083 8.97321 8.44083 8.07321 8.46083C8.05321 8.46083 8.03321 8.46083 8.01321 8.46083C7.09988 8.45417 6.35988 7.7075 6.35988 6.7875L6.35321 6.79417Z" fill="#303030"/>
</svg>
