<svg width="16" height="16" viewBox="0 0 16 16" fill="none" xmlns="http://www.w3.org/2000/svg">
<path d="M9.36001 5.36C9.36001 5.5386 9.32484 5.71545 9.25649 5.88045C9.18814 6.04545 9.08797 6.19538 8.96168 6.32167C8.83539 6.44795 8.68547 6.54813 8.52046 6.61648C8.35546 6.68482 8.17861 6.72 8.00001 6.72C7.82142 6.72 7.64457 6.68482 7.47957 6.61648C7.31456 6.54813 7.16464 6.44795 7.03835 6.32167C6.91206 6.19538 6.81188 6.04545 6.74354 5.88045C6.67519 5.71545 6.64001 5.5386 6.64001 5.36C6.64001 4.99931 6.7833 4.65338 7.03835 4.39833C7.2934 4.14329 7.63932 4 8.00001 4C8.36071 4 8.70663 4.14329 8.96168 4.39833C9.21673 4.65338 9.36001 4.99931 9.36001 5.36Z" fill="#303030"/>
<path d="M12 10.6413C12 10.8198 11.9649 10.9967 11.8965 11.1617C11.8282 11.3267 11.728 11.4766 11.6017 11.6029C11.4754 11.7292 11.3255 11.8294 11.1605 11.8977C10.9955 11.9661 10.8186 12.0013 10.64 12.0013C10.4614 12.0013 10.2846 11.9661 10.1196 11.8977C9.95458 11.8294 9.80465 11.7292 9.67836 11.6029C9.55208 11.4766 9.4519 11.3267 9.38355 11.1617C9.31521 10.9967 9.28003 10.8198 9.28003 10.6413C9.28003 10.2806 9.42331 9.93463 9.67836 9.67958C9.93341 9.42454 10.2793 9.28125 10.64 9.28125C11.0007 9.28125 11.3466 9.42454 11.6017 9.67958C11.8567 9.93463 12 10.2806 12 10.6413Z" fill="#303030"/>
<path d="M6.72 10.6413C6.72 11.0019 6.57671 11.3479 6.32167 11.6029C6.06662 11.858 5.72069 12.0013 5.36 12.0013C4.99931 12.0013 4.65338 11.858 4.39833 11.6029C4.14329 11.3479 4 11.0019 4 10.6413C4 10.2806 4.14329 9.93463 4.39833 9.67958C4.65338 9.42454 4.99931 9.28125 5.36 9.28125C5.72069 9.28125 6.06662 9.42454 6.32167 9.67958C6.57671 9.93463 6.72 10.2806 6.72 10.6413Z" fill="#303030"/>
</svg>
