<svg width="16" height="16" viewBox="0 0 16 16" fill="none" xmlns="http://www.w3.org/2000/svg">
<path d="M14.6834 7.52813H13.2301C13.0101 5.00146 10.9967 3.00146 8.47672 2.78146V1.32812H7.54339V2.78813C5.02339 3.01479 3.03006 5.02146 2.80339 7.53479H1.31006V8.46813H2.80339C3.02339 10.9881 5.03006 12.9881 7.54339 13.2148V14.6681H8.47672V13.2148C11.0034 12.9948 13.0034 10.9881 13.2301 8.46813H14.6834V7.53479V7.52813ZM8.47672 12.2748V10.8548H7.54339V12.2748C5.54339 12.0548 3.95673 10.4615 3.74339 8.46813H5.16339V7.53479H3.74339C3.96339 5.53479 5.55006 3.94813 7.54339 3.72813V5.16146H8.47672V3.72813C10.4834 3.94146 12.0767 5.54146 12.2901 7.54146H10.8434V8.47479H12.2901C12.0701 10.4815 10.4767 12.0681 8.47672 12.2815V12.2748Z" fill="#303030"/>
</svg>
