<svg width="16" height="16" viewBox="0 0 16 16" fill="none" xmlns="http://www.w3.org/2000/svg">
<path d="M4.93333 11.8693L6.26667 11.5359V14.6693L7.93333 13.2026L9.6 14.6693V11.5359L11 11.8693L11.8667 8.86927L14 6.6026L11.8667 4.33594L11 1.33594L8 2.06927L5 1.33594L4.13333 4.33594L2 6.6026L4.13333 8.86927L5 11.8693H4.93333ZM8.66667 12.6026L7.93333 11.9359L7.2 12.6026V11.2693L7.93333 11.0693L8.66667 11.2693V12.6026ZM4.73333 5.0026L4.86667 4.86927V4.66927L5.53333 2.53594L7.66667 3.06927H8.06667L10.2 2.53594L10.8 4.66927V4.86927L11 5.0026L12.5333 6.6026L11 8.2026L10.8667 8.33594V8.53594L10.2 10.6693L8.06667 10.1359H7.66667L5.53333 10.6693L4.93333 8.53594V8.33594L4.73333 8.2026L3.2 6.6026L4.73333 5.0026Z" fill="#303030"/>
</svg>
