<svg width="16" height="16" viewBox="0 0 16 16" fill="none" xmlns="http://www.w3.org/2000/svg">
<path d="M13.6132 5.98831C13.5198 6.04165 7.09983 11.9216 6.94649 12.0883C6.85316 12.195 6.86649 12.2216 7.39316 12.7816C7.69316 13.1016 7.97316 13.355 8.01983 13.3483C8.05983 13.3416 9.58649 11.8083 11.4132 9.94832C14.2065 7.10165 14.7132 6.55498 14.6532 6.48831C14.4798 6.32165 13.6932 5.94165 13.6132 5.98831Z" fill="#303030"/>
<path d="M10.2599 8.39073C10.2599 8.33073 9.39323 7.67073 9.30656 7.66406C9.2399 7.66406 5.54656 10.6441 5.51323 10.7307C5.49323 10.7774 5.67323 11.0041 5.9599 11.2907C6.2199 11.5507 6.45323 11.7707 6.47323 11.7707C6.54656 11.7707 10.2599 8.4574 10.2599 8.39073Z" fill="#303030"/>
<path d="M6.95996 8.91187C6.95996 8.83854 6.18663 8.17188 6.09996 8.17188C6.04663 8.17188 4.43996 9.28521 4.28663 9.43187C4.25329 9.45854 4.39329 9.65854 4.61996 9.91187C4.83329 10.1452 5.05329 10.3452 5.10663 10.3452C5.21996 10.3452 6.95996 9.00521 6.95996 8.91854V8.91187Z" fill="#303030"/>
<path d="M8.53314 4.89182C8.42648 4.93182 3.32648 8.22516 3.21981 8.31849C3.14648 8.38516 3.18648 8.44516 3.50648 8.77182C3.71981 8.98516 3.91314 9.13182 3.95981 9.12516C4.08648 9.09182 9.31981 5.43182 9.31981 5.37182C9.31981 5.29182 8.61314 4.86516 8.53314 4.89182Z" fill="#303030"/>
<path d="M11.9333 5.04479C11.9533 4.97813 11.2666 4.57812 11.1266 4.57812C11.0733 4.57812 10.2066 5.17146 9.19328 5.89813C8.17994 6.62479 7.16661 7.35146 6.93994 7.51146C6.71328 7.67146 6.52661 7.83146 6.52661 7.86479C6.52661 7.90479 6.69328 8.07812 6.90661 8.25146C7.11994 8.42479 7.32661 8.57146 7.37994 8.57146C7.47328 8.57146 11.8999 5.13813 11.9333 5.04479Z" fill="#303030"/>
<path d="M5.85992 5.22656C5.47992 5.43323 2.31992 7.2999 2.25992 7.35323C2.19326 7.41323 2.23326 7.4799 2.47992 7.74656C2.64659 7.9199 2.81992 8.06656 2.87326 8.06656C2.97992 8.06656 6.54659 5.82656 6.57326 5.74656C6.59326 5.6799 5.92659 5.1999 5.85992 5.23323V5.22656Z" fill="#303030"/>
<path d="M10.64 8.05055C10.7533 8.03055 13.2533 5.83055 13.2533 5.75055C13.2533 5.71721 13.0467 5.58388 12.8 5.45055C12.4067 5.23721 12.3333 5.21721 12.24 5.28388C11.7667 5.61721 9.66667 7.36388 9.68667 7.41055C9.7 7.44388 9.89333 7.60388 10.1267 7.77055C10.36 7.93721 10.5933 8.06388 10.6467 8.05721L10.64 8.05055Z" fill="#303030"/>
<path d="M8.33325 3.02833L8.02659 2.875L4.81325 4.615C3.04659 5.575 1.53992 6.395 1.46659 6.44167L1.33325 6.52833L1.63992 6.835C1.80659 7.00167 1.95325 7.14167 1.95992 7.14167C2.03992 7.14167 8.64659 3.28167 8.64659 3.235C8.64659 3.20167 8.50659 3.10167 8.33992 3.02167L8.33325 3.02833Z" fill="#303030"/>
<path d="M6.29988 5.015C6.29988 5.04833 6.41988 5.175 6.57321 5.28167C6.71988 5.395 6.88655 5.48833 6.93988 5.48833C7.04655 5.48833 9.66655 3.84833 9.66655 3.78167C9.66655 3.755 9.51321 3.655 9.31988 3.555L8.97321 3.375L7.63321 4.16167C6.89988 4.595 6.29321 4.98167 6.29321 5.015H6.29988Z" fill="#303030"/>
<path d="M9.25318 4.94963C9.43318 5.06296 9.60651 5.1563 9.63985 5.1563C9.69985 5.1563 10.4598 4.6563 10.6465 4.48963C10.6998 4.44296 10.7332 4.38296 10.7198 4.3563C10.6732 4.2763 10.0598 3.94963 9.98651 3.96963C9.83985 4.00963 8.92651 4.6163 8.92651 4.68296C8.92651 4.72296 9.07318 4.84296 9.25318 4.94963Z" fill="#303030"/>
</svg>
