<svg width="16" height="16" viewBox="0 0 16 16" fill="none" xmlns="http://www.w3.org/2000/svg">
<path d="M10.6666 8.17365C10.0666 7.57365 9.29327 7.21365 8.46661 7.10698V6.08031H9.89327V5.14698H8.46661V3.10031L9.35994 3.99365L10.0199 3.33365L8.00661 1.32031L7.53994 1.78698H7.53327L5.99994 3.32698L6.65994 3.98698L7.53994 3.10698V5.14698H6.07994V6.08031H7.53994V7.10031C6.69327 7.20031 5.91327 7.56031 5.29994 8.16698C3.81994 9.64698 3.81994 12.0603 5.29994 13.5403C6.03994 14.2803 7.01327 14.6536 7.98661 14.6536C8.95994 14.6536 9.93327 14.2803 10.6733 13.5403C11.3933 12.8203 11.7866 11.867 11.7866 10.8536C11.7866 9.84031 11.3933 8.88698 10.6733 8.16698L10.6666 8.17365ZM10.0066 12.887C8.88661 14.007 7.06661 14.007 5.95327 12.887C4.83994 11.767 4.83328 9.94698 5.95327 8.83365C6.49327 8.29365 7.21327 7.99365 7.97994 7.99365C8.74661 7.99365 9.46661 8.29365 10.0066 8.83365C10.5466 9.37365 10.8466 10.0936 10.8466 10.8603C10.8466 11.627 10.5466 12.347 10.0066 12.887Z" fill="#303030"/>
</svg>
