<svg width="16" height="16" viewBox="0 0 16 16" fill="none" xmlns="http://www.w3.org/2000/svg">
<path d="M5.62671 2.28906H14.66V3.2224H5.62671V2.28906Z" fill="#303030"/>
<path d="M2.76009 4.18375C3.54009 4.18375 4.18009 3.55042 4.18009 2.76375C4.18009 1.97708 3.54675 1.34375 2.76009 1.34375C1.97342 1.34375 1.34009 1.97708 1.34009 2.76375C1.34009 3.55042 1.97342 4.18375 2.76009 4.18375ZM2.76009 2.28375C3.02675 2.28375 3.24675 2.50375 3.24675 2.77042C3.24675 3.03708 3.02675 3.25708 2.76009 3.25708C2.49342 3.25708 2.27342 3.03708 2.27342 2.77042C2.27342 2.50375 2.49342 2.28375 2.76009 2.28375Z" fill="#303030"/>
<path d="M5.62671 7.53125H14.66V8.46458H5.62671V7.53125Z" fill="#303030"/>
<path d="M2.76009 9.42594C3.54009 9.42594 4.18009 8.7926 4.18009 8.00594C4.18009 7.21927 3.54675 6.58594 2.76009 6.58594C1.97342 6.58594 1.34009 7.21927 1.34009 8.00594C1.34009 8.7926 1.97342 9.42594 2.76009 9.42594ZM2.76009 7.52594C3.02675 7.52594 3.24675 7.74594 3.24675 8.0126C3.24675 8.27927 3.02675 8.49927 2.76009 8.49927C2.49342 8.49927 2.27342 8.27927 2.27342 8.0126C2.27342 7.74594 2.49342 7.52594 2.76009 7.52594Z" fill="#303030"/>
<path d="M5.62671 12.7578H14.66V13.6911H5.62671V12.7578Z" fill="#303030"/>
<path d="M2.76009 14.6525C3.54009 14.6525 4.18009 14.0192 4.18009 13.2325C4.18009 12.4458 3.54675 11.8125 2.76009 11.8125C1.97342 11.8125 1.34009 12.4458 1.34009 13.2325C1.34009 14.0192 1.97342 14.6525 2.76009 14.6525ZM2.76009 12.7525C3.02675 12.7525 3.24675 12.9725 3.24675 13.2392C3.24675 13.5058 3.02675 13.7258 2.76009 13.7258C2.49342 13.7258 2.27342 13.5058 2.27342 13.2392C2.27342 12.9725 2.49342 12.7525 2.76009 12.7525Z" fill="#303030"/>
</svg>
