<svg width="16" height="16" viewBox="0 0 16 16" fill="none" xmlns="http://www.w3.org/2000/svg">
<path d="M4.39666 11.7194C3.51666 11.7194 2.78333 11.106 2.78333 9.93938C2.78333 8.77271 3.54333 8.11937 4.42333 8.11937C4.86999 8.11937 5.23666 8.33271 5.46999 8.57271L5.05666 9.07938C4.88333 8.91937 4.69666 8.79938 4.44333 8.79938C3.96999 8.79938 3.58999 9.21938 3.58999 9.91271C3.58999 10.606 3.92333 11.0394 4.42999 11.0394C4.71666 11.0394 4.93666 10.8994 5.10999 10.7127L5.52333 11.206C5.23666 11.5394 4.84999 11.7127 4.40333 11.7127L4.39666 11.7194ZM7.27666 11.0394C6.98999 11.0394 6.66999 10.8927 6.42333 10.6794L5.96999 11.2194C6.32333 11.5527 6.80333 11.7194 7.25666 11.7194C8.08333 11.7194 8.56333 11.2194 8.56333 10.6394C8.56333 10.146 8.29666 9.86604 7.87666 9.69271L7.43666 9.51271C7.12999 9.39271 6.90333 9.31271 6.90333 9.09938C6.90333 8.89938 7.07666 8.78604 7.34999 8.78604C7.62333 8.78604 7.84333 8.87937 8.06999 9.05937L8.46333 8.56604C8.16333 8.26604 7.74333 8.11271 7.34333 8.11271C6.62333 8.11271 6.10333 8.57271 6.10333 9.14604C6.10333 9.65271 6.44333 9.94604 6.80333 10.0927L7.25666 10.286C7.56333 10.4127 7.75666 10.4794 7.75666 10.6994C7.75666 10.906 7.59666 11.0327 7.26999 11.0327L7.27666 11.0394ZM12.0567 8.17937H11.2567L10.8433 9.79938C10.7433 10.1794 10.67 10.5327 10.5633 10.9127H10.5433C10.4367 10.526 10.37 10.1794 10.2633 9.79938L9.84333 8.17937H9.00999L10.0633 11.6527H11.01L12.0567 8.17937ZM14.6767 7.37938V14.666H13.9033H4.20999V12.7727H5.14333V13.7327H13.7367V7.53938V5.16604H10.8633V2.29271H5.14999V7.05937H4.21666V1.35938H11.81L14.6767 4.20604V7.37938ZM13.3767 4.22604L11.81 2.66604V4.22604H13.3767Z" fill="#303030"/>
</svg>
