<svg width="16" height="16" viewBox="0 0 16 16" fill="none" xmlns="http://www.w3.org/2000/svg">
<path d="M3.33999 5.2026L2.45999 5.3426L2.60666 6.2626L4.40666 5.97594L7.20666 8.0026L4.41999 10.0293L2.61333 9.75594L2.47333 10.6759L3.34666 10.8093L2.33999 11.5493L2.88666 12.3026L3.89999 11.5626L3.75999 12.4426L4.67999 12.5893L4.96666 10.7893L7.53333 8.91594V12.0893L6.24666 13.3893L6.91333 14.0426L7.53333 13.4159V14.6626H8.47333V13.4159L9.09999 14.0426L9.75999 13.3893L8.47333 12.0959V8.9226L11.04 10.7826L11.3333 12.5826L12.2533 12.4293L12.1133 11.5626L13.12 12.2959L13.6667 11.5359L12.6533 10.8026L13.54 10.6559L13.3933 9.73594L11.58 10.0226L8.79333 8.0026L11.5867 5.96927L13.3867 6.24927L13.5267 5.3226L12.66 5.18927L13.6667 4.45594L13.12 3.7026L12.1 4.4426L12.24 3.55594L11.32 3.40927L11.0333 5.2226L8.47333 7.0826V3.90927L9.75333 2.61594L9.08666 1.95594L8.47333 2.5826V1.33594H7.53333V2.58927L6.89999 1.95594L6.23999 2.61594L7.53333 3.91594V7.08927L4.95999 5.2226L4.66666 3.4226L3.74666 3.56927L3.88666 4.44927L2.87333 3.70927L2.32666 4.46927L3.33999 5.2026Z" fill="#303030"/>
</svg>
