<svg width="16" height="16" viewBox="0 0 16 16" fill="none" xmlns="http://www.w3.org/2000/svg">
<path d="M9.62002 8.92812V13.7281H2.91335V8.92812H9.62668M10.5533 7.98812H1.98001V14.6481L10.56 14.6615V7.99479L10.5533 7.98812ZM6.25335 2.27479V1.34146H2.92668V4.88146L2.28668 4.26812L1.64001 4.94146L3.39335 6.62812L5.14668 4.94146L4.50001 4.26812L3.86001 4.88146V2.27479H6.25335ZM3.40001 5.32146L3.36001 5.28146H3.44668L3.40668 5.32146H3.40001ZM14.36 9.87479H11.4933V8.94146H13.4267V7.02812H14.36V9.87479ZM14.3467 4.32146H13.4133V2.26812H11.4933V1.33479H14.3467V4.32146ZM8.59335 4.17479H7.65335V1.32812H10.5467V2.26146H8.59335V4.18146V4.17479Z" fill="#303030"/>
</svg>
