<svg width="16" height="16" viewBox="0 0 16 16" fill="none" xmlns="http://www.w3.org/2000/svg">
<path d="M7.46666 5.35479H5.85333V6.31479H7.46666V11.0748H8.58666V6.31479H10.1733V5.35479H7.46666ZM10.8533 2.77479H5.14666V1.32812H1.32666V5.15479H2.77333V10.8548H1.32666V14.6815H5.15333V13.4815H10.8533V14.6815H14.68V10.8548H13.4733V5.15479H14.68V1.32812H10.8533V2.77479ZM2.25999 2.26146H4.21999V4.22146H2.25999V2.26146ZM4.21333 13.7415H2.25333V11.7815H4.21333V13.7415ZM13.74 13.7415H11.78V11.7815H13.74V13.7415ZM12.5267 10.8548H10.84V12.5481H5.14666V10.8548H3.69999V5.14812H5.14666V3.70146H10.8467V5.14812H12.5333V10.8481L12.5267 10.8548ZM11.7867 2.26146H13.7467V4.22146H11.7867V2.26146Z" fill="#303030"/>
</svg>
