<svg width="16" height="16" viewBox="0 0 16 16" fill="none" xmlns="http://www.w3.org/2000/svg">
<path d="M5.14697 4.65625H6.07914V5.62171H5.14697V4.65625Z" fill="#303030"/>
<path d="M5.12695 6.5625H6.05912V7.52796H5.12695V6.5625Z" fill="#303030"/>
<path d="M5.12695 8.46875H6.05912V9.43421H5.12695V8.46875Z" fill="#303030"/>
<path d="M5.12695 10.3594H6.05912V11.3248H5.12695V10.3594Z" fill="#303030"/>
<path d="M14.1823 9.40399C13.3966 9.40399 12.7574 8.76479 12.7574 7.97911C12.7574 7.19342 13.3966 6.55422 14.1823 6.55422H14.6484L14.6617 2.76562H1.33838L1.3517 6.58086H1.81778C2.60346 6.58086 3.24267 7.22006 3.24267 8.00574C3.24267 8.79143 2.60346 9.43063 1.81778 9.43063H1.3517L1.33838 13.2192H14.6551L14.6417 9.40399H14.1757H14.1823ZM7.99006 12.2871H2.27721V10.3162C3.36252 10.0965 4.17483 9.14432 4.17483 8.00574C4.17483 6.86717 3.36252 5.90836 2.28386 5.6953V3.69779H7.3442H13.7229V5.66866C12.6376 5.88839 11.8253 6.84053 11.8253 7.97911C11.8253 9.11769 12.6376 10.0765 13.7162 10.2896V12.2871H7.99006Z" fill="#303030"/>
</svg>
