<svg width="16" height="16" viewBox="0 0 16 16" fill="none" xmlns="http://www.w3.org/2000/svg">
<path d="M7.99992 1.33594C4.33325 1.33594 1.33325 4.33594 1.33325 8.0026C1.33325 11.6693 4.33325 14.6693 7.99992 14.6693C11.6666 14.6693 14.6666 11.6693 14.6666 8.0026C14.6666 4.33594 11.6666 1.33594 7.99992 1.33594ZM7.99992 13.7359C4.86659 13.7359 2.26659 11.1359 2.26659 8.0026C2.26659 4.86927 4.86659 2.26927 7.99992 2.26927C11.1333 2.26927 13.7333 4.86927 13.7333 8.0026C13.7333 11.1359 11.1333 13.7359 7.99992 13.7359Z" fill="#303030"/>
<path d="M7.99997 5.13281C6.39997 5.13281 5.1333 6.39948 5.1333 7.99948C5.1333 9.59948 6.39997 10.8661 7.99997 10.8661C9.59997 10.8661 10.8666 9.59948 10.8666 7.99948C10.8666 6.39948 9.59997 5.13281 7.99997 5.13281Z" fill="#303030"/>
</svg>
