<svg width="16" height="16" viewBox="0 0 16 16" fill="none" xmlns="http://www.w3.org/2000/svg">
<path d="M14.66 3.0226H11.62L9.46001 5.20927L5.58668 1.33594L1.34668 5.57594V13.8159H1.37335V14.6559H14.6667V13.7226V3.0226H14.66ZM12.0067 3.95594H13.7267V13.7226H9.88668L9.90668 6.08927L12.0067 3.95594ZM5.58001 2.65594L8.96668 6.0426L8.94668 13.7226H2.27335V5.9626L5.58001 2.65594Z" fill="#303030"/>
<path d="M3.2467 7.04688H4.18004V8.00021H3.2467V7.04688Z" fill="#303030"/>
<path d="M3.2467 8.95312H4.18004V9.90646H3.2467V8.95312Z" fill="#303030"/>
<path d="M3.2467 10.8594H4.18004V11.8127H3.2467V10.8594Z" fill="#303030"/>
<path d="M6.10669 7.04688H7.04002V8.00021H6.10669V7.04688Z" fill="#303030"/>
<path d="M6.10669 8.95312H7.04002V9.90646H6.10669V8.95312Z" fill="#303030"/>
<path d="M6.10669 10.8594H7.04002V11.8127H6.10669V10.8594Z" fill="#303030"/>
<path d="M10.8667 7.04688H11.8V8.00021H10.8667V7.04688Z" fill="#303030"/>
<path d="M10.8667 8.95312H11.8V9.90646H10.8667V8.95312Z" fill="#303030"/>
<path d="M10.8667 10.8594H11.8V11.8127H10.8667V10.8594Z" fill="#303030"/>
</svg>
