<svg width="16" height="16" viewBox="0 0 16 16" fill="none" xmlns="http://www.w3.org/2000/svg">
<path d="M8.00001 1.34375C6.16668 1.34375 4.67334 2.83708 4.67334 4.67042V6.57708H2.78001L2.76001 14.6704H13.2333V6.57708H11.32V4.67042C11.32 2.83708 9.82668 1.34375 7.99334 1.34375H8.00001ZM5.60668 4.66375C5.60668 3.34375 6.68001 2.27042 8.00001 2.27042C9.32001 2.27042 10.3867 3.34375 10.3867 4.66375V6.57042H5.60668V4.66375ZM12.3 13.7371H3.69334L3.70668 7.51042H12.3V13.7371Z" fill="#303030"/>
<path d="M7.53341 11.2154V12.7554H8.46674V11.2087C9.01341 11.0154 9.40674 10.4954 9.40674 9.88208C9.40674 9.10208 8.77341 8.46875 7.99341 8.46875C7.21341 8.46875 6.58008 9.10208 6.58008 9.88208C6.58008 10.5021 6.98008 11.0221 7.53341 11.2154Z" fill="#303030"/>
</svg>
