<svg width="16" height="16" viewBox="0 0 16 16" fill="none" xmlns="http://www.w3.org/2000/svg">
<path d="M7.97335 6.47042C6.60668 5.10375 6.44668 2.90375 6.44668 2.90375C6.44668 2.90375 6.32001 5.09042 4.95335 6.46375C3.58668 7.83708 1.34668 8.00375 1.34668 8.00375C1.34668 8.00375 3.56001 8.17042 4.92001 9.53042C6.28668 10.8971 6.44668 13.1037 6.44668 13.1037C6.44668 13.1037 6.62668 10.8771 7.99335 9.51042C9.36668 8.13708 11.5467 8.00375 11.5467 8.00375C11.5467 8.00375 9.34001 7.83708 7.97335 6.47042ZM7.33335 8.85042C6.97335 9.21042 6.68001 9.61708 6.44668 10.0304C6.21335 9.62375 5.93335 9.22375 5.57335 8.87042C5.22001 8.51708 4.82668 8.23708 4.42001 8.00375C4.83335 7.77042 5.24001 7.48375 5.60668 7.11708C5.95335 6.77042 6.22668 6.39042 6.45335 5.99708C6.68001 6.39042 6.96001 6.77708 7.30668 7.12375C7.65335 7.47042 8.05335 7.76375 8.46001 7.99042C8.06668 8.21708 7.68001 8.49708 7.33335 8.84375V8.85042ZM11.1 4.89042C10.3733 4.16375 9.18668 4.07042 9.18668 4.07042C9.18668 4.07042 9.35335 4.05708 9.60668 4.00375C9.68668 3.98375 9.78001 3.96375 9.88001 3.93042C10.2733 3.81708 10.7533 3.61042 11.12 3.24375C11.3067 3.05708 11.4467 2.85042 11.5533 2.63708C11.6067 2.53042 11.6533 2.42375 11.6933 2.31708C11.78 2.09042 11.8333 1.87708 11.8667 1.71042C11.8933 1.57708 11.9067 1.47042 11.9133 1.41042C11.9133 1.37042 11.9133 1.34375 11.9133 1.34375C11.9133 1.34375 12 2.52375 12.7333 3.25708C13.2867 3.81042 14.0867 3.99708 14.4533 4.05042C14.5733 4.07042 14.6467 4.07708 14.6467 4.07708C14.6467 4.07708 14.3533 4.09708 13.9733 4.20375C13.78 4.25708 13.5667 4.33708 13.3533 4.44375C13.14 4.55708 12.9267 4.69708 12.7467 4.87708C12.0133 5.61042 11.9133 6.80375 11.9133 6.80375C11.9133 6.80375 11.8267 5.62375 11.0933 4.89042H11.1ZM12.74 11.1104C13.4733 11.8437 14.6533 11.9304 14.6533 11.9304C14.6533 11.9304 14.36 11.9504 13.98 12.0571C13.7867 12.1104 13.5733 12.1904 13.36 12.2971C13.1467 12.4104 12.9333 12.5504 12.7533 12.7304C12.02 13.4637 11.92 14.6571 11.92 14.6571C11.92 14.6571 11.8333 13.4771 11.1 12.7437C10.3667 12.0104 9.18668 11.9237 9.18668 11.9237C9.18668 11.9237 10.3867 11.8304 11.12 11.0971C11.3067 10.9104 11.4467 10.7037 11.5533 10.4904C11.72 10.1704 11.8067 9.84375 11.86 9.60375C11.8933 9.44375 11.9067 9.31042 11.9133 9.24375C11.9133 9.21042 11.9133 9.19042 11.9133 9.19042C11.9133 9.19042 12 10.3704 12.7333 11.1037L12.74 11.1104Z" fill="#303030"/>
</svg>
