<svg width="16" height="16" viewBox="0 0 16 16" fill="none" xmlns="http://www.w3.org/2000/svg">
<path d="M2.28004 8.46375H9.10671C9.32004 9.27708 10.0534 9.89042 10.9334 9.89042C11.8134 9.89042 12.5534 9.28375 12.76 8.46375H14.6934V7.53042H12.7667C12.56 6.71042 11.82 6.09708 10.9334 6.09708C10.0467 6.09708 9.30671 6.71042 9.10004 7.53042H2.28004V4.64375H4.62004C4.82004 5.47042 5.56671 6.09042 6.45337 6.09042C7.34004 6.09042 8.08671 5.47042 8.28671 4.64375H14.66V3.71042H8.27337C8.06004 2.90375 7.32671 2.30375 6.44671 2.30375C5.56671 2.30375 4.84004 2.90375 4.62004 3.71042H2.26671V1.34375H1.33337V14.6838H2.26671V12.2838H4.62004C4.84004 13.0904 5.56671 13.6838 6.44004 13.6838C7.31337 13.6838 8.04004 13.0904 8.26004 12.2838H14.6467V11.3504H8.27337C8.07337 10.5171 7.32671 9.89708 6.43337 9.89708C5.54004 9.89708 4.79337 10.5171 4.59337 11.3504H2.26004V8.47042L2.28004 8.46375ZM10.9334 7.03042C11.4667 7.03042 11.8934 7.46375 11.8934 7.99042C11.8934 8.51708 11.46 8.95042 10.9334 8.95042C10.4067 8.95042 9.97337 8.51708 9.97337 7.99042C9.97337 7.46375 10.4067 7.03042 10.9334 7.03042ZM6.45337 3.23708C6.98671 3.23708 7.41337 3.67042 7.41337 4.19708C7.41337 4.72375 6.98004 5.15708 6.45337 5.15708C5.92671 5.15708 5.49337 4.72375 5.49337 4.19708C5.49337 3.67042 5.92671 3.23708 6.45337 3.23708ZM6.45337 10.8237C6.98671 10.8237 7.41337 11.2571 7.41337 11.7838C7.41337 12.3104 6.98004 12.7438 6.45337 12.7438C5.92671 12.7438 5.49337 12.3104 5.49337 11.7838C5.49337 11.2571 5.92671 10.8237 6.45337 10.8237Z" fill="#303030"/>
</svg>
