<svg width="16" height="16" viewBox="0 0 16 16" fill="none" xmlns="http://www.w3.org/2000/svg">
<path d="M10.8533 8.47156V7.53823H10.3333C10.2733 7.23156 10.1533 6.93823 9.9733 6.67156L10.34 6.3049L9.67997 5.6449L9.3133 6.01156C9.04663 5.83823 8.7533 5.71823 8.4533 5.65823V5.1449H7.51997V5.67156C7.21997 5.73156 6.9333 5.85156 6.66663 6.03156L6.29997 5.6649L5.63997 6.3249L6.00663 6.69156C5.8333 6.95156 5.71997 7.2449 5.65997 7.53823H5.13997V8.47156H5.65997C5.71997 8.7649 5.8333 9.05156 6.00663 9.31156L5.63997 9.67823L6.29997 10.3382L6.66663 9.97156C6.92663 10.1516 7.21997 10.2649 7.51997 10.3316V10.8582H8.4533V10.3449C8.7533 10.2849 9.04663 10.1716 9.3133 9.99823L9.67997 10.3649L10.34 9.7049L9.9733 9.33823C10.1533 9.07156 10.2733 8.77823 10.3333 8.47823H10.8533V8.47156ZM9.02663 9.0249C8.47997 9.57156 7.52663 9.57156 6.9733 9.0249C6.40663 8.45823 6.40663 7.53823 6.9733 6.97156C7.24663 6.69823 7.6133 6.5449 7.99997 6.5449C8.38663 6.5449 8.7533 6.69823 9.02663 6.97156C9.5933 7.53823 9.5933 8.45823 9.02663 9.0249ZM1.33997 8.0049H2.2733C2.2733 11.1582 4.83997 13.7182 7.98663 13.7182C11.1333 13.7182 13.7 11.1516 13.7 8.0049C13.7 4.85823 11.14 2.2849 7.9933 2.2849C5.94663 2.2849 4.0733 3.39823 3.05997 5.1449H5.1733V6.07823H1.34663V2.29823H2.27997V4.63156C3.46663 2.6249 5.6333 1.35156 7.9933 1.35156C11.66 1.35156 14.64 4.33156 14.64 7.99823C14.64 11.6649 11.66 14.6449 7.9933 14.6449C4.32663 14.6449 1.33997 11.6716 1.33997 8.0049Z" fill="#303030"/>
</svg>
