<svg width="16" height="16" viewBox="0 0 16 16" fill="none" xmlns="http://www.w3.org/2000/svg">
<path d="M12.6866 3.28604C11.4333 2.03937 9.77329 1.35938 8.00662 1.35938C7.99996 1.35938 7.98662 1.35938 7.97996 1.35938C6.20662 1.36604 4.53329 2.06604 3.28662 3.32604C0.706624 5.93271 0.719957 10.146 3.32662 12.7327C4.57996 13.9794 6.24662 14.6594 8.00662 14.6594H8.01329V13.726H8.00662C6.48662 13.726 5.05996 13.1394 3.97996 12.066C1.73996 9.84604 1.72662 6.21937 3.94662 3.97937C6.16662 1.73937 9.79329 1.72604 12.0333 3.94604C14.2733 6.16604 14.2866 9.79271 12.0666 12.0327C12.0066 12.0927 11.9466 12.1394 11.8866 12.1927V10.646H10.9466V12.906V12.9194L10.96 13.8594L14.1733 13.846V12.9127L12.4666 12.9194C12.5533 12.8394 12.6466 12.7727 12.7266 12.686C15.3066 10.0794 15.2933 5.86604 12.6866 3.27937V3.28604Z" fill="#303030"/>
<path d="M6.44653 10.8682L10.7465 7.9749L6.46653 5.10156L6.44653 10.8682ZM7.3932 6.84823L9.0732 7.9749L7.38653 9.10823V6.84156L7.3932 6.84823Z" fill="#303030"/>
</svg>
