<svg width="16" height="16" viewBox="0 0 16 16" fill="none" xmlns="http://www.w3.org/2000/svg">
<path d="M12.8133 5.03667C13.8533 5.03667 14.7067 4.19 14.7067 3.14333C14.7067 2.09667 13.86 1.25 12.8133 1.25C11.7667 1.25 10.92 2.09667 10.92 3.14333C10.92 3.49667 11.0267 3.82333 11.1933 4.11L9.94667 5.35667C9.39334 4.93667 8.71334 4.68333 7.96667 4.68333C7.22 4.68333 6.56 4.93 6.01334 5.33667L4.76 4.08333C4.92 3.80333 5.02 3.49 5.02 3.15C5.02 2.11 4.17334 1.25667 3.12667 1.25667C2.08 1.25667 1.23334 2.10333 1.23334 3.15C1.23334 4.19667 2.08 5.04333 3.12667 5.04333C3.48667 5.04333 3.82667 4.93667 4.11334 4.75667L5.35334 5.99667C4.92667 6.55667 4.66 7.24333 4.66 7.99667C4.66 8.55667 4.81334 9.07667 5.06 9.53667L4.43334 9.99C4.1 9.71 3.68 9.53 3.21334 9.53C2.17334 9.53 1.32 10.3767 1.32 11.4233C1.32 12.47 2.16667 13.3167 3.21334 13.3167C4.26 13.3167 5.10667 12.47 5.10667 11.4233C5.10667 11.1833 5.06 10.9633 4.98 10.75L5.60667 10.2967C6.20667 10.9167 7.04667 11.3033 7.98 11.3033C8.72 11.3033 9.4 11.05 9.95334 10.6367L11.2067 11.89C11.04 12.17 10.9333 12.4967 10.9333 12.85C10.9333 13.89 11.78 14.7433 12.8267 14.7433C13.8733 14.7433 14.72 13.8967 14.72 12.85C14.72 11.8033 13.8733 10.9567 12.8267 10.9567C12.4733 10.9567 12.1467 11.0567 11.8667 11.23L10.6133 9.97667C11.0333 9.42333 11.2867 8.74333 11.2867 7.99667C11.2867 7.25 11.0333 6.57667 10.62 6.02333L11.8667 4.77667C12.1467 4.94333 12.4733 5.04333 12.8267 5.04333L12.8133 5.03667ZM3.20667 12.3767C2.68 12.3767 2.24667 11.95 2.24667 11.4167C2.24667 10.8833 2.67334 10.4567 3.20667 10.4567C3.74 10.4567 4.16667 10.8833 4.16667 11.4167C4.16667 11.95 3.74 12.3767 3.20667 12.3767ZM12.8133 2.19C13.34 2.19 13.7733 2.61667 13.7733 3.15C13.7733 3.68333 13.3467 4.11 12.8133 4.11C12.28 4.11 11.8533 3.68333 11.8533 3.15C11.8533 2.61667 12.28 2.19 12.8133 2.19ZM3.12667 4.10333C2.6 4.10333 2.16667 3.67667 2.16667 3.14333C2.16667 2.61 2.59334 2.18333 3.12667 2.18333C3.66 2.18333 4.08667 2.61 4.08667 3.14333C4.08667 3.67667 3.66 4.10333 3.12667 4.10333ZM5.59334 7.99C5.59334 6.68333 6.66 5.61667 7.96667 5.61667C9.27334 5.61667 10.34 6.68333 10.34 7.99C10.34 9.29667 9.27334 10.3633 7.96667 10.3633C6.66 10.3633 5.59334 9.29667 5.59334 7.99ZM13.7733 12.8433C13.7733 13.37 13.3467 13.8033 12.8133 13.8033C12.28 13.8033 11.8533 13.3767 11.8533 12.8433C11.8533 12.31 12.28 11.8833 12.8133 11.8833C13.3467 11.8833 13.7733 12.31 13.7733 12.8433Z" fill="#303030"/>
</svg>
