<svg width="16" height="16" viewBox="0 0 16 16" fill="none" xmlns="http://www.w3.org/2000/svg">
<path d="M5.13997 13.4871H10.8533V14.4204H5.13997V13.4871ZM14.6733 3.95375H12.28V1.59375H11.3466V3.95375H8.9133V4.88708H11.3466V7.28042H12.28V4.88708H14.6733V3.95375ZM14.6533 12.5204H1.33997V2.06708H7.99997V3.00042H2.2733V11.5871H13.72V7.29375H14.6533V12.5204ZM10.14 8.00042V7.06708H9.65996C9.61996 6.93375 9.5733 6.80708 9.49996 6.68042L9.83996 6.34042L9.17997 5.68042L8.83997 6.02042C8.71997 5.95375 8.5933 5.90042 8.45997 5.86708V5.38708H7.52663V5.87375C7.3933 5.91375 7.26663 5.96042 7.14663 6.03375L6.80663 5.69375L6.14663 6.35375L6.48663 6.70042C6.41997 6.82042 6.3733 6.94042 6.3333 7.06708H5.8533V8.00042H6.33997C6.3733 8.12708 6.42663 8.24708 6.4933 8.36042L6.14663 8.70708L6.80663 9.36708L7.1533 9.02042C7.2733 9.08708 7.3933 9.14042 7.52663 9.17375V9.66708H8.45997V9.18042C8.58663 9.14708 8.7133 9.09375 8.8333 9.02708L9.17997 9.37375L9.83996 8.71375L9.4933 8.37375C9.55997 8.25375 9.6133 8.12708 9.6533 7.99375H10.14V8.00042ZM7.4333 8.08708C7.27997 7.93375 7.19997 7.74042 7.19997 7.52708C7.19997 7.31375 7.27997 7.11375 7.4333 6.96708C7.58663 6.82042 7.7933 6.73375 7.9933 6.73375C8.1933 6.73375 8.39997 6.81375 8.5533 6.96708C8.70663 7.12042 8.78663 7.32042 8.78663 7.52708C8.78663 7.73375 8.70663 7.94042 8.5533 8.08708C8.24663 8.39375 7.73997 8.39375 7.42663 8.08708H7.4333Z" fill="#303030"/>
</svg>
