<svg width="16" height="16" viewBox="0 0 16 16" fill="none" xmlns="http://www.w3.org/2000/svg">
<path d="M8.90022 7.79271L9.16022 8.58604H8.18022L8.01356 8.07938L7.80022 7.43937L8.35356 7.03938L9.40689 6.26604H7.42022L7.21356 5.62604L6.80689 4.37938L6.40689 5.62604L6.19356 6.26604H4.20689L5.26689 7.03938L5.81356 7.43937L5.60689 8.07938L5.20022 9.32604L6.26022 8.55938L6.80689 8.15938L7.36022 8.55938L7.59356 8.72604L3.42689 11.7594L4.72022 7.79271L1.33356 5.33271H5.52022L6.80689 1.35938L8.10022 5.33271H12.2802L8.90022 7.79271ZM12.7602 7.98604H10.3736V8.91938H11.8202V9.89938H8.00022V11.8127H8.93356V10.8327H12.7536V7.98604H12.7602ZM13.7202 11.7927H9.90022V14.6394H12.2869V13.706H10.8402V12.726H14.6602V10.8127H13.7269V11.7927H13.7202Z" fill="#303030"/>
</svg>
