<svg width="16" height="16" viewBox="0 0 16 16" fill="none" xmlns="http://www.w3.org/2000/svg">
<path d="M7.99333 1.32812C4.31999 1.32812 1.32666 4.32146 1.32666 7.99479C1.32666 11.6681 4.31333 14.6615 7.99333 14.6615C11.6733 14.6615 14.66 11.6748 14.66 7.99479C14.66 4.31479 11.6667 1.32812 7.99333 1.32812ZM2.25999 7.99479C2.25999 6.58146 2.77999 5.28812 3.62666 4.28812L11.6933 12.3548C10.6933 13.2081 9.39999 13.7215 7.98666 13.7215C4.82666 13.7215 2.25333 11.1481 2.25333 7.98812L2.25999 7.99479ZM12.36 11.6948L4.29333 3.62812C5.29333 2.78146 6.58666 2.26812 7.99333 2.26812C11.1533 2.26812 13.7267 4.84146 13.7267 8.00146C13.7267 9.41479 13.2133 10.7015 12.3667 11.7015L12.36 11.6948Z" fill="#303030"/>
</svg>
