<svg width="16" height="16" viewBox="0 0 16 16" fill="none" xmlns="http://www.w3.org/2000/svg">
<path d="M7.72667 13.7293C5.63333 13.7293 3.93333 12.0293 3.93333 9.93594C3.93333 8.7026 4.54667 7.5626 5.51333 6.8626L5.41333 5.83594C3.96 6.6626 3 8.2226 3 9.93594C3 12.5426 5.12 14.6626 7.72667 14.6626C9.18667 14.6626 10.5133 13.9759 11.3933 12.8959L10.9533 11.9293C10.28 13.0226 9.06667 13.7293 7.72667 13.7293Z" fill="#303030"/>
<path d="M13.7866 10.8281L12.7132 11.2481L11.0932 7.70813H7.47991L7.31991 6.07479H10.8199V5.14146H7.22658L7.11991 4.03479C7.59324 3.80146 7.92658 3.32146 7.92658 2.75479C7.92658 1.96813 7.28658 1.32812 6.49991 1.32812C5.71324 1.32812 5.07324 1.96813 5.07324 2.75479C5.07324 3.43479 5.55324 4.00812 6.19324 4.14812L6.63324 8.63479H10.4932L12.2332 12.4348L14.1266 11.7015L13.7866 10.8348V10.8281ZM6.49324 2.26813C6.76658 2.26813 6.98658 2.48812 6.98658 2.76146C6.98658 3.03479 6.76658 3.25479 6.49324 3.25479C6.21991 3.25479 5.99991 3.03479 5.99991 2.76146C5.99991 2.48812 6.21991 2.26813 6.49324 2.26813Z" fill="#303030"/>
</svg>
