<svg width="16" height="16" viewBox="0 0 16 16" fill="none" xmlns="http://www.w3.org/2000/svg">
<path d="M7.38336 2.25365V8.96698H2.58336V2.25365H7.38336ZM8.31669 1.32031H1.65002V9.90031H8.31002L8.32336 1.32031H8.31669ZM7.37669 14.6536H4.53002V11.7936H5.46336V13.7203H7.37669V14.6536ZM13.07 14.647H10.0834V13.7136H12.1367V11.8003H13.07V14.647ZM13.0767 10.8536H12.1434V8.90031H10.23V7.96698H13.0767V10.8536ZM13.7167 4.25365L13.0767 4.86698V1.34031H9.75002V2.27365H12.1367V4.88031L11.4967 4.26698L10.85 4.94031L12.6034 6.62698L14.3567 4.94031L13.71 4.26698L13.7167 4.25365ZM12.57 5.28031H12.6567L12.6167 5.32031L12.5767 5.28031H12.57Z" fill="#303030"/>
</svg>
