<svg width="16" height="16" viewBox="0 0 16 16" fill="none" xmlns="http://www.w3.org/2000/svg">
<path d="M1.33325 14.6693H14.6666V1.33594H1.33325V14.6693ZM2.26659 2.26927H13.7333V13.7359H2.26659V2.26927Z" fill="#303030"/>
<path d="M2.8667 5.26208L5.16003 7.55542L7.45337 5.26208L5.16003 2.96875L2.8667 5.26208ZM5.16003 6.24208L4.1867 5.26875L5.16003 4.29542L6.13337 5.26875L5.16003 6.24208ZM8.62003 10.8488L10.9134 13.1421L13.2067 10.8488L10.9134 8.55542L8.62003 10.8488ZM10.9134 11.8221L9.94003 10.8488L10.9134 9.87542L11.8867 10.8488L10.9134 11.8221Z" fill="#303030"/>
<path d="M12.7065 3.47656H9.09985V7.08323H12.7065V3.47656ZM11.7732 6.1499H10.0332V4.4099H11.7732V6.1499Z" fill="#303030"/>
<path d="M3.35327 12.6457H6.95994V9.03906H3.35327V12.6457ZM4.2866 9.9724H6.0266V11.7124H4.2866V9.9724Z" fill="#303030"/>
</svg>
