<svg width="16" height="16" viewBox="0 0 16 16" fill="none" xmlns="http://www.w3.org/2000/svg">
<path d="M6.01337 8.36698L5.64671 8.73365L6.30671 9.39365L6.67337 9.02698C6.93337 9.20698 7.22671 9.32031 7.52671 9.38698V9.91365H8.46004V9.40031C8.76004 9.34031 9.05337 9.22698 9.32004 9.05365L9.68671 9.42031L10.3467 8.76031L9.98004 8.39365C10.16 8.12698 10.28 7.83365 10.34 7.53365H10.86V6.60031H10.34C10.28 6.29365 10.16 6.00031 9.98004 5.73365L10.3467 5.36698L9.68671 4.70698L9.32004 5.07365C9.05337 4.90031 8.76004 4.78031 8.46004 4.72031V4.20698H7.52671V4.73365C7.22671 4.79365 6.94004 4.91365 6.67337 5.09365L6.30671 4.72698L5.64671 5.38698L6.01337 5.75365C5.84004 6.01365 5.72671 6.30698 5.66671 6.60031H5.14671V7.53365H5.66671C5.72671 7.82698 5.84004 8.11365 6.01337 8.37365V8.36698ZM8.00671 5.60031C8.39337 5.60031 8.76004 5.75365 9.03337 6.02698C9.60004 6.59365 9.60004 7.51365 9.03337 8.08031C8.46671 8.64698 7.53337 8.62698 6.98004 8.08031C6.41337 7.51365 6.41337 6.59365 6.98004 6.02698C7.25337 5.75365 7.62004 5.60031 8.00671 5.60031ZM14.64 1.82031H1.33337V12.2803H14.6467V1.82031H14.64ZM13.7134 11.3403H2.26671V2.75365H13.7134V11.3403ZM5.13337 13.247H10.8467V14.1803H5.13337V13.247Z" fill="#303030"/>
</svg>
