<svg width="16" height="16" viewBox="0 0 16 16" fill="none" xmlns="http://www.w3.org/2000/svg">
<path d="M9.58673 1.34375C6.78673 1.34375 4.51339 3.61708 4.51339 6.41708C4.51339 7.64375 4.94673 8.77042 5.67339 9.65042L1.35339 13.9637L2.01339 14.6237L6.33339 10.3104C7.21339 11.0504 8.34673 11.4971 9.58673 11.4971C12.3867 11.4971 14.6601 9.22375 14.6601 6.42375C14.6601 3.62375 12.3867 1.35042 9.58673 1.35042V1.34375ZM9.58673 10.5637C7.30006 10.5637 5.44673 8.70375 5.44673 6.42375C5.44673 4.14375 7.30673 2.28375 9.58673 2.28375C11.8667 2.28375 13.7267 4.14375 13.7267 6.42375C13.7267 8.70375 11.8667 10.5637 9.58673 10.5637Z" fill="#303030"/>
<path d="M10.0535 4.04688H9.12012V5.95354H7.20679V6.89354H9.12012V8.80021H10.0535V6.89354H11.9601V5.95354H10.0535V4.04688Z" fill="#303030"/>
</svg>
