<svg width="16" height="16" viewBox="0 0 16 16" fill="none" xmlns="http://www.w3.org/2000/svg">
<path d="M14.6666 1.32812H1.33325V14.6615H14.6666V1.32812ZM13.7333 4.40812H11.5599V2.26146H13.7333V4.40812ZM8.46658 4.40812V2.26146H10.6266V4.40812H8.46658ZM10.6266 5.34146V7.50146H8.46658V5.34146H10.6266ZM7.53325 4.40812H5.37325V2.26146H7.53325V4.40812ZM7.53325 5.34146V7.50146H5.37325V5.34146H7.53325ZM4.43992 7.50146H2.26659V5.34146H4.43992V7.50146ZM4.43992 8.43479V10.5948H2.26659V8.43479H4.43992ZM5.37325 8.43479H7.53325V10.5948H5.37325V8.43479ZM7.53325 11.5281V13.7281H5.37325V11.5281H7.53325ZM8.46658 11.5281H10.6266V13.7281H8.46658V11.5281ZM8.46658 10.5948V8.43479H10.6266V10.5948H8.46658ZM11.5599 8.43479H13.7333V10.5948H11.5599V8.43479ZM11.5599 7.50146V5.34146H13.7333V7.50146H11.5599ZM4.43992 2.26146V4.40812H2.26659V2.26146H4.43992ZM2.26659 11.5281H4.43992V13.7281H2.26659V11.5281ZM11.5599 13.7281V11.5281H13.7333V13.7281H11.5599Z" fill="#303030"/>
</svg>
