<svg width="16" height="16" viewBox="0 0 16 16" fill="none" xmlns="http://www.w3.org/2000/svg">
<path d="M13.3 8.01708V4.36375L7.39331 1.34375L1.47998 4.35708V11.6504L6.92665 14.6571V14.6704H7.85998V7.81042L12.3666 5.41708V8.01042H13.3V8.01708ZM11.8266 4.65708L7.39331 7.01042L2.95998 4.65708L7.39331 2.39708L11.8266 4.65708ZM2.41331 11.1104V5.43042L6.92665 7.82375V13.6037L2.41331 11.1104ZM10.88 11.3637C11.2866 11.2304 11.5 10.9437 11.5 10.5304C11.5 9.93708 11.0666 9.56375 10.36 9.56375C9.57331 9.56375 9.07331 10.0171 9.05998 10.7237H9.83331C9.84665 10.3637 10.0066 10.1704 10.3066 10.1704C10.58 10.1704 10.7 10.3437 10.7 10.6171C10.7 10.9171 10.5666 11.1104 10.32 11.1104H10.0466V11.6571H10.2466C10.5666 11.6571 10.7533 11.8371 10.7533 12.1637C10.7533 12.4904 10.5866 12.6837 10.26 12.6837C9.93331 12.6837 9.72665 12.4837 9.72665 12.1037H8.95331C8.95331 12.8571 9.44665 13.2904 10.3066 13.2904C11.1666 13.2904 11.5866 12.8771 11.5866 12.2371C11.5866 11.7771 11.3533 11.4904 10.88 11.3771V11.3637ZM13.0666 9.63708H12.0066V13.2171H13.0666C14.14 13.2171 14.52 12.4437 14.52 11.4171C14.52 10.3904 14.1466 9.63708 13.0666 9.63708ZM13.0666 12.5171H12.8133V10.3304H13.0666C13.5533 10.3304 13.68 10.7304 13.68 11.4104C13.68 12.0904 13.5533 12.5171 13.0666 12.5171Z" fill="#303030"/>
</svg>
