<svg width="16" height="16" viewBox="0 0 16 16" fill="none" xmlns="http://www.w3.org/2000/svg">
<path d="M9.78672 4.66812C10.9734 4.02146 11.7801 2.76812 11.7801 1.32812H10.8467C10.8467 2.90812 9.56005 4.19479 7.98005 4.19479C6.40005 4.19479 5.11339 2.90812 5.11339 1.32812H4.18005C4.18005 2.76812 4.98672 4.02813 6.17339 4.66812C4.98672 5.31479 4.18005 6.56812 4.18005 8.00812C4.18005 9.95479 5.64672 11.5548 7.53339 11.7815V12.7615H6.10005V13.6948H7.52672V14.6415H8.46005V13.6948H9.92672V12.7615H8.46672V11.7748C10.3334 11.5348 11.7801 9.94146 11.7801 8.00812C11.7801 6.56812 10.9734 5.30813 9.78672 4.66812ZM7.98005 10.8815C6.40005 10.8815 5.11339 9.59479 5.11339 8.01479C5.11339 6.43479 6.40005 5.14812 7.98005 5.14812C9.56005 5.14812 10.8467 6.43479 10.8467 8.01479C10.8467 9.59479 9.56005 10.8815 7.98005 10.8815Z" fill="#303030"/>
</svg>
