<svg width="16" height="16" viewBox="0 0 16 16" fill="none" xmlns="http://www.w3.org/2000/svg">
<path d="M11.9534 10.2371C11.96 9.85042 11.82 9.48375 11.5534 9.20375C11.2867 8.92375 10.9267 8.76375 10.5334 8.75042C10.14 8.74375 9.78004 8.88375 9.50004 9.15042C9.22004 9.41708 9.06004 9.77708 9.04671 10.1637C9.03338 10.5504 9.18004 10.9171 9.44671 11.2037C9.62004 11.3904 9.84004 11.5104 10.0667 11.5771V12.6704C10.0667 13.2304 9.61338 13.6837 9.05338 13.6837C8.49338 13.6837 8.04004 13.2304 8.04004 12.6704V8.16375C9.71338 7.93042 11.0067 6.51042 11.0067 4.77042V1.34375H9.55338V2.27708H10.0734V4.77708C10.0734 6.15708 8.95338 7.28375 7.56671 7.28375C6.18004 7.28375 5.06004 6.15708 5.06004 4.77708V2.28375H5.59338V1.35042H4.12671V4.77708C4.12671 6.51042 5.42671 7.93708 7.10004 8.17042V12.6771C7.10004 13.7504 7.97338 14.6237 9.04671 14.6237C10.12 14.6237 10.9934 13.7504 10.9934 12.6771V11.5637C11.1734 11.4971 11.3467 11.3971 11.4934 11.2571C11.7734 10.9904 11.9334 10.6304 11.9467 10.2437L11.9534 10.2371ZM10.86 10.5771C10.8067 10.6304 10.7467 10.6637 10.68 10.6904H10.34C10.26 10.6637 10.1867 10.6237 10.1267 10.5637C10.0334 10.4637 9.98004 10.3304 9.98671 10.1904C9.98671 10.0504 10.0467 9.92375 10.1467 9.83042C10.2467 9.73708 10.3667 9.69042 10.5067 9.69042H10.52C10.66 9.69042 10.7867 9.75042 10.88 9.85042C10.9734 9.95042 11.0267 10.0837 11.02 10.2237C11.02 10.3637 10.96 10.4904 10.86 10.5837V10.5771Z" fill="#303030"/>
</svg>
