<svg width="16" height="16" viewBox="0 0 16 16" fill="none" xmlns="http://www.w3.org/2000/svg">
<path d="M14.6466 8.76677V7.83344H13.18C13.14 7.15344 13.0133 6.49344 12.8 5.86677L14.32 5.14677L13.92 4.3001L12.44 5.0001C12.3 4.7201 12.14 4.45344 11.9666 4.19344V4.1801L11.78 3.92677C11.56 3.63344 11.3133 3.37344 11.0533 3.1401L12.0933 1.8601L11.3666 1.27344L10.3 2.58677C9.58662 2.15344 8.79329 1.90677 7.97995 1.90677C7.79995 1.90677 7.61995 1.9201 7.43995 1.9401C6.80662 2.0201 6.19995 2.24677 5.63329 2.59344L4.72662 1.3201L3.96662 1.8601L4.88662 3.14677C4.63329 3.3801 4.39329 3.63344 4.17329 3.9201L3.97995 4.17344V4.18677C3.81329 4.4401 3.65329 4.71344 3.51329 4.99344L2.00662 4.2801L1.60662 5.12677L3.15995 5.8601C2.95329 6.47344 2.82662 7.13344 2.78662 7.80677H1.28662V8.7401H2.78662C2.82662 9.39344 2.94662 10.0134 3.13329 10.5934L1.79329 11.3201L2.23995 12.1401L3.47995 11.4668C4.38662 13.3668 6.05995 14.6468 7.98662 14.6468C9.91329 14.6468 11.58 13.3734 12.4866 11.4801L13.7 12.1401L14.1466 11.3201L12.84 10.6134C13.0333 10.0268 13.1466 9.4001 13.1866 8.7401H14.6533L14.6466 8.76677ZM8.39995 2.8801C8.44662 2.8801 8.48662 2.89344 8.53329 2.9001C8.62662 2.91344 8.71995 2.93344 8.80662 2.95344C8.85995 2.96677 8.90662 2.9801 8.95995 3.0001C9.03995 3.02677 9.12662 3.04677 9.20662 3.0801C9.25995 3.1001 9.30662 3.1201 9.35995 3.14677C9.43995 3.1801 9.51329 3.21344 9.59329 3.25344C9.64662 3.2801 9.69329 3.30677 9.73995 3.3401C9.81329 3.3801 9.88662 3.42677 9.95995 3.47344C10.0066 3.50677 10.0533 3.5401 10.1066 3.57344C10.18 3.62677 10.2466 3.6801 10.3133 3.73344C10.36 3.77344 10.4066 3.81344 10.4533 3.85344C10.52 3.91344 10.58 3.97344 10.6466 4.0401C10.6933 4.08677 10.74 4.13344 10.78 4.1801C10.8 4.2001 10.8133 4.22677 10.8333 4.24677C10.1866 5.11344 9.12662 5.64677 7.98662 5.64677C6.84662 5.64677 5.78662 5.1201 5.13329 4.25344C5.15329 4.23344 5.16662 4.21344 5.18662 4.18677C5.23329 4.13344 5.27995 4.08677 5.33329 4.03344C5.39329 3.97344 5.45329 3.91344 5.51329 3.8601C5.55995 3.81344 5.61329 3.77344 5.66662 3.72677C5.73329 3.67344 5.79329 3.6201 5.85995 3.57344C5.91329 3.53344 5.96662 3.5001 6.01995 3.4601C6.08662 3.41344 6.15995 3.37344 6.22662 3.33344C6.27995 3.3001 6.33329 3.27344 6.38662 3.2401C6.45995 3.2001 6.53329 3.16677 6.60662 3.1401C6.65995 3.11344 6.71329 3.09344 6.76662 3.07344C6.84662 3.04677 6.92662 3.0201 7.00662 2.99344C7.05995 2.9801 7.11329 2.9601 7.15995 2.94677C7.24662 2.92677 7.33995 2.90677 7.43329 2.89344C7.47995 2.88677 7.52662 2.87344 7.56662 2.86677C7.70662 2.84677 7.83995 2.8401 7.97995 2.8401C8.11995 2.8401 8.25995 2.84677 8.39329 2.86677L8.39995 2.8801ZM3.70662 8.3001C3.70662 7.10677 4.01329 5.97344 4.57329 5.03344C5.30662 5.88677 6.36662 6.43344 7.51329 6.55344V13.7068C5.37329 13.4068 3.70662 11.1001 3.70662 8.3001ZM8.44662 13.7134V6.5601C9.59995 6.4401 10.66 5.89344 11.3933 5.03344C11.9533 5.97344 12.2666 7.10677 12.2666 8.3001C12.2666 11.1001 10.5933 13.4134 8.45329 13.7134H8.44662Z" fill="#303030"/>
</svg>
