<svg width="16" height="16" viewBox="0 0 16 16" fill="none" xmlns="http://www.w3.org/2000/svg">
<path d="M2.78668 5.12698L2.80668 8.47365H7.54668V10.8736H6.12668V14.6803H9.93335V10.8736H8.48668V8.47365H13.24L13.22 5.12698H14.6533V1.32031H10.8467V5.12698H12.2867L12.3 7.53365H8.47335V5.12698H9.90001V1.32031H6.09335V5.12698H7.53335V7.53365H3.73335L3.72001 5.12698H5.15335V1.32031H1.34668V5.12698H2.78668ZM9.00001 13.747H7.06001V11.807H9.00001V13.747ZM11.78 2.25365H13.72V4.19365H11.78V2.25365ZM7.02668 2.25365H8.96668V4.19365H7.02668V2.25365ZM2.28001 2.25365H4.22001V4.19365H2.28001V2.25365Z" fill="#303030"/>
</svg>
