<svg width="16" height="16" viewBox="0 0 16 16" fill="none" xmlns="http://www.w3.org/2000/svg">
<path d="M11.7334 1.35938V2.29271H12.9868L10.2535 5.02604C9.60678 4.51937 8.80012 4.21937 7.92012 4.21937C5.82678 4.21937 4.12012 5.92604 4.12012 8.01937C4.12012 9.96604 5.58678 11.566 7.47345 11.7927V12.7727H6.04012V13.706H7.46678V14.6527H8.40012V13.706H9.86678V12.7727H8.40678V11.786C10.2734 11.546 11.7201 9.95271 11.7201 8.01937C11.7201 7.13937 11.4201 6.33271 10.9135 5.68604L13.6468 2.95271V4.20604H14.5801V1.35938H11.7401H11.7334ZM7.91345 10.886C6.33345 10.886 5.04678 9.59937 5.04678 8.01937C5.04678 6.43937 6.33345 5.15271 7.91345 5.15271C9.49345 5.15271 10.7801 6.43937 10.7801 8.01937C10.7801 9.59937 9.49345 10.886 7.91345 10.886Z" fill="#303030"/>
</svg>
