<svg width="16" height="16" viewBox="0 0 16 16" fill="none" xmlns="http://www.w3.org/2000/svg">
<path d="M5.39006 7.02427C5.19006 7.40427 5.08339 7.8376 5.07673 8.2976C5.07673 9.89094 6.37673 11.1843 7.99006 11.1843H7.99673C8.45006 11.1843 8.88339 11.0843 9.26339 10.8976L8.54339 10.1776C8.36339 10.2243 8.18339 10.2509 7.99006 10.2509C6.89673 10.2509 6.01006 9.37094 6.01006 8.2976C6.01006 8.10427 6.04339 7.9176 6.10339 7.7376L5.39006 7.02427ZM7.99673 3.05094H7.97673C6.89673 3.05094 5.87006 3.36427 4.93006 3.92427L2.71673 1.71094L2.05673 2.37094L13.9701 14.2843L14.6301 13.6243L12.5634 11.5576C13.4234 10.6776 14.1567 9.56427 14.6967 8.31094C13.3901 5.08427 10.8834 3.06427 7.99673 3.05094ZM9.89006 8.88427L7.45673 6.45094C7.63673 6.3976 7.82339 6.36427 8.01673 6.36427C9.11006 6.36427 9.99673 7.24427 9.99006 8.31094C9.99006 8.51094 9.95006 8.70427 9.89006 8.88427ZM11.9034 10.9043L10.5967 9.5976C10.7967 9.21094 10.9167 8.7776 10.9167 8.3176C10.9234 6.72427 9.62339 5.43094 8.01006 5.42427H7.99673C7.53673 5.42427 7.11006 5.54427 6.73006 5.73094L5.61673 4.6176C6.37006 4.21094 7.17672 3.99094 7.99006 3.99094C9.17672 3.99094 10.2901 4.3976 11.2634 5.1376C12.2367 5.8776 13.0634 6.95094 13.6701 8.2976C13.1901 9.33094 12.5834 10.2109 11.9034 10.9043ZM3.44339 5.0776C2.58339 5.9376 1.85006 7.0376 1.31006 8.31094C2.61673 11.5109 5.11672 13.6776 7.99006 13.6843H8.01006C9.11006 13.6843 10.1634 13.3443 11.1101 12.7443L10.4301 12.0643C9.65673 12.5109 8.83006 12.7509 7.99006 12.7509C5.71006 12.7443 3.56339 11.0576 2.33006 8.3176C2.81006 7.2976 3.41673 6.43094 4.11006 5.74427L3.44339 5.0776Z" fill="#303030"/>
</svg>
