<svg width="16" height="16" viewBox="0 0 16 16" fill="none" xmlns="http://www.w3.org/2000/svg">
<path d="M1.74668 12.4823H14.2533L14.3533 12.149C14.5533 11.5023 14.6533 10.8356 14.6533 10.169C14.6533 6.50229 11.6667 3.51562 8.00001 3.51562C4.33335 3.51562 1.34668 6.50896 1.34668 10.1756C1.34668 10.8423 1.44668 11.509 1.64668 12.1623L1.74668 12.489V12.4823ZM8.00001 4.45562C11.1533 4.45562 13.72 7.02229 13.72 10.1756C13.72 10.6356 13.66 11.1023 13.5533 11.5556H2.44668C2.34001 11.1023 2.28001 10.6356 2.28001 10.1756C2.28001 7.02229 4.84668 4.45562 8.00001 4.45562ZM4.18668 10.5823C4.18001 10.4956 4.18001 10.4023 4.18001 10.3223C4.18001 8.16229 5.90001 6.39562 8.00668 6.39562C10.1133 6.39562 11.8333 8.16229 11.8333 10.3223C11.8333 10.409 11.8333 10.4956 11.82 10.5823H12.7533C12.7667 10.5023 12.7667 10.409 12.7667 10.3223C12.7667 7.62896 10.6333 5.44229 8.00668 5.44229C5.38001 5.44229 3.24668 7.62896 3.24668 10.3223C3.24668 10.4023 3.24668 10.4956 3.26001 10.5823H4.18668ZM9.16668 7.45563L9.98668 7.90229L8.40001 10.8023L7.58001 10.3556L9.16668 7.45563Z" fill="#303030"/>
</svg>
