<svg width="16" height="16" viewBox="0 0 16 16" fill="none" xmlns="http://www.w3.org/2000/svg">
<path d="M7.99013 2.26029C11.1462 2.26029 13.7163 4.83041 13.7163 7.98647C13.7163 11.1425 11.1462 13.7126 7.99013 13.7126C4.83408 13.7126 2.26396 11.1425 2.26396 7.98647C2.26396 4.83041 4.83408 2.26029 7.99013 2.26029ZM7.99013 1.32812C4.31473 1.32812 1.33179 4.31106 1.33179 7.98647C1.33179 11.6619 4.31473 14.6448 7.99013 14.6448C11.6655 14.6448 14.6485 11.6619 14.6485 7.98647C14.6485 4.31106 11.6655 1.32812 7.99013 1.32812Z" fill="#303030"/>
<path d="M7.9902 6.10404C9.03556 6.10404 9.88782 6.95631 9.88782 8.00167C9.88782 9.04703 9.03556 9.8993 7.9902 9.8993C6.94484 9.8993 6.09257 9.04703 6.09257 8.00167C6.09257 6.95631 6.94484 6.10404 7.9902 6.10404ZM7.9902 5.17188C6.42549 5.17188 5.1604 6.43696 5.1604 8.00167C5.1604 9.56638 6.42549 10.8315 7.9902 10.8315C9.55491 10.8315 10.82 9.56638 10.82 8.00167C10.82 6.43696 9.55491 5.17188 7.9902 5.17188Z" fill="#303030"/>
</svg>
