<svg width="16" height="16" viewBox="0 0 16 16" fill="none" xmlns="http://www.w3.org/2000/svg">
<path d="M14.6467 3.71094H13.72L11.2733 6.85094L8.94668 5.1376L6.58668 7.5776L3.77335 5.53094L1.39335 7.1576L1.40668 7.1776H1.34668V14.6576H14.6667V3.71094H14.6467ZM6.68668 8.80427L9.04668 6.37094L11.4533 8.1376L13.72 5.23094V7.7576L11.2733 10.8976L8.94668 9.18427L6.58668 11.6243L3.77335 9.5776L2.28001 10.5976V7.6776L3.75335 6.67094L6.69335 8.80427H6.68668ZM2.27335 13.7243V11.7243L3.74668 10.7176L6.68668 12.8509L9.04668 10.4176L11.4533 12.1843L13.72 9.27094V13.7243H2.27335Z" fill="#303030"/>
</svg>
