<svg width="16" height="16" viewBox="0 0 16 16" fill="none" xmlns="http://www.w3.org/2000/svg">
<path d="M1.35999 13.2378H14.6867V2.75781H1.35999V13.2311V13.2378ZM2.29332 3.69115H13.7533V12.2978H2.29332V3.69115Z" fill="#303030"/>
<path d="M9.44666 5.63281H12.7467V6.56615H9.44666V5.63281Z" fill="#303030"/>
<path d="M9.44666 7.53125H12.7467V8.46458H9.44666V7.53125Z" fill="#303030"/>
<path d="M9.44666 9.42969H12.7467V10.363H9.44666V9.42969Z" fill="#303030"/>
<path d="M7.35999 8.76729C7.81332 8.38729 8.11332 7.82729 8.11332 7.19396C8.11332 6.06062 7.19332 5.14062 6.05999 5.14062C4.92666 5.14062 4.00666 6.06062 4.00666 7.19396C4.00666 7.85396 4.31999 8.43396 4.80666 8.80729C3.87999 9.28063 3.23999 10.2273 3.23999 11.3273H4.17332C4.17332 10.2673 5.04666 9.40729 6.11332 9.40729C7.17999 9.40729 8.05999 10.2673 8.05999 11.3273H8.99332C8.99332 10.2006 8.31999 9.22729 7.35999 8.76729ZM6.05999 6.07396C6.67999 6.07396 7.17999 6.57396 7.17999 7.19396C7.17999 7.81396 6.67999 8.31396 6.05999 8.31396C5.43999 8.31396 4.93999 7.81396 4.93999 7.19396C4.93999 6.57396 5.43999 6.07396 6.05999 6.07396Z" fill="#303030"/>
</svg>
