<svg width="16" height="16" viewBox="0 0 16 16" fill="none" xmlns="http://www.w3.org/2000/svg">
<path d="M1.33997 11.3249L6.2533 11.3116L8.02663 14.6582L9.7733 11.3116L14.6333 11.3249L14.6533 1.35156H1.33997V11.3249ZM2.2733 2.2849H13.72L13.7 10.3916L9.20663 10.3782L8.0133 12.6582L6.80663 10.3782L2.26663 10.3916V2.2849H2.2733ZM7.5133 7.63156H8.44663V8.7449H7.5133V7.63156ZM7.39997 4.69156C7.5533 4.53823 7.7733 4.45823 8.0533 4.45823C8.27997 4.45823 8.44663 4.5049 8.56663 4.59823C8.68663 4.69156 8.74663 4.81823 8.74663 4.99156C8.74663 5.13156 8.70663 5.25156 8.61997 5.3649C8.5333 5.47156 8.39997 5.6049 8.21996 5.7649C8.06663 5.89823 7.94663 6.01156 7.8533 6.11823C7.75996 6.2249 7.67997 6.33823 7.6133 6.47156C7.54663 6.6049 7.5133 6.75823 7.5133 6.93156V7.1249H8.40663V6.9849C8.40663 6.87156 8.42663 6.77156 8.4733 6.67823C8.51997 6.5849 8.5733 6.49823 8.64663 6.4249C8.7133 6.35156 8.8133 6.25156 8.9333 6.13823C9.07997 6.0049 9.19997 5.8849 9.29996 5.77156C9.3933 5.6649 9.47997 5.53156 9.54663 5.39156C9.6133 5.25156 9.64663 5.0849 9.64663 4.9049C9.64663 4.55156 9.51997 4.27156 9.25997 4.05823C8.99997 3.8449 8.62663 3.7449 8.13997 3.7449C7.76663 3.7449 7.44663 3.81156 7.16663 3.93823C6.88663 4.07156 6.66663 4.25823 6.5133 4.49823C6.35997 4.73823 6.2733 5.0249 6.26663 5.35823H7.15997C7.1733 5.07156 7.25997 4.85156 7.4133 4.69823H7.39997V4.69156Z" fill="#303030"/>
</svg>
