<svg width="16" height="16" viewBox="0 0 16 16" fill="none" xmlns="http://www.w3.org/2000/svg">
<path d="M8.01998 9.41813C8.80422 9.41813 9.43998 8.78237 9.43998 7.99813C9.43998 7.21388 8.80422 6.57812 8.01998 6.57812C7.23573 6.57812 6.59998 7.21388 6.59998 7.99813C6.59998 8.78237 7.23573 9.41813 8.01998 9.41813Z" fill="#303030"/>
<path d="M2.2733 2.94375L4.86663 5.55708L5.5333 4.89708L2.92663 2.27708H5.83997V1.34375H1.33997V5.85042H2.2733V2.94375Z" fill="#303030"/>
<path d="M10.14 2.2849H13.0533L10.44 4.87823L11.0933 5.53823L13.7133 2.93823V5.8449H14.6467V1.35156H10.14V2.2849Z" fill="#303030"/>
<path d="M13.7066 13.0473L11.1133 10.434L10.4533 11.094L13.0533 13.714H10.1466V14.6473H14.6399V10.1406H13.7066V13.0473Z" fill="#303030"/>
<path d="M5.83997 13.714H2.92663L5.5333 11.094L4.86663 10.434L2.2733 13.0473V10.1406H1.33997V14.6473H5.83997V13.714Z" fill="#303030"/>
</svg>
