<svg width="16" height="16" viewBox="0 0 16 16" fill="none" xmlns="http://www.w3.org/2000/svg">
<path d="M2.76001 2.27708H4.20001V4.67042C4.20001 6.10375 5.00001 7.35708 6.17334 8.00375C5.00001 8.65042 4.20001 9.90375 4.20001 11.3371V13.7304H2.78001V14.6637H13.24V13.7304H11.8V11.3371C11.8 9.90375 11 8.65042 9.82668 8.00375C11 7.35708 11.8 6.10375 11.8 4.67042V2.27708H13.24V1.34375H2.76001V2.27708ZM10.8667 11.3304V13.7238H5.13334V11.3304C5.13334 9.75708 6.40668 8.48375 7.97334 8.46375C7.98001 8.46375 7.99334 8.46375 8.00001 8.46375C8.00668 8.46375 8.02001 8.46375 8.02668 8.46375C9.59334 8.47708 10.8667 9.75708 10.8667 11.3304ZM10.8667 4.67042C10.8667 6.24375 9.59334 7.51708 8.02668 7.53708C8.02001 7.53708 8.00668 7.53708 8.00001 7.53708C7.99334 7.53708 7.98001 7.53708 7.97334 7.53708C6.40668 7.52375 5.13334 6.24375 5.13334 4.67042V2.27708H10.8667V4.67042Z" fill="#303030"/>
</svg>
