<svg width="16" height="16" viewBox="0 0 16 16" fill="none" xmlns="http://www.w3.org/2000/svg">
<path d="M13.9434 7.36375V4.19042L11.0767 1.34375H3.48338V7.04375H4.41672V2.27708H10.1367V5.14375H13.01V7.51708V13.7104H4.41672V12.7504H3.48338V14.6437H13.95V7.35708H13.9434V7.36375ZM11.0834 4.21042V2.65042L12.65 4.21042H11.0834ZM3.03005 8.16375H2.05005V11.6371H3.07672C4.09672 11.6371 4.77672 11.0771 4.77672 9.88375C4.77672 8.69042 4.09005 8.16375 3.03005 8.16375ZM2.97672 11.0104H2.83005V8.80375H2.97672C3.56338 8.80375 3.96338 9.06375 3.96338 9.89042C3.96338 10.7171 3.56338 11.0104 2.97672 11.0104ZM6.71672 8.10375C5.77672 8.10375 5.13672 8.75708 5.13672 9.89042C5.13672 11.0238 5.77672 11.7038 6.71672 11.7038C7.65672 11.7038 8.29672 11.0238 8.29672 9.89042C8.29672 8.75708 7.65672 8.10375 6.71672 8.10375ZM6.71672 11.0238C6.24338 11.0238 5.94338 10.5838 5.94338 9.88375C5.94338 9.18375 6.24338 8.77708 6.71672 8.77708C7.19005 8.77708 7.49005 9.19042 7.49005 9.88375C7.49005 10.5771 7.19005 11.0238 6.71672 11.0238ZM8.65005 9.92375C8.65005 8.77042 9.41005 8.10375 10.29 8.10375C10.7367 8.10375 11.1034 8.31708 11.3367 8.55708L10.9234 9.06375C10.75 8.90375 10.5634 8.78375 10.31 8.78375C9.83672 8.78375 9.45672 9.20375 9.45672 9.89708C9.45672 10.5904 9.79005 11.0238 10.2967 11.0238C10.5834 11.0238 10.8034 10.8837 10.9767 10.6971L11.39 11.1904C11.1034 11.5238 10.7167 11.6971 10.27 11.6971C9.39005 11.6971 8.65672 11.0838 8.65672 9.91708H8.65005V9.92375Z" fill="#303030"/>
</svg>
