<svg width="16" height="16" viewBox="0 0 16 16" fill="none" xmlns="http://www.w3.org/2000/svg">
<path d="M8.44652 9.84104L8.47986 3.23438H7.54652L7.51319 9.84771C7.03319 10.041 6.68652 10.5077 6.68652 11.061C6.68652 11.781 7.27319 12.3677 7.99319 12.3677C8.71319 12.3677 9.29986 11.781 9.29986 11.061C9.29986 10.501 8.94652 10.021 8.44652 9.84104Z" fill="#303030"/>
<path d="M5.6599 1.35156V7.95156C4.7599 8.6649 4.22656 9.75156 4.22656 10.9049C4.22656 12.9849 5.9199 14.6782 7.9999 14.6782C10.0799 14.6782 11.7732 12.9849 11.7732 10.9049C11.7732 9.77823 11.2599 8.7049 10.3866 7.99156V1.35156H5.6599ZM10.8466 10.9049C10.8466 12.4716 9.57323 13.7449 8.00656 13.7449C6.4399 13.7449 5.16656 12.4716 5.16656 10.9049C5.16656 9.97156 5.62656 9.09823 6.3999 8.5649L6.5999 8.4249V2.2849H9.4599V8.45823L9.65323 8.59823C10.3999 9.13156 10.8466 9.99823 10.8466 10.9049Z" fill="#303030"/>
</svg>
