<svg width="16" height="16" viewBox="0 0 16 16" fill="none" xmlns="http://www.w3.org/2000/svg">
<path d="M8.63998 8.38031L12.7 7.78031L14.0333 1.32031L8.29331 6.74031L7.78665 3.30031L1.33331 1.97365L6.75331 7.71365L3.31331 8.22031L1.97998 14.6803L7.53998 9.42698V12.787H8.47331V8.54698L8.63998 8.38698V8.38031ZM11.92 6.95365L9.82665 7.26031L9.83998 7.24698L8.98665 7.37365L12.5266 4.02698L11.9266 6.94698L11.92 6.95365ZM6.95998 4.08698L7.39331 7.03365L4.03998 3.48031L6.95998 4.08031V4.08698ZM4.09331 9.04698L6.18665 8.74031H6.17331L7.02665 8.62698L3.48665 11.9736L4.08665 9.05365L4.09331 9.04698ZM12.4533 8.90698C11.2333 8.90698 10.2466 9.89365 10.2466 11.1136C10.2466 11.5536 10.38 11.9603 10.6 12.307L8.89998 14.0003L9.55998 14.6603L11.26 12.967C11.6066 13.1936 12.0133 13.3203 12.4533 13.3203C13.6733 13.3203 14.66 12.3336 14.66 11.1136C14.66 9.89365 13.6733 8.90698 12.4533 8.90698ZM12.4533 12.3936C11.7466 12.3936 11.18 11.8203 11.18 11.1203C11.18 10.4203 11.7533 9.84698 12.4533 9.84698C13.1533 9.84698 13.7266 10.4203 13.7266 11.1203C13.7266 11.8203 13.1533 12.3936 12.4533 12.3936Z" fill="#303030"/>
</svg>
