<svg width="16" height="16" viewBox="0 0 16 16" fill="none" xmlns="http://www.w3.org/2000/svg">
<path d="M13.2334 6.5525C13.2334 5.75917 12.5867 5.1125 11.7934 5.1125C11.0001 5.1125 10.3534 5.75917 10.3534 6.5525C10.3534 7.1925 10.7734 7.72583 11.3467 7.91917V9.92583H8.47339V4.19917H9.46672L8.00672 1.3125L6.55339 4.19917H7.54672V9.91917H4.67339V8.00583H5.64672V5.12583H2.76672V8.00583H3.73339V10.8525H7.54006V11.8792C6.97339 12.0725 6.56672 12.6058 6.56672 13.2392C6.56672 14.0325 7.21339 14.6792 8.00672 14.6792C8.80006 14.6792 9.44672 14.0325 9.44672 13.2392C9.44672 12.6058 9.04006 12.0792 8.47339 11.8792V10.8525H12.2801V7.89917C12.8334 7.69917 13.2334 7.1725 13.2334 6.54583V6.5525Z" fill="#303030"/>
</svg>
