<svg width="16" height="16" viewBox="0 0 16 16" fill="none" xmlns="http://www.w3.org/2000/svg">
<path d="M1.33325 14.6693H14.6666V1.33594H1.33325V14.6693ZM2.26659 2.26927H13.7333V13.7359H2.26659V2.26927Z" fill="#303030"/>
<path d="M7.99982 5.14844C6.41982 5.14844 5.14648 6.42844 5.14648 8.00177C5.14648 9.5751 6.42648 10.8551 7.99982 10.8551C9.57315 10.8551 10.8532 9.5751 10.8532 8.00177C10.8532 6.42844 9.57315 5.14844 7.99982 5.14844ZM7.99982 9.92177C6.93982 9.92177 6.07982 9.06177 6.07982 8.00177C6.07982 6.94177 6.93982 6.08177 7.99982 6.08177C9.05982 6.08177 9.91982 6.94177 9.91982 8.00177C9.91982 9.06177 9.05982 9.92177 7.99982 9.92177Z" fill="#303030"/>
</svg>
