<svg width="16" height="16" viewBox="0 0 16 16" fill="none" xmlns="http://www.w3.org/2000/svg">
<path d="M1.34009 14.6675H14.6668V4.1875H1.34009V14.6608V14.6675ZM4.64675 13.7342L4.66675 5.1275H11.3534L11.3334 13.7342H4.64675ZM13.7334 13.7342H12.2668L12.2868 5.1275H13.7401V13.7342H13.7334ZM2.27342 5.12083H3.73342L3.71342 13.7275H2.27342V5.12083Z" fill="#303030"/>
<path d="M5.16016 4.19042H6.09349C6.09349 3.13708 6.94682 2.27708 8.00016 2.27708C9.05349 2.27708 9.90682 3.13708 9.90682 4.19042H10.8402C10.8402 2.62375 9.56682 1.34375 8.00016 1.34375C6.43349 1.34375 5.16016 2.62375 5.16016 4.19042Z" fill="#303030"/>
</svg>
