<svg width="16" height="16" viewBox="0 0 16 16" fill="none" xmlns="http://www.w3.org/2000/svg">
<path d="M7.99997 14.6637C11.68 14.6637 14.66 11.6838 14.66 8.00375C14.66 6.16375 13.9133 4.49708 12.7066 3.29042C11.5 2.08375 9.83997 1.34375 7.99997 1.34375C4.31997 1.34375 1.33997 4.32375 1.33997 8.00375C1.33997 11.6838 4.31997 14.6637 7.99997 14.6637ZM13.7266 8.00375C13.7266 9.41708 13.2133 10.7037 12.36 11.7037L8.65997 8.00375L12.3933 4.33042C13.2533 5.35708 13.7266 6.64375 13.7266 7.99708V8.00375ZM8.46663 2.29708C9.67997 2.39708 10.82 2.87042 11.74 3.67042L8.46663 6.89042V2.29708ZM7.5333 2.29708V8.19708L11.7066 12.3638C10.7066 13.2171 9.4133 13.7304 7.99997 13.7304C4.83997 13.7304 2.2733 11.1637 2.2733 8.00375C2.2733 4.84375 4.5933 2.53708 7.5333 2.29708Z" fill="#303030"/>
</svg>
