<svg width="16" height="16" viewBox="0 0 16 16" fill="none" xmlns="http://www.w3.org/2000/svg">
<path d="M10.3533 1.34375H2.77332V14.6571H7.99332V13.7237H3.70665V2.27708H9.61998V5.25042H12.3V7.99708H13.2333V4.27042L10.36 1.34375H10.3533ZM10.5466 2.87708L11.9666 4.31708H10.5466V2.87708Z" fill="#303030"/>
<path d="M13.8867 12.4194L13.84 12.126L13.6267 11.9127L13.3133 11.5994L14.5867 10.326L12.8133 8.55271L11.54 9.82604L10.7333 9.01938L10.0733 8.35938L9.41334 9.01938L8.92001 9.51271L8.26001 10.1727L8.92001 10.8327L9.72668 11.6394L8.46001 12.906L10.2333 14.6794L11.5 13.4127L11.8133 13.726L12.0267 13.9394L12.3267 13.986L12.9133 14.0794L14.1933 14.2794L13.98 13.006L13.8867 12.4194ZM12.82 9.87271L13.2733 10.326L12.66 10.9394L12.2067 10.486L12.82 9.87271ZM10.24 13.3594L9.78668 12.906L10.3933 12.2994L10.8467 12.7527L10.24 13.3594ZM12.4733 13.066L9.58001 10.1727L10.0733 9.67938L12.9667 12.5727L13.06 13.1594L12.4733 13.066Z" fill="#303030"/>
</svg>
