<svg width="16" height="16" viewBox="0 0 16 16" fill="none" xmlns="http://www.w3.org/2000/svg">
<path d="M13.24 6.56927H11.3333V4.6626C11.3333 2.82927 9.84001 1.33594 8.00668 1.33594C6.17334 1.33594 4.68001 2.82927 4.68001 4.6626V6.56927H2.78001L2.76001 14.6626H13.2333V6.56927H13.24ZM5.61334 4.6626C5.61334 3.3426 6.68668 2.26927 8.00668 2.26927C9.32668 2.26927 10.3933 3.3426 10.3933 4.6626V6.56927H5.61334V4.6626ZM12.3067 13.7359H3.70001L3.71334 7.50927H12.3067V13.7359Z" fill="#303030"/>
<path d="M7.54659 11.2154V12.7554H8.47993V11.2087C9.0266 11.0154 9.41993 10.4954 9.41993 9.88208C9.41993 9.10208 8.7866 8.46875 8.0066 8.46875C7.2266 8.46875 6.59326 9.10208 6.59326 9.88208C6.59326 10.5021 6.99326 11.0221 7.54659 11.2087V11.2154Z" fill="#303030"/>
</svg>
