<svg width="16" height="16" viewBox="0 0 16 16" fill="none" xmlns="http://www.w3.org/2000/svg">
<path d="M11.3466 12.7727V4.70604H9.59328C9.87995 4.35271 10.06 3.90604 10.06 3.41271C10.06 2.27937 9.13995 1.35938 8.00662 1.35938C6.87328 1.35938 5.95328 2.27937 5.95328 3.41271C5.95328 3.90604 6.13328 4.34604 6.41995 4.70604H4.69995V12.7727H6.59995V14.686H7.53995L7.52662 11.8394H5.62662V5.63938H10.4V11.8394H8.49995V14.686H9.44662V12.7727H11.34H11.3466ZM8.01328 2.29271C8.63328 2.29271 9.13328 2.79271 9.13328 3.41271C9.13328 4.03271 8.63328 4.53271 8.01328 4.53271C7.39328 4.53271 6.89328 4.03271 6.89328 3.41271C6.89328 2.79271 7.39328 2.29271 8.01328 2.29271Z" fill="#303030"/>
<path d="M2.28001 12.0471C2.28001 11.7937 2.67335 11.3537 3.78001 10.9737L3.47335 10.0938C1.71335 10.7004 1.34668 11.4937 1.34668 12.0471C1.34668 13.1937 2.92001 14.1071 5.56668 14.4871L5.70001 13.5604C3.34668 13.2204 2.28668 12.4671 2.28668 12.0404L2.28001 12.0471Z" fill="#303030"/>
<path d="M12.4334 10.0547L12.1401 10.9414C13.2401 11.308 13.7334 11.7614 13.7334 12.048C13.7334 12.4947 12.6801 13.1547 10.7334 13.5014L10.8934 14.4214C13.2867 14.0014 14.6667 13.1347 14.6667 12.048C14.6667 11.4747 14.2801 10.668 12.4401 10.0547H12.4334Z" fill="#303030"/>
</svg>
