<svg width="16" height="16" viewBox="0 0 16 16" fill="none" xmlns="http://www.w3.org/2000/svg">
<path d="M1 11.3733H14.3133V4H1V11.3733ZM1.93333 4.93333H13.38V10.44H1.93333V4.93333Z" fill="#303030"/>
<path d="M2.90002 5.67969H3.84002V6.61969H2.90002V5.67969Z" fill="#303030"/>
<path d="M2.90002 7.10938H3.84002V8.04937H2.90002V7.10938Z" fill="#303030"/>
<path d="M5.04004 5.67969H5.98004V6.61969H5.04004V5.67969Z" fill="#303030"/>
<path d="M5.04663 7.10938H5.98663V8.04937H5.04663V7.10938Z" fill="#303030"/>
<path d="M7.18005 5.67969H8.12005V6.61969H7.18005V5.67969Z" fill="#303030"/>
<path d="M7.18665 7.10938H8.12665V8.04937H7.18665V7.10938Z" fill="#303030"/>
<path d="M9.33337 7.10938H10.2734V8.04937H9.33337V7.10938Z" fill="#303030"/>
<path d="M9.33337 5.67969H12.42V6.61969H9.33337V5.67969Z" fill="#303030"/>
<path d="M5.04004 8.53906H10.3267V9.47906H5.04004V8.53906Z" fill="#303030"/>
<path d="M11.4734 7.10938H12.4134V8.04937H11.4734V7.10938Z" fill="#303030"/>
<path d="M11.4734 8.53906H12.4134V9.47906H11.4734V8.53906Z" fill="#303030"/>
<path d="M2.90002 8.53906H3.84002V9.47906H2.90002V8.53906Z" fill="#303030"/>
</svg>
