<svg width="16" height="16" viewBox="0 0 16 16" fill="none" xmlns="http://www.w3.org/2000/svg">
<path d="M11.67 5.19844H9.80335V3.39844L8.40335 2.93177V2.33177H9.40335V1.39844H7.47002V2.99844L6.07002 3.4651V5.2651H4.20335V7.59844L2.27002 8.59844V14.7984H13.7367V8.59844L11.7367 7.53177V5.19844H11.67ZM4.13669 13.7318H3.13669V9.0651L4.13669 8.53177V13.7318ZM7.00335 4.0651L8.00335 3.73177L8.93669 4.0651V5.19844H7.00335V4.0651ZM10.7367 13.7318H5.07002V6.0651H10.7367V13.7318ZM12.7367 9.0651V13.7318H11.67V8.53177L12.7367 9.0651ZM6.27002 7.0651H7.20335V7.99844H6.27002V7.0651ZM8.67002 7.0651H9.60335V7.99844H8.67002V7.0651ZM6.27002 8.93177H7.20335V9.8651H6.27002V8.93177ZM8.67002 8.93177H9.60335V9.8651H8.67002V8.93177ZM6.27002 10.8651H7.20335V11.7984H6.27002V10.8651ZM8.67002 10.8651H9.60335V11.7984H8.67002V10.8651Z" fill="#303030"/>
</svg>
