<svg width="16" height="16" viewBox="0 0 16 16" fill="none" xmlns="http://www.w3.org/2000/svg">
<path d="M14.6666 7.99594V8.92927H1.33325V7.99594H7.15992C4.63325 7.27594 3.61992 6.30927 3.61992 4.66927C3.61992 2.6426 5.26659 1.33594 7.80658 1.33594C10.3466 1.33594 12.0399 2.8626 12.0399 5.12927V5.14927H11.0866V5.12927C11.0866 3.29594 9.85325 2.2026 7.78659 2.2026C5.71992 2.2026 4.57325 3.13594 4.57325 4.63594C4.57325 5.99594 5.43992 6.6426 8.14658 7.3026C9.01325 7.51594 9.71992 7.7426 10.2999 7.99594H14.6666ZM11.1866 9.90927C11.3666 10.2359 11.4399 10.6226 11.4399 11.0759C11.4399 12.8159 10.1933 13.8093 8.01325 13.8093C5.63992 13.8093 4.13992 12.4959 4.08659 10.3826V10.2226H3.12659V10.3893C3.18659 12.9893 5.10659 14.6693 8.01325 14.6693C10.7533 14.6693 12.3933 13.3159 12.3933 11.0559C12.3933 10.6293 12.3399 10.2493 12.2266 9.90927H11.1866Z" fill="#303030"/>
</svg>
