<svg width="16" height="16" viewBox="0 0 16 16" fill="none" xmlns="http://www.w3.org/2000/svg">
<path d="M6.74663 9.90031H9.31996C10.4066 9.90031 11.2866 9.02031 11.2866 7.93365C11.2866 7.07365 10.72 6.32698 9.91997 6.06698C9.66663 5.26031 8.9133 4.68031 8.03996 4.68031C7.16663 4.68031 6.41997 5.25365 6.16663 6.06031C5.35997 6.31365 4.77997 7.06698 4.77997 7.93365C4.77997 9.01365 5.65997 9.90031 6.74663 9.90031ZM6.41997 6.98031L6.80663 7.36698L7.46663 6.70698L7.07997 6.32031C7.21997 5.91365 7.5933 5.61365 8.03996 5.61365C8.48663 5.61365 8.85997 5.91365 8.99997 6.32698L8.6133 6.73365L9.28663 7.38031L9.66663 6.98698C10.0666 7.13365 10.3533 7.50031 10.3533 7.93365C10.3533 8.50031 9.88663 8.96698 9.31996 8.96698H6.7533C6.18663 8.96698 5.71997 8.50031 5.71997 7.93365C5.71997 7.49365 6.0133 7.12031 6.42663 6.98031H6.41997ZM14.6466 1.82031H1.33997V12.2803H14.6533V1.82031H14.6466ZM13.72 11.3403H2.2733V2.75365H13.72V11.3403ZM5.13997 13.247H10.8533V14.1803H5.13997V13.247Z" fill="#303030"/>
</svg>
