<svg width="16" height="16" viewBox="0 0 16 16" fill="none" xmlns="http://www.w3.org/2000/svg">
<path d="M10.2134 7.40146C10.8334 7.40146 11.3334 6.90146 11.3334 6.28146C11.3334 5.66146 10.8334 5.16146 10.2134 5.16146C9.59337 5.16146 9.09337 5.66146 9.09337 6.28146C9.09337 6.90146 9.59337 7.40146 10.2134 7.40146ZM5.72671 7.40146C6.34671 7.40146 6.84671 6.90146 6.84671 6.28146C6.84671 5.66146 6.34671 5.16146 5.72671 5.16146C5.10671 5.16146 4.60671 5.66146 4.60671 6.28146C4.60671 6.90146 5.10671 7.40146 5.72671 7.40146ZM4.68671 11.3281H5.62004C5.62004 10.0415 6.66671 8.98812 7.96004 8.98812C9.25337 8.98812 10.3 10.0348 10.3 11.3281H11.2334C11.2334 9.52146 9.76671 8.05479 7.96004 8.05479C6.15337 8.05479 4.68671 9.52146 4.68671 11.3281ZM8.00004 14.6615C11.6867 14.6615 14.6667 11.6748 14.6667 7.99479C14.6667 4.31479 11.6867 1.32812 8.00004 1.32812C4.31337 1.32812 1.33337 4.30812 1.33337 7.99479C1.33337 11.6815 4.32004 14.6615 8.00004 14.6615ZM8.00004 2.26146C11.16 2.26146 13.7334 4.83479 13.7334 7.99479C13.7334 11.1548 11.16 13.7281 8.00004 13.7281C4.84004 13.7281 2.26671 11.1548 2.26671 7.99479C2.26671 4.83479 4.84004 2.26146 8.00004 2.26146Z" fill="#303030"/>
</svg>
