<svg width="16" height="16" viewBox="0 0 16 16" fill="none" xmlns="http://www.w3.org/2000/svg">
<path d="M3.73998 4.18927H12.2866V5.1226H3.73998V4.18927ZM3.73998 6.58927H9.12665V7.5226H3.73998V6.58927ZM1.33331 14.6693H7.99331V13.7359H2.26665V2.27594H13.7333V8.0026H14.6666V1.33594H1.33331V14.6626V14.6693ZM12.4133 8.9026C11.1933 8.9026 10.2066 9.88927 10.2066 11.1093C10.2066 11.5493 10.34 11.9559 10.56 12.3026L8.85998 13.9959L9.51998 14.6559L11.22 12.9626C11.5666 13.1893 11.9733 13.3159 12.42 13.3159C13.64 13.3159 14.6266 12.3293 14.6266 11.1093C14.6266 9.88927 13.64 8.9026 12.42 8.9026H12.4133ZM12.4133 12.3959C11.7066 12.3959 11.14 11.8226 11.14 11.1226C11.14 10.4226 11.7133 9.84927 12.4133 9.84927C13.1133 9.84927 13.6866 10.4226 13.6866 11.1226C13.6866 11.8226 13.1133 12.3959 12.4133 12.3959Z" fill="#303030"/>
</svg>
