<svg width="16" height="16" viewBox="0 0 16 16" fill="none" xmlns="http://www.w3.org/2000/svg">
<path d="M2.76007 14.4181H6.5534V12.5115H7.50674V9.17813H8.48007V12.5115H9.4334V14.4181H13.2267V12.5115H14.1801V3.48479H12.9401V1.57812H9.62673V3.48479H8.48674V6.34479H7.5134V3.48479H6.2734V1.57812H2.96007V3.48479H1.82007V12.5115H2.7734V14.4181H2.76007ZM5.6134 13.4848H3.68674V12.5115H5.6134V13.4848ZM12.2801 13.4848H10.3534V12.5115H12.2801V13.4848ZM10.5401 2.51146H11.9867V3.48479H10.5401V2.51146ZM9.40673 4.41813H13.2334V11.5781H9.40673V4.41813ZM8.4734 7.28479V8.25146H7.50007V7.28479H8.4734ZM3.8734 2.51146H5.32007V3.48479H3.8734V2.51146ZM2.74007 11.5781V4.41813H6.56674V11.5781H2.74007Z" fill="#303030"/>
</svg>
