<svg width="16" height="16" viewBox="0 0 16 16" fill="none" xmlns="http://www.w3.org/2000/svg">
<path d="M7.99994 1.34375C6.1666 1.34375 4.67327 2.83708 4.67327 4.67042V6.58375H2.7866L2.7666 14.6637H7.9866V13.7304H3.69993L3.71327 7.51708H12.2866V8.47708H13.2199V6.58375H11.3133V4.67042C11.3133 2.83708 9.81993 1.34375 7.9866 1.34375H7.99994ZM5.6066 4.66375C5.6066 3.34375 6.67993 2.27042 7.99994 2.27042C9.31993 2.27042 10.3933 3.34375 10.3933 4.66375V6.57708H5.61327V4.66375H5.6066Z" fill="#303030"/>
<path d="M8.4665 12.7632V11.2166C9.01317 11.0232 9.4065 10.5032 9.4065 9.8899C9.4065 9.1099 8.77317 8.47656 7.99317 8.47656C7.21317 8.47656 6.57983 9.1099 6.57983 9.8899C6.57983 10.5099 6.97983 11.0299 7.53317 11.2166V12.7566H8.4665V12.7632Z" fill="#303030"/>
<path d="M9.90649 9.89844V11.4584L10.9332 12.8518V14.6718H13.7465V12.8518L14.6665 11.4584V9.89844H9.90649ZM12.9665 12.3318L12.8132 12.5651V13.7318H11.8665V12.8451V12.5384L11.6865 12.2918L10.8398 11.1518V10.8318H13.7332V11.1784L12.9665 12.3318Z" fill="#303030"/>
</svg>
