<svg width="16" height="16" viewBox="0 0 16 16" fill="none" xmlns="http://www.w3.org/2000/svg">
<path d="M13.0467 8.95198L11.32 10.672L9.59335 8.94531L8.93335 9.60531L10.66 11.332L8.94002 13.052L9.60002 13.7186L11.2867 12.032L12.3333 13.072L12.3667 13.0386L13.04 13.712L13.7 13.052L11.98 11.332L13.7067 9.61198L13.0467 8.95198Z" fill="#303030"/>
<path d="M13.7334 7.98927H14.6667L14.6534 6.2826L12.9334 5.99594C12.9334 5.99594 12.9201 5.95594 12.9067 5.93594L13.9267 4.50927L11.4867 2.06927L10.0601 3.08927C10.0601 3.08927 10.0201 3.07594 10.0001 3.0626L9.7134 1.33594H6.26674L5.98007 3.0626L5.92007 3.08927L4.4934 2.06927L2.0534 4.50927L3.0734 5.93594C3.0734 5.93594 3.06007 5.97594 3.04674 5.99594L1.32007 6.2826V9.72927L3.04674 10.0159C3.04674 10.0159 3.06007 10.0559 3.0734 10.0759L2.0534 11.5026L4.4934 13.9426L5.9134 12.9226C5.9134 12.9226 5.9534 12.9359 5.9734 12.9493L6.26007 14.6759H7.9934V13.7426H7.04674L6.80007 12.2559L6.54007 12.1626C6.3734 12.1026 6.22007 12.0359 6.06674 11.9626L5.8134 11.8426L4.58674 12.7159L3.26674 11.3959L4.14007 10.1693L4.02007 9.9226C3.94674 9.76927 3.88007 9.60927 3.82007 9.44927L3.72674 9.18927L2.24007 8.9426V7.07594L3.72674 6.82927L3.82007 6.56927C3.8734 6.4026 3.94007 6.24927 4.02007 6.09594L4.14007 5.84927L3.26674 4.6226L4.58674 3.3026L5.8134 4.17594L6.06007 4.05594C6.2134 3.9826 6.3734 3.91594 6.5334 3.85594L6.7934 3.7626L7.04007 2.27594H8.90673L9.1534 3.7626L9.4134 3.85594C9.58007 3.90927 9.7334 3.9826 9.88674 4.05594L10.1334 4.17594L11.3601 3.3026L12.6801 4.6226L11.8067 5.84927L11.9267 6.09594C12.0001 6.24927 12.0667 6.40927 12.1267 6.57594L12.2201 6.83594L13.7067 7.0826V7.99594L13.7334 7.98927Z" fill="#303030"/>
<path d="M8.00684 6.59375C7.22684 6.59375 6.59351 7.23375 6.59351 8.00708C6.59351 8.78042 7.23351 9.42042 8.00684 9.42042V8.00708H9.42017C9.42017 7.22708 8.78017 6.59375 8.00684 6.59375Z" fill="#303030"/>
</svg>
