<svg width="16" height="16" viewBox="0 0 16 16" fill="none" xmlns="http://www.w3.org/2000/svg">
<path d="M14.6667 1.32812H1.33337V14.6615H14.6667V1.32812ZM13.7334 5.46812H10.5334V2.26146H13.7334V5.46146V5.46812ZM6.40004 9.59479V6.40146H9.59337V9.59479H6.40004ZM9.59337 10.5281V13.7281H6.40004V10.5281H9.59337ZM5.46671 9.59479H2.26671V6.40146H5.46671V9.59479ZM6.40004 5.46812V2.26146H9.59337V5.46146H6.40004V5.46812ZM10.5267 6.40146H13.7267V9.59479H10.5267V6.40146ZM5.46671 2.26146V5.46146H2.26671V2.26146H5.46671ZM2.26671 10.5281H5.46671V13.7281H2.26671V10.5281ZM10.5267 13.7281V10.5281H13.7267V13.7281H10.5267Z" fill="#303030"/>
</svg>
