<svg width="16" height="16" viewBox="0 0 16 16" fill="none" xmlns="http://www.w3.org/2000/svg">
<path d="M13.7334 3.39896L10.4 4.06562V4.99896L13.7334 4.33229V5.39896L10.4 6.13229V7.66563L13.7334 8.26562V9.33229L9.46671 8.39896V3.26562H1.33337V12.7323H8.93337C9.46671 12.7323 9.93337 12.3323 9.93337 11.8656V10.999C10.4667 10.999 10.9334 10.599 10.9334 10.1323V9.66563L13.8 10.2656C14.0667 10.2656 14.2667 10.2656 14.4667 10.1323C14.6667 9.99896 14.7334 9.73229 14.7334 9.53229V8.19896C14.7334 7.79896 14.4667 7.46563 14.0667 7.39896L11.4 6.93229L14.0667 6.33229C14.4 6.26562 14.6667 5.93229 14.6667 5.53229V4.19896C14.6667 3.93229 14.5334 3.73229 14.4 3.59896C14.2 3.46563 14 3.39896 13.7334 3.46562V3.39896ZM3.73337 11.799H2.26671V4.19896H3.73337V11.799ZM6.06671 8.19896V11.799H4.66671V4.19896H8.53337V8.19896H7.86671L7.00004 5.06562L6.13337 5.33229L6.93337 8.19896H6.06671ZM8.93337 11.799H7.00004V10.9323H9.00004V11.7323L8.93337 11.799ZM9.86671 10.0656H7.00004V9.13229H8.60004L9.93337 9.46562V10.0656H9.86671Z" fill="#303030"/>
</svg>
