<svg width="16" height="16" viewBox="0 0 16 16" fill="none" xmlns="http://www.w3.org/2000/svg">
<path d="M12.7533 6.09917C11.8733 6.09917 11.1333 6.70583 10.92 7.52583H10.3133C10.1266 6.5925 9.39331 5.85917 8.45997 5.67917V5.03917C9.27997 4.8325 9.88664 4.0925 9.88664 3.20583C9.88664 2.15917 9.03331 1.3125 7.99331 1.3125C6.95331 1.3125 6.09997 2.16583 6.09997 3.20583C6.09997 4.08583 6.70664 4.82583 7.52664 5.03917V5.67917C6.59331 5.86583 5.86664 6.59917 5.67997 7.52583H5.03331C4.82664 6.70583 4.08664 6.09917 3.19997 6.09917C2.15331 6.09917 1.30664 6.9525 1.30664 7.9925C1.30664 9.0325 2.15997 9.88583 3.19997 9.88583C4.07997 9.88583 4.81997 9.27917 5.03331 8.45917H5.67997C5.86664 9.3925 6.59997 10.1192 7.52664 10.3058V10.9325C6.70664 11.1392 6.09997 11.8792 6.09997 12.7658C6.09997 13.8125 6.95331 14.6592 7.99331 14.6592C9.03331 14.6592 9.88664 13.8058 9.88664 12.7658C9.88664 11.8792 9.27997 11.1458 8.45997 10.9325V10.3058C9.39331 10.1192 10.1266 9.38583 10.3133 8.45917H10.92C11.1266 9.27917 11.8666 9.88583 12.7533 9.88583C13.8 9.88583 14.6466 9.0325 14.6466 7.9925C14.6466 6.9525 13.7933 6.09917 12.7533 6.09917ZM3.19997 8.95917C2.66664 8.95917 2.23997 8.52583 2.23997 7.99917C2.23997 7.4725 2.67331 7.03917 3.19997 7.03917C3.72664 7.03917 4.15997 7.4725 4.15997 7.99917C4.15997 8.52583 3.72664 8.95917 3.19997 8.95917ZM7.03331 3.20583C7.03331 2.6725 7.46664 2.24583 7.99331 2.24583C8.51997 2.24583 8.95331 2.67917 8.95331 3.20583C8.95331 3.7325 8.51997 4.16583 7.99331 4.16583C7.46664 4.16583 7.03331 3.7325 7.03331 3.20583ZM8.95997 12.7725C8.95997 13.3058 8.52664 13.7325 7.99997 13.7325C7.47331 13.7325 7.03997 13.2992 7.03997 12.7725C7.03997 12.2458 7.47331 11.8125 7.99997 11.8125C8.52664 11.8125 8.95997 12.2458 8.95997 12.7725ZM7.99331 9.42583C7.20664 9.42583 6.55997 8.78583 6.55997 7.9925C6.55997 7.19917 7.19997 6.55917 7.99331 6.55917C8.78664 6.55917 9.42664 7.19917 9.42664 7.9925C9.42664 8.78583 8.78664 9.42583 7.99331 9.42583ZM12.7533 8.95917C12.22 8.95917 11.7933 8.52583 11.7933 7.99917C11.7933 7.4725 12.2266 7.03917 12.7533 7.03917C13.28 7.03917 13.7133 7.4725 13.7133 7.99917C13.7133 8.52583 13.28 8.95917 12.7533 8.95917Z" fill="#303030"/>
</svg>
