<svg width="16" height="16" viewBox="0 0 16 16" fill="none" xmlns="http://www.w3.org/2000/svg">
<path d="M10.2134 5.17969C9.59338 5.17969 9.09338 5.67969 9.09338 6.29969C9.09338 6.91969 9.59338 7.41969 10.2134 7.41969C10.8334 7.41969 11.3334 6.91969 11.3334 6.29969C11.3334 5.67969 10.8334 5.17969 10.2134 5.17969Z" fill="#303030"/>
<path d="M6.84669 6.29969C6.84669 5.67969 6.34669 5.17969 5.72669 5.17969C5.10669 5.17969 4.60669 5.67969 4.60669 6.29969C4.60669 6.91969 5.10669 7.41969 5.72669 7.41969C6.34669 7.41969 6.84669 6.91969 6.84669 6.29969Z" fill="#303030"/>
<path d="M8.00004 1.33594C4.31337 1.33594 1.33337 4.31594 1.33337 8.0026C1.33337 11.6893 4.32004 14.6693 8.00004 14.6693C11.68 14.6693 14.6667 11.6826 14.6667 8.0026C14.6667 4.3226 11.6867 1.33594 8.00004 1.33594ZM8.00004 13.7359C4.84004 13.7359 2.26671 11.1626 2.26671 8.0026C2.26671 4.8426 4.84004 2.26927 8.00004 2.26927C11.16 2.26927 13.7334 4.8426 13.7334 8.0026C13.7334 11.1626 11.16 13.7359 8.00004 13.7359Z" fill="#303030"/>
<path d="M5.14001 9.91406H10.8533V10.8474H5.14001V9.91406Z" fill="#303030"/>
</svg>
