<svg width="16" height="16" viewBox="0 0 16 16" fill="none" xmlns="http://www.w3.org/2000/svg">
<path d="M2.23342 8.00146C2.23342 9.59479 2.88009 11.0348 3.92675 12.0815L1.34009 14.6748L8.38009 13.7548C11.3868 13.5615 13.7801 11.0615 13.7801 8.00146C13.7801 6.40813 13.1334 4.96813 12.0868 3.92146L14.6734 1.32812L7.63342 2.24812C4.62009 2.44813 2.23342 4.94813 2.23342 8.00146ZM12.8334 8.00146C12.8334 10.6681 10.6668 12.8348 8.00009 12.8348C5.33342 12.8348 3.16675 10.6681 3.16675 8.00146C3.16675 5.33479 5.33342 3.16813 8.00009 3.16813C10.6668 3.16813 12.8334 5.33479 12.8334 8.00146Z" fill="#303030"/>
</svg>
