<svg width="16" height="16" viewBox="0 0 16 16" fill="none" xmlns="http://www.w3.org/2000/svg">
<path d="M12.3646 4.10813L11.4712 4.09479C11.4446 3.56146 11.0512 3.13479 10.5712 3.13479H9.5779C9.5579 2.60812 9.16456 2.18146 8.69123 2.18146H7.69123C7.63123 1.69479 7.26456 1.32812 6.8179 1.32812H5.70456C5.25123 1.32812 4.8779 1.74146 4.8779 2.24812V5.87479C4.68456 5.72146 4.4579 5.64146 4.21123 5.64146H3.9579C3.6379 5.64146 3.34456 5.78146 3.12456 6.04146C2.8579 6.35479 2.7379 6.80813 2.81123 7.25479L3.6979 12.3681V14.6748H13.2179V12.2748H13.2246V5.09479C13.2246 4.81479 13.1179 4.54146 12.9312 4.35479C12.7712 4.19479 12.5646 4.10813 12.3512 4.10813H12.3646ZM3.84456 6.64146C3.84456 6.64146 3.9179 6.56813 3.97123 6.56813H4.22456C4.2779 6.56813 4.35123 6.62146 4.3979 6.70813L4.89123 7.32146V8.92813H5.82456V7.24146V2.26146H6.76456C6.76456 2.26146 6.77123 2.29479 6.77123 2.31479V4.64812V7.52813H7.70456V4.64812H7.69123C7.69123 4.64812 7.6979 4.61479 7.6979 4.58813V4.52146C7.7179 4.32812 7.7179 4.04146 7.72456 3.62813C7.72456 3.44813 7.72456 3.27479 7.73123 3.12146H8.63123C8.63123 3.12146 8.64456 3.16146 8.64456 3.18813V3.54813V7.52813H9.5779V4.06812L10.5046 4.05479C10.5046 4.05479 10.5312 4.09479 10.5312 4.15479V4.18813V7.54146H11.4646V5.03479L12.2912 5.04813C12.2912 5.04813 12.2979 5.08146 12.2979 5.10146V11.3348H4.47123L3.7379 7.10813C3.70456 6.90146 3.77123 6.74146 3.84456 6.65479V6.64146ZM12.2912 13.7348H4.6379V12.2615H12.2912V13.7348Z" fill="#303030"/>
</svg>
