<svg width="16" height="16" viewBox="0 0 16 16" fill="none" xmlns="http://www.w3.org/2000/svg">
<path d="M10.04 7.81271C10.5 7.46604 10.7267 6.97271 10.7267 6.33271C10.7267 5.72604 10.5134 5.24604 10.0867 4.89271C9.66003 4.53937 9.03336 4.35938 8.20003 4.35938H5.78003V11.4594H6.8467V8.33938H8.13336L9.8667 11.4594H10.96L9.1467 8.23271C9.48003 8.14604 9.78003 8.01271 10.04 7.81938V7.81271ZM6.85336 5.25937H8.28003C8.73336 5.25937 9.07336 5.35937 9.3067 5.55937C9.54003 5.75937 9.66003 6.02604 9.66003 6.35271C9.66003 6.69938 9.54003 6.97271 9.3067 7.17271C9.07336 7.37271 8.7267 7.47271 8.28003 7.47271H6.85336V5.26604V5.25937Z" fill="#303030"/>
<path d="M13.6867 4.71698C13.1133 3.74365 12.3333 2.97698 11.3333 2.41698C10.3333 1.85698 9.24 1.57031 8.04666 1.57031C6.85333 1.57031 5.67333 1.85031 4.66666 2.41698C3.66 2.98365 2.86666 3.75031 2.28666 4.71698C1.70666 5.69031 1.41333 6.77031 1.41333 7.97031C1.41333 9.17031 1.70666 10.3103 2.28666 11.297C2.86666 12.2836 3.66 13.0636 4.66666 13.637C5.67333 14.2103 6.8 14.497 8.04666 14.497C9.29333 14.497 10.34 14.2103 11.3333 13.637C12.3333 13.0636 13.1133 12.2836 13.6867 11.297C14.26 10.3103 14.5467 9.19698 14.5467 7.97031C14.5467 6.74365 14.26 5.69031 13.6867 4.71698ZM12.9 10.8636C12.42 11.7236 11.76 12.4036 10.9133 12.9036C10.0667 13.4036 9.11333 13.657 8.05333 13.657C6.94666 13.657 5.96 13.417 5.1 12.9303C4.24 12.4436 3.57333 11.7703 3.08666 10.9036C2.6 10.037 2.36 9.05698 2.36 7.96365C2.36 6.87031 2.60666 5.97698 3.1 5.11698C3.59333 4.25698 4.27333 3.59031 5.14 3.11698C6.00666 2.64365 6.98 2.40365 8.05333 2.40365C9.12666 2.40365 10.0867 2.64365 10.9267 3.11698C11.7667 3.59698 12.4267 4.25698 12.9 5.10365C13.3733 5.95031 13.6133 6.90365 13.6133 7.96365C13.6133 9.02365 13.3733 10.0036 12.9 10.8636Z" fill="#303030"/>
</svg>
