<svg width="16" height="16" viewBox="0 0 16 16" fill="none" xmlns="http://www.w3.org/2000/svg">
<path d="M10.1844 1.32812C7.30436 2.44146 5.79769 4.39479 6.06436 7.19479C5.27769 6.98146 4.63769 6.55479 4.03769 5.82812C1.89769 10.9815 3.96436 14.4615 7.99769 14.6881C11.7844 14.6881 14.471 10.8415 11.671 7.20146C10.0777 5.13479 9.85769 4.24146 10.1844 1.33479V1.32812ZM11.571 11.6948C10.9577 12.9348 9.57103 13.7415 8.02436 13.7548C6.51769 13.6615 5.37769 13.0681 4.72436 12.0281C4.01103 10.8948 3.92436 9.30812 4.45103 7.47479C4.87103 7.76146 5.32436 7.96146 5.82436 8.10146L7.12436 8.45479L6.99769 7.11479C6.82436 5.27479 7.52436 3.88146 9.13103 2.88146C9.07103 4.87479 9.53103 5.94812 10.931 7.76813C11.9444 9.08146 12.171 10.4815 11.571 11.6948Z" fill="#303030"/>
</svg>
