<svg width="16" height="16" viewBox="0 0 16 16" fill="none" xmlns="http://www.w3.org/2000/svg">
<path d="M6.08006 14.6571H9.90006H13.2534V13.7237H11.7867V11.3304C11.7867 9.89708 10.9867 8.65042 9.81339 8.00375C10.9934 7.35708 11.7934 6.10375 11.7934 4.67042V2.27708H13.2201V1.34375H2.76672V2.27708H4.20672V4.67042C4.20672 6.10375 5.00672 7.35042 6.18006 7.99708C5.00006 8.64375 4.20006 9.89708 4.20006 11.3304V13.7237H2.77339V14.6571H6.09339H6.08006ZM5.14006 4.67042V2.27708H10.8667V4.67042C10.8667 6.24375 9.58672 7.53042 8.01339 7.53042H8.00006C6.42672 7.52375 5.15339 6.24375 5.15339 4.67042H5.14006ZM5.12672 13.7171V11.3237C5.12672 9.75042 6.40672 8.46375 7.98006 8.46375H7.99339C9.56672 8.47042 10.8401 9.75042 10.8401 11.3237V13.7171H9.88672V12.7504C9.88672 11.6971 9.03339 10.8437 7.98006 10.8437C6.92672 10.8437 6.07339 11.6971 6.07339 12.7504V13.7171H5.12006H5.12672Z" fill="#303030"/>
<path d="M9.90008 4.96427V3.71094H6.08008V4.96427C6.08008 6.0176 6.93341 6.87094 7.98674 6.87094C9.04008 6.87094 9.89341 6.0176 9.89341 4.96427H9.90008Z" fill="#303030"/>
</svg>
