<svg width="16" height="16" viewBox="0 0 16 16" fill="none" xmlns="http://www.w3.org/2000/svg">
<path d="M5.87662 14.6348V9.28146L1.82996 3.84812V1.32812H13.2233V3.84812L9.16996 9.28146V9.37479H8.23662V8.97479L12.29 3.54146V2.26146H2.76329V3.54146L6.80996 8.97479V13.7015H8.45662L8.46329 14.6281H5.87662V14.6348ZM9.99662 12.0148C10.25 12.0148 10.3833 11.9148 10.3766 11.6415L10.33 10.7548C10.3033 10.2415 10.6433 9.91479 11.1433 9.91479H11.6033V10.4948H11.37C11.17 10.4948 11.0766 10.5948 11.0766 10.7881V11.5548C11.0766 12.0348 10.8566 12.2281 10.5766 12.3015C10.85 12.3748 11.0766 12.5748 11.0766 13.0548V13.8015C11.0766 14.0015 11.1766 14.0948 11.37 14.0948H11.6033V14.6748H11.1433C10.6433 14.6748 10.3033 14.3481 10.33 13.8348L10.3766 12.9615C10.3833 12.6881 10.2566 12.5948 9.99662 12.5948H9.86996V12.0148H9.99662ZM12.43 9.91479H12.89C13.39 9.91479 13.7366 10.2415 13.7033 10.7548L13.6566 11.6415C13.6433 11.9148 13.7766 12.0148 14.0366 12.0148H14.1633V12.5948H14.0366C13.7833 12.5948 13.65 12.6948 13.6566 12.9615L13.7033 13.8348C13.73 14.3481 13.39 14.6748 12.89 14.6748H12.43V14.0948H12.6633C12.8633 14.0948 12.9566 13.9948 12.9566 13.8015V13.0548C12.9566 12.5681 13.1766 12.3748 13.4566 12.3015C13.1833 12.2281 12.9566 12.0348 12.9566 11.5548V10.7881C12.9566 10.5881 12.8566 10.4948 12.6633 10.4948H12.43V9.91479Z" fill="#303030"/>
</svg>
