<svg width="16" height="16" viewBox="0 0 16 16" fill="none" xmlns="http://www.w3.org/2000/svg">
<path d="M13.6866 10.8771V8.00375H9.43327V4.69708H6.57994V8.00375H2.31327V10.8771H1.35327V14.6637H14.6533V10.8771H13.6866ZM7.51327 5.63042H8.49327V8.00375H7.51327V5.63042ZM3.2466 8.93042H12.7599V10.8704H3.2466V8.93042ZM13.7199 13.7238H2.27994V11.8038H13.7133V13.7238H13.7199ZM8.01994 1.34375C8.01994 1.34375 6.89327 2.48375 6.89327 3.10375C6.89327 3.72375 7.39994 4.23042 8.01994 4.23042C8.63994 4.23042 9.14661 3.72375 9.14661 3.10375C9.14661 2.48375 8.01994 1.34375 8.01994 1.34375Z" fill="#303030"/>
</svg>
