<svg width="16" height="16" viewBox="0 0 16 16" fill="none" xmlns="http://www.w3.org/2000/svg">
<path d="M1.33325 14.6693H14.6666V1.33594H1.33325V14.6693ZM2.26659 2.26927H13.7333V13.7359H2.26659V2.26927Z" fill="#303030"/>
<path d="M4.54664 12.2861C5.00319 12.2861 5.3733 11.916 5.3733 11.4595C5.3733 11.0029 5.00319 10.6328 4.54664 10.6328C4.09008 10.6328 3.71997 11.0029 3.71997 11.4595C3.71997 11.916 4.09008 12.2861 4.54664 12.2861Z" fill="#303030"/>
<path d="M3.71313 7.25V8.18333C5.97313 8.18333 7.81314 10.0233 7.81314 12.2833H8.74647C8.74647 9.51 6.48647 7.25 3.71313 7.25Z" fill="#303030"/>
<path d="M3.71313 3.71875V4.65208C7.92647 4.65208 11.3531 8.07875 11.3531 12.2921H12.2865C12.2865 7.56542 8.4398 3.71875 3.71313 3.71875Z" fill="#303030"/>
</svg>
