<svg width="16" height="16" viewBox="0 0 16 16" fill="none" xmlns="http://www.w3.org/2000/svg">
<path d="M14.7468 14.6371L13.0601 4.67042H10.8334V4.17708C10.8334 2.61708 9.5601 1.34375 8.0001 1.34375C6.4401 1.34375 5.16677 2.61708 5.16677 4.17708V4.67042H2.94677L1.27344 14.6371H14.7401H14.7468ZM6.1001 4.17708C6.1001 3.13042 6.95344 2.27708 8.0001 2.27708C9.04677 2.27708 9.9001 3.13042 9.9001 4.17708V4.67042H6.10677V4.17708H6.1001ZM3.7401 5.60375H5.16677V7.03708H6.1001V5.60375H9.89344V7.04375H10.8268V5.60375H12.2668L13.6401 13.7037H2.3801L3.7401 5.60375Z" fill="#303030"/>
</svg>
