<svg width="16" height="16" viewBox="0 0 16 16" fill="none" xmlns="http://www.w3.org/2000/svg">
<path d="M14.3068 14.6394L13.8534 14.6194C6.16009 14.266 2.20009 10.3127 1.38675 2.17938L1.34009 1.69938L6.43342 1.35938L7.40675 4.33271L5.94675 5.81271C6.68676 7.87271 8.08009 9.25271 10.1868 10.046L11.6668 8.59271L14.6401 9.56604L14.3001 14.6327L14.3068 14.6394ZM2.36675 2.56604C3.22009 9.76604 6.65342 13.206 13.4334 13.6594L13.6601 10.2327L11.9134 9.66604L10.4268 11.1327L10.1534 11.0394C7.53342 10.146 5.79342 8.39938 4.96675 5.84604L4.88009 5.57938L6.34009 4.09271L5.76675 2.34604L2.36009 2.57271L2.36675 2.56604Z" fill="#303030"/>
</svg>
