<svg width="16" height="16" viewBox="0 0 16 16" fill="none" xmlns="http://www.w3.org/2000/svg">
<path d="M12.53 14.6394L10.93 7.03938H8.51664V5.54604C9.3433 5.33938 9.95664 4.59271 9.95664 3.70604C9.95664 2.65271 9.1033 1.79938 8.04997 1.79938C6.99664 1.79938 6.1433 2.65271 6.1433 3.70604C6.1433 4.59938 6.75664 5.33938 7.5833 5.54604V7.03938H5.07664L3.46997 14.6394H12.53ZM7.0833 3.70604C7.0833 3.17271 7.51664 2.73271 8.05664 2.73271C8.59664 2.73271 9.02997 3.16604 9.02997 3.70604C9.02997 4.24604 8.59664 4.67938 8.05664 4.67938C7.51664 4.67938 7.0833 4.24604 7.0833 3.70604ZM5.8433 7.97271H10.1833L11.39 13.706H4.62997L5.8433 7.97271ZM4.7433 1.35938C4.11664 1.98604 3.76997 2.81938 3.76997 3.69938C3.76997 4.57938 4.11664 5.41937 4.7433 6.04604L5.4033 5.38604C4.94997 4.93271 4.7033 4.33938 4.7033 3.69938C4.7033 3.05938 4.94997 2.46604 5.4033 2.01938L4.7433 1.35938ZM11.3566 6.05271C11.9833 5.42604 12.33 4.59271 12.33 3.70604C12.33 2.81938 11.9833 1.99271 11.3566 1.36604L10.6966 2.02604C11.1433 2.47271 11.3966 3.07271 11.3966 3.70604C11.3966 4.33938 11.15 4.93938 10.6966 5.39271L11.3566 6.05271Z" fill="#303030"/>
</svg>
