<svg width="16" height="16" viewBox="0 0 16 16" fill="none" xmlns="http://www.w3.org/2000/svg">
<path d="M5.85006 14.6504H8.36339V13.7171H6.78339V8.99042L2.73673 3.55708V2.27708H12.2701V3.55708L8.21673 8.99042V9.41708H9.15006V9.29708L13.2034 3.87042V1.34375H1.81006V3.87042L5.85006 9.29708V14.6504ZM12.2634 9.41708C11.4834 9.41708 10.8434 10.0571 10.8434 10.8371V11.4704H10.3567V14.1704H14.1767V11.4704H13.6834V10.8371C13.6834 10.0571 13.0434 9.41708 12.2634 9.41708ZM11.7834 10.8371C11.7834 10.5704 12.0034 10.3504 12.2701 10.3504C12.5367 10.3504 12.7567 10.5704 12.7567 10.8371V11.4704H11.7834V10.8371Z" fill="#303030"/>
</svg>
