<svg width="16" height="16" viewBox="0 0 16 16" fill="none" xmlns="http://www.w3.org/2000/svg">
<path d="M11.5766 5.41688C11.3366 3.65688 9.84331 2.29688 8.02331 2.29688C6.20331 2.29688 4.70998 3.65688 4.46998 5.41688C2.71664 5.64354 1.34998 7.13021 1.34998 8.95021C1.34998 10.7702 2.56998 12.1169 4.19664 12.4569V11.4902C3.09664 11.1702 2.28331 10.1569 2.28331 8.95021C2.28331 7.63688 3.27664 6.51021 4.58998 6.34354L5.30331 6.25021L5.39664 5.53688C5.56998 4.22354 6.70331 3.23021 8.02331 3.23021C9.34331 3.23021 10.47 4.22354 10.65 5.53688L10.7433 6.23688L11.4433 6.33688C12.7433 6.52354 13.7233 7.64354 13.7233 8.95021C13.7233 10.1569 12.9166 11.1769 11.81 11.4902V12.4569C13.4366 12.1169 14.6566 10.6702 14.6566 8.95021C14.6566 7.14354 13.3166 5.66354 11.5766 5.41688ZM7.99664 8.03021L10.5033 10.5369L9.84998 11.1902L8.45664 9.79688L8.46998 13.6902H7.54998L7.53664 9.79021L6.13664 11.1902L5.48331 10.5369L7.98997 8.03021H7.99664Z" fill="#303030"/>
</svg>
