<svg width="16" height="16" viewBox="0 0 16 16" fill="none" xmlns="http://www.w3.org/2000/svg">
<path d="M12.7333 5.22885V3.25552H10.4133L7.99333 1.24219L5.55333 3.25552H3.24666V5.22885L1.32666 6.80219V14.6555H14.6467V6.80219L12.7267 5.22219L12.7333 5.22885ZM13.4667 7.03552L12.74 7.47552V6.43552L13.4667 7.03552ZM7.99333 2.44885L8.95333 3.24885H7.01999L7.98666 2.44885H7.99333ZM11.8 4.18885V8.03552L7.95333 10.3489L4.18666 8.04885V4.18885H11.8ZM3.25333 7.47552L2.52666 7.02885L3.25333 6.42885V7.47552ZM2.26666 13.7289V7.96885L7.95333 11.4355L13.72 7.96885V13.7289H2.26666Z" fill="#303030"/>
<path d="M7.54001 7.52594C7.54001 7.39927 7.56668 7.28594 7.62001 7.18594C7.67335 7.08594 7.73335 6.9926 7.81335 6.91927C7.89335 6.84594 7.98668 6.75927 8.10668 6.65927C8.24668 6.54594 8.34668 6.4526 8.41335 6.37927C8.48001 6.30594 8.50668 6.21927 8.50668 6.11927C8.50668 6.01927 8.47335 5.9526 8.40001 5.89927C8.33335 5.84594 8.23335 5.81927 8.10001 5.81927C7.91335 5.81927 7.77335 5.8726 7.68668 5.96594C7.59335 6.06594 7.54668 6.20594 7.54001 6.38594H6.64001C6.64001 6.12594 6.70668 5.8926 6.83335 5.69927C6.96001 5.50594 7.14001 5.3526 7.37335 5.24594C7.60668 5.13927 7.87335 5.08594 8.18001 5.08594C8.58001 5.08594 8.88001 5.1726 9.09335 5.33927C9.30668 5.50594 9.40668 5.73927 9.40668 6.01927C9.40668 6.16594 9.38001 6.29927 9.32668 6.41927C9.27335 6.53927 9.20668 6.63927 9.12668 6.7326C9.04668 6.81927 8.94668 6.91927 8.82668 7.02594C8.74001 7.10594 8.66668 7.16594 8.62001 7.21927C8.57335 7.2726 8.53335 7.32594 8.50001 7.3926C8.46668 7.45927 8.44668 7.51927 8.44668 7.57927V7.64594H7.54668V7.52594H7.54001ZM7.54001 8.97927V8.00594H8.48668V8.97927H7.54001Z" fill="#303030"/>
</svg>
