<svg width="16" height="16" viewBox="0 0 16 16" fill="none" xmlns="http://www.w3.org/2000/svg">
<path d="M8.64328 12.7142L9.66994 11.6875L9.00994 11.0275L7.98328 12.0542C6.86994 13.1608 5.06994 13.1608 3.95661 12.0542C3.41661 11.5142 3.12327 10.8008 3.12327 10.0408C3.12327 9.28083 3.41661 8.5675 3.95661 8.0275L4.97661 7.00083L4.31661 6.34083L3.29661 7.36083C2.58327 8.07417 2.18994 9.02083 2.18994 10.0342C2.18994 11.0475 2.58327 11.9942 3.29661 12.7075C4.03661 13.4408 5.00327 13.8142 5.96994 13.8142C6.93661 13.8142 7.90328 13.4475 8.64328 12.7075V12.7142ZM8.02994 3.95417C8.56994 3.41417 9.28328 3.12083 10.0433 3.12083C10.8033 3.12083 11.5166 3.41417 12.0566 3.95417C13.1633 5.06083 13.1633 6.8675 12.0566 7.98083L11.0299 9.0075L11.6899 9.6675L12.7166 8.64083C14.1899 7.1675 14.1899 4.7675 12.7166 3.29417C12.0033 2.58083 11.0566 2.1875 10.0433 2.1875C9.02994 2.1875 8.08328 2.58083 7.36994 3.29417L6.34328 4.32083L7.00327 4.98083L8.02994 3.95417ZM6.30994 10.3675L5.64994 9.7075L9.69661 5.66083L10.3566 6.32083L6.30994 10.3675Z" fill="#303030"/>
</svg>
