<svg width="16" height="16" viewBox="0 0 16 16" fill="none" xmlns="http://www.w3.org/2000/svg">
<path d="M12.35 5.30813C13.15 5.02813 13.73 4.27479 13.73 3.38146C13.73 2.24813 12.81 1.32812 11.6766 1.32812C10.5433 1.32812 9.62329 2.24813 9.62329 3.38146C9.62329 4.17479 10.0833 4.85479 10.7433 5.20146C10.0166 5.32813 9.34329 5.68146 8.84329 6.23479L9.52996 6.86146C9.98996 6.36146 10.6433 6.07479 11.33 6.07479C12.6633 6.07479 13.7433 7.13479 13.7433 8.44146H14.6766C14.6766 6.97479 13.6966 5.74146 12.35 5.31479V5.30813ZM11.67 2.25479C12.29 2.25479 12.79 2.75479 12.79 3.37479C12.79 3.99479 12.29 4.49479 11.67 4.49479C11.05 4.49479 10.55 3.99479 10.55 3.37479C10.55 2.75479 11.05 2.25479 11.67 2.25479ZM1.33662 8.43479H2.26996C2.26996 7.12813 3.34996 6.06813 4.68329 6.06813C5.36996 6.06813 6.02329 6.35479 6.48329 6.85479L7.16996 6.22813C6.67662 5.68813 6.00996 5.32813 5.28996 5.20146C5.94996 4.86146 6.40996 4.17479 6.40996 3.38146C6.40996 2.24813 5.48996 1.32812 4.35662 1.32812C3.22329 1.32812 2.30329 2.24813 2.30329 3.38146C2.30329 4.26813 2.87662 5.02146 3.66996 5.30813C2.31662 5.73479 1.32996 6.96813 1.32996 8.44146L1.33662 8.43479ZM3.24329 3.37479C3.24329 2.75479 3.74329 2.25479 4.36329 2.25479C4.98329 2.25479 5.48329 2.75479 5.48329 3.37479C5.48329 3.99479 4.98329 4.49479 4.36329 4.49479C3.74329 4.49479 3.24329 3.99479 3.24329 3.37479ZM10.01 10.0415C10.01 8.90813 9.08996 7.98812 7.95662 7.98812C6.82329 7.98812 5.90329 8.90813 5.90329 10.0415C5.90329 10.6881 6.20996 11.2548 6.67662 11.6348C5.47662 12.1415 4.63662 13.3081 4.63662 14.6748H5.56996C5.56996 13.3681 6.64996 12.3081 7.98329 12.3081C9.31662 12.3081 10.3966 13.3681 10.3966 14.6748H11.33C11.33 13.2948 10.47 12.1148 9.24996 11.6215C9.70996 11.2415 10.0033 10.6815 10.0033 10.0415H10.01ZM7.95662 8.92146C8.57662 8.92146 9.07662 9.42146 9.07662 10.0415C9.07662 10.6615 8.57662 11.1615 7.95662 11.1615C7.33662 11.1615 6.83662 10.6615 6.83662 10.0415C6.83662 9.42146 7.33662 8.92146 7.95662 8.92146Z" fill="#303030"/>
</svg>
