<svg width="16" height="16" viewBox="0 0 16 16" fill="none" xmlns="http://www.w3.org/2000/svg">
<path d="M11.3133 12.6437L11.98 13.3104C10.8667 14.1437 9.48668 14.6437 7.99335 14.6437V13.7104C9.23335 13.7104 10.38 13.3171 11.3133 12.6437ZM14.64 7.99708C14.64 5.61708 13.38 3.45708 11.36 2.27708H13.6933V1.34375H9.91335V5.16375H10.8467V3.05708C12.6 4.07042 13.7067 5.93708 13.7067 7.99708C13.7067 9.24375 13.3 10.3971 12.62 11.3371L4.65335 3.37042C5.59335 2.69042 6.74001 2.28375 7.99335 2.28375V1.35042C6.49335 1.35042 5.10668 1.85708 3.99335 2.70375L2.68001 1.39042L2.02001 2.05042L13.9333 13.9638L14.5933 13.3037L13.28 11.9904C14.1267 10.8771 14.6333 9.49042 14.6333 7.99042L14.64 7.99708ZM5.13335 12.9304C3.38668 11.9171 2.28001 10.0437 2.28001 7.99708C2.28001 6.76375 2.67335 5.61042 3.34668 4.67708L2.68001 4.01042C1.84668 5.12375 1.34668 6.50375 1.34668 7.99708C1.34668 10.3571 2.61335 12.5238 4.62001 13.7104H2.29335V14.6437H6.06668V10.8171H5.13335V12.9304Z" fill="#303030"/>
</svg>
