<svg width="16" height="16" viewBox="0 0 16 16" fill="none" xmlns="http://www.w3.org/2000/svg">
<path d="M8 10.8516H14.66V11.7849H8V10.8516Z" fill="#303030"/>
<path d="M1.38 12.787C1.38 13.8336 2.23334 14.6803 3.27334 14.6803C4.31334 14.6803 5.16667 13.827 5.16667 12.787C5.16667 12.427 5.06 12.0936 4.88667 11.807L10.4467 6.24698C10.7333 6.42031 11.0667 6.52698 11.4267 6.52698C12.4733 6.52698 13.32 5.67365 13.32 4.63365C13.32 3.59365 12.4667 2.74031 11.4267 2.74031C10.3867 2.74031 9.53334 3.59365 9.53334 4.63365C9.53334 4.98031 9.63334 5.30031 9.8 5.58031L4.22667 11.1536C4.08 11.067 3.92 11.0003 3.74667 10.9536V5.04698C4.56667 4.84031 5.17334 4.10031 5.17334 3.21365C5.17334 2.16698 4.32 1.32031 3.28 1.32031C2.24 1.32031 1.38667 2.17365 1.38667 3.21365C1.38667 4.09365 1.99334 4.83365 2.81334 5.04698V10.9603C1.99334 11.167 1.38667 11.907 1.38667 12.7936L1.38 12.787ZM3.27334 13.7536C2.74 13.7536 2.31334 13.3203 2.31334 12.7936C2.31334 12.267 2.74667 11.8336 3.27334 11.8336C3.8 11.8336 4.23334 12.267 4.23334 12.7936C4.23334 13.3203 3.8 13.7536 3.27334 13.7536ZM11.4267 3.67365C11.96 3.67365 12.3867 4.10698 12.3867 4.63365C12.3867 5.16031 11.9533 5.59365 11.4267 5.59365C10.9 5.59365 10.4667 5.16031 10.4667 4.63365C10.4667 4.10698 10.9 3.67365 11.4267 3.67365ZM2.31334 3.21365C2.31334 2.68031 2.74667 2.25365 3.27334 2.25365C3.8 2.25365 4.23334 2.68698 4.23334 3.21365C4.23334 3.74031 3.8 4.17365 3.27334 4.17365C2.74667 4.17365 2.31334 3.74031 2.31334 3.21365Z" fill="#303030"/>
</svg>
