<svg width="16" height="16" viewBox="0 0 16 16" fill="none" xmlns="http://www.w3.org/2000/svg">
<path d="M14.6734 8.80583V7.8725H13.2067C13.1667 7.1925 13.0401 6.5325 12.8267 5.90583L14.3467 5.18583L13.9467 4.33917L12.4667 5.03917C12.3267 4.75917 12.1667 4.4925 11.9934 4.2325V4.21917L11.8067 3.96583C11.5867 3.6725 11.3401 3.4125 11.0801 3.17917L12.1201 1.89917L11.3934 1.3125L10.3267 2.62583C9.6134 2.1925 8.82007 1.94583 8.00674 1.94583C7.82674 1.94583 7.64673 1.95917 7.46673 1.97917C6.8334 2.05917 6.22674 2.28583 5.66007 2.6325L4.7534 1.35917L3.9934 1.89917L4.9134 3.18583C4.66007 3.41917 4.42007 3.6725 4.20007 3.95917L4.00674 4.2125V4.22583C3.84007 4.47917 3.68007 4.7525 3.54007 5.0325L2.0334 4.31917L1.6334 5.16583L3.18674 5.89917C2.98007 6.5125 2.8534 7.1725 2.8134 7.84583H1.32007V8.77917H2.82007C2.86007 9.4325 2.98007 10.0525 3.16674 10.6325L1.82674 11.3592L2.2734 12.1792L3.5134 11.5058C4.42007 13.4058 6.0934 14.6858 8.02007 14.6858C9.94673 14.6858 11.6134 13.4125 12.5201 11.5192L13.7334 12.1792L14.1801 11.3592L12.8734 10.6525C13.0667 10.0658 13.1801 9.43917 13.2201 8.77917H14.6867V8.80583H14.6734ZM8.4334 2.91917C8.48007 2.91917 8.52007 2.9325 8.56674 2.93917C8.66007 2.9525 8.7534 2.9725 8.84007 2.9925C8.8934 3.00583 8.94007 3.01917 8.9934 3.03917C9.0734 3.06583 9.16007 3.08583 9.24007 3.11917C9.2934 3.13917 9.34007 3.15917 9.3934 3.18583C9.4734 3.21917 9.54673 3.2525 9.62673 3.2925C9.68007 3.31917 9.72674 3.34583 9.7734 3.37917C9.84674 3.41917 9.92007 3.46583 9.9934 3.5125C10.0401 3.54583 10.0867 3.57917 10.1401 3.6125C10.2134 3.66583 10.2801 3.71917 10.3467 3.7725C10.3934 3.8125 10.4401 3.8525 10.4867 3.8925C10.5534 3.9525 10.6134 4.0125 10.6801 4.07917C10.7267 4.12583 10.7734 4.1725 10.8134 4.21917C10.8334 4.23917 10.8467 4.26583 10.8667 4.28583C10.2201 5.1525 9.16007 5.68583 8.02007 5.68583C6.88007 5.68583 5.82007 5.15917 5.16674 4.2925C5.18674 4.2725 5.20007 4.2525 5.22007 4.22583C5.26674 4.1725 5.3134 4.12583 5.36674 4.0725C5.42674 4.0125 5.48673 3.9525 5.54673 3.89917C5.5934 3.8525 5.64674 3.8125 5.70007 3.76583C5.76674 3.7125 5.82674 3.65917 5.8934 3.6125C5.94674 3.5725 6.00007 3.53917 6.0534 3.49917C6.12007 3.4525 6.1934 3.4125 6.26007 3.3725C6.3134 3.33917 6.36674 3.3125 6.42007 3.27917C6.4934 3.23917 6.56674 3.20583 6.64007 3.17917C6.6934 3.1525 6.74673 3.1325 6.80007 3.1125L7.04007 3.0325C7.0934 3.01917 7.14673 2.99917 7.1934 2.98583C7.28007 2.96583 7.3734 2.94583 7.46673 2.9325C7.5134 2.92583 7.56007 2.9125 7.60007 2.90583C7.74007 2.88583 7.8734 2.87917 8.0134 2.87917C8.1534 2.87917 8.2934 2.88583 8.42673 2.90583V2.91917H8.4334ZM3.74007 8.33917C3.74007 7.14583 4.04674 6.0125 4.60673 5.0725C5.34007 5.92583 6.40007 6.4725 7.54674 6.5925V13.7458C5.40674 13.4458 3.74007 11.1392 3.74007 8.33917ZM8.48007 13.7525V6.59917C9.6334 6.47917 10.6934 5.9325 11.4267 5.0725C11.9867 6.0125 12.3001 7.14583 12.3001 8.33917C12.3001 11.1392 10.6267 13.4525 8.48674 13.7525H8.48007Z" fill="#303030"/>
</svg>
