<svg width="16" height="16" viewBox="0 0 16 16" fill="none" xmlns="http://www.w3.org/2000/svg">
<path d="M3.23992 2.74927H12.7599V3.23594H14.6666V1.33594H12.7599V1.81594H3.23992V1.33594H1.33325V3.23594H3.23992V2.74927Z" fill="#303030"/>
<path d="M1.81992 3.23438V12.761H1.33325V14.6677H3.23992V14.181H12.7599V14.6677H14.6666V12.761H14.1799V3.23438H13.2466V12.761H12.7599V13.2477H3.23992V12.761H2.75325V3.23438H1.81992Z" fill="#303030"/>
<path d="M4.17993 4.17969V10.0997H6.39993V11.8197H11.7999V6.41969H10.0999V4.17969H4.17993ZM5.11327 9.16635V5.11302H9.1666V6.41969H6.39993V9.16635H5.11327ZM10.8666 10.8864H7.33327V7.35302H10.8666V10.8864Z" fill="#303030"/>
</svg>
