<svg width="16" height="16" viewBox="0 0 16 16" fill="none" xmlns="http://www.w3.org/2000/svg">
<path d="M11.7867 1.35938V2.29271H13.04L10.3067 5.02604C9.66001 4.51937 8.85335 4.21937 7.97335 4.21937C7.09335 4.21937 6.30001 4.51937 5.66001 5.01271L4.89335 4.24604L5.89335 3.24604L5.23335 2.58604L4.23335 3.58604L2.94001 2.29271H4.19335V1.35938H1.34668V4.20604H2.28001V2.95271L3.56668 4.23937L2.52001 5.28604L3.18001 5.94604L4.22668 4.89937L4.99335 5.66604C4.48001 6.31271 4.17335 7.12604 4.17335 8.01937C4.17335 9.96604 5.64001 11.566 7.52668 11.7927V12.7727H6.09335V13.706H7.52001V14.6527H8.45335V13.706H9.92001V12.7727H8.46001V11.786C10.3267 11.546 11.7733 9.95271 11.7733 8.01937C11.7733 7.13937 11.4733 6.33271 10.9667 5.68604L13.7 2.95271V4.20604H14.6333V1.35938H11.7933H11.7867ZM7.97335 10.886C6.39335 10.886 5.10668 9.59937 5.10668 8.01937C5.10668 6.43937 6.39335 5.15271 7.97335 5.15271C9.55335 5.15271 10.84 6.43937 10.84 8.01937C10.84 9.59937 9.55335 10.886 7.97335 10.886Z" fill="#303030"/>
</svg>
