<svg width="16" height="16" viewBox="0 0 16 16" fill="none" xmlns="http://www.w3.org/2000/svg">
<path d="M7.98999 1.32812C5.22999 1.32812 2.98999 3.57479 2.98999 6.32812H4.10332C4.10332 4.18146 5.84999 2.43479 7.99666 2.43479C10.1433 2.43479 11.89 4.18146 11.89 6.32812C11.89 7.73479 11.1433 9.04146 9.94332 9.74146L9.66332 9.90146V11.6081C9.66332 12.0748 9.48332 12.5081 9.16332 12.8015C8.37666 13.5348 7.43666 13.7415 6.58999 13.3748C5.76999 13.0148 5.21666 12.1948 5.21666 11.3281H4.10332C4.10332 12.6281 4.92332 13.8615 6.14332 14.3948C6.56332 14.5748 6.99666 14.6681 7.42999 14.6681C8.30332 14.6681 9.17666 14.3081 9.91666 13.6215C10.4567 13.1148 10.77 12.3815 10.77 11.6148V10.5348C12.15 9.60813 12.9967 8.02813 12.9967 6.33479C12.9967 3.57479 10.75 1.33479 7.99666 1.33479H7.98999V1.32812Z" fill="#303030"/>
</svg>
