<svg width="16" height="16" viewBox="0 0 16 16" fill="none" xmlns="http://www.w3.org/2000/svg">
<path d="M7.32342 13.7237H3.02342V10.5304H7.32342V9.59708H3.02342V6.40375H11.6101V7.95042H12.5434V1.34375H2.09009V14.6571H7.32342V13.7237ZM11.6168 2.27708V5.47042H3.02342V2.27708H11.6168ZM5.39009 4.18375H4.43675V3.25042H5.39009V4.18375ZM4.44342 8.46375V7.53042H5.39675V8.46375H4.44342ZM4.44342 12.5171V11.5837H5.39675V12.5171H4.44342ZM9.09009 12.6437L11.5034 14.5771L13.9168 12.6371V8.93708H9.08342V12.6437H9.09009ZM10.0234 9.87042H12.9901V12.1904L11.5034 13.3837L10.0234 12.1971V9.87042Z" fill="#303030"/>
</svg>
