<svg width="16" height="16" viewBox="0 0 16 16" fill="none" xmlns="http://www.w3.org/2000/svg">
<path d="M7.99994 1.34146C6.51994 1.34146 5.08661 1.86146 3.93994 2.78146V1.32812H3.00661V4.48146H6.16661V3.54813H4.47328C5.45994 2.72812 6.68661 2.28146 7.99328 2.28146C11.0466 2.28146 13.5333 4.76812 13.5333 7.82146C13.5333 10.8748 11.0466 13.3615 7.99328 13.3615C4.93994 13.3615 2.54661 10.9948 2.45994 7.98146L1.52661 8.00812C1.62661 11.5281 4.47328 14.2881 7.99994 14.2881C11.5266 14.2881 14.4733 11.3815 14.4733 7.81479C14.4733 4.24813 11.5733 1.34146 7.99994 1.34146Z" fill="#303030"/>
<path d="M7.3999 4.78906V8.19573L9.80657 10.5891L10.4666 9.92906L8.33324 7.80906V4.78906H7.3999Z" fill="#303030"/>
</svg>
