<svg width="16" height="16" viewBox="0 0 16 16" fill="none" xmlns="http://www.w3.org/2000/svg">
<path d="M9.93335 12.1328H10.8667V12.9328H9.93335V12.1328Z" fill="#303030"/>
<path d="M11.8 12.1328H12.7334V12.9328H11.8V12.1328Z" fill="#303030"/>
<path d="M9.93335 8H10.8667V8.8H9.93335V8Z" fill="#303030"/>
<path d="M11.8 8H12.7334V8.8H11.8V8Z" fill="#303030"/>
<path d="M9.93335 3.86719H10.8667V4.66719H9.93335V3.86719Z" fill="#303030"/>
<path d="M11.8 3.86719H12.7334V4.66719H11.8V3.86719Z" fill="#303030"/>
<path d="M14.6667 1.33594H1.33337V14.6693H14.6667V1.33594ZM13.7334 13.7359H2.26671V10.5359H13.7334V13.7359ZM13.7334 9.6026H2.26671V6.4026H13.7334V9.6026ZM13.7334 5.46927H2.26671V2.26927H13.7334V5.46927Z" fill="#303030"/>
</svg>
