<svg width="16" height="16" viewBox="0 0 16 16" fill="none" xmlns="http://www.w3.org/2000/svg">
<path d="M6.42655 11.8954H7.15988C7.18655 12.2087 7.39321 12.4021 7.72655 12.4021C7.98655 12.4021 8.16655 12.2554 8.16655 12.0287C8.16655 11.7887 8.01988 11.6821 7.43988 11.5087C6.77988 11.3154 6.49988 11.0154 6.49988 10.5421C6.49988 9.94208 6.97321 9.54208 7.67988 9.54208C8.38655 9.54208 8.84655 9.95542 8.84655 10.5821H8.12655C8.08655 10.2754 7.91988 10.1221 7.64655 10.1221C7.39988 10.1221 7.23988 10.2487 7.23988 10.4621C7.23988 10.6621 7.37988 10.7821 7.88655 10.9288C8.61321 11.1421 8.91988 11.4087 8.91988 11.9487C8.91988 12.6087 8.46655 13.0087 7.68655 13.0087C6.90655 13.0087 6.42655 12.5554 6.42655 11.8887V11.8954ZM10.5665 13.0154C9.68655 13.0021 9.29321 12.2621 9.29321 11.2688C9.29321 10.2754 9.69321 9.54875 10.5865 9.54875C11.4799 9.54875 11.8799 10.2887 11.8799 11.2688C11.8799 11.9954 11.6865 12.5887 11.2265 12.8554L11.8799 13.3954L11.4065 13.8554L10.5665 13.0154ZM11.0865 11.2688C11.0865 10.5554 10.9465 10.1954 10.5865 10.1954C10.2532 10.1954 10.0799 10.5554 10.0799 11.2688C10.0799 11.9821 10.2465 12.3687 10.5865 12.3687C10.9465 12.3687 11.0865 12.0087 11.0865 11.2688ZM12.4465 9.61542H13.1999V12.3021H14.6399V12.9487H12.4465V9.60875V9.61542ZM7.91321 3.10875L5.87321 1.96875L3.32655 3.36208V5.60208L1.29321 6.82208V9.58875L3.83988 11.0821L6.33988 9.58875V7.35542L7.91321 6.41542L9.99321 7.63542L12.4932 6.14208V3.36875L9.99321 1.97542L7.91321 3.11542V3.10875ZM5.40655 9.05542L3.83321 9.99542L2.22655 9.05542V7.35542L3.79988 6.41542L4.60655 6.88875L5.41321 7.36208V9.06208L5.40655 9.05542ZM7.43988 5.60875L5.86655 6.54875L5.05988 6.07542L4.25321 5.60208V3.91542L5.85988 3.03542L7.43321 3.91542V5.60875H7.43988ZM11.5599 5.60875L9.98655 6.54875L8.37988 5.60875V3.92208L9.98655 3.04208L11.5599 3.92208V5.61542V5.60875Z" fill="#303030"/>
</svg>
