<svg width="16" height="16" viewBox="0 0 16 16" fill="none" xmlns="http://www.w3.org/2000/svg">
<path d="M7.94337 14.6693V14.6559L7.95671 14.6693L14.7167 5.1426L12.7167 1.33594H3.19671L1.29004 5.1426L7.93004 14.6359L7.94337 14.6693ZM9.69004 5.60927L7.94337 11.4159L6.21004 5.60927H9.69004ZM6.61671 4.67594L7.93671 2.89594L9.27671 4.67594H6.61671ZM10.6634 5.60927H13.2434L8.77004 11.9093L10.6634 5.60927ZM12.1567 2.26927L13.4234 4.67594H10.4434L8.63004 2.26927H12.1567ZM3.77004 2.26927H7.23004L5.45004 4.67594H2.57004L3.77671 2.26927H3.77004ZM2.75671 5.60927H5.23671L7.08337 11.7893L2.75671 5.60927Z" fill="#303030"/>
</svg>
