<svg width="16" height="16" viewBox="0 0 16 16" fill="none" xmlns="http://www.w3.org/2000/svg">
<path d="M5.41339 3.2249H6.34673C6.34673 2.7049 6.76673 2.2849 7.28673 2.2849C7.80673 2.2849 8.22673 2.7049 8.22673 3.2249H9.16006C9.16006 2.19156 8.32006 1.35156 7.28673 1.35156C6.25339 1.35156 5.41339 2.19156 5.41339 3.2249ZM7.30673 14.6316H13.9401V7.99156H7.30673V14.6316ZM8.24006 8.9249H13.0067V13.6982H8.24006V8.9249ZM2.99339 4.1649H3.92673V6.0849H10.6334V4.1649H11.6001V7.03156H12.5334V3.69823C12.5334 3.23156 12.1067 3.23156 11.7667 3.23156H2.06006V14.6516H6.34673V13.7182H2.99339V4.1649ZM4.86006 5.13823V4.15156H9.70006V5.13823H4.86006Z" fill="#303030"/>
</svg>
