<svg width="16" height="16" viewBox="0 0 16 16" fill="none" xmlns="http://www.w3.org/2000/svg">
<path d="M2.62677 8.35365L1.69344 7.42031L2.62677 8.35365ZM14.3134 7.42031L13.3801 8.35365L14.3134 7.42031ZM4.20011 10.407H5.13344V11.3536H4.20011V10.407ZM10.8801 10.407H11.8134V11.3536H10.8801V10.407ZM13.7134 8.68031L14.6401 7.75365L13.9801 7.09365L13.7134 7.36031V1.82031H2.30011V7.37365L2.02011 7.09365L1.36011 7.75365L2.29344 8.68698V13.2336H3.75344V14.187H5.14011V13.2336H10.8801V14.187H12.2668V13.2336H13.7001V8.68031H13.7068H13.7134ZM12.7801 2.75365V3.72698H3.23344V2.75365H12.7801ZM3.23344 8.01365V4.66031H7.33344V8.01365H3.23344ZM8.26677 4.66031H12.7734V8.01365H8.26677V4.66031ZM3.23344 12.2936V8.94031H12.7734V12.2936H3.23344Z" fill="#303030"/>
</svg>
