<svg width="16" height="16" viewBox="0 0 16 16" fill="none" xmlns="http://www.w3.org/2000/svg">
<path d="M7.52668 14.6437C7.19335 14.6171 6.86668 14.5704 6.54668 14.5037L6.74668 13.5904C7.02001 13.6504 7.30668 13.6971 7.59335 13.7171L7.52668 14.6504V14.6437ZM8.51335 14.6371L8.44001 13.7037C8.72668 13.6837 9.00668 13.6371 9.28668 13.5771L9.49335 14.4904C9.17335 14.5638 8.84001 14.6171 8.51335 14.6371ZM5.58668 14.2104C5.28001 14.0904 4.97335 13.9438 4.68668 13.7838L5.15335 12.9771C5.40001 13.1171 5.66001 13.2437 5.92668 13.3438L5.58668 14.2104ZM10.4467 14.1971L10.1067 13.3304C10.3667 13.2304 10.6267 13.1038 10.8733 12.9571L11.3467 13.7638C11.06 13.9304 10.76 14.0771 10.4533 14.1971H10.4467ZM3.86668 13.2238C3.60668 13.0171 3.36001 12.7904 3.13335 12.5504L3.81335 11.9104C4.00668 12.1171 4.22001 12.3104 4.44001 12.4904L3.86001 13.2238H3.86668ZM12.16 13.1971L11.5733 12.4704C11.7933 12.2904 12.0067 12.0971 12.2 11.8837L12.8867 12.5171C12.66 12.7571 12.42 12.9904 12.16 13.1971ZM2.51335 11.7771C2.32668 11.5037 2.16001 11.2171 2.01335 10.9171L2.85335 10.5104C2.98001 10.7638 3.12668 11.0171 3.28668 11.2504L2.52001 11.7771H2.51335ZM13.5067 11.7438L12.7333 11.2171C12.8933 10.9837 13.04 10.7304 13.16 10.4771L14 10.8837C13.86 11.1838 13.6933 11.4704 13.5067 11.7438ZM1.64668 9.99042C1.54668 9.67042 1.47335 9.34375 1.42001 9.02375L2.34001 8.88375C2.38001 9.16375 2.44668 9.44375 2.53335 9.71708L1.64001 9.99708L1.64668 9.99042ZM14.3667 9.95042L13.4733 9.67708C13.5533 9.40375 13.62 9.12375 13.66 8.84375L14.58 8.98375C14.5333 9.31042 14.46 9.63708 14.36 9.95042H14.3667ZM1.34668 8.03042V8.00375C1.34668 7.67708 1.37335 7.34375 1.42001 7.01708L2.34001 7.15042C2.30001 7.43042 2.28001 7.72375 2.28001 8.00375L1.34668 8.03042ZM14.6533 7.99042H13.72C13.72 7.71042 13.7 7.42375 13.6533 7.13708L14.5733 6.99708C14.62 7.32375 14.6467 7.65708 14.6467 7.99042H14.6533ZM2.52668 6.31708L1.63335 6.04375C1.73335 5.73042 1.85335 5.41708 1.99335 5.11708L2.83335 5.52375C2.70668 5.77708 2.60668 6.05042 2.52001 6.31708H2.52668ZM13.4667 6.30375C13.3867 6.03708 13.28 5.76375 13.1533 5.51042L13.9933 5.10375C14.14 5.40375 14.26 5.71708 14.36 6.03042L13.4667 6.30375ZM3.27335 4.78375L2.50001 4.25708C2.68668 3.98375 2.89335 3.72375 3.12001 3.47708L3.80668 4.11042C3.61335 4.31708 3.43335 4.54375 3.27335 4.77708V4.78375ZM12.72 4.77042C12.56 4.53708 12.38 4.31042 12.1867 4.10375L12.8733 3.47042C13.1 3.71708 13.3067 3.97708 13.4933 4.24375L12.72 4.77042ZM4.43335 3.53042L3.84668 2.80375C4.10668 2.59708 4.38001 2.41042 4.66668 2.24375L5.13335 3.05042C4.88668 3.19042 4.64668 3.35708 4.42668 3.53042H4.43335ZM11.56 3.52375C11.3333 3.34375 11.1 3.18375 10.8533 3.04375L11.32 2.23708C11.6067 2.40375 11.88 2.59042 12.14 2.79708L11.56 3.53042V3.52375ZM5.90668 2.67708L5.56668 1.81042C5.87335 1.69042 6.19335 1.59042 6.52001 1.51708L6.72668 2.43042C6.44668 2.49042 6.17335 2.57708 5.91335 2.68375L5.90668 2.67708ZM10.0867 2.67042C9.82001 2.56375 9.54668 2.48375 9.26668 2.41708L9.47335 1.50375C9.79335 1.57708 10.1133 1.67708 10.4267 1.79708L10.0867 2.66375V2.67042ZM7.56668 2.29708L7.49335 1.36375C7.82668 1.33708 8.16001 1.33708 8.48668 1.36375L8.42001 2.29708C8.14001 2.27708 7.84668 2.27708 7.56668 2.29708Z" fill="#303030"/>
</svg>
