<svg width="16" height="16" viewBox="0 0 16 16" fill="none" xmlns="http://www.w3.org/2000/svg">
<path d="M11.5667 1.32812H5.35339C5.04006 1.32812 4.76006 1.52146 4.63339 1.82812L1.79339 8.78813C1.69339 9.03479 1.72006 9.31479 1.86673 9.53479C2.01339 9.75479 2.26673 9.88813 2.53339 9.88813H5.91339L4.40006 11.5681C4.26672 11.7148 4.19339 11.9148 4.19339 12.1148V13.4415C4.20006 13.7148 4.34006 13.9681 4.56673 14.1148C4.70006 14.2015 4.84672 14.2415 5.00006 14.2415C5.11339 14.2415 5.22006 14.2215 5.32672 14.1681C6.81339 13.5015 10.4134 11.8281 11.4867 11.3281H14.6601V1.33479H11.5601L11.5667 1.32812ZM5.13339 13.2415V12.1681L7.16672 9.89479H8.00006L8.00672 8.96813L8.01339 8.96146H6.98672H6.97339H2.74006L3.12672 8.01479H6.58006V7.08146H3.50673L3.91339 6.08813H6.57339V5.15479H4.30006L4.70672 4.16146V4.17479H6.56673V3.24146H5.08006L5.48006 2.26146H11.3334V10.3881C10.7267 10.6681 6.87339 12.4615 5.14006 13.2415H5.13339ZM12.2601 2.26813H13.7334V10.4081H12.2601V2.26813Z" fill="#303030"/>
</svg>
