<svg width="16" height="16" viewBox="0 0 16 16" fill="none" xmlns="http://www.w3.org/2000/svg">
<path d="M8.00002 1.30469C4.30669 1.30469 1.31335 4.29802 1.31335 7.99802C1.31335 11.698 4.30669 14.6914 8.00002 14.6914C11.6934 14.6914 14.6867 11.6914 14.6867 7.99802C14.6867 4.30469 11.6934 1.30469 8.00002 1.30469ZM8.00002 13.758C4.82669 13.758 2.24669 11.1714 2.24669 7.99802C2.24669 4.82469 4.82669 2.23802 8.00002 2.23802C11.1734 2.23802 13.7534 4.82469 13.7534 7.99802C13.7534 11.1714 11.1734 13.758 8.00002 13.758ZM6.86002 8.67135C6.83335 8.83802 6.78002 8.99135 6.68669 9.12469C6.60002 9.25802 6.47335 9.35802 6.32002 9.43135C5.96002 9.60469 5.42002 9.58469 5.07335 9.35802C4.88669 9.23135 4.74002 9.05135 4.63335 8.81802C4.52669 8.57802 4.47335 8.29802 4.47335 7.98469C4.47335 7.67135 4.52669 7.39802 4.63335 7.15802C4.73335 6.92469 4.88002 6.75135 5.06669 6.62469C5.26002 6.49802 5.48002 6.43802 5.74669 6.43802C5.96002 6.43802 6.14669 6.47802 6.30669 6.55802C6.46002 6.63802 6.58669 6.74469 6.68002 6.87802C6.77335 7.01802 6.82669 7.17135 6.84002 7.33802L6.85335 7.48469H7.76002L7.74669 7.30469C7.72669 6.99802 7.63335 6.70469 7.47335 6.45135C7.31335 6.19135 7.08002 5.98469 6.78669 5.83135C6.49335 5.67802 6.15335 5.60469 5.76002 5.60469C5.30002 5.60469 4.90002 5.71135 4.56669 5.91802C4.23335 6.12469 3.97335 6.41802 3.80002 6.77802C3.62669 7.13802 3.54669 7.53802 3.54669 7.98469C3.54669 8.43135 3.63335 8.85135 3.81335 9.21135C3.99335 9.57802 4.25335 9.86469 4.59335 10.0647C4.92669 10.2714 5.32669 10.3714 5.77335 10.3714C6.16002 10.3714 6.50002 10.298 6.79335 10.1514C7.08669 10.0047 7.32002 9.79802 7.48669 9.54469C7.65335 9.29135 7.74669 9.01135 7.78002 8.70469L7.80002 8.52469H6.89335L6.87335 8.66469H6.86002V8.67135ZM11.4734 5.84469C11.18 5.69135 10.84 5.61802 10.4467 5.61802C9.98669 5.61802 9.58669 5.72469 9.25335 5.93135C8.92002 6.13802 8.66002 6.43135 8.48669 6.79135C8.31335 7.15135 8.23335 7.55135 8.23335 7.99802C8.23335 8.44469 8.32002 8.86469 8.50002 9.22469C8.68002 9.59135 8.94002 9.87802 9.28002 10.078C9.61335 10.2847 10.0134 10.3847 10.46 10.3847C10.8467 10.3847 11.1867 10.3114 11.48 10.1647C11.7734 10.018 12.0067 9.81135 12.1734 9.55802C12.34 9.30469 12.4334 9.02469 12.4667 8.71802L12.4867 8.53802H11.58L11.56 8.67802C11.5334 8.84469 11.48 8.99802 11.3867 9.13135C11.3 9.26469 11.1734 9.36469 11.02 9.43802C10.66 9.61135 10.12 9.59135 9.77335 9.36469C9.58669 9.23802 9.44002 9.05802 9.33335 8.82469C9.22669 8.58469 9.17335 8.30469 9.17335 7.99135C9.17335 7.67802 9.22669 7.40469 9.33335 7.16469C9.43335 6.93135 9.58002 6.75802 9.76669 6.63135C9.96002 6.50469 10.18 6.44469 10.4467 6.44469C10.66 6.44469 10.8467 6.48469 11.0067 6.56469C11.16 6.64469 11.2867 6.75135 11.38 6.88469C11.4734 7.02469 11.5267 7.17802 11.54 7.34469L11.5534 7.49135H12.46L12.4467 7.31135C12.4267 7.00469 12.3334 6.71135 12.1734 6.45802C12.0134 6.19802 11.78 5.99135 11.4867 5.83802H11.4734V5.84469Z" fill="#303030"/>
</svg>
