<svg width="16" height="16" viewBox="0 0 16 16" fill="none" xmlns="http://www.w3.org/2000/svg">
<path d="M4.64001 4.64583L5.57334 5.57917V5.5525L10.3867 10.3658V10.3925L11.32 11.3258V11.2992L13.9733 13.9525L14.6333 13.2925L11.32 9.97917V1.3125L7.50001 4.1325H5.47334L2.71334 1.37917L2.05334 2.03917L4.64001 4.62583V4.6525V4.64583ZM7.80668 5.06583L8.05334 4.87917L10.3933 3.15917V9.0525L6.40668 5.06583H7.80668Z" fill="#303030"/>
<path d="M11.3134 14.6687V12.6421L10.38 11.7087V12.8221L8.04004 11.0954L7.79338 10.9154H5.56671L5.57338 6.90208L4.64004 5.96875L4.62671 11.8488H7.48671L11.3134 14.6687Z" fill="#303030"/>
</svg>
