<svg width="16" height="16" viewBox="0 0 16 16" fill="none" xmlns="http://www.w3.org/2000/svg">
<path d="M14.6901 12.2759V11.3426H14.1701C14.1101 11.0359 13.9901 10.7426 13.8101 10.4759L14.1767 10.1093L13.5167 9.44927L13.1501 9.81594C12.8834 9.6426 12.5901 9.5226 12.2901 9.4626V8.94927H11.3567V9.47594C11.0567 9.53594 10.7701 9.65594 10.5034 9.83594L10.1367 9.46927L9.47674 10.1293L9.8434 10.4959C9.67007 10.7559 9.55674 11.0493 9.49674 11.3426H8.97674V12.2759H9.49674C9.55674 12.5693 9.67007 12.8559 9.8434 13.1159L9.47674 13.4826L10.1367 14.1426L10.5034 13.7759C10.7634 13.9559 11.0567 14.0693 11.3567 14.1359V14.6626H12.2901V14.1493C12.5901 14.0893 12.8834 13.9759 13.1501 13.8026L13.5167 14.1693L14.1767 13.5093L13.8101 13.1426C13.9901 12.8759 14.1101 12.5826 14.1701 12.2826H14.6901V12.2759ZM12.8567 12.8293C12.3101 13.3759 11.3567 13.3759 10.8034 12.8293C10.2367 12.2626 10.2367 11.3426 10.8034 10.7759C11.0767 10.5026 11.4434 10.3493 11.8301 10.3493C12.2167 10.3493 12.5834 10.5026 12.8567 10.7759C13.4234 11.3426 13.4234 12.2626 12.8567 12.8293ZM11.7901 5.13594C11.7901 3.0426 10.0834 1.33594 7.99007 1.33594C5.89674 1.33594 4.19007 3.0426 4.19007 5.13594C4.19007 6.47594 4.89007 7.65594 5.9434 8.33594C3.29007 9.2026 1.3634 11.7026 1.3634 14.6426H2.29674C2.29674 11.4959 4.85674 8.93594 8.0034 8.93594C10.0901 8.92927 11.7901 7.2226 11.7901 5.13594ZM7.99007 8.0026C6.41007 8.0026 5.1234 6.71594 5.1234 5.13594C5.1234 3.55594 6.41007 2.26927 7.99007 2.26927C9.57007 2.26927 10.8567 3.55594 10.8567 5.13594C10.8567 6.71594 9.57007 8.0026 7.99007 8.0026Z" fill="#303030"/>
</svg>
