<svg width="16" height="16" viewBox="0 0 16 16" fill="none" xmlns="http://www.w3.org/2000/svg">
<path d="M2.77344 14.6504H13.2334V1.34375H2.77344V14.6571V14.6504ZM3.70677 2.27708H12.3001V13.7237H3.70677V2.27708ZM10.8601 3.72375H5.15344V6.56375H10.8601V3.72375ZM9.92677 5.62375H6.08677V4.65042H9.92677V5.62375ZM5.14677 7.53708H6.08677V8.47708H5.14677V7.53708ZM5.14677 9.43042H6.08677V10.3704H5.14677V9.43042ZM5.14677 11.3371H6.08677V12.2771H5.14677V11.3371ZM9.9201 7.53708H10.8601V8.47708H9.9201V7.53708ZM9.9201 9.43042H10.8601V10.3704H9.9201V9.43042ZM9.9201 11.3371H10.8601V12.2771H9.9201V11.3371ZM7.5201 7.53708H8.4601V8.47708H7.5201V7.53708ZM7.5201 9.43042H8.4601V10.3704H7.5201V9.43042ZM7.5201 11.3371H8.4601V12.2771H7.5201V11.3371Z" fill="#303030"/>
</svg>
