<svg width="16" height="16" viewBox="0 0 16 16" fill="none" xmlns="http://www.w3.org/2000/svg">
<path d="M11.8068 2.24583H13.0601L7.50677 7.79917C6.84011 7.26583 6.02677 6.96583 5.16011 6.96583C4.14677 6.96583 3.19344 7.35917 2.47344 8.07917C1.75344 8.79917 1.36011 9.7525 1.36011 10.7658C1.36011 11.7792 1.75344 12.7325 2.47344 13.4525C3.19344 14.1725 4.14677 14.5658 5.16011 14.5658C6.17344 14.5658 7.12677 14.1725 7.84677 13.4525C8.56677 12.7325 8.96011 11.7792 8.96011 10.7658C8.96011 9.91917 8.67344 9.12583 8.16677 8.46583L13.7201 2.9125V4.16583H14.6534V1.3125H11.8134V2.24583H11.8068ZM7.18011 12.7925C6.06011 13.9125 4.24011 13.9125 3.12677 12.7925C2.58677 12.2525 2.28677 11.5325 2.28677 10.7658C2.28677 9.99917 2.58677 9.27917 3.12677 8.73917C3.68677 8.17917 4.42011 7.89917 5.15344 7.89917C5.88677 7.89917 6.62011 8.17917 7.18011 8.73917C7.72011 9.27917 8.02011 9.99917 8.02011 10.7658C8.02011 11.5325 7.72011 12.2525 7.18011 12.7925Z" fill="#303030"/>
</svg>
