<svg width="16" height="16" viewBox="0 0 16 16" fill="none" xmlns="http://www.w3.org/2000/svg">
<path d="M4.18001 14.6704H13.24V13.7237V12.2504V1.34375H4.29334C3.44668 1.34375 2.76001 2.03042 2.76001 2.87708V13.2571C2.76001 14.0437 3.39334 14.6771 4.18001 14.6771V14.6704ZM12.3067 13.7237H4.40001C4.01334 13.7237 3.69334 13.4104 3.69334 13.0171C3.69334 12.5971 4.03334 12.2571 4.45334 12.2571H12.3V13.7237H12.3067ZM4.29334 2.27708H12.3067V11.3237H4.45334C4.18001 11.3237 3.92001 11.3971 3.69334 11.5104V2.87708C3.69334 2.55042 3.96001 2.27708 4.29334 2.27708ZM5.14001 4.69042H10.84V5.62375H5.14001V4.69042Z" fill="#303030"/>
</svg>
