<svg width="16" height="16" viewBox="0 0 16 16" fill="none" xmlns="http://www.w3.org/2000/svg">
<path d="M11.3367 9.04604C11.43 8.91937 11.49 8.76604 11.51 8.61271C11.5367 8.37271 11.4633 8.13938 11.2967 7.97938L10.8433 7.52604C11.0833 7.19271 11.0767 6.74604 10.8033 6.47271L10.3567 6.02604L11.27 5.11271C11.4433 4.93938 11.5433 4.71271 11.5433 4.47937C11.5433 4.27938 11.47 4.09271 11.33 3.95271L10.7367 3.35938C10.45 3.07271 9.95666 3.09271 9.64333 3.41271L7.85666 5.19938C7.81 5.07271 7.74333 4.95938 7.64333 4.86604L7.51 4.73271C7.31666 4.53938 7.04999 4.43937 6.76333 4.46604C6.41666 4.49271 6.08333 4.68604 5.86333 4.99271L3.75666 7.98604L2.37 9.37271L7.63666 14.6394L8.91666 13.3594L11.67 10.606C12.0033 10.2727 12.03 9.75271 11.73 9.45271L11.33 9.03938H11.3367V9.04604ZM7.64333 13.3194L3.69666 9.37271L4.15666 8.91271L8.10333 12.8594L7.64333 13.3194ZM8.76333 12.1994L4.75666 8.19271L6.63 5.53271C6.71666 5.41271 6.84333 5.39271 6.85666 5.38604L6.97666 5.57271L6.91666 6.13938L6.09 6.96604L6.75 7.62604L7.64999 6.72604L10.2233 4.15271L10.5633 4.49271L9.41 5.64604L9.38333 5.68604L7.84999 7.21271L8.51 7.87271L9.71 6.67271L10.05 7.01271L9.89 7.18604L8.85666 8.21938L9.51666 8.87937L10.21 8.18604L10.55 8.52604L9.84999 9.22604L10.51 9.88604L10.6967 9.69938L10.9767 9.98604L8.77666 12.186L8.76333 12.1994ZM13.27 5.61271H12.19V4.67938L12.5367 4.65271H13.6233V5.58604L13.27 5.61271ZM12.7967 2.28604L12.03 3.05271L11.37 2.39271L11.6033 2.12604L12.37 1.35938L13.03 2.01938L12.7967 2.28604ZM9.47666 1.73271V2.81271H8.54333L8.51666 2.45938V1.37937H9.45L9.47666 1.73271Z" fill="#303030"/>
</svg>
