<svg width="16" height="16" viewBox="0 0 16 16" fill="none" xmlns="http://www.w3.org/2000/svg">
<path d="M3.66667 8.85917H5.12V9.7925H3.66667V8.85917ZM10.88 8.85917H12.32V9.7925H10.88V8.85917ZM6.07334 8.85917H9.92001V9.7925H6.07334V8.85917ZM13.7667 6.6925L14.6133 5.84583L13.9533 5.18583L13.2333 5.90583L11.4533 3.3125H11.2067C6.84 3.3125 4.61334 3.34583 4.52 3.42583L2.76667 5.9525L2.04 5.22583L1.38 5.88583L2.22667 6.7325L2.24 6.71917V11.2658C2.24 11.6258 2.24001 11.7058 3.21334 11.7325V12.6925H4.63334V11.7458L11.4 11.7792V12.6925H12.82V11.7858H13.7733V6.6925H13.7667ZM12.84 10.8525C11.0867 10.8458 4.92001 10.8192 3.17334 10.8058V7.61917H12.84V10.8458V10.8525ZM3.39334 6.6925L5.07334 4.24583H10.9667L12.6467 6.6925H3.39334Z" fill="#303030"/>
</svg>
