<svg width="16" height="16" viewBox="0 0 16 16" fill="none" xmlns="http://www.w3.org/2000/svg">
<path d="M8.49002 7.98375H9.42335V12.2704H8.49002V7.98375ZM4.67668 7.98375H5.61002V12.2704H4.67668V7.98375ZM6.57002 7.99042H7.50335V12.2771H6.57002V7.99042ZM12.29 6.31708V5.62375H12.2767C12.21 4.30375 11.5834 3.45042 10.51 3.24375C10.23 2.15042 9.09002 1.34375 7.73668 1.34375C6.77668 1.34375 5.91002 1.74375 5.38335 2.40375C5.15668 2.35708 4.91668 2.33042 4.67668 2.33042C2.95002 2.33042 1.83002 3.54375 1.83002 5.42375V5.89042V14.1904C1.83002 14.5037 3.18335 14.6571 5.88335 14.6571H12.2834V13.2371H14.1767V7.05708H12.2834V6.32375L12.29 6.31708ZM4.68335 3.25708C4.94335 3.25708 5.19668 3.29708 5.43668 3.37708L5.80335 3.50375L5.99668 3.17042C6.30335 2.63042 6.99002 2.27708 7.74335 2.27708C8.76335 2.27708 9.59668 2.89708 9.65002 3.69708L9.67668 4.11042L10.09 4.13042C10.61 4.15708 11.2767 4.36375 11.35 5.62375H2.77002V5.41708C2.77002 4.04375 3.46335 3.25708 4.68335 3.25708ZM11.3567 13.7171H2.77002V6.56375H11.3567V13.7237V13.7171ZM13.25 7.98375V12.2971H12.29V7.98375H13.25Z" fill="#303030"/>
</svg>
