<svg width="16" height="16" viewBox="0 0 16 16" fill="none" xmlns="http://www.w3.org/2000/svg">
<path d="M8.95336 3.2224H12.7867V7.02906H13.72V2.28906H8.95336V3.2224ZM7.02003 12.7824H3.21336V8.95573H2.28003V13.7157H7.02003V12.7824ZM12.7867 12.7757H8.93336V13.7091H13.72V8.95573H12.7867V12.7757ZM3.21336 3.2224H7.02003V2.28906H2.28003V7.02906H3.21336V3.2224ZM6.6467 7.91573C6.6467 8.70906 7.29336 9.35573 8.0867 9.35573C8.88003 9.35573 9.5267 8.70906 9.5267 7.91573C9.5267 7.1224 8.88003 6.47573 8.0867 6.47573C7.29336 6.47573 6.6467 7.1224 6.6467 7.91573ZM8.0867 7.40906C8.3667 7.40906 8.59336 7.63573 8.59336 7.91573C8.59336 8.19573 8.3667 8.4224 8.0867 8.4224C7.8067 8.4224 7.58003 8.19573 7.58003 7.91573C7.58003 7.63573 7.8067 7.40906 8.0867 7.40906Z" fill="#303030"/>
</svg>
