<svg width="16" height="16" viewBox="0 0 16 16" fill="none" xmlns="http://www.w3.org/2000/svg">
<path d="M8.00662 12.3633C8.72827 12.3633 9.31328 11.7783 9.31328 11.0567C9.31328 10.335 8.72827 9.75 8.00662 9.75C7.28497 9.75 6.69995 10.335 6.69995 11.0567C6.69995 11.7783 7.28497 12.3633 8.00662 12.3633Z" fill="#303030"/>
<path d="M5.6533 1.35156V7.95156C4.7533 8.6649 4.21997 9.75156 4.21997 10.9049C4.21997 12.9849 5.9133 14.6782 7.9933 14.6782C10.0733 14.6782 11.7666 12.9849 11.7666 10.9049C11.7666 9.77823 11.2533 8.7049 10.38 7.99156V1.35156H5.6533ZM10.84 10.9049C10.84 12.4716 9.56664 13.7449 7.99997 13.7449C6.4333 13.7449 5.15997 12.4716 5.15997 10.9049C5.15997 9.97156 5.61997 9.09823 6.3933 8.5649L6.5933 8.4249V2.2849H9.4533V8.45823L9.64664 8.59823C10.3933 9.13156 10.84 9.99823 10.84 10.9049Z" fill="#303030"/>
</svg>
