<svg width="16" height="16" viewBox="0 0 16 16" fill="none" xmlns="http://www.w3.org/2000/svg">
<path d="M11.4233 8.93042C11.1967 8.57708 10.85 8.27042 10.37 8.01708C9.91667 7.77708 9.30333 7.55708 8.53667 7.36375V3.90375C9.01 3.97042 9.39 4.12375 9.67667 4.37042C10.07 4.71042 10.2833 5.19042 10.3167 5.80375H11.45C11.45 5.20375 11.31 4.68375 11.03 4.23708C10.75 3.79042 10.35 3.44375 9.83667 3.19708C9.45 3.01042 9.01667 2.89708 8.54333 2.85042V1.34375H7.60333V2.84375C7.08333 2.88375 6.62333 2.98375 6.21667 3.16375C5.70333 3.39042 5.30333 3.70375 5.01667 4.10375C4.73 4.50375 4.59 4.98375 4.59 5.53042C4.59 6.00375 4.70333 6.41708 4.91667 6.75708C5.13667 7.09708 5.48333 7.39708 5.95667 7.64375C6.37667 7.87042 6.93 8.06375 7.59667 8.23708V12.0837C7.29 12.0371 6.99667 11.9704 6.74333 11.8504C6.33 11.6571 6.01 11.3904 5.77667 11.0371C5.54333 10.6904 5.42333 10.2771 5.41 9.81042H4.25C4.25 10.4838 4.41 11.0704 4.73 11.5837C5.05 12.0971 5.51 12.4837 6.10333 12.7571C6.54333 12.9637 7.04333 13.0904 7.59667 13.1437V14.6571H8.53667V13.1571C9.14333 13.1237 9.67667 13.0171 10.1233 12.8237C10.6567 12.5904 11.0633 12.2571 11.3433 11.8237C11.6233 11.3904 11.7567 10.8704 11.7567 10.2637C11.7567 9.73042 11.6433 9.29042 11.4233 8.93708V8.93042ZM6.79667 6.79708C6.41667 6.62375 6.15 6.43042 5.98333 6.22375C5.81667 6.01708 5.73667 5.75042 5.73667 5.43042C5.73667 5.11042 5.82333 4.85042 5.99667 4.61708C6.17 4.38375 6.42333 4.19708 6.75 4.06375C6.99 3.96375 7.28333 3.91708 7.59667 3.89042V7.09708C7.27667 6.99708 7.00333 6.89708 6.79 6.79708H6.79667ZM10.29 11.3037C10.1033 11.5637 9.83 11.7704 9.47667 11.9104C9.21 12.0171 8.89 12.0771 8.53667 12.1037V8.47708C8.93 8.59042 9.25667 8.70375 9.50333 8.81708C9.88333 8.99042 10.1567 9.19708 10.3233 9.43042C10.49 9.67042 10.57 9.97708 10.57 10.3504C10.57 10.7237 10.4767 11.0437 10.29 11.3037Z" fill="#303030"/>
</svg>
