<svg width="16" height="16" viewBox="0 0 16 16" fill="none" xmlns="http://www.w3.org/2000/svg">
<path d="M4.17329 13.4205C5.37329 14.2805 6.76662 14.7005 8.14662 14.7005C10.1533 14.7005 12.1133 13.8205 13.3733 12.1539C13.6133 11.8405 13.8066 11.5539 13.9866 11.1939L14.34 10.4805L13.5466 10.5272C12.22 10.6005 10.8066 10.1805 9.67995 9.36052C7.41329 7.72052 6.54662 4.53385 7.69995 2.10719L8.05329 1.36719L7.23329 1.44052C5.31329 1.61385 3.41995 2.74719 2.40662 4.33385C0.479954 7.34052 1.25329 11.3405 4.17329 13.4339V13.4205ZM6.54662 2.49385C5.70662 5.18052 6.75329 8.38719 9.13329 10.1072C10.1933 10.8739 11.4733 11.3405 12.7466 11.4405C12.7133 11.4872 12.6733 11.5405 12.64 11.5872C10.8133 14.0005 7.25995 14.4805 4.72662 12.6605C2.21329 10.8605 1.54662 7.41385 3.20662 4.82719C3.93329 3.69385 5.19329 2.82719 6.55329 2.49385H6.54662Z" fill="#303030"/>
</svg>
