<svg width="16" height="16" viewBox="0 0 16 16" fill="none" xmlns="http://www.w3.org/2000/svg">
<path d="M13.7067 2.29594H9.33339C9.14006 1.73594 8.62006 1.33594 7.99339 1.33594C7.36673 1.33594 6.84673 1.7426 6.65339 2.29594H2.25339V3.22927H6.66673C6.86006 3.77594 7.38006 4.16927 8.00006 4.16927C8.62006 4.16927 9.13339 3.77594 9.33339 3.22927H13.7134V2.29594H13.7067ZM7.99339 3.2426C7.72673 3.2426 7.50673 3.0226 7.50673 2.75594C7.50673 2.48927 7.72673 2.26927 7.99339 2.26927C8.26006 2.26927 8.48006 2.48927 8.48006 2.75594C8.48006 3.0226 8.26006 3.2426 7.99339 3.2426ZM8.45339 13.7226V4.6426H7.52006V13.7226H5.16006V14.6559H10.8467V13.7226H8.45339ZM12.0534 4.1826C12.0534 4.1826 9.46673 6.8026 9.46673 8.22927C9.46673 9.65594 10.6267 10.8159 12.0534 10.8159C13.4801 10.8159 14.6401 9.65594 14.6401 8.22927C14.6401 6.8026 12.0601 4.18927 12.0534 4.1826ZM13.5134 7.6226H10.6067C10.8734 7.07594 11.4001 6.32927 12.0601 5.56927C12.7801 6.39594 13.2667 7.11594 13.5134 7.6226ZM12.0534 9.88927C11.2534 9.88927 10.5867 9.31594 10.4334 8.5626H13.6734C13.5201 9.31594 12.8534 9.88927 12.0534 9.88927ZM3.94006 4.1826C3.94006 4.1826 1.35339 6.8026 1.35339 8.22927C1.35339 9.65594 2.51339 10.8159 3.94006 10.8159C5.36673 10.8159 6.52673 9.65594 6.52673 8.22927C6.52673 6.8026 3.94673 4.18927 3.94006 4.1826ZM5.39339 7.6226H2.48673C2.75339 7.07594 3.28006 6.32927 3.94006 5.56927C4.66006 6.39594 5.14673 7.11594 5.39339 7.6226ZM3.94006 9.88927C3.14006 9.88927 2.47339 9.31594 2.32006 8.5626H5.56006C5.40673 9.31594 4.74006 9.88927 3.94006 9.88927Z" fill="#303030"/>
</svg>
