<svg width="16" height="16" viewBox="0 0 16 16" fill="none" xmlns="http://www.w3.org/2000/svg">
<path d="M2.1001 4.16104H5.59343V14.6744H6.6601V4.16104H10.0868V3.23438H6.6601H5.59343H2.1001V4.16104Z" fill="#303030"/>
<path d="M12.6268 4.76031C12.9068 4.45365 13.1268 4.19365 13.2935 3.98031C13.4602 3.76698 13.5935 3.54698 13.7001 3.31365C13.8068 3.08031 13.8602 2.84031 13.8602 2.60031C13.8602 2.19365 13.7202 1.88031 13.4468 1.65365C13.1668 1.42698 12.7802 1.32031 12.2868 1.32031C11.7335 1.32031 11.3001 1.46031 10.9801 1.73365C10.6601 2.01365 10.5001 2.41365 10.4868 2.94031H11.3868C11.4002 2.64031 11.4802 2.41365 11.6202 2.26031C11.7602 2.10698 11.9668 2.02698 12.2335 2.02698C12.4602 2.02698 12.6335 2.08698 12.7468 2.20031C12.8602 2.31365 12.9201 2.47365 12.9201 2.66698C12.9201 2.86031 12.8602 3.07365 12.7335 3.29365C12.6135 3.51365 12.4668 3.72031 12.3002 3.92031C12.1335 4.11365 11.9268 4.34031 11.6802 4.59365L10.6202 5.68698V6.16698H13.9602V5.38031H12.0401L12.6202 4.75365L12.6268 4.76031Z" fill="#303030"/>
</svg>
