<svg width="16" height="16" viewBox="0 0 16 16" fill="none" xmlns="http://www.w3.org/2000/svg">
<path d="M14.4232 6.07042H9.44991L7.90991 1.34375L6.37658 6.07042H1.40991L5.43658 8.99708L3.89658 13.7238L7.85658 10.8504L7.27658 10.1171L5.66991 11.2838L6.32325 9.28375L6.52991 8.63708L5.98325 8.24375L4.28325 7.00375H7.06325L7.26991 6.36375L7.91658 4.36375L8.56991 6.36375L8.77658 7.00375H11.5566L9.85658 8.24375L9.30991 8.63708L9.51658 9.28375L9.70325 9.85042H10.6832L10.4032 8.99708L14.4299 6.07042H14.4232ZM12.1899 11.3371H14.5832V12.2704H12.1899V14.6637H11.2566V12.2704H8.82325V11.3371H11.2566V8.97042H12.1899V11.3371Z" fill="#303030"/>
</svg>
