<svg width="16" height="16" viewBox="0 0 16 16" fill="none" xmlns="http://www.w3.org/2000/svg">
<path d="M13.84 10.7198L13.18 10.0598L12.28 10.9598L12.26 8.95312L11.3267 8.95979L11.3467 10.9798L10.42 10.0598L9.76001 10.7198L11.8 12.7598L13.84 10.7198Z" fill="#303030"/>
<path d="M8.95996 13.7188H14.6733V14.6521H8.95996V13.7188Z" fill="#303030"/>
<path d="M8.00665 6.70031C9.57999 6.70031 11.22 6.33365 12.2267 5.63365V8.00698H13.2133V4.00698C13.2133 2.26698 10.5267 1.32031 8.00665 1.32031C5.48665 1.32031 2.79999 2.26031 2.79999 4.00698V11.987C2.79999 13.727 5.48665 14.6736 8.01332 14.6736V13.5803C5.43332 13.5803 3.78665 12.6336 3.78665 11.987V10.9736C4.79332 11.6803 6.43999 12.047 8.01332 12.047V10.9536C5.43332 10.9536 3.78665 10.007 3.78665 9.36031V8.31365C4.79332 9.02031 6.43999 9.38698 8.01332 9.38698V8.29364C5.43332 8.29364 3.78665 7.34698 3.78665 6.70031V5.63365C4.79332 6.33365 6.43332 6.70698 8.01332 6.70698L8.00665 6.70031ZM8.00665 2.41365C10.58 2.41365 12.2267 3.35365 12.2333 4.00698V4.02698C12.2067 4.68031 10.5667 5.60698 8.01332 5.60698C5.45999 5.60698 3.78665 4.66031 3.78665 4.00698C3.78665 3.35365 5.43332 2.40698 8.01332 2.40698L8.00665 2.41365Z" fill="#303030"/>
</svg>
