<svg width="16" height="16" viewBox="0 0 16 16" fill="none" xmlns="http://www.w3.org/2000/svg">
<path d="M12.68 3.1026C12.3533 2.52927 11.8533 2.09594 11.1933 1.78927C10.5267 1.4826 9.72001 1.33594 8.76668 1.33594H4.65335V8.02927H2.84668V8.9226H4.65335V10.4093H2.84668V11.3026H4.65335V14.6293H5.73335V11.3026H12V10.4093H5.73335V8.9226H8.86001C9.78001 8.9226 10.56 8.77594 11.2067 8.47594C11.8533 8.17594 12.34 7.74927 12.6733 7.1826C13.0067 6.61594 13.1733 5.9426 13.1733 5.1426C13.1733 4.3426 13.0067 3.66927 12.68 3.09594V3.1026ZM11.34 7.3026C10.8267 7.78927 9.94001 8.02927 8.68668 8.02927H5.72668V2.2626H8.68668C9.54001 2.2626 10.22 2.3826 10.72 2.61594C11.22 2.84927 11.58 3.1826 11.7867 3.6026C12 4.0226 12.1 4.53594 12.1 5.14927C12.1 6.1026 11.84 6.8226 11.3267 7.30927L11.34 7.3026Z" fill="#303030"/>
</svg>
