<svg width="16" height="16" viewBox="0 0 16 16" fill="none" xmlns="http://www.w3.org/2000/svg">
<path d="M14.6733 12.2571V1.34375L5.1733 2.77708V10.4304C4.76663 10.1171 4.26663 9.91708 3.71997 9.91708C2.40663 9.91708 1.33997 10.9837 1.33997 12.2971C1.33997 13.6104 2.40663 14.6771 3.71997 14.6771C5.0333 14.6771 6.07997 13.6237 6.09997 12.3304H6.1133V5.88375L13.7466 4.66375V10.4171C13.3466 10.1104 12.8466 9.91708 12.3066 9.91708C10.9933 9.91708 9.92663 10.9837 9.92663 12.2971C9.92663 13.6104 10.9933 14.6771 12.3066 14.6771C13.62 14.6771 14.5666 13.7104 14.6666 12.4837H14.68V12.3304C14.68 12.3304 14.68 12.3037 14.68 12.2904C14.68 12.2771 14.68 12.2638 14.68 12.2504L14.6733 12.2571ZM3.71997 13.7437C2.91997 13.7437 2.2733 13.0971 2.2733 12.2971C2.2733 11.4971 2.91997 10.8504 3.71997 10.8504C4.51997 10.8504 5.16663 11.4971 5.16663 12.2971C5.16663 13.0971 4.51997 13.7437 3.71997 13.7437ZM6.10663 4.93708V3.57708L13.74 2.43042V3.71708L6.10663 4.93708ZM12.3 13.7437C11.5 13.7437 10.8533 13.0971 10.8533 12.2971C10.8533 11.4971 11.5 10.8504 12.3 10.8504C13.1 10.8504 13.72 11.4771 13.74 12.2571V12.3371C13.72 13.1171 13.08 13.7437 12.3 13.7437Z" fill="#303030"/>
</svg>
