<svg width="16" height="16" viewBox="0 0 16 16" fill="none" xmlns="http://www.w3.org/2000/svg">
<path d="M14.6601 12.2771V11.3438H14.1401C14.0801 11.0371 13.9601 10.7438 13.7801 10.4771L14.1468 10.1104L13.4868 9.45042L13.1201 9.81708C12.8534 9.64375 12.5601 9.52375 12.2601 9.46375V8.95042H11.3268V9.47708C11.0268 9.53708 10.7401 9.65708 10.4734 9.83708L10.1068 9.47042L9.44675 10.1304L9.81342 10.4971C9.64009 10.7571 9.52675 11.0504 9.46675 11.3438H8.94675V12.2771H9.46675C9.52675 12.5704 9.64009 12.8571 9.81342 13.1171L9.44675 13.4837L10.1068 14.1437L10.4734 13.7771C10.7334 13.9571 11.0268 14.0704 11.3268 14.1371V14.6637H12.2601V14.1504C12.5601 14.0904 12.8534 13.9771 13.1201 13.8038L13.4868 14.1704L14.1468 13.5104L13.7801 13.1437C13.9601 12.8771 14.0801 12.5837 14.1401 12.2838H14.6601V12.2771ZM12.8334 12.8371C12.2868 13.3837 11.3334 13.3837 10.7801 12.8371C10.2134 12.2704 10.2134 11.3504 10.7801 10.7838C11.0534 10.5104 11.4201 10.3571 11.8068 10.3571C12.1934 10.3571 12.5601 10.5104 12.8334 10.7838C13.4001 11.3504 13.4001 12.2704 12.8334 12.8371ZM7.52009 14.6637H1.34009V1.34375H14.6668V7.53042H13.7334V2.27708H2.27342V13.7371H7.52675V14.6704L7.52009 14.6637ZM10.3801 5.13708H5.62009V4.20375H10.3801V5.13708Z" fill="#303030"/>
</svg>
