<svg width="16" height="16" viewBox="0 0 16 16" fill="none" xmlns="http://www.w3.org/2000/svg">
<path d="M7.15342 10.0672H8.86009C9.97342 10.0672 10.8801 9.00052 10.8801 7.68052V3.75385C10.8801 2.44052 9.97342 1.36719 8.86009 1.36719H7.15342C6.04009 1.36719 5.13342 2.43385 5.13342 3.75385V7.68052C5.13342 8.99385 6.04009 10.0672 7.15342 10.0672ZM7.14676 2.30719H8.85342C9.45342 2.30719 9.94009 2.96052 9.94009 3.76052V7.68719C9.94009 8.48719 9.45342 9.14052 8.85342 9.14052H7.14676C6.54676 9.14052 6.06009 8.48719 6.06009 7.68719V3.76052C6.06009 2.96052 6.54676 2.30719 7.14676 2.30719Z" fill="#303030"/>
<path d="M9.4467 10.871H6.55337C5.36004 10.871 4.3867 9.43104 4.3867 8.48438H3.45337C3.45337 9.97771 4.8867 11.8044 6.55337 11.8044H9.4467C11.1134 11.8044 12.5467 9.97771 12.5467 8.48438H11.6134C11.6134 9.42437 10.64 10.871 9.4467 10.871Z" fill="#303030"/>
<path d="M8.46673 11.8047H7.5334V13.718H5.14673V14.6514H10.8601V13.718H8.46673V11.8047Z" fill="#303030"/>
</svg>
