<svg width="16" height="16" viewBox="0 0 16 16" fill="none" xmlns="http://www.w3.org/2000/svg">
<path d="M11.8668 2.1388C11.2801 1.26547 10.0868 1.03214 9.20677 1.62547C8.92011 1.8188 8.69344 2.08547 8.55344 2.38547L7.96011 3.83214L7.38677 2.43214L7.36677 2.39214C7.22011 2.0788 6.99344 1.8188 6.70677 1.62547C5.83344 1.0388 4.64011 1.26547 4.05344 2.14547C3.61344 2.79214 3.63344 3.6188 4.02677 4.2388H1.36011V7.59214H2.78677V14.6921H13.2468V7.59214H14.6401V4.2388H11.8868C12.2801 3.6188 12.3001 2.79214 11.8601 2.14547H11.8668V2.1388ZM9.39344 2.78547C9.46677 2.62547 9.58677 2.49214 9.72677 2.39214C10.1734 2.09214 10.7868 2.21214 11.0868 2.6588C11.3868 3.10547 11.2668 3.7188 10.8201 4.0188C10.6734 4.1188 10.4934 4.1788 10.2734 4.18547H8.81344L9.38677 2.78547H9.39344ZM4.83344 2.6588C5.02011 2.3788 5.33344 2.22547 5.64677 2.22547C5.83344 2.22547 6.02677 2.2788 6.19344 2.39214C6.34011 2.49214 6.46011 2.62547 6.52677 2.7788L7.10677 4.19214H5.60677C5.42677 4.1788 5.25344 4.1188 5.10011 4.0188C4.65344 3.7188 4.53344 3.10547 4.83344 2.6588ZM2.30011 5.16547H7.52677V6.65214H2.30011V5.16547ZM3.72677 7.6188H7.53344V13.7521H3.72677V7.6188ZM12.3201 13.7521H8.46677V7.6188H12.3201V13.7521ZM13.7134 6.65214H8.46011V5.16547H13.7134V6.65214Z" fill="#303030"/>
</svg>
