<svg width="16" height="16" viewBox="0 0 16 16" fill="none" xmlns="http://www.w3.org/2000/svg">
<path d="M10.3966 2.24583H13.0499L10.6233 4.6525C10.5566 4.63917 10.4833 4.62583 10.4099 4.62583C9.8766 4.62583 9.44326 5.0525 9.44326 5.57917C9.44326 6.10583 9.8766 6.5325 10.4099 6.5325C10.9433 6.5325 11.3766 6.10583 11.3766 5.57917C11.3766 5.4725 11.3566 5.3725 11.3233 5.27917L13.7166 2.89917V5.58583H14.6499V1.3125H10.3966V2.24583ZM13.7033 13.0392L11.3033 10.6258C11.3299 10.5392 11.3499 10.4458 11.3499 10.3458C11.3499 9.81917 10.9166 9.3925 10.3833 9.3925C9.84993 9.3925 9.4166 9.81917 9.4166 10.3458C9.4166 10.8725 9.84993 11.2992 10.3833 11.2992C10.4633 11.2992 10.5433 11.2858 10.6233 11.2658L13.0433 13.6992H10.3566V14.6325H14.6299V10.3792H13.6966V13.0325H13.7033V13.0392ZM5.59659 13.7392H2.94326L5.38326 11.3125C5.44993 11.3258 5.52326 11.3392 5.59659 11.3392C6.12993 11.3392 6.56326 10.9125 6.56326 10.3858C6.56326 9.85917 6.12993 9.4325 5.59659 9.4325C5.06326 9.4325 4.62993 9.85917 4.62993 10.3858C4.62993 10.4925 4.64993 10.5925 4.68326 10.6925L2.2766 13.0858V10.3992H1.34326V14.6725H5.59659V13.7392ZM5.6166 6.54583C6.14993 6.54583 6.58326 6.11917 6.58326 5.5925C6.58326 5.06583 6.14993 4.63917 5.6166 4.63917C5.5366 4.63917 5.45659 4.6525 5.3766 4.6725L2.98326 2.26583H5.62326V1.3325H1.34993V5.58583H2.28326V2.88583L4.6966 5.3125C4.66993 5.39917 4.64993 5.4925 4.64993 5.5925C4.64993 6.11917 5.08326 6.54583 5.6166 6.54583Z" fill="#303030"/>
</svg>
