<svg width="16" height="16" viewBox="0 0 16 16" fill="none" xmlns="http://www.w3.org/2000/svg">
<path d="M11.7867 3.52021V2.04688H10.8534V3.52688H5.14004V2.04688H4.20671V3.52688H1.33337V13.9469H14.66V3.52021H11.7867ZM4.20671 4.45354V4.88688H5.14004V4.45354H10.8534V4.88688H11.7867V4.45354H13.72V5.84688H2.26671V4.45354H4.21337H4.20671ZM2.26671 13.0135V6.78688H13.7267V13.0069H2.26671V13.0135ZM9.67337 8.76021L9.01337 8.10021L8.00004 9.11354L6.98004 8.10021L6.32004 8.76021L7.34004 9.77354L6.32004 10.7935L6.98004 11.4535L8.00004 10.4335L9.01337 11.4535L9.67337 10.7935L8.66004 9.77354L9.67337 8.76021Z" fill="#303030"/>
</svg>
