<svg width="16" height="16" viewBox="0 0 16 16" fill="none" xmlns="http://www.w3.org/2000/svg">
<path d="M7.99333 1.33594C4.31333 1.33594 1.32666 4.31594 1.32666 8.0026C1.32666 9.40927 1.75999 10.7159 2.51333 11.7893L4.32666 9.97594C4.58666 9.71594 4.93999 9.56927 5.29333 9.56927C5.51999 9.56927 5.74666 9.62927 5.94666 9.7626C6.33333 10.0226 6.52666 10.4159 6.52666 10.8293C6.52666 11.1493 6.40666 11.4693 6.15999 11.7159L4.31999 13.5559C5.37333 14.2626 6.63999 14.6693 7.99999 14.6693C8.26666 14.6693 8.53999 14.6559 8.81333 14.6226C11.8467 14.2626 14.2933 11.7893 14.6267 8.75594C15.0667 4.72927 11.9267 1.33594 7.99999 1.33594H7.99333ZM13.6933 8.65594C13.4067 11.2693 11.3067 13.3893 8.69999 13.6959C8.46666 13.7226 8.23333 13.7359 7.99999 13.7359C7.25999 13.7359 6.53999 13.5959 5.86666 13.3293L6.81999 12.3759C7.23333 11.9626 7.45999 11.4159 7.45999 10.8293C7.45999 10.0759 7.09999 9.4026 6.46666 8.98927C6.11999 8.7626 5.71999 8.6426 5.29999 8.6426C4.69999 8.6426 4.10666 8.88927 3.67333 9.3226L2.73333 10.2626C2.42666 9.55594 2.27333 8.79594 2.27333 8.0026C2.25999 4.8426 4.83333 2.26927 7.99333 2.26927C9.61999 2.26927 11.18 2.9626 12.2667 4.17594C13.3667 5.4026 13.8733 6.99594 13.6933 8.65594ZM5.27333 4.35594C4.73999 4.35594 4.30666 4.7826 4.30666 5.30927C4.30666 5.83594 4.73999 6.2626 5.27333 6.2626C5.80666 6.2626 6.23999 5.83594 6.23999 5.30927C6.23999 4.7826 5.80666 4.35594 5.27333 4.35594ZM7.99333 3.23594C8.52666 3.23594 8.95999 3.6626 8.95999 4.18927C8.95999 4.71594 8.52666 5.1426 7.99333 5.1426C7.45999 5.1426 7.02666 4.71594 7.02666 4.18927C7.02666 3.6626 7.45999 3.23594 7.99333 3.23594ZM10.7067 6.2626C11.24 6.2626 11.6733 5.83594 11.6733 5.30927C11.6733 4.7826 11.24 4.35594 10.7067 4.35594C10.1733 4.35594 9.73999 4.7826 9.73999 5.30927C9.73999 5.83594 10.1733 6.2626 10.7067 6.2626ZM10.86 7.99594C10.86 8.5226 11.2933 8.94927 11.8267 8.94927C12.36 8.94927 12.7933 8.5226 12.7933 7.99594C12.7933 7.46927 12.36 7.0426 11.8267 7.0426C11.2933 7.0426 10.86 7.46927 10.86 7.99594ZM10.6933 9.7426C10.16 9.7426 9.72666 10.1693 9.72666 10.6959C9.72666 11.2226 10.16 11.6493 10.6933 11.6493C11.2267 11.6493 11.66 11.2226 11.66 10.6959C11.66 10.1693 11.2267 9.7426 10.6933 9.7426Z" fill="#303030"/>
</svg>
