<svg width="16" height="16" viewBox="0 0 16 16" fill="none" xmlns="http://www.w3.org/2000/svg">
<g clip-path="url(#clip0_3923_4453)">
<path fill-rule="evenodd" clip-rule="evenodd" d="M12 5.9974V15.3307H0V5.9974H12ZM5.99533 7.8794C4.804 7.8794 3.838 8.8894 3.838 10.1354C3.838 11.1554 4.486 12.0174 5.37467 12.2961V14.0494H6.66467V12.2801C7.528 11.9854 8.152 11.1367 8.152 10.1354C8.152 8.8894 7.186 7.8794 5.99533 7.8794ZM5.99533 9.22806C6.474 9.22806 6.86267 9.63406 6.86267 10.1347C6.86267 10.6361 6.474 11.0427 5.99533 11.0427C5.51533 11.0427 5.12733 10.6361 5.12733 10.1354C5.12733 9.63406 5.516 9.22806 5.99533 9.22806ZM11.904 0.664062C13.8373 0.664062 15.944 1.6194 16 4.21806H14.7147C14.476 2.0934 12.6013 1.9134 12.052 1.90406L11.8853 1.90606C11.26 1.93406 9.43 2.21273 9.28533 4.21806V5.99473L8 5.9974V4.21806L8.00667 4.0014C8.12667 1.86606 10.0333 0.664062 11.9033 0.664062H11.904Z" fill="#303030"/>
</g>
<defs>
<clipPath id="clip0_3923_4453">
<rect width="16" height="16" fill="white"/>
</clipPath>
</defs>
</svg>
