<svg width="16" height="16" viewBox="0 0 16 16" fill="none" xmlns="http://www.w3.org/2000/svg">
<path d="M14.68 7.98698C14.68 4.30031 11.6934 1.32031 8.01336 1.32031C4.33336 1.32031 1.34003 4.30698 1.34003 7.98698C1.34003 11.667 4.32669 14.6536 8.00669 14.6536C11.6867 14.6536 14.6734 11.667 14.6734 7.98698H14.68ZM2.27336 7.98698C2.27336 4.82698 4.84669 2.25365 8.01336 2.25365C11.18 2.25365 13.7467 4.82698 13.7467 7.98698C13.7467 11.147 11.1734 13.7203 8.01336 13.7203C4.85336 13.7203 2.27336 11.1536 2.27336 7.98698Z" fill="#303030"/>
<path d="M5.15338 7.53125H10.8667V8.46458H5.15338V7.53125Z" fill="#303030"/>
</svg>
