<svg width="16" height="16" viewBox="0 0 16 16" fill="none" xmlns="http://www.w3.org/2000/svg">
<path d="M4.18 7.02927C4.76 7.02927 5.33333 6.8426 5.82666 6.49594L10.9467 11.6159L9.92667 12.6359L10.5867 13.2959L11.6067 12.2759L12.3 12.9693L11.28 13.9893L11.94 14.6493L12.96 13.6293L13.64 14.3093L14.3 13.6493L6.48666 5.83594C7.28666 4.7226 7.19333 3.16927 6.19333 2.16927C5.64 1.61594 4.90667 1.33594 4.18 1.33594C3.45333 1.33594 2.72 1.61594 2.16667 2.16927C1.05333 3.2826 1.05333 5.0826 2.16667 6.19594C2.72 6.74927 3.45333 7.02927 4.18 7.02927ZM2.82666 2.82927C3.18666 2.46927 3.66667 2.26927 4.18 2.26927C4.69333 2.26927 5.17333 2.46927 5.53333 2.82927C5.89333 3.18927 6.09333 3.66927 6.09333 4.1826C6.09333 4.69594 5.89333 5.17594 5.53333 5.53594C5.17333 5.89594 4.69333 6.09594 4.18 6.09594C3.66667 6.09594 3.18666 5.89594 2.82666 5.53594C2.46666 5.17594 2.26667 4.69594 2.26667 4.1826C2.26667 3.66927 2.46666 3.18927 2.82666 2.82927Z" fill="#303030"/>
</svg>
