<svg width="16" height="16" viewBox="0 0 16 16" fill="none" xmlns="http://www.w3.org/2000/svg">
<path d="M7.9999 1.30469C4.30657 1.30469 1.31323 4.29802 1.31323 7.99802C1.31323 11.698 4.30657 14.6914 7.9999 14.6914C11.6932 14.6914 14.6866 11.6914 14.6866 7.99802C14.6866 4.30469 11.6932 1.30469 7.9999 1.30469ZM7.9999 13.758C4.82657 13.758 2.24657 11.1714 2.24657 7.99802C2.24657 4.82469 4.82657 2.23802 7.9999 2.23802C11.1732 2.23802 13.7532 4.82469 13.7532 7.99802C13.7532 11.1714 11.1732 13.758 7.9999 13.758ZM6.02657 8.08469L6.9599 9.05802L6.1999 9.85135L4.2799 7.97135L6.1599 6.13135L6.8399 6.75802L7.47323 6.07135L6.14657 4.84469L2.9399 7.96469L6.2199 11.178L8.25323 9.06469L6.70657 7.43802L6.02657 8.08469ZM7.74657 6.93135L9.29323 8.55802L9.97323 7.91135L9.0399 6.93802L9.7999 6.14469L11.7199 8.02469L9.8399 9.86469L9.1599 9.23802L8.52657 9.92469L9.85323 11.1514L13.0599 8.03135L9.7799 4.81802L7.74657 6.93135Z" fill="#303030"/>
</svg>
