<svg width="16" height="16" viewBox="0 0 16 16" fill="none" xmlns="http://www.w3.org/2000/svg">
<path d="M1.34998 11.3249L6.26331 11.3116L8.03664 14.6582L9.78331 11.3116L14.6433 11.3249L14.6633 1.35156H1.34998V11.3249ZM2.28331 2.2849H13.73L13.71 10.3916L9.21664 10.3782L8.02997 12.6582L6.82331 10.3782L2.28331 10.3916V2.2849ZM7.40998 4.69156C7.56331 4.53823 7.78331 4.45823 8.06331 4.45823C8.28998 4.45823 8.45664 4.5049 8.57664 4.59823C8.69664 4.69156 8.75664 4.81823 8.75664 4.99156C8.75664 5.13156 8.71664 5.25156 8.62998 5.3649C8.54331 5.47156 8.40998 5.6049 8.22997 5.7649C8.07664 5.89823 7.95664 6.01156 7.86331 6.11823C7.76997 6.2249 7.68998 6.33823 7.62331 6.47156C7.55664 6.6049 7.52331 6.75823 7.52331 6.93156V7.1249H8.41664V6.9849C8.41664 6.87156 8.43664 6.77156 8.48331 6.67823C8.52997 6.5849 8.58331 6.49823 8.65664 6.4249C8.72331 6.35156 8.82331 6.25156 8.94331 6.13823C9.08997 6.0049 9.20997 5.8849 9.30997 5.77156C9.40331 5.6649 9.48997 5.53156 9.55664 5.39156C9.62331 5.25156 9.65664 5.0849 9.65664 4.9049C9.65664 4.55156 9.52997 4.27156 9.26998 4.05823C9.00998 3.8449 8.63664 3.7449 8.14997 3.7449C7.77664 3.7449 7.45664 3.81156 7.17664 3.93823C6.89664 4.07156 6.67664 4.25823 6.52331 4.49823C6.36998 4.73823 6.28331 5.0249 6.27664 5.35823H7.16997C7.18331 5.07156 7.26998 4.85156 7.42331 4.69823H7.40998V4.69156ZM7.52331 7.63156H8.45664V8.7449H7.52331V7.63156Z" fill="#303030"/>
</svg>
