<svg width="16" height="16" viewBox="0 0 16 16" fill="none" xmlns="http://www.w3.org/2000/svg">
<path d="M13.9534 7.37938V4.20604L11.0867 1.35938H3.49339V7.05938H4.42673V2.29271H10.1467V5.15937H13.0201V7.53271V13.726H4.42673V12.766H3.49339V14.6594H13.9601V7.37271H13.9534V7.37938ZM11.0867 4.22604V2.66604L12.6534 4.22604H11.0867ZM2.06006 8.17938H3.25339C4.02006 8.17938 4.63339 8.45271 4.63339 9.29938C4.63339 10.146 4.01339 10.4794 3.27339 10.4794H2.84673V11.6594H2.06006V8.18604V8.17938ZM3.22673 9.85271C3.66006 9.85271 3.86006 9.65938 3.86006 9.29938C3.86006 8.93937 3.62673 8.80604 3.20006 8.80604H2.84006V9.85271H3.22673ZM5.38006 8.17938H6.57339C7.34006 8.17938 7.95339 8.45271 7.95339 9.29938C7.95339 10.146 7.33339 10.4794 6.59339 10.4794H6.16673V11.6594H5.38006V8.18604V8.17938ZM6.54673 9.85271C6.98006 9.85271 7.18006 9.65938 7.18006 9.29938C7.18006 8.93937 6.94673 8.80604 6.52006 8.80604H6.16006V9.85271H6.54673ZM9.38673 8.83938H8.43339V8.17938H11.1334V8.83938H10.1801V11.6527H9.39339V8.83938H9.38673Z" fill="#303030"/>
</svg>
