<svg width="16" height="16" viewBox="0 0 16 16" fill="none" xmlns="http://www.w3.org/2000/svg">
<path d="M11.32 11.3454C12.1933 10.4588 12.6733 9.28542 12.6733 8.03208C12.6733 6.77875 12.1933 5.60542 11.32 4.71875L10.6533 5.37208C11.3533 6.07875 11.74 7.02542 11.74 8.03208C11.74 9.03875 11.3533 9.97875 10.66 10.6921L11.3267 11.3454H11.32Z" fill="#303030"/>
<path d="M9.60667 9.61958C10.0267 9.18625 10.26 8.61958 10.26 8.01292C10.26 7.40625 10.0267 6.83292 9.60667 6.40625L8.94 7.05958C9.19334 7.31292 9.32667 7.65292 9.32667 8.01292C9.32667 8.37292 9.18667 8.71292 8.94 8.96625L9.60667 9.61958Z" fill="#303030"/>
<path d="M12.7533 3.26448L12.0867 3.91781C13.16 5.01115 13.7533 6.46448 13.7533 8.00448C13.7533 9.54448 13.16 10.9978 12.0867 12.0911L12.7533 12.7445C14 11.4778 14.6867 9.79115 14.6867 8.00448C14.6867 6.21781 14 4.53115 12.7533 3.25781V3.26448Z" fill="#303030"/>
<path d="M7.98664 14.6815L7.99997 1.32812L4.17331 4.14812H1.31997L1.30664 11.8681H4.16664L7.99331 14.6881L7.98664 14.6815ZM2.24664 5.08146H4.47997L4.72664 4.90146L7.06664 3.18146V12.8415L4.71331 11.1148L4.46664 10.9348H2.23997V5.08146H2.24664Z" fill="#303030"/>
</svg>
