<svg width="16" height="16" viewBox="0 0 16 16" fill="none" xmlns="http://www.w3.org/2000/svg">
<path d="M1.35999 9.775C1.35999 10.5483 1.98665 11.175 2.75999 11.175C3.53332 11.175 4.15999 10.5483 4.15999 9.775V8.375H2.75999C1.98665 8.375 1.35999 9.00167 1.35999 9.775Z" fill="#303030"/>
<path d="M6.25339 8.38281C5.48006 8.38281 4.85339 9.00948 4.85339 9.78281V13.2761C4.85339 14.0495 5.48006 14.6761 6.25339 14.6761C7.02673 14.6761 7.65339 14.0495 7.65339 13.2761V9.78281C7.65339 9.00948 7.02673 8.38281 6.25339 8.38281Z" fill="#303030"/>
<path d="M6.25335 4.875H2.74668C1.97335 4.875 1.34668 5.50167 1.34668 6.275C1.34668 7.04833 1.97335 7.675 2.74668 7.675H6.25335C7.02668 7.675 7.65335 7.04833 7.65335 6.275C7.65335 5.50167 7.02668 4.875 6.25335 4.875Z" fill="#303030"/>
<path d="M6.25339 1.375C5.48006 1.375 4.85339 2.00167 4.85339 2.775C4.85339 3.54833 5.48006 4.175 6.25339 4.175H7.65339V2.775C7.65339 2.00167 7.02673 1.375 6.25339 1.375Z" fill="#303030"/>
<path d="M11.8534 6.275V7.675H13.2534C14.0267 7.675 14.6534 7.04833 14.6534 6.275C14.6534 5.50167 14.0267 4.875 13.2534 4.875C12.4801 4.875 11.8534 5.50167 11.8534 6.275Z" fill="#303030"/>
<path d="M9.75339 1.375C8.98006 1.375 8.35339 2.00167 8.35339 2.775V6.28167C8.35339 7.055 8.98006 7.68167 9.75339 7.68167C10.5267 7.68167 11.1534 7.055 11.1534 6.28167V2.775C11.1534 2.00167 10.5267 1.375 9.75339 1.375Z" fill="#303030"/>
<path d="M13.2601 8.38281H9.75339C8.98006 8.38281 8.35339 9.00948 8.35339 9.78281C8.35339 10.5561 8.98006 11.1828 9.75339 11.1828H13.2601C14.0334 11.1828 14.6601 10.5561 14.6601 9.78281C14.6601 9.00948 14.0334 8.38281 13.2601 8.38281Z" fill="#303030"/>
<path d="M9.75339 11.875H8.35339V13.275C8.35339 14.0483 8.98006 14.675 9.75339 14.675C10.5267 14.675 11.1534 14.0483 11.1534 13.275C11.1534 12.5017 10.5267 11.875 9.75339 11.875Z" fill="#303030"/>
</svg>
