<svg width="16" height="16" viewBox="0 0 16 16" fill="none" xmlns="http://www.w3.org/2000/svg">
<path d="M12.9266 5.99594C12.9266 5.99594 12.9132 5.95594 12.8999 5.93594L13.9199 4.50927L11.4799 2.06927L10.0532 3.08927C10.0532 3.08927 10.0132 3.07594 9.99323 3.0626L9.70656 1.33594H6.2599L5.97323 3.0626C5.97323 3.0626 5.93323 3.07594 5.91323 3.08927L4.48657 2.06927L2.04657 4.50927L3.06657 5.93594C3.06657 5.93594 3.04657 5.97594 3.0399 5.99594L1.31323 6.2826V9.72927L3.0399 10.0159C3.0399 10.0159 3.05323 10.0559 3.06657 10.0759L2.04657 11.5026L4.48657 13.9426L5.91323 12.9226C5.91323 12.9226 5.95323 12.9359 5.97323 12.9493L6.2599 14.6759H7.99323V13.7426H7.04657L6.7999 12.2559L6.5399 12.1626C6.37323 12.1093 6.2199 12.0359 6.06657 11.9626L5.8199 11.8426L4.59323 12.7159L3.27323 11.3959L4.14657 10.1693L4.02657 9.9226C3.95323 9.76927 3.88657 9.60927 3.82657 9.4426L3.73323 9.1826L2.24657 8.93594V7.06927L3.73323 6.8226L3.82657 6.5626C3.88657 6.39594 3.95323 6.2426 4.02657 6.0826L4.14657 5.83594L3.27323 4.60927L4.59323 3.28927L5.8199 4.1626L6.07323 4.0426C6.22657 3.96927 6.38657 3.9026 6.54657 3.8426L6.80657 3.74927L7.05323 2.2626H8.9199L9.16657 3.74927L9.42657 3.8426C9.59323 3.9026 9.74656 3.96927 9.8999 4.0426L10.1532 4.1626L11.3799 3.28927L12.6999 4.60927L11.8266 5.83594L11.9466 6.0826C12.0199 6.23594 12.0866 6.39594 12.1466 6.5626L12.2399 6.8226L13.7266 7.06927V7.9826H14.6666L14.6532 6.27594L12.9332 5.98927L12.9266 5.99594ZM8.00657 6.59594C7.22657 6.59594 6.59323 7.23594 6.59323 8.00927C6.59323 8.7826 7.23323 9.4226 8.00657 9.4226V8.00927H9.4199C9.4199 7.22927 8.7799 6.59594 8.00657 6.59594ZM11.2866 8.94927V9.47594C10.9866 9.53594 10.6932 9.65594 10.4332 9.83594L10.0666 9.46927L9.40657 10.1293L9.77323 10.4959C9.5999 10.7559 9.48657 11.0426 9.42657 11.3426H8.90657V12.2759H9.42657C9.48657 12.5759 9.60657 12.8626 9.77323 13.1159L9.40657 13.4826L10.0666 14.1426L10.4332 13.7759C10.6932 13.9559 10.9866 14.0693 11.2866 14.1359V14.6626H12.2199V14.1493C12.5199 14.0893 12.8132 13.9759 13.0799 13.8026L13.4466 14.1693L14.1066 13.5093L13.7399 13.1426C13.9199 12.8759 14.0399 12.5826 14.0999 12.2826H14.6199V11.3493H14.0999C14.0399 11.0426 13.9199 10.7493 13.7399 10.4826L14.1066 10.1159L13.4466 9.45594L13.0799 9.8226C12.8132 9.64927 12.5199 9.52927 12.2199 9.46927V8.95594H11.2866V8.94927ZM10.7399 10.7826C11.0199 10.5026 11.3932 10.3559 11.7666 10.3559C12.1399 10.3559 12.5066 10.4959 12.7932 10.7826C13.3599 11.3493 13.3599 12.2693 12.7932 12.8359C12.2266 13.4026 11.2932 13.3826 10.7399 12.8359C10.1732 12.2693 10.1732 11.3493 10.7399 10.7826Z" fill="#303030"/>
</svg>
