<svg width="16" height="16" viewBox="0 0 16 16" fill="none" xmlns="http://www.w3.org/2000/svg">
<path d="M5.12 6.40958C4.26 6.40958 3.56 7.10958 3.56 7.96958C3.56 8.82958 4.26 9.52958 5.12 9.52958C5.98 9.52958 6.68 8.82958 6.68 7.96958C6.68 7.10958 5.98 6.40958 5.12 6.40958ZM10.8733 4.77625C11.7333 4.77625 12.4333 4.07625 12.4333 3.21625C12.4333 2.35625 11.7333 1.65625 10.8733 1.65625C10.0133 1.65625 9.31333 2.35625 9.31333 3.21625C9.31333 4.07625 10.0133 4.77625 10.8733 4.77625ZM10.8733 11.2163C10.0133 11.2163 9.31333 11.9163 9.31333 12.7763C9.31333 13.6363 10.0133 14.3363 10.8733 14.3363C11.7333 14.3363 12.4333 13.6363 12.4333 12.7763C12.4333 11.9163 11.7333 11.2163 10.8733 11.2163ZM5.12 4.64292C4.33333 4.64292 3.69333 4.00292 3.69333 3.21625C3.69333 2.42958 4.33333 1.78958 5.12 1.78958C5.90666 1.78958 6.54666 2.42958 6.54666 3.21625C6.54666 4.00292 5.90666 4.64292 5.12 4.64292ZM5.12 2.44958C4.7 2.44958 4.36 2.78958 4.36 3.20958C4.36 3.62958 4.7 3.96958 5.12 3.96958C5.54 3.96958 5.88 3.62958 5.88 3.20958C5.88 2.78958 5.54 2.44958 5.12 2.44958ZM5.12 14.2029C4.33333 14.2029 3.69333 13.5629 3.69333 12.7763C3.69333 11.9896 4.33333 11.3496 5.12 11.3496C5.90666 11.3496 6.54666 11.9896 6.54666 12.7763C6.54666 13.5629 5.90666 14.2029 5.12 14.2029ZM5.12 12.0096C4.7 12.0096 4.36 12.3496 4.36 12.7696C4.36 13.1896 4.7 13.5296 5.12 13.5296C5.54 13.5296 5.88 13.1896 5.88 12.7696C5.88 12.3496 5.54 12.0096 5.12 12.0096ZM10.8733 9.39625C10.0867 9.39625 9.44666 8.75625 9.44666 7.96958C9.44666 7.18292 10.0867 6.54292 10.8733 6.54292C11.66 6.54292 12.3 7.18292 12.3 7.96958C12.3 8.75625 11.66 9.39625 10.8733 9.39625ZM10.8733 7.20292C10.4533 7.20292 10.1133 7.54292 10.1133 7.96292C10.1133 8.38292 10.4533 8.72292 10.8733 8.72292C11.2933 8.72292 11.6333 8.38292 11.6333 7.96292C11.6333 7.54292 11.2933 7.20292 10.8733 7.20292Z" fill="#303030"/>
</svg>
