<svg width="16" height="16" viewBox="0 0 16 16" fill="none" xmlns="http://www.w3.org/2000/svg">
<path d="M2.05999 11.8698L3.07999 10.4431C3.07999 10.4431 3.06666 10.4031 3.05333 10.3831L1.32666 10.0965V6.64979L3.05333 6.36312C3.05333 6.36312 3.06666 6.32312 3.07999 6.30312L2.05999 4.87646L4.49999 2.43646L5.92666 3.45646C5.92666 3.45646 5.96666 3.43646 5.98666 3.42979L6.27333 1.70312H9.71999L10.0067 3.42979C10.0067 3.42979 10.0467 3.44313 10.0667 3.45646L11.4933 2.43646L13.9333 4.87646L12.9133 6.30312C12.9133 6.30312 12.9333 6.34312 12.94 6.36312L14.66 6.64979L14.6733 8.34979H13.74V7.44312L12.2467 7.19646L12.1533 6.93646C12.1 6.76979 12.0333 6.61646 11.9533 6.46312L11.8333 6.21646L12.7067 4.98979L11.3867 3.66979L10.16 4.54312L9.91333 4.42312C9.75999 4.34979 9.59999 4.28312 9.43333 4.22312L9.17333 4.12979L8.92666 2.64979H7.05999L6.81333 4.12979L6.55333 4.22312C6.38666 4.28312 6.23333 4.34979 6.07333 4.42312L5.82666 4.54312L4.59999 3.66979L3.27999 4.98979L4.15333 6.21646L4.03333 6.46979C3.95999 6.62312 3.89333 6.78312 3.83333 6.94312L3.73999 7.20312L2.25333 7.44979V9.31646L3.73999 9.56312L3.83333 9.82312C3.88666 9.98312 3.95333 10.1431 4.03333 10.2965L4.15333 10.5498L3.27999 11.7765L4.59999 13.0965L5.82666 12.2231L6.07333 12.3431C6.22666 12.4165 6.38666 12.4831 6.55333 12.5431L6.24666 13.4231C6.13999 13.3831 6.03333 13.3431 5.92666 13.2965L4.49999 14.3165L2.05999 11.8765V11.8698ZM8.33333 13.1365H7.67999L8.39333 10.2765H9.28666L10.0533 13.1365H9.39333L9.24666 12.5098H8.46666L8.32666 13.1365H8.33333ZM8.57333 12.0165H9.13999L8.85333 10.7698L8.57999 12.0165H8.57333ZM12.4067 11.2165C12.4067 11.7898 12.08 12.1631 11.3533 12.1631H11.06V13.1298H10.4133V10.2698H11.3533C12.08 10.2698 12.4067 10.6431 12.4067 11.2165ZM11.7733 11.2298C11.7733 10.9431 11.62 10.8365 11.3067 10.8365H11.06V11.6431H11.3067C11.62 11.6431 11.7733 11.5165 11.7733 11.2298ZM14.6667 10.8031V10.2765H12.9267V10.8031H13.4733V12.6031H12.9267V13.1298H14.6667V12.6031H14.12V10.8031H14.6667ZM8.00666 8.38312H9.41999C9.41999 7.60313 8.77999 6.96979 8.00666 6.96979C7.23333 6.96979 6.59333 7.60979 6.59333 8.38312C6.59333 9.15646 7.23333 9.79646 8.00666 9.79646V8.38312Z" fill="#303030"/>
</svg>
