<svg width="16" height="16" viewBox="0 0 16 16" fill="none" xmlns="http://www.w3.org/2000/svg">
<path d="M2.76001 3.34031V8.86698C2.76001 13.1403 7.69334 14.5803 7.90001 14.6403L8.02668 14.6736L8.15334 14.6403C8.36001 14.5803 13.2467 13.1403 13.2467 8.86698V3.34031L8.03334 1.32031L2.76668 3.34031H2.76001ZM12.3067 8.86698C12.3067 12.0803 8.74668 13.4536 8.02001 13.7003C7.28668 13.4536 3.68668 12.0803 3.68668 8.86698V3.98031L8.02001 2.32031L12.3067 3.98031V8.86698ZM6.61334 7.26698C6.61334 7.88698 7.01334 8.40698 7.56668 8.60031V10.1403H8.50001V8.59365C9.04668 8.40031 9.44001 7.88031 9.44001 7.26698C9.44001 6.48698 8.80668 5.85365 8.02668 5.85365C7.24668 5.85365 6.61334 6.48698 6.61334 7.26698Z" fill="#303030"/>
</svg>
