<svg width="16" height="16" viewBox="0 0 16 16" fill="none" xmlns="http://www.w3.org/2000/svg">
<path d="M8.83329 8.28073C9.01329 8.3874 9.22662 8.4474 9.47329 8.4474C9.71995 8.4474 9.92662 8.3874 10.1066 8.27406C10.2866 8.16073 10.4266 8.00073 10.52 7.8074C10.62 7.61406 10.6666 7.40073 10.6666 7.18073C10.6666 6.96073 10.62 6.73406 10.5333 6.5474C10.44 6.35406 10.3066 6.2074 10.1266 6.0874C9.94662 5.97406 9.73329 5.91406 9.48662 5.91406C9.23995 5.91406 9.03329 5.97406 8.85329 6.0874C8.67329 6.20073 8.53329 6.35406 8.43329 6.55406C8.33329 6.7474 8.28662 6.9674 8.28662 7.20073C8.28662 7.43406 8.33329 7.6474 8.42662 7.83406C8.51995 8.0274 8.65329 8.17406 8.83329 8.28073Z" fill="#303030"/>
<path d="M6.45996 10.0401C6.81996 10.0401 7.09329 9.91344 7.27996 9.66677C7.45996 9.4201 7.55329 9.0801 7.55329 8.6601C7.55329 8.2401 7.45996 7.9001 7.27996 7.64677C7.09329 7.39344 6.81996 7.27344 6.45996 7.27344C6.09996 7.27344 5.83329 7.4001 5.64662 7.64677C5.46662 7.9001 5.37329 8.23344 5.37329 8.6601C5.37329 9.08677 5.46662 9.4201 5.64662 9.66677C5.82662 9.91344 6.09996 10.0401 6.45996 10.0401Z" fill="#303030"/>
<path d="M1.32666 14.6693H14.6733V1.33594H1.32666V14.6693ZM4.91333 7.67594C5.05333 7.38927 5.25999 7.16927 5.52666 7.00927C5.79333 6.84927 6.09999 6.76927 6.45999 6.76927C6.69333 6.76927 6.90666 6.8026 7.10666 6.87594C7.30666 6.94927 7.47333 7.04927 7.61333 7.1826C7.61999 6.8026 7.71333 6.4826 7.88666 6.21594C8.05999 5.94927 8.28666 5.74927 8.55999 5.61594C8.83999 5.4826 9.14666 5.41594 9.47999 5.41594C9.85999 5.41594 10.18 5.48927 10.4533 5.6426C10.7267 5.79594 10.94 6.00927 11.0867 6.27594C11.2333 6.54927 11.3067 6.84927 11.3067 7.1826C11.3067 7.46927 11.2467 7.74927 11.1267 8.00927C11.0067 8.27594 10.8533 8.51594 10.6667 8.7426L9.25333 10.4759H8.47999L9.99333 8.7026C9.80666 8.81594 9.59333 8.87594 9.34666 8.87594C9.12666 8.87594 8.91333 8.8426 8.72666 8.77594C8.53333 8.70927 8.36666 8.6226 8.22666 8.5026V8.65594C8.22666 9.0226 8.15333 9.34927 8.00666 9.63594C7.85999 9.9226 7.65333 10.1493 7.38666 10.3093C7.11999 10.4693 6.81333 10.5559 6.45999 10.5559C6.10666 10.5559 5.79333 10.4759 5.52666 10.3159C5.25999 10.1559 5.05999 9.92927 4.91333 9.6426C4.77333 9.35594 4.69999 9.02927 4.69999 8.65594C4.69999 8.2826 4.77333 7.95594 4.91333 7.66927V7.67594Z" fill="#303030"/>
</svg>
