<svg width="16" height="16" viewBox="0 0 16 16" fill="none" xmlns="http://www.w3.org/2000/svg">
<path d="M1.97998 14.6637H7.21331V13.7304H2.91331V10.5371H7.21331V9.60375H2.91331V6.41042H11.5V7.95708H12.4333V1.34375H1.97998V14.6571V14.6637ZM11.5066 2.27708V5.47042H2.91331V2.27708H11.5066ZM5.27998 4.18375H4.32665V3.25042H5.27998V4.18375ZM4.32665 8.46375V7.53042H5.27998V8.46375H4.32665ZM4.32665 12.5171V11.5838H5.27998V12.5171H4.32665ZM9.51998 11.4438C9.12665 11.4438 8.72665 11.5971 8.42665 11.8971C7.81998 12.5037 7.81998 13.4771 8.42665 14.0838C8.72665 14.3838 9.12665 14.5371 9.51998 14.5371C9.91331 14.5371 10.3133 14.3838 10.6133 14.0838C11.1 13.5971 11.1866 12.8638 10.8866 12.2838L11.58 11.5904L11.98 11.9904L12.64 11.3304L12.24 10.9304L12.6066 10.5638L13.3666 11.3237L14.0266 10.6637L12.6066 9.24375L10.2266 11.6238C10.0066 11.5104 9.76665 11.4438 9.51998 11.4438ZM9.95331 13.4237C9.83998 13.5371 9.68665 13.6038 9.51998 13.6038C9.35331 13.6038 9.19998 13.5371 9.08665 13.4237C8.84665 13.1837 8.84665 12.7971 9.08665 12.5571C9.19998 12.4438 9.35331 12.3771 9.51998 12.3771C9.68665 12.3771 9.83998 12.4438 9.95331 12.5571C10.1933 12.7971 10.1933 13.1837 9.95331 13.4237Z" fill="#303030"/>
</svg>
