<svg width="16" height="16" viewBox="0 0 16 16" fill="none" xmlns="http://www.w3.org/2000/svg">
<path d="M9.0735 7.98802L9.3335 8.78135H8.3535L8.18684 8.27469L7.9735 7.63469L8.52684 7.23469L9.58017 6.46135H7.5935L7.38684 5.82135L6.98017 4.57469L6.58017 5.82135L6.36684 6.46135H4.38017L5.44017 7.23469L5.98684 7.63469L5.78017 8.27469L5.3735 9.52135L6.4335 8.75469L6.98017 8.35469L7.5335 8.75469L7.76684 8.92135L3.60017 11.9547L4.8935 7.98802L1.50684 5.52802H5.6935L6.98017 1.55469L8.2735 5.52802H12.4535L9.0735 7.98802ZM7.58017 13.5814C8.36017 13.5814 8.8135 13.1814 8.8135 12.5214C8.8135 11.9814 8.50017 11.7147 7.78017 11.5014C7.2735 11.3547 7.1335 11.2347 7.1335 11.0347C7.1335 10.8214 7.2935 10.6947 7.54017 10.6947C7.8135 10.6947 7.98684 10.848 8.02017 11.1547H8.74017C8.74017 10.528 8.28684 10.1147 7.5735 10.1147C6.86017 10.1147 6.3935 10.5147 6.3935 11.1147C6.3935 11.588 6.66684 11.888 7.3335 12.0814C7.9135 12.2547 8.06017 12.3547 8.06017 12.6014C8.06017 12.828 7.88017 12.9747 7.62017 12.9747C7.28684 12.9747 7.08684 12.7814 7.0535 12.468H6.32017C6.32017 13.1347 6.78017 13.588 7.58017 13.588V13.5814ZM11.2935 14.4214L11.7668 13.9614L11.1135 13.4214C11.5735 13.148 11.7668 12.5614 11.7668 11.8347C11.7668 10.8547 11.3868 10.1147 10.4735 10.1147C9.56017 10.1147 9.18017 10.8547 9.18017 11.8347C9.18017 12.8147 9.5735 13.568 10.4535 13.5814L11.2935 14.4214ZM10.4802 12.928C10.1468 12.928 9.9735 12.568 9.9735 11.828C9.9735 11.088 10.1402 10.7547 10.4802 10.7547C10.8402 10.7547 10.9802 11.1147 10.9802 11.828C10.9802 12.5414 10.8402 12.928 10.4802 12.928ZM12.3402 13.5147H14.5335V12.868H13.0935V10.1814H12.3402V13.5214V13.5147Z" fill="#303030"/>
</svg>
