<svg width="16" height="16" viewBox="0 0 16 16" fill="none" xmlns="http://www.w3.org/2000/svg">
<path d="M8.46669 9.61292V4.90625H7.53336V9.61292C7.04003 9.79958 6.69336 10.2729 6.69336 10.8329C6.69336 11.5529 7.28003 12.1396 8.00003 12.1396C8.72003 12.1396 9.30669 11.5529 9.30669 10.8329C9.30669 10.2729 8.96003 9.80625 8.46669 9.61292Z" fill="#303030"/>
<path d="M5.64671 1.35156V7.95156C4.74671 8.6649 4.21338 9.75156 4.21338 10.9049C4.21338 12.9849 5.90671 14.6782 7.98671 14.6782C10.0667 14.6782 11.76 12.9849 11.76 10.9049C11.76 9.77823 11.2467 8.7049 10.3734 7.99156V1.35156H5.64671ZM10.8267 10.9049C10.8267 12.4716 9.55338 13.7449 7.98671 13.7449C6.42005 13.7449 5.14671 12.4716 5.14671 10.9049C5.14671 9.97156 5.60671 9.09823 6.38005 8.5649L6.58005 8.4249V2.2849H9.44005V8.45823L9.63338 8.59823C10.38 9.13156 10.8267 9.99823 10.8267 10.9049Z" fill="#303030"/>
</svg>
