<svg width="16" height="16" viewBox="0 0 16 16" fill="none" xmlns="http://www.w3.org/2000/svg">
<path d="M7.28338 13.7237H2.98338V10.5304H7.28338V9.59708H2.98338V6.40375H11.5767V7.95042H12.51V1.34375H2.05005V14.6571H7.28338V13.7237ZM11.5767 2.27708V5.47042H2.98338V2.27708H11.5767ZM5.35672 4.18375H4.40338V3.25042H5.35672V4.18375ZM4.40338 8.46375V7.53042H5.35672V8.46375H4.40338ZM4.40338 12.5171V11.5837H5.35672V12.5171H4.40338ZM11.7967 8.69042C10.5767 8.69042 9.59005 9.67708 9.59005 10.8971C9.59005 11.3371 9.72338 11.7437 9.94338 12.0904L8.05005 13.9837L8.71005 14.6437L10.6034 12.7504C10.95 12.9771 11.3567 13.1037 11.8034 13.1037C13.0234 13.1037 14.01 12.1171 14.01 10.8971C14.01 9.67708 13.0234 8.69042 11.8034 8.69042H11.7967ZM11.7967 12.1704C11.09 12.1704 10.5234 11.5971 10.5234 10.8971C10.5234 10.1971 11.0967 9.62375 11.7967 9.62375C12.4967 9.62375 13.07 10.1971 13.07 10.8971C13.07 11.5971 12.4967 12.1704 11.7967 12.1704Z" fill="#303030"/>
</svg>
