<svg width="16" height="16" viewBox="0 0 16 16" fill="none" xmlns="http://www.w3.org/2000/svg">
<path d="M11.7866 2.04688H10.8533V3.52688H5.13992V2.04688H4.20659V3.52688H1.33325V13.9469H14.6599V3.52021H11.7933V2.04688H11.7866ZM2.26659 13.0135V6.78688H13.7266V13.0069H2.26659V13.0135ZM13.7199 4.45354V5.84688H2.26659V4.45354H4.21325V4.88688H5.14659V4.45354H10.8599V4.88688H11.7933V4.45354H13.7266H13.7199ZM5.61325 8.26021H6.55325V9.20021H5.61325V8.26021ZM7.53325 8.26021H8.47325V9.20021H7.53325V8.26021ZM9.42659 8.26021H10.3666V9.20021H9.42659V8.26021ZM5.61325 10.1602H6.55325V11.1002H5.61325V10.1602ZM7.53325 10.1602H8.47325V11.1002H7.53325V10.1602ZM9.42659 10.1602H10.3666V11.1002H9.42659V10.1602Z" fill="#303030"/>
</svg>
