<svg width="16" height="16" viewBox="0 0 16 16" fill="none" xmlns="http://www.w3.org/2000/svg">
<path d="M5.39323 7.02427C5.19323 7.40427 5.08657 7.8376 5.0799 8.2976C5.0799 9.89094 6.3799 11.1843 7.99323 11.1843H7.9999C8.45323 11.1843 8.88657 11.0843 9.26657 10.8976L8.54657 10.1776C8.36657 10.2243 8.18657 10.2509 7.99323 10.2509C6.8999 10.2509 6.01323 9.37094 6.01323 8.2976C6.01323 8.10427 6.04657 7.9176 6.10657 7.7376L5.39323 7.02427ZM7.99323 12.7509C5.71323 12.7443 3.56657 11.0576 2.33323 8.3176C2.81323 7.2976 3.4199 6.43094 4.11323 5.74427L3.44657 5.0776C2.58657 5.9376 1.85323 7.0376 1.31323 8.31094C2.6199 11.5109 5.1199 13.6776 7.99323 13.6843H8.01323C9.11323 13.6843 10.1666 13.3443 11.1132 12.7443L10.4332 12.0643C9.6599 12.5109 8.83323 12.7509 7.99323 12.7509ZM7.99323 3.05094H7.97323C6.89323 3.05094 5.86657 3.36427 4.92657 3.92427L2.71323 1.71094L2.05323 2.37094L13.9666 14.2843L14.6266 13.6243L12.5599 11.5576C13.4199 10.6776 14.1532 9.56427 14.6932 8.31094C13.3866 5.08427 10.8799 3.06427 7.99323 3.05094ZM9.88657 8.89094L7.45323 6.4576C7.63323 6.40427 7.8199 6.37094 8.01323 6.37094C9.10657 6.37094 9.99323 7.25094 9.98657 8.3176C9.98657 8.5176 9.94657 8.71094 9.88657 8.89094ZM10.5999 9.5976C10.7999 9.21094 10.9199 8.7776 10.9199 8.3176C10.9266 6.72427 9.62657 5.43094 8.01323 5.42427H7.9999C7.5399 5.42427 7.11323 5.54427 6.72657 5.73094L5.61323 4.6176C6.36657 4.21094 7.17323 3.99094 7.98657 3.99094C9.17323 3.99094 10.2866 4.3976 11.2599 5.1376C12.2332 5.8776 13.0599 6.95094 13.6666 8.2976C13.1866 9.33094 12.5799 10.2109 11.8999 10.9043L10.5932 9.5976H10.5999Z" fill="#303030"/>
</svg>
