<svg width="16" height="16" viewBox="0 0 16 16" fill="none" xmlns="http://www.w3.org/2000/svg">
<path d="M9.82002 1.42969L1.43335 9.81635L6.18002 14.563L14.5667 6.17635L9.82002 1.42969ZM2.75335 9.81635L3.26002 9.30969L4.99335 11.043L5.65335 10.383L3.92002 8.64969L4.60002 7.96969L6.80002 10.1697L7.46002 9.50969L5.26002 7.30969L5.96002 6.60969L7.68668 8.33635L8.34668 7.67635L6.62002 5.94969L7.30002 5.26969L9.50002 7.46969L10.16 6.80969L7.96002 4.60969L8.64002 3.92969L10.3934 5.68302L11.0534 5.02302L9.30002 3.26969L9.81335 2.75635L13.24 6.18302L6.17335 13.2497L2.74668 9.82302L2.75335 9.81635Z" fill="#303030"/>
</svg>
