<svg width="16" height="16" viewBox="0 0 16 16" fill="none" xmlns="http://www.w3.org/2000/svg">
<path d="M8.00003 1.34375C4.32003 1.34375 1.34003 4.32375 1.34003 8.00375C1.34003 11.6838 4.32003 14.6637 8.00003 14.6637C11.68 14.6637 14.66 11.6838 14.66 8.00375C14.66 6.16375 13.9134 4.49708 12.7067 3.29042C11.5 2.08375 9.84003 1.34375 8.00003 1.34375ZM13.7067 7.53042H11.2667C11.06 6.08375 9.92003 4.94375 8.47336 4.73042V2.29708C9.82669 2.40375 11.08 2.98375 12.0467 3.95042C13.02 4.91708 13.5934 6.17708 13.7067 7.53042ZM7.99336 10.3837C6.68003 10.3837 5.61336 9.31708 5.61336 7.99708C5.61336 6.67708 6.68003 5.61708 7.99336 5.61708C9.30669 5.61708 10.38 6.68375 10.38 7.99708C10.38 9.31042 9.31336 10.3837 7.99336 10.3837ZM2.27336 8.00375C2.27336 5.00375 4.60003 2.53708 7.54003 2.29708V4.72375C5.92669 4.95042 4.68003 6.32375 4.68003 7.99708C4.68003 9.82375 6.16669 11.3171 7.99336 11.3171C8.74003 11.3171 9.42003 11.0571 9.98003 10.6438L11.7067 12.3704C10.7067 13.2238 9.41336 13.7371 8.00003 13.7371C4.84003 13.7371 2.27336 11.1704 2.27336 8.01042V8.00375ZM12.3667 11.7037L10.64 9.97708C10.9667 9.54375 11.1867 9.02375 11.2667 8.46375H13.7067C13.6067 9.69708 13.12 10.8171 12.3667 11.7037Z" fill="#303030"/>
</svg>
