<svg width="16" height="16" viewBox="0 0 16 16" fill="none" xmlns="http://www.w3.org/2000/svg">
<path d="M5.14001 3.74583V2.8125H1.34668V13.1592H6.86668L6.18668 13.8325L6.84668 14.4925L8.65335 12.6858L6.84001 10.8725L6.18001 11.5325L6.87335 12.2258H2.28001V3.74583H5.14001Z" fill="#303030"/>
<path d="M9.8133 2.12875L9.1533 1.46875L7.33997 3.28208L9.1533 5.09542L9.8133 4.43542L9.11997 3.74208H13.72V12.2154H10.8533V13.1487H14.6533V2.80875H9.1333L9.8133 2.12875Z" fill="#303030"/>
<path d="M8.67999 10.1527V5.85938H7.70666C7.70666 5.98604 7.69333 6.07938 7.67999 6.14604C7.65999 6.20604 7.62666 6.25271 7.58666 6.27271C7.54666 6.29271 7.47999 6.30604 7.39333 6.30604H6.82666V7.11271H7.70666V10.146H8.67999V10.1527Z" fill="#303030"/>
</svg>
