<svg width="16" height="16" viewBox="0 0 16 16" fill="none" xmlns="http://www.w3.org/2000/svg">
<path d="M13.2066 9.22573C13.2266 9.04573 13.2399 8.8724 13.2399 8.70573C13.2399 6.51906 11.9066 4.61906 9.89995 3.83906C9.84661 2.83906 9.02661 2.03906 8.01328 2.03906C6.99995 2.03906 6.17995 2.83906 6.12661 3.8324C4.11328 4.60573 2.77328 6.5124 2.77328 8.69906C2.77328 8.86573 2.78661 9.0324 2.80661 9.20573C2.20661 9.5324 1.81995 10.1524 1.81995 10.8524C1.81995 11.8991 2.67328 12.7457 3.71328 12.7457C3.98661 12.7457 4.25328 12.6791 4.49995 12.5657C5.46661 13.4391 6.69328 13.9257 8.00661 13.9257C9.31995 13.9257 10.5399 13.4457 11.4999 12.5724C11.7399 12.6791 11.9999 12.7457 12.2666 12.7457C13.3133 12.7457 14.1599 11.8924 14.1599 10.8524C14.1599 10.1591 13.7866 9.54573 13.1999 9.21906L13.2066 9.22573ZM8.00661 2.97906C8.53995 2.97906 8.96661 3.4124 8.96661 3.93906C8.96661 3.97906 8.95995 4.01906 8.95328 4.05906V4.07906C8.87995 4.5524 8.47995 4.89906 8.00661 4.89906C7.53328 4.89906 7.13328 4.5524 7.05995 4.07906V4.06573C7.05995 4.02573 7.04661 3.97906 7.04661 3.93906C7.04661 3.40573 7.47995 2.97906 8.00661 2.97906ZM2.75328 10.8657C2.75328 10.4391 3.03328 10.0724 3.43995 9.9524C3.54661 9.91906 3.62661 9.90573 3.70661 9.90573C4.23995 9.90573 4.66661 10.3391 4.66661 10.8657C4.66661 11.1657 4.52661 11.4457 4.27995 11.6324C4.10661 11.7591 3.91328 11.8257 3.70661 11.8257C3.17328 11.8257 2.74661 11.3924 2.74661 10.8657H2.75328ZM10.7599 12.0057C9.98661 12.6524 9.02661 13.0057 8.00661 13.0057C6.98661 13.0057 6.01328 12.6457 5.23328 11.9924C5.29995 11.9057 5.35328 11.8124 5.39995 11.7191C5.40661 11.6991 5.41328 11.6857 5.41995 11.6657C5.46661 11.5657 5.50661 11.4591 5.53328 11.3524C5.53995 11.3191 5.55328 11.2857 5.55995 11.2524C5.58661 11.1257 5.60661 10.9991 5.60661 10.8657C5.60661 10.7324 5.59328 10.6057 5.56661 10.4857C5.51328 10.2391 5.41995 10.0124 5.27995 9.8124C5.21328 9.7124 5.13995 9.62573 5.05328 9.53906C5.05328 9.53906 5.05328 9.53906 5.04661 9.5324C4.98661 9.4724 4.91328 9.41906 4.83995 9.36573C4.81328 9.34573 4.79328 9.31906 4.76661 9.30573C4.70661 9.26573 4.63995 9.2324 4.57328 9.19906C4.53328 9.17906 4.49328 9.14573 4.44661 9.13239C4.39328 9.11239 4.33328 9.09906 4.27995 9.07906C4.21995 9.05906 4.15995 9.03239 4.09328 9.01906C4.03995 9.00573 3.98661 9.00573 3.93328 9.00573C3.85995 8.99906 3.78661 8.98573 3.71328 8.98573C3.71328 8.89906 3.70661 8.80573 3.70661 8.72573C3.70661 6.98573 4.73328 5.44573 6.29995 4.77906C6.60661 5.42573 7.25328 5.85906 8.00661 5.85906C8.75995 5.85906 9.40661 5.4324 9.71328 4.78573C11.2799 5.45906 12.2999 6.9924 12.2999 8.7324C12.2999 8.81906 12.2999 8.90573 12.2933 8.9924C11.2399 9.0124 10.3733 9.8324 10.3733 10.8857C10.3733 11.2991 10.5133 11.6991 10.7599 12.0257V12.0057ZM12.2733 11.8257C12.0733 11.8257 11.8799 11.7591 11.7066 11.6391C11.4533 11.4524 11.3066 11.1724 11.3066 10.8657C11.3066 10.3324 11.7399 9.90573 12.2666 9.90573C12.3533 9.90573 12.4466 9.91906 12.5533 9.95906C12.9533 10.0857 13.2266 10.4524 13.2266 10.8724C13.2266 11.4057 12.7933 11.8324 12.2666 11.8324L12.2733 11.8257Z" fill="#303030"/>
</svg>
