<svg width="16" height="16" viewBox="0 0 16 16" fill="none" xmlns="http://www.w3.org/2000/svg">
<path d="M5.64001 13.5234H10.3867V14.4568H5.64001V13.5234Z" fill="#303030"/>
<path d="M10.3733 12.5667H5.61997V11.2134C3.84664 10.3134 2.71997 8.48675 2.71997 6.48008C2.71997 4.70008 3.60664 3.04675 5.0933 2.06008C5.22664 1.96675 5.3733 1.88008 5.52664 1.79341C6.89997 1.05341 8.63997 0.966748 10.08 1.57341C10.2533 1.64675 10.4133 1.72008 10.5733 1.81341C12.28 2.74008 13.3533 4.52675 13.3533 6.48008C13.3533 8.43341 12.1933 10.3667 10.3733 11.2534V12.5667ZM6.5533 11.6267H9.43997V10.6401L9.72664 10.5201C11.3666 9.83342 12.42 8.24675 12.42 6.48008C12.42 4.87341 11.54 3.40008 10.1266 2.62675C9.9933 2.55341 9.85997 2.49341 9.72664 2.43341C8.54664 1.94008 7.1133 2.00008 5.9733 2.61341C5.84664 2.68008 5.7333 2.75341 5.61997 2.82675C4.38664 3.64675 3.6533 5.00675 3.6533 6.47341C3.6533 8.21341 4.67997 9.78675 6.2733 10.4867L6.5533 10.6067V11.6201V11.6267Z" fill="#303030"/>
<path d="M7.19999 8.7974L5.32666 6.93073L5.98666 6.27073L7.19999 7.4774L10.0133 4.66406L10.6733 5.32406L7.19999 8.7974Z" fill="#303030"/>
</svg>
