<svg width="16" height="16" viewBox="0 0 16 16" fill="none" xmlns="http://www.w3.org/2000/svg">
<path d="M5.12671 14.6427C3.03337 14.6427 1.33337 12.9494 1.33337 10.876C1.33337 8.80271 3.03337 7.10938 5.12671 7.10938C7.22004 7.10938 8.92004 8.80271 8.92004 10.876C8.92004 12.9494 7.22004 14.6427 5.12671 14.6427ZM5.12671 8.03604C3.55337 8.03604 2.26671 9.30937 2.26671 10.8694C2.26671 12.4294 3.54671 13.7027 5.12671 13.7027C6.70671 13.7027 7.98671 12.4294 7.98671 10.8694C7.98671 9.30937 6.70671 8.03604 5.12671 8.03604Z" fill="#303030"/>
<path d="M8.00007 4.20312C7.26007 4.20312 6.5534 4.41646 5.9534 4.80313C5.50007 5.08979 5.10674 5.46979 4.82007 5.92313L5.50007 6.60312C5.98674 5.70312 6.9534 5.13646 8.00007 5.13646C9.58007 5.13646 10.8667 6.40979 10.8667 7.98312C10.8667 9.04979 10.2667 9.98979 9.3734 10.4765L10.0534 11.1565C11.1067 10.4898 11.8001 9.31646 11.8001 7.98312C11.8001 5.89646 10.0934 4.20312 8.00007 4.20312Z" fill="#303030"/>
<path d="M10.8868 1.39062C9.58675 1.39062 8.43342 2.04396 7.75342 3.03729L8.42675 3.71063C8.92675 2.88396 9.84675 2.32396 10.8868 2.32396C12.4601 2.32396 13.7401 3.59729 13.7401 5.15729C13.7401 6.20396 13.1668 7.11729 12.3201 7.60396L12.5801 7.86396L13.0001 8.28396C14.0068 7.61063 14.6734 6.45729 14.6734 5.15729C14.6734 3.08396 12.9734 1.39062 10.8868 1.39062Z" fill="#303030"/>
</svg>
