<svg width="16" height="16" viewBox="0 0 16 16" fill="none" xmlns="http://www.w3.org/2000/svg">
<path d="M10.6933 10.6748C11.3933 9.96146 11.78 9.01479 11.78 8.00146C11.78 6.98813 11.3933 6.04146 10.6866 5.32812L10.02 5.98146C10.5533 6.52146 10.84 7.23479 10.84 8.00146C10.84 8.76812 10.5466 9.48146 10.02 10.0215L10.6866 10.6748H10.6933Z" fill="#303030"/>
<path d="M7.98664 14.6815L7.99997 1.32812L4.17331 4.14812H1.31997L1.30664 11.8681H4.16664L7.99331 14.6881L7.98664 14.6815ZM2.24664 5.08146H4.47997L4.72664 4.90146L7.06664 3.18146V12.8415L4.71331 11.1148L4.46664 10.9348H2.23997V5.08146H2.24664Z" fill="#303030"/>
</svg>
