<svg width="16" height="16" viewBox="0 0 16 16" fill="none" xmlns="http://www.w3.org/2000/svg">
<path d="M12.2733 14.6992V12.3192H14.6599V11.3858H12.2733V8.99917H11.3399V11.3858H8.95992V12.3192H11.3399V14.6992H12.2733ZM14.6666 1.3125H1.33325V14.6392H7.99325V13.6992H2.26659V2.24583H13.7333V7.9725H14.6666V1.3125ZM7.31325 5.46583C7.92659 5.46583 8.41992 5.9525 8.41992 6.55917C8.41992 7.16583 7.92659 7.6525 7.31325 7.6525C6.69992 7.6525 6.20659 7.16583 6.20659 6.55917C6.20659 5.9525 6.69992 5.46583 7.31325 5.46583ZM10.9333 6.61917C10.2199 4.8725 8.85992 3.70583 7.29325 3.70583C5.72658 3.70583 4.40659 4.84583 3.67992 6.56583C4.39325 8.29917 5.75325 9.46583 7.31325 9.46583C8.87325 9.46583 10.2133 8.32583 10.9333 6.61917ZM7.31325 8.5325C6.29325 8.5325 5.31992 7.7925 4.70658 6.56583C5.31992 5.36583 6.28658 4.6325 7.29325 4.6325C8.29992 4.6325 9.29992 5.37917 9.90658 6.60583C9.29325 7.79917 8.31992 8.52583 7.31325 8.52583V8.5325Z" fill="#303030"/>
</svg>
