<svg width="16" height="16" viewBox="0 0 16 16" fill="none" xmlns="http://www.w3.org/2000/svg">
<path d="M11.84 2.31615H13.0933L7.53998 7.86948C6.87331 7.33615 6.05998 7.03615 5.19331 7.03615C4.17998 7.03615 3.22664 7.42948 2.50664 8.14948C1.78664 8.86948 1.39331 9.82281 1.39331 10.8361C1.39331 11.8495 1.78664 12.8028 2.50664 13.5228C3.24664 14.2628 4.21998 14.6361 5.19331 14.6361C6.16664 14.6361 7.13998 14.2628 7.87998 13.5228C8.59998 12.8028 8.99331 11.8495 8.99331 10.8361C8.99331 9.98948 8.70664 9.19615 8.19998 8.53615L13.7533 2.98281V4.23615H14.6866V1.38281H11.8466V2.31615H11.84ZM7.21331 12.8628C6.09331 13.9761 4.27998 13.9828 3.15998 12.8628C2.03998 11.7428 2.03998 9.92948 3.15998 8.80948C3.71998 8.24948 4.45331 7.96948 5.18664 7.96948C5.91998 7.96948 6.65331 8.24948 7.21331 8.80948C8.33331 9.92948 8.33331 11.7428 7.21331 12.8628Z" fill="#303030"/>
</svg>
