<svg width="16" height="16" viewBox="0 0 16 16" fill="none" xmlns="http://www.w3.org/2000/svg">
<path d="M9.19329 7.72146C9.67996 7.63479 10.1066 7.50813 10.4533 7.33479C11 7.05479 11.3933 6.68813 11.6266 6.24146C11.86 5.79479 11.98 5.28146 11.98 4.70812C11.98 3.60146 11.5933 2.76146 10.8133 2.18813C10.0333 1.61479 8.89329 1.32812 7.38662 1.32812H3.57996V14.6748H7.85329C8.83329 14.6748 9.67329 14.5348 10.3533 14.2548C11.0333 13.9748 11.5533 13.5548 11.9 13.0015C12.2466 12.4481 12.42 11.7815 12.42 10.9948C12.42 9.98812 12.0866 9.18813 11.4133 8.59479C10.8933 8.14146 10.1466 7.84812 9.18662 7.71479L9.19329 7.72146ZM7.33329 2.26813C8.61329 2.26813 9.52662 2.48146 10.08 2.90146C10.6266 3.32146 10.9 3.95479 10.9 4.78812C10.9 5.33479 10.7866 5.79479 10.5533 6.16813C10.32 6.54146 9.93996 6.82813 9.41329 7.02813C8.88662 7.22813 8.19329 7.32812 7.33329 7.32812H4.67996V2.26813H7.33329ZM10.48 13.0081C9.89996 13.5015 9.00662 13.7481 7.79996 13.7481H4.67996V8.26146H7.79996C9.05329 8.26146 9.95996 8.49479 10.5133 8.95479C11.0666 9.41479 11.3466 10.0881 11.3466 10.9681C11.3466 11.8481 11.06 12.5215 10.48 13.0148V13.0081Z" fill="#303030"/>
</svg>
