<svg width="16" height="16" viewBox="0 0 16 16" fill="none" xmlns="http://www.w3.org/2000/svg">
<path d="M9.53328 2.24219L9.30662 3.14885C11.7 3.74885 13.3666 5.88885 13.3666 8.35552C13.3666 11.3155 10.96 13.7222 7.99995 13.7222C5.03995 13.7222 2.63328 11.3155 2.63328 8.35552C2.63328 5.90885 4.28662 3.76885 6.65328 3.16219L6.41995 2.25552C3.63995 2.97552 1.69995 5.48219 1.69995 8.35552C1.69995 11.8289 4.52662 14.6555 7.99995 14.6555C11.4733 14.6555 14.3 11.8289 14.3 8.35552C14.3 5.46219 12.34 2.94885 9.53328 2.24219Z" fill="#303030"/>
<path d="M7.5332 1.33594H8.46654V7.04927H7.5332V1.33594Z" fill="#303030"/>
</svg>
