<svg width="16" height="16" viewBox="0 0 16 16" fill="none" xmlns="http://www.w3.org/2000/svg">
<path d="M6.43008 14.6449L1.33008 14.3049L1.37674 13.8249C2.19008 5.6849 6.15008 1.73156 13.8567 1.37156L14.3101 1.35156L14.6501 6.4249L11.6701 7.39823L10.1901 5.9449C8.07675 6.73823 6.68341 8.1249 5.94341 10.1849L7.40341 11.6649L6.43008 14.6449ZM2.35674 13.4382L5.77008 13.6649L6.34341 11.9182L4.88341 10.4316L4.97008 10.1649C5.79674 7.61156 7.54341 5.85823 10.1634 4.9649L10.4367 4.87156L11.9234 6.33823L13.6701 5.77156L13.4434 2.33823C6.65008 2.79156 3.21008 6.23823 2.36341 13.4449L2.35674 13.4382Z" fill="#303030"/>
</svg>
