<svg width="16" height="16" viewBox="0 0 16 16" fill="none" xmlns="http://www.w3.org/2000/svg">
<path d="M12.1668 5.15625H11.2334V6.37625H9.42676V7.30958H12.2134C12.1734 7.87625 11.9734 8.40292 11.6201 8.84958C11.3734 8.56292 11.1801 8.23625 11.0468 7.86958L10.1668 8.17625C10.3334 8.66292 10.6001 9.10292 10.9268 9.48292C10.4868 9.76292 9.97342 9.91625 9.44009 9.91625V10.8496C10.2534 10.8496 11.0134 10.5829 11.6534 10.1029C11.8134 10.2162 11.9801 10.3229 12.1601 10.4163C12.4468 10.5563 12.7534 10.6563 13.0668 10.7229L13.2601 9.80958C13.0201 9.75625 12.7868 9.68292 12.5668 9.57625C12.4868 9.53625 12.4134 9.48292 12.3401 9.43625C12.8268 8.82958 13.1068 8.09625 13.1468 7.31625H13.9668V6.38292H12.1668V5.16292V5.15625Z" fill="#303030"/>
<path d="M7.98664 14.6815L7.99997 1.32812L4.17331 4.14812H1.31997L1.30664 11.8681H4.16664L7.99331 14.6881L7.98664 14.6815ZM2.24664 5.08146H4.47997L4.72664 4.90146L7.06664 3.18146V12.8415L4.71331 11.1148L4.46664 10.9348H2.23997V5.08146H2.24664Z" fill="#303030"/>
</svg>
