<svg width="16" height="16" viewBox="0 0 16 16" fill="none" xmlns="http://www.w3.org/2000/svg">
<path d="M11.0134 13.0999L10.0801 12.1666H2.27342V10.0866L3.70675 8.54656V6.44656C3.70675 6.2399 3.72675 6.04656 3.75342 5.84656L2.96675 5.0599C2.84675 5.4999 2.77342 5.96656 2.77342 6.44656V8.1799L1.34009 9.7199V13.0999H6.58009C6.58009 13.8932 7.22009 14.5332 8.00675 14.5332C8.79342 14.5332 9.43342 13.8932 9.43342 13.1066L11.0134 13.0999ZM14.6601 9.74656L13.2201 8.1799V6.44656C13.2201 3.56656 10.8734 1.22656 7.99342 1.22656C6.30009 1.22656 4.80009 2.04656 3.84675 3.30656L2.00675 1.46656L1.34675 2.12656L13.9868 14.7666L14.6468 14.1066L13.6468 13.1066H14.6601V9.75323V9.74656ZM13.7268 12.1732H12.7134L4.51342 3.97323C5.29342 2.8799 6.55342 2.16656 7.99342 2.16656C10.3601 2.16656 12.2868 4.08656 12.2868 6.45323V8.55323L13.7268 10.1199V12.1732Z" fill="#303030"/>
</svg>
