<svg width="16" height="16" viewBox="0 0 16 16" fill="none" xmlns="http://www.w3.org/2000/svg">
<path d="M10.02 5.59479C10.02 4.48146 9.11334 3.57479 8.00001 3.57479C6.88668 3.57479 5.98001 4.48146 5.98001 5.59479C5.98001 6.70813 6.88668 7.61479 8.00001 7.61479C9.11334 7.61479 10.02 6.70813 10.02 5.59479ZM8.00668 6.68813C7.40668 6.68813 6.92001 6.20146 6.92001 5.60146C6.92001 5.00146 7.40668 4.51479 8.00668 4.51479C8.60668 4.51479 9.09334 5.00146 9.09334 5.60146C9.09334 6.20146 8.60668 6.68813 8.00668 6.68813ZM2.76001 14.6681H13.2333V13.7348H8.08001L11.7267 8.26813L11.8133 8.13479C12.2467 7.43479 12.4733 6.62813 12.4733 5.80146C12.4733 3.33479 10.4667 1.32812 8.00001 1.32812C5.53334 1.32812 3.52668 3.33479 3.52668 5.80146C3.52668 6.60813 3.74668 7.40146 4.15334 8.08813L7.92668 13.7348H2.76001V14.6681ZM4.58668 7.89479L4.96001 7.60813C4.63334 7.06146 4.46668 6.44146 4.46668 5.80146C4.46668 3.84812 6.05334 2.26146 8.00668 2.26146C9.96001 2.26146 11.5467 3.84812 11.5467 5.80146C11.5467 6.45479 11.3667 7.09479 11.0267 7.64813L8.01334 12.1748L4.97334 7.63479L4.58668 7.89479Z" fill="#303030"/>
</svg>
