<svg width="16" height="16" viewBox="0 0 16 16" fill="none" xmlns="http://www.w3.org/2000/svg">
<path d="M6.65325 6.98615H7.11992L7.10659 4.13281H6.63992C3.74659 4.13281 1.36659 6.48615 1.33325 9.37948V14.6928H7.11325V8.91281H4.25992C4.49992 7.81948 5.48659 6.99281 6.64659 6.99281L6.65325 6.98615ZM6.18659 9.83948V13.7528H2.27325V9.37948C2.29992 7.15948 4.01325 5.31948 6.17992 5.08615V6.07948C4.57325 6.30615 3.30659 7.69281 3.27325 9.35948V9.83281H6.17992L6.18659 9.83948Z" fill="#303030"/>
<path d="M14.1867 6.98615H14.6534L14.64 4.13281H14.1734C11.28 4.13281 8.90003 6.48615 8.8667 9.37948V14.6928H14.6467V8.91281H11.7934C12.0334 7.81948 13.02 6.99281 14.18 6.99281L14.1867 6.98615ZM13.72 9.83948V13.7528H9.8067V9.37948C9.83337 7.15948 11.5467 5.31948 13.7134 5.08615V6.07948C12.1067 6.30615 10.84 7.69281 10.8067 9.35948V9.83281H13.7134L13.72 9.83948Z" fill="#303030"/>
</svg>
