<svg width="16" height="16" viewBox="0 0 16 16" fill="none" xmlns="http://www.w3.org/2000/svg">
<path d="M14.1867 6.91625V2.65625H1.82667V6.91625C1.54 7.12292 1.35333 7.45625 1.35333 7.83625V13.3496H4.19333V11.9229H11.8333V13.3496H14.6733V7.83625C14.6733 7.45625 14.4867 7.12292 14.2 6.91625H14.1867ZM13.2533 3.58958V6.70292H11.3067V5.36292C11.3067 4.77625 10.8267 4.29625 10.24 4.29625H5.72667C5.14 4.29625 4.66 4.77625 4.66 5.36292V6.70292H2.75333V3.58958H13.2533ZM10.3733 6.70292H5.6V5.36292C5.6 5.28958 5.66 5.22958 5.73333 5.22958H10.2467C10.32 5.22958 10.38 5.28958 10.38 5.36292V6.70292H10.3733ZM13.7333 12.4163H12.76V10.9896H3.25333V12.4163H2.28V7.83625C2.28 7.72292 2.37333 7.63625 2.48 7.63625H13.5267C13.64 7.63625 13.7267 7.72292 13.7267 7.83625V12.4163H13.7333Z" fill="#303030"/>
</svg>
