<svg width="16" height="16" viewBox="0 0 16 16" fill="none" xmlns="http://www.w3.org/2000/svg">
<path d="M14.6867 7.67903C14.6867 7.25237 14.3134 6.9257 13.8267 6.91237H12.94V7.3857L12.96 7.85903H13.7534V8.51237H13.2467H13.0667L12.1267 8.51903V9.45903L13.06 9.4457V10.1124H11.2667V11.0724H11.2867L12.2 11.059H12.2534V11.719H11.2867L10.6467 11.7324L9.39338 11.7457V12.679L11.4534 12.659V13.2257L6.19338 13.2857L6.17338 11.7924H5.37338L5.24672 11.799L5.26005 13.2724L4.29338 13.2857L4.28005 11.819H3.34005L3.36672 14.2457L5.40005 14.2257H6.19338L11.4867 14.159C11.7467 14.159 11.9934 14.059 12.16 13.879C12.3067 13.7324 12.3867 13.539 12.3867 13.339V12.6457C12.8467 12.5924 13.2 12.2324 13.1934 11.8124V11.039C13.64 10.9857 13.9867 10.6324 13.9867 10.219V9.4257C14.1734 9.3857 14.34 9.29903 14.4667 9.1657C14.6134 9.01903 14.6934 8.81903 14.6934 8.61903V7.67903H14.6867ZM12.7 4.3657C12.6934 3.9457 12.3134 3.6057 11.8534 3.6057H11.84L8.85338 3.63903C9.07338 3.25237 9.04672 2.87237 8.98005 2.69903C8.82672 2.05903 8.20672 1.65903 7.51338 1.77903L3.38005 2.6657L1.30005 2.6857L1.38672 10.919L3.42005 10.899V10.919L9.50005 10.8524C9.72005 10.8524 9.93338 10.7724 10.1 10.6457C10.2934 10.4857 10.4 10.2657 10.4 10.0324V9.33903C10.86 9.2857 11.2134 8.9257 11.2067 8.5057V7.73237C11.6534 7.67903 12 7.3257 12 6.91237V6.11903C12.4134 6.03237 12.7134 5.69903 12.7067 5.31237V4.3657H12.7ZM7.38005 5.25237V5.71903L7.39338 6.1857L11.0734 6.13237V6.8057H10.7734L7.40005 6.8457V7.77903L10.2667 7.7457V8.41237H10.2467L7.40672 8.43903V9.37237L9.47338 9.35237V9.91903L4.21338 9.97237L4.14005 3.45903L7.69338 2.69237C7.91338 2.65237 8.04005 2.8057 8.08005 2.95237C8.09338 2.99237 8.11338 3.13903 7.94672 3.2857L7.50005 3.65237L6.17338 3.6657V4.59903H6.36005L7.61338 4.5857L11.7667 4.53903V5.2057L7.38005 5.25237ZM3.20672 3.59903L3.27338 9.9657L2.30672 9.97903L2.24005 3.61237L3.20672 3.59903Z" fill="#303030"/>
</svg>
