<svg width="16" height="16" viewBox="0 0 16 16" fill="none" xmlns="http://www.w3.org/2000/svg">
<path d="M7.99997 1.34375C4.32663 1.34375 1.33997 4.33042 1.33997 8.00375C1.33997 11.6771 4.32663 14.6637 7.99997 14.6637C11.6733 14.6637 14.66 11.6771 14.66 8.00375C14.66 4.33042 11.6733 1.34375 7.99997 1.34375ZM13.2533 10.2704L9.85997 10.8104L10.9733 7.37708L13.66 8.78375C13.5866 9.30375 13.4533 9.80375 13.2466 10.2704H13.2533ZM5.00663 7.35042L4.21997 3.71708C4.48663 3.48375 4.7733 3.27042 5.07997 3.09042L7.9733 5.19042L5.00663 7.34375V7.35042ZM3.44663 4.57042L3.9533 6.91708L2.27997 7.89708C2.30663 6.65042 2.7333 5.50375 3.4333 4.57042H3.44663ZM10.9666 7.33708L8.02663 5.20375L10.9266 3.09708C11.16 3.23708 11.3866 3.39042 11.6 3.56375L10.96 7.33708H10.9666ZM7.9933 6.33042L9.88663 7.70375L9.16663 9.93042H6.82663L6.10663 7.70375L7.99997 6.33042H7.9933ZM13.7133 7.75042L12 6.85042L12.42 4.36375C13.1866 5.29042 13.6533 6.46375 13.7133 7.74375V7.75042ZM9.87997 2.60375L9.90663 2.69042L8.0133 4.06375L6.11997 2.69042L6.1533 2.59042C6.7333 2.39042 7.3533 2.27708 7.99997 2.27708C8.64663 2.27708 9.28663 2.39708 9.87997 2.59708V2.60375ZM3.26663 11.2238L5.2733 11.6504L5.42663 13.1104C4.5533 12.6704 3.8133 12.0171 3.26663 11.2171V11.2238ZM6.4133 13.4971L6.13997 10.8771L2.69997 10.1438C2.54663 9.75708 2.4333 9.35042 2.35997 8.92375L5.0133 7.37708L6.14663 10.8638H9.82663L9.39997 13.5437C8.9533 13.6571 8.47997 13.7238 7.99997 13.7238C7.44663 13.7238 6.9133 13.6438 6.4133 13.4971ZM10.4 13.1904L10.6466 11.6238L12.66 11.3038C12.0866 12.1171 11.3066 12.7638 10.3933 13.1904H10.4Z" fill="#303030"/>
</svg>
