<svg width="16" height="16" viewBox="0 0 16 16" fill="none" xmlns="http://www.w3.org/2000/svg">
<path d="M8.01335 5.13969C6.40002 5.13969 5.09335 6.42635 5.09335 8.01969C5.09335 9.61302 6.40002 10.8997 8.01335 10.8997C9.62669 10.8997 10.9334 9.61302 10.9334 8.01969C10.9334 6.42635 9.62669 5.13969 8.01335 5.13969ZM8.01335 9.96635C6.92002 9.96635 6.02669 9.09302 6.02669 8.01969C6.02669 6.94635 6.92002 6.07302 8.01335 6.07302C9.10669 6.07302 10 6.94635 10 8.01969C10 9.09302 9.10669 9.96635 8.01335 9.96635ZM7.97335 2.67969C5.14002 2.67969 2.64669 4.78635 1.31335 7.95969C2.63335 11.153 5.14002 13.313 8.01335 13.313C10.8867 13.313 13.36 11.2064 14.6934 8.05969C13.3734 4.83969 10.8667 2.67969 7.98002 2.67969H7.97335ZM8.01335 12.3797C5.72669 12.3797 3.58002 10.6997 2.33335 7.96635C3.58669 5.27302 5.72002 3.61969 7.97335 3.61969C10.2267 3.61969 12.4267 5.30635 13.6734 8.05969C12.42 10.7397 10.28 12.3864 8.01335 12.3864V12.3797Z" fill="#303030"/>
</svg>
