<svg width="16" height="16" viewBox="0 0 16 16" fill="none" xmlns="http://www.w3.org/2000/svg">
<path d="M8.16002 9.88406H8.16668L10.5067 7.54406L9.84668 6.88406L8.16002 8.57073V4.66406H7.22668V9.8974H8.16002V9.88406Z" fill="#303030"/>
<path d="M11.4134 2.27708H13.74V1.34375H9.96004V5.17042H10.8934V3.05708C12.6467 4.07042 13.7534 5.93708 13.7534 8.00375C13.7534 11.1571 11.1867 13.7171 8.04004 13.7171V14.6504C11.7067 14.6504 14.6867 11.6704 14.6867 8.00375C14.6867 5.62375 13.42 3.46375 11.4067 2.27708H11.4134Z" fill="#303030"/>
<path d="M5.18669 12.9394C3.44002 11.926 2.32669 10.046 2.32669 8.00604C2.33336 4.85271 4.89336 2.29271 8.04669 2.29271V1.35938C4.38002 1.35938 1.40002 4.33938 1.40002 8.00604C1.40002 10.366 2.67336 12.5327 4.67336 13.7194H2.34002V14.6527H6.12002V10.826H5.18669V12.9394Z" fill="#303030"/>
</svg>
