<svg width="16" height="16" viewBox="0 0 16 16" fill="none" xmlns="http://www.w3.org/2000/svg">
<path d="M13.72 9.00146C13.0934 8.37479 12.2467 8.02813 11.3467 8.02813C11.34 8.02813 11.3334 8.02813 11.3267 8.02813V5.93479C11.3267 5.23479 10.7534 4.66146 10.0534 4.66146H7.99338V1.32812H1.30005V8.02146H4.63338V10.0815C4.63338 10.7815 5.20672 11.3548 5.90672 11.3548H8.00005C8.00005 11.3548 8.00005 11.3681 8.00005 11.3748C8.00005 13.2215 9.50005 14.7215 11.3467 14.7215C12.2467 14.7215 13.0934 14.3681 13.72 13.7415C14.3467 13.1148 14.6934 12.2748 14.6934 11.3815C14.6934 10.4881 14.3467 9.64146 13.72 9.00813V9.00146ZM2.23338 7.08813V2.26146H7.06005V4.66146H5.90672C5.20672 4.66146 4.63338 5.23479 4.63338 5.93479V7.08813H2.23338ZM5.56672 10.0815V5.93479C5.56672 5.74813 5.72005 5.59479 5.90672 5.59479H10.0534C10.24 5.59479 10.3934 5.74813 10.3934 5.93479V8.16813C10.3934 8.16813 10.3534 8.18146 10.3334 8.18813C10.2867 8.20146 10.2334 8.22146 10.1867 8.24146C10.0867 8.27479 9.98672 8.31479 9.88672 8.36146C9.83338 8.38813 9.78672 8.40812 9.74005 8.43479C9.64672 8.48813 9.55338 8.54813 9.46005 8.60813C9.42005 8.63479 9.38005 8.66146 9.34005 8.68813C9.21338 8.78146 9.09338 8.88813 8.97338 9.00146C8.86005 9.11479 8.76005 9.23479 8.66005 9.36146C8.62672 9.40146 8.60005 9.44812 8.57338 9.48812C8.51338 9.57479 8.46005 9.66146 8.40672 9.75479C8.38005 9.80813 8.34672 9.86146 8.32672 9.92146C8.28672 10.0081 8.24672 10.0948 8.21338 10.1881C8.19338 10.2481 8.16672 10.3015 8.15338 10.3615C8.15338 10.3815 8.14005 10.4015 8.13338 10.4215H5.90005C5.71338 10.4215 5.56005 10.2681 5.56005 10.0815H5.56672ZM13.0534 13.0815C12.6 13.5348 11.9934 13.7881 11.3467 13.7881C10.0134 13.7881 8.93338 12.7081 8.93338 11.3748C8.93338 11.2281 8.94672 11.1015 8.97338 10.9615C9.04672 10.4748 9.28005 10.0215 9.63338 9.66813C9.98672 9.31479 10.4267 9.08813 10.94 9.00813H10.98C11.0934 8.98146 11.2067 8.96813 11.3467 8.96813C11.9934 8.96813 12.6067 9.21479 13.06 9.66813C13.5134 10.1215 13.76 10.7281 13.76 11.3815C13.76 12.0348 13.5134 12.6348 13.0534 13.0881V13.0815Z" fill="#303030"/>
</svg>
