<svg width="16" height="16" viewBox="0 0 16 16" fill="none" xmlns="http://www.w3.org/2000/svg">
<path d="M6.09338 13.7031H9.88005V14.6365H6.09338V13.7031Z" fill="#303030"/>
<path d="M9.9267 11.8288C11.34 11.1088 12.2334 9.66881 12.2334 8.06214C12.2334 6.45547 11.3867 5.08881 10.0267 4.35547C9.9067 4.28881 9.77336 4.22881 9.63336 4.16214C8.4867 3.68214 7.10003 3.74881 6.01336 4.33547C5.8867 4.40214 5.77336 4.47547 5.6667 4.54881C4.4867 5.33547 3.78003 6.64881 3.78003 8.06214C3.78003 9.63547 4.65336 11.0688 6.0267 11.7955V12.8755H9.92003V11.8221L9.9267 11.8288ZM8.9867 11.2221V11.9555H6.96003V11.2021L6.68003 11.0821C5.4867 10.5621 4.71336 9.37547 4.71336 8.06881C4.71336 6.96881 5.26003 5.94214 6.1867 5.32881C6.2667 5.27547 6.35336 5.22214 6.4467 5.16881C7.30003 4.70881 8.3867 4.66214 9.26003 5.02881C9.3667 5.07547 9.46003 5.11547 9.5667 5.17547C10.6334 5.74881 11.2934 6.86214 11.2934 8.06881C11.2934 9.40214 10.5 10.5888 9.27336 11.1021L8.9867 11.2221Z" fill="#303030"/>
<path d="M7.52668 2.76698V1.32031H8.46001V2.76031H7.52668V2.76698ZM12.4133 2.98031L11.3933 4.00031L12.0533 4.66031L13.0733 3.64031L12.4133 2.98031ZM4.62001 3.98698L3.60001 2.96698L2.94001 3.62698L3.96001 4.64698L4.62001 3.98698ZM14.6667 7.52031H13.2267V8.45365H14.6667V7.52031ZM2.78668 8.45365V7.52031H1.34668V8.45365H2.78668Z" fill="#303030"/>
</svg>
