<svg width="16" height="16" viewBox="0 0 16 16" fill="none" xmlns="http://www.w3.org/2000/svg">
<path d="M13 11.2792C12.18 11.2792 11.4867 11.8658 11.3267 12.6392H4.68005C4.52005 11.8658 3.83338 11.2792 3.00672 11.2792C2.06672 11.2792 1.30005 12.0458 1.30005 12.9858C1.30005 13.9258 2.06672 14.6925 3.00672 14.6925C3.74005 14.6925 4.36005 14.2258 4.60005 13.5725H11.4C11.64 14.2258 12.26 14.6925 12.9934 14.6925C13.9334 14.6925 14.7 13.9258 14.7 12.9858C14.7 12.0458 13.9334 11.2792 12.9934 11.2792H13ZM3.00672 13.7592C2.58005 13.7592 2.23338 13.4125 2.23338 12.9858C2.23338 12.5592 2.58005 12.2125 3.00672 12.2125C3.43338 12.2125 3.78005 12.5592 3.78005 12.9858C3.78005 13.4125 3.43338 13.7592 3.00672 13.7592ZM13 13.7592C12.5734 13.7592 12.2267 13.4125 12.2267 12.9858C12.2267 12.5592 12.5734 12.2125 13 12.2125C13.4267 12.2125 13.7734 12.5592 13.7734 12.9858C13.7734 13.4125 13.4267 13.7592 13 13.7592ZM8.00672 6.64583C8.94672 6.64583 9.71338 5.87917 9.71338 4.93917C9.71338 3.99917 8.94672 3.2325 8.00672 3.2325C7.06672 3.2325 6.30005 3.99917 6.30005 4.93917C6.30005 5.87917 7.06672 6.64583 8.00672 6.64583ZM8.00672 4.16583C8.43338 4.16583 8.78005 4.5125 8.78005 4.93917C8.78005 5.36583 8.43338 5.7125 8.00672 5.7125C7.58005 5.7125 7.23338 5.36583 7.23338 4.93917C7.23338 4.5125 7.58005 4.16583 8.00672 4.16583ZM8.01338 11.8192L11.1334 7.13917L11.2067 7.02583C11.5667 6.43917 11.76 5.75917 11.76 5.06583C11.76 2.99917 10.0734 1.3125 8.00672 1.3125C5.94005 1.3125 4.25338 2.99917 4.25338 5.06583C4.25338 5.73917 4.43338 6.40583 4.78005 6.98583L8.01338 11.8192ZM5.58005 6.50583C5.32005 6.0725 5.18672 5.5725 5.18672 5.06583C5.18672 3.5125 6.45338 2.24583 8.00672 2.24583C9.56005 2.24583 10.8267 3.5125 10.8267 5.06583C10.8267 5.58583 10.6867 6.09917 10.4134 6.53917L8.01338 10.1458L5.58005 6.5125V6.50583Z" fill="#303030"/>
</svg>
