<svg width="16" height="16" viewBox="0 0 16 16" fill="none" xmlns="http://www.w3.org/2000/svg">
<path d="M14.6332 10.8697C14.6332 12.6764 13.1665 14.1364 11.3732 14.1364H10.1465V13.2164H11.3732C12.6665 13.2164 13.7198 12.163 13.7198 10.8697C13.7198 9.81635 13.0332 8.93635 12.0798 8.62969L12.7798 7.92969C13.8732 8.45635 14.6398 9.57635 14.6398 10.8697H14.6332Z" fill="#303030"/>
<path d="M6.49316 10.4141H11.3398V11.3474H6.49316V10.4141Z" fill="#303030"/>
<path d="M5.91326 2V2.92H4.68659C3.39326 2.92 2.33992 3.97333 2.33992 5.26667C2.33992 6.31333 3.01992 7.19333 3.96659 7.50667L3.26659 8.20667C2.17992 7.67333 1.41992 6.56 1.41992 5.26667C1.41992 3.46667 2.88659 2.00667 4.68659 2.00667H5.91326V2Z" fill="#303030"/>
<path d="M7.71313 14.1533H6.48647C4.6798 14.1533 3.21313 12.6867 3.21313 10.88C3.21313 9.07333 4.6798 7.60667 6.48647 7.60667H9.56647C10.8531 7.60667 11.9065 6.56 11.9065 5.27333C11.9065 3.98667 10.8531 2.93333 9.56647 2.93333H8.3398V2H9.56647C11.3731 2 12.8398 3.46667 12.8398 5.27333C12.8398 7.08 11.3731 8.54667 9.56647 8.54667H6.48647C5.19313 8.54667 4.14647 9.59333 4.14647 10.88C4.14647 12.1667 5.1998 13.22 6.48647 13.22H7.71313V14.1533Z" fill="#303030"/>
<path d="M4.69336 4.79688H9.54003V5.73021H4.69336V4.79688Z" fill="#303030"/>
</svg>
