<svg width="16" height="16" viewBox="0 0 16 16" fill="none" xmlns="http://www.w3.org/2000/svg">
<path d="M6.26657 4.73542V10.6021C6.26657 11.6021 7.06657 12.4021 8.06657 12.4021C9.06657 12.4021 9.86657 11.6021 9.86657 10.6021V4.20208C9.86657 2.66875 8.5999 1.46875 7.13324 1.46875C5.66657 1.46875 4.3999 2.73542 4.3999 4.20208V10.7354C4.3999 12.8688 5.9999 14.5354 8.13324 14.5354C10.2666 14.5354 11.9332 12.8688 11.9332 10.7354V4.86875H10.9999V10.7354C10.9999 12.3354 9.73324 13.6021 8.13324 13.6021C6.53324 13.6021 5.33324 12.3354 5.33324 10.7354V4.20208C5.33324 3.20208 6.13324 2.40208 7.13324 2.40208C8.13324 2.40208 8.93324 3.20208 8.93324 4.20208V10.6021C8.93324 11.0688 8.53324 11.4688 8.13324 11.4688C7.73324 11.4688 7.26657 11.0688 7.26657 10.6021V4.73542H6.33324H6.26657Z" fill="#303030"/>
</svg>
