<svg width="16" height="16" viewBox="0 0 16 16" fill="none" xmlns="http://www.w3.org/2000/svg">
<path d="M11.5733 5.41688C11.3333 3.65688 9.84001 2.29688 8.02001 2.29688C6.20001 2.29688 4.70668 3.65688 4.46668 5.41688C2.71335 5.64354 1.34668 7.13021 1.34668 8.95021C1.34668 10.7702 2.56668 12.1169 4.19335 12.4569V11.4902C3.09335 11.1702 2.28001 10.1569 2.28001 8.95021C2.28001 7.63688 3.27335 6.51021 4.58668 6.34354L5.30001 6.25021L5.39335 5.53688C5.56668 4.22354 6.70001 3.23021 8.02001 3.23021C9.34001 3.23021 10.4667 4.22354 10.6467 5.53688L10.74 6.23687L11.44 6.33687C12.74 6.52354 13.72 7.64354 13.72 8.95021C13.72 10.1569 12.9133 11.1769 11.8067 11.4902V12.4569C13.4333 12.1169 14.6533 10.6702 14.6533 8.95021C14.6533 7.14354 13.3133 5.66354 11.5733 5.41688ZM8.00001 13.6969L5.49335 11.1902L6.14668 10.5369L7.54001 11.9302L7.52668 8.03688H8.44668L8.46001 11.9369L9.86001 10.5369L10.5133 11.1902L8.00668 13.6969H8.00001Z" fill="#303030"/>
</svg>
