<svg width="16" height="16" viewBox="0 0 16 16" fill="none" xmlns="http://www.w3.org/2000/svg">
<path d="M12.5567 10.2415C12.41 11.3615 12.0367 12.2415 11.4233 12.8681C10.8167 13.4948 9.98333 13.8081 8.93666 13.8081C7.63 13.8081 6.66333 13.2748 6.02333 12.2148C5.59 11.4881 5.31 10.5881 5.17666 9.53479H10.8233V8.68146H5.09666C5.08333 8.44146 5.06333 8.21479 5.06333 7.95479C5.06333 7.69479 5.07 7.46812 5.09 7.22813H10.8233V6.36146H5.17C5.24333 5.85479 5.35 5.38146 5.49666 4.94812C5.78333 4.08812 6.23 3.42146 6.83 2.92812C7.43 2.44146 8.18333 2.19479 9.10333 2.19479C10.1167 2.19479 10.91 2.51479 11.4767 3.15479C12.0433 3.79479 12.3833 4.68146 12.49 5.81479H13.5433C13.4567 4.90813 13.2433 4.12146 12.89 3.45479C12.5367 2.78812 12.05 2.26146 11.4233 1.88812C10.7967 1.51479 10.0233 1.32812 9.10333 1.32812C7.97 1.32812 7.02333 1.61479 6.26333 2.18812C5.50333 2.76146 4.93666 3.54812 4.57 4.54146C4.36333 5.10146 4.22333 5.70812 4.13 6.36146H2.37V7.22813H4.04333C4.03 7.46812 4.01666 7.70146 4.01666 7.95479C4.01666 8.20813 4.03 8.44146 4.04333 8.68146H2.37V9.53479H4.12333C4.21 10.1948 4.35 10.8215 4.55 11.4015C4.90333 12.4148 5.45666 13.2148 6.20333 13.8015C6.95 14.3881 7.89 14.6815 9.02999 14.6815C9.91 14.6815 10.6767 14.4948 11.33 14.1281C11.9833 13.7615 12.4967 13.2481 12.8767 12.5881C13.2567 11.9281 13.51 11.1481 13.63 10.2415H12.5567Z" fill="#303030"/>
</svg>
