<svg width="16" height="16" viewBox="0 0 16 16" fill="none" xmlns="http://www.w3.org/2000/svg">
<path d="M14.3767 10.2771L11.9367 9.03042L9.49667 10.2771V13.2904L11.93 14.5304L14.37 13.2904V10.2771H14.3767ZM12.85 10.5504L11.9433 11.0437L11.03 10.5504L11.9433 10.0837L12.85 10.5504ZM10.43 11.2971L11.47 11.8571V13.2571L10.43 12.7304V11.2971ZM12.4033 13.2504V11.8571L13.4433 11.2904V12.7237L12.4033 13.2504ZM13.45 8.02375V4.37042L7.53667 1.34375L1.63 4.36375V11.6571L7.07667 14.6637V14.6771H8.01V7.81708L12.5167 5.42375V8.01708H13.45V8.02375ZM11.97 4.65042L7.53667 7.00375L3.10334 4.65042L7.53667 2.39042L11.97 4.65042ZM2.56334 11.1037V5.42375L7.07667 7.81708V13.5971L2.56334 11.1037Z" fill="#303030"/>
</svg>
