<svg width="16" height="16" viewBox="0 0 16 16" fill="none" xmlns="http://www.w3.org/2000/svg">
<path d="M2.04999 14.6649H7.28332V13.7316H2.98332V10.5382H7.28332V9.6049H2.98332V6.41156H11.5767V7.95823H12.51V1.35156H2.04999V14.6649ZM11.5767 2.2849V5.47823H2.98332V2.2849H11.5767ZM5.35665 4.1849H4.40332V3.25156H5.35665V4.1849ZM4.40332 8.4649V7.53156H5.35665V8.4649H4.40332ZM4.40332 12.5182V11.5849H5.35665V12.5182H4.40332ZM11.5433 9.4649V8.95156H10.61V9.47823C10.31 9.53823 10.0233 9.65823 9.75665 9.83823L9.38999 9.47156L8.72999 10.1316L9.09665 10.4982C8.92332 10.7582 8.80999 11.0516 8.74999 11.3449H8.22999V12.2782H8.74999C8.80999 12.5716 8.92332 12.8582 9.09665 13.1182L8.72999 13.4849L9.38999 14.1449L9.75665 13.7782C10.0167 13.9582 10.31 14.0716 10.61 14.1382V14.6649H11.5433V14.1516C11.8433 14.0916 12.1367 13.9782 12.4033 13.8049L12.77 14.1716L13.43 13.5116L13.0633 13.1449C13.2433 12.8782 13.3633 12.5849 13.4233 12.2849H13.9433V11.3516H13.4233C13.3633 11.0449 13.2433 10.7516 13.0633 10.4849L13.43 10.1182L12.77 9.45823L12.4033 9.82489C12.1367 9.65156 11.8433 9.53156 11.5367 9.47156L11.5433 9.4649ZM10.0633 10.7782C10.3367 10.5049 10.7033 10.3516 11.09 10.3516C11.4767 10.3516 11.8433 10.5049 12.1167 10.7782C12.6833 11.3449 12.6833 12.2649 12.1167 12.8316C11.55 13.3982 10.6167 13.3782 10.0633 12.8316C9.50999 12.2849 9.49665 11.3449 10.0633 10.7782Z" fill="#303030"/>
</svg>
