<svg width="16" height="16" viewBox="0 0 16 16" fill="none" xmlns="http://www.w3.org/2000/svg">
<path d="M5.14661 4.65625H6.07994V5.62292H5.14661V4.65625Z" fill="#303030"/>
<path d="M5.1333 6.5625H6.06663V7.52917H5.1333V6.5625Z" fill="#303030"/>
<path d="M5.1333 8.46875H6.06663V9.43542H5.1333V8.46875Z" fill="#303030"/>
<path d="M5.1333 10.375H6.06663V11.3417H5.1333V10.375Z" fill="#303030"/>
<path d="M12.2867 8.9375H11.3533V11.3375H8.94666V12.2708H11.3533V14.6642H12.2867V12.2708H14.6733V11.3375H12.2867V8.9375Z" fill="#303030"/>
<path d="M11.8266 8.01229H12.76C12.76 7.22563 13.4 6.58563 14.1866 6.58563H14.6533V2.76562H1.33997L1.3533 6.58563H1.81997C2.60663 6.58563 3.24663 7.22563 3.24663 8.01229C3.24663 8.79896 2.60663 9.43896 1.81997 9.43896H1.3533L1.33997 13.2323H7.99997V12.299H2.27997V10.3256C3.36663 10.1056 4.17997 9.15229 4.17997 8.01229C4.17997 6.87229 3.36663 5.91229 2.28663 5.69896V3.69896H13.7266V5.69896C12.6466 5.91896 11.8333 6.87229 11.8333 8.01229H11.8266Z" fill="#303030"/>
</svg>
