<svg width="16" height="16" viewBox="0 0 16 16" fill="none" xmlns="http://www.w3.org/2000/svg">
<path d="M5.1333 6.46875V7.68208C5.1333 8.99542 6.03997 10.0688 7.1533 10.0688H8.7333L7.79997 9.13542H7.1533C6.5533 9.13542 6.06663 8.48208 6.06663 7.68208V7.40208L5.1333 6.46875Z" fill="#303030"/>
<path d="M12.5466 8.48052H11.6133C11.6133 8.88719 11.4266 9.38052 11.1266 9.82052L10.4466 9.14052C10.7133 8.74052 10.8733 8.24052 10.8733 7.68719V3.76052C10.8733 2.44719 9.96664 1.37385 8.85331 1.37385H7.14664C6.58664 1.37385 6.06664 1.63385 5.68664 2.10719C5.32664 2.55385 5.12664 3.14052 5.12664 3.75385V3.82052L2.67331 1.36719L2.01331 2.02719L5.12664 5.14052L6.05997 6.08052L9.07997 9.10052L9.77331 9.79385L10.4733 10.4939L11.14 11.1605L13.9266 13.9472L14.5866 13.2872L11.7866 10.4872C12.2533 9.88052 12.54 9.14719 12.54 8.48052H12.5466ZM6.06664 3.75385C6.06664 3.34719 6.19331 2.97385 6.41997 2.69385C6.61997 2.44052 6.88664 2.30719 7.15331 2.30719H8.85997C9.45997 2.30719 9.94664 2.96052 9.94664 3.76052V7.68719C9.94664 7.97385 9.87997 8.24052 9.77331 8.46052L6.07331 4.76052V3.76052L6.06664 3.75385Z" fill="#303030"/>
<path d="M8.46658 11.7977H9.44658C9.73991 11.7977 10.0266 11.7377 10.2999 11.6377L9.51991 10.8577C9.51991 10.8577 9.47325 10.871 9.44658 10.871H6.55325C5.35991 10.871 4.38658 9.42437 4.38658 8.48438H3.45325C3.45325 9.97771 4.88658 11.8044 6.55325 11.8044H7.53325V13.7244H5.13991V14.6577H10.8532V13.7244H8.46658V11.8044V11.7977Z" fill="#303030"/>
</svg>
