<svg width="16" height="16" viewBox="0 0 16 16" fill="none" xmlns="http://www.w3.org/2000/svg">
<path d="M8.02001 3.82281C9.34001 3.82281 10.4667 4.81615 10.6467 6.13615L10.74 6.83615L11.44 6.93615C12.74 7.12281 13.72 8.24281 13.72 9.54281C13.72 10.9828 12.5667 12.1628 11.1333 12.1961H4.93335C3.47335 12.1961 2.28668 11.0095 2.28668 9.54948C2.28668 8.23615 3.28001 7.10948 4.59335 6.94281L5.30001 6.84948L5.39335 6.14281C5.57335 4.82281 6.70001 3.82948 8.02001 3.82948M8.02001 2.88948C6.19335 2.88948 4.70668 4.24948 4.46668 6.00948C2.70668 6.23615 1.34668 7.72281 1.34668 9.54281C1.34668 11.5228 2.94668 13.1228 4.92668 13.1228H11.0667C13.0467 13.1228 14.6533 11.5161 14.6533 9.53615C14.6533 7.72948 13.3133 6.24948 11.5733 6.00281C11.3333 4.24281 9.84668 2.88281 8.02001 2.88281V2.88948Z" fill="#303030"/>
</svg>
