<svg width="16" height="16" viewBox="0 0 16 16" fill="none" xmlns="http://www.w3.org/2000/svg">
<path d="M11.7967 2.82375V1.34375H10.8634V2.82375H5.14341V1.34375H4.21008V2.82375H1.33008V13.2437H7.53008V12.3104H2.26341V6.08375H13.7234V8.03042H14.6567V2.82375H11.7901H11.7967ZM2.26341 5.15042V3.75708H4.21008V4.19042H5.14341V3.75708H10.8567V4.19042H11.7901V3.75708H13.7234V5.15042H2.26341ZM11.5834 14.6571C9.88341 14.6571 8.49675 13.2704 8.49675 11.5704C8.49675 9.87042 9.88341 8.48375 11.5834 8.48375C13.2834 8.48375 14.6701 9.87042 14.6701 11.5704C14.6701 13.2704 13.2834 14.6571 11.5834 14.6571ZM11.5834 9.41708C10.3967 9.41708 9.43008 10.3837 9.43008 11.5704C9.43008 12.7571 10.3967 13.7237 11.5834 13.7237C12.7701 13.7237 13.7367 12.7571 13.7367 11.5704C13.7367 10.3837 12.7701 9.41708 11.5834 9.41708ZM12.7701 12.2771H10.8767V10.3837H11.8101V11.3437H12.7701V12.2771Z" fill="#303030"/>
</svg>
