<svg width="16" height="16" viewBox="0 0 16 16" fill="none" xmlns="http://www.w3.org/2000/svg">
<path d="M14.4967 11.7125L13.2034 9.89917L11.8767 11.7258C11.6967 11.9858 11.6034 12.2925 11.6034 12.6125C11.6034 13.4858 12.3167 14.1992 13.1901 14.1992C14.0634 14.1992 14.7767 13.4858 14.7767 12.6125C14.7767 12.2925 14.6834 11.9858 14.4901 11.7125H14.4967ZM13.1967 13.2658C12.8367 13.2658 12.5434 12.9725 12.5434 12.6125C12.5434 12.4792 12.5834 12.3592 12.6434 12.2592L13.1967 11.4992L13.7367 12.2525C13.8167 12.3658 13.8501 12.4792 13.8501 12.6125C13.8501 12.9725 13.5567 13.2658 13.1967 13.2658ZM13.1167 8.5325L13.7767 7.8725L7.71673 1.8125L7.05673 2.4725L7.42339 2.83917L1.81006 8.4525L7.14339 13.7858L12.7567 8.1725L13.1101 8.52583H13.1167V8.5325ZM3.60339 8.9325H10.6834L7.14339 12.4725L3.60339 8.9325ZM11.6234 7.9925H3.59006L8.07673 3.50583L12.0901 7.51917L11.6167 7.9925H11.6234Z" fill="#303030"/>
</svg>
