<svg width="16" height="16" viewBox="0 0 16 16" fill="none" xmlns="http://www.w3.org/2000/svg">
<path d="M8.42665 9.58948V4.88281H7.49332V9.58948C6.99999 9.77615 6.65332 10.2495 6.65332 10.8095C6.65332 11.5295 7.23999 12.1161 7.95999 12.1161C8.67999 12.1161 9.26665 11.5295 9.26665 10.8095C9.26665 10.2495 8.91999 9.78281 8.42665 9.58948Z" fill="#303030"/>
<path d="M7.93996 14.6548C5.85996 14.6548 4.16663 12.9615 4.16663 10.8815C4.16663 9.72813 4.69996 8.64146 5.59996 7.92146V1.32812H10.3266V7.96813C11.2 8.68146 11.7133 9.75479 11.7133 10.8815C11.7133 12.9615 10.02 14.6548 7.93996 14.6548ZM6.53329 2.26146V8.40146L6.33329 8.54146C5.55996 9.07479 5.09996 9.94812 5.09996 10.8815C5.09996 12.4481 6.37329 13.7215 7.93996 13.7215C9.50663 13.7215 10.78 12.4481 10.78 10.8815C10.78 9.97479 10.3333 9.10813 9.58663 8.57479L9.39329 8.43479V2.26146H6.53329Z" fill="#303030"/>
</svg>
