<svg width="16" height="16" viewBox="0 0 16 16" fill="none" xmlns="http://www.w3.org/2000/svg">
<path d="M11.4968 6.43271C11.4968 3.63271 9.22343 1.35938 6.42343 1.35938C3.62343 1.35938 1.3501 3.63271 1.3501 6.43271C1.3501 9.23271 3.62343 11.506 6.42343 11.506C7.66343 11.506 8.79676 11.0594 9.67676 10.3194L13.9968 14.6327L14.6568 13.9727L10.3368 9.65938C11.0634 8.77938 11.4968 7.65938 11.4968 6.43271ZM6.42343 10.586C4.13676 10.586 2.28343 8.72604 2.28343 6.44604C2.28343 4.16604 4.14343 2.30604 6.42343 2.30604C8.70343 2.30604 10.5634 4.16604 10.5634 6.44604C10.5634 8.72604 8.70343 10.586 6.42343 10.586ZM7.65676 5.15271H8.62343V6.11938H7.65676V5.15271ZM4.32343 7.05938H5.2901V8.02604H4.32343V7.05938ZM4.80343 4.69271H6.2301V6.11938H4.80343V4.69271ZM6.7101 7.06604H8.13676V8.49271H6.7101V7.06604Z" fill="#303030"/>
</svg>
