<svg width="16" height="16" viewBox="0 0 16 16" fill="none" xmlns="http://www.w3.org/2000/svg">
<path d="M14.66 1.80469H1.33997V12.2647H14.6533V1.80469H14.66ZM13.72 11.3314H2.2733V2.74469H13.72V11.3314ZM5.13997 13.2447H10.8533V14.178H5.13997V13.2447ZM7.6733 9.28469L8.00663 9.61135L8.3333 9.27802C8.3333 9.27802 10.04 7.57135 10.1333 7.47135H10.14C10.7866 6.81802 10.7866 5.77135 10.14 5.12469C9.55997 4.54469 8.64663 4.48469 7.9933 4.96469C7.34663 4.48469 6.4333 4.53802 5.84663 5.12469C5.5333 5.43802 5.35997 5.85135 5.35997 6.29135C5.35997 6.73135 5.5333 7.14469 5.83997 7.45802C5.88663 7.50469 7.66663 9.27135 7.66663 9.27135V9.28469H7.6733ZM6.5133 5.79802C6.6533 5.65802 6.83997 5.58469 7.01997 5.58469C7.19997 5.58469 7.38663 5.65135 7.52663 5.79135C7.55997 5.83135 7.62663 5.91802 7.62663 5.91802L7.9933 6.40469L8.36663 5.92469C8.36663 5.92469 8.43997 5.82469 8.46663 5.79802C8.74663 5.51802 9.19997 5.51802 9.47997 5.79802C9.75997 6.07802 9.75997 6.53135 9.47997 6.81135C9.3733 6.91802 8.4933 7.80469 7.99997 8.29802C7.48663 7.78469 6.54663 6.85135 6.50663 6.81135C6.3733 6.67802 6.29997 6.49802 6.29997 6.30469C6.29997 6.11135 6.3733 5.93135 6.5133 5.79802Z" fill="#303030"/>
</svg>
