<svg width="16" height="16" viewBox="0 0 16 16" fill="none" xmlns="http://www.w3.org/2000/svg">
<path d="M11.61 5.15937C11.61 3.06604 9.90335 1.35938 7.81002 1.35938C5.71668 1.35938 4.01002 3.06604 4.01002 5.15937C4.01002 6.49937 4.71002 7.67938 5.76335 8.35938C3.11002 9.22604 1.18335 11.726 1.18335 14.666H2.11668C2.11668 11.5194 4.67668 8.95937 7.82335 8.95937C9.91002 8.95271 11.61 7.24604 11.61 5.15937ZM7.81002 8.02604C6.23002 8.02604 4.94335 6.73938 4.94335 5.15937C4.94335 3.57938 6.23002 2.29271 7.81002 2.29271C9.39002 2.29271 10.6767 3.57938 10.6767 5.15937C10.6767 6.73938 9.39002 8.02604 7.81002 8.02604ZM13.85 14.686L12.1633 12.9994L10.4767 14.686L9.81668 14.026L11.5033 12.3394L9.82335 10.6594L10.4833 9.99938L12.1633 11.6794L13.8367 10.006L14.4967 10.666L12.8233 12.3394L14.51 14.026L13.85 14.686Z" fill="#303030"/>
</svg>
