<svg width="16" height="16" viewBox="0 0 16 16" fill="none" xmlns="http://www.w3.org/2000/svg">
<path d="M13.0166 12.4481L14.27 10.2215L13.0166 7.99479L14.27 5.78146L13.0166 3.55479H10.5033L9.25665 1.32812H6.74331L5.48998 3.55479L6.74331 5.78146L7.99665 3.55479H10.5033L9.24998 5.78146H11.7633L13.0166 7.99479H10.51L11.7566 10.2215L10.51 12.4481H13.0166ZM2.98998 3.56813L1.73665 5.79479L2.98998 8.02146H5.50331L4.24998 5.79479L5.50331 3.56813H2.98998ZM5.49665 12.4548L6.74998 14.6681H9.25665L10.51 12.4415L9.25665 10.2148L8.00998 12.4415H5.49665L6.74998 10.2281H4.23665L2.98331 8.00146L1.72998 10.2281L2.98331 12.4548H5.49665Z" fill="#303030"/>
</svg>
