<svg width="16" height="16" viewBox="0 0 16 16" fill="none" xmlns="http://www.w3.org/2000/svg">
<path d="M6.56007 13.2472C6.56007 14.0339 7.20007 14.6739 7.98674 14.6739C8.7734 14.6739 9.4134 14.0339 9.4134 13.2472C9.4134 13.2472 9.4134 13.2472 9.4134 13.2405H14.6401V9.88719L13.2001 8.32052V6.58719H12.2667V8.68719L13.7067 10.2539V12.3072H2.2534V10.2272L3.68674 8.68719V6.58719C3.68674 4.22052 5.6134 2.30052 7.9734 2.30052C8.40673 2.30052 8.84007 2.36719 9.24673 2.49385L9.52674 1.60052C9.02673 1.44719 8.50007 1.36719 7.9734 1.36719C5.0934 1.36719 2.7534 3.70719 2.7534 6.58719V8.32052L1.32007 9.86052V13.2405H6.56007C6.56007 13.2405 6.56007 13.2405 6.56007 13.2472Z" fill="#303030"/>
<path d="M10.5 4.06615C10.5 4.85948 11.14 5.49948 11.9333 5.49948C12.7267 5.49948 13.3667 4.85948 13.3667 4.06615C13.3667 3.27281 12.7267 2.63281 11.9333 2.63281C11.14 2.63281 10.5 3.27281 10.5 4.06615Z" fill="#303030"/>
</svg>
