<svg width="16" height="16" viewBox="0 0 16 16" fill="none" xmlns="http://www.w3.org/2000/svg">
<path d="M12.76 6.11042C11.88 6.11042 11.14 6.71708 10.9333 7.53708H7.0733V3.70375H8.03997C8.24663 4.51708 8.98663 5.13042 9.86663 5.13042C10.9066 5.13042 11.76 4.28375 11.76 3.23708C11.76 2.19042 10.9133 1.34375 9.86663 1.34375C8.98663 1.34375 8.24663 1.95042 8.03997 2.77042H6.13997V7.53708H5.05997C4.8533 6.72375 4.1133 6.11042 3.2333 6.11042C2.1933 6.11042 1.33997 6.95708 1.33997 8.00375C1.33997 9.05042 2.18663 9.89708 3.2333 9.89708C4.1133 9.89708 4.8533 9.29042 5.05997 8.47042H7.51997V13.2304H9.48663C9.69996 14.0438 10.4333 14.6504 11.3133 14.6504C12.3533 14.6504 13.2066 13.8038 13.2066 12.7571C13.2066 11.7104 12.36 10.8638 11.3133 10.8638C10.4333 10.8638 9.6933 11.4704 9.48663 12.2904H8.4533V8.46375H10.9333C11.14 9.27708 11.88 9.89042 12.76 9.89042C13.8 9.89042 14.6533 9.04375 14.6533 7.99708C14.6533 6.95042 13.8066 6.10375 12.76 6.10375V6.11042ZM9.8733 2.28375C10.4 2.28375 10.8333 2.71042 10.8333 3.24375C10.8333 3.77708 10.4066 4.20375 9.8733 4.20375C9.33997 4.20375 8.9133 3.77708 8.9133 3.24375C8.9133 2.71042 9.33997 2.28375 9.8733 2.28375ZM3.23997 8.96375C2.7133 8.96375 2.27997 8.53708 2.27997 8.00375C2.27997 7.47042 2.70663 7.04375 3.23997 7.04375C3.7733 7.04375 4.19997 7.47042 4.19997 8.00375C4.19997 8.53708 3.7733 8.96375 3.23997 8.96375ZM11.3133 11.8038C11.84 11.8038 12.2733 12.2304 12.2733 12.7638C12.2733 13.2971 11.8466 13.7238 11.3133 13.7238C10.78 13.7238 10.3533 13.2971 10.3533 12.7638C10.3533 12.2304 10.78 11.8038 11.3133 11.8038ZM12.76 8.96375C12.2333 8.96375 11.8 8.53708 11.8 8.00375C11.8 7.47042 12.2266 7.04375 12.76 7.04375C13.2933 7.04375 13.72 7.47042 13.72 8.00375C13.72 8.53708 13.2933 8.96375 12.76 8.96375Z" fill="#303030"/>
</svg>
