<svg width="16" height="16" viewBox="0 0 16 16" fill="none" xmlns="http://www.w3.org/2000/svg">
<path d="M7.99992 1.32812C4.31992 1.32812 1.33325 4.30812 1.33325 7.99479C1.33325 11.6815 4.31992 14.6615 7.99992 14.6615C11.6799 14.6615 14.6666 11.6748 14.6666 7.99479C14.6666 4.31479 11.6866 1.32812 7.99992 1.32812ZM7.99992 13.7281C4.83992 13.7281 2.26659 11.1548 2.26659 7.99479C2.26659 4.83479 4.83992 2.26146 7.99992 2.26146C11.1599 2.26146 13.7333 4.83479 13.7333 7.99479C13.7333 11.1548 11.1599 13.7281 7.99992 13.7281ZM9.12658 4.81479L5.94659 7.99479L9.11992 11.1681L9.77992 10.5081L7.26658 7.99479L9.78658 5.47479L9.12658 4.81479Z" fill="#303030"/>
</svg>
