<svg width="16" height="16" viewBox="0 0 16 16" fill="none" xmlns="http://www.w3.org/2000/svg">
<path d="M12.9467 9.74583C12.9467 8.7525 12.6467 7.81917 12.06 6.9725L8.02 1.3125L3.9 6.98583C3.35333 7.79917 3.06 8.75917 3.06 9.74583C3.06 12.4725 5.27333 14.6858 8 14.6858C10.7267 14.6858 12.94 12.4725 12.94 9.74583H12.9467ZM8.00666 13.7525C5.8 13.7525 4 11.9525 4 9.74583C4 8.93917 4.23333 8.16583 4.67333 7.51917L8.02 2.9125L11.3 7.5125C11.78 8.20583 12.0133 8.9325 12.0133 9.74583C12.0133 11.9525 10.2133 13.7525 8.00666 13.7525Z" fill="#303030"/>
</svg>
