<svg width="16" height="16" viewBox="0 0 16 16" fill="none" xmlns="http://www.w3.org/2000/svg">
<path d="M13.5733 6.91708C13.5733 8.71042 12.7333 10.3304 11.38 11.3638L10.7067 10.6904C11.8933 9.84375 12.64 8.45708 12.64 6.91708C12.64 6.24375 12.5 5.61042 12.2333 5.03042C12.1067 4.73042 11.94 4.45042 11.7467 4.19042C10.9067 3.03042 9.54002 2.27708 8.00002 2.27708C6.46002 2.27708 5.08002 3.04375 4.23335 4.21708C4.04668 4.47708 3.88668 4.76375 3.75335 5.06375C3.50668 5.63042 3.36668 6.25708 3.36668 6.91708C3.36668 8.44375 4.10002 9.82375 5.27335 10.6637L4.60002 11.3371C3.26002 10.3104 2.43335 8.69708 2.43335 6.91708C2.43335 5.99708 2.66002 5.13042 3.05335 4.36375C3.20002 4.07708 3.37335 3.80375 3.56668 3.55042C4.58668 2.21042 6.19335 1.34375 8.00002 1.34375C9.80668 1.34375 11.4 2.19708 12.4134 3.52375C12.6133 3.77708 12.7867 4.04375 12.9333 4.33042C13.34 5.10375 13.5733 5.98375 13.5733 6.91708ZM11.4134 6.91042C11.4134 8.08375 10.8 9.17708 9.81335 9.79708L9.12668 9.11042C9.95335 8.69042 10.48 7.83708 10.48 6.91042C10.48 6.87042 10.48 6.83042 10.4733 6.79042C10.46 6.41708 10.36 6.06375 10.1867 5.75042C9.77335 4.97042 8.94668 4.43708 8.00002 4.43708C7.05335 4.43708 6.21335 4.98375 5.80002 5.78375C5.63335 6.10375 5.54002 6.45708 5.53335 6.83708V6.91042C5.53335 7.83708 6.04668 8.67042 6.85335 9.09042L6.16668 9.77708C5.20002 9.15708 4.60002 8.09042 4.60002 6.91042C4.60002 6.60375 4.64002 6.30375 4.72002 6.01708C4.80668 5.69042 4.94668 5.37708 5.12002 5.09708C5.72668 4.14375 6.80002 3.50375 8.00668 3.50375C9.21335 3.50375 10.2733 4.13042 10.8733 5.07042C11.0533 5.35042 11.1933 5.65042 11.2867 5.97708C11.3733 6.27042 11.42 6.58375 11.42 6.91042H11.4134ZM7.53335 7.97708V13.7304H8.46668V7.97708C8.88002 7.79708 9.16668 7.39042 9.16668 6.91042C9.16668 6.26375 8.64668 5.74375 8.00002 5.74375C7.35335 5.74375 6.83335 6.26375 6.83335 6.91042C6.83335 7.39042 7.12002 7.79708 7.53335 7.97708ZM5.62002 13.7304H10.36V14.6637H5.62002V13.7304Z" fill="#303030"/>
</svg>
