<svg width="16" height="16" viewBox="0 0 16 16" fill="none" xmlns="http://www.w3.org/2000/svg">
<path d="M6.53333 11.8672H13.6667V12.8005H6.53333V11.8672Z" fill="#303030"/>
<path d="M6.53333 7.53125H13.6667V8.46458H6.53333V7.53125Z" fill="#303030"/>
<path d="M6.53333 3.26562H13.6667V4.19896H6.53333V3.26562Z" fill="#303030"/>
<path d="M3.33331 7.53125C3.33331 7.26458 3.46664 7.13125 3.73331 7.13125C3.99998 7.13125 4.06664 7.19792 4.06664 7.39792C4.06664 7.73125 3.66664 8.13125 3.39998 8.39792L2.66664 9.13125V9.53125H4.79998V8.93125H3.79998L3.99998 8.73125C4.39998 8.26458 4.73331 7.86458 4.73331 7.39792C4.73331 6.93125 4.33331 6.53125 3.73331 6.53125C3.13331 6.53125 2.66664 6.93125 2.59998 7.53125V7.73125H3.26664V7.59792L3.33331 7.53125Z" fill="#303030"/>
<path d="M3.9333 10.8672C3.3333 10.8672 2.86664 11.2672 2.86664 11.8005V12.0005H3.5333V11.8672C3.5333 11.6005 3.66664 11.4672 3.9333 11.4672C4.19997 11.4672 4.26664 11.5339 4.26664 11.7339C4.26664 11.9339 4.19997 12.0005 3.99997 12.0005H3.5333V12.6005H3.99997C4.19997 12.6005 4.39997 12.6005 4.39997 12.9339C4.39997 13.2672 4.26664 13.2672 3.99997 13.2672C3.7333 13.2672 3.5333 13.2672 3.5333 12.9339V12.8005H2.86664V13.0005C2.86664 13.6005 3.3333 13.9339 3.99997 13.9339C4.66664 13.9339 5.06664 13.5339 5.06664 13.0005C5.06664 12.4672 4.9333 12.4672 4.7333 12.3339C4.86664 12.2005 4.99997 12.0005 4.99997 11.7339C4.99997 11.2005 4.59997 10.8672 3.99997 10.8672H3.9333Z" fill="#303030"/>
<path d="M3.39999 5.33281H4.06665V2.13281H3.39999C3.39999 2.19948 3.39999 2.26615 3.39999 2.33281V2.39948C3.39999 2.39948 3.33332 2.39948 3.26665 2.39948H2.79999V2.93281H3.46665V5.26615L3.39999 5.33281Z" fill="#303030"/>
</svg>
