<svg width="16" height="16" viewBox="0 0 16 16" fill="none" xmlns="http://www.w3.org/2000/svg">
<path d="M13.24 2.76031H11.8V1.32031H10.8666V2.75365H8.46663V1.32031H7.5333V2.75365H5.1333V1.32031H4.19997V2.75365H2.75997V4.20031H1.33997V5.13365H2.75997V7.53365H1.33997V8.46698H2.75997V10.867H1.33997V11.8003H2.75997V13.2336H4.19997V14.6603H5.1333V13.2336H7.5333V14.6603H8.46663V13.2336H10.8666V14.6603H11.8V13.2336H13.24V11.8003H14.66V10.867H13.24V8.46698H14.66V7.53365H13.24V5.13365H14.66V4.20031H13.24V2.75365V2.76031ZM12.3066 12.3003H3.6933V3.69365H12.3V12.3003H12.3066Z" fill="#303030"/>
<path d="M9.92659 10.854H10.8599V5.14062H5.12659V10.854H9.93325H9.92659ZM6.05992 6.07396H9.93325V9.92062H6.05992V6.07396Z" fill="#303030"/>
</svg>
