<svg width="16" height="16" viewBox="0 0 16 16" fill="none" xmlns="http://www.w3.org/2000/svg">
<path d="M12.5068 13.9535V11.8002H14.6534V10.8669H12.5068V8.71354H11.5734V10.8669H9.41342V11.8002H11.5734V13.9535H12.5068ZM14.6601 2.04688H1.34009V12.5269H8.46675V2.98021H13.7201V7.97354H14.6534V2.04688H14.6601ZM7.53342 11.5935H2.27342V2.98021H7.52675V11.5935H7.53342ZM9.42675 6.81354H12.7601V7.74688H9.42675V6.81354ZM9.43342 4.43354H12.7668V5.36688H9.43342V4.43354ZM3.90009 9.97354L6.59342 7.28688L3.90675 4.60021L3.24675 5.26021L5.27342 7.28688L3.24009 9.31354L3.90009 9.97354Z" fill="#303030"/>
</svg>
