<svg width="16" height="16" viewBox="0 0 16 16" fill="none" xmlns="http://www.w3.org/2000/svg">
<path d="M11.4267 2.77344C10.6933 2.77344 9.86666 3.1201 9.20666 3.7801C8.25333 4.73344 7.96 6.01344 8.40666 6.89344L2.91333 12.3868L3.57333 13.0468L9.05333 7.56677C9.33333 7.72677 9.66 7.80677 10.0067 7.80677C10.74 7.80677 11.5667 7.4601 12.2267 6.8001C13.34 5.68677 13.5667 4.10677 12.7333 3.27344C12.3933 2.93344 11.9333 2.77344 11.4267 2.77344ZM11.5667 6.14677C11.1067 6.60677 10.52 6.8801 10.0067 6.8801C9.82 6.8801 9.55333 6.8401 9.36 6.65344C9.1 6.39344 9.11333 6.0001 9.14666 5.78677C9.21333 5.32677 9.47333 4.8401 9.86666 4.44677C10.3267 3.98677 10.9133 3.71344 11.4267 3.71344C11.6133 3.71344 11.88 3.75344 12.0733 3.9401C12.4733 4.3401 12.3667 5.34677 11.5667 6.14677Z" fill="#303030"/>
</svg>
