<svg width="16" height="16" viewBox="0 0 16 16" fill="none" xmlns="http://www.w3.org/2000/svg">
<path d="M14.0067 3.53823L12.4734 2.01156L11.8134 1.35156L11.1534 2.01156L7.25341 5.91823L2.74008 1.4049L2.08008 2.0649L13.9934 13.9782L14.6534 13.3182L10.1001 8.75823L14.6667 4.19156L14.0067 3.53156V3.53823ZM9.44008 8.1049L7.91341 6.57823L11.8134 2.67156L13.3467 4.19823L9.44008 8.1049Z" fill="#303030"/>
<path d="M4.32011 13.2277L2.48677 13.521L2.79344 11.701L6.60011 7.89437L5.94011 7.23438L1.92011 11.2544L1.86677 11.5477L1.56677 13.3677L1.36011 14.641L2.63344 14.441L4.46677 14.1544L4.76677 14.1077L4.98011 13.8877L8.78677 10.081L8.12677 9.42104L4.32011 13.2277Z" fill="#303030"/>
</svg>
