<svg width="16" height="16" viewBox="0 0 16 16" fill="none" xmlns="http://www.w3.org/2000/svg">
<path d="M9.43341 11.4849H11.1001L11.4401 12.6182H12.4134L10.8934 7.85156H9.64008L8.16675 12.6182H9.10675L9.44008 11.4849H9.43341ZM10.2601 8.65823L10.8867 10.7582H9.64675L10.2601 8.65823Z" fill="#303030"/>
<path d="M5.90671 14.6658H14.6667V5.80583H10.1934V1.3125H1.33337V10.1725L5.90671 10.1592V14.6592V14.6658ZM13.7334 13.7325H6.84004V6.73917H13.7334V13.7325ZM2.26671 9.23917V2.24583H9.26004V5.79917H6.92004C7.02004 5.4725 7.08671 5.13917 7.09337 4.78583H8.03337V4.11917H6.10004V2.76583H5.43337V4.11917H3.49337V4.78583H6.42004C6.42004 5.13917 6.34671 5.47917 6.22004 5.79917H5.90004V6.3925C5.84004 6.48583 5.76004 6.56583 5.68671 6.64583C5.38004 6.32583 5.13337 5.94583 4.98004 5.5125L4.34671 5.7325C4.52671 6.2525 4.82004 6.7125 5.19337 7.09917C4.70004 7.4525 4.11337 7.6525 3.49337 7.6525V8.31917C4.30671 8.31917 5.06671 8.03917 5.69337 7.54583C5.75337 7.5925 5.82671 7.62583 5.89337 7.66583V9.22583L2.25337 9.2325L2.26671 9.23917Z" fill="#303030"/>
</svg>
