<svg width="16" height="16" viewBox="0 0 16 16" fill="none" xmlns="http://www.w3.org/2000/svg">
<path d="M8.22331 14.6693V13.2293H8.40331C9.20331 13.2293 9.87664 13.1159 10.43 12.8893C10.9766 12.6626 11.39 12.3359 11.6633 11.9093C11.9366 11.4826 12.0766 10.9493 12.0766 10.3226C12.0766 9.52927 11.8033 8.9026 11.2633 8.43594C10.87 8.09594 10.3033 7.87594 9.56997 7.7626C9.91664 7.69594 10.23 7.6026 10.4833 7.47594C10.93 7.24927 11.2566 6.9626 11.4433 6.60927C11.6366 6.25594 11.73 5.84927 11.73 5.38927C11.73 4.51594 11.4233 3.85594 10.8033 3.40927C10.2166 2.9826 9.35664 2.7626 8.23664 2.7426V1.33594H7.30331V2.7426H3.90997V3.67594H4.89664V12.2959H3.90997V13.2293H7.30331V14.6693H8.23664H8.22331ZM5.97664 3.6826H7.96997C8.91664 3.6826 9.59664 3.82927 10.01 4.12927C10.4233 4.42927 10.6233 4.8826 10.6233 5.5026C10.6233 5.91594 10.5366 6.25594 10.3566 6.52927C10.1833 6.8026 9.89664 7.00927 9.50331 7.1426C9.10997 7.2826 8.59664 7.34927 7.96331 7.34927H5.96997V3.6826H5.97664ZM5.97664 12.2893V8.3026H8.33664C9.26331 8.3026 9.93664 8.4626 10.35 8.78927C10.7633 9.10927 10.9766 9.6026 10.9766 10.2693C10.9766 10.9359 10.7633 11.4226 10.33 11.7693C9.89664 12.1159 9.23664 12.2893 8.33664 12.2893H5.97664Z" fill="#303030"/>
</svg>
