<svg width="16" height="16" viewBox="0 0 16 16" fill="none" xmlns="http://www.w3.org/2000/svg">
<path d="M7.18328 4.18812C7.18328 2.61479 6.12328 1.34146 4.81662 1.34146C3.50995 1.34146 2.44995 2.62146 2.44995 4.18812C2.44995 5.60146 3.30995 6.76812 4.43662 6.98812V14.6815H5.36995V6.94812C6.40328 6.64812 7.17662 5.52812 7.17662 4.18812H7.18328ZM4.81662 6.10146C4.02995 6.10146 3.38328 5.24146 3.38328 4.18812C3.38328 3.13479 4.02328 2.27479 4.81662 2.27479C5.60995 2.27479 6.24995 3.13479 6.24995 4.18812C6.24995 5.24146 5.60995 6.10146 4.81662 6.10146ZM13.5566 1.32812H12.6233V6.24812H11.6766V1.32812H10.7433V6.24812H9.76328V1.32812H8.82995V7.18813H10.7433V14.6615H11.6766V7.18813H13.5566V1.32812Z" fill="#303030"/>
</svg>
