<svg width="16" height="16" viewBox="0 0 16 16" fill="none" xmlns="http://www.w3.org/2000/svg">
<path d="M14.6534 7.55781H11.4934L10.4068 8.62448L7.98011 6.30448L6.64677 7.61781L5.26677 6.25781L3.94677 7.55115H1.36011V8.47115H4.33344L5.26677 7.55781L6.64677 8.91781L7.98011 7.60448L10.4068 9.92448L11.8801 8.47781H14.6534V7.55781Z" fill="#303030"/>
<path d="M10.8601 1.47656C9.7401 1.47656 8.69343 1.98323 7.98009 2.83656C7.26676 1.98323 6.22009 1.47656 5.10009 1.47656C3.00676 1.47656 1.38009 3.46323 1.32676 5.23656C1.32009 5.53656 1.35343 5.8099 1.42676 6.07656H2.40676C2.30009 5.81656 2.24676 5.55656 2.25343 5.2699C2.28676 4.10323 3.41343 2.41656 5.09343 2.41656C6.11343 2.41656 7.06009 2.98323 7.56676 3.8899L7.97343 4.62323L8.38009 3.8899C8.88676 2.98323 9.83343 2.41656 10.8534 2.41656C12.5334 2.41656 13.6601 4.1099 13.6934 5.2699C13.7068 5.5899 13.6334 5.87656 13.5001 6.1699H14.4934C14.5868 5.87656 14.6334 5.57656 14.6268 5.24323C14.5734 3.4699 12.9468 1.48323 10.8534 1.48323L10.8601 1.47656Z" fill="#303030"/>
<path d="M7.69348 14.3863L8.00015 14.6796L8.30682 14.3863C9.82015 12.9463 11.2201 11.4462 12.5001 9.90625H11.4268L10.6601 10.6729C9.82015 11.6196 8.93348 12.5463 8.00015 13.4463C6.81348 12.3063 5.69348 11.1129 4.66015 9.90625H3.48682C4.76682 11.4462 6.18015 12.9463 7.69348 14.3863Z" fill="#303030"/>
</svg>
