<svg width="16" height="16" viewBox="0 0 16 16" fill="none" xmlns="http://www.w3.org/2000/svg">
<path d="M11.0534 9.16219L12.3801 11.8089L7.9001 11.8155L8.77343 10.9422L8.11343 10.2822L6.1001 12.3022L8.10676 14.3089L8.76676 13.6489L7.87343 12.7489L13.8934 12.7422L11.8934 8.74219L11.0534 9.16219Z" fill="#303030"/>
<path d="M5.71339 6.55469L3.06006 7.58135L3.40006 8.44802L4.52006 8.01469L2.14673 12.7547L4.73339 12.748V11.8147H3.66006L5.40673 8.34135L5.87339 9.54802L6.74006 9.20802L5.71339 6.55469Z" fill="#303030"/>
<path d="M8.13348 6.95271L10.7468 8.10604L11.8935 5.50604L11.0335 5.12604L10.5068 6.33271L8.01348 1.35938L5.98682 5.40604L6.82015 5.82604L8.01348 3.43937L9.58015 6.57271L8.51348 6.09937L8.13348 6.95271Z" fill="#303030"/>
</svg>
