<svg width="16" height="16" viewBox="0 0 16 16" fill="none" xmlns="http://www.w3.org/2000/svg">
<path d="M1.34663 14.6771H14.66V1.34375H1.33997V14.6704L1.34663 14.6771ZM4.65997 8.46375H11.3466V13.7371H4.65997V8.46375ZM12.2733 6.40375H13.72V9.60375H12.2733V6.40375ZM11.34 7.53708H4.65997V2.27708H11.3466V7.53042H11.34V7.53708ZM3.71997 9.60375H2.2733V6.40375H3.71997V9.60375ZM3.71997 10.5437V13.7437H2.2733V10.5437H3.71997ZM12.2733 13.7437V10.5437H13.72V13.7437H12.2733ZM13.72 5.47042H12.2733V2.27708H13.72V5.47042ZM3.71997 2.27708V5.47042H2.2733V2.27708H3.71997Z" fill="#303030"/>
</svg>
