<svg width="16" height="16" viewBox="0 0 16 16" fill="none" xmlns="http://www.w3.org/2000/svg">
<path d="M14.66 1.35156H5.15332V4.19156H14.66V1.35156ZM13.72 3.25156H6.07999V2.27823H13.72V3.25156Z" fill="#303030"/>
<path d="M4.18009 6.57812H1.34009V9.41813H4.18009V6.57812ZM3.24675 8.48479H2.27342V7.51146H3.24675V8.48479Z" fill="#303030"/>
<path d="M5.15332 9.41813H14.66V6.57812H5.15332V9.41813ZM6.08665 7.51813H13.7267V8.49146H6.08665V7.51813Z" fill="#303030"/>
<path d="M5.16003 14.6603H14.6667V11.8203H5.16003V14.6603ZM6.09337 12.7536H13.7334V13.727H6.09337V12.7536Z" fill="#303030"/>
<path d="M2.76009 4.18375C3.54009 4.18375 4.18009 3.55042 4.18009 2.76375C4.18009 1.97708 3.54675 1.34375 2.76009 1.34375C1.97342 1.34375 1.34009 1.97708 1.34009 2.76375C1.34009 3.55042 1.97342 4.18375 2.76009 4.18375ZM2.76009 2.28375C3.02675 2.28375 3.24675 2.50375 3.24675 2.77042C3.24675 3.03708 3.02675 3.25708 2.76009 3.25708C2.49342 3.25708 2.27342 3.03708 2.27342 2.77042C2.27342 2.50375 2.49342 2.28375 2.76009 2.28375Z" fill="#303030"/>
<path d="M3.24004 14.6725L4.19337 13.7192V12.7658L3.24004 11.8125H2.28671L1.33337 12.7658V13.7192L2.28671 14.6725H3.24004ZM2.26671 13.1525L2.67337 12.7458H2.85337L3.26004 13.1525V13.3325L2.85337 13.7392H2.67337L2.26671 13.3325V13.1525Z" fill="#303030"/>
</svg>
