<svg width="16" height="16" viewBox="0 0 16 16" fill="none" xmlns="http://www.w3.org/2000/svg">
<path d="M6.38669 14.6415L1.40002 9.65479L9.66002 1.32812H14.6734V6.36146L6.39336 14.6415H6.38669ZM2.71336 9.64812L6.38669 13.3148L13.7334 5.96812V2.26146H10.0467L2.71336 9.64812Z" fill="#303030"/>
<path d="M11.1866 6.24302C10.8066 6.24302 10.4533 6.09635 10.1866 5.82969C9.91998 5.56302 9.77332 5.20302 9.77332 4.82969C9.77332 4.45635 9.91998 4.09635 10.1866 3.82969C10.72 3.29635 11.6533 3.29635 12.1866 3.82969C12.4533 4.09635 12.6 4.44969 12.6 4.82969C12.6 5.20969 12.4533 5.56302 12.1866 5.82969C11.92 6.09635 11.5666 6.24302 11.1866 6.24302ZM11.1866 4.34302C11.06 4.34302 10.9333 4.39635 10.8466 4.48302C10.7533 4.57635 10.7066 4.69635 10.7066 4.82302C10.7066 4.94969 10.76 5.07635 10.8466 5.16302C11.0266 5.34302 11.3466 5.34302 11.5266 5.16302C11.62 5.06969 11.6666 4.94969 11.6666 4.82302C11.6666 4.69635 11.6133 4.56969 11.5266 4.48302C11.44 4.39635 11.3133 4.34302 11.1866 4.34302Z" fill="#303030"/>
</svg>
