<svg width="16" height="16" viewBox="0 0 16 16" fill="none" xmlns="http://www.w3.org/2000/svg">
<path d="M14.2 4.41042L13.2867 4.19708L12.3734 8.01708H5.07338L3.76672 1.84375H1.80005V2.77708H3.01338L4.81338 11.2971H12.7667V10.3638H5.56672L5.26672 8.95042H13.1067L14.2 4.41042ZM10.6934 4.33042L9.44005 5.62375V1.93708H8.50672V5.62375L7.21338 4.32375L6.54672 4.98375L8.98671 7.43042L11.3667 4.97708L10.6934 4.33042ZM5.55338 14.1504C4.87338 14.1504 4.32005 13.5971 4.32005 12.9171C4.32005 12.2371 4.87338 11.6838 5.55338 11.6838C6.23338 11.6838 6.78672 12.2371 6.78672 12.9171C6.78672 13.5971 6.23338 14.1504 5.55338 14.1504ZM5.55338 12.6104C5.38672 12.6104 5.25338 12.7438 5.25338 12.9104C5.25338 13.0771 5.38672 13.2104 5.55338 13.2104C5.72005 13.2104 5.85338 13.0771 5.85338 12.9104C5.85338 12.7438 5.72005 12.6104 5.55338 12.6104ZM12.42 14.1504C11.74 14.1504 11.1867 13.5971 11.1867 12.9171C11.1867 12.2371 11.74 11.6838 12.42 11.6838C13.1 11.6838 13.6534 12.2371 13.6534 12.9171C13.6534 13.5971 13.1 14.1504 12.42 14.1504ZM12.42 12.6104C12.2534 12.6104 12.12 12.7438 12.12 12.9104C12.12 13.0771 12.2534 13.2104 12.42 13.2104C12.5867 13.2104 12.72 13.0771 12.72 12.9104C12.72 12.7438 12.5867 12.6104 12.42 12.6104Z" fill="#303030"/>
</svg>
