<svg width="16" height="16" viewBox="0 0 16 16" fill="none" xmlns="http://www.w3.org/2000/svg">
<path d="M9.71005 1.33594H2.05005V14.6693H7.28338V13.7359H2.98338V2.26927H8.73005V5.12927H11.6034V7.99594H12.5367V4.5026L9.71005 1.33594ZM9.67672 2.69594L11.0234 4.2026H9.67672V2.69594ZM13.9567 13.5159V9.1826L9.91672 9.78927V12.3626C9.84338 12.3493 9.76338 12.3426 9.68338 12.3426C9.04338 12.3426 8.52338 12.8626 8.52338 13.5026C8.52338 14.1426 9.04338 14.6626 9.68338 14.6626C10.3234 14.6626 10.8367 14.1493 10.8434 13.5159V11.4359L13.0167 11.0893V12.3693C12.9434 12.3559 12.87 12.3493 12.79 12.3493C12.15 12.3493 11.63 12.8693 11.63 13.5093C11.63 14.1493 12.15 14.6693 12.79 14.6693C13.43 14.6693 13.91 14.1826 13.9434 13.5759V13.5226H13.9567V13.5159Z" fill="#303030"/>
</svg>
