<svg width="16" height="16" viewBox="0 0 16 16" fill="none" xmlns="http://www.w3.org/2000/svg">
<path d="M1.32666 11.7736H14.64V1.32031H1.32666V11.7803V11.7736ZM2.25999 2.25365H13.7067V10.8403H2.25999V2.25365Z" fill="#303030"/>
<path d="M5.12671 12.75H10.84V13.6833H5.12671V12.75Z" fill="#303030"/>
<path d="M7.99997 5.71875C7.51997 5.71875 7.1333 6.09875 7.1333 6.57208C7.1333 7.04542 7.51997 7.42542 7.99997 7.42542C8.47997 7.42542 8.86663 7.04542 8.86663 6.57208C8.86663 6.09875 8.47997 5.71875 7.99997 5.71875Z" fill="#303030"/>
<path d="M7.97996 4.3426C6.77996 4.3426 5.73329 5.22927 5.16663 6.56927C5.71996 7.9226 6.77996 8.82927 7.99329 8.82927C9.20663 8.82927 10.2533 7.9426 10.8133 6.60927C10.26 5.24927 9.19996 4.33594 7.97996 4.33594V4.3426ZM7.99996 7.9026C7.31329 7.9026 6.64663 7.4026 6.20663 6.5826C6.64663 5.76927 7.30663 5.2826 7.98663 5.2826C8.66663 5.2826 9.34663 5.7826 9.79329 6.61594C9.34663 7.4226 8.68663 7.90927 8.00663 7.90927L7.99996 7.9026Z" fill="#303030"/>
</svg>
