<svg width="16" height="16" viewBox="0 0 16 16" fill="none" xmlns="http://www.w3.org/2000/svg">
<path d="M14.6666 7.73156L14.6533 1.35156H8.18658L5.41992 4.11823L2.70659 1.4049L2.04659 2.0649L13.9466 13.9649L14.6066 13.3049L11.8466 10.5449L14.6666 7.7249V7.73156ZM8.57325 2.2849H13.7199L13.7333 7.3449L11.1933 9.8849L9.97992 8.67156L10.3199 8.33156L9.65992 7.67156L9.31992 8.01156L8.09992 6.79156L10.0599 4.83156L9.39992 4.17156L7.43992 6.13156L6.08659 4.77823L8.57992 2.2849H8.57325ZM9.87325 11.2116L10.5333 11.8716L7.75992 14.6449L1.33325 8.21156L4.10659 5.43823L4.76659 6.09823L2.65325 8.21156L7.75992 13.3182L9.87325 11.2049V11.2116ZM7.75992 10.8982L7.09992 10.2382L7.99992 9.33823L8.65992 9.99823L7.75992 10.8982ZM6.77992 8.11823L5.87992 9.01823L5.21992 8.35823L6.11992 7.45823L6.77992 8.11823Z" fill="#303030"/>
</svg>
