<svg width="16" height="16" viewBox="0 0 16 16" fill="none" xmlns="http://www.w3.org/2000/svg">
<path d="M8.06012 3.25334C8.06012 3.25334 8.02679 3.29334 8.00679 3.31334C7.98012 3.28667 7.96012 3.26001 7.94012 3.24001C7.22012 2.52001 6.26679 2.12667 5.25345 2.12667C4.24012 2.12667 3.28012 2.52001 2.56679 3.24001C1.08679 4.72001 1.08679 7.13334 2.56679 8.61334C2.70012 8.74667 7.69345 13.72 7.69345 13.72L8.02679 14.0467L8.35345 13.7133C9.72012 12.34 13.3068 8.74667 13.4401 8.62001H13.4468C14.9268 7.12667 14.9268 4.72001 13.4468 3.23334C11.9601 1.75334 9.55345 1.75334 8.06012 3.24667V3.25334ZM12.7868 7.95334C12.5735 8.16001 9.16679 11.58 8.01345 12.7333C6.90012 11.62 3.32679 8.06667 3.21345 7.96001C2.09345 6.84001 2.09345 5.02001 3.21345 3.90667C3.75345 3.36667 4.47345 3.06667 5.24012 3.06667C6.00679 3.06667 6.72679 3.36667 7.26679 3.90667C7.38679 4.02667 7.62012 4.34001 7.62012 4.34001L7.98679 4.82667L8.36012 4.34667C8.36012 4.34667 8.60679 4.02667 8.72012 3.90667C9.84012 2.78667 11.6601 2.78667 12.7735 3.90667C13.8935 5.02667 13.8935 6.84001 12.7735 7.96001L12.7868 7.95334Z" fill="#303030"/>
</svg>
