<svg width="16" height="16" viewBox="0 0 16 16" fill="none" xmlns="http://www.w3.org/2000/svg">
<path d="M3.47337 10.1426C4.14004 10.1426 4.73337 9.82927 5.12004 9.34927L10.4467 12.0093C10.4067 12.1759 10.38 12.3426 10.38 12.5226C10.38 13.7026 11.34 14.6626 12.52 14.6626C13.7 14.6626 14.66 13.7026 14.66 12.5226C14.66 11.3426 13.7 10.3826 12.52 10.3826C11.8534 10.3826 11.2667 10.6959 10.8734 11.1759L5.54671 8.51594C5.58671 8.34927 5.61337 8.1826 5.61337 8.0026C5.61337 7.8226 5.58671 7.65594 5.54671 7.48927L10.88 4.8226C11.2734 5.3026 11.86 5.61594 12.5267 5.61594C13.7067 5.61594 14.6667 4.65594 14.6667 3.47594C14.6667 2.29594 13.7067 1.33594 12.5267 1.33594C11.3467 1.33594 10.3867 2.29594 10.3867 3.47594C10.3867 3.65594 10.4134 3.8226 10.4534 3.98927L5.12004 6.65594C4.72671 6.17594 4.14004 5.8626 3.47337 5.8626C2.29337 5.8626 1.33337 6.8226 1.33337 8.0026C1.33337 9.1826 2.29337 10.1426 3.47337 10.1426ZM12.52 11.3159C13.1867 11.3159 13.7267 11.8559 13.7267 12.5226C13.7267 13.1893 13.1867 13.7293 12.52 13.7293C11.8534 13.7293 11.3134 13.1893 11.3134 12.5226C11.3134 11.8559 11.8534 11.3159 12.52 11.3159ZM12.52 2.26927C13.1867 2.26927 13.7267 2.80927 13.7267 3.47594C13.7267 4.1426 13.1867 4.6826 12.52 4.6826C11.8534 4.6826 11.3134 4.1426 11.3134 3.47594C11.3134 2.80927 11.8534 2.26927 12.52 2.26927ZM3.47337 6.79594C4.14004 6.79594 4.68004 7.33594 4.68004 8.0026C4.68004 8.66927 4.14004 9.20927 3.47337 9.20927C2.80671 9.20927 2.26671 8.66927 2.26671 8.0026C2.26671 7.33594 2.80671 6.79594 3.47337 6.79594Z" fill="#303030"/>
</svg>
