<svg width="16" height="16" viewBox="0 0 16 16" fill="none" xmlns="http://www.w3.org/2000/svg">
<path d="M14.6534 14.6548H1.33337V1.32812H7.98671V2.26146H2.26671V13.7215H13.72V8.00146H14.6534V14.6548Z" fill="#303030"/>
<path d="M11.2734 1.3125L10.6134 1.9725L12.8267 4.18583H8.70006C6.69339 4.18583 5.06006 5.67917 5.06006 7.5125C5.06006 9.07917 6.22673 10.4125 7.90006 10.7525C8.17339 10.8058 8.68006 10.8325 8.94006 10.8325V9.89917C8.68672 9.89917 8.26006 9.8725 8.08672 9.83917C6.85339 9.58583 5.99339 8.6325 5.99339 7.5125C5.99339 6.19917 7.20673 5.12583 8.70006 5.12583H12.8134L10.5934 7.33917L11.2534 7.99917L14.6067 4.64583L11.2734 1.3125Z" fill="#303030"/>
</svg>
