<svg width="16" height="16" viewBox="0 0 16 16" fill="none" xmlns="http://www.w3.org/2000/svg">
<path d="M10.1734 10.0359C8.06002 9.2426 6.66669 7.85594 5.92669 5.79594L7.38669 4.31594L6.41335 1.33594L1.31335 1.67594L1.36002 2.15594C2.17335 10.2959 6.14002 14.2559 13.8334 14.6093L14.2934 14.6293L14.6334 9.55594L11.6534 8.5826L10.1734 10.0359ZM13.6534 10.2159L13.4267 13.6493C6.63335 13.1959 3.19335 9.74927 2.34002 2.5426L5.74669 2.31594L6.31335 4.0626L4.85335 5.54927L4.94002 5.81594C5.76669 8.36927 7.51335 10.1226 10.1334 11.0159L10.4067 11.1093L11.8934 9.6426L13.64 10.2093L13.6534 10.2159Z" fill="#303030"/>
</svg>
