<svg width="16" height="16" viewBox="0 0 16 16" fill="none" xmlns="http://www.w3.org/2000/svg">
<path d="M2.00665 4.99385L2.83999 5.42052C2.56665 5.95385 2.37999 6.52719 2.28665 7.12052L1.36665 6.97385C1.47332 6.28052 1.69332 5.61385 2.01332 4.99385H2.00665ZM2.27999 8.91385L1.35999 9.05385C1.45999 9.72052 1.69332 10.4072 2.01999 11.0339L2.84665 10.6072C2.56665 10.0739 2.37332 9.47385 2.28665 8.91385H2.27999ZM7.93999 2.30052C10.34 2.30052 13.6667 4.28719 13.6667 8.02719C13.6667 10.3672 12.34 12.3805 10.2 13.2872C8.01999 14.2072 5.60665 13.7405 3.89332 12.0739L3.23999 12.7405C4.55332 14.0139 6.21999 14.6872 7.93332 14.6872C8.81332 14.6872 9.70665 14.5072 10.5667 14.1472C13.0533 13.0939 14.6 10.7539 14.6 8.02719C14.6 4.04719 11.16 1.36719 7.93999 1.36719C7.54665 1.36719 7.19332 1.40052 6.87999 1.46052L7.05999 2.37385C7.30665 2.32719 7.61332 2.30052 7.93999 2.30052ZM3.25332 3.31385L3.91332 3.97385C4.33999 3.54719 4.82665 3.19385 5.36665 2.92052L4.93999 2.08719C4.31999 2.40719 3.74665 2.82052 3.25332 3.31385ZM6.93332 5.18719H5.99999V10.9405H6.93332V5.18719ZM8.89332 5.18719V10.9405H9.82665V5.18719H8.89332Z" fill="#303030"/>
</svg>
