<svg width="16" height="16" viewBox="0 0 16 16" fill="none" xmlns="http://www.w3.org/2000/svg">
<path d="M8.46007 9.84885L8.49341 3.24219H7.56007L7.52674 9.85552C7.04674 10.0489 6.70007 10.5155 6.70007 11.0689C6.70007 11.7889 7.28674 12.3755 8.00674 12.3755C8.72674 12.3755 9.31341 11.7889 9.31341 11.0689C9.31341 10.5089 8.96007 10.0289 8.46007 9.84885Z" fill="#303030"/>
<path d="M8.02004 14.686C5.94004 14.686 4.2467 12.9927 4.2467 10.9127C4.2467 9.75938 4.78004 8.67271 5.68004 7.95937V1.35938H10.4067V7.99938C11.28 8.71271 11.7934 9.78604 11.7934 10.9127C11.7934 12.9927 10.1 14.686 8.02004 14.686ZM6.6067 2.29271V8.43271L6.4067 8.57271C5.63337 9.10604 5.17337 9.97938 5.17337 10.9127C5.17337 12.4794 6.4467 13.7527 8.01337 13.7527C9.58004 13.7527 10.8534 12.4794 10.8534 10.9127C10.8534 10.006 10.4067 9.13938 9.66004 8.60604L9.4667 8.46604V2.29271H6.6067Z" fill="#303030"/>
</svg>
