<svg width="16" height="16" viewBox="0 0 16 16" fill="none" xmlns="http://www.w3.org/2000/svg">
<path d="M9.2 8.03531C9.36 7.84865 9.58 7.61531 9.86666 7.34198C10.1533 7.06198 10.3867 6.82198 10.56 6.60865C10.7333 6.39531 10.8867 6.15531 11.0133 5.88198C11.14 5.60865 11.2 5.30865 11.2 4.98865C11.2 4.28198 10.9467 3.72198 10.44 3.30865C9.93333 2.89531 9.22 2.69531 8.29333 2.69531C7.59333 2.69531 6.98666 2.82198 6.47333 3.07531C5.96 3.32865 5.55333 3.68865 5.26 4.16198C4.96666 4.63531 4.80666 5.20198 4.76666 5.86198H5.68666C5.74666 5.07531 5.99333 4.48198 6.42666 4.06865C6.86 3.65531 7.47333 3.45531 8.25333 3.45531C8.89333 3.45531 9.39333 3.58865 9.75333 3.86198C10.1133 4.13531 10.2933 4.52198 10.2933 5.02865C10.2933 5.38865 10.2 5.70865 10.0067 5.97531C9.81333 6.24198 9.52666 6.55531 9.14666 6.92198C8.83333 7.22865 8.58 7.48865 8.39333 7.70198C8.20666 7.91531 8.04666 8.17531 7.91333 8.47531C7.78 8.77531 7.71333 9.11531 7.71333 9.50198V10.0153H8.63333V9.51531C8.63333 9.20865 8.69333 8.93531 8.80666 8.68198C8.92 8.43531 9.06 8.21531 9.21333 8.02865L9.2 8.03531Z" fill="#303030"/>
<path d="M7.70001 11.2969H8.64668V13.1035H7.70001V11.2969Z" fill="#303030"/>
</svg>
