<svg width="16" height="16" viewBox="0 0 16 16" fill="none" xmlns="http://www.w3.org/2000/svg">
<path d="M7.25098 8.00159C7.25098 6.86162 6.32685 5.9375 5.18689 5.9375C4.04693 5.9375 3.1228 6.86162 3.1228 8.00159C3.1228 9.14155 4.04693 10.0657 5.18689 10.0657C6.32685 10.0657 7.25098 9.14155 7.25098 8.00159Z" fill="#303030"/>
<path d="M10.9129 11.7771H5.12684C3.04278 11.7771 1.35156 10.0859 1.35156 8.00184C1.35156 5.91778 3.04278 4.22656 5.12684 4.22656H10.9129C12.997 4.22656 14.6882 5.91778 14.6882 8.00184C14.6882 10.0859 12.997 11.7771 10.9129 11.7771ZM5.12684 5.15873C3.56213 5.15873 2.28373 6.43713 2.28373 8.00184C2.28373 9.56655 3.56213 10.845 5.12684 10.845H10.9129C12.4777 10.845 13.7561 9.56655 13.7561 8.00184C13.7561 6.43713 12.4777 5.15873 10.9129 5.15873H5.12684Z" fill="#303030"/>
</svg>
