<svg width="16" height="16" viewBox="0 0 16 16" fill="none" xmlns="http://www.w3.org/2000/svg">
<path d="M5.81669 14.6348V9.28146L1.77002 3.84812V1.32812H13.17V3.84812L9.11002 9.28146V9.37479H8.17669V8.97479L12.2367 3.54146V2.26146H2.70335V3.54146L6.75002 8.97479V13.7015H8.40335V14.6281H5.81669V14.6348ZM10.0634 12.0148C10.3167 12.0148 10.45 11.9148 10.4434 11.6415L10.3967 10.7548C10.37 10.2415 10.71 9.91479 11.21 9.91479H11.67V10.4948H11.4367C11.2367 10.4948 11.1434 10.5948 11.1434 10.7881V11.5548C11.1434 12.0348 10.9234 12.2281 10.6434 12.3015C10.9167 12.3748 11.1434 12.5748 11.1434 13.0548V13.8015C11.1434 14.0015 11.2434 14.0948 11.4367 14.0948H11.67V14.6748H11.21C10.71 14.6748 10.37 14.3481 10.3967 13.8348L10.4434 12.9615C10.45 12.6881 10.3234 12.5948 10.0634 12.5948H9.93669V12.0148H10.0634ZM12.5034 9.91479H12.9634C13.4634 9.91479 13.81 10.2415 13.7767 10.7548L13.73 11.6415C13.7167 11.9148 13.85 12.0148 14.11 12.0148H14.2367V12.5948H14.11C13.8567 12.5948 13.7234 12.6948 13.73 12.9615L13.7767 13.8348C13.8034 14.3481 13.4634 14.6748 12.9634 14.6748H12.5034V14.0948H12.7367C12.9367 14.0948 13.03 13.9948 13.03 13.8015V13.0548C13.03 12.5681 13.25 12.3748 13.53 12.3015C13.2567 12.2281 13.03 12.0348 13.03 11.5548V10.7881C13.03 10.5881 12.93 10.4948 12.7367 10.4948H12.5034V9.91479Z" fill="#303030"/>
</svg>
