<svg width="16" height="16" viewBox="0 0 16 16" fill="none" xmlns="http://www.w3.org/2000/svg">
<path d="M9.44673 7.99823C9.44673 7.21156 8.80006 6.57156 8.00006 6.57156C7.20006 6.57156 6.55339 7.21156 6.55339 7.99823C6.55339 8.7849 7.20006 9.4249 8.00006 9.4249C8.80006 9.4249 9.44673 8.7849 9.44673 7.99823ZM14.6467 7.99823C14.6467 4.33156 11.6667 1.35156 8.00006 1.35156C4.33339 1.35156 1.35339 4.33156 1.35339 7.99823C1.35339 10.3582 2.62673 12.5249 4.63339 13.7116H2.30006V14.6449H6.08006V10.8182H5.14673V12.9316C3.40006 11.9182 2.28673 10.0382 2.28673 7.99823C2.28673 4.85156 4.84673 2.2849 8.00006 2.2849C11.1534 2.2849 13.7134 4.85156 13.7134 7.99823C13.7134 11.1449 11.1467 13.7116 8.00006 13.7116V14.6449C11.6667 14.6449 14.6467 11.6649 14.6467 7.99823Z" fill="#303030"/>
</svg>
