<svg width="16" height="16" viewBox="0 0 16 16" fill="none" xmlns="http://www.w3.org/2000/svg">
<path d="M3.51337 8.47042H1.33337V7.53708H3.51337V8.47042ZM7.23337 7.53708H5.05337V8.47042H7.23337V7.53708ZM10.9467 7.53708H8.76671V8.47042H10.9467V7.53708ZM14.6667 7.53708H12.4867V8.47042H14.6667V7.53708ZM13.2334 1.34375H12.3V4.65042H3.70004V1.34375H2.76671V5.58375H13.2334V1.34375ZM13.2334 13.2371V14.6637H12.3V14.1904H9.44004V11.3237H9.43337H3.70671V14.6704H2.77337V10.3904H10.3734L11.8067 11.8171L13.2334 13.2371ZM10.3667 13.2571H11.9267L11.0934 12.4237L10.3667 11.7037V13.2504V13.2571Z" fill="#303030"/>
</svg>
