<svg width="16" height="16" viewBox="0 0 16 16" fill="none" xmlns="http://www.w3.org/2000/svg">
<path d="M5.78666 14.5801H8.40666V13.6401H6.72666V8.91344L2.67332 3.48677V2.20677H12.2067V3.4801L8.14666 8.91344V9.3201H9.07999V9.22677L13.14 3.79344V1.27344H1.73999V3.79344L5.78666 9.22677V14.5801ZM11.58 9.70677H9.24666V12.0401H11.58V9.70677ZM10.6467 11.1134H10.18V10.6468H10.6467V11.1134ZM11.9267 9.70677H14.26V12.0401H11.9267V9.70677ZM9.24666 14.7268H11.58V12.3934H9.24666V14.7268ZM10.18 13.3201H10.6467V13.7868H10.18V13.3201ZM11.9267 12.3934H14.26V14.7268H11.9267V12.3934Z" fill="#303030"/>
</svg>
