<svg width="16" height="16" viewBox="0 0 16 16" fill="none" xmlns="http://www.w3.org/2000/svg">
<path d="M8.00669 2.26927C11.1667 2.26927 13.74 4.8426 13.74 8.0026C13.74 11.1626 11.1667 13.7359 8.00669 13.7359C4.84669 13.7359 2.27336 11.1626 2.27336 8.0026C2.27336 4.8426 4.84669 2.26927 8.00669 2.26927ZM8.00669 1.33594C4.32669 1.33594 1.34003 4.3226 1.34003 8.0026C1.34003 11.6826 4.32669 14.6693 8.00669 14.6693C11.6867 14.6693 14.6734 11.6826 14.6734 8.0026C14.6734 4.3226 11.6867 1.33594 8.00669 1.33594ZM8.00669 5.15594C6.43336 5.15594 5.16003 6.42927 5.16003 8.0026C5.16003 9.57594 6.43336 10.8493 8.00669 10.8493C9.58003 10.8493 10.8534 9.57594 10.8534 8.0026C10.8534 6.42927 9.58003 5.15594 8.00669 5.15594Z" fill="#303030"/>
</svg>
