<svg width="16" height="16" viewBox="0 0 16 16" fill="none" xmlns="http://www.w3.org/2000/svg">
<path d="M7.99996 5.125C6.38662 5.125 5.07996 6.41167 5.07996 8.005C5.07996 9.59833 6.38662 10.885 7.99996 10.885V9.95167C6.89996 9.95167 6.01329 9.07833 6.01329 8.005C6.01329 6.93167 6.89996 6.05833 7.99996 6.05833C9.09996 6.05833 9.97996 6.925 9.98662 7.99833H10.92C10.9133 6.405 9.61329 5.125 7.99996 5.125Z" fill="#303030"/>
<path d="M14.6799 7.99875C13.3666 4.77875 10.8666 2.71875 7.97995 2.71875C5.09328 2.71875 2.65328 4.82542 1.31995 7.99208C2.63995 11.1854 5.13328 13.3321 7.99995 13.3454V12.4121C5.71995 12.4054 3.57328 10.7254 2.33995 7.99875C3.58661 5.30542 5.72661 3.65208 7.97995 3.65208C10.2333 3.65208 12.4333 5.26542 13.6599 7.99208L14.6733 7.99875V8.01208C14.6733 8.01208 14.6799 8.00542 14.6799 7.99875Z" fill="#303030"/>
<path d="M11.82 14.6095C12.8667 14.6095 13.72 13.6961 13.72 12.5828C13.72 12.1295 13.44 11.4828 13.1133 10.8828C12.8667 10.4361 12.6 10.0095 12.3933 9.70281C12.3533 9.64281 12.3133 9.58948 12.28 9.53615C12.2467 9.48948 12.22 9.44948 12.1933 9.40948C12.1933 9.40948 12.1933 9.40281 12.1867 9.39615C12.16 9.35615 12.14 9.32281 12.12 9.30281L11.82 8.88281L11.52 9.30281C11.2533 9.67615 9.91333 11.6095 9.91333 12.5895C9.91333 12.7161 9.92666 12.8361 9.94666 12.9495C9.96666 13.0628 10 13.1761 10.0333 13.2828C10.3 14.0561 10.9933 14.6161 11.8133 14.6161L11.82 14.6095ZM11.82 10.2161C12.0933 10.6361 12.38 11.1095 12.6 11.5428C12.82 11.9761 12.9733 12.3628 12.9733 12.5895C12.9733 13.2695 12.4533 13.8228 11.82 13.8228C11.32 13.8228 10.9 13.4828 10.74 13.0095C10.72 12.9428 10.7 12.8761 10.6867 12.8095C10.6733 12.7361 10.6667 12.6628 10.6667 12.5895C10.6667 12.1428 11.2733 11.0561 11.82 10.2161Z" fill="#303030"/>
</svg>
