<svg width="16" height="16" viewBox="0 0 16 16" fill="none" xmlns="http://www.w3.org/2000/svg">
<path d="M6.21333 7.79938H9.41999C9.41999 7.79938 11.22 7.82604 11.22 6.05938V3.13271C11.22 3.13271 11.4933 1.35938 7.95333 1.35938C4.41333 1.35938 4.77333 2.82604 4.77333 2.82604V4.34604H8.01333V4.80604H3.49333C3.49333 4.80604 1.32666 4.55938 1.32666 7.97938C1.32666 11.3994 3.21999 11.2794 3.21999 11.2794H4.34666V9.69271C4.34666 9.69271 4.28666 7.79938 6.20666 7.79938H6.21333ZM6.16666 3.54604C5.84666 3.54604 5.58666 3.28604 5.58666 2.96604C5.58666 2.64604 5.84666 2.37937 6.16666 2.37937C6.48666 2.37937 6.74666 2.63938 6.74666 2.95938C6.74666 3.27938 6.48666 3.53938 6.16666 3.53938V3.54604ZM12.78 4.71938H11.6533V6.30604C11.6533 6.30604 11.7133 8.19938 9.79333 8.19938H6.58666C6.58666 8.19938 4.78666 8.17271 4.78666 9.93937V12.866C4.78666 12.866 4.51333 14.6394 8.05333 14.6394C11.5933 14.6394 11.2333 13.1727 11.2333 13.1727V11.6527H7.99333V11.1927H12.5133C12.5133 11.1927 14.68 11.4394 14.68 8.01937C14.68 4.59937 12.7867 4.71938 12.7867 4.71938H12.78ZM9.24666 13.0327C9.24666 12.7127 9.50666 12.4527 9.82666 12.4527C10.1467 12.4527 10.4067 12.7127 10.4067 13.0327C10.4067 13.3527 10.1467 13.6127 9.82666 13.6127C9.50666 13.6127 9.24666 13.3527 9.24666 13.0327Z" fill="#303030"/>
</svg>
