<svg width="16" height="16" viewBox="0 0 16 16" fill="none" xmlns="http://www.w3.org/2000/svg">
<path d="M9.66663 9.33594C7.39996 7.66927 6.5333 4.53594 7.66663 2.06927L7.99996 1.33594H7.19996C5.26663 1.6026 3.39996 2.73594 2.39996 4.26927C0.46663 7.26927 1.26663 11.2693 4.1333 13.3359C5.3333 14.2026 6.7333 14.6026 8.1333 14.6026C10.1333 14.6026 12.1333 13.7359 13.3333 12.0693C13.5333 11.8026 13.7333 11.4693 13.9333 11.1359L14.2666 10.4026H13.4666C12.1333 10.5359 10.7333 10.0693 9.59996 9.26927L9.66663 9.33594ZM12.6 11.6026C10.8 14.0026 7.19996 14.4693 4.66663 12.6693C2.1333 10.8693 1.46663 7.4026 3.1333 4.8026C3.86663 3.66927 5.1333 2.8026 6.46663 2.46927C5.59996 5.13594 6.66663 8.33594 9.06663 10.0693C10.1333 10.8693 11.4 11.3359 12.6666 11.4026C12.6666 11.4026 12.6 11.4693 12.5333 11.5359L12.6 11.6026Z" fill="#303030"/>
<path d="M11.3333 6.13802H12.2666V4.93802H13.4666V4.00469H12.2666V2.80469H11.3333V4.00469H10.1333V4.93802H11.3333V6.13802Z" fill="#303030"/>
</svg>
