<svg width="16" height="16" viewBox="0 0 16 16" fill="none" xmlns="http://www.w3.org/2000/svg">
<path d="M14.2 4.77219L13.2867 4.55885L12.3734 8.38552H5.07338L3.76672 2.20552H1.80005V3.13885H3.01338L4.81338 11.6655H12.7667V10.7322H5.56672L5.26672 9.31885H13.1067L14.2 4.77219ZM5.55338 14.5055C4.87338 14.5055 4.32005 13.9522 4.32005 13.2722C4.32005 12.5922 4.87338 12.0389 5.55338 12.0389C6.23338 12.0389 6.78672 12.5922 6.78672 13.2722C6.78672 13.9522 6.23338 14.5055 5.55338 14.5055ZM5.55338 12.9722C5.38672 12.9722 5.25338 13.1055 5.25338 13.2722C5.25338 13.4389 5.38672 13.5722 5.55338 13.5722C5.72005 13.5722 5.85338 13.4389 5.85338 13.2722C5.85338 13.1055 5.72005 12.9722 5.55338 12.9722ZM12.42 14.5055C11.74 14.5055 11.1867 13.9522 11.1867 13.2722C11.1867 12.5922 11.74 12.0389 12.42 12.0389C13.1 12.0389 13.6534 12.5922 13.6534 13.2722C13.6534 13.9522 13.1 14.5055 12.42 14.5055ZM12.42 12.9722C12.2534 12.9722 12.12 13.1055 12.12 13.2722C12.12 13.4389 12.2534 13.5722 12.42 13.5722C12.5867 13.5722 12.72 13.4389 12.72 13.2722C12.72 13.1055 12.5867 12.9722 12.42 12.9722ZM11.3667 3.85885H8.98671V1.49219H8.05338V3.85885H5.67338V4.79219H8.05338V7.15885H8.98671V4.79219H11.3667V3.85885Z" fill="#303030"/>
</svg>
