<svg width="16" height="16" viewBox="0 0 16 16" fill="none" xmlns="http://www.w3.org/2000/svg">
<path d="M3.61997 7.99365H4.19997V10.867H2.27997V5.13365H13.7266V7.99365H14.66V4.20031H11.84V1.32031H4.15997V4.20031H1.33997V11.8003H4.19997V14.687H7.99997V13.7536H5.1333V7.99365H8.0133V7.06031H3.61997V7.99365ZM5.09997 2.25365H10.9066V4.20031H5.09997V2.25365ZM14.6666 12.2803V11.347H14.1466C14.0866 11.0403 13.9666 10.747 13.7866 10.4803L14.1533 10.1136L13.4933 9.45365L13.1266 9.82031C12.86 9.64698 12.5666 9.52698 12.2666 9.46698V8.95365H11.3333V9.48031C11.0333 9.54031 10.7466 9.66031 10.48 9.84031L10.1133 9.47365L9.4533 10.1336L9.81997 10.5003C9.64663 10.7603 9.5333 11.0536 9.4733 11.347H8.9533V12.2803H9.4733C9.5333 12.5736 9.64663 12.8603 9.81997 13.1203L9.4533 13.487L10.1133 14.147L10.48 13.7803C10.74 13.9603 11.0333 14.0736 11.3333 14.1403V14.667H12.2666V14.1536C12.5666 14.0936 12.86 13.9803 13.1266 13.807L13.4933 14.1736L14.1533 13.5136L13.7866 13.147C13.9666 12.8803 14.0866 12.587 14.1466 12.287H14.6666V12.2803ZM12.8333 12.8336C12.2866 13.3803 11.3333 13.3803 10.78 12.8336C10.2133 12.267 10.2133 11.347 10.78 10.7803C11.0533 10.507 11.42 10.3536 11.8066 10.3536C12.1933 10.3536 12.56 10.507 12.8333 10.7803C13.4 11.347 13.4 12.267 12.8333 12.8336Z" fill="#303030"/>
</svg>
