<svg width="16" height="16" viewBox="0 0 16 16" fill="none" xmlns="http://www.w3.org/2000/svg">
<path d="M13.496 4.00365L12.2293 3.80365L12.3627 3.13698C12.4293 2.87031 12.2293 2.53698 11.9627 2.47031L10.496 2.07031C10.2293 2.00365 9.89601 2.13698 9.82934 2.47031L8.96267 5.40365L8.02934 1.73698C7.89601 1.40365 7.62934 1.27031 7.29601 1.33698L5.42934 1.87031C5.16267 2.00365 5.09601 2.27031 5.16267 2.53698L5.29601 2.87031L3.89601 3.27031C3.62934 3.33698 3.49601 3.60365 3.56267 3.80365L4.36267 6.67031C3.89601 6.20365 3.16267 6.33698 3.16267 6.33698C2.82934 6.33698 2.56267 6.53698 2.36267 6.87031C2.16267 7.20365 2.09601 7.67031 2.22934 8.13698L3.36267 11.4036V14.6703H13.2293V7.47031L13.8293 4.67031C13.8293 4.33698 13.696 4.07031 13.4293 4.00365H13.496ZM12.3627 13.737H4.36267V12.337H12.3627V13.737ZM12.3627 8.20365V11.4036H4.36267L3.16267 7.87031V7.40365C3.29601 7.27031 3.49601 7.27031 3.49601 7.27031C3.69601 7.27031 4.36267 7.87031 4.82934 8.53698H5.82934L4.49601 4.00365L5.56267 3.67031L6.69601 7.20365H7.62934L6.42934 3.33698L6.16267 2.53698L7.22934 2.20365L8.56267 7.20365H9.16267L10.496 2.93698L11.3627 3.13698L10.2293 7.13698H11.1627L11.9627 4.40365L13.0293 4.53698L12.3627 7.07031V8.20365Z" fill="#303030"/>
</svg>
