<svg width="16" height="16" viewBox="0 0 16 16" fill="none" xmlns="http://www.w3.org/2000/svg">
<path d="M1.98996 9.14125L3.22329 7.90125L3.25662 13.6946H8.00996V12.7612H4.18329L4.16329 7.86125L5.43662 9.14125L6.09662 8.48125L3.70996 6.09458L1.32996 8.48125L1.98996 9.14125ZM12.75 7.30792V2.28792H8.00996V3.22125H11.8166V7.29458L10.5633 6.04125L9.90329 6.70125L12.29 9.08792L14.6766 6.70125L14.0166 6.04125L12.75 7.30792ZM5.14996 3.70792C5.14996 2.92125 4.50329 2.28125 3.70329 2.28125C2.90329 2.28125 2.25662 2.92125 2.25662 3.70792C2.25662 4.49458 2.90329 5.13458 3.70329 5.13458C4.50329 5.13458 5.14996 4.49458 5.14996 3.70792ZM12.2966 10.4346C11.3766 10.4346 10.63 11.1679 10.63 12.0813C10.63 12.9946 11.3766 13.7279 12.2966 13.7279C13.2166 13.7279 13.9633 12.9946 13.9633 12.0813C13.9633 11.1679 13.2166 10.4346 12.2966 10.4346ZM12.2966 13.0613C11.7433 13.0613 11.2966 12.6213 11.2966 12.0813C11.2966 11.5413 11.7433 11.1012 12.2966 11.1012C12.85 11.1012 13.2966 11.5413 13.2966 12.0813C13.2966 12.6213 12.85 13.0613 12.2966 13.0613Z" fill="#303030"/>
</svg>
