<svg width="16" height="16" viewBox="0 0 16 16" fill="none" xmlns="http://www.w3.org/2000/svg">
<path d="M10.38 1.30469H2.76001V14.6314L13.2467 14.6447V4.47135L10.4133 1.30469H10.3733H10.38ZM11.72 4.16469H10.3733V2.65802L11.72 4.16469ZM9.44668 2.23802V5.09802H12.3133V10.6047L9.19334 7.58469L7.51334 9.26469L4.99334 6.86469L3.69334 8.17802V2.23802H9.44668ZM3.69334 13.7047V9.50469L5.01334 8.17802L6.85334 9.93135L4.75334 12.038L5.41334 12.698L9.20001 8.89802L12.3133 11.9047V13.7114L3.69334 13.698V13.7047ZM6.68668 6.80469C7.46668 6.80469 8.10668 6.17135 8.10668 5.38469C8.10668 4.59802 7.47334 3.96469 6.68668 3.96469C5.90001 3.96469 5.26668 4.59802 5.26668 5.38469C5.26668 6.17135 5.90001 6.80469 6.68668 6.80469Z" fill="#303030"/>
</svg>
