<svg width="16" height="16" viewBox="0 0 16 16" fill="none" xmlns="http://www.w3.org/2000/svg">
<path d="M8.45999 1.34031C8.30665 1.32698 8.15332 1.32031 7.99999 1.32031C7.84666 1.32031 7.68666 1.32698 7.53999 1.34031C4.15999 1.64698 2.39332 5.56031 4.17332 8.45365L8.00666 14.6803L11.8333 8.45365C13.6067 5.56031 11.84 1.64698 8.46666 1.34698L8.45999 1.34031ZM7.99332 7.72698C7.20666 7.72698 6.56666 7.08698 6.56666 6.30031C6.56666 5.51365 7.20666 4.87365 7.99332 4.87365C8.77999 4.87365 9.41999 5.51365 9.41999 6.30031C9.41999 7.08698 8.77999 7.72698 7.99332 7.72698Z" fill="#303030"/>
</svg>
