<svg width="16" height="16" viewBox="0 0 16 16" fill="none" xmlns="http://www.w3.org/2000/svg">
<path d="M6.79335 3.83656C5.98668 4.0299 5.24668 4.44323 4.66002 5.0299C3.80668 5.88323 3.34002 7.01656 3.34002 8.21656C3.34002 9.2699 3.70002 10.2632 4.35335 11.0632L1.72668 13.6899L2.38668 14.3499L5.01335 11.7232C5.81335 12.3699 6.80002 12.7232 7.84668 12.7232C9.05335 12.7232 10.18 12.2566 11.0334 11.4032C11.6067 10.8299 12.0134 10.1099 12.2134 9.3299L13.5734 2.47656L6.94002 3.80323L6.78668 3.83656H6.79335ZM12.3934 3.66323L11.32 9.0699L11.78 9.16323L11.3134 9.10323C11.1534 9.72323 10.8334 10.2899 10.3734 10.7499C9.70002 11.4232 8.80002 11.7966 7.84668 11.7966C7.05335 11.7966 6.30668 11.5299 5.68668 11.0499L6.88002 9.85656H9.18002V8.9299H7.80668L9.52002 7.2099L8.86002 6.5499L7.12668 8.28323V6.87656H6.20002V9.2299L5.02668 10.3966C4.54668 9.77656 4.27335 9.02323 4.27335 8.22323C4.27335 7.2699 4.64668 6.3699 5.32002 5.69656C5.78668 5.2299 6.37335 4.90323 7.01335 4.7499L12.3934 3.6699V3.66323Z" fill="#303030"/>
</svg>
