<svg width="16" height="16" viewBox="0 0 16 16" fill="none" xmlns="http://www.w3.org/2000/svg">
<path d="M14.6733 10.8038L12.6599 8.79042L10.6533 10.7971L11.3133 11.4571L12.1533 10.6171C11.8733 12.2504 10.3399 13.5304 8.41995 13.7104V7.03708H9.89995V6.10375H8.41995V5.06375C9.23995 4.85708 9.84661 4.11708 9.84661 3.23708C9.84661 2.19708 8.99995 1.34375 7.95328 1.34375C6.90661 1.34375 6.05995 2.19042 6.05995 3.23708C6.05995 4.11708 6.66661 4.85708 7.48661 5.06375V6.10375H6.07328V7.03708H7.48661V13.7037C5.55328 13.5171 4.01995 12.2037 3.76661 10.5504L4.67995 11.4638L5.33995 10.8038L3.32661 8.79042L1.31995 10.7971L1.97995 11.4571L2.83328 10.6038C3.12661 12.8837 5.31995 14.6637 7.96661 14.6637C10.6133 14.6637 12.8399 12.8638 13.1133 10.5571L14.0199 11.4638L14.6799 10.8038H14.6733ZM6.98661 3.23708C6.98661 2.71042 7.41328 2.27708 7.94661 2.27708C8.47995 2.27708 8.90661 2.70375 8.90661 3.23708C8.90661 3.77042 8.47995 4.19708 7.94661 4.19708C7.41328 4.19708 6.98661 3.77042 6.98661 3.23708Z" fill="#303030"/>
</svg>
