<svg width="16" height="16" viewBox="0 0 16 16" fill="none" xmlns="http://www.w3.org/2000/svg">
<path d="M10.4133 1.33594H10.3733H9.43996H2.7533V14.6693L7.51996 14.6559V13.7226L3.68663 13.7359V2.27594H9.4333V5.13594H12.3V8.0026H13.2333V4.50927L10.4066 1.3426L10.4133 1.33594ZM10.3733 2.69594L11.72 4.2026H10.3733V2.69594ZM14.3733 11.4159L14.6 10.5093H13.1733L13.52 9.1226H12.58L12.2333 10.5093H11.24L11.5866 9.1226H10.6466L10.3 10.5093H8.8733L8.64663 11.4159H10.0733L9.8333 12.3826H8.40663L8.17996 13.2893H9.60663L9.25996 14.6759H10.2L10.5466 13.2893H11.54L11.1933 14.6759H12.1333L12.48 13.2893H13.9066L14.1333 12.3826H12.7066L12.9466 11.4159H14.3733ZM11.7666 12.3759H10.7733L11.0133 11.4093H12.0066L11.7666 12.3759Z" fill="#303030"/>
</svg>
