<svg width="16" height="16" viewBox="0 0 16 16" fill="none" xmlns="http://www.w3.org/2000/svg">
<path d="M13.1899 4.25812C13.1899 2.51812 10.5033 1.57812 7.98328 1.57812C5.46328 1.57812 2.77661 2.51812 2.77661 4.26479C2.77661 4.30479 2.78328 4.34479 2.78994 4.38479H2.78328V6.94479H2.77661C2.77661 6.94479 2.78328 6.97146 2.78328 6.98479V9.61146C2.78994 10.2581 3.16994 10.7915 3.76994 11.2048C4.13661 11.4581 4.58328 11.6648 5.08328 11.8315V10.6848C4.24328 10.3648 3.76994 9.93146 3.76994 9.58479V8.57146C4.77661 9.27146 6.40994 9.63813 7.98328 9.63813C9.55661 9.63813 11.2033 9.27146 12.2099 8.56479C12.8166 8.14479 13.1966 7.60479 13.1966 6.94479V4.25812H13.1899ZM7.98328 8.54479C5.48994 8.54479 3.86994 7.65813 3.76994 7.01146V5.88479C4.77661 6.58479 6.40994 6.95146 7.98328 6.95146C9.55661 6.95146 11.1966 6.58479 12.2033 5.88479V6.94479H12.2099C12.2099 7.59146 10.5633 8.54479 7.98328 8.54479ZM12.2033 4.25812V4.27813C12.1833 4.92479 10.5433 5.85813 7.98328 5.85813C5.42328 5.85813 3.75661 4.91812 3.75661 4.26479C3.75661 3.61146 5.40328 2.66479 7.98328 2.66479C10.5633 2.66479 12.2033 3.61146 12.2099 4.25812H12.2033ZM6.46994 12.4048H7.20328C7.22994 12.7181 7.43661 12.9115 7.76994 12.9115C8.02994 12.9115 8.20994 12.7648 8.20994 12.5381C8.20994 12.2981 8.06328 12.1915 7.48328 12.0181C6.82328 11.8248 6.54328 11.5248 6.54328 11.0515C6.54328 10.4515 7.01661 10.0515 7.72328 10.0515C8.42994 10.0515 8.88994 10.4648 8.88994 11.0915H8.16994C8.12994 10.7848 7.96328 10.6315 7.68994 10.6315C7.44328 10.6315 7.28328 10.7581 7.28328 10.9715C7.28328 11.1715 7.42328 11.2915 7.92994 11.4381C8.65661 11.6515 8.96328 11.9181 8.96328 12.4581C8.96328 13.1181 8.50994 13.5181 7.72994 13.5181C6.94994 13.5181 6.46994 13.0648 6.46994 12.3981V12.4048ZM10.6033 13.5248C9.72328 13.5115 9.32994 12.7715 9.32994 11.7781C9.32994 10.7848 9.72994 10.0581 10.6233 10.0581C11.5166 10.0581 11.9166 10.7981 11.9166 11.7781C11.9166 12.5048 11.7233 13.0981 11.2633 13.3648L11.9166 13.9048L11.4433 14.3648L10.6033 13.5248ZM11.1233 11.7781C11.1233 11.0648 10.9833 10.7048 10.6233 10.7048C10.2899 10.7048 10.1166 11.0648 10.1166 11.7781C10.1166 12.4915 10.2833 12.8781 10.6233 12.8781C10.9833 12.8781 11.1233 12.5181 11.1233 11.7781ZM12.4899 10.1248H13.2433V12.8115H14.6833V13.4581H12.4899V10.1181V10.1248Z" fill="#303030"/>
</svg>
