<svg width="16" height="16" viewBox="0 0 16 16" fill="none" xmlns="http://www.w3.org/2000/svg">
<path d="M10.4833 7.87479L11.4433 4.64812H9.64334C9.92334 4.29479 10.09 3.86146 10.09 3.38146C10.09 2.24813 9.17001 1.32812 8.03667 1.32812C6.90334 1.32812 5.98334 2.24813 5.98334 3.38146C5.98334 3.86146 6.15667 4.30146 6.43001 4.64812H4.46334L5.56334 7.90146L2.63 13.2148H6.59667V14.6548H7.53V12.2815H4.21L6.57667 7.99479L5.76334 5.58146H10.1833L9.47001 7.98146L11.81 12.2815H8.49667V14.6548H9.43001V13.2148H13.3767L10.47 7.87479H10.4833ZM8.03667 2.26146C8.65667 2.26146 9.15667 2.76146 9.15667 3.38146C9.15667 4.00146 8.65667 4.50146 8.03667 4.50146C7.41667 4.50146 6.91667 4.00146 6.91667 3.38146C6.91667 2.76146 7.41667 2.26146 8.03667 2.26146Z" fill="#303030"/>
</svg>
