<svg width="16" height="16" viewBox="0 0 16 16" fill="none" xmlns="http://www.w3.org/2000/svg">
<path d="M7.98658 1.34375L1.24658 6.12375L2.79325 7.11708V11.3237L8.03325 14.6637L10.3999 13.1504V14.6637H11.3332V12.5504L13.2532 11.3237V7.07708L14.7399 6.12375L7.98658 1.34375ZM7.98658 2.48375L13.0599 6.08375L11.2332 7.25708L8.73992 5.33708L8.16658 6.07708L10.3932 7.79042L7.98658 9.34375L2.91325 6.08375L7.98658 2.48375ZM8.02658 13.5571L3.71992 10.8104V7.71042L7.97992 10.4504L10.3866 8.90375V12.0371L8.01992 13.5571H8.02658ZM12.3132 10.8171L11.3332 11.4438V8.30375L12.3132 7.67042V10.8104V10.8171Z" fill="#303030"/>
</svg>
