<svg width="16" height="16" viewBox="0 0 16 16" fill="none" xmlns="http://www.w3.org/2000/svg">
<path d="M11.8266 5.19708C11.74 5.17708 11.6466 5.17042 11.5533 5.17042H10.56C10.5 3.05042 8.75995 1.34375 6.62662 1.34375C4.49328 1.34375 2.85995 2.94375 2.70662 4.97708H2.69995V5.16375C2.69995 5.20375 2.69995 5.24375 2.69995 5.29042L2.71995 14.6771H3.65328L3.63328 5.22375C3.66662 3.59708 4.99995 2.28375 6.63328 2.28375C8.26662 2.28375 9.56662 3.57042 9.62662 5.17708H8.70662C8.65995 5.17708 8.60662 5.17708 8.56662 5.18375C7.91995 5.25708 7.41328 5.80375 7.41328 6.47708V7.98375H12.8133V6.43042C12.8133 5.83708 12.4 5.33708 11.84 5.21042L11.8266 5.19708ZM11.8666 7.04375H8.33328V6.47042C8.33328 6.28375 8.47328 6.13042 8.66662 6.10375C8.67995 6.10375 8.68662 6.10375 8.69995 6.10375H11.5533C11.5533 6.10375 11.6 6.10375 11.62 6.11042C11.74 6.13708 11.86 6.25042 11.86 6.41708V7.03708L11.8666 7.04375Z" fill="#303030"/>
<path d="M8.87333 9.04833L9.53333 10.8217L8.66 11.1483L8 9.375L8.87333 9.04833ZM10.1933 11.4883L10.8533 13.255L11.7267 12.9283L11.0667 11.1617L10.1933 11.4883ZM12.2333 8.875L11.36 9.20167L12.0267 10.9883L12.9 10.6617L12.2333 8.875Z" fill="#303030"/>
</svg>
