<svg width="16" height="16" viewBox="0 0 16 16" fill="none" xmlns="http://www.w3.org/2000/svg">
<path d="M7.99998 1.33594C4.33331 1.33594 1.33331 4.33594 1.33331 8.0026C1.33331 11.6693 4.33331 14.6693 7.99998 14.6693C11.6666 14.6693 14.6666 11.6693 14.6666 8.0026C14.6666 4.33594 11.6666 1.33594 7.99998 1.33594ZM7.99998 13.7359C4.86665 13.7359 2.26665 11.1359 2.26665 8.0026C2.26665 4.86927 4.79998 2.26927 7.99998 2.26927C11.2 2.26927 13.7333 4.86927 13.7333 8.0026C13.7333 11.1359 11.1333 13.7359 7.99998 13.7359Z" fill="#303030"/>
<path d="M9.73331 8.06979L5.59998 5.20312V10.9365L9.73331 8.06979V10.9365H10.6666V5.20312H9.73331V8.06979Z" fill="#303030"/>
</svg>
