<svg width="16" height="16" viewBox="0 0 16 16" fill="none" xmlns="http://www.w3.org/2000/svg">
<path d="M11.3667 2.27708H13.6934V1.34375H9.91341V5.17042H10.8467V3.05708C12.6001 4.07042 13.7067 5.93708 13.7067 8.00375C13.7067 11.1571 11.1401 13.7171 7.99341 13.7171V14.6504C11.6601 14.6504 14.6401 11.6704 14.6401 8.00375C14.6401 5.62375 13.3734 3.46375 11.3601 2.27708H11.3667Z" fill="#303030"/>
<path d="M7.99335 2.29271V1.35938C4.32668 1.35938 1.34668 4.33938 1.34668 8.00604C1.34668 10.366 2.62001 12.5327 4.62001 13.7194H2.28668V14.6527H6.06668V10.826H5.13335V12.9394C3.38668 11.926 2.27335 10.046 2.27335 8.00604C2.28001 4.85271 4.84668 2.29271 7.99335 2.29271Z" fill="#303030"/>
</svg>
