<svg width="16" height="16" viewBox="0 0 16 16" fill="none" xmlns="http://www.w3.org/2000/svg">
<path d="M4.18009 1.34375H1.34009V4.18375H4.18009V1.34375ZM3.24675 3.25042H2.27342V2.27708H3.24675V3.25042Z" fill="#303030"/>
<path d="M14.66 1.34375H5.15332V4.18375H14.66V1.34375ZM13.72 3.25042H6.07999V2.27708H13.72V3.25042Z" fill="#303030"/>
<path d="M1.34009 9.41813H4.18009V6.57812H1.34009V9.41813ZM2.27342 7.51146H3.24675V8.48479H2.27342V7.51146Z" fill="#303030"/>
<path d="M5.15332 9.41813H14.66V6.57812H5.15332V9.41813ZM6.08665 7.51146H13.7267V8.48479H6.08665V7.51146Z" fill="#303030"/>
<path d="M4.18668 11.8203H1.34668V14.6603H4.18668V11.8203ZM3.25335 13.727H2.28001V12.7536H3.25335V13.727Z" fill="#303030"/>
<path d="M5.16016 14.6603H14.6668V11.8203H5.16016V14.6603ZM6.09349 12.7536H13.7335V13.727H6.09349V12.7536Z" fill="#303030"/>
</svg>
