<svg width="16" height="16" viewBox="0 0 16 16" fill="none" xmlns="http://www.w3.org/2000/svg">
<path d="M7.99338 4.8525C8.78005 4.8525 9.42005 5.4925 9.42005 6.27917C9.42005 7.06583 8.78005 7.70583 7.99338 7.70583C7.20671 7.70583 6.56671 7.06583 6.56671 6.27917C6.56671 5.4925 7.20671 4.8525 7.99338 4.8525ZM8.00005 14.6992L4.14671 8.44583C3.28005 7.0325 3.20671 5.29917 3.95338 3.80583C4.66005 2.39917 6.00005 1.4725 7.53338 1.3325C7.83338 1.30583 8.14671 1.30583 8.45338 1.3325C9.98671 1.4725 11.3267 2.3925 12.0334 3.79917C12.78 5.2925 12.7134 7.02583 11.8467 8.43917L8.00672 14.6925L8.00005 14.6992ZM4.94671 7.9525L8.00005 12.9125L11.0467 7.9525C11.7467 6.81917 11.8 5.41917 11.1934 4.21917C10.6267 3.08583 9.59338 2.3725 8.36672 2.25917C8.12005 2.23917 7.86671 2.23917 7.61338 2.25917C6.38672 2.3725 5.35338 3.08583 4.78672 4.21917C4.18672 5.41917 4.24005 6.81917 4.94005 7.9525H4.94671Z" fill="#303030"/>
</svg>
