<svg width="16" height="16" viewBox="0 0 16 16" fill="none" xmlns="http://www.w3.org/2000/svg">
<path d="M13.24 10.9359V3.22927H8.39329L9.62662 1.99594L8.96662 1.33594L6.57996 3.7226L8.96662 6.10927L9.62662 5.44927L8.34662 4.16927H12.3066V10.9359C11.48 11.1426 10.86 11.8826 10.86 12.7693C10.86 13.8159 11.7133 14.6626 12.7533 14.6626C13.7933 14.6626 14.6466 13.8093 14.6466 12.7693C14.6466 11.8893 14.0466 11.1559 13.2333 10.9426L13.24 10.9359ZM12.76 13.7226C12.2266 13.7226 11.8 13.2893 11.8 12.7626C11.8 12.2359 12.2333 11.8026 12.76 11.8026C13.2866 11.8026 13.72 12.2359 13.72 12.7626C13.72 13.2893 13.2866 13.7226 12.76 13.7226Z" fill="#303030"/>
<path d="M5.13335 3.52615C5.13335 2.47948 4.28001 1.63281 3.24001 1.63281C2.20001 1.63281 1.34668 2.48615 1.34668 3.52615C1.34668 4.40615 1.95335 5.14615 2.77335 5.35948V10.9395C1.95335 11.1461 1.34668 11.8861 1.34668 12.7728C1.34668 13.8195 2.20001 14.6661 3.24001 14.6661C4.28001 14.6661 5.13335 13.8128 5.13335 12.7728C5.13335 11.8861 4.52668 11.1528 3.70668 10.9395V5.35948C4.52668 5.15281 5.13335 4.41281 5.13335 3.52615ZM2.28001 3.52615C2.28001 2.99281 2.71335 2.56615 3.24001 2.56615C3.76668 2.56615 4.20001 2.99948 4.20001 3.52615C4.20001 4.05281 3.76668 4.48615 3.24001 4.48615C2.71335 4.48615 2.28001 4.05281 2.28001 3.52615ZM4.20001 12.7661C4.20001 13.2995 3.76668 13.7261 3.24001 13.7261C2.71335 13.7261 2.28001 13.2928 2.28001 12.7661C2.28001 12.2395 2.71335 11.8061 3.24001 11.8061C3.76668 11.8061 4.20001 12.2395 4.20001 12.7661Z" fill="#303030"/>
</svg>
