<svg width="16" height="16" viewBox="0 0 16 16" fill="none" xmlns="http://www.w3.org/2000/svg">
<path d="M1.33325 14.6693H14.6666V1.33594H1.33325V14.6693ZM2.26659 2.26927H13.7333V13.7359H2.26659V2.26927ZM8.95992 7.03594H10.3866V7.99594H11.3199V7.03594H12.7466V3.2426H8.95325V7.03594H8.95992ZM9.89325 4.1826H11.8199V6.10927H9.89325V4.1826ZM8.95992 10.3893H7.99325V11.3226H8.95992V12.7493H12.7533V8.95594H8.95992V10.3826V10.3893ZM9.89325 9.89594H11.8199V11.8226H9.89325V9.89594ZM7.99325 5.60927V4.67594H7.03992V3.24927H3.24659V7.0426H7.03992V5.61594H7.99325V5.60927ZM6.10659 6.1026H4.17992V4.17594H6.10659V6.1026ZM5.60659 7.99594H4.67325V8.9626H3.24659V12.7559H7.03992V8.9626H5.61325V7.99594H5.60659ZM6.10659 11.8159H4.17992V9.88927H6.10659V11.8159Z" fill="#303030"/>
</svg>
