<svg width="16" height="16" viewBox="0 0 16 16" fill="none" xmlns="http://www.w3.org/2000/svg">
<path d="M11.2933 8.03125C9.98664 8.03125 8.89997 8.90458 8.54664 10.0979H7.42664C7.07331 8.90458 5.98664 8.03125 4.67997 8.03125C3.09331 8.03125 1.80664 9.31792 1.80664 10.9046C1.80664 12.4913 3.09331 13.7779 4.67997 13.7779C6.26664 13.7779 7.47997 12.5579 7.53997 11.0246H8.42664C8.49331 12.5512 9.74664 13.7779 11.2866 13.7779C12.8266 13.7779 14.16 12.4913 14.16 10.9046C14.16 9.31792 12.8733 8.03125 11.2866 8.03125H11.2933ZM4.67997 12.8446C3.60664 12.8446 2.73997 11.9713 2.73997 10.9046C2.73997 9.83792 3.61331 8.96458 4.67997 8.96458C5.74664 8.96458 6.61997 9.83792 6.61997 10.9046C6.61997 11.9713 5.74664 12.8446 4.67997 12.8446ZM11.2933 12.8446C10.22 12.8446 9.35331 11.9713 9.35331 10.9046C9.35331 9.83792 10.2266 8.96458 11.2933 8.96458C12.36 8.96458 13.2333 9.83792 13.2333 10.9046C13.2333 11.9713 12.36 12.8446 11.2933 12.8446Z" fill="#303030"/>
<path d="M11.6067 2.27344H4.38665L2.68665 6.08677H1.35999V7.0201H14.68V6.08677H13.3333L11.6133 2.27344H11.6067ZM4.98665 3.20677H11L12.3 6.08677H3.70665L4.99332 3.20677H4.98665Z" fill="#303030"/>
</svg>
