<svg width="16" height="16" viewBox="0 0 16 16" fill="none" xmlns="http://www.w3.org/2000/svg">
<path d="M5.30671 13.7121C6.18671 13.7121 6.92671 13.1054 7.13337 12.2854H9.00004C9.20004 13.1121 9.94004 13.7254 10.8334 13.7254C11.7267 13.7254 12.46 13.1121 12.6667 12.2854H14.6534V8.27875L13.16 6.78542C13.08 6.59208 12.8667 6.56542 11.6467 6.56542L8.69337 3.71875H5.32671L2.52671 6.57208H1.33337V12.2921H3.49337C3.70004 13.1121 4.44004 13.7188 5.32004 13.7188L5.30671 13.7121ZM5.30671 12.7788C4.78004 12.7788 4.35337 12.3521 4.35337 11.8254C4.35337 11.2987 4.78004 10.8721 5.30671 10.8721C5.83337 10.8721 6.26004 11.2987 6.26004 11.8254C6.26004 12.3521 5.83337 12.7788 5.30671 12.7788ZM10.8267 12.7921C10.3 12.7921 9.87337 12.3654 9.87337 11.8388C9.87337 11.3121 10.3 10.8854 10.8267 10.8854C11.3534 10.8854 11.78 11.3121 11.78 11.8388C11.78 12.3654 11.3534 12.7921 10.8267 12.7921ZM8.30671 4.64542L10.2934 6.55875H7.60004V4.64542H8.30671ZM5.70671 4.64542H6.66671V6.56542H3.82671L5.71337 4.64542H5.70671ZM2.26004 7.49875C4.16004 7.49875 11.28 7.49875 12.5467 7.49875L13.7134 8.66542V11.3521H12.6467C12.4334 10.5454 11.7 9.94542 10.8267 9.94542C9.95337 9.94542 9.22671 10.5454 9.00671 11.3454H7.12671C6.91337 10.5321 6.18004 9.92542 5.30671 9.92542C4.43337 9.92542 3.69337 10.5321 3.48671 11.3454H2.26004V7.49208V7.49875Z" fill="#303030"/>
</svg>
