<svg width="16" height="16" viewBox="0 0 16 16" fill="none" xmlns="http://www.w3.org/2000/svg">
<path d="M6.95999 14.7068L4.75333 13.9134L6.00666 9.8001L4.07333 9.6201L2.87333 10.8334H1.32666V5.16677H2.86666L4.06666 6.3601L5.99999 6.18677L4.78666 2.1201L6.93999 1.27344L10.12 5.9201C10.7867 5.97344 12.74 6.13344 12.84 6.1401C13.8467 6.1401 14.6933 6.98677 14.6933 8.02677C14.6933 9.06677 13.8533 9.90677 12.8133 9.90677C12.7333 9.90677 10.7933 10.0334 10.12 10.0801L6.95999 14.7068ZM5.90666 13.3401L6.59333 13.5868L9.60666 9.1801L9.83333 9.16677C12.7667 8.9801 12.7933 8.9801 12.8133 8.9801C13.3333 8.9801 13.76 8.55344 13.76 8.03344C13.76 7.51344 13.3333 7.0801 12.8133 7.0801C12.7867 7.0801 12.7667 7.0801 9.81999 6.8401L9.59999 6.8201L6.59333 2.42677L5.93333 2.68677L7.22666 7.0201L3.71999 7.3401L2.47999 6.10677H2.25333V9.91344H2.48666L3.72666 8.6601L7.23333 8.98677L5.90666 13.3401Z" fill="#303030"/>
</svg>
