<svg width="16" height="16" viewBox="0 0 16 16" fill="none" xmlns="http://www.w3.org/2000/svg">
<path d="M14.6584 11.3437H12.2651V8.95042H11.3318V11.3437H8.92509V12.2771H11.3318V14.6704H12.2651V12.2771H14.6584V11.3437ZM9.54509 5.37042L8.88509 4.71042L4.21842 9.37708C3.56509 10.0304 3.56509 11.1038 4.21842 11.7571C4.87175 12.4104 5.94509 12.4171 6.59842 11.7571L12.1318 6.22375C13.2451 5.11042 13.2451 3.29708 12.1318 2.18375C11.5918 1.64375 10.8718 1.34375 10.1118 1.34375C9.35175 1.34375 8.63175 1.64375 8.09175 2.18375L2.52509 7.75042C0.945088 9.33042 0.945088 11.8971 2.52509 13.4771C3.31175 14.2638 4.35175 14.6637 5.38509 14.6637C6.41842 14.6637 7.45842 14.2704 8.24509 13.4771L7.58509 12.8171C6.37175 14.0304 4.39175 14.0304 3.17842 12.8171C1.96509 11.6037 1.96509 9.62375 3.17842 8.41042L8.75175 2.84375C9.47842 2.11708 10.7451 2.11708 11.4718 2.84375C12.2251 3.59708 12.2251 4.81708 11.4718 5.56375L5.93842 11.0971C5.65175 11.3837 5.15842 11.3771 4.87842 11.0971C4.58509 10.8037 4.58509 10.3304 4.87842 10.0371L9.54509 5.37042Z" fill="#303030"/>
</svg>
