<svg width="16" height="16" viewBox="0 0 16 16" fill="none" xmlns="http://www.w3.org/2000/svg">
<path d="M14.2534 4.4249H12.5134L10.5934 1.87823L9.25338 3.6249L7.54672 1.35156L5.18672 4.43156H4.26005L3.76672 2.09156H1.80005V3.0249H3.00672L4.80672 11.5516H12.7667V10.6182H5.56672L5.26672 9.2049H13.1067L14.2 4.6649L14.2534 4.43823V4.4249ZM10.5867 3.4249L11.34 4.43156H9.86005L9.84005 4.4049L10.5867 3.43156V3.4249ZM7.54005 2.89156L8.69338 4.4249H6.36005L7.54005 2.89156ZM5.07338 8.2649L4.46005 5.3649H13.0667L12.3667 8.2649H5.07338ZM5.55338 11.9249C4.87338 11.9249 4.32005 12.4782 4.32005 13.1582C4.32005 13.8382 4.87338 14.3916 5.55338 14.3916C6.23338 14.3916 6.78672 13.8382 6.78672 13.1582C6.78672 12.4782 6.23338 11.9249 5.55338 11.9249ZM5.55338 13.4516C5.38672 13.4516 5.25338 13.3182 5.25338 13.1516C5.25338 12.9849 5.38672 12.8516 5.55338 12.8516C5.72005 12.8516 5.85338 12.9849 5.85338 13.1516C5.85338 13.3182 5.72005 13.4516 5.55338 13.4516ZM12.42 11.9249C11.74 11.9249 11.1867 12.4782 11.1867 13.1582C11.1867 13.8382 11.74 14.3916 12.42 14.3916C13.1 14.3916 13.6534 13.8382 13.6534 13.1582C13.6534 12.4782 13.1 11.9249 12.42 11.9249ZM12.42 13.4516C12.2534 13.4516 12.12 13.3182 12.12 13.1516C12.12 12.9849 12.2534 12.8516 12.42 12.8516C12.5867 12.8516 12.72 12.9849 12.72 13.1516C12.72 13.3182 12.5867 13.4516 12.42 13.4516Z" fill="#303030"/>
</svg>
