<svg width="16" height="16" viewBox="0 0 16 16" fill="none" xmlns="http://www.w3.org/2000/svg">
<path d="M4.67661 14.7843V11.9243H1.82327V14.7843H4.68327H4.67661ZM2.75661 12.8576H3.74994V13.8509H2.75661V12.8576ZM5.64327 11.1509H8.57661V12.8643H13.2366V8.20427H11.5233V5.32427H14.3099V2.46427H11.4499V5.27094H7.56994V1.21094H1.68994V7.0976H5.64327V11.1576V11.1509ZM12.2966 11.9309H9.50327V9.1376H12.2966V11.9309ZM12.3833 3.3976H13.3766V4.39094H12.3833V3.3976ZM10.5833 6.20427V8.20427H8.56994V10.2176H6.56994V7.0976H7.56327V6.21094H10.5833V6.20427ZM2.62327 2.14427H6.64327V6.16427H2.62327V2.14427Z" fill="#303030"/>
</svg>
