<svg width="16" height="16" viewBox="0 0 16 16" fill="none" xmlns="http://www.w3.org/2000/svg">
<path d="M7.10003 2.93823C7.39336 2.93823 7.62669 3.17823 7.62669 3.4649C7.62669 3.75156 7.38669 3.99156 7.10003 3.99156C6.81336 3.99156 6.57336 3.75156 6.57336 3.4649C6.57336 3.17823 6.81336 2.93823 7.10003 2.93823ZM8.38003 12.5116C8.38003 12.8049 8.62003 13.0382 8.90669 13.0382C9.19336 13.0382 9.43336 12.7982 9.43336 12.5116C9.43336 12.2249 9.19336 11.9849 8.90669 11.9849C8.62003 11.9849 8.38003 12.2249 8.38003 12.5116ZM8.00003 14.6716C8.14669 14.6716 8.28669 14.6649 8.42669 14.6582H7.56669C7.71336 14.6649 7.85336 14.6716 8.00003 14.6716ZM14.6467 7.4649V8.47823C14.58 9.3849 14.3467 10.2182 13.96 10.9849C13.78 11.3449 13.4067 11.5649 13 11.5649H11.32V12.9916C11.32 13.3982 11.1134 13.7649 10.78 13.9516C10.0467 14.3582 9.25336 14.5916 8.42669 14.6516H7.66669C6.80669 14.5916 6.00669 14.3582 5.26669 13.9449C4.93336 13.7582 4.73336 13.3916 4.73336 12.9916V11.5782H3.01336C2.60669 11.5782 2.22669 11.3516 2.04669 10.9982C1.58003 10.0782 1.34003 9.0449 1.34003 8.0049C1.34003 6.9649 1.58669 5.93156 2.04669 5.01156C2.22669 4.65823 2.60003 4.43156 3.01336 4.43156H4.73336V3.01823C4.73336 2.61156 4.94003 2.2449 5.26669 2.0649C6.02003 1.6449 6.84669 1.39823 7.71336 1.35156H8.32003C9.20669 1.4049 10.02 1.63823 10.7734 2.05156C11.1067 2.23156 11.3134 2.6049 11.3134 3.01156V4.43823H12.9934C13.4067 4.43823 13.7734 4.65823 13.9534 5.01823C14.34 5.7849 14.5734 6.61823 14.64 7.4849L14.6467 7.4649ZM3.00669 10.6249H4.72669V9.9849C4.72669 8.6249 5.60003 7.51823 6.68003 7.51823H9.36669C9.92003 7.51823 10.3867 6.81823 10.3867 5.9849V2.9849C10.3867 2.91156 10.3534 2.85823 10.3334 2.8449C9.70003 2.49823 9.02003 2.29823 8.30003 2.25823H7.74669C7.04669 2.3049 6.36003 2.5049 5.72669 2.85823C5.70669 2.87156 5.67336 2.9249 5.67336 2.99823V4.41156H8.00003V5.3449H3.02003C2.96003 5.3449 2.90669 5.37156 2.88669 5.41156C2.48669 6.19823 2.28003 7.0849 2.28003 7.9849C2.28003 8.8849 2.49336 9.7649 2.88669 10.5582C2.90669 10.5982 2.96003 10.6249 3.02003 10.6249H3.00669ZM13.72 8.4449V7.5049C13.66 6.79156 13.4667 6.07823 13.1334 5.4249C13.1134 5.3849 13.06 5.35823 13 5.35823H11.32V5.99823C11.32 7.35823 10.4467 8.4649 9.36669 8.4649H6.68003C6.12669 8.4649 5.66003 9.1649 5.66003 9.99823V12.9849C5.66003 13.0582 5.69336 13.1116 5.71336 13.1249C6.33336 13.4716 7.00003 13.6716 7.69336 13.7182H8.38669C9.04003 13.6716 9.70669 13.4716 10.32 13.1316C10.34 13.1182 10.3734 13.0649 10.3734 12.9916V11.5649H7.98669V10.6316H12.9867C13.0467 10.6316 13.1 10.6049 13.12 10.5649C13.4534 9.9049 13.6534 9.19823 13.7067 8.4449H13.72Z" fill="#303030"/>
</svg>
