<svg width="16" height="16" viewBox="0 0 16 16" fill="none" xmlns="http://www.w3.org/2000/svg">
<path d="M14.9867 13.9638L10.6667 9.65042C11.3934 8.77042 11.8267 7.65042 11.8267 6.41708C11.8267 3.61708 9.55339 1.34375 6.75339 1.34375C3.95339 1.34375 1.68005 3.61708 1.68005 6.41708C1.68005 9.21708 3.95339 11.4904 6.75339 11.4904C7.99339 11.4904 9.12672 11.0437 10.0067 10.3038L14.3267 14.6171L14.9867 13.9571V13.9638ZM6.75339 10.5638C4.46672 10.5638 2.61339 8.70375 2.61339 6.42375C2.61339 4.14375 4.47339 2.28375 6.75339 2.28375C9.03339 2.28375 10.8934 4.14375 10.8934 6.42375C10.8934 8.70375 9.03339 10.5638 6.75339 10.5638Z" fill="#303030"/>
</svg>
