<svg width="16" height="16" viewBox="0 0 16 16" fill="none" xmlns="http://www.w3.org/2000/svg">
<path d="M2.26665 3.26927H13.7333V8.93594H14.6666V2.33594H1.33331V12.7359H9.39998V11.8026H2.26665V3.26927Z" fill="#303030"/>
<path d="M10.3333 8.00521H10.8666V7.07188H10.3333C10.3333 6.73854 10.1333 6.47188 9.99995 6.20521L10.4 5.80521L9.73328 5.13854L9.33328 5.53854C9.06662 5.33854 8.79995 5.27188 8.46662 5.20521V4.67188H7.53328V5.20521C7.19995 5.20521 6.93328 5.40521 6.66662 5.53854L6.33328 5.20521L5.66662 5.87188L6.06662 6.27187C5.86662 6.53854 5.79995 6.80521 5.73328 7.13854H5.19995V8.07188H5.73328C5.73328 8.33854 5.93328 8.67187 6.06662 8.93854L5.66662 9.33854L6.33328 10.0052L6.73328 9.60521C6.99995 9.80521 7.26662 9.87187 7.59995 9.93854V10.4719H8.53328V9.93854C8.86662 9.93854 9.13328 9.73854 9.39995 9.60521L9.79995 10.0052L10.4666 9.33854L10.0666 8.93854C10.2666 8.67187 10.3333 8.40521 10.4 8.07188L10.3333 8.00521ZM8.99995 8.53854C8.46662 9.07188 7.46662 9.07188 6.93328 8.53854C6.39995 8.00521 6.39995 7.07187 6.93328 6.47187C7.19995 6.20521 7.59995 6.07188 7.93328 6.07188C8.26662 6.07188 8.66662 6.20521 8.93328 6.47187C9.46662 7.00521 9.46662 7.93854 8.93328 8.53854H8.99995Z" fill="#303030"/>
<path d="M10.8 9.60156V14.0682L14.6667 11.8682L10.8 9.66823V9.60156ZM11.7333 11.2016L12.8 11.8016L11.7333 12.4016V11.2016Z" fill="#303030"/>
</svg>
