<svg width="16" height="16" viewBox="0 0 16 16" fill="none" xmlns="http://www.w3.org/2000/svg">
<path d="M7.26343 1.39062L1.3501 4.40396V11.704L6.79676 14.5706V14.5973H7.7301V7.85729L12.2434 5.46396V7.93062H13.1768V4.40396L7.26343 1.39062ZM11.6968 4.69729L7.26343 7.05062L2.8301 4.69729L7.26343 2.43729L11.6968 4.69729ZM2.28343 11.1373V5.46396L6.7901 7.85729V13.5173L2.28343 11.1373ZM14.6568 12.2173V11.284H14.1368C14.0768 10.9773 13.9568 10.684 13.7768 10.4173L14.1434 10.0506L13.4834 9.39062L13.1168 9.75729C12.8501 9.58396 12.5568 9.46396 12.2568 9.40396V8.89062H11.3234V9.41729C11.0234 9.47729 10.7368 9.59729 10.4701 9.77729L10.1034 9.41063L9.44343 10.0706L9.8101 10.4373C9.63676 10.6973 9.52343 10.9906 9.46343 11.284H8.94343V12.2173H9.46343C9.52343 12.5106 9.63676 12.7973 9.8101 13.0573L9.44343 13.424L10.1034 14.084L10.4701 13.7173C10.7301 13.8973 11.0234 14.0106 11.3234 14.0773V14.604H12.2568V14.0906C12.5568 14.0306 12.8501 13.9173 13.1168 13.744L13.4834 14.1106L14.1434 13.4506L13.7768 13.084C13.9568 12.8173 14.0768 12.524 14.1368 12.224H14.6568V12.2173ZM10.7701 10.724C11.0434 10.4506 11.4101 10.2973 11.7968 10.2973C12.1834 10.2973 12.5501 10.4506 12.8234 10.724C13.3901 11.2906 13.3901 12.2106 12.8234 12.7773C12.2568 13.344 11.3234 13.324 10.7701 12.7773C10.2034 12.2106 10.2034 11.2906 10.7701 10.724Z" fill="#303030"/>
</svg>
