<svg width="16" height="16" viewBox="0 0 16 16" fill="none" xmlns="http://www.w3.org/2000/svg">
<path d="M14.6533 7.0075L11.7866 4.1875H10.3466H9.41992V8.50083H1.33325V12.2808H2.27992C2.48659 13.0942 3.22659 13.7008 4.10659 13.7008C4.98659 13.7008 5.73325 13.0942 5.93992 12.2808H10.0999C10.3066 13.1008 11.0466 13.7142 11.9266 13.7142C12.8066 13.7142 13.5533 13.1008 13.7533 12.2808H14.6533V7.0075ZM4.93992 12.2808C4.77992 12.5742 4.45992 12.7675 4.10659 12.7675C3.75325 12.7675 3.43992 12.5742 3.27992 12.2808C3.19992 12.1408 3.15325 11.9875 3.15325 11.8142C3.15325 11.6408 3.19992 11.4808 3.27992 11.3475C3.43992 11.0542 3.75325 10.8542 4.10659 10.8542C4.45992 10.8542 4.77992 11.0542 4.93992 11.3475C5.01992 11.4808 5.06659 11.6408 5.06659 11.8142C5.06659 11.9875 5.01992 12.1408 4.93992 12.2808ZM9.42659 11.3475H5.93992C5.73325 10.5275 4.99325 9.92083 4.10659 9.92083C3.21992 9.92083 2.48659 10.5275 2.27992 11.3475H2.26659V9.43417H9.42659V11.3475ZM11.9266 12.7808C11.3999 12.7808 10.9733 12.3542 10.9733 11.8275C10.9733 11.3008 11.3999 10.8742 11.9266 10.8742C12.4533 10.8742 12.8799 11.3008 12.8799 11.8275C12.8799 12.3542 12.4533 12.7808 11.9266 12.7808ZM11.9266 9.93417C11.2733 9.93417 10.6999 10.2675 10.3599 10.7742V8.50083V5.12083H11.4133L13.7266 7.40083V11.2608C13.4799 10.5008 12.7733 9.94083 11.9333 9.94083L11.9266 9.93417Z" fill="#303030"/>
<path d="M5.17327 2.28375C5.4666 2.28375 5.75327 2.37042 5.99993 2.53708C6.4066 2.81042 6.65327 3.27042 6.65327 3.76375C6.65327 4.03708 6.57993 4.30375 6.43993 4.53042L6.4066 4.58375L5.1866 6.41708L3.91327 4.51708C3.8466 4.40375 3.79327 4.28375 3.75993 4.16375C3.7266 4.03708 3.7066 3.90375 3.7066 3.76375C3.7066 3.27042 3.95327 2.81708 4.35993 2.53708C4.6066 2.37042 4.8866 2.28375 5.1866 2.28375M5.17327 1.35042C4.67327 1.35042 4.21327 1.50375 3.8266 1.76375C3.1866 2.19708 2.7666 2.93042 2.7666 3.76375C2.7666 3.99042 2.79993 4.20375 2.85327 4.41042C2.91327 4.61708 2.99327 4.81042 3.09993 4.99042L3.11327 5.01708L5.17327 8.09708L7.1666 5.10375V5.09042C7.1666 5.09042 7.2066 5.04375 7.21993 5.01708C7.4466 4.65042 7.57327 4.22375 7.57327 3.75708C7.57327 2.92375 7.15327 2.19042 6.51327 1.75708C6.1266 1.49708 5.6666 1.34375 5.1666 1.34375L5.17327 1.35042Z" fill="#303030"/>
<path d="M5.17329 3.05469C4.77996 3.05469 4.45996 3.37469 4.45996 3.76802C4.45996 4.16135 4.77996 4.48135 5.17329 4.48135C5.56663 4.48135 5.88663 4.16135 5.88663 3.76802C5.88663 3.37469 5.56663 3.05469 5.17329 3.05469Z" fill="#303030"/>
</svg>
