<svg width="16" height="16" viewBox="0 0 16 16" fill="none" xmlns="http://www.w3.org/2000/svg">
<path d="M12.12 11.0383L9.97997 9.95167L9.96663 8.49167C8.65997 7.905 7.36663 7.905 6.0133 8.49167L5.99997 9.95167L3.85997 11.0383L1.33997 8.15834L1.67997 7.85167C5.7533 4.13834 9.7533 4.13167 14.28 7.83834L14.6533 8.14501L12.12 11.045V11.0383ZM10.9133 9.37167L11.9 9.87167L13.32 8.25167C9.4533 5.25167 6.1333 5.24501 2.65997 8.23167L4.0933 9.87167L5.07997 9.37167L5.0933 7.89834L5.3533 7.77167C7.13997 6.89167 8.92663 6.89167 10.6533 7.77167L10.9066 7.89834L10.92 9.36501L10.9133 9.37167Z" fill="#303030"/>
</svg>
