<svg width="16" height="16" viewBox="0 0 16 16" fill="none" xmlns="http://www.w3.org/2000/svg">
<path d="M8.03678 11.9991H5.17012C3.10345 11.9391 1.37012 10.2257 1.37012 8.19906C1.37012 6.41906 2.62345 4.8924 4.33678 4.50573C4.73012 2.7924 6.26345 1.53906 8.04345 1.53906C9.71678 1.53906 11.1768 2.61906 11.6768 4.22573L10.7835 4.49906C10.4101 3.28573 9.31012 2.4724 8.04345 2.4724C6.61678 2.4724 5.39012 3.54573 5.20345 4.9724L5.15678 5.32573L4.80345 5.3724C3.37678 5.55906 2.30345 6.7724 2.30345 8.19906C2.30345 9.7524 3.66345 11.0657 5.27012 11.0657H8.03012V11.9991H8.03678ZM9.76345 5.6124C9.76345 5.7324 9.75678 5.81906 9.73678 5.8724C9.71678 5.92573 9.69012 5.96573 9.65012 5.98573C9.61012 6.00573 9.55012 6.0124 9.47012 6.0124H8.98345V6.77906H9.76345V9.42573H10.6834V5.6124H9.76345ZM13.0101 9.49906C12.4635 9.49906 12.0501 9.31906 11.7768 8.95906C11.5034 8.59906 11.3635 8.1124 11.3635 7.50573C11.3635 7.1124 11.4234 6.7724 11.5368 6.47906C11.6568 6.18573 11.8368 5.9524 12.0835 5.78573C12.3301 5.61906 12.6368 5.53906 13.0101 5.53906C13.5635 5.53906 13.9701 5.71906 14.2368 6.0724C14.5035 6.42573 14.6368 6.90573 14.6368 7.5124C14.6368 7.9124 14.5835 8.26573 14.4635 8.56573C14.3435 8.86573 14.1701 9.09906 13.9301 9.25906C13.6901 9.42573 13.3835 9.50573 13.0101 9.50573V9.49906ZM13.0101 8.77906C13.1768 8.77906 13.3035 8.7324 13.4035 8.63906C13.5035 8.54573 13.5768 8.40573 13.6235 8.21906C13.6701 8.0324 13.6901 7.7924 13.6901 7.50573C13.6901 7.08573 13.6368 6.7724 13.5301 6.56573C13.4235 6.36573 13.2501 6.25906 13.0101 6.25906C12.8435 6.25906 12.7101 6.30573 12.6034 6.39906C12.4968 6.4924 12.4235 6.6324 12.3768 6.8124C12.3301 6.99906 12.3035 7.22573 12.3035 7.50573C12.3035 7.93906 12.3568 8.2524 12.4701 8.46573C12.5835 8.6724 12.7635 8.77906 13.0035 8.77906H13.0101ZM9.76345 10.5791C9.76345 10.6991 9.75678 10.7857 9.73678 10.8391C9.71678 10.8924 9.69012 10.9324 9.65012 10.9524C9.61012 10.9724 9.55012 10.9791 9.47012 10.9791H8.98345V11.7457H9.76345V14.3924H10.6834V10.5791H9.76345ZM13.0101 14.4657C12.4635 14.4657 12.0501 14.2857 11.7768 13.9257C11.5034 13.5657 11.3635 13.0791 11.3635 12.4724C11.3635 12.0791 11.4234 11.7391 11.5368 11.4457C11.6568 11.1524 11.8368 10.9191 12.0835 10.7524C12.3301 10.5857 12.6368 10.5057 13.0101 10.5057C13.5635 10.5057 13.9701 10.6857 14.2368 11.0391C14.5035 11.3924 14.6368 11.8724 14.6368 12.4791C14.6368 12.8791 14.5835 13.2324 14.4635 13.5324C14.3501 13.8324 14.1701 14.0657 13.9301 14.2257C13.6901 14.3924 13.3835 14.4724 13.0101 14.4724V14.4657ZM13.0101 13.7391C13.1768 13.7391 13.3035 13.6924 13.4035 13.5991C13.5035 13.5057 13.5768 13.3657 13.6235 13.1791C13.6701 12.9924 13.6901 12.7524 13.6901 12.4657C13.6901 12.0457 13.6368 11.7324 13.5301 11.5257C13.4235 11.3191 13.2501 11.2191 13.0101 11.2191C12.8435 11.2191 12.7101 11.2657 12.6034 11.3591C12.4968 11.4524 12.4235 11.5924 12.3768 11.7724C12.3301 11.9524 12.3035 12.1857 12.3035 12.4657C12.3035 12.8924 12.3568 13.2124 12.4701 13.4257C12.5835 13.6324 12.7635 13.7391 13.0035 13.7391H13.0101Z" fill="#303030"/>
</svg>
