<svg width="16" height="16" viewBox="0 0 16 16" fill="none" xmlns="http://www.w3.org/2000/svg">
<path d="M14.6467 3.71594H13.72L11.2733 6.85594L8.94668 5.1426L6.58668 7.5826L3.77335 5.53594L2.28001 6.55594V1.33594H1.34668V14.6626H14.66V3.71594H14.6467ZM3.74668 6.67594L6.68668 8.80927L9.04668 6.37594L11.4533 8.1426L13.72 5.23594V7.7626L11.2733 10.9026L8.94668 9.18927L6.58668 11.6293L3.77335 9.5826L2.28001 10.6026V7.6826L3.75335 6.67594H3.74668ZM2.27335 13.7293V11.7293L3.74668 10.7226L6.68668 12.8559L9.04668 10.4226L11.4533 12.1893L13.72 9.27594V13.7293H2.27335Z" fill="#303030"/>
</svg>
