<svg width="16" height="16" viewBox="0 0 16 16" fill="none" xmlns="http://www.w3.org/2000/svg">
<path d="M13.24 2.27708H2.76001V1.34375H13.2333V2.27708H13.24ZM13.2267 13.7371L2.76668 13.7238V14.6571L13.2267 14.6704V13.7371ZM10.5067 9.89042L8.46001 11.9371V4.11042L10.5 6.15708L11.16 5.49708L7.98668 2.32375L4.80668 5.50375L5.46668 6.16375L7.52001 4.11042V11.9371L5.47335 9.88375L4.81335 10.5438L7.99335 13.7238L11.1667 10.5504L10.5067 9.89042ZM2.28001 10.8571H1.34668V12.2838H2.28001V10.8571ZM2.28001 8.47042H1.34668V9.89708H2.28001V8.47042ZM2.28001 6.10375H1.34668V7.52375H2.28001V6.10375ZM2.28001 3.71042H1.34668V5.13042H2.28001V3.71042ZM14.66 10.8571H13.7267V12.2838H14.66V10.8571ZM14.66 8.47042H13.7267V9.89708H14.66V8.47042ZM14.66 6.10375H13.7267V7.52375H14.66V6.10375ZM14.66 3.71042H13.7267V5.13042H14.66V3.71042Z" fill="#303030"/>
</svg>
