<svg width="16" height="16" viewBox="0 0 16 16" fill="none" xmlns="http://www.w3.org/2000/svg">
<path d="M7.99342 1.34375C5.11342 1.34375 2.77342 3.68375 2.77342 6.56375V8.29708L1.34009 9.83708V13.2171H6.58009C6.58009 14.0104 7.22009 14.6504 8.00675 14.6504C8.79342 14.6504 9.43342 14.0104 9.43342 13.2238L14.6601 13.2171V9.86375L13.2201 8.29708V6.56375C13.2201 3.68375 10.8734 1.34375 7.99342 1.34375ZM13.7268 10.2304V12.2838H2.27342V10.2038L3.70675 8.66375V6.56375C3.70675 4.19708 5.63342 2.27708 7.99342 2.27708C10.3534 2.27708 12.2868 4.19708 12.2868 6.56375V8.66375L13.7268 10.2304Z" fill="#303030"/>
</svg>
