<svg width="16" height="16" viewBox="0 0 16 16" fill="none" xmlns="http://www.w3.org/2000/svg">
<path d="M11.0866 8.73938C10.7333 8.55937 10.3533 8.41937 9.96664 8.29938C11.0266 7.63271 11.74 6.45938 11.74 5.11271C11.74 3.03938 10.0533 1.35938 7.98664 1.35938C5.91997 1.35938 4.2333 3.04604 4.2333 5.11271C4.2333 6.47271 4.95997 7.65937 6.04664 8.31938C3.36664 9.17271 1.42664 11.686 1.42664 14.6394H2.35997C2.35997 11.4927 4.91997 8.93271 8.06664 8.93271C8.97997 8.93271 9.85997 9.14604 10.6666 9.55938L11.0933 8.72604L11.0866 8.73938ZM5.16664 5.11937C5.16664 3.56604 6.4333 2.29938 7.98664 2.29938C9.53997 2.29938 10.8066 3.56604 10.8066 5.11937C10.8066 6.67271 9.53997 7.93937 7.98664 7.93937C6.4333 7.93937 5.16664 6.67271 5.16664 5.11937Z" fill="#303030"/>
<path d="M9.0533 12.6242L8.92664 14.6375L10.94 14.5442L14.6466 10.8375L12.7466 8.9375L9.05997 12.6242H9.0533ZM13.32 10.8375L10.5266 13.6308L9.9133 13.6575L9.9533 13.0375L12.7333 10.2575L13.3133 10.8375H13.32Z" fill="#303030"/>
</svg>
