<svg width="16" height="16" viewBox="0 0 16 16" fill="none" xmlns="http://www.w3.org/2000/svg">
<path d="M13.2078 1.32812H3.68784V3.63479L2.80117 8.75479C2.72784 9.19479 2.84784 9.64812 3.12117 9.96146C3.34117 10.2215 3.63451 10.3615 3.95451 10.3615H4.20784C4.44784 10.3615 4.68117 10.2748 4.86784 10.1281V13.7548C4.86784 14.2615 5.24117 14.6748 5.69451 14.6748H6.80784C7.29451 14.6748 7.68784 14.2281 7.68784 13.6881V11.8215H8.68117C9.15451 11.8215 9.54117 11.3948 9.56784 10.8681H10.5612C11.0412 10.8681 11.4345 10.4415 11.4612 9.90812L12.3478 9.89479C12.5678 9.89479 12.7745 9.80813 12.9345 9.64813C13.1212 9.46146 13.2278 9.19479 13.2278 8.90812V3.73479H13.2212V1.32812H13.2078ZM4.62117 2.26146H12.2745V3.73479H4.62117V2.26146ZM12.2745 8.95479L11.4478 8.96813V8.46146H10.5145V9.90146V9.92146H9.56117V8.46146H8.62784V10.4081C8.62784 10.4081 8.62117 10.4348 8.62117 10.4481V10.8081C8.62117 10.8081 8.62117 10.8615 8.60784 10.8748H7.67451V8.46146H6.74117V13.6681C6.74117 13.6681 6.74117 13.7081 6.73451 13.7215H5.79451V8.73479V7.04813H4.86117V8.64146L4.41451 9.19479L4.36784 9.26146C4.32117 9.34813 4.25451 9.40146 4.19451 9.40146H3.94117C3.88784 9.40146 3.84784 9.36146 3.81451 9.32812C3.74117 9.24146 3.67451 9.07479 3.70784 8.88146L4.44117 4.64812H12.2678V8.88146C12.2678 8.88146 12.2678 8.92146 12.2612 8.93479L12.2745 8.95479Z" fill="#303030"/>
</svg>
