<svg width="16" height="16" viewBox="0 0 16 16" fill="none" xmlns="http://www.w3.org/2000/svg">
<path d="M3.81333 3.51708C3.82666 2.82375 4.39333 2.27042 5.08666 2.27042C5.68666 2.27042 6.18666 2.68375 6.31999 3.24375H5.37999V4.17708H8.23999V3.25042H7.26666C7.11999 2.17042 6.19999 1.34375 5.08666 1.34375C3.97333 1.34375 2.97333 2.25708 2.89333 3.39708H2.87999V3.55042L2.89333 7.99708H1.32666V10.6571C1.32666 11.9504 2.12666 13.0638 3.25999 13.5171L3.23999 14.6504L4.17333 14.6637L4.18666 13.7238C4.25333 13.7238 4.32666 13.7371 4.39333 13.7371H11.3333V14.6571H12.26V13.6171C13.6333 13.2571 14.6533 12.0104 14.6533 10.5238V7.99042H3.81999L3.80666 3.51708H3.81333ZM13.7267 10.5238C13.7267 11.6838 12.86 12.6571 11.7 12.7838C11.62 12.7904 11.54 12.7971 11.4533 12.7971H4.39999C4.23999 12.7971 4.07999 12.7771 3.92666 12.7438C2.95999 12.5304 2.25333 11.6438 2.25333 10.6504V8.92375H13.72V10.5238H13.7267Z" fill="#303030"/>
</svg>
