<svg width="16" height="16" viewBox="0 0 16 16" fill="none" xmlns="http://www.w3.org/2000/svg">
<path d="M7.52674 1.32031C5.00674 1.32031 2.32007 2.26031 2.32007 4.00698V11.987C2.32007 13.727 5.00674 14.6736 7.5334 14.6736V13.5803C4.9534 13.5803 3.30674 12.6336 3.30674 11.987V10.9736C4.3134 11.6803 5.96007 12.047 7.5334 12.047V10.9536C4.9534 10.9536 3.30674 10.007 3.30674 9.36031V8.31365C4.3134 9.02031 5.96007 9.38698 7.5334 9.38698V8.29364C4.9534 8.29364 3.30674 7.34698 3.30674 6.70031V5.63365C4.3134 6.33365 5.9534 6.70698 7.5334 6.70698C9.1134 6.70698 10.7467 6.34031 11.7534 5.64031V8.01365H12.7401V4.01365C12.7401 2.27365 10.0534 1.32698 7.5334 1.32698L7.52674 1.32031ZM7.52674 5.60031C4.94674 5.60031 3.30007 4.65365 3.30007 4.00031C3.30007 3.34698 4.94674 2.40031 7.52674 2.40031C10.1067 2.40031 11.7467 3.34031 11.7534 3.99365V4.01365C11.7201 4.66698 10.0867 5.59365 7.5334 5.59365L7.52674 5.60031ZM8.94674 11.3203H9.88007V14.6536H8.94674V11.3203ZM10.8534 9.42031H11.7867V14.6603H10.8534V9.42031ZM12.7467 12.2736H13.6801V14.6536H12.7467V12.2736Z" fill="#303030"/>
</svg>
