<svg width="16" height="16" viewBox="0 0 16 16" fill="none" xmlns="http://www.w3.org/2000/svg">
<path d="M14.02 1.35156L10.38 4.97156V2.29156H9.44666V6.5649H13.7V5.63156H11.0467L14.68 2.01156L14.02 1.35156Z" fill="#303030"/>
<path d="M10.3666 11.0297L13.98 14.663L14.64 14.003L11.02 10.363H13.7066V9.42969H9.42664V13.683H10.3666V11.0297Z" fill="#303030"/>
<path d="M5.62666 11.023V13.7097H6.55999V9.42969H2.30666V10.363H4.95999L1.32666 13.983L1.98666 14.643L5.62666 11.023Z" fill="#303030"/>
<path d="M2.19331 2.92594L1.51331 2.24594L2.17331 1.58594L2.85331 2.26594L2.19331 2.92594ZM3.55331 4.2926L4.21331 3.6326L3.53331 2.9526L2.87331 3.6126L3.55331 4.2926Z" fill="#303030"/>
<path d="M6.57338 2.30469H5.64005V5.61802H4.94672L5.57338 4.99135L4.89338 4.31135L4.23338 4.97135L4.88672 5.61802H2.30005V6.55135H6.57338V2.30469Z" fill="#303030"/>
</svg>
