<svg width="16" height="16" viewBox="0 0 16 16" fill="none" xmlns="http://www.w3.org/2000/svg">
<path d="M6.59338 10.8359H7.52672V14.6559H6.59338V10.8359Z" fill="#303030"/>
<path d="M4.21338 12.7578H5.14671V14.6645H4.21338V12.7578Z" fill="#303030"/>
<path d="M2.30005 13.7266H3.23338V14.6599H2.30005V13.7266Z" fill="#303030"/>
<path d="M8.97339 8.44531H9.90672V14.6586H8.97339V8.44531Z" fill="#303030"/>
<path d="M11.3534 6.09375H12.2867V14.6671H11.3534V6.09375Z" fill="#303030"/>
<path d="M3.44005 2.28125V3.21458H6.35338L2.38672 7.15458L3.04672 7.82125L7.01339 3.86792V6.77458H7.94672V2.28125H3.44005Z" fill="#303030"/>
<path d="M14.6733 1.3125H9.53333L10.9333 2.75917L9.53333 4.18583H13.74V14.6658H14.6733V4.17917V1.3125ZM11.76 3.24583L12.24 2.75917L11.74 2.23917H13.74V3.24583H11.76Z" fill="#303030"/>
</svg>
