<svg width="16" height="16" viewBox="0 0 16 16" fill="none" xmlns="http://www.w3.org/2000/svg">
<path d="M3.71327 1.34375H1.35327V2.27708H2.9666L3.1666 3.19708L4.4066 9.89042L4.85994 12.2638H5.49994C5.17327 12.5104 4.95994 12.8904 4.95994 13.3304C4.95994 14.0704 5.56661 14.6704 6.31327 14.6704C7.05994 14.6704 7.6666 14.0704 7.6666 13.3304C7.6666 12.8971 7.45327 12.5104 7.1266 12.2638H10.6399C10.2999 12.5104 10.0799 12.9038 10.0799 13.3438C10.0799 14.0838 10.6866 14.6838 11.4333 14.6838C12.1799 14.6838 12.7866 14.0838 12.7866 13.3438C12.7866 12.8971 12.5666 12.5037 12.2266 12.2638H12.7666V11.3304H5.6266L5.4466 10.3837H13.2133L14.6866 3.18375H4.11994L3.71994 1.34375H3.71327ZM6.3066 13.7304C6.07327 13.7304 5.8866 13.5504 5.8866 13.3237C5.8866 13.0971 6.07327 12.9171 6.3066 12.9171C6.53994 12.9171 6.7266 13.0971 6.7266 13.3237C6.7266 13.5504 6.53994 13.7304 6.3066 13.7304ZM11.4333 13.7504C11.1999 13.7504 11.0133 13.5704 11.0133 13.3438C11.0133 13.1171 11.1999 12.9371 11.4333 12.9371C11.6666 12.9371 11.8533 13.1171 11.8533 13.3438C11.8533 13.5704 11.6666 13.7504 11.4333 13.7504ZM13.5333 4.11708L12.4466 9.45042H5.27327L4.2866 4.11708H13.5399H13.5333Z" fill="#303030"/>
</svg>
