<svg width="16" height="16" viewBox="0 0 16 16" fill="none" xmlns="http://www.w3.org/2000/svg">
<path d="M14.6667 1.33594H11.8134V2.26927H13.7334V4.18927H14.6667V1.33594Z" fill="#303030"/>
<path d="M2.26671 2.26927H3.71337V1.33594H1.33337V3.7226H2.26671V2.26927Z" fill="#303030"/>
<path d="M13.7334 13.7258H11.8201V14.6592H14.6667V11.8125H13.7334V13.7258Z" fill="#303030"/>
<path d="M4.18004 13.7258H2.26671V11.8125H1.33337V14.6592H4.18004V13.7258Z" fill="#303030"/>
<path d="M1.33337 6.57031H2.26671V8.95031H1.33337V6.57031Z" fill="#303030"/>
<path d="M13.7334 6.57031H14.6667V8.95031H13.7334V6.57031Z" fill="#303030"/>
<path d="M6.57336 1.33594H9.43336V2.26927H6.57336V1.33594Z" fill="#303030"/>
<path d="M6.57336 13.7188H9.43336V14.6521H6.57336V13.7188Z" fill="#303030"/>
<path d="M10.8401 5.15625L8.96006 10.8563L8.00673 8.00958L5.14673 7.04292L10.8401 5.15625Z" fill="#303030"/>
</svg>
