<svg width="16" height="16" viewBox="0 0 16 16" fill="none" xmlns="http://www.w3.org/2000/svg">
<path d="M4.28663 1.32812C3.43996 1.32812 2.7533 2.01479 2.7533 2.86146V13.2415C2.7533 14.0281 3.38663 14.6615 4.1733 14.6615H13.2333V13.7148V12.2415V1.32812H4.28663ZM4.3933 13.7081C4.00663 13.7081 3.68663 13.3948 3.68663 13.0015C3.68663 12.5815 4.02663 12.2415 4.44663 12.2415H12.2933V13.7081H4.3933ZM4.28663 2.26146H12.3V11.3081H4.4533C4.17996 11.3081 3.91996 11.3815 3.6933 11.4948V2.86146C3.6933 2.53479 3.95996 2.26146 4.2933 2.26146H4.28663Z" fill="#303030"/>
<path d="M9.71992 9.99781H9.74659H9.78659C10.3733 9.99781 10.8599 9.53781 10.8933 8.95781V8.92448V8.87781V7.89781V7.21115L10.2333 7.01115L9.57326 6.80448L9.01326 6.63115L8.61326 7.05781L8.48659 7.19115L8.46659 7.21115C8.35326 7.17781 8.23326 7.11781 8.11993 7.01115C8.01326 6.91115 7.95992 6.79115 7.91992 6.68448L8.07326 6.55115L8.52659 6.15115L8.34659 5.57781L8.13992 4.91115L7.93326 4.25781H6.26659C5.65326 4.25781 5.15992 4.75115 5.15992 5.36448C5.02659 8.29781 6.51992 9.81115 9.71992 9.99781ZM6.08659 5.37115C6.08659 5.27115 6.16659 5.19781 6.25993 5.19781H7.24659L7.45326 5.86448C7.28659 6.01781 7.11326 6.16448 6.94659 6.31781C6.93992 6.41781 6.89992 7.13115 7.45992 7.69115C7.91992 8.14448 8.47992 8.19781 8.72659 8.19781C8.77992 8.19781 8.81992 8.19781 8.83992 8.19781C8.99326 8.03781 9.13992 7.87115 9.29326 7.71115L9.95326 7.91781V8.91115C9.95326 8.91115 9.95326 8.91781 9.95326 8.92448C9.95326 9.01781 9.87326 9.09115 9.77992 9.09115C9.77992 9.09115 9.77326 9.09115 9.76659 9.09115C6.68659 8.91781 5.97992 7.51781 6.08659 5.41115C6.08659 5.41115 6.08659 5.40448 6.08659 5.39781V5.37115Z" fill="#303030"/>
</svg>
