<svg width="16" height="16" viewBox="0 0 16 16" fill="none" xmlns="http://www.w3.org/2000/svg">
<path d="M11.3467 7.82812L13.1467 10.5615L13.9267 10.0481L11.3467 6.12813V4.67479H9.60008C9.88674 4.32146 10.0667 3.87479 10.0667 3.38146C10.0667 2.24813 9.14674 1.32812 8.01341 1.32812C6.88008 1.32812 5.96008 2.24813 5.96008 3.38146C5.96008 3.87479 6.14008 4.31479 6.42674 4.67479H4.70674V6.09479L4.68674 6.08146L2.08008 10.0481L2.86008 10.5615L4.70674 7.75479V12.7348H6.60674V14.6481H7.54674L7.53341 11.8015H5.63341V5.60146H10.4067V11.8015H8.50674V14.6481H9.45341V12.7348H11.3467V7.82146V7.82812ZM8.01341 2.26146C8.63341 2.26146 9.13341 2.76146 9.13341 3.38146C9.13341 4.00146 8.63341 4.50146 8.01341 4.50146C7.39341 4.50146 6.89341 4.00146 6.89341 3.38146C6.89341 2.76146 7.39341 2.26146 8.01341 2.26146Z" fill="#303030"/>
</svg>
