<svg width="16" height="16" viewBox="0 0 16 16" fill="none" xmlns="http://www.w3.org/2000/svg">
<path d="M10.1534 2.27708H13.0601L10.6868 4.63708L7.77342 7.54375H6.00009C5.78675 6.46375 4.83342 5.63708 3.69342 5.63708C2.39342 5.63708 1.34009 6.69042 1.34009 7.99042C1.34009 9.29042 2.39342 10.3437 3.69342 10.3437C4.82675 10.3437 5.77342 9.54375 5.99342 8.47708H8.16009L11.1068 5.53042L13.7268 2.93042V5.83708H14.6601V1.34375H10.1534V2.27708ZM3.69342 9.41042C2.90675 9.41042 2.27342 8.77708 2.27342 7.99042C2.27342 7.20375 2.90675 6.57042 3.69342 6.57042C4.48009 6.57042 5.11342 7.20375 5.11342 7.99042C5.11342 8.77708 4.48009 9.41042 3.69342 9.41042ZM13.7201 13.0371L9.78009 9.07708L9.12009 9.73708L13.0668 13.7037H10.1601V14.6371H14.6601V10.1304H13.7201V13.0371Z" fill="#303030"/>
</svg>
