<svg width="16" height="16" viewBox="0 0 16 16" fill="none" xmlns="http://www.w3.org/2000/svg">
<path d="M8.20329 14.6725C7.14329 14.6725 6.27662 13.8192 6.25662 12.7592H3.44995V9.95917C2.38995 9.93917 1.53662 9.0725 1.53662 8.0125C1.53662 6.9525 2.38995 6.08583 3.44995 6.06583V3.25917H6.25662C6.25662 2.18583 7.13662 1.3125 8.20995 1.3125C9.28329 1.3125 10.1566 2.18583 10.1633 3.25917H12.9633V7.37917L12.3833 7.23917C12.05 7.15917 11.8766 7.14583 11.8033 7.14583C11.3233 7.14583 10.93 7.53917 10.93 8.01917C10.93 8.49917 11.3233 8.8925 11.8033 8.8925C11.8766 8.8925 12.05 8.87917 12.3833 8.79917L12.9566 8.65917V12.7658H10.1566C10.1366 13.8258 9.26995 14.6792 8.20995 14.6792L8.20329 14.6725ZM4.38329 11.8258H7.31662L7.22329 12.3658C7.20329 12.4992 7.18995 12.6192 7.18995 12.7192C7.18995 13.2792 7.64329 13.7392 8.20995 13.7392C8.77662 13.7392 9.22995 13.2858 9.22995 12.7192C9.22995 12.6192 9.21662 12.4992 9.19662 12.3658L9.10329 11.8258H12.03V9.79917C11.95 9.80583 11.87 9.8125 11.8033 9.8125C10.81 9.8125 9.99662 9.00583 9.99662 8.00583C9.99662 7.00583 10.8033 6.19917 11.8033 6.19917C11.87 6.19917 11.9433 6.19917 12.03 6.2125V4.17917H9.09662L9.18995 3.6325C9.21662 3.48583 9.22995 3.35917 9.22995 3.2525C9.22995 2.6925 8.77662 2.2325 8.20995 2.2325C7.64329 2.2325 7.18995 2.68583 7.18995 3.2525C7.18995 3.35917 7.20329 3.4925 7.22995 3.6325L7.32329 4.17917H4.37662V7.1125L3.82995 7.01917C3.69662 6.99917 3.57662 6.98583 3.47662 6.98583C2.91662 6.98583 2.45662 7.43917 2.45662 8.00583C2.45662 8.5725 2.90995 9.01917 3.47662 9.01917C3.57662 9.01917 3.69662 9.00583 3.82995 8.98583L4.37662 8.8925V11.8192L4.38329 11.8258Z" fill="#303030"/>
</svg>
