<svg width="16" height="16" viewBox="0 0 16 16" fill="none" xmlns="http://www.w3.org/2000/svg">
<path d="M12.0068 7.78448C11.9668 7.78448 11.9201 7.79781 11.8801 7.79781L10.6668 2.75781H8.50009V3.69115H9.93342L10.3868 5.57115H5.98675V5.55781L5.95342 5.57115H5.12675L3.82009 7.93115C2.44009 8.02448 1.34009 9.17115 1.34009 10.5711C1.34009 11.9711 2.53342 13.2311 4.00009 13.2311C5.36009 13.2311 6.47342 12.1978 6.62675 10.8778H8.23342L10.6534 6.69115L10.9668 7.99781C10.0134 8.40448 9.34676 9.34448 9.34676 10.4445C9.34676 11.9111 10.5401 13.1045 12.0068 13.1045C13.4734 13.1045 14.6668 11.9111 14.6668 10.4445C14.6668 8.97781 13.4734 7.78448 12.0068 7.78448ZM5.54009 6.74448L7.19342 9.93781H6.57342C6.35342 9.04448 5.68009 8.33115 4.81342 8.05115L5.53342 6.74448H5.54009ZM4.00675 12.2978C3.05342 12.2978 2.28009 11.5245 2.28009 10.5711C2.28009 9.61781 3.05342 8.84448 4.00675 8.84448C4.73342 8.84448 5.36009 9.29781 5.60675 9.94448H4.00675V10.8778H5.70009C5.55342 11.6845 4.85342 12.2978 4.00675 12.2978ZM7.98675 9.43115L6.46675 6.49781H9.68009L7.98675 9.43115ZM12.0068 12.1778C11.0534 12.1778 10.2801 11.4045 10.2801 10.4511C10.2801 9.79781 10.6534 9.23115 11.1934 8.93781L11.5734 10.5178L12.4801 10.2978L12.1001 8.73115C13.0068 8.78448 13.7268 9.53115 13.7268 10.4445C13.7268 11.3578 12.9534 12.1711 12.0001 12.1711L12.0068 12.1778ZM4.06009 3.70448H6.56009V4.63781H4.06009V3.70448Z" fill="#303030"/>
</svg>
