<svg xmlns="http://www.w3.org/2000/svg" viewBox="0 0 32 32" fill="none">
  <rect width="32" height="32" fill="#010101"/>
  <g transform="translate(8, 10) scale(1.0)">
    <path d="M15.72 4.216C15.72 5.70933 14.9387 7.02134 14.2107 7.91734L10.808 12.0667H9L12.584 7.86667C12.136 8.13334 11.6213 8.26667 11.056 8.26667C9.96 8.26667 9.064 7.952 8.368 7.42133C8.384 7.52 8.384 7.63734 8.384 7.752C8.384 10.3733 6.74133 12.2667 4.2 12.2667C1.59467 12.2667 0 10.3733 0 7.752C0 5.112 1.59467 3.23733 4.2 3.23733C5.328 3.23733 6.25867 3.58667 6.95467 4.2C6.98667 1.792 8.76267 0 11.3867 0C14.112 0 15.72 1.82667 15.72 4.216ZM6.824 7.752C6.824 5.82667 5.97867 4.432 4.20267 4.432C2.41067 4.432 1.56267 5.82667 1.56267 7.752C1.56267 9.69334 2.408 11.072 4.20267 11.072C5.97867 11.072 6.824 9.69334 6.824 7.752ZM14.2107 4.216C14.2107 2.58933 13.216 1.19467 11.3893 1.19467C9.58133 1.19467 8.51733 2.58933 8.51733 4.26667C8.51733 5.90933 9.53067 7.25333 11.3547 7.25333C13.1467 7.25333 14.2107 5.81067 14.2107 4.216Z" fill="white"/>
  </g>
</svg>
